<svg id="Слой_1" data-name="Слой 1" xmlns="http://www.w3.org/2000/svg" xmlns:xlink="http://www.w3.org/1999/xlink" viewBox="0 0 396.78 225.16"><defs><style>.cls-1{fill:#d6d6d6;}.cls-2{opacity:0.4;}.cls-3,.cls-4{opacity:0.2;}.cls-3,.cls-4,.cls-6{isolation:isolate;}.cls-3{fill:url(#Безымянный_градиент_3);}.cls-4{fill:url(#Безымянный_градиент_2);}.cls-5{fill:url(#Безымянный_градиент_4);}.cls-6{opacity:0.8;fill:url(#Безымянный_градиент_4-2);}</style><linearGradient id="Безымянный_градиент_3" x1="547.35" y1="319.42" x2="547.35" y2="451.97" gradientTransform="matrix(1, 0, 0, -1, 0, 770)" gradientUnits="userSpaceOnUse"><stop offset="0" stop-color="#fff"/><stop offset="1" stop-color="#53b6e0"/></linearGradient><linearGradient id="Безымянный_градиент_2" x1="591" y1="384.5" x2="842" y2="384.5" gradientTransform="matrix(1, 0, 0, -1, 0, 770)" gradientUnits="userSpaceOnUse"><stop offset="0" stop-color="#fff"/><stop offset="1" stop-color="#838383"/></linearGradient><linearGradient id="Безымянный_градиент_4" x1="489.41" y1="350.11" x2="672.96" y2="440.37" gradientTransform="matrix(1, 0, 0, -1, 0, 770)" gradientUnits="userSpaceOnUse"><stop offset="0" stop-color="#002e82"/><stop offset="0.41" stop-color="#426ab3"/><stop offset="1" stop-color="#adbfde"/></linearGradient><linearGradient id="Безымянный_градиент_4-2" x1="636.04" y1="313.7" x2="864" y2="547.18" xlink:href="#Безымянный_градиент_4"/></defs><title>achievement-2</title><path class="cls-1" d="M766.7,496.67c62.81,0,113.94-50.52,113.94-112.57S829.51,271.52,766.7,271.52a1,1,0,1,0,0,1.94c61.73,0,112,49.64,112,110.64s-50.24,110.63-112,110.63a1,1,0,1,0,0,1.94Z" transform="translate(-483.85 -271.52)"/><g class="cls-2"><path class="cls-3" d="M486.91,450.58V432.16l22-15.23c37.16-25.43,55.25-40.1,55.86-55.34,0-10.66-8.43-19.07-28-19.07-14.67,0-27.5,5.61-36.42,10.84l-11.25-21.87C501.94,324.11,521.87,318,545,318c38.5,0,59.77,17.2,59.77,40.85,0,21.87-20.66,39.26-45.35,56.08l-15.76,10v.37H607.8v25.05H486.91Z" transform="translate(-483.85 -271.52)"/><path class="cls-4" d="M756.45,451H591l23.69-131H756.45c47.26,0,85.55,29.34,85.55,65.55S803.71,451,756.45,451Z" transform="translate(-483.85 -271.52)"/><path class="cls-5" d="M607.67,452.91H486.91c-1.71,0-3.06-1-3.06-2.33V432.16a2.29,2.29,0,0,1,1-1.77l22-15.24c37.53-25.61,54.27-39.44,54.76-53.65,0-10.75-8.92-16.64-24.93-16.64-11.25,0-22.86,3.46-34.59,10.37a3.76,3.76,0,0,1-2.69.38,3,3,0,0,1-2.08-1.4l-11.25-21.88a2,2,0,0,1,1-2.71c15.28-8.78,36.3-13.93,57.69-13.93,38.14,0,62.83,16.92,62.83,43.19,0,23-22.24,41.41-46.32,57.86l-9.9,6.36h56.34c1.72,0,3.06,1,3.06,2.33s-1.34,2.34-3.06,2.34H543.5c-1.71,0-3-1-3-2.34v-.37a2.13,2.13,0,0,1,1.1-1.78l15.76-10c26.53-18.13,44.25-34.3,44.25-54.31,0-23.74-21.75-38.51-56.71-38.51-19.19,0-38,4.3-52.07,11.87l8.92,17.39c11.73-6.26,23.47-9.44,35.08-9.44,19.43,0,31.05,7.94,31.05,21.4-.49,15.89-18,30.48-56.84,57l-21,14.49v15.05h117.7c1.72,0,3.06,1,3.06,2.34S609.39,452.91,607.67,452.91Z" transform="translate(-483.85 -271.52)"/><path class="cls-6" d="M758.4,453H591.1c-1.74,0-3.1-1-3.1-2.34s1.36-2.34,3.1-2.34H758.4c45.92,0,83.4-28.14,83.4-62.82s-37.36-62.83-83.4-62.83H608.23c-1.74,0-3.1-1-3.1-2.33s1.36-2.34,3.1-2.34H758.4c49.39,0,89.6,30.29,89.6,67.5S807.79,453,758.4,453Z" transform="translate(-483.85 -271.52)"/></g></svg>