<svg id="Слой_1" data-name="Слой 1" xmlns="http://www.w3.org/2000/svg" xmlns:xlink="http://www.w3.org/1999/xlink" viewBox="0 0 443.01 223.88"><defs><style>.cls-1{fill:#d6d6d6;}.cls-2{opacity:0.4;}.cls-3,.cls-4{opacity:0.2;}.cls-3,.cls-4,.cls-6{isolation:isolate;}.cls-3{fill:url(#Безымянный_градиент_3);}.cls-4{fill:url(#Безымянный_градиент_2);}.cls-5{fill:url(#Безымянный_градиент_4);}.cls-6{opacity:0.8;fill:url(#Безымянный_градиент_4-2);}</style><linearGradient id="Безымянный_градиент_3" x1="532.29" y1="323.33" x2="532.29" y2="453.54" gradientTransform="matrix(1, 0, 0, -1, 0, 770)" gradientUnits="userSpaceOnUse"><stop offset="0" stop-color="#fff"/><stop offset="1" stop-color="#53b6e0"/></linearGradient><linearGradient id="Безымянный_градиент_2" x1="597" y1="388.5" x2="849" y2="388.5" gradientTransform="matrix(1, 0, 0, -1, 0, 770)" gradientUnits="userSpaceOnUse"><stop offset="0" stop-color="#fff"/><stop offset="1" stop-color="#838383"/></linearGradient><linearGradient id="Безымянный_градиент_4" x1="489.51" y1="366.62" x2="625.86" y2="411.96" gradientTransform="matrix(1, 0, 0, -1, 0, 770)" gradientUnits="userSpaceOnUse"><stop offset="0" stop-color="#002e82"/><stop offset="0.41" stop-color="#426ab3"/><stop offset="1" stop-color="#adbfde"/></linearGradient><linearGradient id="Безымянный_градиент_4-2" x1="633.65" y1="307.42" x2="859.97" y2="563.29" xlink:href="#Безымянный_градиент_4"/></defs><title>achievement-1</title><path class="cls-1" d="M595.84,490C521.51,490,461,441.07,461,381S521.51,272,595.84,272H765.16C839.49,272,900,320.93,900,381.05c0,.56-.46.94-1.16.94s-1.16-.38-1.16-.94c0-59.08-59.47-107.17-132.52-107.17H595.84c-73.05,0-132.52,48.09-132.52,107.17s59.47,107.16,132.52,107.16c.69,0,1.16.38,1.16.94S596.42,490,595.84,490Z" transform="translate(-461 -272)"/><g class="cls-2"><path class="cls-3" d="M532.84,343.47h-.49l-32.52,11.78-6.61-22.81,45.12-16h33V446.67H532.84Z" transform="translate(-461 -272)"/><path class="cls-4" d="M763.11,447H597V316H763.11c47.44,0,85.89,29.34,85.89,65.55S810.55,447,763.11,447Z" transform="translate(-461 -272)"/><path class="cls-5" d="M571.35,449c-1.71,0-3.06-1-3.06-2.34V318.8H539l-42.18,15.05L502,352l29-10.56a3.05,3.05,0,0,1,1.35-.19h.49c1.71,0,3,1,3,2.34V446.76c0,1.31-1.34,2.34-3,2.34s-3.06-1-3.06-2.34V347L501.17,357.5a4.41,4.41,0,0,1-2.69,0,2.34,2.34,0,0,1-1.59-1.59l-6.6-22.81a2.3,2.3,0,0,1,1.71-2.62l45.12-16a3,3,0,0,1,1.34-.19h33c1.71,0,3.06,1,3.06,2.34V446.86C574.4,448,573.06,449,571.35,449Z" transform="translate(-461 -272)"/><path class="cls-6" d="M766.06,449H572.11c-1.74,0-3.11-1-3.11-2.34s1.37-2.34,3.11-2.34H766.06c46.09,0,83.71-28.14,83.71-62.82s-37.49-62.83-83.71-62.83H598.15c-1.75,0-3.12-1-3.12-2.33s1.37-2.34,3.12-2.34H766.06c49.58,0,89.94,30.29,89.94,67.5S815.64,449,766.06,449Z" transform="translate(-461 -272)"/></g><path class="cls-1" d="M642.21,495.88a7.39,7.39,0,1,1,7.45-7.39A7.32,7.32,0,0,1,642.21,495.88Zm0-12.9a5.52,5.52,0,1,0,5.57,5.51A5.43,5.43,0,0,0,642.21,483Z" transform="translate(-461 -272)"/><path class="cls-1" d="M891,401.45a6.51,6.51,0,1,1,6.51,6.45A6.37,6.37,0,0,1,891,401.45Z" transform="translate(-461 -272)"/></svg>