<svg id="Слой_1" data-name="Слой 1" xmlns="http://www.w3.org/2000/svg" xmlns:xlink="http://www.w3.org/1999/xlink" viewBox="0 0 411.39 217.05"><defs><style>.cls-1{fill:#d6d6d6;}.cls-2{opacity:0.4;}.cls-3,.cls-4{opacity:0.2;}.cls-3,.cls-4,.cls-6{isolation:isolate;}.cls-3{fill:url(#Безымянный_градиент_3);}.cls-4{fill:url(#Безымянный_градиент_2);}.cls-5{fill:url(#Безымянный_градиент_4);}.cls-6{opacity:0.8;fill:url(#Безымянный_градиент_4-2);}</style><linearGradient id="Безымянный_градиент_3" x1="592.35" y1="324.43" x2="592.35" y2="456.78" gradientTransform="matrix(1, 0, 0, -1, 0, 770)" gradientUnits="userSpaceOnUse"><stop offset="0" stop-color="#fff"/><stop offset="1" stop-color="#53b6e0"/></linearGradient><linearGradient id="Безымянный_градиент_2" x1="659.23" y1="389.53" x2="885.64" y2="389.53" gradientTransform="matrix(1, 0, 0, -1, 0, 770)" gradientUnits="userSpaceOnUse"><stop offset="0" stop-color="#fff"/><stop offset="1" stop-color="#838383"/></linearGradient><linearGradient id="Безымянный_градиент_4" x1="528.11" y1="368.13" x2="711.58" y2="458.37" gradientTransform="matrix(1, 0, 0, -1, 0, 770)" gradientUnits="userSpaceOnUse"><stop offset="0" stop-color="#002e82"/><stop offset="0.41" stop-color="#426ab3"/><stop offset="1" stop-color="#adbfde"/></linearGradient><linearGradient id="Безымянный_градиент_4-2" x1="673.79" y1="286.57" x2="896.97" y2="561.12" xlink:href="#Безымянный_градиент_4"/></defs><title>achievement-5</title><path class="cls-1" d="M586.78,492.16c-60.35,0-109.47-48.7-109.47-108.52s49.12-108.53,109.47-108.53a.94.94,0,1,1,0,1.87c-59.31,0-107.58,47.86-107.58,106.66s48.27,106.65,107.58,106.65a.94.94,0,1,1,0,1.87Z" transform="translate(-477.31 -275.11)"/><g class="cls-2"><path class="cls-3" d="M645.78,338.17h-66l-3.67,20a102,102,0,0,1,11-.38c16.26,0,32.76,2.81,44.86,9.44,12.84,6.64,20.66,17.39,20.66,32.62,0,10.47-5.13,20.38-14.55,28.33-12.47,10.47-32.51,17.38-58.56,17.38-20.66,0-38-3.64-47.43-7.38l7.09-22.81c7.58,2.81,23.11,6.45,38.51,6.45,16.51,0,34.11-6,34.11-19.82,0-13.45-13.94-21.68-47.92-21.68a185,185,0,0,0-23.11,1.21L552,313.22h93.77Z" transform="translate(-477.31 -275.11)"/><path class="cls-4" d="M800.43,445.58H659.23V315.37h141.2c47.07,0,85.21,29.16,85.21,65.15S847.38,445.58,800.43,445.58Z" transform="translate(-477.31 -275.11)"/><path class="cls-5" d="M579.51,447.91c-22,0-39.61-3.92-48.9-7.66a2.32,2.32,0,0,1-1.59-2.62l7.09-22.81a2.79,2.79,0,0,1,1.72-1.59,4.41,4.41,0,0,1,2.69,0c8.06,3,23.1,6.17,37.16,6.17,15.41,0,31.05-5.42,31.05-17.48,0-13-14.67-19.35-44.86-19.35a187.48,187.48,0,0,0-22.62,1.22,3.38,3.38,0,0,1-2.57-.65,1.87,1.87,0,0,1-.85-2l11.24-68.33a3,3,0,0,1,3.06-2H645.9c1.71,0,3.06,1,3.06,2.33v25.05c0,1.31-1.35,2.34-3.06,2.34H582.57l-2.81,15.05c2.32-.09,4.77-.09,7.46-.09,18.46,0,35,3.46,46.58,9.81,14.3,7.39,22,19.35,22,34.59a36.48,36.48,0,0,1-8.19,22.62,3.56,3.56,0,0,1-4.15.84c-1.47-.66-2-2.06-1.11-3.18A32.73,32.73,0,0,0,649.69,400c0-13.55-6.72-24.21-19.32-30.75-10.63-5.8-25.91-9-43.15-9a94,94,0,0,0-10.64.38A3.82,3.82,0,0,1,574,360a1.93,1.93,0,0,1-.85-2l3.67-20a3,3,0,0,1,3-2.06h63V315.55h-88l-10.39,63.28c6.11-.56,12.1-.84,19.56-.84,33.86,0,51,8,51,24,0,15.23-19.19,22.15-37.17,22.15a130.09,130.09,0,0,1-36.43-5.52L535.75,437c9,3.17,24.57,6.35,43.89,6.35,1.71,0,3.05,1,3.05,2.34S581.11,447.91,579.51,447.91Z" transform="translate(-477.31 -275.11)"/><path class="cls-6" d="M800.43,447.91H579.51c-1.71,0-3-1-3-2.34s1.34-2.33,3-2.33H800.43c45.23,0,82.15-28.14,82.15-62.82s-36.79-62.81-82.15-62.81H667.29c-1.71,0-3-1-3-2.34s1.34-2.33,3-2.33H800.43c48.66,0,88.27,30.28,88.27,67.48S849.09,447.91,800.43,447.91Z" transform="translate(-477.31 -275.11)"/></g></svg>