<svg id="Слой_1" data-name="Слой 1" xmlns="http://www.w3.org/2000/svg" xmlns:xlink="http://www.w3.org/1999/xlink" viewBox="0 0 437.67 223.68"><defs><style>.cls-1{fill:#d6d6d6;}.cls-2{opacity:0.4;}.cls-3,.cls-4{opacity:0.2;}.cls-3,.cls-4,.cls-6{isolation:isolate;}.cls-3{fill:url(#Безымянный_градиент_3);}.cls-4{fill:url(#Безымянный_градиент_2);}.cls-5{fill:url(#Безымянный_градиент_4);}.cls-6{opacity:0.8;fill:url(#Безымянный_градиент_4-2);}</style><linearGradient id="Безымянный_градиент_3" x1="580.06" y1="314.56" x2="580.06" y2="455.88" gradientTransform="matrix(1, 0, 0, -1, 0, 770)" gradientUnits="userSpaceOnUse"><stop offset="0" stop-color="#fff"/><stop offset="1" stop-color="#53b6e0"/></linearGradient><linearGradient id="Безымянный_градиент_2" x1="645.9" y1="382.99" x2="868.99" y2="382.99" gradientTransform="matrix(1, 0, 0, -1, 0, 770)" gradientUnits="userSpaceOnUse"><stop offset="0" stop-color="#fff"/><stop offset="1" stop-color="#838383"/></linearGradient><linearGradient id="Безымянный_градиент_4" x1="516.05" y1="352.33" x2="711" y2="447.61" gradientTransform="matrix(1, 0, 0, -1, 0, 770)" gradientUnits="userSpaceOnUse"><stop offset="0" stop-color="#002e82"/><stop offset="0.41" stop-color="#426ab3"/><stop offset="1" stop-color="#adbfde"/></linearGradient><linearGradient id="Безымянный_градиент_4-2" x1="653.08" y1="288.99" x2="891.71" y2="552.67" xlink:href="#Безымянный_градиент_4"/></defs><title>achievement-6</title><path class="cls-1" d="M768.15,495.31H601.26c-73.26,0-132.89-48.87-132.89-108.9,0-.56.46-.94,1.14-.94s1.15.38,1.15.94c0,59,58.6,107,130.6,107H768.15c72,0,130.6-48,130.6-107s-58.6-107-130.6-107c-.69,0-1.14-.37-1.14-.94s.45-.93,1.14-.93c73.26,0,132.89,48.86,132.89,108.89S841.41,495.31,768.15,495.31Z" transform="translate(-463.37 -271.63)"/><g class="cls-2"><path class="cls-3" d="M625.9,338.93a140.37,140.37,0,0,0-15.18.39c-34.82,2.36-50.36,16.81-54.69,32.84h.72c8.31-7,19.88-10.91,35.66-10.91,28.19,0,51.92,16.22,51.92,44.64,0,27.23-25.54,49.55-61.92,49.55-44.69,0-66.62-27.23-66.62-59.88,0-25.76,11.57-47.19,29.64-60.86,16.74-12.39,38.42-19.17,64.81-20.26a147.31,147.31,0,0,1,15.78-.19v24.68Zm-21.33,68.72c0-12.68-8.31-23.59-25.05-23.59-10.6,0-19.4,5.31-23.25,12.19-1.09,1.67-1.57,4.23-1.57,8,.72,14.56,9.28,27.63,27.11,27.63C595.78,431.84,604.57,421.52,604.57,407.65Z" transform="translate(-463.37 -271.63)"/><path class="cls-4" d="M785,455.54H645.9V318.48H785c46.38,0,84,30.67,84,68.53S831.41,455.54,785,455.54Z" transform="translate(-463.37 -271.63)"/><path class="cls-5" d="M582.29,458c-42.28,0-69.63-24.48-69.63-62.34,0-25.07,11.21-48,30.6-62.73C560.49,320.15,583,313.17,610,312.09a127.69,127.69,0,0,1,16.14-.2,2.73,2.73,0,0,1,2.77,2.46V339a2.31,2.31,0,0,1-1,1.77,3.65,3.65,0,0,1-2.29.68,134.33,134.33,0,0,0-14.82.4c-30,2-43.49,13-49.27,23.79,8.31-4.52,18.55-6.78,30.6-6.78,32.28,0,54.93,19.37,54.93,47.1a43.72,43.72,0,0,1-3,16.12,3.14,3.14,0,0,1-3.74,1.57,2.36,2.36,0,0,1-1.92-3A41,41,0,0,0,641.2,406c0-24.88-20.12-42.19-48.91-42.19-14.22,0-25.42,3.45-33.49,10.23a3.36,3.36,0,0,1-2.17.79h-.72a3.37,3.37,0,0,1-2.41-.89,2,2,0,0,1-.6-2.06c3.25-11.8,14.94-32,57.46-34.81,4.82-.3,8.79-.49,12.53-.49V316.8c-3.5-.09-7.47,0-12.53.3-25.66,1-46.86,7.67-63,19.57-18.19,13.86-28.67,35.39-28.67,59.09,0,27.73,16.74,57.42,63.6,57.42a2.75,2.75,0,0,1,3,2.46C585.3,457,584,458,582.29,458Zm-.48-23.7c-17.35,0-29.15-11.8-30.12-30v-.1c0-4.12.61-7,1.93-9.14,4.58-8.26,14.82-13.57,25.9-13.57,16.74,0,28.07,10.52,28.07,26.06C607.59,423.39,597,434.3,581.81,434.3Zm-24.09-30.09c.72,12.2,7.35,25.18,24.09,25.18,11.8,0,19.76-8.75,19.76-21.73,0-9.74-5.79-21.14-22.05-21.14-8.79,0-16.86,4.23-20.48,10.81C558.08,398.71,557.72,401,557.72,404.21Z" transform="translate(-463.37 -271.63)"/><path class="cls-6" d="M785,458H580a2.51,2.51,0,1,1,0-4.92H785c44.57,0,81-29.59,81-66.07s-36.26-66.07-81-66.07H649a2.51,2.51,0,1,1,0-4.92H785c47.94,0,87,31.86,87,71S833,458,785,458Z" transform="translate(-463.37 -271.63)"/></g><path class="cls-1" d="M463.37,357.25a6.51,6.51,0,1,1,6.51,6.45A6.5,6.5,0,0,1,463.37,357.25Z" transform="translate(-463.37 -271.63)"/><path class="cls-1" d="M701.84,286.4a7.39,7.39,0,1,1,7.45-7.39A7.43,7.43,0,0,1,701.84,286.4Zm0-13a5.52,5.52,0,1,0,5.57,5.52A5.62,5.62,0,0,0,701.84,273.4Z" transform="translate(-463.37 -271.63)"/></svg>