<svg id="Слой_1" data-name="Слой 1" xmlns="http://www.w3.org/2000/svg" xmlns:xlink="http://www.w3.org/1999/xlink" viewBox="0 0 418.68 224.66"><defs><style>.cls-1{fill:#d6d6d6;}.cls-2{opacity:0.4;}.cls-3,.cls-4{opacity:0.2;}.cls-3,.cls-4,.cls-6{isolation:isolate;}.cls-3{fill:url(#Безымянный_градиент_3);}.cls-4{fill:url(#Безымянный_градиент_2);}.cls-5{fill:url(#Безымянный_градиент_4);}.cls-6{opacity:0.8;fill:url(#Безымянный_градиент_4-2);}</style><linearGradient id="Безымянный_градиент_3" x1="572.4" y1="324.33" x2="572.4" y2="454.54" gradientTransform="matrix(1, 0, 0, -1, 0, 770)" gradientUnits="userSpaceOnUse"><stop offset="0" stop-color="#fff"/><stop offset="1" stop-color="#53b6e0"/></linearGradient><linearGradient id="Безымянный_градиент_2" x1="614.86" y1="389.44" x2="860.49" y2="389.44" gradientTransform="matrix(1, 0, 0, -1, 0, 770)" gradientUnits="userSpaceOnUse"><stop offset="0" stop-color="#fff"/><stop offset="1" stop-color="#838383"/></linearGradient><linearGradient id="Безымянный_градиент_4" x1="514.22" y1="346.24" x2="704.97" y2="449.48" gradientTransform="matrix(1, 0, 0, -1, 0, 770)" gradientUnits="userSpaceOnUse"><stop offset="0" stop-color="#002e82"/><stop offset="0.41" stop-color="#426ab3"/><stop offset="1" stop-color="#adbfde"/></linearGradient><linearGradient id="Безымянный_градиент_4-2" x1="657.77" y1="319.28" x2="885.74" y2="545.3" xlink:href="#Безымянный_градиент_4"/></defs><title>achievement-4</title><path class="cls-1" d="M765.29,489a1,1,0,1,1,0-1.88c68.67,0,124.57-48,124.57-107s-55.9-107-124.57-107H606.11c-68.67,0-124.57,48-124.57,107a1,1,0,0,1-1.09.94c-.66,0-1.1-.37-1.1-.94,0-60,56.88-108.89,126.76-108.89H765.29c69.87,0,126.75,48.86,126.75,108.89S835.16,489,765.29,489Z" transform="translate(-473.36 -271.25)"/><g class="cls-2"><path class="cls-3" d="M580.87,445.67v-31H506.76V394.82l63.3-79.36H618v76.37h20v22.81H618v31Zm0-53.94V362.85c0-7.85.48-15.8,1.32-24.21h-1.08c-5.4,8.41-9.73,16.08-15.49,24.21l-22.34,28.42v.37h37.59Z" transform="translate(-473.36 -271.25)"/><path class="cls-4" d="M776.77,445.67H614.86l26.91-130.21h135c46.24,0,83.72,29.16,83.72,65.15S822.89,445.67,776.77,445.67Z" transform="translate(-473.36 -271.25)"/><path class="cls-5" d="M617.87,448h-37c-1.68,0-3-1-3-2.34V417H506.76c-1.68,0-3-1-3-2.33V394.82a1.59,1.59,0,0,1,.48-1.21l63.3-79.36a3.53,3.53,0,0,1,2.52-1.13H618c1.68,0,3,1,3,2.34v74h17c1.69,0,3,1,3,2.34v22.81c0,1.31-1.32,2.33-3,2.33H618c-1.69,0-3-1-3-2.33s1.32-2.34,3-2.34h16.93V394.17h-17c-1.69,0-3-1-3-2.34v-74H571.62l-62,77.67V412.3h71.1c1.68,0,3,1,3,2.34v28.69h34.12c1.68,0,3,1,3,2.34S619.55,448,617.87,448Zm-37-53.94H543.28c-1.68,0-3-1-3-2.33v-.38a1.56,1.56,0,0,1,.49-1.21l22.34-28.42c3.48-5.14,6.48-9.91,9.72-15.05l5.65-9.07a3.27,3.27,0,0,1,2.64-1.3h1.08a3.29,3.29,0,0,1,2.17.74,2.67,2.67,0,0,1,.84,1.78c-.84,9.53-1.33,17.2-1.33,24.12v28.88C583.87,393,582.43,394.07,580.87,394.07Zm-32.55-4.67h29.55V362.85c0-4.48.12-9.16.48-14.58-.12.09-.12.19-.24.37-3.24,5.15-6.25,10.1-9.85,15.33a.11.11,0,0,1-.12.1Z" transform="translate(-473.36 -271.25)"/><path class="cls-6" d="M776.77,448H614.86c-1.68,0-3-1-3-2.34s1.32-2.34,3-2.34H776.77c44.44,0,80.71-28.13,80.71-62.81s-36.15-62.81-80.71-62.81h-137c-1.69,0-3-1-3-2.34s1.32-2.34,3-2.34h137c47.8,0,86.72,30.29,86.72,67.49S824.57,448,776.77,448Z" transform="translate(-473.36 -271.25)"/></g><path class="cls-1" d="M473.36,400.56a6.51,6.51,0,1,1,6.5,6.45A6.37,6.37,0,0,1,473.36,400.56Z" transform="translate(-473.36 -271.25)"/><path class="cls-1" d="M702.64,495.9a7.39,7.39,0,1,1,7.45-7.38A7.43,7.43,0,0,1,702.64,495.9Zm0-12.89a5.52,5.52,0,1,0,5.56,5.51A5.54,5.54,0,0,0,702.64,483Z" transform="translate(-473.36 -271.25)"/></svg>