<svg id="Слой_1" data-name="Слой 1" xmlns="http://www.w3.org/2000/svg" xmlns:xlink="http://www.w3.org/1999/xlink" viewBox="0 0 470.01 221.62"><defs><style>.cls-1{fill:#d6d6d6;}.cls-2{opacity:0.4;}.cls-3,.cls-4{opacity:0.2;}.cls-3,.cls-4,.cls-6{isolation:isolate;}.cls-3{fill:url(#Безымянный_градиент_3);}.cls-4{fill:url(#Безымянный_градиент_2);}.cls-5{fill:url(#Безымянный_градиент_4);}.cls-6{opacity:0.8;fill:url(#Безымянный_градиент_4-2);}</style><linearGradient id="Безымянный_градиент_3" x1="562.81" y1="313.39" x2="562.81" y2="454.86" gradientTransform="matrix(1, 0, 0, -1, 0, 770)" gradientUnits="userSpaceOnUse"><stop offset="0" stop-color="#fff"/><stop offset="1" stop-color="#53b6e0"/></linearGradient><linearGradient id="Безымянный_градиент_2" x1="617" y1="381.5" x2="871" y2="381.5" gradientTransform="matrix(1, 0, 0, -1, 0, 770)" gradientUnits="userSpaceOnUse"><stop offset="0" stop-color="#fff"/><stop offset="1" stop-color="#838383"/></linearGradient><linearGradient id="Безымянный_градиент_4" x1="496.12" y1="363.07" x2="686.03" y2="452.19" gradientTransform="matrix(1, 0, 0, -1, 0, 770)" gradientUnits="userSpaceOnUse"><stop offset="0" stop-color="#002e82"/><stop offset="0.41" stop-color="#426ab3"/><stop offset="1" stop-color="#adbfde"/></linearGradient><linearGradient id="Безымянный_градиент_4-2" x1="646.63" y1="278.2" x2="881.49" y2="566.7" xlink:href="#Безымянный_градиент_4"/></defs><title>achievement-3</title><path class="cls-1" d="M770.75,495H591.13C512.23,495,448,446.54,448,387s64.23-108,143.13-108c.74,0,1.23.37,1.23.93s-.49.93-1.23.93c-77.54,0-140.66,47.63-140.66,106.14s63.12,106.14,140.66,106.14H770.87c77.55,0,140.66-47.63,140.66-106.14,0-.56.5-.93,1.24-.93s1.23.37,1.23.93C913.88,446.63,849.77,495,770.75,495Z" transform="translate(-448 -273.38)"/><g class="cls-2"><path class="cls-3" d="M509.84,422.84c7.22,3,23.8,8.44,40.38,8.44,21.06,0,31.78-7.95,31.78-18.26,0-13.45-17.07-19.53-35-19.53H530.4v-23h15.71c13.58-.19,31-4.22,31-15.8,0-8.25-8.6-14.33-25.68-14.33-14.2,0-29.16,4.81-36.39,8.24l-8.23-23.17c10.47-5.3,31.29-10.31,53.72-10.31,37.15,0,57.71,15.32,57.71,34.07,0,14.53-10.47,25.92-31.78,31.81v.39c20.81,2.95,37.64,15.32,37.64,33.28,0,24.25-27,41.92-71,41.92-22.43,0-41.38-4.61-51.6-9.72Z" transform="translate(-448 -273.38)"/><path class="cls-4" d="M780.72,457H617l7.25-137H780.72c49.87,0,90.28,30.68,90.28,68.55S830.59,457,780.72,457Z" transform="translate(-448 -273.38)"/><path class="cls-5" d="M553.09,459c-24.31,0-43.5-5.21-53.22-10a2.29,2.29,0,0,1-1.37-2.75l8.22-23.95a2.69,2.69,0,0,1,1.75-1.57,3.71,3.71,0,0,1,2.74.1c3.36,1.37,20.81,8.15,38.89,8.15,17.69,0,28.66-6.09,28.66-15.81,0-12.66-17.2-17.08-31.9-17.08H530.4c-1.74,0-3.11-1.08-3.11-2.46v-23c0-1.37,1.37-2.45,3.11-2.45h15.71c2.74,0,27.92-.79,27.92-13.36,0-7.46-8.48-11.87-22.56-11.87s-28.92,5.1-34.78,7.85a3.84,3.84,0,0,1-2.74.2,3,3,0,0,1-1.87-1.57l-8.23-23.17a2.2,2.2,0,0,1,1.38-2.75c10.59-5.3,31.78-10.7,55.34-10.7,42,0,60.82,18.35,60.82,36.52,0,13.94-9.1,24.93-25.93,31.51,19.32,5.2,31.91,18.16,31.91,34a34.4,34.4,0,0,1-1.12,8.74,3.24,3.24,0,0,1-3.74,1.86c-1.62-.29-2.74-1.57-2.37-2.94a31.55,31.55,0,0,0,1-7.76c0-17.87-17.57-28.37-35.15-30.83a2.77,2.77,0,0,1-2.61-2.45V381a2.66,2.66,0,0,1,2.11-2.36c19.45-5.4,29.67-15.51,29.67-29.45,0-18.95-21.94-31.61-54.59-31.61-20.82,0-39.89,4.51-50.11,9L517.07,345c7.85-3.14,21.19-7.07,34.4-7.07,21.19,0,28.79,8.64,28.79,16.79,0,13.05-18.32,18-34,18.26H533.52V391H547c18.95,0,38.14,6.78,38.14,22,0,12.57-13.71,20.72-34.9,20.72-15.83,0-31.28-4.81-38.26-7.37l-6.73,19.34c9.22,4,26.54,8.35,48,8.35,1.75,0,3.12,1.08,3.12,2.45A3,3,0,0,1,553.09,459Z" transform="translate(-448 -273.38)"/><path class="cls-6" d="M784.19,459h-231c-1.81,0-3.24-1.08-3.24-2.46s1.43-2.46,3.24-2.46h231c48,0,87.19-29.6,87.19-66.08s-39-66.08-87.19-66.08H627.59c-1.82,0-3.24-1.08-3.24-2.46s1.42-2.46,3.24-2.46H784.32C836,317,878,348.86,878,388S835.83,459,784.19,459Z" transform="translate(-448 -273.38)"/></g><path class="cls-1" d="M905,358.45a6.51,6.51,0,1,1,6.51,6.45A6.49,6.49,0,0,1,905,358.45Z" transform="translate(-448 -273.38)"/><path class="cls-1" d="M644.22,288.15a7.39,7.39,0,1,1,7.45-7.39A7.44,7.44,0,0,1,644.22,288.15Zm0-12.9a5.52,5.52,0,1,0,5.56,5.51A5.55,5.55,0,0,0,644.22,275.25Z" transform="translate(-448 -273.38)"/></svg>