<svg id="Слой_1" data-name="Слой 1" xmlns="http://www.w3.org/2000/svg" xmlns:xlink="http://www.w3.org/1999/xlink" viewBox="0 0 127.26 137.3"><defs><style>.cls-1{fill:url(#Безымянный_градиент_2);}</style><linearGradient id="Безымянный_градиент_2" x1="655.78" y1="353.17" x2="757.35" y2="497" gradientTransform="matrix(1, 0, 0, -1, 0, 770)" gradientUnits="userSpaceOnUse"><stop offset="0" stop-color="#f48330"/><stop offset="1" stop-color="#fff5ed"/><stop offset="1" stop-color="#f7bb62"/></linearGradient></defs><title>bg-contacts-us-2</title><path class="cls-1" d="M700.18,447.78a26.43,26.43,0,0,1-10.94-18.48A32.05,32.05,0,0,1,694.9,407a20.28,20.28,0,0,1,1.31-1.74c.91-1.14,2.89-3.05,3.88-4.47A27.67,27.67,0,0,0,705,381.6a22.85,22.85,0,0,0-9.42-16,21,21,0,0,0-3.4-1.91,23.09,23.09,0,0,1-2.52-1.05A20.5,20.5,0,0,1,679,351.91c-2.2-4.76-4.46-8.18-7.31-10.17-7.65-5.33-17.46-4.46-26.39,3.24a17.81,17.81,0,0,1-9.25,4.22,15.38,15.38,0,0,1-9.49-1.73,14.84,14.84,0,0,1-6.39-7.08,17,17,0,0,1-1.06-9.94,19.2,19.2,0,0,1,4.63-9.34,18.48,18.48,0,0,1,8.7-5.46,15.81,15.81,0,0,1,9.75.32,14.66,14.66,0,0,1,7.37,6c.46.72,3,5.48,6.44,7.87,8,5.78,22,2.71,26.66-3.54a26.25,26.25,0,0,1,15.72-9.69,21.4,21.4,0,0,1,25.52,18.74,26.5,26.5,0,0,1-4.42,18c-11.39,16.33-8.73,30.63,2,38.14a22,22,0,0,0,5.45,2.71,15.38,15.38,0,0,0,1.67.51,25.11,25.11,0,0,1,9.84,6.21A26.25,26.25,0,0,1,744.63,411a29.34,29.34,0,0,1,1.31,12.19,32.34,32.34,0,0,1-3.72,12.12,33.44,33.44,0,0,1-8.1,9.9,31.38,31.38,0,0,1-11,5.93,27.86,27.86,0,0,1-12,.92A25.6,25.6,0,0,1,700.18,447.78Z" transform="translate(-618.83 -315.03)"/></svg>