<svg id="Слой_1" data-name="Слой 1" xmlns="http://www.w3.org/2000/svg" xmlns:xlink="http://www.w3.org/1999/xlink" viewBox="0 0 276.45 337.96"><defs><style>.cls-1{fill:url(#Безымянный_градиент_2);}.cls-2{fill:url(#Безымянный_градиент_2-2);}.cls-3{fill:#fba96e;fill-opacity:0.3;}.cls-4{fill:url(#Безымянный_градиент_3);}</style><linearGradient id="Безымянный_градиент_2" x1="644.14" y1="374.68" x2="816.5" y2="240.69" gradientTransform="matrix(1, 0, 0, -1, 0, 770)" gradientUnits="userSpaceOnUse"><stop offset="0" stop-color="#f48330"/><stop offset="0.95" stop-color="#f7bb62"/></linearGradient><linearGradient id="Безымянный_градиент_2-2" x1="724.14" y1="240.66" x2="841.44" y2="234.94" xlink:href="#Безымянный_градиент_2"/><linearGradient id="Безымянный_градиент_3" x1="774.9" y1="385.72" x2="417.74" y2="409.46" gradientTransform="matrix(1, 0, 0, -1, 0, 770)" gradientUnits="userSpaceOnUse"><stop offset="0" stop-color="#f48330"/><stop offset="1" stop-color="#f7bb62"/></linearGradient></defs><title>bg-contacts-us-1</title><path class="cls-1" d="M792.28,473.17a25.79,25.79,0,0,0-15.66-11.74,28.14,28.14,0,0,0-20.07,2.1,16.17,16.17,0,0,0-1.63.91c-1.06.64-2.88,2.11-4.21,2.79a24.31,24.31,0,0,1-17.31,1.82,22.32,22.32,0,0,1-13.53-10.12,19.69,19.69,0,0,1-1.47-3.16,22.34,22.34,0,0,0-.77-2.31,19.87,19.87,0,0,0-8.86-10.5c-4.08-2.48-7-4.86-8.53-7.57-4.24-7.26-2.84-15.6,4.55-22.35a14.08,14.08,0,0,0,4.32-7.45,13.32,13.32,0,0,0-.93-8.39,14.38,14.38,0,0,0-5.85-6.39,16.28,16.28,0,0,0-17.3.66,14.56,14.56,0,0,0-5.39,6.83,13.4,13.4,0,0,0-.34,8.44,14.06,14.06,0,0,0,4.83,7.1c.62.49,4.66,3.28,6.56,6.54,4.6,7.64,1,19.26-4.84,22.55a20.67,20.67,0,0,0-9.57,12.34,19.09,19.09,0,0,0,2.21,15,21.33,21.33,0,0,0,12.75,9.32,23.31,23.31,0,0,0,16.2-1.57c15.19-7.78,27.67-3.7,33.63,6.53a19.81,19.81,0,0,1,2.06,5,14.43,14.43,0,0,1,.34,1.51,23.82,23.82,0,0,0,4.87,9.26,25.68,25.68,0,0,0,8.55,6.53,27.61,27.61,0,0,0,10.7,2.65,28.17,28.17,0,0,0,11-1.69,26.94,26.94,0,0,0,9.28-5.75,24.69,24.69,0,0,0,6-8.78,23.08,23.08,0,0,0-1.51-20.16Z" transform="translate(-544.23 -214.67)"/><path class="cls-2" d="M813.43,517.83a13.89,13.89,0,0,0-10.53-.33,15.21,15.21,0,0,0-8.19,7.13c-.15.3-.31.59-.43.9-.27.62-.62,1.83-1,2.53a13.08,13.08,0,0,1-7.06,6.15,11.93,11.93,0,0,1-9.08-.27,9.73,9.73,0,0,1-1.63-.94,11.45,11.45,0,0,0-1.06-.77,10.6,10.6,0,0,0-7.14-1.89,12.86,12.86,0,0,1-6.1-.69c-4.1-1.89-6.07-6-4.9-11.25a7.58,7.58,0,0,0-.4-4.62,7.21,7.21,0,0,0-3-3.41,7.7,7.7,0,0,0-4.56-1A8.69,8.69,0,0,0,741,515a7.79,7.79,0,0,0-.27,4.67,7.19,7.19,0,0,0,2.46,3.82,7.57,7.57,0,0,0,4.32,1.63,14,14,0,0,1,4.91.86c4.39,1.94,6.39,8.17,4.84,11.42a11.13,11.13,0,0,0-.4,8.39,10.21,10.21,0,0,0,5.61,5.93,11.44,11.44,0,0,0,8.5.16,12.52,12.52,0,0,0,6.65-5.69c4.28-8.12,11-10.18,16.82-7.52a10.54,10.54,0,0,1,2.46,1.58,6.53,6.53,0,0,1,.62.56,12.85,12.85,0,0,0,5,2.57,13.87,13.87,0,0,0,5.78.23,14.59,14.59,0,0,0,5.53-2.14,15.28,15.28,0,0,0,4.31-4.13,14.84,14.84,0,0,0,2.31-5.4,13.4,13.4,0,0,0-.09-5.71,12.42,12.42,0,0,0-6.9-8.41Z" transform="translate(-544.23 -214.67)"/><path class="cls-3" d="M767.23,454.43A16.34,16.34,0,0,0,756.65,447a18.12,18.12,0,0,0-13.19,2.3,10.64,10.64,0,0,0-1.05.7c-.69.49-1.86,1.58-2.72,2.1a15.65,15.65,0,0,1-11.38,2,14.16,14.16,0,0,1-9.14-6.4,13.44,13.44,0,0,1-1-2.12,14.43,14.43,0,0,0-.55-1.56,13,13,0,0,0-6.07-6.86c-2.74-1.54-4.69-3.05-5.79-4.85-3-4.83-2.21-10.64,2.52-15.61a10.15,10.15,0,0,0,2.69-5.32,9.45,9.45,0,0,0-.79-5.75,9.33,9.33,0,0,0-4-4.15,9.89,9.89,0,0,0-5.8-1.12,10.71,10.71,0,0,0-5.59,2.31,10.58,10.58,0,0,0-3.41,4.94,9.67,9.67,0,0,0,0,5.83,9.31,9.31,0,0,0,3.34,4.7,16.59,16.59,0,0,1,4.46,4.23c3.2,5.07,1.07,13.23-2.7,15.75a14.84,14.84,0,0,0-6,8.92,13.37,13.37,0,0,0,10.38,16.14,14.94,14.94,0,0,0,10.65-1.77c9.85-6,18.17-3.74,22.32,3.06a13.81,13.81,0,0,1,1.47,3.39c.1.33.18.67.26,1a15.75,15.75,0,0,0,3.41,6.17,16.25,16.25,0,0,0,5.77,4.14,17.23,17.23,0,0,0,7.12,1.38,18.43,18.43,0,0,0,13.19-6,17.94,17.94,0,0,0,3.74-6.31,16.84,16.84,0,0,0,.82-7.13A16.05,16.05,0,0,0,767.23,454.43Z" transform="translate(-544.23 -214.67)"/><path class="cls-4" d="M781.52,274.47c-.89,14.87-8.25,28.74-20.46,38.56a65.09,65.09,0,0,1-44.62,13.79,40.14,40.14,0,0,1-4.41-.42c-2.94-.38-8.37-1.78-11.88-2a56.27,56.27,0,0,0-38.51,11.89,46.39,46.39,0,0,0-17.7,33.25,42.81,42.81,0,0,0,.28,7.92,48.92,48.92,0,0,1,.86,5.49,41.69,41.69,0,0,1-7.45,29.83c-5.93,8.86-9.46,16.4-9.89,23.45-1.14,18.92,10.77,35,33.6,42.34a36.42,36.42,0,0,1,17.12,11.59,31.11,31.11,0,0,1,7,18.28A30.22,30.22,0,0,1,680,527a34.65,34.65,0,0,1-16.12,12.39,39.12,39.12,0,0,1-21.1,1.86A37.6,37.6,0,0,1,624.07,532a32.17,32.17,0,0,1-9.77-17.24,29.88,29.88,0,0,1,2.58-19.13c.77-1.57,6.31-11,6.82-19.53,1.52-20.05-18.56-40.94-34.4-42.49a53.32,53.32,0,0,1-33.46-17,43.47,43.47,0,0,1,5.47-64.12,53.81,53.81,0,0,1,35.89-11.39c40.4,2.44,62.38-17.33,64-44a44.24,44.24,0,0,0-1.07-12.34,34.14,34.14,0,0,0-.89-3.44,51.18,51.18,0,0,1,.35-23.64,53.36,53.36,0,0,1,11-21.31,59.66,59.66,0,0,1,19.75-15.2,65.92,65.92,0,0,1,25-6.39,67.71,67.71,0,0,1,25.76,3.55,63.93,63.93,0,0,1,22,12.86,57,57,0,0,1,14.33,19.89A51.83,51.83,0,0,1,781.52,274.47Z" transform="translate(-544.23 -214.67)"/></svg>