<svg id="Слой_1" data-name="Слой 1" xmlns="http://www.w3.org/2000/svg" viewBox="0 0 275.28 420.46"><defs><style>.cls-1{fill:#fba96e;fill-opacity:0.1;}</style></defs><title>bg-contacts-us-1-gm</title><path class="cls-1" d="M820,240.06c1,18.75-6.09,37.16-19.66,51.17a79.25,79.25,0,0,1-52.72,23.53,49.84,49.84,0,0,1-5.46.1c-3.65-.07-10.49-1.07-14.83-.84a68.49,68.49,0,0,0-45.49,20.29,59.06,59.06,0,0,0-17,44.13,54,54,0,0,0,1.46,9.88,61.27,61.27,0,0,1,1.81,6.76,53.56,53.56,0,0,1-4.93,38.41c-6,11.93-9.29,21.86-8.83,30.76,1.26,23.86,18.1,42.34,47.08,48.31a44.74,44.74,0,0,1,22.6,12.11,39.65,39.65,0,0,1,11.19,21.91,38.72,38.72,0,0,1-4.13,24,43,43,0,0,1-18,17.78,47.2,47.2,0,0,1-25.58,5.3,45.82,45.82,0,0,1-24.22-9,40.63,40.63,0,0,1-14.39-20.22,38.41,38.41,0,0,1,.48-24.32c.72-2.08,6.18-14.71,5.62-25.42-1-25.32-28.48-48.67-48.09-48.39a65.09,65.09,0,0,1-43.37-16.6,55.64,55.64,0,0,1-2.28-81.08,65.53,65.53,0,0,1,42.35-19.31c49.83-2.62,74-30.46,72.21-64.05a56.46,56.46,0,0,0-3-15.3,43.38,43.38,0,0,0-1.57-4.18,66,66,0,0,1-2.89-29.67,68.05,68.05,0,0,1,10.52-28.24,74,74,0,0,1,22-21.8,80.08,80.08,0,0,1,29.67-11.51,81.93,81.93,0,0,1,32,.83,78.06,78.06,0,0,1,28.74,13,71.38,71.38,0,0,1,20.34,22.9A66.59,66.59,0,0,1,820,240.06Z" transform="translate(-544.84 -173.38)"/></svg>