<svg id="Слой_1" data-name="Слой 1" xmlns="http://www.w3.org/2000/svg" viewBox="0 0 172.06 166.49"><defs><style>.cls-1{fill:#fba96e;fill-opacity:0.1;}</style></defs><title>bg-contacts-us-2-1gm</title><path class="cls-1" d="M715.65,463.5a33.65,33.65,0,0,1-16.43-21.38A39,39,0,0,1,702.86,414a24.28,24.28,0,0,1,1.36-2.32c1-1.52,3.14-4.13,4.16-6a33.63,33.63,0,0,0,3.14-24.3,29,29,0,0,0-14.15-18.46,26.55,26.55,0,0,0-4.53-1.92,31.27,31.27,0,0,1-3.3-1,26.3,26.3,0,0,1-14.85-11.92c-3.47-5.58-6.8-9.5-10.65-11.59-10.34-5.59-22.41-3.26-32.36,7.37a22,22,0,0,1-10.88,6.38,19.54,19.54,0,0,1-12.06-.92,19.08,19.08,0,0,1-9-7.9,21.16,21.16,0,0,1-2.84-12.12,23.19,23.19,0,0,1,4.33-12.1,22.51,22.51,0,0,1,10-7.85,20,20,0,0,1,12.18-.85,18.79,18.79,0,0,1,10.08,6.44c.69.83,4.59,6.36,9.23,8.87,10.88,6.1,27.74.53,32.65-7.77a32,32,0,0,1,18.09-13.95,27.36,27.36,0,0,1,34.62,19.84,32.23,32.23,0,0,1-2.76,22.73c-11.68,21.59-6.18,38.86,8.37,46.74a28.17,28.17,0,0,0,7.2,2.65,21.15,21.15,0,0,0,2.16.41,32.27,32.27,0,0,1,13.19,6.4,33.35,33.35,0,0,1,9.16,11.65,36.58,36.58,0,0,1,3.5,14.85,39.42,39.42,0,0,1-2.79,15.41A40.12,40.12,0,0,1,757.52,456a38.51,38.51,0,0,1-12.84,8.72,35.18,35.18,0,0,1-14.83,2.67A32.89,32.89,0,0,1,715.65,463.5Z" transform="translate(-596.81 -300.91)"/></svg>