<svg id="Слой_1" data-name="Слой 1" xmlns="http://www.w3.org/2000/svg" viewBox="0 0 121.57 161.29"><defs><style>.cls-1{fill:#f6f6f6;}</style></defs><title>bg-solution</title><path class="cls-1" d="M743.65,431.15a27.67,27.67,0,0,0-12-18.34,31,31,0,0,0-22.36-4.65,18.81,18.81,0,0,0-2.11.44c-1.4.34-3.94,1.33-5.63,1.61a26.8,26.8,0,0,1-19.3-4A24,24,0,0,1,671.8,390.4a22.32,22.32,0,0,1-.3-4,24,24,0,0,0,.11-2.81A21.76,21.76,0,0,0,666.35,369c-3.36-4.15-5.49-7.76-6.09-11.29-1.6-9.45,3.27-18.15,13.91-23a17.65,17.65,0,0,0,7.64-6.7,16.06,16.06,0,0,0,2.39-9.55,15.76,15.76,0,0,0-3.69-9.07A17.11,17.11,0,0,0,672,304a18.36,18.36,0,0,0-10.31.14,17.93,17.93,0,0,0-8.54,5.64,16.32,16.32,0,0,0-3.77,9.17,15.62,15.62,0,0,0,2.31,9.48c.46.75,3.67,5.23,4.39,9.47,1.84,10-6.72,21.54-14.29,23.12a25.5,25.5,0,0,0-15.25,10.27,22.58,22.58,0,0,0,6.21,31.95,25.63,25.63,0,0,0,18,3.9c19.41-3.3,31.15,5.52,33.4,18.83a23,23,0,0,1,.17,6.25c-.05.59-.13,1.18-.24,1.78a27.06,27.06,0,0,0,1.48,11.87A27.6,27.6,0,0,0,692.1,456a29.51,29.51,0,0,0,10.4,6.63,31,31,0,0,0,12.43,1.93,31.81,31.81,0,0,0,12.27-3.1,30.55,30.55,0,0,0,9.93-7.59A28.65,28.65,0,0,0,743,443.13,27.14,27.14,0,0,0,743.65,431.15Z" transform="translate(-622.46 -303.3)"/></svg>