<svg id="Слой_1" data-name="Слой 1" xmlns="http://www.w3.org/2000/svg" xmlns:xlink="http://www.w3.org/1999/xlink" viewBox="0 0 570.43 635.66"><defs><style>.cls-1{fill:none;}.cls-2{fill:#fff;}.cls-3{clip-path:url(#clip-path);}.cls-4{fill:#d6d6d6;}</style><clipPath id="clip-path" transform="translate(-340.86 -32)"><rect class="cls-1" x="479.93" y="43.54" width="374.53" height="374.53" transform="translate(-26.02 364.52) rotate(-30)"/></clipPath></defs><title>bg-tech-cap</title><path class="cls-2" d="M818.52,535.88c-5-29.28-22-55.28-47.47-72.27S713.94,440,682.94,445.28a79,79,0,0,0-8.31,1.72c-5.53,1.35-15.56,5.23-22.22,6.36a105.5,105.5,0,0,1-76-15.79c-22-14.64-36.71-37.05-41-62.31a88.34,88.34,0,0,1-1.2-15.75,97.29,97.29,0,0,0,.43-11.06,85.91,85.91,0,0,0-20.73-57.6c-13.24-16.35-21.63-30.58-24-44.47-6.32-37.26,12.86-71.54,54.79-90.67a69.26,69.26,0,0,0,30.11-26.41,63.15,63.15,0,0,0,9.43-37.64,62.07,62.07,0,0,0-14.55-35.72,67.38,67.38,0,0,0-33.45-21.3,72.37,72.37,0,0,0-40.65.56,70.72,70.72,0,0,0-33.64,22.23A64.4,64.4,0,0,0,447,93.55a61.75,61.75,0,0,0,9.11,37.39c1.82,2.95,14.46,20.6,17.29,37.31,7.29,39.43-26.45,84.88-56.3,91.13a100.46,100.46,0,0,0-60.09,40.45,89,89,0,0,0,24.47,125.94,100.94,100.94,0,0,0,70.93,15.34c76.51-13,122.75,21.77,131.65,74.23a91.64,91.64,0,0,1,.67,24.65,68.55,68.55,0,0,1-1,7,106,106,0,0,0,5.85,46.79,108.58,108.58,0,0,0,25.69,40,115.92,115.92,0,0,0,41,26.13,123.29,123.29,0,0,0,49,7.62,125,125,0,0,0,48.35-12.23,120.61,120.61,0,0,0,39.13-29.92,112.57,112.57,0,0,0,23-42.3A106.78,106.78,0,0,0,818.52,535.88Z" transform="translate(-340.86 -32)"/><path class="cls-2" d="M633.09,412.09a51.72,51.72,0,0,0,39.78,10.06,58,58,0,0,0,36.7-21.84c.83-1.08,1.65-2.13,2.36-3.27,1.49-2.25,3.76-6.82,5.73-9.35a50.06,50.06,0,0,1,31.65-18.86,44.64,44.64,0,0,1,34.34,8.64,42,42,0,0,1,5.47,5.12,48.19,48.19,0,0,0,3.39,4,40.82,40.82,0,0,0,25.73,13.5c9.87,1.47,17.37,3.76,22.65,7.86,14.15,11,18.44,29.15,9.91,49.28a32.83,32.83,0,0,0-2.07,18.9,30.08,30.08,0,0,0,8.77,16.19,29.52,29.52,0,0,0,16.55,7.83,31.93,31.93,0,0,0,18.53-3.28,34.4,34.4,0,0,0,14-13.23,33.59,33.59,0,0,0,4.64-18.56,30.65,30.65,0,0,0-6.39-17.41,29.25,29.25,0,0,0-15.17-10.15c-1.59-.46-11.66-2.57-18-7.51-15.19-11.45-18-38.17-9.53-49.93a47.62,47.62,0,0,0,8.05-33.42,42.25,42.25,0,0,0-49-36.2,47.86,47.86,0,0,0-29.72,17.38c-22.61,29.07-49.92,31.75-69.85,16.25a42.91,42.91,0,0,1-8.14-8.4,30.63,30.63,0,0,1-1.91-2.76,50.45,50.45,0,0,0-17-14.49,51.52,51.52,0,0,0-21.81-5.75,55,55,0,0,0-22.71,4,58.5,58.5,0,0,0-19.59,13.05,59.52,59.52,0,0,0-13,19.78,57.27,57.27,0,0,0-4.09,23,53.49,53.49,0,0,0,5.53,22.17A50.81,50.81,0,0,0,633.09,412.09Z" transform="translate(-340.86 -32)"/><g class="cls-3"><path class="cls-4" d="M657.33,340,690.1,217.67,704.69,203l.18-.19a18.37,18.37,0,0,0,4.34-16.34l-8.14-35.21a6.26,6.26,0,0,0-4.47-4.62l-12.78-3.42a6.23,6.23,0,0,0-6.18,1.77l-24.7,26.46a18.46,18.46,0,0,0-4.3,16.54l5.28,20L621.16,330.26,597,323.8a6.24,6.24,0,0,0-7.65,4.41l-4.84,18.09a6.24,6.24,0,0,0,.62,4.74L594,366.33a6.22,6.22,0,0,0,3.79,2.9l-17.71,66.1a31.21,31.21,0,0,0,60.29,16.16l17.71-66.1a6.28,6.28,0,0,0,4.74-.62l15.29-8.83a6.27,6.27,0,0,0,2.91-3.79l4.84-18.09a6.24,6.24,0,0,0-4.41-7.64Zm9.08-130.36a6.2,6.2,0,0,0,0-3.2L660.77,185a5.74,5.74,0,0,1,1.34-5.14l22.1-23.67,5.54,1.48L697,189.18a5.79,5.79,0,0,1-1.31,5.11l-15.65,15.76a6.16,6.16,0,0,0-1.6,2.79L645.28,336.72l-12.07-3.23Zm3.22,156.82-10.82,6.24-3.53-.94-48.23-12.93-3.53-.94L597.27,347l2.57-9.56,72.35,19.39Z" transform="translate(-340.86 -32)"/><path class="cls-4" d="M818.58,120.56a6.25,6.25,0,0,0-5.92-2.49l-40.49,5.84a148.58,148.58,0,0,0-28.88-22.08l-4.84-40.72a6.24,6.24,0,0,0-4-5.09c-5.83-2.24-12.15-4.29-18.86-6.14s-13.16-3.11-19.32-4.09a6.23,6.23,0,0,0-6,2.43L665.78,81.07a148.16,148.16,0,0,0-36,4.67l-32.15-25.3a6.24,6.24,0,0,0-6.37-.8A189.54,189.54,0,0,0,557,79.42a6.23,6.23,0,0,0-2.49,5.92l5.83,40.49a148.93,148.93,0,0,0-22.07,28.88l-40.72,4.84a6.21,6.21,0,0,0-5.09,4c-2.24,5.83-4.3,12.15-6.14,18.86s-3.12,13.16-4.09,19.32a6.24,6.24,0,0,0,2.42,6l32.85,24.55a148.66,148.66,0,0,0,4.68,36l-25.3,32.14a6.26,6.26,0,0,0-.8,6.38,180.66,180.66,0,0,0,9,17.65,6.23,6.23,0,0,0,8.52,2.28L573,292.39a6.24,6.24,0,0,0,2.28-8.53,106.12,106.12,0,1,1,145,38.84,6.24,6.24,0,0,0-2.28,8.53L752.3,390.7a6.24,6.24,0,0,0,8.52,2.28,179.41,179.41,0,0,0,16.61-10.79,6.26,6.26,0,0,0,2.5-5.92l-5.84-40.49a148.14,148.14,0,0,0,22.07-28.88l40.73-4.84a6.24,6.24,0,0,0,5.09-4c2.24-5.83,4.29-12.15,6.14-18.86s3.12-13.18,4.09-19.32a6.25,6.25,0,0,0-2.43-6l-32.85-24.55a148.16,148.16,0,0,0-4.67-36l25.29-32.14a6.24,6.24,0,0,0,.81-6.38A189.54,189.54,0,0,0,818.58,120.56Zm6.81,35.9-24.88,31.62a6.25,6.25,0,0,0-1.1,5.55,135.6,135.6,0,0,1,5,38.79,6.24,6.24,0,0,0,2.51,5.09l32.31,24.15c-.84,4.63-1.92,9.46-3.19,14.35s-2.84,9.65-4.44,14.11l-40,4.75a6.23,6.23,0,0,0-4.71,3.16,136.07,136.07,0,0,1-23.75,31.07,6.23,6.23,0,0,0-1.82,5.36L767,374.29q-3.42,2.37-7.1,4.67l-28.11-48.7A118.61,118.61,0,1,0,561.5,284.62l-48.7,28.12q-2-3.83-3.81-7.59l24.88-31.62A6.23,6.23,0,0,0,535,268a136,136,0,0,1-5-38.79,6.23,6.23,0,0,0-2.5-5.09L495.13,200c.85-4.65,1.92-9.47,3.2-14.35s2.84-9.65,4.43-14.11l40-4.75a6.22,6.22,0,0,0,4.72-3.16,135.29,135.29,0,0,1,23.75-31.07,6.29,6.29,0,0,0,1.82-5.36l-5.74-39.83A181.36,181.36,0,0,1,592.85,72.6l31.62,24.88A6.23,6.23,0,0,0,630,98.59a136,136,0,0,1,38.79-5,6.24,6.24,0,0,0,5.09-2.5l24.15-32.32c4.64.85,9.47,1.92,14.35,3.2s9.65,2.84,14.1,4.43l4.76,40.06a6.25,6.25,0,0,0,3.15,4.71,135.56,135.56,0,0,1,31.08,23.75,6.29,6.29,0,0,0,5.36,1.82L810.68,131c2.71,3.9,5.36,8.07,7.88,12.44S823.37,152.16,825.39,156.46Z" transform="translate(-340.86 -32)"/></g></svg>