<svg id="Слой_1" data-name="Слой 1" xmlns="http://www.w3.org/2000/svg" xmlns:xlink="http://www.w3.org/1999/xlink" viewBox="0 0 673.62 696.02"><defs><style>.cls-1{fill:none;}.cls-2{fill:#fff;}.cls-3{clip-path:url(#clip-path);}.cls-4{fill:#d6d6d6;}</style><clipPath id="clip-path" transform="translate(-351.53 -36.73)"><rect class="cls-1" x="339" y="292.6" width="356" height="356"/></clipPath></defs><title>bg-unique</title><path class="cls-2" d="M733.15,328.13c-22.65,7.31-41.45,24-52.25,46.28a100.39,100.39,0,0,0-5.35,72.71,65.74,65.74,0,0,0,2.23,6.47c1.64,4.28,5.75,11.88,7.34,17.09a86.76,86.76,0,0,1-4.59,62.74c-9.3,19.26-25.5,33.65-45,40a70.52,70.52,0,0,1-12.34,2.75,78.4,78.4,0,0,0-8.79.92,69.13,69.13,0,0,0-43.43,23.18c-11.55,12.47-21.94,20.82-32.69,24.29-28.82,9.31-57.94-2.17-77.43-33.59a54.73,54.73,0,0,0-24-21.14,49.43,49.43,0,0,0-57.52,12.47,55.45,55.45,0,0,0-13.37,29.24,59.11,59.11,0,0,0,4.66,32.52,56.13,56.13,0,0,0,21.09,24.43,50.48,50.48,0,0,0,30.12,7.8,49.35,49.35,0,0,0,28.64-11.56c2.15-1.79,14.8-13.93,27.73-18.11,30.43-10.33,69.9,11.53,78,34.75a79.72,79.72,0,0,0,38.25,43.56,70.55,70.55,0,0,0,55.4,3.93c18.1-6.33,33-19.91,41.7-37.89a83,83,0,0,0,4.77-58.6c-18.22-59.86,4.46-100.88,45-114A72.13,72.13,0,0,1,760.69,515a53,53,0,0,1,5.64,0,84.4,84.4,0,0,0,36.41-10,88.42,88.42,0,0,0,29-25.14A95.69,95.69,0,0,0,848.13,444a101.49,101.49,0,0,0-13.76-77.51,95.28,95.28,0,0,0-27.74-28A88.28,88.28,0,0,0,770.78,325,84.39,84.39,0,0,0,733.15,328.13Z" transform="translate(-351.53 -36.73)"/><path class="cls-2" d="M559.55,522.7c27.9-7.14,51.82-26,66.47-52.38s18.85-58.2,11.67-88.4a76.75,76.75,0,0,0-2.22-8.07c-1.68-5.36-6.11-15-7.65-21.46a106.88,106.88,0,0,1,10-76.27c12.63-22.79,33.24-39.07,57.31-45.27a83.85,83.85,0,0,1,15.11-2.38,95.34,95.34,0,0,0,10.69-.42,82.72,82.72,0,0,0,54.14-24.87c14.87-14.32,28-23.68,41.26-27.07,35.51-9.08,69.88,7.24,91.18,47.18A67.17,67.17,0,0,0,935.08,251a59.22,59.22,0,0,0,70.41-10.66,67.68,67.68,0,0,0,18.26-34.65,73.13,73.13,0,0,0-3.31-40.09,69.18,69.18,0,0,0-23.73-31.52,61,61,0,0,0-35.86-11.92A59,59,0,0,0,925.41,134c-2.73,2-18.88,15.84-34.81,19.92-37.53,10.2-83.67-19.64-91.73-48.64-7.2-23.89-22.65-44-43.11-56.24a84.87,84.87,0,0,0-66.69-9.2c-22.33,6.3-41.36,21.69-53.11,43A102.34,102.34,0,0,0,626,154c17.74,74.56-12.62,122.87-62.61,135.65a86.6,86.6,0,0,1-23.73,2.55,65.79,65.79,0,0,1-6.81-.41,100.84,100.84,0,0,0-44.73,9.34,106.34,106.34,0,0,0-36.83,28.42A116.42,116.42,0,0,0,428.88,372,125.7,125.7,0,0,0,440,467.79a117.37,117.37,0,0,0,31.52,36.35,106.94,106.94,0,0,0,42.37,19.45A100.9,100.9,0,0,0,559.55,522.7Z" transform="translate(-351.53 -36.73)"/><g class="cls-3"><path class="cls-4" d="M510.65,512.36a10.44,10.44,0,0,0,10.44-10.43V456.07a10.43,10.43,0,1,0-20.86,0v45.86A10.43,10.43,0,0,0,510.65,512.36Z" transform="translate(-351.53 -36.73)"/><path class="cls-4" d="M502.83,557.17h15.65A50.53,50.53,0,0,0,569,506.69V451.31a50.53,50.53,0,0,0-50.48-50.48H502.83a50.54,50.54,0,0,0-50.48,50.48v55.38A50.53,50.53,0,0,0,502.83,557.17ZM473.21,451.31a29.66,29.66,0,0,1,29.62-29.63h15.65a29.66,29.66,0,0,1,29.62,29.63v55.38a29.66,29.66,0,0,1-29.62,29.62H502.83a29.66,29.66,0,0,1-29.62-29.62Z" transform="translate(-351.53 -36.73)"/><path class="cls-4" d="M657.4,505.42c0-.4,0-.79,0-1.19V453.77a144,144,0,0,0-44.71-104.35,46.61,46.61,0,0,0-82.17-38.95,144.22,144.22,0,0,0-17.49-1.07h-7.76c-79.6,0-144.36,64.77-144.36,144.37v50.46q0,6.91.65,13.66a46.58,46.58,0,0,0,29.85,75A144.22,144.22,0,0,0,505.29,648.6h7.76a144.19,144.19,0,0,0,114.11-56,46.62,46.62,0,0,0,30.24-87.14Zm-20.84-51.65v46.36l-.73,0a46.32,46.32,0,0,0-22.22,5.65q.23-3.42.23-6.89V459.13a102.86,102.86,0,0,0-32.79-75.36,46.83,46.83,0,0,0,21.88-14.61A123,123,0,0,1,636.56,453.77ZM505.29,330.26h7.76c2.8,0,5.59.1,8.35.29A46.2,46.2,0,0,0,524,356.81,103.19,103.19,0,0,0,407.47,459.13a10.43,10.43,0,0,0,20.86,0,82.33,82.33,0,1,1,164.65,0v39.74A82.3,82.3,0,0,1,445.55,549.2a9.78,9.78,0,0,0-.79-.9c0-.52,0-1,0-1.56a46.62,46.62,0,0,0-63-43.65V453.77A123.65,123.65,0,0,1,505.29,330.26Zm7.76,297.48h-7.76a123.17,123.17,0,0,1-89-38,46.87,46.87,0,0,0,21.31-18.08,103.08,103.08,0,0,0,154.35-9.25,46.85,46.85,0,0,0,15.57,21.33A123.28,123.28,0,0,1,513.05,627.74Z" transform="translate(-351.53 -36.73)"/></g></svg>