<svg id="Слой_1" data-name="Слой 1" xmlns="http://www.w3.org/2000/svg" viewBox="0 0 20.75 19.19"><defs><style>.cls-1{fill:none;stroke:#ffaf68;stroke-linecap:round;stroke-linejoin:round;stroke-width:2px;}</style></defs><title>briefcase</title><path class="cls-1" d="M691.09,378H673.91a.77.77,0,0,0-.78.78v12.5a.77.77,0,0,0,.78.78h17.18a.78.78,0,0,0,.79-.78v-12.5A.78.78,0,0,0,691.09,378Z" transform="translate(-672.13 -373.91)"/><path class="cls-1" d="M686.41,378v-1.56a1.59,1.59,0,0,0-.46-1.11,1.57,1.57,0,0,0-1.11-.45h-4.68a1.57,1.57,0,0,0-1.11.45,1.59,1.59,0,0,0-.46,1.11V378" transform="translate(-672.13 -373.91)"/></svg>