<svg id="Слой_1" data-name="Слой 1" xmlns="http://www.w3.org/2000/svg" viewBox="0 0 418.03 632.49"><defs><style>.cls-1{fill:#fff;}.cls-2{fill:#d6d6d6;}</style></defs><title>career-tech</title><path class="cls-1" d="M725.4,105.1c9.42,26.31,7.44,55.72-5.49,81.77A117.46,117.46,0,0,1,656.44,244a73.51,73.51,0,0,1-7.58,2.57c-5.13,1.54-15.1,3.17-21.05,5.43A101.37,101.37,0,0,0,573,301.22c-11.18,22.46-12.92,47.84-4.83,70.55a83.5,83.5,0,0,0,6.27,13.45,90.89,90.89,0,0,1,5.43,8.83,81.5,81.5,0,0,1,9.58,57c-3.29,19.7-3.59,35.33.88,47.82,12,33.47,43.4,52.33,86.4,47.92A63.76,63.76,0,0,1,713.49,554a58.27,58.27,0,0,1,25,26.26A59,59,0,0,1,743,616.4a65.27,65.27,0,0,1-17.49,33.4,69.06,69.06,0,0,1-33.43,19,65.41,65.41,0,0,1-37.68-2.09,59.1,59.1,0,0,1-28.74-22.43,58.18,58.18,0,0,1-9.77-34.91c.13-3.28,2.33-23.75-3-38.77C600.7,534.87,552.27,513.84,525,523c-22.74,7.1-47,5.55-67.63-4.34A82.77,82.77,0,0,1,414.18,470c-7.08-21.37-5.19-45,5.27-65.94a97.07,97.07,0,0,1,50.82-46.45c68.4-26,90.15-76.47,73.29-123.61a85.1,85.1,0,0,0-10.79-20.47,65.15,65.15,0,0,0-4-5.27,99.06,99.06,0,0,1-16.75-41,104.2,104.2,0,0,1,2.56-45A112.46,112.46,0,0,1,536,81.26a118.35,118.35,0,0,1,81.56-42.77,111.17,111.17,0,0,1,45.69,5.75,103.27,103.27,0,0,1,38.2,23.59A99.24,99.24,0,0,1,725.4,105.1Z" transform="translate(-409.97 -38.11)"/><path class="cls-1" d="M768,306.77a47.07,47.07,0,0,0-27.3,23.31,48.1,48.1,0,0,0-3.28,36,29.78,29.78,0,0,0,1.1,3.18c.82,2.11,2.89,5.84,3.67,8.41a41.63,41.63,0,0,1-2.82,31.09,40.66,40.66,0,0,1-23.53,20.13,38.13,38.13,0,0,1-6.39,1.46,41.15,41.15,0,0,0-4.55.52,37.42,37.42,0,0,0-22.58,11.8c-6.05,6.26-11.47,10.47-17,12.27-14.95,4.83-29.9-.63-39.73-16a26.82,26.82,0,0,0-12.25-10.27,26.35,26.35,0,0,0-15.86-1.39,27.08,27.08,0,0,0-13.92,8,27.95,27.95,0,0,0-4.93,30.64,27,27,0,0,0,10.7,11.93,26.34,26.34,0,0,0,15.5,3.63,26.84,26.84,0,0,0,14.86-5.93c1.12-.91,7.74-7,14.44-9.18,15.79-5.34,36,5.18,40,16.61a38.45,38.45,0,0,0,19.43,21.27,37.64,37.64,0,0,0,28.57,1.52,39,39,0,0,0,21.8-19.07,39.83,39.83,0,0,0,2.88-29c-9-29.49,3-50,24.07-56.76a39.09,39.09,0,0,1,10-1.8,28,28,0,0,1,2.91-.06,46,46,0,0,0,18.86-5.24,46.87,46.87,0,0,0,15.14-12.66,48.16,48.16,0,0,0,9.5-37.74A47.39,47.39,0,0,0,820,325a46.35,46.35,0,0,0-14.12-13.63,45.55,45.55,0,0,0-37.85-4.6Z" transform="translate(-409.97 -38.11)"/><path class="cls-2" d="M495.7,222.88l19.92,3.35a128.28,128.28,0,0,0,17.75,44l-11.79,17a9.82,9.82,0,0,0,.11,11.49,136.13,136.13,0,0,0,9.47,10.74c3.36,3.46,6.83,6.66,10.4,9.75a9.1,9.1,0,0,0,11.17.1l16.44-12.16a120.14,120.14,0,0,0,42.72,18.27l3.27,20.53a9.34,9.34,0,0,0,8,8c2.83.33,5.68.53,8.6.68a5.13,5.13,0,0,0,3.83-1.46,5.46,5.46,0,0,0,1.63-3.86V306.6a5.3,5.3,0,0,0-5-5.33c-52.26-2.78-93.26-47.23-93.28-101.14s41-98.38,93.22-101.19a5.3,5.3,0,0,0,5-5.33l0-42.65a5.43,5.43,0,0,0-1.62-3.86,5.1,5.1,0,0,0-3.83-1.47c-2.9.13-5.78.34-8.62.63a9.47,9.47,0,0,0-8,8.06l-3.25,20.53a120.51,120.51,0,0,0-42.71,18.3L552.66,81a9.1,9.1,0,0,0-11.18.11,138.54,138.54,0,0,0-10.39,9.75,124,124,0,0,0-9.46,10.74,9.82,9.82,0,0,0-.1,11.52l11.8,16.95a128.27,128.27,0,0,0-17.73,44l-19.91,3.37a9.38,9.38,0,0,0-7.76,8.21,136.29,136.29,0,0,0,0,28.77A9.52,9.52,0,0,0,495.7,222.88Z" transform="translate(-409.97 -38.11)"/><path class="cls-2" d="M632.18,120.37c-40.86,2.68-72.66,37.6-72.65,79.78s31.84,77.07,72.69,79.72a4.65,4.65,0,0,0,3.5-1.37,5,5,0,0,0,1.45-3.56l0-149.64a5,5,0,0,0-1.44-3.56A4.71,4.71,0,0,0,632.18,120.37Z" transform="translate(-409.97 -38.11)"/><path class="cls-2" d="M676.55,125.53H647.47v10.65h29.08c9.63,0,17.42-7.17,17.45-16V87.25c8-2.6,12.81-10.1,11.37-17.78s-8.7-13.27-17.2-13.27S672.4,61.81,671,69.49s3.37,15.17,11.38,17.76v33A5.59,5.59,0,0,1,676.55,125.53Z" transform="translate(-409.97 -38.11)"/><path class="cls-2" d="M647.48,157.5l58.16,0a5.35,5.35,0,1,0,0-10.65l-58.16,0Z" transform="translate(-409.97 -38.11)"/><path class="cls-2" d="M647.52,274.7H676.6a5.6,5.6,0,0,1,5.82,5.33V313c-8,2.6-12.82,10.11-11.38,17.78S679.76,344,688.26,344s15.76-5.61,17.19-13.28-3.37-15.18-11.39-17.77V280c0-8.82-7.83-16-17.45-16H647.51V274.7Z" transform="translate(-409.97 -38.11)"/><path class="cls-2" d="M734.75,221.4l-87.25,0v10.65l87.25,0a5.59,5.59,0,0,1,5.82,5.32V265c-8,2.6-12.82,10.1-11.38,17.78s8.71,13.27,17.21,13.27,15.76-5.61,17.19-13.28-3.37-15.18-11.39-17.77V237.38C752.17,228.56,744.37,221.43,734.75,221.4Z" transform="translate(-409.97 -38.11)"/><path class="cls-2" d="M792.9,184.1c-7.37,0-13.92,4.29-16.37,10.66l-129,0v10.66l129,0c3,7.64,11.74,12,20.36,10.18s14.37-9.32,13.35-17.38S801.76,184.08,792.9,184.1Z" transform="translate(-409.97 -38.11)"/><path class="cls-2" d="M711.49,248.05a5.59,5.59,0,0,0-5.82-5.33l-58.16,0v10.65h58.17A5.59,5.59,0,0,0,711.49,248.05Z" transform="translate(-409.97 -38.11)"/><path class="cls-2" d="M752.18,162.8V135.18c8-2.6,12.81-10.1,11.38-17.77s-8.71-13.28-17.21-13.28-15.76,5.61-17.19,13.29,3.37,15.17,11.39,17.76V162.8a5.58,5.58,0,0,1-5.81,5.33l-87.25,0v10.66l87.24,0C744.36,178.75,752.15,171.61,752.18,162.8Z" transform="translate(-409.97 -38.11)"/><path class="cls-2" d="M471.56,396.27l11.36,8a85.71,85.71,0,0,0-1.17,31.85l-11.93,6.71a6.34,6.34,0,0,0-3.09,7,95,95,0,0,0,2.89,9.29c1.12,3.1,2.37,6.06,3.73,9a6.39,6.39,0,0,0,6.86,3.39L493.69,469A86,86,0,0,0,515,492.76l-3.63,13.36a6.49,6.49,0,0,0,2.72,7.19c1.66,1,3.36,2,5.12,3a3.47,3.47,0,0,0,4.83-1.58L535.77,489a3.65,3.65,0,0,0-1.64-4.71c-31.46-17.26-44.51-56.3-29.7-88.81a65.39,65.39,0,0,1,85.3-33.24,3.45,3.45,0,0,0,4.56-1.71L606,334.75a3.67,3.67,0,0,0-1.89-4.84q-2.75-1.19-5.49-2.19a6.21,6.21,0,0,0-7.13,2.49l-7.65,11.41a81.91,81.91,0,0,0-31.36-1.7l-6.81-12.24a6.36,6.36,0,0,0-6.91-3.26,92.54,92.54,0,0,0-9.09,2.78,77.56,77.56,0,0,0-8.79,3.66,6.34,6.34,0,0,0-3.23,6.91l2.61,13.74a81.78,81.78,0,0,0-23,21.27L484,368.87a6.12,6.12,0,0,0-7,2.64,87.39,87.39,0,0,0-7.9,17.35A6.59,6.59,0,0,0,471.56,396.27Z" transform="translate(-409.97 -38.11)"/><path class="cls-2" d="M583.89,375.15a51.57,51.57,0,0,0-66.73,26.44,54.55,54.55,0,0,0,22.9,69.77,3.18,3.18,0,0,0,4.41-1.5l41.11-90.27a3.33,3.33,0,0,0-1.69-4.44Z" transform="translate(-409.97 -38.11)"/><path class="cls-2" d="M613.25,503.25l3.35,6A40.91,40.91,0,0,0,609.52,523l-6.63.34a3,3,0,0,0-2.8,2.39c-.29,1.56-.51,3.13-.65,4.72s-.2,3.18-.21,4.76a3.23,3.23,0,0,0,2.31,3l6.43,1.88a43.24,43.24,0,0,0,4.47,15.11l-4.35,5.08a3.2,3.2,0,0,0-.29,3.76c.51.82,1.06,1.62,1.63,2.43a1.76,1.76,0,0,0,1.17.72,1.65,1.65,0,0,0,1.28-.36l10.47-8.75a1.8,1.8,0,0,0,.26-2.43c-10.27-14.48-8-34.5,5.27-45.56s32.72-9.26,44.35,4.07a1.69,1.69,0,0,0,2.36.25l10.47-8.75a1.75,1.75,0,0,0,.6-1.22,1.77,1.77,0,0,0-.44-1.32c-.64-.75-1.29-1.47-2-2.17a3,3,0,0,0-3.64-.46l-5.72,3.34a41,41,0,0,0-13.44-7.62l-.47-6.87a3.23,3.23,0,0,0-2.36-2.95,44.62,44.62,0,0,0-4.58-.76,37.45,37.45,0,0,0-4.61-.32,3,3,0,0,0-2.85,2.34l-1.69,6.61a38.55,38.55,0,0,0-14.51,4.3l-5-4.6a3,3,0,0,0-3.64-.38,40.45,40.45,0,0,0-7,5.89A3.24,3.24,0,0,0,613.25,503.25Z" transform="translate(-409.97 -38.11)"/><path class="cls-2" d="M667,518.56c-9.21-10.33-24.45-11.63-34.79-3s-12.24,24.27-4.33,35.69a1.6,1.6,0,0,0,1.07.65,1.49,1.49,0,0,0,1.18-.35l36.7-30.68a1.57,1.57,0,0,0,.57-1.11A1.66,1.66,0,0,0,667,518.56Z" transform="translate(-409.97 -38.11)"/><path class="cls-2" d="M640.86,478.09l-13-3.82A82.34,82.34,0,0,1,605,495.63l2.5,13.69a6.42,6.42,0,0,1-3.22,6.9,89.74,89.74,0,0,1-8.7,3.7c-3,1.1-6,2-9,2.83a6.24,6.24,0,0,1-6.82-3.22l-6.65-12.16a80.07,80.07,0,0,1-31-1.51l-7.62,11.42a6.07,6.07,0,0,1-7,2.49c-1.81-.64-3.6-1.35-5.42-2.12a3.55,3.55,0,0,1-1.92-2,3.63,3.63,0,0,1,.07-2.8l11.73-25.75a3.43,3.43,0,0,1,4.52-1.74c32.51,13.66,69.63-1.13,84.44-33.64S623,380.33,592,363.3a3.64,3.64,0,0,1-1.59-4.69l11.72-25.73a3.46,3.46,0,0,1,2.05-1.85,3.36,3.36,0,0,1,2.72.24c1.74.93,3.42,1.9,5.07,2.91a6.51,6.51,0,0,1,2.62,7.19L611,354.71a84.24,84.24,0,0,1,20.93,23.58l13.33-2.51a6.24,6.24,0,0,1,6.76,3.35,95,95,0,0,1,3.63,8.94,82.15,82.15,0,0,1,2.8,9.25,6.42,6.42,0,0,1-3.1,7l-11.82,6.76a86.33,86.33,0,0,1-1.32,31.76l11.17,7.87a6.45,6.45,0,0,1,2.46,7.23,88.89,88.89,0,0,1-7.9,17.36A6.17,6.17,0,0,1,640.86,478.09Z" transform="translate(-409.97 -38.11)"/><path class="cls-2" d="M586.09,376.2c24.09,13.61,33.82,44,22.24,69.45s-40.51,37.16-66.06,26.77a3.24,3.24,0,0,1-1.75-1.86,3.32,3.32,0,0,1,.1-2.57l41.11-90.26a3.15,3.15,0,0,1,1.86-1.72A3.12,3.12,0,0,1,586.09,376.2Z" transform="translate(-409.97 -38.11)"/><path class="cls-2" d="M670.8,576.29l-4.94-4.53a38.84,38.84,0,0,1-14.46,4.38l-1.72,6.57a3.05,3.05,0,0,1-2.84,2.33,43.83,43.83,0,0,1-4.59-.28c-1.55-.17-3-.43-4.54-.73a3.13,3.13,0,0,1-2.33-2.9l-.42-6.81a39.81,39.81,0,0,1-13.3-7.44L616,570.23a2.94,2.94,0,0,1-3.61-.45c-.66-.67-1.3-1.38-1.94-2.11a1.78,1.78,0,0,1-.43-1.31,1.76,1.76,0,0,1,.61-1.22l10.47-8.75a1.65,1.65,0,0,1,2.34.23,31.45,31.45,0,0,0,44.07,3.7c13.22-11.06,15.67-30.92,5.56-45.19a1.79,1.79,0,0,1,.27-2.41L683.75,504a1.65,1.65,0,0,1,1.28-.37,1.69,1.69,0,0,1,1.15.7c.57.79,1.11,1.58,1.63,2.39a3.22,3.22,0,0,1-.33,3.74l-4.37,5.06a42.16,42.16,0,0,1,4.34,15l6.38,1.82a3.12,3.12,0,0,1,2.28,3c0,1.57-.09,3.15-.25,4.72a38.8,38.8,0,0,1-.68,4.68,3,3,0,0,1-2.8,2.39l-6.59.39a41.28,41.28,0,0,1-7.14,13.67l3.29,5.91a3.15,3.15,0,0,1-.41,3.71,41.4,41.4,0,0,1-7.06,5.9A3,3,0,0,1,670.8,576.29Z" transform="translate(-409.97 -38.11)"/><path class="cls-2" d="M667.75,519.51a26.61,26.61,0,0,1-4.56,35.39,24.78,24.78,0,0,1-34.56-2.69,1.59,1.59,0,0,1-.39-1.2,1.61,1.61,0,0,1,.57-1.11l36.71-30.68a1.51,1.51,0,0,1,1.17-.35A1.53,1.53,0,0,1,667.75,519.51Z" transform="translate(-409.97 -38.11)"/></svg>