<svg id="Слой_1" data-name="Слой 1" xmlns="http://www.w3.org/2000/svg" xmlns:xlink="http://www.w3.org/1999/xlink" viewBox="0 0 157 154"><defs><style>.cls-1{fill:url(#Безымянный_градиент_12);}</style><linearGradient id="Безымянный_градиент_12" x1="804.95" y1="369.35" x2="478.31" y2="442.5" gradientTransform="matrix(1, 0, 0, -1, 0, 770)" gradientUnits="userSpaceOnUse"><stop offset="0" stop-color="#f0f1f1"/><stop offset="1" stop-color="#f0f1f1" stop-opacity="0"/></linearGradient></defs><title>cds-module-3</title><path class="cls-1" d="M745.81,390.28v-48.7a17.41,17.41,0,1,0-20.26-17.19H604v99.35h76.1C681.41,444.5,699,461,720.48,461c22.34,0,40.52-17.83,40.52-39.74A39.39,39.39,0,0,0,745.81,390.28ZM609.07,329.35H726.29a17.22,17.22,0,0,0,2.81,5.43L713.61,350a7.53,7.53,0,0,0-6.51,0l-5.1-5a7.35,7.35,0,0,0,.76-3.2,7.6,7.6,0,0,0-15.19,0,7.22,7.22,0,0,0,.76,3.2l-12.7,12.45a7.72,7.72,0,0,0-3.26-.74,7.45,7.45,0,1,0,7.6,7.45,7.28,7.28,0,0,0-.76-3.19l12.7-12.46a7.42,7.42,0,0,0,6.5,0l5.11,5a7.22,7.22,0,0,0-.76,3.2,7.6,7.6,0,0,0,15.19,0,7.28,7.28,0,0,0-.76-3.19l15.49-15.2a17.83,17.83,0,0,0,8.06,3.29V386.9a40.85,40.85,0,0,0-50.64,8.16V384H674.9v29.81h5.81a36.93,36.93,0,0,0-.61,5h-71ZM720.48,441.13a19.87,19.87,0,1,1,20.26-19.87A20.09,20.09,0,0,1,720.48,441.13ZM718,386.61v9.94a25.05,25.05,0,0,0-22.79,24.71,24.2,24.2,0,0,0,2.26,10.19l-8.79,5a34,34,0,0,1-3.6-15.17C685,402.92,699.59,387.89,718,386.61ZM720.48,456a35.62,35.62,0,0,1-29.34-15.29l8.82-5a25.53,25.53,0,0,0,41,0l8.82,5A35.64,35.64,0,0,1,720.48,456Zm31.86-19.6-8.79-5a24.2,24.2,0,0,0,2.26-10.19A25.05,25.05,0,0,0,723,396.55v-9.94c18.36,1.28,32.91,16.31,32.91,34.65A34,34,0,0,1,752.34,436.43Z" transform="translate(-604 -307)"/></svg>