<svg id="Слой_1" data-name="Слой 1" xmlns="http://www.w3.org/2000/svg" xmlns:xlink="http://www.w3.org/1999/xlink" viewBox="0 0 164 157"><defs><style>.cls-1{fill:url(#Безымянный_градиент_5);}</style><linearGradient id="Безымянный_градиент_5" x1="709.63" y1="378.92" x2="555.42" y2="431.85" gradientTransform="matrix(1, 0, 0, -1, 0, 770)" gradientUnits="userSpaceOnUse"><stop offset="0" stop-color="#f0f1f1"/><stop offset="1" stop-color="#f0f1f1" stop-opacity="0"/></linearGradient></defs><title>cds-module-2</title><path class="cls-1" d="M745.58,339.39c10.15,0,18.4-7.94,18.4-17.69s-8.25-17.7-18.4-17.7a18.2,18.2,0,0,0-18.19,15.17h-89.8A18.2,18.2,0,0,0,619.4,304c-10.14,0-18.4,7.94-18.4,17.7s8.26,17.69,18.4,17.69a18.57,18.57,0,0,0,3.44-.32l5.23,10.62a12.79,12.79,0,0,0-11.3,12.46v73.32h-7.88v12.64A12.91,12.91,0,0,0,622,460.75H743c11.66,0,21.55,2.46,22-8.09V435.47H748.21V362.15a12.85,12.85,0,0,0-12.15-12.55l5-10.76A18.89,18.89,0,0,0,745.58,339.39ZM619.4,309.06c-7.25,0-13.51,5.13-13.14,12.64a13.15,13.15,0,0,1,26.28,0C633,313.4,626.65,309.06,619.4,309.06ZM622,362.15a7.75,7.75,0,0,1,7.89-7.58h.55l2.49,5.05h-.42a5.17,5.17,0,0,0-5.25,5.06v70.79H622Zm44.69-2.53H654.66L666.72,348Zm-10.52,5.06v10.11h52.58V349.51H672v-5.06H714V420.3H651V364.68Zm-9-5.06h-8.46l-2.49-5.05h16.21Zm-1.54,5.06v9l-4.43-9Zm0,20.79v39.89h73.6V385.45L729,364.68h3.43v70.79H703.52v5h5.26v2.53a2.58,2.58,0,0,1-2.63,2.53H658.83a2.58,2.58,0,0,1-2.63-2.53v-2.53h42.06v-5H632.54V364.68h2.91Zm77.55-20.79-4,8.45v-8.45Zm-4-5.06v-5.05H728l-2.37,5.05Zm31.55,80.9v7.59A7.76,7.76,0,0,1,743,455.7H622a7.76,7.76,0,0,1-7.89-7.59v-7.59H651v2.53a7.75,7.75,0,0,0,7.88,7.59h47.32a7.76,7.76,0,0,0,7.89-7.59v-2.53ZM743,362.15v73.32H737.7V364.68a5.17,5.17,0,0,0-5.26-5.06h-1.06l2.36-5.05h1.33A7.75,7.75,0,0,1,743,362.15Zm-12.61-12.64H719.29V339.39h-51l-10.52,10.12h-24l-6-12.1a17.76,17.76,0,0,0,9.76-13.18h89.8a17.73,17.73,0,0,0,8.85,12.69Zm2.1-27.81a13.15,13.15,0,0,1,26.28,0c0-9.08-5.89-12.64-13.14-12.64S731.38,312.62,732.44,321.7Z" transform="translate(-601 -304)"/></svg>