<svg id="Слой_1" data-name="Слой 1" xmlns="http://www.w3.org/2000/svg" xmlns:xlink="http://www.w3.org/1999/xlink" viewBox="0 0 201 188"><defs><style>.cls-1{fill:url(#Безымянный_градиент_4);}</style><linearGradient id="Безымянный_градиент_4" x1="786.73" y1="365.39" x2="561.2" y2="406.58" gradientTransform="matrix(1, 0, 0, -1, 0, 770)" gradientUnits="userSpaceOnUse"><stop offset="0" stop-color="#f0f1f1"/><stop offset="1" stop-color="#f0f1f1" stop-opacity="0"/></linearGradient></defs><title>cds-module-1</title><path class="cls-1" d="M763.1,416.38l-5.84-60.44C771.94,353,783,340.82,783,326.24c0-16.74-14.56-30.35-32.45-30.35-15.39,0-28.3,10.07-31.62,23.53l-18.57-3.54c0-.34,0-.69,0-1.05,0-9.63-8.38-17.47-18.69-17.47-9.42,0-17.23,6.55-18.5,15l-16.9,2.19c-2.89-14-16.07-24.59-31.86-24.59C596.56,290,582,303.62,582,320.35s14.56,30.36,32.45,30.36a34.39,34.39,0,0,0,9-1.2l6.23,11.4a16.91,16.91,0,0,0-6,12.79c0,7.44,5,13.81,12,16.32L633,402.67c-.94-.06-1.88-.09-2.84-.09-22.23,0-40.31,16.92-40.31,37.71S608,478,630.18,478s40.32-16.92,40.32-37.71a35.6,35.6,0,0,0-4.83-17.89l16.18-12.22a33,33,0,0,0,19.69,11.05l-.31,16.88c-8.93,1.31-15.78,8.55-15.78,17.26,0,9.64,8.38,17.48,18.68,17.48s18.69-7.84,18.69-17.48a18.44,18.44,0,0,0-.12-2l22.57-9.48a19.07,19.07,0,0,0,15.11,7.22c10.3,0,18.69-7.84,18.69-17.47C779.07,424.89,772.12,417.61,763.1,416.38Zm-12.55-65.31a27.54,27.54,0,0,1-16.71-5.55A15.46,15.46,0,0,1,742.65,332a13.43,13.43,0,0,0,15.8,0,15.46,15.46,0,0,1,8.81,13.57A27.54,27.54,0,0,1,750.55,351.07Zm-6.89-28.51v-3.68a6.9,6.9,0,0,1,13.77,0v3.68a6.9,6.9,0,0,1-13.77,0Zm6.89-21.15c14.64,0,26.55,11.13,26.55,24.83a23.58,23.58,0,0,1-4.68,14.06,21.26,21.26,0,0,0-10.27-12.73,11.16,11.16,0,0,0,1.18-5v-3.68c0-6.59-5.73-12-12.78-12s-12.78,5.37-12.78,12v3.68a11.16,11.16,0,0,0,1.18,5,21.26,21.26,0,0,0-10.27,12.73A23.58,23.58,0,0,1,724,326.24C724,312.54,735.91,301.41,750.55,301.41Zm-51.47,19.86,19,3.63c0,.44,0,.89,0,1.34a29.79,29.79,0,0,0,13.35,24.52l-8.92,13.81A34.1,34.1,0,0,0,707.28,361a34.77,34.77,0,0,0-6.34.58l-11.35-30.91A18.14,18.14,0,0,0,699.08,321.27Zm-111.18-.92c0-13.69,11.91-24.83,26.55-24.83S641,306.66,641,320.35a23.63,23.63,0,0,1-4.68,14.07,21.28,21.28,0,0,0-10.27-12.74,11.16,11.16,0,0,0,1.18-5V313c0-6.59-5.73-11.95-12.78-11.95S601.67,306.4,601.67,313v3.68a11.16,11.16,0,0,0,1.18,5,21.28,21.28,0,0,0-10.27,12.74A23.63,23.63,0,0,1,587.9,320.35ZM621.34,313v3.68a6.9,6.9,0,0,1-13.77,0V313a6.9,6.9,0,0,1,13.77,0Zm-6.89,32.2a27.55,27.55,0,0,1-16.71-5.56,15.44,15.44,0,0,1,8.81-13.56,13.47,13.47,0,0,0,15.8,0,15.44,15.44,0,0,1,8.81,13.56A27.55,27.55,0,0,1,614.45,345.19Zm14.5,2.3c10.63-5,17.95-15.28,17.95-27.14v-.27L663.34,318a17.51,17.51,0,0,0,8.44,11.66l-19.66,29.17a19.73,19.73,0,0,0-17.52-1ZM646.9,468.42a36.44,36.44,0,0,1-33.43,0v-10.1a15.46,15.46,0,0,1,8.82-13.79,13.41,13.41,0,0,0,15.79,0,15.46,15.46,0,0,1,8.82,13.79Zm-23.6-33.28v-3.68a6.9,6.9,0,0,1,13.77,0v3.68a6.9,6.9,0,0,1-13.77,0Zm29.5,29.39v-6.21a20.84,20.84,0,0,0-11-18.17,11.3,11.3,0,0,0,1.18-5v-3.68c0-6.59-5.74-12-12.79-12s-12.78,5.37-12.78,12v3.68a11.3,11.3,0,0,0,1.18,5,20.84,20.84,0,0,0-11,18.17v6.21a31.27,31.27,0,0,1-11.8-24.24c0-17.75,15.44-32.19,34.41-32.19s34.42,14.44,34.42,32.19A31.27,31.27,0,0,1,652.8,464.53Zm9.67-46.8a40.76,40.76,0,0,0-23.61-14.27l2.64-12.31c.29,0,.58,0,.88,0,10.3,0,18.68-7.84,18.68-17.47a16.71,16.71,0,0,0-4.42-11.27l20.64-30.62a20.18,20.18,0,0,0,4.43.5c.74,0,1.47-.05,2.19-.12l11.38,31c-12,4.47-20.45,15.42-20.45,28.19a28.64,28.64,0,0,0,3.77,14.18Zm18.26-26.37c0-13.7,11.91-24.84,26.55-24.84s26.55,11.14,26.55,24.84a23.58,23.58,0,0,1-4.68,14.06,21.24,21.24,0,0,0-10.27-12.73,11.2,11.2,0,0,0,1.19-5V384c0-6.59-5.74-12-12.79-12s-12.78,5.37-12.78,12v3.68a11.16,11.16,0,0,0,1.18,5,21.24,21.24,0,0,0-10.27,12.73A23.58,23.58,0,0,1,680.73,391.36ZM714.16,384v3.68a6.9,6.9,0,0,1-13.76,0V384a6.9,6.9,0,0,1,13.76,0Zm-23.59,26.64a15.46,15.46,0,0,1,8.81-13.57,13.43,13.43,0,0,0,15.8,0A15.46,15.46,0,0,1,724,410.64a27.93,27.93,0,0,1-33.42,0Zm52,28.35-21.51,9a18.61,18.61,0,0,0-14-9.9l.3-16.42a33.64,33.64,0,0,0,21.64-7.88l14.87,11.54a16.5,16.5,0,0,0-2.24,8.3A16.27,16.27,0,0,0,742.59,439Zm-9.52-29.23a29,29,0,0,0,6.66-18.4,29.65,29.65,0,0,0-12.27-23.75l9-14a34,34,0,0,0,14,3l.84,0,5.79,59.88a19.14,19.14,0,0,0-9.64,4.54Z" transform="translate(-582 -290)"/></svg>