<svg id="Слой_1" data-name="Слой 1" xmlns="http://www.w3.org/2000/svg" xmlns:xlink="http://www.w3.org/1999/xlink" viewBox="0 0 72 93"><defs><style>.cls-1{fill:url(#Безымянный_градиент_2);}.cls-2{fill:url(#Безымянный_градиент_2-2);}</style><linearGradient id="Безымянный_градиент_2" x1="637.5" y1="390.33" x2="800.1" y2="376.85" gradientTransform="matrix(1, 0, 0, -1, 0, 770)" gradientUnits="userSpaceOnUse"><stop offset="0" stop-color="#f47920"/><stop offset="0.9" stop-color="#f7bb62" stop-opacity="0.7"/></linearGradient><linearGradient id="Безымянный_градиент_2-2" x1="660.37" y1="400.63" x2="741.24" y2="391.69" xlink:href="#Безымянный_градиент_2"/></defs><title>contacts-page-map-marker</title><path class="cls-1" d="M683,337c-19.85,0-36,15.64-36,34.88,0,24.17,32.5,55.93,33.88,57.27a3.07,3.07,0,0,0,4.24,0c1.38-1.34,33.88-33.1,33.88-57.27C719,352.64,702.85,337,683,337Zm0,85.89c-7.16-7.43-30-32.55-30-51,0-16,13.46-29.07,30-29.07s30,13,30,29.07C713,390.32,690.16,415.46,683,422.89Z" transform="translate(-647 -337)"/><path class="cls-2" d="M683,354.44c-9.92,0-18,7.82-18,17.44s8.08,17.43,18,17.43,18-7.82,18-17.43S692.92,354.44,683,354.44Zm0,29.06a11.63,11.63,0,1,1,12-11.62A11.82,11.82,0,0,1,683,383.5Z" transform="translate(-647 -337)"/></svg>