<svg id="Слой_1" data-name="Слой 1" xmlns="http://www.w3.org/2000/svg" xmlns:xlink="http://www.w3.org/1999/xlink" viewBox="0 0 92 80.86"><defs><style>.cls-1{fill:url(#Безымянный_градиент_3);}.cls-2{fill:url(#Безымянный_градиент_3-2);}.cls-3{fill:url(#Безымянный_градиент_3-3);}</style><linearGradient id="Безымянный_градиент_3" x1="625.14" y1="393.94" x2="830.83" y2="367.08" gradientTransform="matrix(1, 0, 0, -1, 0, 770)" gradientUnits="userSpaceOnUse"><stop offset="0" stop-color="#f47920"/><stop offset="0.9" stop-color="#f7bb62" stop-opacity="0.7"/></linearGradient><linearGradient id="Безымянный_градиент_3-2" x1="651.71" y1="364.69" x2="676.2" y2="363.94" xlink:href="#Безымянный_градиент_3"/><linearGradient id="Безымянный_градиент_3-3" x1="700.58" y1="364.61" x2="725.07" y2="363.86" xlink:href="#Безымянный_градиент_3"/></defs><title>contacts-page-phone</title><path class="cls-1" d="M683,343.57a46,46,0,0,0-46,45.82V411a8.1,8.1,0,0,0,8.09,8.09h2.69v-27h-2.69a8.08,8.08,0,0,0-2.7.49v-3.19a40.61,40.61,0,0,1,81.22,0v3.19a8.08,8.08,0,0,0-2.7-.49h-2.69v27h2.69A8.1,8.1,0,0,0,729,411V389.39A46,46,0,0,0,683,343.57Z" transform="translate(-637 -343.57)"/><path class="cls-2" d="M661.26,386.7h-2.7a5.39,5.39,0,0,0-5.39,5.39v27a5.39,5.39,0,0,0,5.39,5.39h2.7a2.69,2.69,0,0,0,2.69-2.7V389.39A2.68,2.68,0,0,0,661.26,386.7Z" transform="translate(-637 -343.57)"/><path class="cls-3" d="M707.44,386.7h-2.7a2.68,2.68,0,0,0-2.69,2.69v32.34a2.69,2.69,0,0,0,2.69,2.7h2.7a5.39,5.39,0,0,0,5.39-5.39v-27A5.39,5.39,0,0,0,707.44,386.7Z" transform="translate(-637 -343.57)"/></svg>