<svg id="Слой_1" data-name="Слой 1" xmlns="http://www.w3.org/2000/svg" viewBox="0 0 35 26.5"><defs><style>.cls-1{fill:#fff;}</style></defs><title>email-footer</title><path class="cls-1" d="M694.94,397.61H670.65c-2.84,0-5.65-2.07-5.65-5.16v-13a5.39,5.39,0,0,1,5.37-5.35.78.78,0,0,1,.77.83.76.76,0,0,1-.74.83,3.73,3.73,0,0,0-3.73,3.69v13c0,2.06,2,3.49,4,3.49h24.29a3.26,3.26,0,0,0,3.39-3.49v-13a3.58,3.58,0,0,0-3.54-3.69.88.88,0,0,1-.89-.83.91.91,0,0,1,.92-.83,5.18,5.18,0,0,1,5.18,5.35v13A4.92,4.92,0,0,1,694.94,397.61Z" transform="translate(-665 -371.11)"/><path class="cls-1" d="M682.78,387.64a5.3,5.3,0,0,1-2.6-.67l-13.65-8.5a.83.83,0,0,1-.26-1.15.82.82,0,0,1,1.14-.26L681,385.53a3.67,3.67,0,0,0,3.59,0l13.27-8.43a.84.84,0,0,1,.9,1.41l-13.31,8.45A5.46,5.46,0,0,1,682.78,387.64Z" transform="translate(-665 -371.11)"/><path class="cls-1" d="M683.93,374.35l.15-.66h1.58l-.91,4.28a2.82,2.82,0,0,0-.08.54.33.33,0,0,0,.06.21.25.25,0,0,0,.17.08,1.49,1.49,0,0,0,.83-.42,3.67,3.67,0,0,0,.89-1.15,3.49,3.49,0,0,0,.11-2.93,3.06,3.06,0,0,0-.79-1.1,3.65,3.65,0,0,0-1.27-.73,5.3,5.3,0,0,0-1.71-.26,5.94,5.94,0,0,0-1.78.25,4.49,4.49,0,0,0-1.43.73,4.1,4.1,0,0,0-1,1.17,5.41,5.41,0,0,0-.56,1.35,6,6,0,0,0-.19,1.51,4.32,4.32,0,0,0,.41,1.88,3.81,3.81,0,0,0,1.19,1.43,5,5,0,0,0,1.88.81,7.83,7.83,0,0,0,2.5.1,6,6,0,0,0,1.87-.5,3.62,3.62,0,0,0,1.29-1h1.28a4.21,4.21,0,0,1-.81,1.14,4.4,4.4,0,0,1-1.17.85,6,6,0,0,1-1.5.52,8.47,8.47,0,0,1-1.81.18,8.37,8.37,0,0,1-2.64-.39,5.31,5.31,0,0,1-2-1.11,4.67,4.67,0,0,1-1.21-1.73,5.7,5.7,0,0,1-.41-2.22,6.66,6.66,0,0,1,.42-2.38,5.5,5.5,0,0,1,3.17-3.19,6.66,6.66,0,0,1,2.53-.46,6.3,6.3,0,0,1,2.08.33,4.66,4.66,0,0,1,1.62.95,4.25,4.25,0,0,1,1,1.48,4.9,4.9,0,0,1,.35,1.87,4.44,4.44,0,0,1-.28,1.57,4.59,4.59,0,0,1-.82,1.38,3.91,3.91,0,0,1-1.26,1,3.44,3.44,0,0,1-1.56.36,1.44,1.44,0,0,1-.75-.16.82.82,0,0,1-.36-.53,2.22,2.22,0,0,1-3.52-.35,2.76,2.76,0,0,1-.39-1.51,4.5,4.5,0,0,1,.4-1.85,3.76,3.76,0,0,1,1.15-1.48,2.62,2.62,0,0,1,1.68-.58A1.7,1.7,0,0,1,683.93,374.35Zm-3.26,3.09a1.74,1.74,0,0,0,.3,1.1.91.91,0,0,0,.78.38,1.37,1.37,0,0,0,1-.44,2.91,2.91,0,0,0,.64-1.13,4.26,4.26,0,0,0,.22-1.33,2,2,0,0,0-.07-.57,1.3,1.3,0,0,0-.22-.44,1.07,1.07,0,0,0-.35-.29,1,1,0,0,0-.47-.1,1.35,1.35,0,0,0-1,.41,2.8,2.8,0,0,0-.65,1.06A4.15,4.15,0,0,0,680.67,377.44Z" transform="translate(-665 -371.11)"/><path class="cls-1" d="M892,190" transform="translate(-665 -371.11)"/></svg>