<svg id="Слой_1" data-name="Слой 1" xmlns="http://www.w3.org/2000/svg" viewBox="0 0 40 40"><defs><style>.cls-1{fill:#fff;}</style></defs><title>facebook</title><path class="cls-1" d="M699.67,363.86H666.33a3.3,3.3,0,0,0-3.33,3.33v33.33a3.31,3.31,0,0,0,3.33,3.34h33.34a3.31,3.31,0,0,0,3.33-3.34V367.19A3.3,3.3,0,0,0,699.67,363.86ZM683,402.52V389.19h-5.33v-5.33H683v-4.67a7.37,7.37,0,0,1,6.67-7.33h6v5.33h-5.34a2,2,0,0,0-2,2v4.67H695v5.33h-6.67v13.33Zm18.67-2a2,2,0,0,1-2,2h-10v-12h6.66v-8h-6.66v-3.33a.63.63,0,0,1,.66-.67H697v-8h-7.4a8.75,8.75,0,0,0-7.93,8.67v3.33h-5.34v8h5.34v12H666.33a2,2,0,0,1-2-2V367.19a2,2,0,0,1,2-2h33.34a2,2,0,0,1,2,2v33.33Z" transform="translate(-663 -363.86)"/></svg>