<svg id="Слой_1" data-name="Слой 1" xmlns="http://www.w3.org/2000/svg" viewBox="0 0 248.69 429.41"><defs><style>.cls-1{fill:#83A3DB;}</style></defs><title>footer-one</title><path class="cls-1" d="M624.11,561.26a71.77,71.77,0,0,1-4.75-56.46,79.29,79.29,0,0,1,37.86-44.86,48.54,48.54,0,0,1,5-2.45c3.38-1.52,10.09-3.54,14-5.63a68.5,68.5,0,0,0,32.67-38.7,61.94,61.94,0,0,0-4-48.72,59.34,59.34,0,0,0-5.74-8.63,66.55,66.55,0,0,1-4.67-5.55,56.74,56.74,0,0,1-12.57-38.14c.21-13.78-1.21-24.51-5.6-32.65-11.77-21.82-35.43-31.86-64.66-24.92a45.19,45.19,0,0,1-26.1-1.58,41.59,41.59,0,0,1-20-15.7,40.91,40.91,0,0,1-6.92-24.33,44,44,0,0,1,8.59-24.45,46.79,46.79,0,0,1,21.1-16,45.84,45.84,0,0,1,26.23-2,42.32,42.32,0,0,1,22.18,12.72,40.74,40.74,0,0,1,10.39,23c.26,2.26.88,16.46,6.16,26.25,12.14,23.34,47.77,33.32,65.62,24.57a65.16,65.16,0,0,1,47.15-3.19,58.65,58.65,0,0,1,38.17,75,65.54,65.54,0,0,1-30.23,36.42c-44.51,24-54.25,60.55-37.68,91.27a60.23,60.23,0,0,0,9.58,13,44.14,44.14,0,0,0,3.31,3.24,70,70,0,0,1,15.85,26.56,71.71,71.71,0,0,1,2.93,31,75.77,75.77,0,0,1-10.52,30A79.93,79.93,0,0,1,735.27,584,81.1,81.1,0,0,1,705.52,597a78.58,78.58,0,0,1-32.14.23,73.82,73.82,0,0,1-28.84-12.68A70.33,70.33,0,0,1,624.11,561.26Z" transform="translate(-558.5 -169.4)"/></svg>