<svg id="Слой_1" data-name="Слой 1" xmlns="http://www.w3.org/2000/svg" viewBox="0 0 138.15 163.14"><defs><style>.cls-1{fill:#436bb6;}</style></defs><title>footer-six</title><path class="cls-1" d="M698,458.45a31.18,31.18,0,0,1-11.09-22,34.44,34.44,0,0,1,8-24.23,22.91,22.91,0,0,1,1.6-1.79c1.12-1.16,3.49-3.07,4.71-4.54A29.77,29.77,0,0,0,708,385a26.89,26.89,0,0,0-9.55-19,25.42,25.42,0,0,0-3.71-2.55A28.49,28.49,0,0,1,692,362a24.68,24.68,0,0,1-11.26-13.32c-2.15-5.59-4.47-9.68-7.56-12.24-8.29-6.88-19.46-7.07-30.1.47a19.6,19.6,0,0,1-10.77,3.61,18,18,0,0,1-10.62-3.07,17.84,17.84,0,0,1-6.74-8.67,19.15,19.15,0,0,1-.51-11.25,20.3,20.3,0,0,1,5.89-9.89,19.88,19.88,0,0,1,10.24-5.07,18.42,18.42,0,0,1,11,1.52,17.67,17.67,0,0,1,7.93,7.58c.47.86,3,6.49,6.75,9.57,8.68,7.43,24.66,5.65,30.42-.77a28.33,28.33,0,0,1,18.48-9,25.49,25.49,0,0,1,27.57,24,28.47,28.47,0,0,1-6.26,19.59c-14,16.9-12,33.21-.33,42.89a26,26,0,0,0,6,3.69,17.91,17.91,0,0,0,1.85.76,30.33,30.33,0,0,1,10.71,8.13,31,31,0,0,1,6.22,12,33,33,0,0,1,.64,13.79,34.51,34.51,0,0,1-5.06,13.1,35.27,35.27,0,0,1-9.85,10.11,34.19,34.19,0,0,1-12.91,5.32,32.16,32.16,0,0,1-13.68-.42A30.67,30.67,0,0,1,698,458.45Z" transform="translate(-613.79 -302.34)"/></svg>