<svg id="Слой_1" data-name="Слой 1" xmlns="http://www.w3.org/2000/svg" viewBox="0 0 323.66 178.19"><defs><style>.cls-1{fill:#436bb6;}</style></defs><title>footer-five</title><path class="cls-1" d="M560.91,297A52.66,52.66,0,0,1,602,303.64a58.16,58.16,0,0,1,25.2,35,34.73,34.73,0,0,1,.86,4c.48,2.68.72,7.83,1.52,11a50.28,50.28,0,0,0,21.74,30.18,45.49,45.49,0,0,0,35.43,5.82A43.37,43.37,0,0,0,693.9,387a49.23,49.23,0,0,1,4.79-2.33,41.62,41.62,0,0,1,29.41-2.15c9.78,2.61,17.67,3.51,24.25,1.84,17.65-4.49,29-19.56,29.3-41.62a33.17,33.17,0,0,1,5.78-18.31A30.57,30.57,0,0,1,802.18,313a30.13,30.13,0,0,1,18.57-.59,32.33,32.33,0,0,1,15.89,10.49,34.35,34.35,0,0,1,7.65,17.89,33.67,33.67,0,0,1-3.25,19,31.12,31.12,0,0,1-13,13.54,29.9,29.9,0,0,1-18.24,3.29c-1.66-.22-11.89-2.31-19.81-.3-18.78,4.49-32.25,28.09-29.2,42.37a47.87,47.87,0,0,1-6.14,34.15,43.07,43.07,0,0,1-60.25,13.81,48.11,48.11,0,0,1-20.54-28c-9.16-36-33.45-49.46-58.3-43.14a44.41,44.41,0,0,0-11,4.51,30.53,30.53,0,0,0-2.9,1.78,51.49,51.49,0,0,1-21.75,6.55,52.52,52.52,0,0,1-22.61-3.45A55.67,55.67,0,0,1,537.8,392a58.5,58.5,0,0,1-12.88-19.95,59.37,59.37,0,0,1-4-23.53,57.61,57.61,0,0,1,5.57-22.93,54.31,54.31,0,0,1,14.17-18.28A51.69,51.69,0,0,1,560.91,297Z" transform="translate(-520.87 -295.36)"/></svg>