<svg id="Слой_1" data-name="Слой 1" xmlns="http://www.w3.org/2000/svg" viewBox="0 0 193.44 226.52"><defs><style>.cls-1{fill:#83a3db;}</style></defs><title>footer-two</title><path class="cls-1" d="M778.27,329.2A41.56,41.56,0,0,1,755.6,353a46,46,0,0,1-34,.85,30,30,0,0,1-3-1.21c-2-.88-5.42-3-7.82-3.89a39.7,39.7,0,0,0-29.36.72A35.93,35.93,0,0,0,661.82,370a34,34,0,0,0-1.53,5.81,38.6,38.6,0,0,1-.61,4.16A32.88,32.88,0,0,1,648,400.08c-6.06,5.22-10.17,10-12,15-4.93,13.51-.18,27.64,14.08,37.65a26.11,26.11,0,0,1,9.36,11.93,24.2,24.2,0,0,1,.9,14.72,23.71,23.71,0,0,1-7.9,12.37,25.49,25.49,0,0,1-13.91,5.69,27.27,27.27,0,0,1-15.08-3,26.63,26.63,0,0,1-11-10.61,24.52,24.52,0,0,1-3-14.53,23.63,23.63,0,0,1,6-13.36c.88-1,6.8-6.72,9-12.78,5.45-14.25-3.94-33.55-14.61-37.92A37.84,37.84,0,0,1,590.29,386a34,34,0,0,1,17.84-45.44,38.06,38.06,0,0,1,27.44-.9c27.55,10.07,47.16.23,54.11-18.79a35,35,0,0,0,2-9.17,26.29,26.29,0,0,0,.13-2.68,40.5,40.5,0,0,1,5.42-17.1,41.48,41.48,0,0,1,12.33-13.21,44,44,0,0,1,17.05-7,46.31,46.31,0,0,1,18.75.49,46.86,46.86,0,0,1,17.13,7.87A45.59,45.59,0,0,1,774.92,294a42.61,42.61,0,0,1,5.6,17.39A40.85,40.85,0,0,1,778.27,329.2Z" transform="translate(-587.27 -271.03)"/></svg>