<svg id="Слой_1" data-name="Слой 1" xmlns="http://www.w3.org/2000/svg" viewBox="0 0 204.12 198.43"><defs><style>.cls-1{fill:#6585c2;}</style></defs><title>footer-three</title><path class="cls-1" d="M721,478a41,41,0,0,1-19.24-26,45.31,45.31,0,0,1,4.95-33.17c.54-.92,1.06-1.83,1.68-2.68,1.19-1.75,3.85-4.75,5.11-6.92a39.2,39.2,0,0,0,4.28-28.62,35.4,35.4,0,0,0-16.58-22.49,33,33,0,0,0-5.37-2.47,38.64,38.64,0,0,1-3.94-1.3,32.39,32.39,0,0,1-17.55-14.78c-4-6.76-7.94-11.55-12.51-14.2-12.27-7.08-26.79-4.87-38.93,7.27a25.73,25.73,0,0,1-13.16,7.06,23.79,23.79,0,0,1-14.44-1.63,23.33,23.33,0,0,1-10.66-9.76,25.06,25.06,0,0,1-3.16-14.46,26.81,26.81,0,0,1,5.45-14.13,26.24,26.24,0,0,1,12.16-8.84,24.13,24.13,0,0,1,14.6-.46,23.32,23.32,0,0,1,12,8.07c.8,1,5.36,7.75,10.86,10.92,12.91,7.71,33.23,1.87,39.28-7.73a37.27,37.27,0,0,1,22-15.69,33.52,33.52,0,0,1,41.07,25A37.47,37.47,0,0,1,735,337.79c-14.45,25-8.23,45.72,9,55.69a34.46,34.46,0,0,0,8.57,3.46,24.15,24.15,0,0,0,2.58.58,40,40,0,0,1,15.67,8.17,40.76,40.76,0,0,1,10.73,14.2,43.27,43.27,0,0,1,3.88,17.73,45.56,45.56,0,0,1-3.66,18.11A46.36,46.36,0,0,1,771.28,471a45,45,0,0,1-15.57,9.75,42.17,42.17,0,0,1-17.82,2.48A40.4,40.4,0,0,1,721,478Z" transform="translate(-581.36 -284.95)"/></svg>