<svg id="Слой_1" data-name="Слой 1" xmlns="http://www.w3.org/2000/svg" viewBox="0 0 145.56 134.2"><defs><style>.cls-1{fill:#436bb6;}</style></defs><title>footer-four</title><path class="cls-1" d="M750.62,365.34A28.79,28.79,0,0,1,731,376.91,31.86,31.86,0,0,1,708.17,371c-.6-.44-1.2-.87-1.75-1.36-1.14-1-3-3-4.47-4.08a27.59,27.59,0,0,0-19.71-5.07,24.91,24.91,0,0,0-16.93,10,23.91,23.91,0,0,0-2.12,3.58,27.62,27.62,0,0,1-1.19,2.66A22.82,22.82,0,0,1,650.39,388c-5,2.32-8.66,4.71-10.84,7.72-5.84,8.07-5.34,18.38,2.27,27.75a18.19,18.19,0,0,1,4,9.72,16.68,16.68,0,0,1-2.19,10,16.39,16.39,0,0,1-7.59,6.75A17.58,17.58,0,0,1,625.67,451a18.84,18.84,0,0,1-9.49-4.83,18.56,18.56,0,0,1-5.3-9.14,17,17,0,0,1,.74-10.25,16.34,16.34,0,0,1,6.51-7.78c.77-.49,5.8-3.19,8.42-6.81,6.33-8.47,3.72-23.1-2.56-28a26.22,26.22,0,0,1-9.39-16.5,23.59,23.59,0,0,1,20.48-26.91,26.34,26.34,0,0,1,18.46,4.59c16.46,11.91,31.38,9.06,39.61-2.3a24.09,24.09,0,0,0,3-5.74c.22-.57.42-1.16.59-1.76a28.06,28.06,0,0,1,6.85-10.37,28.67,28.67,0,0,1,10.71-6.48A30.49,30.49,0,0,1,727,317.28a32.06,32.06,0,0,1,12.41,3.87,32.4,32.4,0,0,1,9.92,8.49,31.41,31.41,0,0,1,5.7,11.59,29.71,29.71,0,0,1,.44,12.65A28.3,28.3,0,0,1,750.62,365.34Z" transform="translate(-610.41 -317.14)"/></svg>