<svg id="Слой_1" data-name="Слой 1" xmlns="http://www.w3.org/2000/svg" xmlns:xlink="http://www.w3.org/1999/xlink" viewBox="0 0 201 348.49"><defs><style>.cls-1{fill:#eaeaea;}.cls-10,.cls-11,.cls-12,.cls-13,.cls-14,.cls-15,.cls-16,.cls-17,.cls-18,.cls-2,.cls-3,.cls-4,.cls-5,.cls-6,.cls-7,.cls-8,.cls-9{opacity:0.3;}.cls-10,.cls-11,.cls-12,.cls-13,.cls-14,.cls-15,.cls-16,.cls-17,.cls-18,.cls-23,.cls-24,.cls-26,.cls-3,.cls-36,.cls-4,.cls-41,.cls-5,.cls-6,.cls-7,.cls-8,.cls-9{isolation:isolate;}.cls-3{fill:url(#Безымянный_градиент_13);}.cls-20,.cls-4{fill:#fff;}.cls-5{fill:url(#Безымянный_градиент_14);}.cls-6{fill:url(#Безымянный_градиент_15);}.cls-7{fill:url(#Безымянный_градиент_13-2);}.cls-8{fill:url(#Безымянный_градиент_14-2);}.cls-9{fill:url(#Безымянный_градиент_15-2);}.cls-10{fill:url(#Безымянный_градиент_13-3);}.cls-11{fill:url(#Безымянный_градиент_14-3);}.cls-12{fill:url(#Безымянный_градиент_15-3);}.cls-13{fill:url(#Безымянный_градиент_13-4);}.cls-14{fill:url(#Безымянный_градиент_14-4);}.cls-15{fill:url(#Безымянный_градиент_15-4);}.cls-16{fill:url(#Безымянный_градиент_13-5);}.cls-17{fill:url(#Безымянный_градиент_14-5);}.cls-18{fill:url(#Безымянный_градиент_15-5);}.cls-19{fill:#fffdfd;}.cls-21{fill:#f8f2e8;}.cls-22,.cls-23,.cls-24{fill:#bec2c4;}.cls-23,.cls-41{opacity:0.6;}.cls-24,.cls-36,.cls-43{opacity:0.5;}.cls-25,.cls-26,.cls-41{fill:#07306d;}.cls-26{opacity:0.4;}.cls-27{fill:url(#Безымянный_градиент_24);}.cls-28{fill:#f0f6ff;}.cls-29{fill:#fcd1c5;}.cls-30{fill:url(#Безымянный_градиент_24-2);}.cls-31{fill:url(#Безымянный_градиент_24-3);}.cls-32{fill:#aa8383;}.cls-33{fill:#c4ccd6;}.cls-34{fill:url(#Безымянный_градиент_23);}.cls-35{fill:#e2b1a6;}.cls-36{fill:#380031;}.cls-37{fill:url(#Безымянный_градиент_20);}.cls-38{fill:url(#Безымянный_градиент_24-4);}.cls-39{fill:url(#Безымянный_градиент_24-5);}.cls-40{fill:url(#Безымянный_градиент_23-2);}.cls-42{fill:url(#Безымянный_градиент_24-6);}</style><linearGradient id="Безымянный_градиент_13" x1="616.79" y1="446.42" x2="602.95" y2="422.45" gradientTransform="matrix(1, 0, 0, -1, 0, 770)" gradientUnits="userSpaceOnUse"><stop offset="0" stop-color="#c0d6ff"/><stop offset="0.5" stop-color="#d2e8ff"/><stop offset="1" stop-color="#e9ffff"/></linearGradient><linearGradient id="Безымянный_градиент_14" x1="609.83" y1="364.98" x2="582.16" y2="364.98" gradientTransform="matrix(1, 0, 0, -1, 0, 770)" gradientUnits="userSpaceOnUse"><stop offset="0" stop-color="#c0d6ff"/><stop offset="0.3" stop-color="#c5dbff"/><stop offset="0.65" stop-color="#d3e9ff"/><stop offset="1" stop-color="#e9ffff"/></linearGradient><linearGradient id="Безымянный_градиент_15" x1="655.92" y1="364.98" x2="614.35" y2="364.98" gradientTransform="matrix(1, 0, 0, -1, 0, 770)" gradientUnits="userSpaceOnUse"><stop offset="0" stop-color="#5778ff"/><stop offset="0.18" stop-color="#5c7dff"/><stop offset="0.39" stop-color="#6a8aff"/><stop offset="0.61" stop-color="#82a0ff"/><stop offset="0.85" stop-color="#a3beff"/><stop offset="1" stop-color="#bcd5ff"/></linearGradient><linearGradient id="Безымянный_градиент_13-2" x1="653.13" y1="398.27" x2="639.29" y2="374.3" xlink:href="#Безымянный_градиент_13"/><linearGradient id="Безымянный_градиент_14-2" x1="646.17" y1="330.4" x2="618.49" y2="330.4" xlink:href="#Безымянный_градиент_14"/><linearGradient id="Безымянный_градиент_15-2" x1="692.26" y1="330.4" x2="650.68" y2="330.4" xlink:href="#Безымянный_градиент_15"/><linearGradient id="Безымянный_градиент_13-3" x1="689.46" y1="369.21" x2="675.62" y2="345.24" xlink:href="#Безымянный_градиент_13"/><linearGradient id="Безымянный_градиент_14-3" x1="682.5" y1="305.36" x2="654.83" y2="305.36" xlink:href="#Безымянный_градиент_14"/><linearGradient id="Безымянный_градиент_15-3" x1="728.59" y1="305.36" x2="687.02" y2="305.36" xlink:href="#Безымянный_градиент_15"/><linearGradient id="Безымянный_градиент_13-4" x1="725.8" y1="322.22" x2="711.96" y2="298.25" xlink:href="#Безымянный_градиент_13"/><linearGradient id="Безымянный_градиент_14-4" x1="718.83" y1="271.35" x2="691.16" y2="271.35" xlink:href="#Безымянный_градиент_14"/><linearGradient id="Безымянный_градиент_15-4" x1="764.93" y1="271.35" x2="723.35" y2="271.35" xlink:href="#Безымянный_градиент_15"/><linearGradient id="Безымянный_градиент_13-5" x1="762.13" y1="307.43" x2="748.29" y2="283.46" xlink:href="#Безымянный_градиент_13"/><linearGradient id="Безымянный_градиент_14-5" x1="755.17" y1="253.44" x2="727.49" y2="253.44" xlink:href="#Безымянный_градиент_14"/><linearGradient id="Безымянный_градиент_15-5" x1="801.26" y1="253.44" x2="759.68" y2="253.44" xlink:href="#Безымянный_градиент_15"/><linearGradient id="Безымянный_градиент_24" x1="629.59" y1="499.53" x2="679.63" y2="515.18" gradientTransform="matrix(1, 0, 0, -1, 0, 770)" gradientUnits="userSpaceOnUse"><stop offset="0" stop-color="#4b79ce"/><stop offset="0.41" stop-color="#426ab3"/><stop offset="1" stop-color="#2b4a81"/></linearGradient><linearGradient id="Безымянный_градиент_24-2" x1="625.84" y1="509.34" x2="652.97" y2="516.7" xlink:href="#Безымянный_градиент_24"/><linearGradient id="Безымянный_градиент_24-3" x1="637.87" y1="498.74" x2="676.03" y2="519.24" xlink:href="#Безымянный_градиент_24"/><linearGradient id="Безымянный_градиент_23" x1="641.7" y1="519.08" x2="651.61" y2="518.72" gradientTransform="matrix(1, 0, 0, -1, 0, 770)" gradientUnits="userSpaceOnUse"><stop offset="0" stop-color="#f47920"/><stop offset="0.9" stop-color="#f7bb62" stop-opacity="0.7"/></linearGradient><radialGradient id="Безымянный_градиент_20" cx="-26.63" cy="778.94" r="1" gradientTransform="matrix(-21.02, 0, 0, 21.02, 4.39, -16129.98)" gradientUnits="userSpaceOnUse"><stop offset="0" stop-color="#01c8ef"/><stop offset="0.14" stop-color="#02c3eb"/><stop offset="0.3" stop-color="#03b5df"/><stop offset="0.47" stop-color="#069dca"/><stop offset="0.65" stop-color="#097cae"/><stop offset="0.84" stop-color="#0d538a"/><stop offset="1" stop-color="#122865"/></radialGradient><linearGradient id="Безымянный_градиент_24-4" x1="590.07" y1="524.25" x2="606.41" y2="526.27" xlink:href="#Безымянный_градиент_24"/><linearGradient id="Безымянный_градиент_24-5" x1="593.32" y1="515.62" x2="639.82" y2="528.84" xlink:href="#Безымянный_градиент_24"/><linearGradient id="Безымянный_градиент_23-2" x1="601.7" y1="534.59" x2="612.65" y2="534.07" xlink:href="#Безымянный_градиент_23"/><linearGradient id="Безымянный_градиент_24-6" x1="597.03" y1="518.22" x2="632.13" y2="539.66" xlink:href="#Безымянный_градиент_24"/></defs><title>history-4</title><path class="cls-1" d="M625.74,308.13S632.91,318.48,648,318c0,0-1.94,11-2.13,11.36s-15.64,10.57-15.64,10.57-19.33-13.38-32.85-14.42Z" transform="translate(-582 -210)"/><g class="cls-2"><g class="cls-2"><g class="cls-2"><path class="cls-3" d="M609.83,351.7l27.83-16.07-27.83-16.07L582,335.63Z" transform="translate(-582 -210)"/><path class="cls-4" d="M609.83,351l27.26-15.74.57.33L609.83,351.7,582,335.63l.57-.33Z" transform="translate(-582 -210)"/><path class="cls-5" d="M582,458.33l27.83,16.08V351.7L582,335.63Z" transform="translate(-582 -210)"/><path class="cls-6" d="M609.83,474.41l27.83-16.08V335.63L609.83,351.7Z" transform="translate(-582 -210)"/></g></g><g class="cls-2"><g class="cls-2"><path class="cls-7" d="M646.17,399.85,674,383.78l-27.83-16.07-27.83,16.07Z" transform="translate(-582 -210)"/><path class="cls-4" d="M646.17,399.19l27.26-15.74.57.33-27.83,16.07-27.83-16.07.57-.33Z" transform="translate(-582 -210)"/><path class="cls-8" d="M618.34,479.35l27.83,16.07V399.85l-27.83-16.07Z" transform="translate(-582 -210)"/><path class="cls-9" d="M646.17,495.42,674,479.35V383.78l-27.83,16.07Z" transform="translate(-582 -210)"/></g></g><g class="cls-2"><g class="cls-2"><path class="cls-10" d="M682.5,428.91l27.84-16.07L682.5,396.77l-27.84,16.07Z" transform="translate(-582 -210)"/><path class="cls-4" d="M682.5,428.25l27.25-15.74.59.33L682.5,428.91l-27.84-16.07.59-.33Z" transform="translate(-582 -210)"/><path class="cls-11" d="M654.66,500.38l27.84,16.07V428.91l-27.84-16.07Z" transform="translate(-582 -210)"/><path class="cls-12" d="M682.5,516.45l27.84-16.07V412.84L682.5,428.91Z" transform="translate(-582 -210)"/></g></g><g class="cls-2"><g class="cls-2"><path class="cls-13" d="M718.83,475.9l27.84-16.07-27.84-16.07L691,459.83Z" transform="translate(-582 -210)"/><path class="cls-4" d="M718.83,475.24l27.26-15.74.58.33L718.83,475.9,691,459.83l.58-.33Z" transform="translate(-582 -210)"/><path class="cls-14" d="M691,521.4l27.83,16.07V475.9L691,459.83Z" transform="translate(-582 -210)"/><path class="cls-15" d="M718.83,537.47l27.84-16.07V459.83L718.83,475.9Z" transform="translate(-582 -210)"/></g></g><g class="cls-2"><g class="cls-2"><path class="cls-16" d="M755.17,490.69,783,474.62l-27.83-16.07-27.83,16.07Z" transform="translate(-582 -210)"/><path class="cls-4" d="M755.17,490l27.26-15.73.57.33-27.83,16.07-27.83-16.07.57-.33Z" transform="translate(-582 -210)"/><path class="cls-17" d="M727.34,542.42l27.83,16.07v-67.8l-27.83-16.07Z" transform="translate(-582 -210)"/><path class="cls-18" d="M755.17,558.49,783,542.42v-67.8l-27.83,16.07Z" transform="translate(-582 -210)"/></g></g></g><path class="cls-19" d="M609.83,327.61l27.83-16.07-27.83-16.07L582,311.54Z" transform="translate(-582 -210)"/><path class="cls-20" d="M609.83,327l27.26-15.74.57.33-27.83,16.07L582,311.54l.57-.33Z" transform="translate(-582 -210)"/><path class="cls-21" d="M582,404.82l27.83,16.06V327.61L582,311.54Z" transform="translate(-582 -210)"/><path class="cls-22" d="M609.83,420.88l27.83-16.06V311.54l-27.83,16.07Z" transform="translate(-582 -210)"/><path class="cls-19" d="M646.17,375.76,674,359.69l-27.83-16.07-27.83,16.07Z" transform="translate(-582 -210)"/><path class="cls-23" d="M646.17,369.92l17.72-10.23-17.72-10.23-17.72,10.23Z" transform="translate(-582 -210)"/><path class="cls-20" d="M646.17,375.09l27.26-15.74.57.34-27.83,16.07-27.83-16.07.57-.34Z" transform="translate(-582 -210)"/><path class="cls-21" d="M618.34,425.84l27.83,16.07V375.76l-27.83-16.07Z" transform="translate(-582 -210)"/><path class="cls-22" d="M646.17,441.91,674,425.84V359.69l-27.83,16.07Z" transform="translate(-582 -210)"/><path class="cls-19" d="M646.17,351.7,674,335.63l-27.83-16.07-27.83,16.07Z" transform="translate(-582 -210)"/><path class="cls-20" d="M646.17,351l27.26-15.74.57.33L646.17,351.7l-27.83-16.07.57-.33Z" transform="translate(-582 -210)"/><path class="cls-21" d="M618.34,347l13.91,8,13.92,8V351.7l-27.83-16.07Z" transform="translate(-582 -210)"/><path class="cls-22" d="M646.17,363.06,674,347V335.63L646.17,351.7Z" transform="translate(-582 -210)"/><path class="cls-19" d="M682.5,404.82l27.84-16.07L682.5,372.68l-27.84,16.07Z" transform="translate(-582 -210)"/><path class="cls-24" d="M647.2,340c14.39,0,20.46-5,13.25-11.32-3.35-2.95-7.76-6.84-14.44-6.83-15.42,2.54-16.77,7.11-9.56,13.46C639.79,338.23,640.52,340,647.2,340Z" transform="translate(-582 -210)"/><path class="cls-24" d="M607.76,323.38c14.4,0,25-10.17,17.75-16.52-3.34-2.95-9.53-4.76-16.21-4.75-14.39,0-23.38,8-16.17,14.37C596.47,319.43,601.08,323.39,607.76,323.38Z" transform="translate(-582 -210)"/><path class="cls-20" d="M682.5,404.15l27.25-15.74.59.34L682.5,404.82l-27.84-16.07.58-.34Z" transform="translate(-582 -210)"/><path class="cls-21" d="M654.66,446.86l27.84,16.07V404.82l-27.84-16.08Z" transform="translate(-582 -210)"/><path class="cls-22" d="M682.5,462.93l27.84-16.07V388.74L682.5,404.82Z" transform="translate(-582 -210)"/><path class="cls-19" d="M718.83,451.82l27.84-16.07-27.84-16.07L691,435.75Z" transform="translate(-582 -210)"/><path class="cls-20" d="M718.83,451.15l27.26-15.74.58.34-27.84,16.07L691,435.75l.58-.34Z" transform="translate(-582 -210)"/><path class="cls-21" d="M691,467.89,718.83,484V451.82L691,435.75Z" transform="translate(-582 -210)"/><path class="cls-22" d="M718.83,484l27.84-16.06V435.75l-27.84,16.07Z" transform="translate(-582 -210)"/><path class="cls-19" d="M755.17,466.59,783,450.52l-27.83-16.06-27.83,16.06Z" transform="translate(-582 -210)"/><path class="cls-20" d="M755.17,465.93l27.26-15.74.57.33-27.83,16.07-27.83-16.07.57-.33Z" transform="translate(-582 -210)"/><path class="cls-21" d="M727.34,488.9,755.17,505V466.59l-27.83-16.07Z" transform="translate(-582 -210)"/><path class="cls-22" d="M755.17,505,783,488.9V450.52l-27.83,16.07Z" transform="translate(-582 -210)"/><path class="cls-25" d="M640,319.91s-.49.57-1,1.25a14.29,14.29,0,0,1-2.52,2c-.6.43-3.36,2.78-4,5.12s1.35,2.66,3.36,2.25,3.9-2.53,4.44-3.29a19.38,19.38,0,0,1,4.89-3.93c2.44-1.43,1-3.36,1-3.36Z" transform="translate(-582 -210)"/><path class="cls-25" d="M658.27,324.92a9.4,9.4,0,0,1,.56,2.4c.14,1.35.36,4.3.44,5.16a8.23,8.23,0,0,1-1.16,5.06c-1.31,2.06-2,2.88-3.78,2.06s-1.77-4.25-1.48-6a58.12,58.12,0,0,0,.51-6,7,7,0,0,1,.12-1.3Z" transform="translate(-582 -210)"/><path class="cls-25" d="M634.46,282.71s.17,14.05,3.13,21.72a63.12,63.12,0,0,1,2.38,15.2,3.38,3.38,0,0,0,.21,2.64c.72,1.18,5.32,2.27,6.07-1.62a41,41,0,0,0-.39-13.93c-.82-2.92.27-10.85.27-10.85s1.21.86,2.84,6.55a82.12,82.12,0,0,0,3.42,9.62c.48,1.35,1,8.63,1,13.93a2.51,2.51,0,0,0,3,2.69,2.67,2.67,0,0,0,1.75-1.3c1-2,1.22-12.42.89-15.68s-1.69-13.4-1.57-16.5.65-5.55,0-8.57-19.29-9.6-19.29-9.6Z" transform="translate(-582 -210)"/><path class="cls-26" d="M657.4,295.19c.12-3.07.65-5.55,0-8.58-.26-1.13-3.07-2.78-6.47-4.39-5.7-.56-12.92-1.21-13.42-1.13a18.31,18.31,0,0,0-2.62,1l-.4.64s0,.84.07,2.22a10.94,10.94,0,0,0,3.9,0,14.6,14.6,0,0,0,5.36,6c2.8,1.51,11,1,11.46,1.57s.68,8.42.64,9.42.9,7.43,1.77,13.19a52,52,0,0,1-.24,13.07,2.18,2.18,0,0,0,.67-.77c1-2,1.22-12.43.89-15.68S657.29,298.28,657.4,295.19Z" transform="translate(-582 -210)"/><path class="cls-27" d="M640.91,240s-3.92.91-5.24,1.23a.71.71,0,0,0-.49.42,17.25,17.25,0,0,0-.73,8.64,46.39,46.39,0,0,1,.49,9.56l-2,10.29s-2.55,10.07-2.35,10.35,5.48,4.68,7.15,4.05,1.14-1.64,1.14-1.64,1.3,7.52,7.34,7.44,11-.05,11.94-2.71-.51-13.54-1.62-17.77-3.63-12.39-3.63-12.39l8.25-9.69-7.21-5.6s-1.73-3.22-2.43-3.63-1-.06-1-.06Z" transform="translate(-582 -210)"/><path class="cls-28" d="M651.35,238.51s1.46,1.78-.59,4.2a57.89,57.89,0,0,0-5.37,8.17c-1.19,2.14-2.3,3.29-2.92,5.15,0,0-.09-2.21-.16-5.59-.07-3.17-.1-6.43,0-7.25C642.63,241.52,649.76,237.7,651.35,238.51Z" transform="translate(-582 -210)"/><path class="cls-29" d="M646,243.9s-.74.48-1,.44a5.06,5.06,0,0,1-1.08-.86s-2.06,0-2.28-.95a19.13,19.13,0,0,0-.57-2.28,14.81,14.81,0,0,1-1.07-3.6,9.94,9.94,0,0,0-.34-3.35c-.37-.84-.82-9.18,7.13-9s5.58,8.61,5.58,8.61.59.25.24,1.35-.42,1.21-.6,1.75a2.4,2.4,0,0,1-.77,1.35l-.12,1a4.24,4.24,0,0,1-.6,3.09C649.49,243,646,243.9,646,243.9Z" transform="translate(-582 -210)"/><path class="cls-30" d="M635.45,241.36s-.87.13-3.82,7.47c-1.66,4.16-4.23,8.51-4.83,11.67s-.39,6.61.2,6.86,11,4.41,14.31,5.74a.31.31,0,0,0,.42-.25l.92-5.4-6.47-2.66a9.16,9.16,0,0,0-2.36-2.18s1.33-2.51,1.25-3.19.21-7.66-.5-10.45S635.45,241.36,635.45,241.36Z" transform="translate(-582 -210)"/><path class="cls-29" d="M639,261.06a12.85,12.85,0,0,0-1.1-.71c-.21-.09-1.4-.52-1.62-.62a4.14,4.14,0,0,0-1.21,0,.38.38,0,0,0-.29.2,7.7,7.7,0,0,0-1,2.69s2.13,1.44,2.37,2.08l.34.08S637.94,261.53,639,261.06Z" transform="translate(-582 -210)"/><path class="cls-26" d="M656.53,269.9c-.27-1-.62-2.26-1-3.58l-13.17,6a13.71,13.71,0,0,0,11,4.91,8.73,8.73,0,0,0,4.3-1.47A58.53,58.53,0,0,0,656.53,269.9Z" transform="translate(-582 -210)"/><path class="cls-31" d="M661.15,247.81s-3.38.48-6,5a70.41,70.41,0,0,0-4.68,9.92l-.09.61a2.3,2.3,0,0,1-3.24,1.84c-3-1.39-7.3-3.49-8.11-4.11a8,8,0,0,0-3.37,5.12c-.61,2.9-.46,2.91-.46,2.91s11.73,5.86,16.29,5.81,10-15.79,10.54-19S663.11,248.69,661.15,247.81Z" transform="translate(-582 -210)"/><path class="cls-29" d="M647,265.13s.41-.4.92-.86a17.83,17.83,0,0,0,1.5-2.55c.14-.17,1.87-1.58,2.72-1.61s.22,1,0,1.11-1,.57-1,.57-.85.75-.94.86,2.36-.18,2.75.08a.72.72,0,0,1,0,1.09,1,1,0,0,1-.49.18.92.92,0,0,1-.45,1.15c-.73.36-.91.16-.91.16s0,1.36-1.27,1.09Z" transform="translate(-582 -210)"/><path class="cls-32" d="M639.48,229s-1.07,3.37,1.7,2.41,5.24-2.56,6.11-1.95c.66.46.64,1.89.59,2.54a1,1,0,0,0,.16.64l.83,1.21a.82.82,0,0,1,.16.46l.06.84a.43.43,0,0,0,.4.39l.19,0a.41.41,0,0,0,.43-.36l.21-1.24s.63-1.66,2-1a5.71,5.71,0,0,0,.57-3.91c-.33-2.64-1.53-5.37-6.65-5.8S639.48,229,639.48,229Z" transform="translate(-582 -210)"/><path class="cls-33" d="M647.44,247l-.8-.64a4.31,4.31,0,0,0-1,1.3,8.72,8.72,0,0,0,0,2.79l-.24.44-.3-.57-.25-2.52s.27-1.85.29-1.89a14.93,14.93,0,0,1,1.53.16A3.4,3.4,0,0,1,647.44,247Z" transform="translate(-582 -210)"/><path class="cls-33" d="M643.63,244.5a2.59,2.59,0,0,0-1.22.39s.89,0,1,.06S643.63,244.5,643.63,244.5Z" transform="translate(-582 -210)"/><path class="cls-34" d="M646.66,246.07l-1.42-1.37s-2.21-.48-2,.16,0,2.09.17,2.67a.25.25,0,0,0,0,.07,8.45,8.45,0,0,1-.53,1.59c-.29.5-.59,1.06-.59,1.06v7.16s2.53-5.44,3.08-6.54a16.68,16.68,0,0,0-.32-3.07A3.24,3.24,0,0,1,646.66,246.07Z" transform="translate(-582 -210)"/><path class="cls-35" d="M650.09,237.23a10.28,10.28,0,0,1-6.19,6.24s.82.83,1.08.87,1-.44,1-.44,3.51-.88,4.51-2.41a4.16,4.16,0,0,0,.6-3.08l.12-1A1.07,1.07,0,0,1,650.09,237.23Z" transform="translate(-582 -210)"/><path class="cls-26" d="M653.87,242.87s-.62,2.29-.7,2.38a10.49,10.49,0,0,1-1.63-.1l.77,1.47s-7.79,8.72-9.43,13.49A98.89,98.89,0,0,1,653.08,247l-.93-1.44,1.59.32Z" transform="translate(-582 -210)"/><path class="cls-26" d="M641.16,240.85l-.41.48.48.46-1.44,1.33s-.51,9.46,1.23,15.85c0,0-2.37-5.87-1.76-16.11l1.56-1.08-.51-.51Z" transform="translate(-582 -210)"/><path class="cls-26" d="M646.13,295.88l.06.05L644,293.42c1,1.53-.16,8.63-.28,10.27s1.17,5.08,1.65,9.13a43.28,43.28,0,0,1-.51,10,3.18,3.18,0,0,0,1.35-2.19,40.79,40.79,0,0,0-.39-13.93C645,303.81,646.13,295.88,646.13,295.88Z" transform="translate(-582 -210)"/><path class="cls-36" d="M652.34,233a5.76,5.76,0,0,0,.57-3.9c.05.6-.22.76-.22.76l-4.15,3.54.34.49a1,1,0,0,1,.16.46l.06.85a.41.41,0,0,0,.39.39h.19a.42.42,0,0,0,.44-.35l.2-1.24S651,232.3,652.34,233Z" transform="translate(-582 -210)"/><path class="cls-25" d="M616.32,310.39a5.25,5.25,0,0,1,.51,2.45c-.17,1-2.29,4.32-2.9,6.19s-3.84,4.69-5.65,4.68-3.47-.83-2.6-3.06a14.93,14.93,0,0,1,2.31-4,19.37,19.37,0,0,0,2.29-5.09C610.48,310.33,616.32,310.39,616.32,310.39Z" transform="translate(-582 -210)"/><path class="cls-25" d="M607.54,301.47a8.2,8.2,0,0,1,0,2.61c-.26.69-.82,1.32-2.41,1.81a17.2,17.2,0,0,0-5.69,2.39c-2.65,1.72-6.25,2.44-7.32.56s2.71-4.68,4.09-5.41,3.5-1.1,4.65-2.22,1.34-.85,1.34-.85Z" transform="translate(-582 -210)"/><path class="cls-37" d="M616.8,268.91s-1.16,12.06-.75,16.34,3.09,12.47,2.29,18a35,35,0,0,1-1.81,7.94s-3.52,4-6.24.42c0,0,1.13-2.29,1-8.16-.09-3-.15-4.66-.19-5.61a4.36,4.36,0,0,0-.55-2,54.06,54.06,0,0,1-3.75-8.56s.6,8,.55,11.71a9.76,9.76,0,0,0,.15,1.7,4.59,4.59,0,0,1,0,1.57c-.18,1-3.32,4.57-5.87,1.67,0,0-1-.73-.76-3a48.46,48.46,0,0,0-.47-7.34,17.63,17.63,0,0,0-1.62-5.72,48.94,48.94,0,0,1-1.73-5.7c-.8-2.66-3.7-15.24-3.72-18.06s3.3-4.8,3.3-4.8,7.53,3.88,7.38,4.3,9.52,4.7,9.52,4.7Z" transform="translate(-582 -210)"/><path class="cls-26" d="M596.62,259.3s7.53,3.88,7.38,4.3,9.52,4.7,9.52,4.7l3.27.61s-1.15,12.06-.74,16.34,3.09,12.47,2.29,18a35.73,35.73,0,0,1-1.81,7.94,7.34,7.34,0,0,1-1.43,1.18,50.28,50.28,0,0,0,1.84-12.51c-.11-5.83-2.5-15.09-2.64-18a2.93,2.93,0,0,0-2.6-2.93c-2.23-.1-5.51-.49-7.74-1.84.7,3.16,2.79,10.21,2.79,10.21s.64,8.61.55,12.06a4.56,4.56,0,0,0,.09,1.05,5.43,5.43,0,0,1,.11,1.87,4.06,4.06,0,0,1-1.19,1.64c-.07-3.61-.71-12.63-.94-14.68-.26-2.29-2.47-11.36-2.47-11.36-1.17-1-1.73-3.27-1.94-4.42-1-2.25-1.11-4.37-3-4.41-.15,0-2.46,3-4,.62a44.33,44.33,0,0,1-.73-5.53C593.31,261.31,596.62,259.3,596.62,259.3Z" transform="translate(-582 -210)"/><path class="cls-35" d="M593.7,264.51l.39,1.5s.66.1,1.56-1a1.62,1.62,0,0,0,.06-2.08l-1.69.4Z" transform="translate(-582 -210)"/><path class="cls-38" d="M599.84,225.11a3.29,3.29,0,0,0-1.49.53c-1,.56-2.35,2-3.13,5.6s-4,13.09-4.3,14.87a105.8,105.8,0,0,0,1.13,18.24.59.59,0,0,0,.78.48,13.74,13.74,0,0,0,3.53-1.74c1.34-1.08,1.18-9.5,1.18-9.5l-.8-10.6,1.51-8.54s2.09-6.64,1.8-7.07A6.85,6.85,0,0,1,599.84,225.11Z" transform="translate(-582 -210)"/><path class="cls-39" d="M622.36,235.32a7.61,7.61,0,0,1-.36,6.58c-1.87,3.81-6.43,11.7-6.43,11.7s1.61,11.22,1.42,14-2.14,6.09-2.64,7.15-4.63,3.74-9.42,1.18-5.15-6-5.59-9.69-.3-3.47-.3-3.47-2.26,7.32-3.58,5.94c-.56-.59-.59-2.39-.42-4.28a94.79,94.79,0,0,0,.4-11.86c0-.15,0-.27,0-.36,0-1.25-.09-12.46.26-15.43s0-7.6,1.48-9.49a7.85,7.85,0,0,1,2.66-2.18L602,225s12.36-1,13.45.57a13.67,13.67,0,0,1,1.48,2.64A43.8,43.8,0,0,1,622.36,235.32Z" transform="translate(-582 -210)"/><path class="cls-28" d="M612.41,223.77a1.79,1.79,0,0,1,.72.88,16.19,16.19,0,0,0,1.17,2.67,103.17,103.17,0,0,0-7.54,8,17.5,17.5,0,0,0-2.74,5l-2.85-3.47.89-1,.5-2.26.85-2.55.61-2.51,6.8-3.92Z" transform="translate(-582 -210)"/><path class="cls-33" d="M607,231a4.35,4.35,0,0,1,1.49,1.81,7.43,7.43,0,0,0-1.39-.84,7.35,7.35,0,0,0-1,1.11,24.28,24.28,0,0,0,0,3.2l-.38.6-.46,0s0-2.07-.1-2.18a14.51,14.51,0,0,1-.1-1.88c0-.13,1.49-1.54,1.49-1.54l.51-.35Z" transform="translate(-582 -210)"/><path class="cls-40" d="M604.1,230.32a2.37,2.37,0,0,1,1.16-.23,6.16,6.16,0,0,1,1.86,1c.18.24,0,.56-.75,1.11s-.78.88-.78.88a15,15,0,0,1,.17,3.77,24.1,24.1,0,0,0-1.79,4c-.32,1.31-1.62-4.17-1.62-4.17s.46-1.75.67-2.19,1-2.78.82-3.18S604.1,230.32,604.1,230.32Z" transform="translate(-582 -210)"/><path class="cls-41" d="M616.49,228.56l-.92,2-1.65-.09.21,1.75s-6.8,4.64-9.42,9.53l.16.52a32.28,32.28,0,0,1,9.66-9.48l.22-.14L614.4,231l1.47.28Z" transform="translate(-582 -210)"/><path class="cls-29" d="M605.3,229.1a1.47,1.47,0,0,0,1.18.93c.87.07,5.6-1.79,6.28-4.6,0,0-.3-1.34-.32-1.58a1.27,1.27,0,0,0,.39-.69,11.68,11.68,0,0,1,.54-1.64,2.12,2.12,0,0,0,.21-1.3s1.35-7.66-2.83-9-7.18,0-8.56,4.27c0,0-.34,1.17-.61,2a3,3,0,0,0,0,1.69,3,3,0,0,1,.13.87,11.7,11.7,0,0,0-.1,3.26s-.34.83.21,1.13.43,2.77.43,2.77l1.56,1.63S604.11,229.29,605.3,229.1Z" transform="translate(-582 -210)"/><path class="cls-32" d="M613.61,220.65s2.95-6.84-1.87-9.59c-3.77-2.14-8.43-1.11-9.82,3.77,0,0-.35,1.27,1.34,1.88a19.34,19.34,0,0,0,4.86,1.26c1,0,1.5.54,1.51,1.86a2.36,2.36,0,0,0,.18,1.16.66.66,0,0,1,.1.41v.26a.4.4,0,0,0,.26.38c.24.07.51,0,.51,0h0a2.82,2.82,0,0,1,1.22-2C612.64,219.5,613.5,219.26,613.61,220.65Z" transform="translate(-582 -210)"/><path class="cls-36" d="M603,234.45c.22-.43,1-2.77.82-3.18s.26-1,.26-1a2.37,2.37,0,0,1,1.16-.23l.16,0a.1.1,0,0,1,0,0s-.59,1.07-.72,1.33-.69,3-1,3.63a27.81,27.81,0,0,0-.88,2.77l-.18-.1c-.18-.66-.29-1.17-.29-1.17S602.81,234.89,603,234.45Z" transform="translate(-582 -210)"/><path class="cls-35" d="M603.49,227.44a5.77,5.77,0,0,1,.8,1.69.91.91,0,0,1-.51-.2l-.62-.65Z" transform="translate(-582 -210)"/><path class="cls-29" d="M598.44,238a5.37,5.37,0,0,1-.8-2.51A17.74,17.74,0,0,1,598,233s-.63,0-.59-.93a3.3,3.3,0,0,1,.64-2.07.87.87,0,0,1,.64-.18s.24-.77.91-.65a1.28,1.28,0,0,1,.59-.89.64.64,0,0,1,.93.21s.24-.83.46-1a1.87,1.87,0,0,1,.64-.18s1.08-.15,1.28.15a22.54,22.54,0,0,1,.67,3.64c0,.16-.31,1.81-.47,2.33s-1.43,1.87-1.63,2.51a15,15,0,0,1-2.24,2.73S598.44,238,598.44,238Z" transform="translate(-582 -210)"/><path class="cls-41" d="M599,262.76s.14-11.65,2-16.73l-1,1.63a68.74,68.74,0,0,0-1.32,15.93Z" transform="translate(-582 -210)"/><path class="cls-41" d="M599.46,244.6s8.22,7.67,8.26,7.77,12-7.7,12-7.7l.38.87c-2.05,3.77-4.53,8.07-4.53,8.07s.2,1.34.44,3.21c0,0-6,6.71-9.72,5.85-3.23-.74-6.6-11.9-7.45-14.85a2.47,2.47,0,0,1,0-1.45Z" transform="translate(-582 -210)"/><path class="cls-35" d="M598,236.82a9.56,9.56,0,0,1,3.29-.92l-2.48,2.22-.33-.17a6.26,6.26,0,0,1-.53-1.1Z" transform="translate(-582 -210)"/><path class="cls-42" d="M613,239.93a18.55,18.55,0,0,1,4.58-4c1.48-1,3.1-1.74,4-1.11,1.93,1.35,1.56,3.85.7,6.37s-9.07,17.07-14.94,16.75a52.12,52.12,0,0,1-6.15-8.13c-1.6-3-4.19-8.05-5-9.55a.65.65,0,0,1,.13-.77c1.14-1.05,4.62-4.15,5.64-3.63,0,0,2.33,6.1,4.7,9.13l1.85,1.84a51.48,51.48,0,0,1,2.76-4.62C611.78,241.6,612.44,240.73,613,239.93Z" transform="translate(-582 -210)"/><path class="cls-35" d="M606.48,230a1.45,1.45,0,0,1-1.18-.93s4.86-2,5.36-5c0,0,.05,3.16-1.23,4.84A7.83,7.83,0,0,1,606.48,230Z" transform="translate(-582 -210)"/><path class="cls-25" d="M606.75,287.25a.51.51,0,0,0,0,.09A.28.28,0,0,1,606.75,287.25Z" transform="translate(-582 -210)"/><path class="cls-26" d="M611.33,312.6a4.17,4.17,0,0,1-1-1s1.13-2.29,1-8.16c-.09-3-.15-4.65-.19-5.6a4.65,4.65,0,0,0-.55-2,53.42,53.42,0,0,1-3.56-8s0-.05,0-.08c.87,1.64,4.82,6.71,5.35,10.63S611.7,310.12,611.33,312.6Z" transform="translate(-582 -210)"/><path class="cls-25" d="M606.92,287.73s0,0,0-.05l-.15-.43C606.77,287.15,606.83,287.33,606.92,287.73Z" transform="translate(-582 -210)"/><path class="cls-41" d="M596.94,239s7.45,16.89,10.92,17.57,12.67-11.81,12.67-11.81l0,0c-2.91,5.1-8.71,13.39-13.14,13.14a51.9,51.9,0,0,1-6.14-8.12c-1.6-3-4.2-8.05-5-9.55a.64.64,0,0,1,.13-.77Z" transform="translate(-582 -210)"/><path class="cls-41" d="M608.59,246.82a18.66,18.66,0,0,1,1.31,2.59l-1.14-2.91Z" transform="translate(-582 -210)"/><path class="cls-36" d="M613.62,220.65a12.94,12.94,0,0,0,.89-4.27,1.42,1.42,0,0,1-.58,1l-4.26,2.92a1.48,1.48,0,0,0,.16.68.8.8,0,0,1,.1.41v.25a.41.41,0,0,0,.26.39c.24.07.51,0,.52-.06h0a2.81,2.81,0,0,1,1.21-2C612.64,219.5,613.5,219.26,613.62,220.65Z" transform="translate(-582 -210)"/><g class="cls-43"><path class="cls-36" d="M652.91,229v0Z" transform="translate(-582 -210)"/></g></svg>