<svg id="Слой_1" data-name="Слой 1" xmlns="http://www.w3.org/2000/svg" xmlns:xlink="http://www.w3.org/1999/xlink" viewBox="0 0 280 297.18"><defs><style>.cls-1,.cls-30{fill:#f8f2e8;}.cls-2{fill:url(#Безымянный_градиент_13);}.cls-3{fill:url(#Безымянный_градиент_13-2);}.cls-4{fill:#f0f1f1;}.cls-20,.cls-28,.cls-5{fill:#07306d;}.cls-30,.cls-32,.cls-5{opacity:0.4;}.cls-25,.cls-28,.cls-30,.cls-32,.cls-5{isolation:isolate;}.cls-6{fill:url(#Безымянный_градиент_13-3);}.cls-7{fill:#fef7eb;}.cls-8{fill:#426ab3;}.cls-9{fill:url(#Безымянный_градиент_13-4);}.cls-10{fill:url(#Безымянный_градиент_13-5);}.cls-11{fill:url(#Безымянный_градиент_13-6);}.cls-12{fill:#aba8a5;}.cls-13{fill:url(#Безымянный_градиент_13-7);}.cls-14{fill:url(#Безымянный_градиент_13-8);}.cls-15{fill:url(#Безымянный_градиент_13-9);}.cls-16{fill:url(#Безымянный_градиент_13-10);}.cls-17{fill:url(#Безымянный_градиент_13-11);}.cls-18{fill:url(#Безымянный_градиент_13-12);}.cls-19{fill:url(#Безымянный_градиент_13-13);}.cls-21{fill:#e2b1a6;}.cls-22{fill:#f0f6ff;}.cls-23{fill:#c4ccd6;}.cls-24{fill:url(#Безымянный_градиент_14);}.cls-25{fill:#020230;opacity:0.6;}.cls-26{fill:#fcd1c5;}.cls-27{fill:#aa8383;}.cls-28{opacity:0.5;}.cls-29{fill:#1e262d;}.cls-31,.cls-32{fill:#ed6f00;}.cls-33{fill:#7bd7ff;}.cls-34{fill:#1346c3;}.cls-35{fill:#78a6ff;}</style><linearGradient id="Безымянный_градиент_13" x1="620.51" y1="321.62" x2="713.46" y2="407" gradientTransform="matrix(1, 0, 0, -1, 0, 770)" gradientUnits="userSpaceOnUse"><stop offset="0" stop-color="#4b79ce"/><stop offset="0.41" stop-color="#426ab3"/><stop offset="1" stop-color="#2b4a81"/></linearGradient><linearGradient id="Безымянный_градиент_13-2" x1="624.98" y1="335.95" x2="717.94" y2="421.32" xlink:href="#Безымянный_градиент_13"/><linearGradient id="Безымянный_градиент_13-3" x1="624.98" y1="478.15" x2="717.94" y2="563.52" xlink:href="#Безымянный_градиент_13"/><linearGradient id="Безымянный_градиент_13-4" x1="690.27" y1="283.37" x2="783.21" y2="368.75" xlink:href="#Безымянный_градиент_13"/><linearGradient id="Безымянный_градиент_13-5" x1="694.74" y1="297.68" x2="787.69" y2="383.05" xlink:href="#Безымянный_градиент_13"/><linearGradient id="Безымянный_градиент_13-6" x1="694.74" y1="369.12" x2="787.7" y2="454.49" xlink:href="#Безымянный_градиент_13"/><linearGradient id="Безымянный_градиент_13-7" x1="694.74" y1="404.43" x2="787.7" y2="489.8" xlink:href="#Безымянный_градиент_13"/><linearGradient id="Безымянный_градиент_13-8" x1="563.37" y1="283.41" x2="656.3" y2="368.79" xlink:href="#Безымянный_градиент_13"/><linearGradient id="Безымянный_градиент_13-9" x1="567.84" y1="297.72" x2="660.79" y2="383.09" xlink:href="#Безымянный_градиент_13"/><linearGradient id="Безымянный_градиент_13-10" x1="626.72" y1="244.66" x2="719.66" y2="330.04" xlink:href="#Безымянный_градиент_13"/><linearGradient id="Безымянный_градиент_13-11" x1="631.19" y1="258.99" x2="724.15" y2="344.36" xlink:href="#Безымянный_градиент_13"/><linearGradient id="Безымянный_градиент_13-12" x1="626.72" y1="280.39" x2="719.66" y2="365.77" xlink:href="#Безымянный_градиент_13"/><linearGradient id="Безымянный_градиент_13-13" x1="631.19" y1="294.7" x2="724.15" y2="380.07" xlink:href="#Безымянный_градиент_13"/><radialGradient id="Безымянный_градиент_14" cx="-6.67" cy="772.33" r="1" gradientTransform="matrix(-70.67, 0, 0, 70.67, 199.49, -54223.9)" gradientUnits="userSpaceOnUse"><stop offset="0" stop-color="#f9636b"/><stop offset="1" stop-color="#b6246e"/></radialGradient></defs><title>history-3</title><path class="cls-1" d="M655.64,465.51a12,12,0,0,1-5.9-1.41L610,441.18c-1.64-.95-2.55-2.24-2.55-3.62s.91-2.67,2.55-3.62l39.5-23a13.07,13.07,0,0,1,11.81,0l39.71,22.92c1.64,1,2.56,2.24,2.56,3.62s-.9,2.67-2.56,3.62l-39.5,23A12.15,12.15,0,0,1,655.64,465.51Zm-.21-55.24a11.35,11.35,0,0,0-5.54,1.32l-39.5,23a3.67,3.67,0,0,0-2.18,3,3.63,3.63,0,0,0,2.18,3l39.71,22.92a12.25,12.25,0,0,0,11.08,0l39.5-23a3.13,3.13,0,0,0,0-6L661,411.59A11.37,11.37,0,0,0,655.43,410.27Z" transform="translate(-543 -236)"/><path class="cls-2" d="M703.42,425v-19l-24.07,3.21-18-10.39a12.61,12.61,0,0,0-11.44,0l-2.81,1.78L608,405.74v19.39h0a4.06,4.06,0,0,0,2.35,3.2l39.71,22.93a12.67,12.67,0,0,0,11.44,0l39.5-23a4.08,4.08,0,0,0,2.35-3.19h0V425Z" transform="translate(-543 -236)"/><path class="cls-3" d="M701.05,402.49l-39.71-22.92a12.61,12.61,0,0,0-11.44,0l-39.5,23c-3.16,1.82-3.16,4.79,0,6.61l39.71,22.92a12.61,12.61,0,0,0,11.44,0l39.5-23C704.21,407.28,704.21,404.31,701.05,402.49Z" transform="translate(-543 -236)"/><path class="cls-4" d="M701.05,407.94l-39.5,23a12.67,12.67,0,0,1-11.44,0L610.4,408a4.38,4.38,0,0,1-2.29-2.73c-.3,1.38.46,2.82,2.29,3.88l39.71,22.92a12.61,12.61,0,0,0,11.44,0l39.5-23c1.84-1.06,2.6-2.51,2.3-3.88A4.36,4.36,0,0,1,701.05,407.94Z" transform="translate(-543 -236)"/><path class="cls-4" d="M666.88,437.14,665,438.23v-2.17l1.88-1.09Z" transform="translate(-543 -236)"/><path class="cls-4" d="M670.82,434.88,668.94,436v-2.17l1.88-1.09Z" transform="translate(-543 -236)"/><path class="cls-4" d="M674.75,432.61l-1.88,1.08v-2.17l1.88-1.09Z" transform="translate(-543 -236)"/><path class="cls-4" d="M671.53,438.85l-1.88,1.09v-2.17l1.88-1.09Z" transform="translate(-543 -236)"/><path class="cls-4" d="M675,436.87,673.12,438v-2.17l1.88-1.09Z" transform="translate(-543 -236)"/><path class="cls-4" d="M687.37,425.33l-1.88,1.08v-2.17l1.88-1.08Z" transform="translate(-543 -236)"/><path class="cls-4" d="M698.2,419.06l-1.88,1.09V418l1.88-1.09Z" transform="translate(-543 -236)"/><path class="cls-4" d="M678.68,430.34l-1.87,1.08v-2.17l1.87-1.08Z" transform="translate(-543 -236)"/><path class="cls-5" d="M653.48,422.38,626.76,407c-1.09-.63-1-1.73.3-2.45l26.11-15.08a4.73,4.73,0,0,1,4.23-.18l26.73,15.42c1.08.63.94,1.73-.31,2.45L657.71,422.2A4.7,4.7,0,0,1,653.48,422.38Z" transform="translate(-543 -236)"/><path class="cls-4" d="M643,439.08l-22.05-12.74a2.24,2.24,0,0,1-.94-1.82v-1.64c0-.7.43-1,.94-.73L643,434.89a2.26,2.26,0,0,1,.94,1.82v1.64C643.92,439.07,643.49,439.38,643,439.08Z" transform="translate(-543 -236)"/><path class="cls-1" d="M703.42,389.25v-19l-24.07,3.22-18-10.4a12.67,12.67,0,0,0-11.44,0l-2.81,1.78L608,370v19.39h0a4.08,4.08,0,0,0,2.35,3.2l39.71,22.92a12.67,12.67,0,0,0,11.44,0l39.5-23a4.09,4.09,0,0,0,2.35-3.19h0v-.13Z" transform="translate(-543 -236)"/><path class="cls-1" d="M701.05,366.78l-39.71-22.93a12.67,12.67,0,0,0-11.44,0l-39.5,23c-3.16,1.82-3.16,4.78,0,6.61l39.71,22.92a12.67,12.67,0,0,0,11.44,0l39.5-23C704.21,371.55,704.21,368.6,701.05,366.78Z" transform="translate(-543 -236)"/><path class="cls-5" d="M682.14,368.15,659,354.79a7.39,7.39,0,0,0-6.67,0l-23,13.39c-1.83,1.06-1.83,2.78,0,3.86l23.15,13.36a7.39,7.39,0,0,0,6.67,0l23-13.39C684,371,684,369.23,682.14,368.15Z" transform="translate(-543 -236)"/><path class="cls-4" d="M701.05,372.22l-39.5,23a12.61,12.61,0,0,1-11.44,0L610.4,372.26a4.38,4.38,0,0,1-2.29-2.73c-.3,1.38.46,2.83,2.29,3.88l39.71,22.93a12.67,12.67,0,0,0,11.44,0l39.5-23c1.84-1.05,2.6-2.5,2.3-3.88A4.4,4.4,0,0,1,701.05,372.22Z" transform="translate(-543 -236)"/><path class="cls-4" d="M666.88,401.43,665,402.52v-2.17l1.88-1.09Z" transform="translate(-543 -236)"/><path class="cls-4" d="M670.82,399.16l-1.88,1.09v-2.17l1.88-1.09Z" transform="translate(-543 -236)"/><path class="cls-4" d="M674.75,396.89,672.87,398v-2.17l1.88-1.09Z" transform="translate(-543 -236)"/><path class="cls-4" d="M671.53,403.14l-1.88,1.09v-2.17l1.88-1.09Z" transform="translate(-543 -236)"/><path class="cls-4" d="M675,401.14l-1.88,1.08v-2.17L675,399Z" transform="translate(-543 -236)"/><path class="cls-4" d="M687.37,389.6l-1.88,1.09v-2.18l1.88-1.08Z" transform="translate(-543 -236)"/><path class="cls-4" d="M698.2,383.35l-1.88,1.09v-2.17l1.88-1.09Z" transform="translate(-543 -236)"/><path class="cls-4" d="M678.68,394.61l-1.87,1.09v-2.17l1.87-1.09Z" transform="translate(-543 -236)"/><path class="cls-1" d="M703.42,353.54v-19l-24.07,3.21-18-10.39a12.61,12.61,0,0,0-11.44,0l-2.81,1.78L608,334.3v19.39h0a4.06,4.06,0,0,0,2.35,3.2l39.71,22.93a12.67,12.67,0,0,0,11.44,0l39.5-23a4.08,4.08,0,0,0,2.35-3.18h0v-.13Z" transform="translate(-543 -236)"/><path class="cls-1" d="M701.05,331.05l-39.71-22.92a12.61,12.61,0,0,0-11.44,0l-39.5,23c-3.16,1.82-3.16,4.79,0,6.61l39.71,22.92a12.61,12.61,0,0,0,11.44,0l39.5-23C704.21,335.84,704.21,332.87,701.05,331.05Z" transform="translate(-543 -236)"/><path class="cls-1" d="M701.05,331.05l-39.71-22.92a12.61,12.61,0,0,0-11.44,0l-39.5,23c-3.16,1.82-3.16,4.79,0,6.61l39.71,22.92a12.61,12.61,0,0,0,11.44,0l39.5-23C704.21,335.84,704.21,332.87,701.05,331.05Z" transform="translate(-543 -236)"/><path class="cls-5" d="M685.75,332.18,659.44,317a8.39,8.39,0,0,0-7.59,0l-26.18,15.23c-2.09,1.21-2.09,3.17,0,4.38L652,351.79a8.37,8.37,0,0,0,7.58,0l26.18-15.23C687.84,335.33,687.84,333.39,685.75,332.18Z" transform="translate(-543 -236)"/><path class="cls-4" d="M701.05,336.5l-39.5,23a12.67,12.67,0,0,1-11.44,0L610.4,336.55a4.38,4.38,0,0,1-2.29-2.73c-.3,1.38.46,2.82,2.29,3.88l39.71,22.92a12.61,12.61,0,0,0,11.44,0l39.5-23c1.84-1.06,2.6-2.51,2.3-3.88A4.36,4.36,0,0,1,701.05,336.5Z" transform="translate(-543 -236)"/><path class="cls-4" d="M666.88,365.7,665,366.79v-2.17l1.88-1.09Z" transform="translate(-543 -236)"/><path class="cls-4" d="M670.82,363.43l-1.88,1.09v-2.17l1.88-1.09Z" transform="translate(-543 -236)"/><path class="cls-4" d="M674.75,361.17l-1.88,1.08v-2.17l1.88-1.08Z" transform="translate(-543 -236)"/><path class="cls-4" d="M671.53,367.43l-1.88,1.08v-2.17l1.88-1.08Z" transform="translate(-543 -236)"/><path class="cls-4" d="M675,365.43l-1.88,1.08v-2.17l1.88-1.09Z" transform="translate(-543 -236)"/><path class="cls-4" d="M687.37,353.89,685.49,355V352.8l1.88-1.08Z" transform="translate(-543 -236)"/><path class="cls-4" d="M698.2,347.62l-1.88,1.09v-2.17l1.88-1.09Z" transform="translate(-543 -236)"/><path class="cls-4" d="M678.68,358.9,676.81,360v-2.17l1.87-1.08Z" transform="translate(-543 -236)"/><path class="cls-1" d="M703.42,318.49v-19l-24.07,3.22-18-10.4a12.67,12.67,0,0,0-11.44,0l-2.81,1.78L608,299.26v19.37h0a4.06,4.06,0,0,0,2.35,3.2l39.71,22.93a12.67,12.67,0,0,0,11.44,0l39.5-23a4.07,4.07,0,0,0,2.35-3.18h0v-.12Z" transform="translate(-543 -236)"/><path class="cls-1" d="M701.05,296l-39.71-22.92a12.67,12.67,0,0,0-11.44,0l-39.5,23c-3.16,1.83-3.16,4.79,0,6.62l39.71,22.92a12.67,12.67,0,0,0,11.44,0l39.5-23C704.21,300.79,704.21,297.83,701.05,296Z" transform="translate(-543 -236)"/><path class="cls-5" d="M682.14,297.39,659,284a7.46,7.46,0,0,0-6.67,0l-23,13.39c-1.83,1.06-1.83,2.79,0,3.86l23.15,13.36a7.39,7.39,0,0,0,6.67,0l23-13.39C684,300.18,684,298.45,682.14,297.39Z" transform="translate(-543 -236)"/><path class="cls-4" d="M701.05,301.46l-39.5,23a12.61,12.61,0,0,1-11.44,0L610.39,301.5a4.37,4.37,0,0,1-2.3-2.73c-.29,1.38.46,2.83,2.3,3.89l39.71,22.92a12.67,12.67,0,0,0,11.44,0l39.51-23c1.84-1.05,2.6-2.5,2.3-3.88A4.4,4.4,0,0,1,701.05,301.46Z" transform="translate(-543 -236)"/><path class="cls-4" d="M666.88,330.66,665,331.74v-2.17l1.88-1.08Z" transform="translate(-543 -236)"/><path class="cls-4" d="M670.82,328.39l-1.88,1.09V327.3l1.88-1.08Z" transform="translate(-543 -236)"/><path class="cls-4" d="M674.75,326.12l-1.88,1.09V325l1.88-1.09Z" transform="translate(-543 -236)"/><path class="cls-4" d="M671.53,332.37l-1.88,1.09v-2.18l1.88-1.08Z" transform="translate(-543 -236)"/><path class="cls-4" d="M675,330.38l-1.88,1.09v-2.18l1.88-1.08Z" transform="translate(-543 -236)"/><path class="cls-4" d="M687.37,318.84l-1.88,1.09v-2.17l1.88-1.09Z" transform="translate(-543 -236)"/><path class="cls-4" d="M698.2,312.58l-1.88,1.09v-2.18l1.88-1.08Z" transform="translate(-543 -236)"/><path class="cls-4" d="M678.68,323.85l-1.87,1.09v-2.17l1.87-1.09Z" transform="translate(-543 -236)"/><path class="cls-1" d="M703.42,282.77v-19l-24.07,3.21-18-10.39a12.61,12.61,0,0,0-11.44,0l-2.81,1.78L608,263.53v19.38h0a4.08,4.08,0,0,0,2.35,3.2L650.1,309a12.67,12.67,0,0,0,11.44,0l39.5-23a4.09,4.09,0,0,0,2.35-3.19h0v-.11Z" transform="translate(-543 -236)"/><path class="cls-6" d="M701.05,260.29l-39.71-22.92a12.61,12.61,0,0,0-11.44,0l-39.5,23c-3.16,1.83-3.16,4.79,0,6.61l39.71,22.93a12.67,12.67,0,0,0,11.44,0l39.5-23C704.21,265.06,704.21,262.11,701.05,260.29Z" transform="translate(-543 -236)"/><path class="cls-7" d="M701.05,260.29l-39.71-22.92a12.61,12.61,0,0,0-11.44,0l-39.5,23c-3.16,1.83-3.16,4.79,0,6.61l39.71,22.93a12.67,12.67,0,0,0,11.44,0l39.5-23C704.21,265.06,704.21,262.11,701.05,260.29Z" transform="translate(-543 -236)"/><path class="cls-8" d="M655.79,282.43a8.21,8.21,0,0,1-4-1l-26.32-15.19a2.81,2.81,0,0,1,0-5.26l26.17-15.22a8.9,8.9,0,0,1,8.1,0L686,261a3.13,3.13,0,0,1,1.82,2.63,3.18,3.18,0,0,1-1.82,2.63l-26.17,15.21A8.11,8.11,0,0,1,655.79,282.43Zm-.14-36.61a7.18,7.18,0,0,0-3.54.84L626,261.88a1.81,1.81,0,0,0,0,3.48l26.32,15.19a7.8,7.8,0,0,0,7.07,0l26.16-15.21a1.81,1.81,0,0,0,0-3.48l-26.31-15.2A7.18,7.18,0,0,0,655.65,245.82Z" transform="translate(-543 -236)"/><path class="cls-4" d="M701.05,265.73l-39.5,23a12.67,12.67,0,0,1-11.44,0L610.4,265.77a4.34,4.34,0,0,1-2.29-2.72c-.3,1.37.46,2.82,2.29,3.88l39.71,22.92a12.67,12.67,0,0,0,11.44,0l39.5-23c1.84-1.06,2.6-2.51,2.3-3.89A4.32,4.32,0,0,1,701.05,265.73Z" transform="translate(-543 -236)"/><path class="cls-4" d="M666.88,295,665,296v-2.17l1.88-1.09Z" transform="translate(-543 -236)"/><path class="cls-4" d="M670.82,292.68l-1.88,1.08v-2.17l1.88-1.08Z" transform="translate(-543 -236)"/><path class="cls-4" d="M674.75,290.41l-1.88,1.08v-2.17l1.88-1.08Z" transform="translate(-543 -236)"/><path class="cls-4" d="M671.53,296.66l-1.88,1.08v-2.17l1.88-1.08Z" transform="translate(-543 -236)"/><path class="cls-4" d="M675,294.65l-1.88,1.09v-2.17l1.88-1.09Z" transform="translate(-543 -236)"/><path class="cls-4" d="M687.37,283.12l-1.88,1.08V282l1.88-1.09Z" transform="translate(-543 -236)"/><path class="cls-4" d="M698.2,276.87,696.32,278v-2.17l1.88-1.08Z" transform="translate(-543 -236)"/><path class="cls-4" d="M678.68,288.13l-1.87,1.08V287l1.87-1.09Z" transform="translate(-543 -236)"/><path class="cls-1" d="M725.39,503.78a12.16,12.16,0,0,1-5.9-1.4l-39.7-22.93a4.36,4.36,0,0,1-2.56-3.61c0-1.4.9-2.68,2.56-3.62l39.49-23a13.09,13.09,0,0,1,11.82,0l39.71,22.93a3.84,3.84,0,0,1,0,7.23l-39.5,23A12.36,12.36,0,0,1,725.39,503.78Zm-.21-55.24a11.34,11.34,0,0,0-5.53,1.33l-39.5,23a3.12,3.12,0,0,0,0,6l39.7,22.92a12.29,12.29,0,0,0,11.08,0l39.5-23a3.66,3.66,0,0,0,2.19-3c0-1.12-.78-2.17-2.19-3l-39.7-22.92A11.42,11.42,0,0,0,725.18,448.54Z" transform="translate(-543 -236)"/><path class="cls-9" d="M773.17,463.24v-19l-24.06,3.21L731.1,437a12.67,12.67,0,0,0-11.44,0l-2.81,1.78L677.78,444v19.37h0a4.11,4.11,0,0,0,2.36,3.2l39.7,22.92a12.67,12.67,0,0,0,11.44,0l39.5-23a4.09,4.09,0,0,0,2.36-3.19h0v-.11Z" transform="translate(-543 -236)"/><path class="cls-10" d="M770.81,440.76,731.1,417.84a12.67,12.67,0,0,0-11.44,0l-39.5,23c-3.16,1.83-3.16,4.79,0,6.61l39.71,22.93a12.67,12.67,0,0,0,11.44,0l39.5-23C774,445.54,774,442.59,770.81,440.76Z" transform="translate(-543 -236)"/><path class="cls-4" d="M770.81,446.2l-39.5,23a12.67,12.67,0,0,1-11.44,0l-39.71-22.92a4.4,4.4,0,0,1-2.3-2.73c-.29,1.38.46,2.82,2.3,3.88l39.71,22.92a12.61,12.61,0,0,0,11.44,0l39.5-23c1.83-1.06,2.6-2.51,2.29-3.88A4.31,4.31,0,0,1,770.81,446.2Z" transform="translate(-543 -236)"/><path class="cls-4" d="M736.65,475.42l-1.89,1.08v-2.17l1.89-1.08Z" transform="translate(-543 -236)"/><path class="cls-4" d="M740.58,473.15l-1.88,1.09v-2.18l1.88-1.08Z" transform="translate(-543 -236)"/><path class="cls-4" d="M744.52,470.87,742.64,472v-2.17l1.88-1.08Z" transform="translate(-543 -236)"/><path class="cls-4" d="M741.3,477.13l-1.88,1.08V476L741.3,475Z" transform="translate(-543 -236)"/><path class="cls-4" d="M744.77,475.13l-1.89,1.08V474l1.89-1.09Z" transform="translate(-543 -236)"/><path class="cls-4" d="M757.13,463.59l-1.88,1.08V462.5l1.88-1.08Z" transform="translate(-543 -236)"/><path class="cls-4" d="M768,457.34l-1.88,1.08v-2.17l1.88-1.08Z" transform="translate(-543 -236)"/><path class="cls-4" d="M748.44,468.6l-1.88,1.08v-2.17l1.88-1.08Z" transform="translate(-543 -236)"/><path class="cls-5" d="M723.24,460.65l-26.73-15.42c-1.08-.63-.94-1.73.31-2.45l26.11-15.07a4.67,4.67,0,0,1,4.23-.18L753.88,443c1.09.62,1,1.72-.3,2.45l-26.11,15.07A4.7,4.7,0,0,1,723.24,460.65Z" transform="translate(-543 -236)"/><path class="cls-4" d="M712.73,477.34,690.68,464.6a2.24,2.24,0,0,1-.94-1.82v-1.64c0-.7.43-1,.94-.73l22.05,12.74a2.26,2.26,0,0,1,.95,1.82v1.65C713.68,477.32,713.24,477.65,712.73,477.34Z" transform="translate(-543 -236)"/><path class="cls-1" d="M773.17,427.53v-19l-24.06,3.21-18-10.4a12.67,12.67,0,0,0-11.44,0l-2.81,1.79-39.07,5.2v19.38h0a4.11,4.11,0,0,0,2.36,3.2l39.7,22.92a12.67,12.67,0,0,0,11.44,0l39.5-23a4.08,4.08,0,0,0,2.36-3.18h0v-.11Z" transform="translate(-543 -236)"/><path class="cls-1" d="M770.81,405,731.1,382.11a12.67,12.67,0,0,0-11.44,0l-39.5,23c-3.16,1.82-3.16,4.79,0,6.61l39.71,22.92a12.67,12.67,0,0,0,11.44,0l39.5-23C774,409.82,774,406.86,770.81,405Z" transform="translate(-543 -236)"/><path class="cls-5" d="M751.89,406.43l-23.14-13.36a7.39,7.39,0,0,0-6.67,0l-23,13.39c-1.84,1.05-1.84,2.78,0,3.85l23.15,13.36a7.37,7.37,0,0,0,6.66,0l23-13.39C753.73,409.21,753.73,407.49,751.89,406.43Z" transform="translate(-543 -236)"/><path class="cls-4" d="M770.81,410.49l-39.5,23a12.67,12.67,0,0,1-11.44,0l-39.71-22.93a4.35,4.35,0,0,1-2.3-2.73c-.29,1.38.46,2.83,2.3,3.89l39.71,22.92a12.67,12.67,0,0,0,11.44,0l39.5-23c1.83-1.06,2.6-2.51,2.29-3.89A4.32,4.32,0,0,1,770.81,410.49Z" transform="translate(-543 -236)"/><path class="cls-4" d="M736.65,439.69l-1.89,1.09V438.6l1.89-1.08Z" transform="translate(-543 -236)"/><path class="cls-4" d="M740.58,437.42l-1.88,1.09v-2.17l1.88-1.09Z" transform="translate(-543 -236)"/><path class="cls-4" d="M744.52,435.15l-1.88,1.09v-2.17l1.88-1.09Z" transform="translate(-543 -236)"/><path class="cls-4" d="M741.3,441.4l-1.88,1.09v-2.17l1.88-1.09Z" transform="translate(-543 -236)"/><path class="cls-4" d="M744.77,439.41l-1.89,1.09v-2.17l1.89-1.09Z" transform="translate(-543 -236)"/><path class="cls-4" d="M757.13,427.88,755.25,429v-2.17l1.88-1.09Z" transform="translate(-543 -236)"/><path class="cls-4" d="M768,421.61l-1.88,1.09v-2.17l1.88-1.09Z" transform="translate(-543 -236)"/><path class="cls-4" d="M748.44,432.88,746.56,434V431.8l1.88-1.09Z" transform="translate(-543 -236)"/><path class="cls-1" d="M773.17,391.8v-19L749.11,376l-18-10.4a12.67,12.67,0,0,0-11.44,0l-2.81,1.78-39.07,5.21v19.37h0a4.1,4.1,0,0,0,2.36,3.2l39.7,22.92a12.61,12.61,0,0,0,11.44,0l39.5-23a4.09,4.09,0,0,0,2.36-3.19h0v-.11Z" transform="translate(-543 -236)"/><path class="cls-11" d="M770.81,369.32,731.1,346.4a12.67,12.67,0,0,0-11.44,0l-39.5,23c-3.16,1.83-3.16,4.79,0,6.62l39.71,22.92a12.67,12.67,0,0,0,11.44,0l39.5-23C774,374.1,774,371.15,770.81,369.32Z" transform="translate(-543 -236)"/><path class="cls-12" d="M770.81,369.32,731.1,346.4a12.67,12.67,0,0,0-11.44,0l-39.5,23c-3.16,1.83-3.16,4.79,0,6.62l39.71,22.92a12.67,12.67,0,0,0,11.44,0l39.5-23C774,374.1,774,371.15,770.81,369.32Z" transform="translate(-543 -236)"/><path class="cls-5" d="M755.51,370.44l-26.32-15.19a8.37,8.37,0,0,0-7.58,0l-26.18,15.21c-2.09,1.22-2.09,3.18,0,4.39L721.75,390a8.37,8.37,0,0,0,7.58,0l26.18-15.21C757.61,373.61,757.61,371.65,755.51,370.44Z" transform="translate(-543 -236)"/><path class="cls-4" d="M770.81,374.76l-39.5,23a12.67,12.67,0,0,1-11.44,0l-39.71-22.92a4.4,4.4,0,0,1-2.3-2.73c-.29,1.38.46,2.82,2.3,3.88l39.71,22.92a12.61,12.61,0,0,0,11.44,0l39.5-23c1.83-1.06,2.6-2.51,2.29-3.88A4.31,4.31,0,0,1,770.81,374.76Z" transform="translate(-543 -236)"/><path class="cls-4" d="M736.65,404l-1.89,1.08v-2.17l1.89-1.08Z" transform="translate(-543 -236)"/><path class="cls-4" d="M740.58,401.71l-1.88,1.08v-2.17l1.88-1.08Z" transform="translate(-543 -236)"/><path class="cls-4" d="M744.52,399.44l-1.88,1.09v-2.18l1.88-1.08Z" transform="translate(-543 -236)"/><path class="cls-4" d="M741.3,405.69l-1.88,1.08V404.6l1.88-1.08Z" transform="translate(-543 -236)"/><path class="cls-4" d="M744.77,403.68l-1.89,1.09V402.6l1.89-1.09Z" transform="translate(-543 -236)"/><path class="cls-4" d="M757.13,392.15l-1.88,1.08v-2.17l1.88-1.08Z" transform="translate(-543 -236)"/><path class="cls-4" d="M768,385.9,766.09,387v-2.17l1.88-1.08Z" transform="translate(-543 -236)"/><path class="cls-4" d="M748.44,397.16l-1.88,1.08v-2.17l1.88-1.08Z" transform="translate(-543 -236)"/><path class="cls-1" d="M773.17,356.5v-19l-24.06,3.22-18-10.4a12.67,12.67,0,0,0-11.44,0l-2.81,1.78-39.07,5.21v19.37h0a4.1,4.1,0,0,0,2.36,3.2l39.7,22.93a12.67,12.67,0,0,0,11.44,0l39.5-23a4.08,4.08,0,0,0,2.36-3.19h0v-.11Z" transform="translate(-543 -236)"/><path class="cls-13" d="M770.81,334,731.1,311.09a12.67,12.67,0,0,0-11.44,0l-39.5,23c-3.16,1.83-3.16,4.79,0,6.62l39.71,22.92a12.67,12.67,0,0,0,11.44,0l39.5-23C774,338.8,774,335.84,770.81,334Z" transform="translate(-543 -236)"/><path class="cls-7" d="M770.81,334,731.1,311.09a12.67,12.67,0,0,0-11.44,0l-39.5,23c-3.16,1.83-3.16,4.79,0,6.62l39.71,22.92a12.67,12.67,0,0,0,11.44,0l39.5-23C774,338.8,774,335.84,770.81,334Z" transform="translate(-543 -236)"/><path class="cls-8" d="M725.55,356.16a8.32,8.32,0,0,1-4-1L695.18,340a2.8,2.8,0,0,1,0-5.26l26.16-15.21a8.84,8.84,0,0,1,8.1,0l26.32,15.19a3.14,3.14,0,0,1,1.83,2.63,3.19,3.19,0,0,1-1.83,2.64L729.6,355.17A8.08,8.08,0,0,1,725.55,356.16Zm-.14-36.61a7.19,7.19,0,0,0-3.54.85l-26.16,15.21a2.19,2.19,0,0,0-1.31,1.74,2.15,2.15,0,0,0,1.31,1.74L722,354.28a7.86,7.86,0,0,0,7.07,0l26.16-15.21a2.19,2.19,0,0,0,1.31-1.75,2.14,2.14,0,0,0-1.31-1.73l-26.32-15.2A7.23,7.23,0,0,0,725.41,319.55Z" transform="translate(-543 -236)"/><path class="cls-4" d="M770.81,339.47l-39.5,23a12.61,12.61,0,0,1-11.44,0l-39.71-22.92a4.37,4.37,0,0,1-2.3-2.73c-.29,1.38.46,2.83,2.3,3.89l39.71,22.92a12.67,12.67,0,0,0,11.44,0l39.5-23c1.83-1.05,2.6-2.5,2.29-3.88A4.35,4.35,0,0,1,770.81,339.47Z" transform="translate(-543 -236)"/><path class="cls-4" d="M736.65,368.67l-1.89,1.08v-2.17l1.89-1.08Z" transform="translate(-543 -236)"/><path class="cls-4" d="M740.58,366.4l-1.88,1.09v-2.18l1.88-1.08Z" transform="translate(-543 -236)"/><path class="cls-4" d="M744.52,364.13l-1.88,1.09v-2.17l1.88-1.09Z" transform="translate(-543 -236)"/><path class="cls-4" d="M741.3,370.38l-1.88,1.09v-2.18l1.88-1.08Z" transform="translate(-543 -236)"/><path class="cls-4" d="M744.77,368.39l-1.89,1.09V367.3l1.89-1.08Z" transform="translate(-543 -236)"/><path class="cls-4" d="M757.13,356.85l-1.88,1.09v-2.17l1.88-1.09Z" transform="translate(-543 -236)"/><path class="cls-4" d="M768,350.59l-1.88,1.08V349.5l1.88-1.08Z" transform="translate(-543 -236)"/><path class="cls-4" d="M748.44,361.86,746.56,363v-2.17l1.88-1.09Z" transform="translate(-543 -236)"/><path class="cls-14" d="M646.27,463.2v-19l-24.06,3.21L604.2,437a12.61,12.61,0,0,0-11.44,0L590,438.76,550.88,444v19.38h0a4.08,4.08,0,0,0,2.35,3.2L593,489.46a12.67,12.67,0,0,0,11.44,0l39.5-23a4.07,4.07,0,0,0,2.35-3.19h0v-.11Z" transform="translate(-543 -236)"/><path class="cls-15" d="M643.91,440.72,604.2,417.8a12.67,12.67,0,0,0-11.44,0l-39.5,23c-3.16,1.83-3.16,4.79,0,6.61L593,470.3a12.67,12.67,0,0,0,11.44,0l39.5-23C647.07,445.49,647.07,442.54,643.91,440.72Z" transform="translate(-543 -236)"/><path class="cls-4" d="M643.9,446.18l-39.49,23a12.69,12.69,0,0,1-11.45,0l-39.7-22.92a4.37,4.37,0,0,1-2.3-2.73c-.29,1.38.46,2.83,2.3,3.88L593,470.3a12.69,12.69,0,0,0,11.45,0l39.49-23c1.84-1.06,2.61-2.5,2.3-3.88A4.39,4.39,0,0,1,643.9,446.18Z" transform="translate(-543 -236)"/><path class="cls-4" d="M609.74,475.38l-1.88,1.08v-2.17l1.88-1.08Z" transform="translate(-543 -236)"/><path class="cls-4" d="M613.68,473.11l-1.88,1.08V472l1.88-1.08Z" transform="translate(-543 -236)"/><path class="cls-4" d="M617.6,470.84l-1.88,1.09v-2.18l1.88-1.08Z" transform="translate(-543 -236)"/><path class="cls-4" d="M614.39,477.09l-1.88,1.08V476l1.88-1.08Z" transform="translate(-543 -236)"/><path class="cls-4" d="M617.85,475.1,616,476.18V474l1.88-1.08Z" transform="translate(-543 -236)"/><path class="cls-4" d="M630.22,463.55l-1.88,1.08v-2.17l1.88-1.07Z" transform="translate(-543 -236)"/><path class="cls-4" d="M641.05,457.3l-1.88,1.08v-2.17l1.88-1.08Z" transform="translate(-543 -236)"/><path class="cls-4" d="M621.54,468.57l-1.88,1.09v-2.17l1.88-1.09Z" transform="translate(-543 -236)"/><path class="cls-4" d="M585.81,477.31l-22-12.73a2.28,2.28,0,0,1-.95-1.83v-1.64c0-.7.43-1,.95-.72l22,12.73a2.28,2.28,0,0,1,1,1.83v1.64C586.77,477.28,586.34,477.62,585.81,477.31Z" transform="translate(-543 -236)"/><path class="cls-16" d="M709.62,502v-19l-24.06,3.21-18-10.4a12.67,12.67,0,0,0-11.44,0l-2.81,1.79-39.07,5.2v19.37h0a4.09,4.09,0,0,0,2.35,3.21l39.71,22.92a12.67,12.67,0,0,0,11.44,0l39.49-23a4.08,4.08,0,0,0,2.36-3.18h0V502Z" transform="translate(-543 -236)"/><path class="cls-17" d="M707.26,479.45l-39.71-22.92a12.67,12.67,0,0,0-11.44,0l-39.5,23c-3.16,1.82-3.16,4.78,0,6.61L656.32,509a12.67,12.67,0,0,0,11.44,0l39.5-23C710.42,484.24,710.42,481.28,707.26,479.45Z" transform="translate(-543 -236)"/><path class="cls-4" d="M707.26,484.91l-39.5,23a12.61,12.61,0,0,1-11.44,0L616.61,485a4.35,4.35,0,0,1-2.3-2.73c-.29,1.38.46,2.83,2.3,3.89L656.32,509a12.67,12.67,0,0,0,11.44,0l39.5-23c1.83-1.06,2.6-2.51,2.29-3.89A4.32,4.32,0,0,1,707.26,484.91Z" transform="translate(-543 -236)"/><path class="cls-4" d="M673.09,514.12l-1.88,1.09V513l1.88-1.09Z" transform="translate(-543 -236)"/><path class="cls-4" d="M677,511.84l-1.88,1.09v-2.17l1.88-1.09Z" transform="translate(-543 -236)"/><path class="cls-4" d="M681,509.57l-1.88,1.09v-2.17L681,507.4Z" transform="translate(-543 -236)"/><path class="cls-4" d="M677.74,515.83l-1.88,1.09v-2.17l1.88-1.09Z" transform="translate(-543 -236)"/><path class="cls-4" d="M681.21,513.83l-1.88,1.09v-2.17l1.88-1.09Z" transform="translate(-543 -236)"/><path class="cls-4" d="M693.58,502.29l-1.88,1.09v-2.17l1.88-1.09Z" transform="translate(-543 -236)"/><path class="cls-4" d="M704.4,496l-1.87,1.09V495l1.87-1.09Z" transform="translate(-543 -236)"/><path class="cls-4" d="M684.89,507.3,683,508.39v-2.17l1.88-1.09Z" transform="translate(-543 -236)"/><path class="cls-5" d="M659.69,499.34,633,483.92c-1.09-.63-1-1.72.3-2.45l26.11-15.07a4.7,4.7,0,0,1,4.23-.18l26.72,15.42c1.09.62.95,1.73-.3,2.45l-26.11,15.07A4.61,4.61,0,0,1,659.69,499.34Z" transform="translate(-543 -236)"/><path class="cls-4" d="M649.16,516l-22-12.73a2.26,2.26,0,0,1-1-1.82v-1.65c0-.69.43-1,1-.72l22,12.74a2.25,2.25,0,0,1,1,1.82v1.64C650.12,516,649.69,516.35,649.16,516Z" transform="translate(-543 -236)"/><path class="cls-18" d="M709.62,466.22v-19l-24.06,3.21-18-10.39a12.61,12.61,0,0,0-11.44,0l-2.81,1.78L614.23,447v19.38h0a4.08,4.08,0,0,0,2.35,3.2l39.71,22.92a12.67,12.67,0,0,0,11.44,0l39.49-23a4.11,4.11,0,0,0,2.36-3.19h0v-.11Z" transform="translate(-543 -236)"/><path class="cls-19" d="M707.26,443.74l-39.71-22.92a12.61,12.61,0,0,0-11.44,0l-39.5,23c-3.16,1.83-3.16,4.79,0,6.61l39.71,22.93a12.67,12.67,0,0,0,11.44,0l39.5-23C710.42,448.53,710.42,445.56,707.26,443.74Z" transform="translate(-543 -236)"/><path class="cls-4" d="M707.26,449.2l-39.5,23a12.67,12.67,0,0,1-11.44,0l-39.71-22.92a4.4,4.4,0,0,1-2.3-2.73c-.29,1.38.46,2.83,2.3,3.88l39.71,22.93a12.67,12.67,0,0,0,11.44,0l39.5-23c1.83-1.06,2.6-2.5,2.29-3.88A4.37,4.37,0,0,1,707.26,449.2Z" transform="translate(-543 -236)"/><path class="cls-4" d="M673.09,478.4l-1.88,1.08v-2.17l1.88-1.08Z" transform="translate(-543 -236)"/><path class="cls-4" d="M677,476.13l-1.88,1.08V475L677,474Z" transform="translate(-543 -236)"/><path class="cls-4" d="M681,473.86,679.08,475v-2.18l1.88-1.08Z" transform="translate(-543 -236)"/><path class="cls-4" d="M677.74,480.11l-1.88,1.08V479l1.88-1.08Z" transform="translate(-543 -236)"/><path class="cls-4" d="M681.21,478.12l-1.88,1.08V477l1.88-1.08Z" transform="translate(-543 -236)"/><path class="cls-4" d="M693.58,466.57l-1.88,1.08v-2.16l1.88-1.08Z" transform="translate(-543 -236)"/><path class="cls-4" d="M704.4,460.32l-1.87,1.08v-2.17l1.87-1.08Z" transform="translate(-543 -236)"/><path class="cls-4" d="M684.89,471.59,683,472.68v-2.17l1.88-1.09Z" transform="translate(-543 -236)"/><path class="cls-5" d="M661.93,462.2c15,0,27.24-7.05,27.24-15.73s-12.2-15.73-27.24-15.73-27.24,7-27.24,15.73S646.89,462.2,661.93,462.2Z" transform="translate(-543 -236)"/><path class="cls-20" d="M674.8,444.42a5.77,5.77,0,0,1,.62,2.84c-.24,1.12-2.94,5-3.73,7.11s-4.85,5.33-7.13,5.32-4.37-.95-3.27-3.48a17.05,17.05,0,0,1,2.91-4.63,21.42,21.42,0,0,0,2.92-5.86C667.39,444.37,674.8,444.42,674.8,444.42Z" transform="translate(-543 -236)"/><path class="cls-20" d="M663.65,434a8.7,8.7,0,0,1,0,3.06c-.33.81-1,1.55-3.07,2.13a22.92,22.92,0,0,0-7.24,2.79c-3.35,2-7.92,2.84-9.3.65s3.39-5.46,5.14-6.3,4.45-1.3,5.93-2.61,1.71-1,1.71-1Z" transform="translate(-543 -236)"/><path class="cls-20" d="M675.88,394.55s-1.66,14.88-1.16,20.09,3.84,14.93,2.74,21.45-2.39,9.25-2.39,9.25-4.5,4.59-7.92.49c0,0,1.43-2.65,1.25-9.51-.1-3.49-.16-5.48-.21-6.61a5.1,5.1,0,0,0-.69-2.39,61.08,61.08,0,0,1-4.83-10.27s.76,9.64.71,14a9.15,9.15,0,0,0,.18,2,5,5,0,0,1,.05,1.84c-.23,1.13-4.23,5.36-7.5,2,0,0-1.26-.85-1-3.51a52.61,52.61,0,0,0-.65-8.71,20.49,20.49,0,0,0-2.14-6.86c-.91-1.73-1.76-5.28-2.3-6.9-1.07-3.25-5.07-18.82-5.14-22.37s4.3-6.07,4.3-6.07,10,4.9,9.83,5.44,12.57,5.89,12.57,5.89Z" transform="translate(-543 -236)"/><path class="cls-5" d="M649.18,382.46s10,4.9,9.83,5.44,12.56,5.89,12.56,5.89l4.32.76s-1.66,14.88-1.15,20.09,3.84,14.93,2.74,21.45-2.4,9.25-2.4,9.25a8.68,8.68,0,0,1-1.82,1.37c.6-1.93,2.53-8.7,2.48-14.62-.07-6.9-3.08-18-3.25-21.64a3.62,3.62,0,0,0-3.36-3.58c-2.91-.12-7.19-.6-10.12-2.25.92,3.87,3.64,12.43,3.64,12.43s.82,10.31.71,14.4a5.63,5.63,0,0,0,.11,1.23,5.89,5.89,0,0,1,.14,2.2,4.67,4.67,0,0,1-1.51,1.93c-.1-4.25-.92-15-1.23-17.44-.35-2.75-3.25-13.79-3.25-13.79-1.54-1.2-2.27-4-2.56-5.44-1.3-2.8-1.49-5.43-3.92-5.49-.19,0-3.2,3.7-5.19.78a57.92,57.92,0,0,1-1.06-6.93C644.81,385,649.18,382.46,649.18,382.46Z" transform="translate(-543 -236)"/><path class="cls-21" d="M645.38,389l.54,1.9s.87.12,2.05-1.21a2,2,0,0,0,.06-2.61l-2.23.5Z" transform="translate(-543 -236)"/><path class="cls-20" d="M653.15,337.66a4.53,4.53,0,0,0-2,.71c-1.4.75-3.2,2.74-4.2,7.53s-5.24,17.3-5.57,19.61.46,17,1.86,23.33a.81.81,0,0,0,1,.61,18.6,18.6,0,0,0,4.65-2.2c1.77-1.37,1.45-12.07,1.45-12.07l-1.2-13.74,2-11.26s2.78-8.87,2.38-9.46S653.15,337.66,653.15,337.66Z" transform="translate(-543 -236)"/><path class="cls-20" d="M683.85,351.34s1.95,3.72-.63,8.67-8.81,15.17-8.81,15.17,2,14.24,1.74,17.72-2.88,7.57-3.55,8.88-6.08,4.6-12.34,1.46-6.79-7.4-7.4-12.05-.42-4.37-.42-4.37-2.91,9.17-4.66,7.44c-.76-.74-.81-3-.6-5.37a117,117,0,0,0,.36-15.07c0-.18,0-.35,0-.46,0-1.6-.3-16.2.13-20.13s-.16-10.12,1.9-12.66a10.58,10.58,0,0,1,3.62-2.94l2.9-.14s17-1.39,18.45.77a19.08,19.08,0,0,1,2,3.56S681.61,347.22,683.85,351.34Z" transform="translate(-543 -236)"/><path class="cls-22" d="M670.39,335.85a2.38,2.38,0,0,1,1,1.18,22,22,0,0,0,1.57,3.61s-7.5,7.1-10.31,10.74a22.35,22.35,0,0,0-3.7,6.66l-3.9-4.57,1.21-1.34.65-3,1.16-3.39.82-3.37,9.31-5.29Z" transform="translate(-543 -236)"/><path class="cls-23" d="M663,345.51a6.09,6.09,0,0,1,2,2.42,10.1,10.1,0,0,0-1.89-1.11,9.8,9.8,0,0,0-1.28,1.47,30.12,30.12,0,0,0,0,4.26l-.53.79-.61.07s-.07-2.75-.14-2.89a18.91,18.91,0,0,1-.14-2.51c0-.16,2-2.06,2-2.06l.7-.47Z" transform="translate(-543 -236)"/><path class="cls-24" d="M659,344.67a3.22,3.22,0,0,1,1.57-.3,8.33,8.33,0,0,1,2.53,1.29c.25.32-.07.75-1,1.49s-1.06,1.18-1.06,1.18a18.89,18.89,0,0,1,.24,5,31.72,31.72,0,0,0-2.43,5.26c-.41,1.71-2.2-5.51-2.2-5.51a30,30,0,0,1,.91-2.9c.29-.58,1.39-3.7,1.1-4.24S659,344.67,659,344.67Z" transform="translate(-543 -236)"/><path class="cls-25" d="M675.94,342.32,674.66,345l-2.25-.13.26,2.34s-9.27,6.17-12.8,12.61l.22.68a43.31,43.31,0,0,1,13.13-12.54l.3-.18-.46-2.26,2,.37Z" transform="translate(-543 -236)"/><path class="cls-26" d="M660.65,343a1.92,1.92,0,0,0,1.6,1.25c1.2.1,7.65-2.4,8.6-6.19,0,0-.39-1.81-.43-2.14A1.67,1.67,0,0,0,671,335a14.7,14.7,0,0,1,.77-2.22A3.11,3.11,0,0,0,672,331s1.93-10.54-3.86-12.34-10-.06-11.87,5.91c0,0-.46,1.61-.82,2.8a4.16,4.16,0,0,0,0,2.32,3.48,3.48,0,0,1,.2,1.19,15.19,15.19,0,0,0-.11,4.43s-.46,1.13.3,1.54.6,3.73.6,3.73l2.15,2.19S659,343.3,660.65,343Z" transform="translate(-543 -236)"/><path class="cls-27" d="M672.07,331.6s4.14-9.38-2.53-13.19c-5.23-3-11.72-1.54-13.61,5.22,0,0-.47,1.75,1.86,2.59s5.35,1.75,6.73,1.72,2.06.74,2.09,2.54a3.07,3.07,0,0,0,.25,1.58.94.94,0,0,1,.14.56l0,.35a.52.52,0,0,0,.36.51c.34.1.7,0,.71-.07a3.78,3.78,0,0,1,1.69-2.71C670.74,330.05,671.93,329.71,672.07,331.6Z" transform="translate(-543 -236)"/><path class="cls-28" d="M657.56,350.18c.29-.58,1.39-3.7,1.1-4.24s.35-1.28.35-1.28a3.19,3.19,0,0,1,1.57-.31l.22.07v0s-.8,1.44-1,1.79-.94,4-1.34,4.83a34.48,34.48,0,0,0-1.18,3.67l-.24-.14c-.24-.88-.41-1.53-.41-1.53S657.28,350.77,657.56,350.18Z" transform="translate(-543 -236)"/><path class="cls-21" d="M658.17,340.8a8,8,0,0,1,1.1,2.27,1.2,1.2,0,0,1-.69-.26l-.85-.88C658,341.35,658.17,340.8,658.17,340.8Z" transform="translate(-543 -236)"/><path class="cls-26" d="M651.36,354.82a7.11,7.11,0,0,1-1.11-3.31,22.26,22.26,0,0,1,.46-3.32s-.86,0-.81-1.23a4.5,4.5,0,0,1,.84-2.79,1.19,1.19,0,0,1,.88-.23s.32-1,1.22-.88a1.69,1.69,0,0,1,.81-1.18.87.87,0,0,1,1.26.27s.32-1.09.63-1.29a2.52,2.52,0,0,1,.88-.24s1.49-.19,1.75.2a28.52,28.52,0,0,1,.93,4.88c-.05.21-.41,2.41-.64,3.11s-1.93,2.48-2.2,3.34-3,3.6-3,3.6Z" transform="translate(-543 -236)"/><path class="cls-25" d="M652.42,386.85s.09-14.86,2.55-21.44l-1.28,2.13a84.53,84.53,0,0,0-1.62,20.35Z" transform="translate(-543 -236)"/><path class="cls-25" d="M652.82,363.55s11.06,9.93,11.11,10.06,16.18-10,16.18-10l.5,1.13c-2.81,4.9-6.18,10.42-6.18,10.42s.24,1.73.54,4.11c0,0-8,8.5-12.94,7.42-4.29-.94-8.87-15.17-10-19a3.17,3.17,0,0,1,0-1.88Z" transform="translate(-543 -236)"/><path class="cls-21" d="M650.71,353.32a13.14,13.14,0,0,1,4.46-1.21L651.81,355l-.45-.22a9.36,9.36,0,0,1-.72-1.45S650.68,353.33,650.71,353.32Z" transform="translate(-543 -236)"/><path class="cls-20" d="M671.14,357.44a25.32,25.32,0,0,1,6.25-5.29c2-1.31,4.23-2.31,5.43-1.48,2.59,1.8,2,5.1.84,8.41s-12.39,22.06-20.2,21.64c0,0-5.64-5.84-8.22-10.42-2.17-3.84-5.72-10.47-6.78-12.45a.83.83,0,0,1,.18-1c1.53-1.39,6.22-5.49,7.6-4.8,0,0,3.19,8,6.37,12l2.49,2.38a64.11,64.11,0,0,1,3.73-6C669.43,359.62,670.32,358.48,671.14,357.44Z" transform="translate(-543 -236)"/><path class="cls-21" d="M662.26,344.28a2,2,0,0,1-1.6-1.25s6.64-2.66,7.35-6.71c0,0,.06,4.28-1.7,6.52A10.34,10.34,0,0,1,662.26,344.28Z" transform="translate(-543 -236)"/><path class="cls-29" d="M662.65,417.06a.45.45,0,0,0,0,.11A.15.15,0,0,1,662.65,417.06Z" transform="translate(-543 -236)"/><path class="cls-5" d="M668.46,447a5,5,0,0,1-1.31-1.14s1.43-2.64,1.25-9.5c-.1-3.48-.17-5.49-.21-6.61a5.11,5.11,0,0,0-.69-2.41,61.59,61.59,0,0,1-4.6-9.61s0,0,0-.08c1.12,2,6.2,8.05,6.87,12.69S668.94,444.12,668.46,447Z" transform="translate(-543 -236)"/><path class="cls-29" d="M662.88,417.63s0,0,0-.06-.13-.33-.18-.51S662.75,417.16,662.88,417.63Z" transform="translate(-543 -236)"/><path class="cls-25" d="M649.35,356.2S659.49,378.1,664.1,379s17.06-15.24,17.06-15.24a.21.21,0,0,1,0,.06c-4,6.62-11.82,17.24-17.7,16.92,0,0-5.64-5.84-8.23-10.42-2.17-3.84-5.72-10.47-6.78-12.45a.83.83,0,0,1,.18-1Z" transform="translate(-543 -236)"/><path class="cls-25" d="M665.1,366.44a23.65,23.65,0,0,1,1.76,3.34L665.32,366Z" transform="translate(-543 -236)"/><path class="cls-28" d="M672.08,331.61a17.44,17.44,0,0,0,1.26-5.85,2,2,0,0,1-.8,1.41c-1.14.75-5.9,4-5.9,4a1.91,1.91,0,0,0,.22.92.91.91,0,0,1,.14.55l0,.35a.54.54,0,0,0,.37.52c.33.1.69,0,.7-.07a3.83,3.83,0,0,1,1.69-2.72C670.74,330.05,671.94,329.71,672.08,331.61Z" transform="translate(-543 -236)"/><path class="cls-1" d="M750.14,490.49l-.37.64,51.14,29.52.37-.63Z" transform="translate(-543 -236)"/><path class="cls-1" d="M822.63,508.12l-16.34-9.43a13.39,13.39,0,0,0-5.53-1.58l-17.54-1.37a14.14,14.14,0,0,1-5.83-1.67l-16.34-9.44.38-.64,16.34,9.44a13.19,13.19,0,0,0,5.52,1.57l17.54,1.38a14,14,0,0,1,5.83,1.67L823,507.48Z" transform="translate(-543 -236)"/><path class="cls-1" d="M779.21,533.18l-16.33-9.44a5.9,5.9,0,0,1-3-3.52l-2.38-10.13a5.17,5.17,0,0,0-2.64-3l-16.34-9.41.37-.64,16.34,9.44a5.88,5.88,0,0,1,3,3.52l2.38,10.13a5.2,5.2,0,0,0,2.64,3l16.34,9.43Z" transform="translate(-543 -236)"/><path class="cls-1" d="M790.07,526.91l-17.41-10a7.26,7.26,0,0,1-2.14-1.79l-7-9a6.54,6.54,0,0,0-1.93-1.61l-17.42-10.05.38-.64,17.41,10.05a7.43,7.43,0,0,1,2.15,1.79l7,9a6.5,6.5,0,0,0,1.94,1.62l17.41,10Z" transform="translate(-543 -236)"/><path class="cls-1" d="M811.77,514.39l-17.41-10.05a12,12,0,0,0-2.85-1.14l-15.62-4.05a12.14,12.14,0,0,1-3-1.21l-17.41-10.07.37-.64,17.42,10.07a11.86,11.86,0,0,0,2.85,1.14l15.62,4.05a11.7,11.7,0,0,1,3,1.21l17.41,10.05Z" transform="translate(-543 -236)"/><path class="cls-30" d="M595.69,399.19a1.81,1.81,0,1,0-1.81-1.81A1.81,1.81,0,0,0,595.69,399.19Z" transform="translate(-543 -236)"/><path class="cls-31" d="M548.53,358.52a1.31,1.31,0,0,1-.7-.18,2.26,2.26,0,0,1-.9-2V350a5.83,5.83,0,0,1,2.43-4.63l40-23.06a1.67,1.67,0,0,1,1.71-.13,2.3,2.3,0,0,1,.91,2.06v6.29a5.83,5.83,0,0,1-2.44,4.64l-40,23.06A2.26,2.26,0,0,1,548.53,358.52Zm41.82-36.2a1.86,1.86,0,0,0-.85.25l-40,23.06a5.43,5.43,0,0,0-2.25,4.33v6.29A1.9,1.9,0,0,0,548,358a1.38,1.38,0,0,0,1.37-.12l40-23.06a5.41,5.41,0,0,0,2.26-4.33v-6.29a1.91,1.91,0,0,0-.73-1.74A1.2,1.2,0,0,0,590.35,322.32Z" transform="translate(-543 -236)"/><path class="cls-32" d="M589.42,352.06l-7.49,4.33c-1.3.75-2.35,0-2.35-1.78v-6.29a5.66,5.66,0,0,1,2.35-4.5l7.49-4.32c1.29-.75,2.35,0,2.35,1.78v6.29A5.64,5.64,0,0,1,589.42,352.06Z" transform="translate(-543 -236)"/><path class="cls-31" d="M581,356.85a1.31,1.31,0,0,1-.7-.18,2.27,2.27,0,0,1-.9-2v-6.3a5.82,5.82,0,0,1,2.43-4.63l7.49-4.33a1.67,1.67,0,0,1,1.71-.12,2.28,2.28,0,0,1,.91,2.06v6.29a5.87,5.87,0,0,1-2.44,4.65L582,356.57A2.34,2.34,0,0,1,581,356.85Zm9.35-17.45a1.77,1.77,0,0,0-.85.25L582,344a5.41,5.41,0,0,0-2.25,4.33v6.29a1.92,1.92,0,0,0,.72,1.74,1.38,1.38,0,0,0,1.37-.13l7.48-4.33a5.41,5.41,0,0,0,2.26-4.34v-6.29a1.92,1.92,0,0,0-.73-1.74A1.19,1.19,0,0,0,590.35,339.4Z" transform="translate(-543 -236)"/><path class="cls-31" d="M581,373.91a1.31,1.31,0,0,1-.7-.18,2.26,2.26,0,0,1-.9-2V365.4a5.85,5.85,0,0,1,2.43-4.64l7.49-4.33a1.67,1.67,0,0,1,1.71-.12,2.28,2.28,0,0,1,.91,2.06v6.29a5.87,5.87,0,0,1-2.44,4.65L582,373.64A2.19,2.19,0,0,1,581,373.91Zm9.35-17.43a1.77,1.77,0,0,0-.85.25L582,361.06a5.39,5.39,0,0,0-2.25,4.32v6.29a1.9,1.9,0,0,0,.72,1.74,1.33,1.33,0,0,0,1.37-.12l7.48-4.33a5.4,5.4,0,0,0,2.26-4.34v-6.29a1.91,1.91,0,0,0-.73-1.74A1.19,1.19,0,0,0,590.35,356.48Z" transform="translate(-543 -236)"/><path class="cls-31" d="M548.51,393.18a1.5,1.5,0,0,1-.75-.2,1.93,1.93,0,0,1-.82-1.79V366.83a5.74,5.74,0,0,1,2.62-4.52l22.26-12.86a1.71,1.71,0,0,1,2.79,1.6V375.4a5.78,5.78,0,0,1-2.62,4.53l-7.29,4.22-.18-.31,7.29-4.22a5.41,5.41,0,0,0,2.44-4.22V351.05a1.61,1.61,0,0,0-.66-1.48,1.59,1.59,0,0,0-1.61.18l-22.27,12.86a5.43,5.43,0,0,0-2.44,4.22v24.36a1.37,1.37,0,0,0,2.27,1.29L562,385.3l.18.31-12.44,7.18A2.32,2.32,0,0,1,548.51,393.18Z" transform="translate(-543 -236)"/><path class="cls-31" d="M552.49,385.8a.78.78,0,0,1-.39-.1,1.19,1.19,0,0,1-.48-1.1v-7.89a3,3,0,0,1,1.25-2.39l.18-.1a.93.93,0,0,1,1-.05,1.18,1.18,0,0,1,.48,1.09v7.9a3,3,0,0,1-1.25,2.39l-.18.1A1.38,1.38,0,0,1,552.49,385.8Zm.73-11.29-.18.1A2.65,2.65,0,0,0,552,376.7v7.89a.85.85,0,0,0,.32.79.62.62,0,0,0,.58-.05l.19-.1a2.66,2.66,0,0,0,1.08-2.09v-7.89a.85.85,0,0,0-.32-.79A.57.57,0,0,0,553.22,374.51Z" transform="translate(-543 -236)"/><path class="cls-31" d="M557.64,382.82a.89.89,0,0,1-.39-.09,1.21,1.21,0,0,1-.48-1.1V376.2a3,3,0,0,1,1.25-2.4l.18-.09a.94.94,0,0,1,.95-.06,1.2,1.2,0,0,1,.48,1.1v5.43a3,3,0,0,1-1.25,2.39l-.18.1A1.21,1.21,0,0,1,557.64,382.82Zm1.1-8.93a.7.7,0,0,0-.37.11l-.18.1a2.6,2.6,0,0,0-1.09,2.08v5.43a.85.85,0,0,0,.32.79.61.61,0,0,0,.59,0l.18-.1a2.66,2.66,0,0,0,1.08-2.09v-5.42a.87.87,0,0,0-.32-.8A.36.36,0,0,0,558.74,373.89Z" transform="translate(-543 -236)"/><path class="cls-31" d="M562.79,379.85a.78.78,0,0,1-.39-.1,1.2,1.2,0,0,1-.48-1.1V366.12a3,3,0,0,1,1.25-2.39l.18-.1a.91.91,0,0,1,.95-.06,1.21,1.21,0,0,1,.48,1.1V377.2a3,3,0,0,1-1.25,2.39l-.18.1A1.26,1.26,0,0,1,562.79,379.85Zm1.1-16a.81.81,0,0,0-.37.11l-.19.1a2.66,2.66,0,0,0-1.08,2.09v12.52a.87.87,0,0,0,.32.8.6.6,0,0,0,.58-.06l.18-.1a2.6,2.6,0,0,0,1.09-2.08V364.66a.85.85,0,0,0-.32-.79A.31.31,0,0,0,563.89,363.81Z" transform="translate(-543 -236)"/><path class="cls-31" d="M567.94,376.88a.78.78,0,0,1-.39-.1,1.19,1.19,0,0,1-.49-1.1V360.17a3,3,0,0,1,1.26-2.4l.18-.1a.91.91,0,0,1,.94-.05,1.21,1.21,0,0,1,.49,1.1v15.52a3,3,0,0,1-1.25,2.39l-.18.1A1.38,1.38,0,0,1,567.94,376.88Zm1.11-19a.77.77,0,0,0-.37.12l-.18.09a2.62,2.62,0,0,0-1.09,2.09v15.52a.85.85,0,0,0,.32.79.64.64,0,0,0,.59,0l.18-.1a2.61,2.61,0,0,0,1.08-2.09V358.7a.85.85,0,0,0-.32-.79A.42.42,0,0,0,569.05,357.85Z" transform="translate(-543 -236)"/><path class="cls-31" d="M545.21,400.58a2.06,2.06,0,0,1-1-.26,2.76,2.76,0,0,1-1.17-2.54V347.72a8.31,8.31,0,0,1,3.76-6.51l45.18-26.07a2.41,2.41,0,0,1,3.93,2.28v50.07a8.33,8.33,0,0,1-3.75,6.51L564.7,389.84l-.18-.31,27.42-15.84a7.92,7.92,0,0,0,3.57-6.2V317.42a2.07,2.07,0,0,0-3.41-2l-45.16,26.08a7.92,7.92,0,0,0-3.58,6.21v50.06a2.43,2.43,0,0,0,1,2.23,2.4,2.4,0,0,0,2.42-.27L562,391l.18.31L547,400.08A3.8,3.8,0,0,1,545.21,400.58Z" transform="translate(-543 -236)"/><path class="cls-1" d="M545.21,425.58a2,2,0,0,1-1-.27,2.74,2.74,0,0,1-1.16-2.53v-7.56a8.34,8.34,0,0,1,3.76-6.51l30.3-17.48.18.31L547,409a8,8,0,0,0-3.58,6.21v7.55a2.41,2.41,0,0,0,1,2.23,2.44,2.44,0,0,0,2.42-.25L592,398.69a7.94,7.94,0,0,0,3.57-6.21v-7.56a2.4,2.4,0,0,0-1-2.22,2.46,2.46,0,0,0-2.43.25l-12.2,7-.18-.31,12.2-7a2.42,2.42,0,0,1,3.94,2.28v7.56a8.28,8.28,0,0,1-3.76,6.51L547,425.08A3.71,3.71,0,0,1,545.21,425.58Z" transform="translate(-543 -236)"/><path class="cls-32" d="M553.94,412.79a5.89,5.89,0,0,1-2.68,4.63c-1.47.85-2.67.17-2.67-1.54a5.93,5.93,0,0,1,2.67-4.64C552.74,410.39,553.94,411.09,553.94,412.79Z" transform="translate(-543 -236)"/><path class="cls-32" d="M572.12,402.31a5.89,5.89,0,0,1-2.68,4.63c-1.47.85-2.67.17-2.67-1.54a5.91,5.91,0,0,1,2.67-4.64C570.92,399.9,572.12,400.6,572.12,402.31Z" transform="translate(-543 -236)"/><path class="cls-32" d="M590.29,391.81a5.91,5.91,0,0,1-2.67,4.64c-1.48.85-2.67.17-2.67-1.55a5.88,5.88,0,0,1,2.67-4.63C589.09,389.41,590.29,390.1,590.29,391.81Z" transform="translate(-543 -236)"/><path class="cls-1" d="M550.07,418a1.45,1.45,0,0,1-.78-.21,2,2,0,0,1-.88-1.89,6.1,6.1,0,0,1,2.77-4.79,2,2,0,0,1,2.08-.18,2.06,2.06,0,0,1,.87,1.89,6.1,6.1,0,0,1-2.77,4.79A2.76,2.76,0,0,1,550.07,418Zm2.39-6.92a2.13,2.13,0,0,0-1.1.35,5.72,5.72,0,0,0-2.59,4.48,1.46,1.46,0,0,0,2.41,1.39,5.7,5.7,0,0,0,2.59-4.48,1.69,1.69,0,0,0-.7-1.57A1,1,0,0,0,552.46,411.06Z" transform="translate(-543 -236)"/><path class="cls-1" d="M559.16,412.73a1.42,1.42,0,0,1-.78-.21,2.06,2.06,0,0,1-.88-1.89,6.13,6.13,0,0,1,2.77-4.79,1.81,1.81,0,0,1,3,1.71,6.11,6.11,0,0,1-2.77,4.79A2.54,2.54,0,0,1,559.16,412.73Zm2.39-6.91a2.21,2.21,0,0,0-1.1.34,5.72,5.72,0,0,0-2.59,4.48,1.72,1.72,0,0,0,.7,1.59,1.7,1.7,0,0,0,1.71-.18,5.72,5.72,0,0,0,2.59-4.48,1.74,1.74,0,0,0-.7-1.59A1.16,1.16,0,0,0,561.55,405.82Z" transform="translate(-543 -236)"/><path class="cls-1" d="M568.25,407.49a1.42,1.42,0,0,1-.78-.21,2.06,2.06,0,0,1-.88-1.9,6.08,6.08,0,0,1,2.77-4.78,2,2,0,0,1,2.07-.19,2.07,2.07,0,0,1,.88,1.9,6.11,6.11,0,0,1-2.77,4.79A2.71,2.71,0,0,1,568.25,407.49Zm2.39-6.92a2.11,2.11,0,0,0-1.1.35A5.72,5.72,0,0,0,567,405.4a1.46,1.46,0,0,0,2.41,1.39,5.72,5.72,0,0,0,2.59-4.48,1.68,1.68,0,0,0-.7-1.57A1.08,1.08,0,0,0,570.64,400.57Z" transform="translate(-543 -236)"/><path class="cls-1" d="M577.33,402.24a1.47,1.47,0,0,1-.78-.21,2.08,2.08,0,0,1-.87-1.89,6.11,6.11,0,0,1,2.77-4.79,2,2,0,0,1,2.07-.18,2,2,0,0,1,.88,1.89,6.11,6.11,0,0,1-2.77,4.79A2.71,2.71,0,0,1,577.33,402.24Zm2.38-6.92a2.13,2.13,0,0,0-1.1.35,5.72,5.72,0,0,0-2.59,4.48,1.76,1.76,0,0,0,.7,1.59,1.72,1.72,0,0,0,1.71-.18,5.7,5.7,0,0,0,2.59-4.49,1.73,1.73,0,0,0-.69-1.58A1.18,1.18,0,0,0,579.71,395.32Z" transform="translate(-543 -236)"/><path class="cls-1" d="M586.41,397a1.45,1.45,0,0,1-.78-.21,2,2,0,0,1-.88-1.89,6.1,6.1,0,0,1,2.77-4.79,1.81,1.81,0,0,1,3,1.71,6.1,6.1,0,0,1-2.77,4.79A2.54,2.54,0,0,1,586.41,397Zm2.39-6.92a2.13,2.13,0,0,0-1.1.35,5.72,5.72,0,0,0-2.59,4.48,1.46,1.46,0,0,0,2.41,1.39,5.68,5.68,0,0,0,2.59-4.48,1.69,1.69,0,0,0-.7-1.57A1.17,1.17,0,0,0,588.8,390.07Z" transform="translate(-543 -236)"/><path class="cls-1" d="M578.7,395.52h-.35v-5.81a1.66,1.66,0,0,0-.67-1.53,1.68,1.68,0,0,0-1.66.18l-10,5.76a1.76,1.76,0,0,1-2.87-1.65v-13h.35v13a1.66,1.66,0,0,0,.66,1.53,1.68,1.68,0,0,0,1.66-.18l10-5.76a2,2,0,0,1,2-.18,2,2,0,0,1,.85,1.83Z" transform="translate(-543 -236)"/><path class="cls-33" d="M715.06,259l-.35.43a.36.36,0,0,1-.18.17.2.2,0,0,1-.2,0c-.09-.08-.14-.28-.14-.63v-2.57a3.22,3.22,0,0,1,.14-1,2.24,2.24,0,0,1,.38-.76l.35-.43a.48.48,0,0,1,.18-.17.23.23,0,0,1,.2,0c.1.08.14.3.14.64v2.63a3.24,3.24,0,0,1-.14,1A1.9,1.9,0,0,1,715.06,259Zm-.32-.08.29-.35a1,1,0,0,0,.21-.41,1.91,1.91,0,0,0,.08-.59v-2.53c0-.42-.09-.51-.29-.28l-.29.35a.93.93,0,0,0-.21.41,1.83,1.83,0,0,0-.08.59v2.51C714.45,259.09,714.54,259.19,714.74,259Z" transform="translate(-543 -236)"/><path class="cls-33" d="M713.15,307.75l-.7.43a.75.75,0,0,1-.36.17.9.9,0,0,1-.4,0c-.2-.09-.29-.29-.29-.64v-2.57a1.74,1.74,0,0,1,.29-1,2.18,2.18,0,0,1,.76-.75l.7-.44a.92.92,0,0,1,.36-.17,1,1,0,0,1,.39,0c.2.08.29.3.29.64v2.63a1.79,1.79,0,0,1-.29,1A2.1,2.1,0,0,1,713.15,307.75Zm-.64-.08.57-.35a1.06,1.06,0,0,0,.43-.41,1.11,1.11,0,0,0,.16-.59v-2.53c0-.42-.19-.51-.59-.28l-.57.35a1,1,0,0,0-.43.41,1.11,1.11,0,0,0-.16.59v2.51C711.92,307.81,712.11,307.9,712.51,307.67Z" transform="translate(-543 -236)"/><path class="cls-34" d="M714.19,310.49v-.34a.45.45,0,0,1,.07-.24l.78-1.12.17-.22.28-.2h.09v5.17a.2.2,0,0,1,0,.11.24.24,0,0,1-.06.08l-.31.21h-.08v-4.6l-.79,1.15Q714.19,310.63,714.19,310.49Z" transform="translate(-543 -236)"/><path class="cls-34" d="M710,259v-.33a.53.53,0,0,1,.08-.25l.77-1.12a.67.67,0,0,1,.17-.2l.28-.2h.09V262a.36.36,0,0,1,0,.11.19.19,0,0,1-.07.08l-.3.21h-.09v-4.61l-.79,1.15C710.05,259.08,710,259.09,710,259Z" transform="translate(-543 -236)"/><path class="cls-34" d="M713.16,298l-.71.43a.85.85,0,0,1-.36.17.78.78,0,0,1-.4,0c-.18-.08-.29-.28-.29-.63V295.4a1.93,1.93,0,0,1,.29-1,2.13,2.13,0,0,1,.76-.76l.71-.41a.92.92,0,0,1,.35-.19.85.85,0,0,1,.39,0c.2.08.29.3.29.64v2.56a1.79,1.79,0,0,1-.29,1A2.18,2.18,0,0,1,713.16,298Zm-.65-.08.58-.35a1.19,1.19,0,0,0,.6-1v-2.53c0-.42-.21-.51-.6-.28l-.58.35a1,1,0,0,0-.43.41,1.09,1.09,0,0,0-.16.59v2.52C711.92,298.06,712.11,298.16,712.51,297.93Z" transform="translate(-543 -236)"/><path class="cls-34" d="M726.54,292.44l-1,.43a1.42,1.42,0,0,1-.55.17,2,2,0,0,1-.59,0,.58.58,0,0,1-.43-.64v-2.57a1.39,1.39,0,0,1,.43-1,3,3,0,0,1,1.14-.75l1-.42a1.56,1.56,0,0,1,.54-.18,2,2,0,0,1,.6,0,.6.6,0,0,1,.43.64v2.57a1.5,1.5,0,0,1-.43,1A3.09,3.09,0,0,1,726.54,292.44Zm-.95-.08.85-.35a1.52,1.52,0,0,0,.66-.41.86.86,0,0,0,.23-.59V288.5c0-.44-.29-.53-.89-.3l-.85.35a1.48,1.48,0,0,0-.65.41.88.88,0,0,0-.24.59v2.53C724.7,292.5,725,292.59,725.59,292.36Z" transform="translate(-543 -236)"/><path class="cls-34" d="M715.06,287l-.35.32a.32.32,0,0,1-.18.13.34.34,0,0,1-.2,0c-.09-.07-.14-.22-.14-.48v-1.92a1.94,1.94,0,0,1,.14-.73,1.58,1.58,0,0,1,.38-.56l.35-.32a.44.44,0,0,1,.18-.13.28.28,0,0,1,.2,0c.09.06.14.22.14.48v1.92a1.94,1.94,0,0,1-.14.73A1.46,1.46,0,0,1,715.06,287Zm-.32-.06.29-.26a.82.82,0,0,0,.22-.31,1.07,1.07,0,0,0,.07-.44v-1.89c0-.32-.09-.39-.29-.22l-.29.26a.71.71,0,0,0-.21.31,1,1,0,0,0-.08.44v1.9c0,.31.11.38.31.21Z" transform="translate(-543 -236)"/><path class="cls-34" d="M713.15,337l-.7.43a.85.85,0,0,1-.36.17.78.78,0,0,1-.4,0c-.19-.08-.29-.28-.29-.63v-2.56a1.78,1.78,0,0,1,.29-1,2.13,2.13,0,0,1,.76-.76l.7-.41a.78.78,0,0,1,.36-.19.86.86,0,0,1,.39,0c.19.08.29.3.29.63v2.57a2,2,0,0,1-.29,1A2.31,2.31,0,0,1,713.15,337Zm-.64-.08.57-.35a1.15,1.15,0,0,0,.44-.41,1.13,1.13,0,0,0,.15-.59V333c0-.43-.19-.52-.59-.29l-.57.35a1,1,0,0,0-.43.41,1.09,1.09,0,0,0-.16.59v2.52c0,.42.22.52.62.29Z" transform="translate(-543 -236)"/><path class="cls-34" d="M717.33,266.15l-.71.32a1.11,1.11,0,0,1-.36.13,1,1,0,0,1-.39,0c-.2-.06-.29-.22-.29-.48V264.2a1.09,1.09,0,0,1,.29-.73,1.88,1.88,0,0,1,.75-.56l.71-.32a.92.92,0,0,1,.36-.13,1.08,1.08,0,0,1,.4,0,.43.43,0,0,1,.28.47v1.92a1.17,1.17,0,0,1-.28.73A2.09,2.09,0,0,1,717.33,266.15Zm-.65-.07.58-.26a.9.9,0,0,0,.44-.31.66.66,0,0,0,.16-.44v-1.89q0-.48-.6-.21l-.58.27a.91.91,0,0,0-.43.3.76.76,0,0,0-.15.45v1.88C716.1,266.19,716.29,266.26,716.68,266.08Z" transform="translate(-543 -236)"/><path class="cls-34" d="M701.14,305.12l-.35.33a.55.55,0,0,1-.18.13.34.34,0,0,1-.2,0c-.09-.06-.14-.22-.14-.48v-1.91a2,2,0,0,1,.14-.74,1.43,1.43,0,0,1,.38-.56l.35-.32a.38.38,0,0,1,.19-.13.28.28,0,0,1,.2,0c.09.06.13.22.13.47v1.94a2.15,2.15,0,0,1-.13.73A1.48,1.48,0,0,1,701.14,305.12Zm-.32-.06.29-.27a.75.75,0,0,0,.22-.31,1.23,1.23,0,0,0,.08-.44v-1.88c0-.32-.1-.39-.3-.22l-.27.22a.71.71,0,0,0-.21.31,1.08,1.08,0,0,0-.08.44v1.89c0,.41.08.41.29.26Z" transform="translate(-543 -236)"/><path class="cls-35" d="M699.24,283.94l-.72.54a.88.88,0,0,1-.36.21.74.74,0,0,1-.39,0c-.19-.1-.28-.35-.28-.79v-3.21a2.45,2.45,0,0,1,.28-1.21,2.63,2.63,0,0,1,.75-.94l.72-.52a.77.77,0,0,1,.36-.23.61.61,0,0,1,.4,0c.18.1.27.37.27.79v3.19A2.72,2.72,0,0,1,700,283,2.82,2.82,0,0,1,699.24,283.94Zm-.65-.1.58-.44a1.23,1.23,0,0,0,.44-.51,1.77,1.77,0,0,0,.16-.73V279q0-.81-.6-.36l-.58.42a1.23,1.23,0,0,0-.43.52,1.62,1.62,0,0,0-.15.73v3.14C698,284,698.2,284.13,698.59,283.84Z" transform="translate(-543 -236)"/><path class="cls-34" d="M704.45,292.38V292a.48.48,0,0,1,.07-.24l.78-1.12a.85.85,0,0,1,.17-.2l.28-.2h.09v5.15a.2.2,0,0,1,0,.11.19.19,0,0,1-.07.08l-.3.23h-.09v-4.6l-.8,1.15C704.48,292.47,704.45,292.49,704.45,292.38Z" transform="translate(-543 -236)"/><path class="cls-34" d="M747.59,306.3V306a.61.61,0,0,1,.07-.24l.79-1.12a.55.55,0,0,1,.17-.2l.28-.2H749v5.15a.14.14,0,0,1,0,.11.11.11,0,0,1-.06.07l-.31.23h-.08v-4.6l-.81,1.15C747.63,306.39,747.59,306.41,747.59,306.3Z" transform="translate(-543 -236)"/><path class="cls-34" d="M725.32,304.91v-.34a.37.37,0,0,1,.15-.25L727,303.2a2.18,2.18,0,0,1,.34-.2l.56-.19h.17V308a.11.11,0,0,1,0,.11.26.26,0,0,1-.14.07l-.61.23h-.17v-4.6l-1.61,1.15C725.4,305,725.32,305,725.32,304.91Z" transform="translate(-543 -236)"/><path class="cls-35" d="M720.1,302.34l-.69.32a1.08,1.08,0,0,1-.37.13,1.27,1.27,0,0,1-.39,0,.45.45,0,0,1-.29-.48v-1.93a1.25,1.25,0,0,1,.29-.73,2,2,0,0,1,.76-.56l.69-.32a1.47,1.47,0,0,1,.37-.13,1.28,1.28,0,0,1,.39,0c.2.06.29.21.29.47V301a1.09,1.09,0,0,1-.29.73A1.91,1.91,0,0,1,720.1,302.34Zm-.63-.07.58-.26a1,1,0,0,0,.43-.31.73.73,0,0,0,.15-.44v-1.89c0-.32-.19-.39-.58-.21l-.58.26a1,1,0,0,0-.43.3.68.68,0,0,0-.16.44v1.9C718.88,302.38,719.07,302.45,719.47,302.27Z" transform="translate(-543 -236)"/><path class="cls-35" d="M739.59,301l-.7.31a1,1,0,0,1-.36.14,1.34,1.34,0,0,1-.4,0,.45.45,0,0,1-.28-.48V299a1.15,1.15,0,0,1,.28-.73,2.11,2.11,0,0,1,.76-.57l.7-.31a1.11,1.11,0,0,1,.36-.13,1.08,1.08,0,0,1,.4,0,.42.42,0,0,1,.28.46v1.93a1.08,1.08,0,0,1-.28.73A2,2,0,0,1,739.59,301Zm-.63-.07.58-.26a1,1,0,0,0,.42-.31.7.7,0,0,0,.16-.44V298c0-.33-.2-.4-.58-.21L739,298a1.08,1.08,0,0,0-.44.3.72.72,0,0,0-.16.44v1.9Q738.36,301.15,739,300.88Z" transform="translate(-543 -236)"/><path class="cls-35" d="M721.15,259v-.31a.37.37,0,0,1,.17-.25l1.52-1.12a1.31,1.31,0,0,1,.37-.2l.55-.21h.17V262a.15.15,0,0,1,0,.11.32.32,0,0,1-.13.08l-.6.21H723v-4.61L721.39,259C721.24,259.06,721.15,259.06,721.15,259Z" transform="translate(-543 -236)"/><path class="cls-35" d="M703.4,310.53l-.69.44a1,1,0,0,1-.37.17.86.86,0,0,1-.39,0c-.2-.08-.29-.28-.29-.64v-2.56a1.7,1.7,0,0,1,.29-1,2.05,2.05,0,0,1,.76-.76l.69-.42a.87.87,0,0,1,.36-.18.77.77,0,0,1,.4,0c.18.08.29.29.29.63v2.57a2,2,0,0,1-.29,1A2.07,2.07,0,0,1,703.4,310.53Zm-.64-.08.58-.35a1,1,0,0,0,.43-.41,1.09,1.09,0,0,0,.16-.59v-2.52c0-.42-.19-.52-.59-.29l-.58.35a1.09,1.09,0,0,0-.43.42,1.17,1.17,0,0,0-.15.58v2.52C702.18,310.59,702.37,310.68,702.76,310.45Z" transform="translate(-543 -236)"/><path class="cls-35" d="M747.94,289.66l-.7.43a1,1,0,0,1-.36.17.78.78,0,0,1-.4,0c-.19-.08-.28-.28-.28-.63v-2.57a1.79,1.79,0,0,1,.28-1,2.13,2.13,0,0,1,.76-.76l.7-.41a.84.84,0,0,1,.36-.19.9.9,0,0,1,.4,0c.18.08.28.3.28.63v2.57a1.83,1.83,0,0,1-.28,1A2.18,2.18,0,0,1,747.94,289.66Zm-.65-.08.59-.35a1.13,1.13,0,0,0,.43-.41,1.24,1.24,0,0,0,.16-.59V285.7c0-.42-.2-.51-.59-.28l-.59.35a1,1,0,0,0-.42.41,1.21,1.21,0,0,0-.16.59v2.51C746.71,289.71,746.91,289.81,747.29,289.58Z" transform="translate(-543 -236)"/><path class="cls-35" d="M727.06,277.13l-.69.43a.74.74,0,0,1-.37.17.86.86,0,0,1-.39,0c-.2-.08-.29-.29-.29-.64v-2.57a1.74,1.74,0,0,1,.29-1,2,2,0,0,1,.76-.75l.69-.42a.87.87,0,0,1,.36-.18.9.9,0,0,1,.4,0c.18.08.29.3.29.64v2.57a2,2,0,0,1-.29,1A2.15,2.15,0,0,1,727.06,277.13Zm-.64-.08.58-.35a1,1,0,0,0,.43-.41,1.11,1.11,0,0,0,.16-.59v-2.53c0-.42-.19-.51-.59-.28l-.58.35a1.13,1.13,0,0,0-.43.41,1.2,1.2,0,0,0-.15.59v2.51C725.84,277.19,726,277.28,726.42,277.05Z" transform="translate(-543 -236)"/><path class="cls-35" d="M724.8,325.69l-.35.54a.43.43,0,0,1-.18.21.18.18,0,0,1-.2,0,1.35,1.35,0,0,1-.14-.79v-3.21a4.94,4.94,0,0,1,.14-1.2,3.17,3.17,0,0,1,.38-1l.35-.52a.49.49,0,0,1,.18-.23.2.2,0,0,1,.2,0,1.4,1.4,0,0,1,.14.79v3.21a5.11,5.11,0,0,1-.14,1.22A2.61,2.61,0,0,1,724.8,325.69Zm-.32-.1.29-.44a1.44,1.44,0,0,0,.22-.51,3.43,3.43,0,0,0,.08-.74v-3.16c0-.52-.1-.64-.3-.35l-.29.43a1.59,1.59,0,0,0-.22.52,3.41,3.41,0,0,0-.07.73v3.15C724.19,325.76,724.29,325.87,724.48,325.59Z" transform="translate(-543 -236)"/></svg>