<svg id="Слой_1" data-name="Слой 1" xmlns="http://www.w3.org/2000/svg" viewBox="0 0 145 28.99"><defs><style>.cls-1,.cls-2,.cls-3,.cls-4{fill:#426ab3;isolation:isolate;}.cls-1{opacity:0.5;}.cls-2{opacity:0.3;}.cls-3{opacity:0.2;}.cls-4{opacity:0.1;}.cls-5{fill:#f0f1f1;}</style></defs><title>historu-page-bg-tab</title><path class="cls-1" d="M40.28,104l-.15-.11a34.43,34.43,0,0,1,13.43-4.61,31.73,31.73,0,0,1,12.35,1.13c8,2.25,15.31,7,23.09,12,10.19,6.55,20.73,13.32,32.82,14.16,10.71.75,10.18-4,9.51-10-.5-4.47-1.06-9.54,3.06-13.29,4.76-4.32,15-6.06,31.16-5.3l0,.14c-16.15-.76-26.3,1-31,5.26-4.1,3.72-3.53,8.77-3,13.22.33,2.93.64,5.69-.5,7.57-1.26,2.09-4.17,2.9-9.16,2.55-12.17-.85-22.74-7.64-33-14.21-7.76-5-15.09-9.7-23-11.94C57,98,48.81,99.14,40.28,104Z" transform="translate(-29 -97.8)"/><path class="cls-2" d="M39.15,104.08,39,104c17.11-8.92,31.14-.91,46,7.57,11.11,6.34,22.6,12.9,36.28,13,11,.09,11-4.31,10.94-9.41,0-3.68,0-7.85,4.25-10.87,4.9-3.46,14.68-4.85,29.9-4.25l0,.11c-15.17-.59-24.92.8-29.8,4.24-4.24,3-4.23,7.14-4.21,10.81,0,5.14,0,9.58-11.07,9.49-13.74-.1-25.27-6.68-36.42-13C70.14,103.19,56.17,95.21,39.15,104.08Z" transform="translate(-29 -97.8)"/><path class="cls-3" d="M38,104.14l-.11-.1a31.83,31.83,0,0,1,21.84-2c7,1.69,13.8,5.13,21,8.78,12.09,6.13,24.58,12.46,40,11.7,11.19-.56,11.79-4.48,12.43-8.62.92-6,2-12.82,34-11.85l.05.11c-31.95-1-33,5.8-33.91,11.78-.65,4.18-1.25,8.12-12.53,8.68a56.45,56.45,0,0,1-21.44-3.31,148.5,148.5,0,0,1-18.72-8.41C66.62,103.78,53.34,97.05,38,104.14Z" transform="translate(-29 -97.8)"/><path class="cls-4" d="M36.89,104.19l-.09-.09a32.1,32.1,0,0,1,19.77-1.23c6.45,1.46,12.85,4.35,19.63,7.41,12.48,5.64,26.62,12,44.07,10.22,11.33-1.17,12.61-4.32,14-7.64,1.86-4.61,3.78-9.37,33.86-8.76l0,.1c-30-.61-31.91,4.12-33.76,8.71-1.35,3.34-2.63,6.51-14,7.68a62.53,62.53,0,0,1-23.88-2.28,147.74,147.74,0,0,1-20.3-8C62.4,104.15,50.52,98.78,36.89,104.19Z" transform="translate(-29 -97.8)"/><path class="cls-5" d="M35.76,104.24l-.07-.08a32.73,32.73,0,0,1,17.62-.49c5.85,1.28,11.77,3.67,18,6.21,13.47,5.45,28.73,11.62,48.41,8.59,11.32-1.74,13.5-4.26,15.43-6.48,2.84-3.28,5.29-6.11,33.74-5.84l0,.08c-28.4-.26-30.85,2.55-33.67,5.82-1.94,2.23-4.13,4.76-15.48,6.5-19.73,3-35-3.15-48.5-8.6C58.64,104.82,47.7,100.4,35.76,104.24Z" transform="translate(-29 -97.8)"/><path class="cls-5" d="M34.63,104.29l-.06-.07c10.29-2.44,20.14,1.18,31.56,5.37,14.47,5.31,30.88,11.34,53.11,6.85,10.5-2.11,13.86-3.82,16.31-5.06,4.06-2.06,6.1-3.1,34.22-3.19l0,.07c-28.09.09-30.12,1.13-34.17,3.18-2.46,1.25-5.82,3-16.33,5.07a76.43,76.43,0,0,1-29.57.23c-8.72-1.62-16.3-4.4-23.63-7.09C54.71,105.47,44.88,101.86,34.63,104.29Z" transform="translate(-29 -97.8)"/><path class="cls-5" d="M33.5,104.34l0-.06c8.56-1.19,17.12,1.72,27,5.09,14.74,5,33.09,11.26,58.24,5l7.19-1.8c11-2.76,11-2.76,18.36-2.52,4.45.15,11.9.39,26.33.13l0,.06c-14.44.26-21.89,0-26.34-.13-7.38-.24-7.38-.24-18.33,2.52l-7.19,1.79a84,84,0,0,1-32.93,1.74c-9.54-1.4-18-4.26-25.37-6.78C50.58,106.06,42,103.15,33.5,104.34Z" transform="translate(-29 -97.8)"/><path class="cls-5" d="M32.37,104.39l0,0c6.81-.18,13.85,2.13,22,4.79,15.72,5.15,35.27,11.55,63.87,3.25,7.25-2.1,12-3.13,15.52-3.34a24.36,24.36,0,0,1,8.27,1c4.85,1.2,11.49,2.84,29.45,2.22l0,0c-18,.63-24.62-1-29.47-2.21a24.52,24.52,0,0,0-8.25-1c-3.48.21-8.26,1.24-15.5,3.35-28.62,8.3-48.19,1.89-63.92-3.25C46.2,106.52,39.17,104.22,32.37,104.39Z" transform="translate(-29 -97.8)"/><path class="cls-5" d="M31.24,104.44v0c5,.54,10.27,2.3,16.38,4.34C63.37,114,85,121.22,117.71,110.36c15.06-5,19.42-3.08,25.45-.44,5.4,2.37,12.13,5.32,29.14,4.4l0,0c-17,.92-23.77-2-29.18-4.41-6-2.63-10.35-4.54-25.4.45-14.55,4.82-28,6.55-41.28,5.29-11.42-1.09-20.68-4.18-28.85-6.91C41.51,106.74,36.24,105,31.24,104.44Z" transform="translate(-29 -97.8)"/><path class="cls-5" d="M83.38,115.89c9.73-.56,20.88-2.76,33.82-7.56,7-2.6,12.43-3.5,17-2.82,4.15.61,7.27,2.47,10.58,4.43,6,3.57,12.86,7.62,28.35,6.42v0A48.63,48.63,0,0,1,155.4,115a45.1,45.1,0,0,1-10.62-5c-3.3-2-6.42-3.8-10.56-4.42-4.58-.67-10,.22-17,2.83a139.34,139.34,0,0,1-13.56,4.27,111,111,0,0,1-12.24,2.46C88.73,115.47,86,115.74,83.38,115.89Z" transform="translate(-29 -97.8)"/><path class="cls-5" d="M42.08,110.44C38.33,109,35,107.39,32,106l-3-1.42h0L32,106C35.05,107.39,38.37,109,42.08,110.44ZM100,112.1a158.45,158.45,0,0,0,16.68-5.79,48.19,48.19,0,0,1,5.49-1.91,33.7,33.7,0,0,1,4.78-1,21.8,21.8,0,0,1,7.82.35c4.59,1.09,8.15,3.65,11.91,6.36,3.48,2.51,7.22,5.2,12.19,6.87A34.86,34.86,0,0,0,174,118.4h0a43.39,43.39,0,0,1-4.87.26,37.8,37.8,0,0,1-4.32-.27,30.11,30.11,0,0,1-7.22-1.82,47.91,47.91,0,0,1-10.91-6.42c-3.26-2.35-6.36-4.58-10.11-5.84-.58-.2-1.18-.37-1.79-.52-5.15-1.22-10.89-.42-18.08,2.52a156.21,156.21,0,0,1-16,5.57Z" transform="translate(-29 -97.8)"/></svg>