<svg id="Слой_1" data-name="Слой 1" xmlns="http://www.w3.org/2000/svg" xmlns:xlink="http://www.w3.org/1999/xlink" viewBox="0 0 326.2 278.91"><defs><style>.cls-1{fill:none;}.cls-2{fill:url(#Безымянный_градиент_8);}.cls-3,.cls-31,.cls-32,.cls-33{fill:#f0f1f1;}.cls-15,.cls-4{fill:#07306d;}.cls-4,.cls-7{opacity:0.1;}.cls-27,.cls-28,.cls-29,.cls-31,.cls-32,.cls-33,.cls-4,.cls-6,.cls-7,.cls-8{isolation:isolate;}.cls-5,.cls-6{opacity:0.2;}.cls-6,.cls-7,.cls-8,.cls-9{fill:#fff;}.cls-27,.cls-31,.cls-8{opacity:0.4;}.cls-10{fill:#bcb5ab;}.cls-11{fill:#093d89;}.cls-12{fill:#d1d9e4;}.cls-13{fill:url(#Безымянный_градиент_8-2);}.cls-14{fill:url(#Безымянный_градиент_8-3);}.cls-16{fill:url(#Безымянный_градиент_4);}.cls-17{fill:#fcd1c5;}.cls-18{fill:#e2b1a6;}.cls-19{fill:url(#Безымянный_градиент_8-4);}.cls-20{fill:url(#Безымянный_градиент_8-5);}.cls-21{fill:url(#Безымянный_градиент_8-6);}.cls-22{fill:#aa8383;}.cls-23{fill:#936d6d;}.cls-24{fill:#f0f6ff;}.cls-25{fill:url(#Безымянный_градиент_8-7);}.cls-26{fill:#426ab3;}.cls-27,.cls-28,.cls-29,.cls-30{fill:#58a0fa;}.cls-28,.cls-32{opacity:0.6;}.cls-29,.cls-33{opacity:0.8;}.cls-34{fill:#aba8a5;}.cls-35{fill:url(#Безымянный_градиент_9);}.cls-36{fill:url(#Безымянный_градиент_10);}</style><linearGradient id="Безымянный_градиент_8" x1="569.62" y1="1011.33" x2="831.1" y2="765.29" gradientTransform="translate(0 -486)" gradientUnits="userSpaceOnUse"><stop offset="0" stop-color="#4b79ce"/><stop offset="0.41" stop-color="#426ab3"/><stop offset="1" stop-color="#2b4a81"/></linearGradient><linearGradient id="Безымянный_градиент_8-2" x1="638.03" y1="862.72" x2="866.91" y2="776.75" xlink:href="#Безымянный_градиент_8"/><linearGradient id="Безымянный_градиент_8-3" x1="768.03" y1="825.23" x2="787.47" y2="803.37" xlink:href="#Безымянный_градиент_8"/><linearGradient id="Безымянный_градиент_4" x1="633.78" y1="808.35" x2="908.66" y2="895.15" gradientTransform="translate(0 -486)" gradientUnits="userSpaceOnUse"><stop offset="0" stop-color="#f47920"/><stop offset="0.9" stop-color="#f7bb62" stop-opacity="0.7"/></linearGradient><linearGradient id="Безымянный_градиент_8-4" x1="661.09" y1="873.67" x2="684.48" y2="841.19" xlink:href="#Безымянный_градиент_8"/><linearGradient id="Безымянный_градиент_8-5" x1="666.8" y1="892.16" x2="724.6" y2="878.44" xlink:href="#Безымянный_градиент_8"/><linearGradient id="Безымянный_градиент_8-6" x1="663.52" y1="902.72" x2="703.33" y2="893.18" xlink:href="#Безымянный_градиент_8"/><linearGradient id="Безымянный_градиент_8-7" x1="564.11" y1="841.88" x2="629.15" y2="823.42" xlink:href="#Безымянный_градиент_8"/><radialGradient id="Безымянный_градиент_9" cx="-834.59" cy="69.45" r="1" gradientTransform="matrix(-33.92, -1.63, 1.49, -31, -27658.94, 1203.47)" gradientUnits="userSpaceOnUse"><stop offset="0" stop-color="#46d7ff"/><stop offset="0.08" stop-color="#2089a9"/><stop offset="0.16" stop-color="#044c63" stop-opacity="0.4"/><stop offset="1" stop-opacity="0"/></radialGradient><radialGradient id="Безымянный_градиент_10" cx="-834.77" cy="70.8" r="0.63" gradientTransform="matrix(-33.92, -1.63, 1.49, -31, -27658.94, 1203.47)" gradientUnits="userSpaceOnUse"><stop offset="0" stop-color="#46d7ff"/><stop offset="0.08" stop-color="#2089a9"/><stop offset="0.16" stop-color="#044c63" stop-opacity="0.4"/><stop offset="1" stop-color="#3c4759" stop-opacity="0"/></radialGradient></defs><title>history-2</title><path class="cls-1" d="M786.7,335.2h2.6v1.9h-2.6Z" transform="translate(-520.1 -244)"/><path class="cls-1" d="M786,335.9h2.2v1.7H786Z" transform="translate(-520.1 -244)"/><path class="cls-1" d="M784.8,336.4h2.6v1.9h-2.6Z" transform="translate(-520.1 -244)"/><path class="cls-1" d="M781.6,338.3H784v1.9h-2.4Z" transform="translate(-520.1 -244)"/><path class="cls-1" d="M779,338.8h4.1v2.9H779Z" transform="translate(-520.1 -244)"/><path class="cls-1" d="M777.8,340.5h2.6v1.9h-2.6Z" transform="translate(-520.1 -244)"/><path class="cls-1" d="M774.7,342.2h2.6v1.9h-2.6Z" transform="translate(-520.1 -244)"/><path class="cls-1" d="M772,342.9h4.1v2.6H772Z" transform="translate(-520.1 -244)"/><path class="cls-1" d="M770.8,344.1h2.4V346h-2.4Z" transform="translate(-520.1 -244)"/><path class="cls-1" d="M767.2,345.5h2.6v1.4h-2.6Z" transform="translate(-520.1 -244)"/><path class="cls-1" d="M787.5,343.9h4.3v1.7h-4.3Z" transform="translate(-520.1 -244)"/><path class="cls-1" d="M786.3,344.4h2.6v1.2h-2.6Z" transform="translate(-520.1 -244)"/><path class="cls-1" d="M782.5,344.4h2.6v1.2h-2.6Z" transform="translate(-520.1 -244)"/><path class="cls-1" d="M779.6,343.6h4.3v1.9h-4.3Z" transform="translate(-520.1 -244)"/><path class="cls-1" d="M778.4,343.2H781v1.7h-2.6Z" transform="translate(-520.1 -244)"/><path class="cls-1" d="M775.3,341.2h2.4v2.2h-2.4Z" transform="translate(-520.1 -244)"/><path class="cls-1" d="M773.1,339.1h3.6v3.6h-3.6Z" transform="translate(-520.1 -244)"/><path class="cls-1" d="M772.2,338.1h2.4v2.4h-2.4Z" transform="translate(-520.1 -244)"/><path class="cls-1" d="M770.5,335h1.9v2.4h-1.9Z" transform="translate(-520.1 -244)"/><path class="cls-1" d="M769.5,332.1h2.4v4.1h-2.4Z" transform="translate(-520.1 -244)"/><path class="cls-1" d="M769,330.9h1.7v2.6H769Z" transform="translate(-520.1 -244)"/><path class="cls-1" d="M768.6,327.3h1.2V330h-1.2Z" transform="translate(-520.1 -244)"/><path class="cls-1" d="M768.3,324.2h1.2v4.3h-1.2Z" transform="translate(-520.1 -244)"/><path class="cls-1" d="M768.3,323h1v2.6h-1Z" transform="translate(-520.1 -244)"/><path class="cls-1" d="M768.3,319.4h1v2.4h-1Z" transform="translate(-520.1 -244)"/><path class="cls-1" d="M768.3,316.3h1v4.3h-1Z" transform="translate(-520.1 -244)"/><path class="cls-1" d="M768.3,315.1h1v2.4h-1Z" transform="translate(-520.1 -244)"/><path class="cls-1" d="M768.3,311.2h1v2.6h-1Z" transform="translate(-520.1 -244)"/><path class="cls-1" d="M768.3,308.4h1v4.3h-1Z" transform="translate(-520.1 -244)"/><path class="cls-1" d="M768.3,306.9h1v2.6h-1Z" transform="translate(-520.1 -244)"/><path class="cls-1" d="M768.3,303.3h1V306h-1Z" transform="translate(-520.1 -244)"/><path class="cls-1" d="M768.3,300.4h1v4.1h-1Z" transform="translate(-520.1 -244)"/><path class="cls-1" d="M768.3,299h1v2.6h-1Z" transform="translate(-520.1 -244)"/><path class="cls-1" d="M745.2,297.5h1v2.6h-1Z" transform="translate(-520.1 -244)"/><path class="cls-1" d="M745.2,294.4h1v4.3h-1Z" transform="translate(-520.1 -244)"/><path class="cls-1" d="M745.2,293.2h1v2.4h-1Z" transform="translate(-520.1 -244)"/><path class="cls-1" d="M745.2,289.6h1V292h-1Z" transform="translate(-520.1 -244)"/><path class="cls-1" d="M744.9,286.5h1.2v4.3h-1.2Z" transform="translate(-520.1 -244)"/><path class="cls-1" d="M744.7,285h1.2v2.6h-1.2Z" transform="translate(-520.1 -244)"/><path class="cls-1" d="M743.7,281.7h1.7v2.6h-1.7Z" transform="translate(-520.1 -244)"/><path class="cls-1" d="M742.8,278.8H745v4.1h-2.2Z" transform="translate(-520.1 -244)"/><path class="cls-1" d="M742,277.6h1.9v2.6H742Z" transform="translate(-520.1 -244)"/><path class="cls-1" d="M739.9,274.5h2.4v2.4h-2.4Z" transform="translate(-520.1 -244)"/><path class="cls-1" d="M737.7,272.6h3.6V276h-3.6Z" transform="translate(-520.1 -244)"/><path class="cls-1" d="M736.8,271.6h2.4v2.2h-2.4Z" transform="translate(-520.1 -244)"/><path class="cls-1" d="M733.4,270.2H736v1.7h-2.6Z" transform="translate(-520.1 -244)"/><path class="cls-1" d="M730.5,269.7h4.3v1.7h-4.3Z" transform="translate(-520.1 -244)"/><path class="cls-1" d="M729.3,269.4h2.6v1.2h-2.6Z" transform="translate(-520.1 -244)"/><path class="cls-1" d="M725.7,269.4h2.6v1.2h-2.6Z" transform="translate(-520.1 -244)"/><path class="cls-1" d="M722.6,269.7h4.3v1.7h-4.3Z" transform="translate(-520.1 -244)"/><path class="cls-1" d="M721.4,270.2H724v1.4h-2.6Z" transform="translate(-520.1 -244)"/><path class="cls-1" d="M718,271.1h2.4V273H718Z" transform="translate(-520.1 -244)"/><path class="cls-1" d="M715.2,271.8h4.1v2.4h-4.1Z" transform="translate(-520.1 -244)"/><path class="cls-1" d="M714,273h2.6v2H714Z" transform="translate(-520.1 -244)"/><path class="cls-1" d="M711.1,275h2.4v2.2h-2.4Z" transform="translate(-520.1 -244)"/><path class="cls-1" d="M708.7,275.7h3.8v3.1h-3.8Z" transform="translate(-520.1 -244)"/><path class="cls-1" d="M707.5,277.6h2.6v2.2h-2.6Z" transform="translate(-520.1 -244)"/><path class="cls-1" d="M704.8,279.8h2.4v2.4h-2.4Z" transform="translate(-520.1 -244)"/><path class="cls-1" d="M702.9,280.7h3.4v3.6h-3.4Z" transform="translate(-520.1 -244)"/><path class="cls-1" d="M702,282.9h2.2v2.4H702Z" transform="translate(-520.1 -244)"/><path class="cls-1" d="M699.6,285.5h2.2v2.6h-2.2Z" transform="translate(-520.1 -244)"/><path class="cls-1" d="M697.6,286.7H701v3.8h-3.4Z" transform="translate(-520.1 -244)"/><path class="cls-1" d="M696.9,289.1h2.2v2.4h-2.2Z" transform="translate(-520.1 -244)"/><path class="cls-1" d="M695,292h1.9v2.6H695Z" transform="translate(-520.1 -244)"/><path class="cls-1" d="M693.3,293.2h2.9V297h-2.9Z" transform="translate(-520.1 -244)"/><path class="cls-1" d="M692.6,295.6h2.2v2.6h-2.2Z" transform="translate(-520.1 -244)"/><path class="cls-1" d="M714.1,296.8H716v2.4h-1.9Z" transform="translate(-520.1 -244)"/><path class="cls-1" d="M712.9,298h2.6v4.1h-2.6Z" transform="translate(-520.1 -244)"/><path class="cls-1" d="M712.4,300.7h1.7v2.6h-1.7Z" transform="translate(-520.1 -244)"/><path class="cls-1" d="M711,304h1.7v2.6H711Z" transform="translate(-520.1 -244)"/><path class="cls-1" d="M710,305.2h2.2v4.3H710Z" transform="translate(-520.1 -244)"/><path class="cls-1" d="M709.5,308.1h1.7v2.6h-1.7Z" transform="translate(-520.1 -244)"/><path class="cls-1" d="M708.8,311.7h1.4v2.6h-1.4Z" transform="translate(-520.1 -244)"/><path class="cls-1" d="M708.3,312.9H710v4.3h-1.7Z" transform="translate(-520.1 -244)"/><path class="cls-1" d="M707.8,315.8h1.4v2.6h-1.4Z" transform="translate(-520.1 -244)"/><path class="cls-1" d="M707.6,319.6h1V322h-1Z" transform="translate(-520.1 -244)"/><path class="cls-1" d="M707.6,320.8h1v4.1h-1Z" transform="translate(-520.1 -244)"/><path class="cls-1" d="M707.6,324h1v2.4h-1Z" transform="translate(-520.1 -244)"/><path class="cls-1" d="M707.6,327.6h1v2.6h-1Z" transform="translate(-520.1 -244)"/><path class="cls-1" d="M707.6,328.8h1v4.3h-1Z" transform="translate(-520.1 -244)"/><path class="cls-1" d="M707.6,331.9h1v2.6h-1Z" transform="translate(-520.1 -244)"/><path class="cls-1" d="M707.6,335.5h1v2.6h-1Z" transform="translate(-520.1 -244)"/><path class="cls-1" d="M707.6,336.9h1V341h-1Z" transform="translate(-520.1 -244)"/><path class="cls-1" d="M707.6,339.8h1v2.6h-1Z" transform="translate(-520.1 -244)"/><path class="cls-1" d="M707.6,343.4h1V346h-1Z" transform="translate(-520.1 -244)"/><path class="cls-1" d="M707.6,344.8h1v4.3h-1Z" transform="translate(-520.1 -244)"/><path class="cls-1" d="M707.6,348h1v2.4h-1Z" transform="translate(-520.1 -244)"/><path class="cls-1" d="M707.6,351.6h1V354h-1Z" transform="translate(-520.1 -244)"/><path class="cls-1" d="M707.6,352.8h1v4.3h-1Z" transform="translate(-520.1 -244)"/><path class="cls-1" d="M707.6,355.9h1v2.4h-1Z" transform="translate(-520.1 -244)"/><path class="cls-1" d="M707.6,359.5h1v2.6h-1Z" transform="translate(-520.1 -244)"/><path class="cls-1" d="M707.6,360.9h1V365h-1Z" transform="translate(-520.1 -244)"/><path class="cls-1" d="M707.6,363.8h1v2.6h-1Z" transform="translate(-520.1 -244)"/><path class="cls-1" d="M707.6,367.4h1V370h-1Z" transform="translate(-520.1 -244)"/><path class="cls-1" d="M707.6,368.8h1v4.1h-1Z" transform="translate(-520.1 -244)"/><path class="cls-1" d="M707.6,371.7h1v2.6h-1Z" transform="translate(-520.1 -244)"/><path class="cls-1" d="M707.6,375.3h1v2.6h-1Z" transform="translate(-520.1 -244)"/><path class="cls-1" d="M707.6,376.8h1v4.3h-1Z" transform="translate(-520.1 -244)"/><path class="cls-1" d="M707.6,379.9h1v2.4h-1Z" transform="translate(-520.1 -244)"/><path class="cls-1" d="M707.6,383.5h1v2.4h-1Z" transform="translate(-520.1 -244)"/><path class="cls-1" d="M707.6,384.7h1V389h-1Z" transform="translate(-520.1 -244)"/><path class="cls-1" d="M707.6,387.8h1v2.6h-1Z" transform="translate(-520.1 -244)"/><path class="cls-1" d="M707.1,391.4h1.2V394h-1.2Z" transform="translate(-520.1 -244)"/><path class="cls-1" d="M706.6,392.6H708v4.3h-1.4Z" transform="translate(-520.1 -244)"/><path class="cls-1" d="M706.4,395.7h1.2v2.6h-1.2Z" transform="translate(-520.1 -244)"/><path class="cls-1" d="M705.4,399.1h1.4v2.6h-1.4Z" transform="translate(-520.1 -244)"/><path class="cls-1" d="M704.5,400.5h2.2v4.1h-2.2Z" transform="translate(-520.1 -244)"/><path class="cls-1" d="M704.2,403.4h1.4V406h-1.4Z" transform="translate(-520.1 -244)"/><path class="cls-1" d="M702.8,406.8h1.7v2.6h-1.7Z" transform="translate(-520.1 -244)"/><path class="cls-1" d="M701.6,408H704v4.1h-2.4Z" transform="translate(-520.1 -244)"/><path class="cls-1" d="M701.1,410.8h1.7v2.6h-1.7Z" transform="translate(-520.1 -244)"/><path class="cls-1" d="M699.4,414h1.9v2.6h-1.9Z" transform="translate(-520.1 -244)"/><path class="cls-1" d="M697.8,415.2h2.9v4.1h-2.9Z" transform="translate(-520.1 -244)"/><path class="cls-1" d="M697.3,417.8h1.9v2.6h-1.9Z" transform="translate(-520.1 -244)"/><path class="cls-1" d="M695.1,420.9h2.2v2.4h-2.2Z" transform="translate(-520.1 -244)"/><path class="cls-1" d="M693.4,421.9h3.1v3.8h-3.1Z" transform="translate(-520.1 -244)"/><path class="cls-1" d="M692.5,424.5h2.2v2.4h-2.2Z" transform="translate(-520.1 -244)"/><path class="cls-1" d="M690.1,427.4h2.4v2.2h-2.4Z" transform="translate(-520.1 -244)"/><path class="cls-1" d="M688.2,428.4h3.4V432h-3.4Z" transform="translate(-520.1 -244)"/><path class="cls-1" d="M687.2,430.5h2.4v2.4h-2.4Z" transform="translate(-520.1 -244)"/><path class="cls-1" d="M684.6,433.2H687v2.2h-2.4Z" transform="translate(-520.1 -244)"/><path class="cls-1" d="M682.2,433.9H686v3.4h-3.8Z" transform="translate(-520.1 -244)"/><path class="cls-1" d="M681.2,435.8h2.4v2.4h-2.4Z" transform="translate(-520.1 -244)"/><path class="cls-1" d="M678.1,438h2.6v2.2h-2.6Z" transform="translate(-520.1 -244)"/><path class="cls-1" d="M677.4,438.7h2.2v1.9h-2.2Z" transform="translate(-520.1 -244)"/><path class="cls-1" d="M676.2,439.4h2.6v1.9h-2.6Z" transform="translate(-520.1 -244)"/><path class="cls-1" d="M712.4,287.7H846.3V461H712.4Z" transform="translate(-520.1 -244)"/><path class="cls-1" d="M703.8,282.7H837.7V456H703.8Z" transform="translate(-520.1 -244)"/><path class="cls-1" d="M694.9,277.6H829V450.9H694.9Z" transform="translate(-520.1 -244)"/><path class="cls-1" d="M686.2,272.8H820.1V446.1H686.2Z" transform="translate(-520.1 -244)"/><path class="cls-1" d="M766.6,307.6h2.6v1.9h-2.6Z" transform="translate(-520.1 -244)"/><path class="cls-1" d="M765.7,308.4h2.4V310h-2.4Z" transform="translate(-520.1 -244)"/><path class="cls-1" d="M764.5,308.8h2.6v1.9h-2.6Z" transform="translate(-520.1 -244)"/><path class="cls-1" d="M761.4,310.5H764v1.9h-2.6Z" transform="translate(-520.1 -244)"/><path class="cls-1" d="M758.7,311.2h4.1v2.9h-4.1Z" transform="translate(-520.1 -244)"/><path class="cls-1" d="M757.8,312.7h2.4v2.2h-2.4Z" transform="translate(-520.1 -244)"/><path class="cls-1" d="M754.4,314.6H757v1.9h-2.6Z" transform="translate(-520.1 -244)"/><path class="cls-1" d="M751.8,315.3h4.1V318h-4.1v-2.7Z" transform="translate(-520.1 -244)"/><path class="cls-1" d="M750.6,316.5h2.6v1.9h-2.6Z" transform="translate(-520.1 -244)"/><path class="cls-1" d="M747.2,318h2.6v1.4h-2.6Z" transform="translate(-520.1 -244)"/><path class="cls-1" d="M744.3,318.4h4.1v1.4h-4.1Z" transform="translate(-520.1 -244)"/><path class="cls-1" d="M742.9,318.9h2.6v1.2h-2.6Z" transform="translate(-520.1 -244)"/><path class="cls-1" d="M739.3,318.9h2.6v1.2h-2.6Z" transform="translate(-520.1 -244)"/><path class="cls-1" d="M736.4,318.2h4.1v1.7h-4.1Z" transform="translate(-520.1 -244)"/><path class="cls-1" d="M735,317.7h2.6v1.7H735Z" transform="translate(-520.1 -244)"/><path class="cls-1" d="M731.8,315.8h2.6V318h-2.6Z" transform="translate(-520.1 -244)"/><path class="cls-1" d="M729.7,313.6h3.6V317h-3.6Z" transform="translate(-520.1 -244)"/><path class="cls-1" d="M729,312.4h2.2V315H729Z" transform="translate(-520.1 -244)"/><path class="cls-1" d="M727.3,309.3H729V312h-1.7Z" transform="translate(-520.1 -244)"/><path class="cls-1" d="M726.3,306.7h2.2v4.1h-2.2Z" transform="translate(-520.1 -244)"/><path class="cls-1" d="M725.8,305.2h1.4v2.6h-1.4Z" transform="translate(-520.1 -244)"/><path class="cls-1" d="M725.4,301.6h1v2.6h-1Z" transform="translate(-520.1 -244)"/><path class="cls-1" d="M725.1,298.8h1.2v4.3h-1.2Z" transform="translate(-520.1 -244)"/><path class="cls-1" d="M724.9,297.6h1.2V300h-1.2Z" transform="translate(-520.1 -244)"/><path class="cls-1" d="M702,295.8h1v2.6h-1Z" transform="translate(-520.1 -244)"/><path class="cls-1" d="M702,293h1v4.3h-1Z" transform="translate(-520.1 -244)"/><path class="cls-1" d="M702,291.5h1v2.6h-1Z" transform="translate(-520.1 -244)"/><path class="cls-1" d="M702,287.9h1v2.6h-1Z" transform="translate(-520.1 -244)"/><path class="cls-1" d="M702,285h1v4.1h-1Z" transform="translate(-520.1 -244)"/><path class="cls-1" d="M702,283.6h1v2.6h-1Z" transform="translate(-520.1 -244)"/><path class="cls-1" d="M702,280h1v2.6h-1Z" transform="translate(-520.1 -244)"/><path class="cls-1" d="M702,276.9h1v4.3h-1Z" transform="translate(-520.1 -244)"/><path class="cls-1" d="M702,275.7h1v2.4h-1Z" transform="translate(-520.1 -244)"/><path class="cls-1" d="M702,272.1h1v2.4h-1Z" transform="translate(-520.1 -244)"/><path class="cls-1" d="M702,269h1v4.3h-1Z" transform="translate(-520.1 -244)"/><path class="cls-1" d="M702,267.8h1v2.4h-1Z" transform="translate(-520.1 -244)"/><path class="cls-1" d="M701.7,263.9h1.2v2.6h-1.2Z" transform="translate(-520.1 -244)"/><path class="cls-1" d="M701.5,261h1.4v4.1h-1.4Z" transform="translate(-520.1 -244)"/><path class="cls-1" d="M701.5,259.6h1v2.6h-1Z" transform="translate(-520.1 -244)"/><path class="cls-1" d="M700.5,256h1.4v2.6h-1.4Z" transform="translate(-520.1 -244)"/><path class="cls-1" d="M699.3,253.1h2.4v4.3h-2.4Z" transform="translate(-520.1 -244)"/><path class="cls-1" d="M698.8,251.9h1.7v2.6h-1.7Z" transform="translate(-520.1 -244)"/><path class="cls-1" d="M696.7,249h2.2v2.4h-2.2Z" transform="translate(-520.1 -244)"/><path class="cls-1" d="M694.5,246.9h3.6v3.6h-3.6Z" transform="translate(-520.1 -244)"/><path class="cls-1" d="M693.3,246.2h2.6v2.2h-2.6Z" transform="translate(-520.1 -244)"/><path class="cls-1" d="M690.2,244.7h2.6v1.7h-2.6Z" transform="translate(-520.1 -244)"/><path class="cls-1" d="M687.3,244h4.3v1.9h-4.3Z" transform="translate(-520.1 -244)"/><path class="cls-1" d="M685.9,244h2.6v1.2h-2.6Z" transform="translate(-520.1 -244)"/><path class="cls-1" d="M682.3,244h2.6v1.2h-2.6Z" transform="translate(-520.1 -244)"/><path class="cls-1" d="M679.4,244h4.3v1.7h-4.3Z" transform="translate(-520.1 -244)"/><path class="cls-1" d="M678,244.7h2.6v1.4H678Z" transform="translate(-520.1 -244)"/><path class="cls-1" d="M674.6,245.7h2.6v1.9h-2.6Z" transform="translate(-520.1 -244)"/><path class="cls-1" d="M672,246.2h4.1v2.6H672Z" transform="translate(-520.1 -244)"/><path class="cls-1" d="M670.8,247.6h2.6v1.9h-2.6Z" transform="translate(-520.1 -244)"/><path class="cls-1" d="M667.6,249.3h2.6v2.2h-2.6Z" transform="translate(-520.1 -244)"/><path class="cls-1" d="M665.2,250.2H669v3.1h-3.8Z" transform="translate(-520.1 -244)"/><path class="cls-1" d="M664.3,251.9h2.4v2.2h-2.4Z" transform="translate(-520.1 -244)"/><path class="cls-1" d="M661.6,254.3H664v2.4h-2.4Z" transform="translate(-520.1 -244)"/><path class="cls-1" d="M659.5,255.3h3.6v3.6h-3.6Z" transform="translate(-520.1 -244)"/><path class="cls-1" d="M658.5,257.4h2.4v2.4h-2.4Z" transform="translate(-520.1 -244)"/><path class="cls-1" d="M656.4,260.1h2.2v2.4h-2.2Z" transform="translate(-520.1 -244)"/><path class="cls-1" d="M654.4,261h3.1v3.8h-3.1Z" transform="translate(-520.1 -244)"/><path class="cls-1" d="M653.5,263.4h2.4V266h-2.4Z" transform="translate(-520.1 -244)"/><path class="cls-1" d="M651.6,266.6h2.2V269h-2.2Z" transform="translate(-520.1 -244)"/><path class="cls-1" d="M650.1,267.5H653v4.1h-2.9Z" transform="translate(-520.1 -244)"/><path class="cls-1" d="M649.4,270.2h1.9v2.6h-1.9Z" transform="translate(-520.1 -244)"/><path class="cls-1" d="M647.7,273.3h1.7v2.6h-1.7Z" transform="translate(-520.1 -244)"/><path class="cls-1" d="M646.3,274.5h2.6v4.1h-2.6Z" transform="translate(-520.1 -244)"/><path class="cls-1" d="M645.8,277.4h1.9v2.4h-1.9Z" transform="translate(-520.1 -244)"/><path class="cls-1" d="M644.6,280.7h1.7v2.6h-1.7Z" transform="translate(-520.1 -244)"/><path class="cls-1" d="M643.6,281.9h2.2V286h-2.2Z" transform="translate(-520.1 -244)"/><path class="cls-1" d="M643.2,284.8h1.7v2.6h-1.7Z" transform="translate(-520.1 -244)"/><path class="cls-1" d="M642.4,288.2h1.2v2.6h-1.2Z" transform="translate(-520.1 -244)"/><path class="cls-1" d="M641.7,289.6h1.7v4.3h-1.7Z" transform="translate(-520.1 -244)"/><path class="cls-1" d="M641.5,292.5h1.4v2.6h-1.4Z" transform="translate(-520.1 -244)"/><path class="cls-1" d="M641.2,296.1h1v2.6h-1Z" transform="translate(-520.1 -244)"/><path class="cls-1" d="M664.2,295.4h1.2v3.8h-1.2Z" transform="translate(-520.1 -244)"/><path class="cls-1" d="M664.2,298.3h1v2.6h-1Z" transform="translate(-520.1 -244)"/><path class="cls-1" d="M664.2,302.1h1v2.4h-1Z" transform="translate(-520.1 -244)"/><path class="cls-1" d="M664.2,303.3h1v4.3h-1Z" transform="translate(-520.1 -244)"/><path class="cls-1" d="M664.2,306.4h1v2.4h-1Z" transform="translate(-520.1 -244)"/><path class="cls-1" d="M664.2,310h1v2.6h-1Z" transform="translate(-520.1 -244)"/><path class="cls-1" d="M664.2,311.2h1v4.3h-1Z" transform="translate(-520.1 -244)"/><path class="cls-1" d="M664.2,314.4h1V317h-1Z" transform="translate(-520.1 -244)"/><path class="cls-1" d="M664.2,318h1v2.6h-1Z" transform="translate(-520.1 -244)"/><path class="cls-1" d="M664.2,319.4h1v4.1h-1Z" transform="translate(-520.1 -244)"/><path class="cls-1" d="M664.2,322.3h1v2.6h-1Z" transform="translate(-520.1 -244)"/><path class="cls-1" d="M664.2,325.9h1v2.6h-1Z" transform="translate(-520.1 -244)"/><path class="cls-1" d="M664.2,327.3h1v4.3h-1Z" transform="translate(-520.1 -244)"/><path class="cls-1" d="M664.2,330.4h1v2.4h-1Z" transform="translate(-520.1 -244)"/><path class="cls-1" d="M664.2,334h1v2.4h-1Z" transform="translate(-520.1 -244)"/><path class="cls-1" d="M664.2,335.2h1v4.3h-1Z" transform="translate(-520.1 -244)"/><path class="cls-1" d="M664.2,338.4h1v2.4h-1Z" transform="translate(-520.1 -244)"/><path class="cls-1" d="M664.2,342h1v2.6h-1Z" transform="translate(-520.1 -244)"/><path class="cls-1" d="M664.2,343.2h1v4.3h-1Z" transform="translate(-520.1 -244)"/><path class="cls-1" d="M664.2,346.3h1v2.6h-1Z" transform="translate(-520.1 -244)"/><path class="cls-1" d="M664.2,349.9h1v2.6h-1Z" transform="translate(-520.1 -244)"/><path class="cls-1" d="M664.2,351.3h1v4.1h-1Z" transform="translate(-520.1 -244)"/><path class="cls-1" d="M664.2,354.2h1v2.6h-1Z" transform="translate(-520.1 -244)"/><path class="cls-1" d="M664.2,357.8h1v2.6h-1Z" transform="translate(-520.1 -244)"/><path class="cls-1" d="M664.2,359.2h1v4.3h-1Z" transform="translate(-520.1 -244)"/><path class="cls-1" d="M664.2,362.4h1v2.4h-1Z" transform="translate(-520.1 -244)"/><path class="cls-1" d="M663.7,366h1.4v2.4h-1.4Z" transform="translate(-520.1 -244)"/><path class="cls-1" d="M663.2,367.2h1.7v4.3h-1.7Z" transform="translate(-520.1 -244)"/><path class="cls-1" d="M663.2,370h1.2v2.6h-1.2Z" transform="translate(-520.1 -244)"/><path class="cls-1" d="M662,373.6h1.7v2.6H662Z" transform="translate(-520.1 -244)"/><path class="cls-1" d="M661.3,374.8h1.9v4.3h-1.9Z" transform="translate(-520.1 -244)"/><path class="cls-1" d="M660.8,377.7h1.7v2.9h-1.7Z" transform="translate(-520.1 -244)"/><path class="cls-1" d="M659.4,381.3h1.9v2.6h-1.9Z" transform="translate(-520.1 -244)"/><path class="cls-1" d="M658.4,382.5h2.4v4.1h-2.4Z" transform="translate(-520.1 -244)"/><path class="cls-1" d="M657.7,385.2h1.9v2.6h-1.9Z" transform="translate(-520.1 -244)"/><path class="cls-1" d="M656,388.5h1.9v2.6H656Z" transform="translate(-520.1 -244)"/><path class="cls-1" d="M654.6,389.7h2.9v4.1h-2.9Z" transform="translate(-520.1 -244)"/><path class="cls-1" d="M653.8,392.4h1.9v2.4h-1.9Z" transform="translate(-520.1 -244)"/><path class="cls-1" d="M651.9,395.5h1.9v2.4h-1.9Z" transform="translate(-520.1 -244)"/><path class="cls-1" d="M650,396.4h3.1v3.8H650Z" transform="translate(-520.1 -244)"/><path class="cls-1" d="M649.3,398.8h2.2v2.6h-2.2Z" transform="translate(-520.1 -244)"/><path class="cls-1" d="M646.9,401.7h2.4v2.4h-2.4Z" transform="translate(-520.1 -244)"/><path class="cls-1" d="M645,402.7h3.4v3.6H645Z" transform="translate(-520.1 -244)"/><path class="cls-1" d="M644,405.1h2.2v2.4H644Z" transform="translate(-520.1 -244)"/><path class="cls-1" d="M641.1,407.5h2.6v2.4h-2.6Z" transform="translate(-520.1 -244)"/><path class="cls-1" d="M639,408.4h3.6v3.4H639Z" transform="translate(-520.1 -244)"/><path class="cls-1" d="M638,410.4h2.4v2.2H638Z" transform="translate(-520.1 -244)"/><path class="cls-1" d="M634.9,412.5h2.6v2.2h-2.6Z" transform="translate(-520.1 -244)"/><path class="cls-1" d="M633.9,413.2h2.4v1.9h-2.4Z" transform="translate(-520.1 -244)"/><path class="cls-1" d="M632.7,413.7h2.6v2.2h-2.6Z" transform="translate(-520.1 -244)"/><path class="cls-1" d="M669,262H803.2V435.3H669Z" transform="translate(-520.1 -244)"/><path class="cls-1" d="M660.3,257.2H794.5V430.5H660.3Z" transform="translate(-520.1 -244)"/><path class="cls-1" d="M659.6,255.6H795.2V432H659.6Z" transform="translate(-520.1 -244)"/><path class="cls-1" d="M651.7,252.2H785.6V425.5H651.7Z" transform="translate(-520.1 -244)"/><path class="cls-1" d="M642.8,247.2H777V420.5H642.8Z" transform="translate(-520.1 -244)"/><path class="cls-2" d="M794.6,439.2h-7.9L662.1,368.8c-2.6-1.5-7.1-1.3-10.1.4L527.8,439.3h-7.7v6.2h0a3.06,3.06,0,0,0,1.8,2.5l130.7,73.9c2.6,1.5,7.1,1.3,10.1-.4L792,448.4c1.7-.9,2.5-2.2,2.5-3.3l.1-5.9Z" transform="translate(-520.1 -244)"/><path class="cls-3" d="M652.7,515.7,521.9,441.9c-2.6-1.5-2.3-4,.7-5.7L651.9,363c3-1.7,7.5-1.9,10.1-.4l130.7,73.9c2.6,1.5,2.3,4-.7,5.7L662.7,515.3c-2.9,1.7-7.4,1.9-10,.4Z" transform="translate(-520.1 -244)"/><path class="cls-4" d="M653,510.5,531.3,441.7c-2.4-1.4-2.1-3.8.7-5.3l120.4-68c2.8-1.6,7-1.8,9.4-.4l121.7,68.8c2.4,1.4,2.1,3.8-.7,5.3l-120.4,68C659.6,511.7,655.4,511.8,653,510.5Z" transform="translate(-520.1 -244)"/><g class="cls-5"><g class="cls-5"><g class="cls-5"><path class="cls-6" d="M717.8,410.4l-3.4-1.9,3.4-1.9,3.4,1.9Z" transform="translate(-520.1 -244)"/><path class="cls-7" d="M724.6,414.3l-3.4-1.9,3.4-1.9,3.4,1.9Z" transform="translate(-520.1 -244)"/><path class="cls-8" d="M731.4,418.1l-3.4-1.9,3.4-1.9,3.4,1.9Z" transform="translate(-520.1 -244)"/><path class="cls-6" d="M738.2,421.9l-3.4-1.9,3.4-1.9,3.4,1.9Z" transform="translate(-520.1 -244)"/><path class="cls-8" d="M745,425.8l-3.4-1.9L745,422l3.4,1.9Z" transform="translate(-520.1 -244)"/><path class="cls-6" d="M751.8,429.6l-3.4-1.9,3.4-1.9,3.4,1.9Zm6.7,3.8-3.4-1.9,3.4-1.9,3.4,1.9Zm6.8,3.9-3.4-1.9,3.4-1.9,3.4,1.9Z" transform="translate(-520.1 -244)"/><path class="cls-7" d="M772.1,441.1l-3.4-1.9,3.4-1.9,3.4,1.9Z" transform="translate(-520.1 -244)"/></g><g class="cls-5"><path class="cls-6" d="M711,414.3l-3.4-1.9,3.4-1.9,3.4,1.9Zm6.8,3.8-3.4-1.9,3.4-1.9,3.4,1.9Zm6.8,3.8-3.4-1.9,3.4-1.9L728,420Zm6.8,3.9-3.4-1.9,3.4-1.9,3.4,1.9Zm6.8,3.8-3.4-1.9,3.4-1.9,3.4,1.9Zm6.7,3.9-3.4-1.9,3.4-1.9,3.4,1.9Zm6.8,3.8-3.4-1.9,3.4-1.9,3.4,1.9Zm6.8,3.8-3.4-1.9,3.4-1.9,3.4,1.9Zm6.8,3.9-3.4-1.9,3.4-1.9,3.4,1.9Z" transform="translate(-520.1 -244)"/></g><g class="cls-5"><path class="cls-6" d="M704.2,418.1l-3.4-1.9,3.4-1.9,3.4,1.9ZM711,422l-3.4-1.9,3.4-1.9,3.4,1.9Zm6.8,3.8-3.4-1.9,3.4-1.9,3.4,1.9Z" transform="translate(-520.1 -244)"/><path class="cls-7" d="M724.5,429.6l-3.4-1.9,3.4-1.9,3.4,1.9Z" transform="translate(-520.1 -244)"/><path class="cls-8" d="M731.3,433.5l-3.4-1.9,3.4-1.9,3.4,1.9Zm6.8,3.8-3.4-1.9,3.4-1.9,3.4,1.9Z" transform="translate(-520.1 -244)"/><path class="cls-6" d="M744.9,441.1l-3.4-1.9,3.4-1.9,3.4,1.9Zm6.8,3.9-3.4-1.9,3.4-1.9,3.4,1.9Zm6.8,3.8-3.4-1.9,3.4-1.9,3.4,1.9Z" transform="translate(-520.1 -244)"/></g><g class="cls-5"><path class="cls-8" d="M697.4,422l-3.4-1.9,3.4-1.9,3.4,1.9Zm6.8,3.8-3.4-1.9,3.4-1.9,3.4,1.9Z" transform="translate(-520.1 -244)"/><path class="cls-7" d="M710.9,429.6l-3.4-1.9,3.4-1.9,3.4,1.9Z" transform="translate(-520.1 -244)"/><path class="cls-6" d="M717.7,433.5l-3.4-1.9,3.4-1.9,3.4,1.9Zm6.8,3.8-3.4-1.9,3.4-1.9,3.4,1.9Zm6.8,3.9-3.4-1.9,3.4-1.9,3.4,1.9Z" transform="translate(-520.1 -244)"/><path class="cls-8" d="M738.1,445l-3.4-1.9,3.4-1.9,3.4,1.9Z" transform="translate(-520.1 -244)"/><path class="cls-6" d="M744.9,448.8l-3.4-1.9,3.4-1.9,3.4,1.9Zm6.8,3.9-3.4-1.9,3.4-1.9,3.4,1.9Z" transform="translate(-520.1 -244)"/></g><g class="cls-5"><path class="cls-6" d="M690.5,425.8l-3.4-1.9,3.4-1.9,3.4,1.9Zm6.8,3.9-3.4-1.9,3.4-1.9,3.4,1.9Zm6.8,3.8-3.4-1.9,3.4-1.9,3.4,1.9Zm6.8,3.8-3.4-1.9,3.4-1.9,3.4,1.9Zm6.8,3.9-3.4-1.9,3.4-1.9,3.4,1.9Zm6.8,3.8-3.4-1.9,3.4-1.9,3.4,1.9Zm6.8,3.9-3.4-1.9,3.4-1.9,3.4,1.9Zm6.8,3.8-3.4-1.9,3.4-1.9,3.4,1.9Zm6.8,3.8-3.4-1.9,3.4-1.9,3.4,1.9Z" transform="translate(-520.1 -244)"/></g><g class="cls-5"><path class="cls-6" d="M683.7,429.7l-3.4-1.9,3.4-1.9,3.4,1.9Zm6.8,3.8-3.4-1.9,3.4-1.9,3.4,1.9Z" transform="translate(-520.1 -244)"/><path class="cls-8" d="M697.3,437.4l-3.4-1.9,3.4-1.9,3.4,1.9Z" transform="translate(-520.1 -244)"/><path class="cls-6" d="M704.1,441.2l-3.4-1.9,3.4-1.9,3.4,1.9Z" transform="translate(-520.1 -244)"/><path class="cls-7" d="M710.9,445l-3.4-1.9,3.4-1.9,3.4,1.9Z" transform="translate(-520.1 -244)"/><path class="cls-6" d="M717.7,448.9l-3.4-1.9,3.4-1.9,3.4,1.9Zm6.8,3.8-3.4-1.9,3.4-1.9,3.4,1.9Zm6.8,3.8-3.4-1.9,3.4-1.9,3.4,1.9Zm6.7,3.9-3.4-1.9,3.4-1.9,3.4,1.9Z" transform="translate(-520.1 -244)"/></g><g class="cls-5"><path class="cls-6" d="M676.9,433.5l-3.4-1.9,3.4-1.9,3.4,1.9Zm6.8,3.9-3.4-1.9,3.4-1.9,3.4,1.9Z" transform="translate(-520.1 -244)"/><path class="cls-8" d="M690.5,441.2l-3.4-1.9,3.4-1.9,3.4,1.9Z" transform="translate(-520.1 -244)"/><path class="cls-6" d="M697.3,445l-3.4-1.9,3.4-1.9,3.4,1.9Zm6.8,3.9-3.4-1.9,3.4-1.9,3.4,1.9Z" transform="translate(-520.1 -244)"/><path class="cls-7" d="M710.9,452.7l-3.4-1.9,3.4-1.9,3.4,1.9Z" transform="translate(-520.1 -244)"/><path class="cls-8" d="M717.7,456.6l-3.4-1.9,3.4-1.9,3.4,1.9Z" transform="translate(-520.1 -244)"/><path class="cls-6" d="M724.4,460.4l-3.4-1.9,3.4-1.9,3.4,1.9Z" transform="translate(-520.1 -244)"/><path class="cls-7" d="M731.2,464.2l-3.4-1.9,3.4-1.9,3.4,1.9Z" transform="translate(-520.1 -244)"/></g><g class="cls-5"><path class="cls-6" d="M670.1,437.4l-3.4-1.9,3.4-1.9,3.4,1.9Z" transform="translate(-520.1 -244)"/><path class="cls-8" d="M676.9,441.2l-3.4-1.9,3.4-1.9,3.4,1.9Z" transform="translate(-520.1 -244)"/><path class="cls-6" d="M683.7,445.1l-3.4-1.9,3.4-1.9,3.4,1.9Zm6.8,3.8-3.4-1.9,3.4-1.9,3.4,1.9Zm6.8,3.8-3.4-1.9,3.4-1.9,3.4,1.9Zm6.7,3.9-3.4-1.9,3.4-1.9,3.4,1.9Zm6.8,3.8-3.4-1.9,3.4-1.9,3.4,1.9Z" transform="translate(-520.1 -244)"/><path class="cls-8" d="M717.6,464.2l-3.4-1.9,3.4-1.9,3.4,1.9Z" transform="translate(-520.1 -244)"/><path class="cls-6" d="M724.4,468.1l-3.4-1.9,3.4-1.9,3.4,1.9Z" transform="translate(-520.1 -244)"/></g><g class="cls-5"><path class="cls-6" d="M663.3,441.2l-3.4-1.9,3.4-1.9,3.4,1.9Z" transform="translate(-520.1 -244)"/><path class="cls-7" d="M670.1,445.1l-3.4-1.9,3.4-1.9,3.4,1.9Z" transform="translate(-520.1 -244)"/><path class="cls-6" d="M676.9,448.9l-3.4-1.9,3.4-1.9,3.4,1.9Zm6.8,3.8-3.4-1.9,3.4-1.9,3.4,1.9Zm6.7,3.9-3.4-1.9,3.4-1.9,3.4,1.9Zm6.8,3.8-3.4-1.9,3.4-1.9,3.4,1.9Z" transform="translate(-520.1 -244)"/><path class="cls-8" d="M704,464.3l-3.4-1.9,3.4-1.9,3.4,1.9Z" transform="translate(-520.1 -244)"/><path class="cls-6" d="M710.8,468.1l-3.4-1.9,3.4-1.9,3.4,1.9Zm6.8,3.8-3.4-1.9,3.4-1.9L721,470Z" transform="translate(-520.1 -244)"/></g></g><g class="cls-5"><g class="cls-5"><path class="cls-6" d="M657.6,375.8l-3.4-1.9,3.4-1.9,3.4,1.9Z" transform="translate(-520.1 -244)"/><path class="cls-7" d="M664.4,379.6l-3.4-1.9,3.4-1.9,3.4,1.9Z" transform="translate(-520.1 -244)"/><path class="cls-8" d="M671.2,383.4l-3.4-1.9,3.4-1.9,3.4,1.9Z" transform="translate(-520.1 -244)"/><path class="cls-6" d="M678,387.3l-3.4-1.9,3.4-1.9,3.4,1.9Z" transform="translate(-520.1 -244)"/><path class="cls-8" d="M684.8,391.1l-3.4-1.9,3.4-1.9,3.4,1.9Z" transform="translate(-520.1 -244)"/><path class="cls-6" d="M691.6,394.9l-3.4-1.9,3.4-1.9L695,393Zm6.7,3.9-3.4-1.9,3.4-1.9,3.4,1.9Zm6.8,3.8-3.4-1.9,3.4-1.9,3.4,1.9Z" transform="translate(-520.1 -244)"/><path class="cls-7" d="M711.9,406.5l-3.4-1.9,3.4-1.9,3.4,1.9Z" transform="translate(-520.1 -244)"/></g><g class="cls-5"><path class="cls-6" d="M650.8,379.6l-3.4-1.9,3.4-1.9,3.4,1.9Zm6.8,3.8-3.4-1.9,3.4-1.9,3.4,1.9Zm6.8,3.9-3.4-1.9,3.4-1.9,3.4,1.9Zm6.8,3.8-3.4-1.9,3.4-1.9,3.4,1.9ZM678,395l-3.4-1.9,3.4-1.9,3.4,1.9Zm6.7,3.8-3.4-1.9,3.4-1.9,3.4,1.9Zm6.8,3.8-3.4-1.9,3.4-1.9,3.4,1.9Zm6.8,3.9-3.4-1.9,3.4-1.9,3.4,1.9Zm6.8,3.8-3.4-1.9,3.4-1.9,3.4,1.9Z" transform="translate(-520.1 -244)"/></g><g class="cls-5"><path class="cls-6" d="M644,383.5l-3.4-1.9,3.4-1.9,3.4,1.9Zm6.8,3.8-3.4-1.9,3.4-1.9,3.4,1.9Zm6.8,3.8-3.4-1.9,3.4-1.9,3.4,1.9Z" transform="translate(-520.1 -244)"/><path class="cls-7" d="M664.3,395l-3.4-1.9,3.4-1.9,3.4,1.9Z" transform="translate(-520.1 -244)"/><path class="cls-8" d="M671.1,398.8l-3.4-1.9,3.4-1.9,3.4,1.9Zm6.8,3.9-3.4-1.9,3.4-1.9,3.4,1.9Z" transform="translate(-520.1 -244)"/><path class="cls-6" d="M684.7,406.5l-3.4-1.9,3.4-1.9,3.4,1.9Zm6.8,3.8-3.4-1.9,3.4-1.9,3.4,1.9Zm6.8,3.9-3.4-1.9,3.4-1.9,3.4,1.9Z" transform="translate(-520.1 -244)"/></g><g class="cls-5"><path class="cls-8" d="M637.2,387.3l-3.4-1.9,3.4-1.9,3.4,1.9Zm6.8,3.9-3.4-1.9,3.4-1.9,3.4,1.9C647.4,389.2,644,391.2,644,391.2Z" transform="translate(-520.1 -244)"/><path class="cls-7" d="M650.7,395l-3.4-1.9,3.4-1.9,3.4,1.9Z" transform="translate(-520.1 -244)"/><path class="cls-6" d="M657.5,398.8l-3.4-1.9,3.4-1.9,3.4,1.9Zm6.8,3.9-3.4-1.9,3.4-1.9,3.4,1.9Zm6.8,3.8-3.4-1.9,3.4-1.9,3.4,1.9Z" transform="translate(-520.1 -244)"/><path class="cls-8" d="M677.9,410.3l-3.4-1.9,3.4-1.9,3.4,1.9Z" transform="translate(-520.1 -244)"/><path class="cls-6" d="M684.7,414.2l-3.4-1.9,3.4-1.9,3.4,1.9Zm6.8,3.8-3.4-1.9,3.4-1.9,3.4,1.9Z" transform="translate(-520.1 -244)"/></g><g class="cls-5"><path class="cls-6" d="M630.4,391.2l-3.4-1.9,3.4-1.9,3.4,1.9Zm6.7,3.8-3.4-1.9,3.4-1.9,3.4,1.9Zm6.8,3.8-3.4-1.9,3.4-1.9,3.4,1.9Zm6.8,3.9-3.4-1.9,3.4-1.9,3.4,1.9Zm6.8,3.8-3.4-1.9,3.4-1.9,3.4,1.9Zm6.8,3.9-3.4-1.9,3.4-1.9,3.4,1.9Zm6.8,3.8-3.4-1.9,3.4-1.9,3.4,1.9Zm6.8,3.8-3.4-1.9,3.4-1.9,3.4,1.9Zm6.8,3.9-3.4-1.9,3.4-1.9,3.4,1.9Z" transform="translate(-520.1 -244)"/></g><g class="cls-5"><path class="cls-6" d="M623.5,395l-3.4-1.9,3.4-1.9,3.4,1.9Zm6.8,3.9-3.4-1.9,3.4-1.9,3.4,1.9Z" transform="translate(-520.1 -244)"/><path class="cls-8" d="M637.1,402.7l-3.4-1.9,3.4-1.9,3.4,1.9Z" transform="translate(-520.1 -244)"/><path class="cls-6" d="M643.9,406.5l-3.4-1.9,3.4-1.9,3.4,1.9Z" transform="translate(-520.1 -244)"/><path class="cls-7" d="M650.7,410.4l-3.4-1.9,3.4-1.9,3.4,1.9Z" transform="translate(-520.1 -244)"/><path class="cls-6" d="M657.5,414.2l-3.4-1.9,3.4-1.9,3.4,1.9Zm6.8,3.8-3.4-1.9,3.4-1.9,3.4,1.9Zm6.8,3.9-3.4-1.9,3.4-1.9,3.4,1.9Zm6.7,3.8-3.4-1.9,3.4-1.9,3.4,1.9Z" transform="translate(-520.1 -244)"/></g><g class="cls-5"><path class="cls-6" d="M616.7,398.9l-3.4-1.9,3.4-1.9,3.4,1.9Zm6.8,3.8-3.4-1.9,3.4-1.9,3.4,1.9Z" transform="translate(-520.1 -244)"/><path class="cls-8" d="M630.3,406.6l-3.4-1.9,3.4-1.9,3.4,1.9Z" transform="translate(-520.1 -244)"/><path class="cls-6" d="M637.1,410.4l-3.4-1.9,3.4-1.9,3.4,1.9Zm6.8,3.8-3.4-1.9,3.4-1.9,3.4,1.9Z" transform="translate(-520.1 -244)"/><path class="cls-7" d="M650.7,418.1l-3.4-1.9,3.4-1.9,3.4,1.9Z" transform="translate(-520.1 -244)"/><path class="cls-8" d="M657.5,421.9l-3.4-1.9,3.4-1.9,3.4,1.9Z" transform="translate(-520.1 -244)"/><path class="cls-6" d="M664.2,425.7l-3.4-1.9,3.4-1.9,3.4,1.9Z" transform="translate(-520.1 -244)"/><path class="cls-7" d="M671,429.6l-3.4-1.9,3.4-1.9,3.4,1.9Z" transform="translate(-520.1 -244)"/></g><g class="cls-5"><path class="cls-6" d="M609.9,402.7l-3.4-1.9,3.4-1.9,3.4,1.9Z" transform="translate(-520.1 -244)"/><path class="cls-8" d="M616.7,406.6l-3.4-1.9,3.4-1.9,3.4,1.9C620.1,404.6,616.7,406.6,616.7,406.6Z" transform="translate(-520.1 -244)"/><path class="cls-6" d="M623.5,410.4l-3.4-1.9,3.4-1.9,3.4,1.9Zm6.8,3.8-3.4-1.9,3.4-1.9,3.4,1.9Zm6.8,3.9-3.4-1.9,3.4-1.9,3.4,1.9Zm6.7,3.8-3.4-1.9,3.4-1.9,3.4,1.9Zm6.8,3.8-3.4-1.9,3.4-1.9,3.4,1.9Z" transform="translate(-520.1 -244)"/><path class="cls-8" d="M657.4,429.6l-3.4-1.9,3.4-1.9,3.4,1.9Z" transform="translate(-520.1 -244)"/><path class="cls-6" d="M664.2,433.4l-3.4-1.9,3.4-1.9,3.4,1.9Z" transform="translate(-520.1 -244)"/></g><g class="cls-5"><path class="cls-6" d="M603.1,406.6l-3.4-1.9,3.4-1.9,3.4,1.9-3.4,1.9Z" transform="translate(-520.1 -244)"/><path class="cls-7" d="M609.9,410.4l-3.4-1.9,3.4-1.9,3.4,1.9Z" transform="translate(-520.1 -244)"/><path class="cls-6" d="M616.7,414.3l-3.4-1.9,3.4-1.9,3.4,1.9C620.1,412.3,616.7,414.3,616.7,414.3Zm6.8,3.8-3.4-1.9,3.4-1.9,3.4,1.9Zm6.7,3.8-3.4-1.9,3.4-1.9,3.4,1.9Zm6.8,3.9-3.4-1.9L637,422l3.4,1.9Z" transform="translate(-520.1 -244)"/><path class="cls-8" d="M643.8,429.6l-3.4-1.9,3.4-1.9,3.4,1.9Z" transform="translate(-520.1 -244)"/><path class="cls-6" d="M650.6,433.4l-3.4-1.9,3.4-1.9,3.4,1.9Zm6.8,3.9-3.4-1.9,3.4-1.9,3.4,1.9Z" transform="translate(-520.1 -244)"/></g></g></g><path class="cls-9" d="M792.1,441.6,662.8,514.7c-3,1.7-7.5,1.9-10.1.4L521.9,441.2a3.07,3.07,0,0,1-1.7-2.1c-.2,1.1.4,2.1,1.7,2.9l130.7,73.9c2.6,1.5,7.1,1.3,10.1-.4L792,442.4c1.8-1,2.6-2.4,2.4-3.6,0,.9-.8,1.9-2.3,2.8Z" transform="translate(-520.1 -244)"/><path class="cls-10" d="M759.7,451.7,637,378.3a2.44,2.44,0,0,0-2.6,0l-43.7,26.2a.78.78,0,0,0-.4.4,1.08,1.08,0,0,0,0,1.1.78.78,0,0,0,.4.4l122.6,73.3a2.44,2.44,0,0,0,2.6,0l43.7-26.2c.1-.1.3-.2.3-.4a.91.91,0,0,0,0-1,.3.3,0,0,0-.2-.4Z" transform="translate(-520.1 -244)"/><path class="cls-11" d="M745.7,452.9l3.5,2,4.5-3-3.5-2Zm-17,4.8,8.4,4.7,5.6-2.9-10.9-5.7Z" transform="translate(-520.1 -244)"/><path class="cls-12" d="M681.2,498.9c13.8,0,25-6.5,25-14.5s-11.2-14.5-25-14.5-25,6.5-25,14.5S667.4,498.9,681.2,498.9Zm-85-56c13.8,0,25-6.5,25-14.5s-11.2-14.5-25-14.5-25,6.5-25,14.5S582.4,442.9,596.2,442.9Z" transform="translate(-520.1 -244)"/><path class="cls-11" d="M759.6,453.6l-.4.3L637,380.6a2.44,2.44,0,0,0-2.6,0l-43.2,26-.4-.3a.78.78,0,0,1-.4-.4,1.08,1.08,0,0,1,0-1.1.78.78,0,0,1,.4-.4l43.7-26.2a2.44,2.44,0,0,1,2.6,0l122.6,73.6a.78.78,0,0,1,.4.4,1.08,1.08,0,0,1,0,1.1C759.9,453.4,759.8,453.5,759.6,453.6Z" transform="translate(-520.1 -244)"/><path class="cls-11" d="M641.2,390.7l104.5,62.2,4.5-3L646,387.9Zm-7,10.1,94.7,57.1,3.3-3.8-93.3-56.2Zm-23-4.1,118.2,70.2,4.8-2.8L616,393.9Zm-7,4,117.3,70.2,4.7-2.8L608.9,397.9Zm-8,5,118.3,70.2,4.7-2.8L601,402.9Zm35-20.8,4.5,3,4.5-3-4.5-3Zm-12,6.9,9.4,6.1,4.6-2.9-9.5-6.1Z" transform="translate(-520.1 -244)"/><path class="cls-4" d="M647.4,450.9h135l2.8-10.4L651,369.9c-2.8-1.5-7.1-2.2-10.4-.5l-75.5,42.5,65.3,34.8A36.86,36.86,0,0,0,647.4,450.9Z" transform="translate(-520.1 -244)"/><path class="cls-13" d="M641.1,247.4l3.2-1.8h0a1.83,1.83,0,0,1,1.6.1L784,325.6a5.9,5.9,0,0,1,2.5,4.8l-.1,117a2.26,2.26,0,0,1-.9,2h0l-3.2,1.9-.2-11.6L653.3,365.2a5.9,5.9,0,0,1-2.5-4.8l.1-107.5c-.2.7-.4,1.2-.4,1.2-.2.1-9.4-6.7-9.4-6.7Z" transform="translate(-520.1 -244)"/><path class="cls-14" d="M786.4,329.6l-20.3,7.9-4.2-2.4,22.5-9.2A6.14,6.14,0,0,1,786.4,329.6Z" transform="translate(-520.1 -244)"/><path class="cls-9" d="M642.6,371.3l138.1,79.9c1.4.8,2.5-.1,2.5-1.9l.1-117a6,6,0,0,0-2.5-4.8L642.7,247.6c-1.4-.8-2.5.1-2.5,1.9l-.2,117A6.43,6.43,0,0,0,642.6,371.3Z" transform="translate(-520.1 -244)"/><path class="cls-9" d="M780.8,327.4,642.7,247.6a1.4,1.4,0,0,0-2,.2,2.09,2.09,0,0,1,1.3.2l138.1,79.9a5.9,5.9,0,0,1,2.5,4.8l-.1,117a2.65,2.65,0,0,1-.5,1.7c.7-.2,1.2-.9,1.2-2.1l.1-117a6,6,0,0,0-2.5-4.9Z" transform="translate(-520.1 -244)"/><path class="cls-15" d="M642.2,368.7,781,449l.2-117.3L642.3,251.4l-.1,117.3Z" transform="translate(-520.1 -244)"/><path class="cls-16" d="M705.5,368.3a4.42,4.42,0,0,1-2.4-.7l-12.3-7.1a11.5,11.5,0,0,1-5.2-9v-3.6a10.63,10.63,0,0,0-4.9-8.4l-12-6.9a3.16,3.16,0,0,0-3.2-.3,3.24,3.24,0,0,0-1.3,2.9V358a4.13,4.13,0,0,1-1.6,3.6c-1,.7-2.4.5-3.9-.3l-14.1-8.2.3-.6,14.1,8.2a3.16,3.16,0,0,0,3.2.3,3.24,3.24,0,0,0,1.3-2.9v-23a4.13,4.13,0,0,1,1.6-3.6c1-.7,2.4-.5,3.9.3l12,6.9a11.5,11.5,0,0,1,5.2,9v3.6a10.63,10.63,0,0,0,4.9,8.4l12.3,7.1a3.16,3.16,0,0,0,3.2.3,3.24,3.24,0,0,0,1.3-2.9V338.4a4.13,4.13,0,0,1,1.6-3.6c1-.7,2.4-.5,3.9.3l13.7,7.9a3.16,3.16,0,0,0,3.2.3,3.24,3.24,0,0,0,1.3-2.9V327.2a4.13,4.13,0,0,1,1.6-3.6c1-.7,2.4-.5,3.9.3l14.3,8.2a11.5,11.5,0,0,1,5.2,9,10.63,10.63,0,0,0,4.9,8.4l15.8,9.1-.4.6-15.8-9.1a11.5,11.5,0,0,1-5.2-9,10.63,10.63,0,0,0-4.9-8.4l-14-8.1a3.16,3.16,0,0,0-3.2-.3,3.24,3.24,0,0,0-1.3,2.9v13.4a4.13,4.13,0,0,1-1.6,3.6c-1,.7-2.4.5-3.9-.3L713.3,336a3.16,3.16,0,0,0-3.2-.3,3.24,3.24,0,0,0-1.3,2.9v25.9a4.13,4.13,0,0,1-1.6,3.6A9.85,9.85,0,0,1,705.5,368.3Z" transform="translate(-520.1 -244)"/><path class="cls-17" d="M665.2,434.5a18.67,18.67,0,0,0-.7,2.8,15.86,15.86,0,0,0,1.7,2.7,11.69,11.69,0,0,0,2.9,2.5,6.3,6.3,0,0,1,1.7,1.2,2.27,2.27,0,0,0,.4-.1,3.77,3.77,0,0,0-.4-2.3c-.6-.7.3-1.8.3-1.8l-1.6-4.3-4.3-.7Z" transform="translate(-520.1 -244)"/><path class="cls-15" d="M681,482.2a31.9,31.9,0,0,1-5.1.7c-2.5.1-9.3,1.4-9.2,3.8s3.6,6,8,6.5,10.1-.7,13-.6a4.06,4.06,0,0,0,3.9-5.5C690.6,484.4,681,482.2,681,482.2Zm15.1-6.5s.9,1.5.4,2.4-1.8,3.1-5.8.9-11.7-5.3-11.7-5.3-4.4-2.3-4.1-5.1,4.4-2.3,4.4-2.3Z" transform="translate(-520.1 -244)"/><path class="cls-17" d="M651.6,377.8a13.64,13.64,0,0,1-3.8-.5c-1.2-.5-4.5-1.6-4.8-1.7s-2.1-.2-2.9-.8c0,0-.9.5-.2,1.2a5.21,5.21,0,0,0,2.2,1l1.3.8-2.9,1.5c-.2.1-2.5,1.8-2.7,1.9s-1.2.9-.8,1.6c0,0,0,.2.6.3,0,0-1.4.7-1.1,1.4s1.3.4,1.3.4.3,1.3,2.1.3c0,0,.2,1.6,4.1-.1a10.19,10.19,0,0,1,2.7-.3,11.89,11.89,0,0,0,5.9-1.9c1.6-1.2-1-5.1-1-5.1Z" transform="translate(-520.1 -244)"/><path class="cls-18" d="M646.5,384.7a11.89,11.89,0,0,0,5.9-1.9c1.1-.8.3-2.8-.3-4.1-.8-.4-1.5-.7-1.5-.7s.1,3.9,0,4.4-3.6,1.3-5.8,1.6a48.16,48.16,0,0,0-5.2,1.2c.2.4.9,1.1,4-.2.2.1,1.8-.3,2.9-.3Z" transform="translate(-520.1 -244)"/><path class="cls-19" d="M682.2,370.3s-5.5,1-7.4,1.6-17.6,3.7-23.3,5.1a1,1,0,0,0-.7.8,1.7,1.7,0,0,0,0,1c.2.6.7,7.2,3.9,6.1a52,52,0,0,1,6-1.2c2.2-.3,11.9-1,11.9-1l16.3-9.3-6.7-3.1Z" transform="translate(-520.1 -244)"/><path class="cls-15" d="M670.4,436.6s1.4,18,5,24.7c3.6,6.9,4.4,19.3,5.1,21.7s3.1,5.8,6.9,6.5,4.4-1.8,4.3-3.2-1.1-3.9-1.1-5.5a13,13,0,0,1,.5-3.1s4.3,1.3,5.1-2c0,0-.3-.9-.4-1.4s.6-12.3.8-13.8a64.09,64.09,0,0,0-1.6-13.1c-1.1-3.8-.5-12-.5-12L682,433.6l-11.6,3Z" transform="translate(-520.1 -244)"/><path class="cls-15" d="M690.7,436.7a12.71,12.71,0,0,1-1.4,5.1s-.2,9.5-1.3,14.3c0,0,1.4,9.6,2.4,12.6s.7,8.9.7,8.9a3.54,3.54,0,0,0,1.2.2c.7,0,1-11.6,0-13.7s-1.7-11.2-1.2-14.1.5-10.8,1.1-12.2a1.78,1.78,0,0,0-.6-2.2l-.9,1.1Zm-9.4-66.3a8.85,8.85,0,0,0-3.6,7.2l2.8-.5C680.4,377.1,679.7,372,681.3,370.4Z" transform="translate(-520.1 -244)"/><path class="cls-15" d="M681.5,440.5c8.3.3,12.8-3.2,12.8-3.2a17,17,0,0,1,.1-1.9l-12.5-1.8-11.5,3s.3,3.6.9,8.1c2,.2,4.1-4.6,4.1-4.6l5.7.4c0-.1-7.9-.3.4,0Z" transform="translate(-520.1 -244)"/><path class="cls-20" d="M672,436.9s17.9,7.3,26.9-6.2a2.2,2.2,0,0,0,.4-1.3v-3.2a5,5,0,0,1,.2-1.2,4.57,4.57,0,0,0,.2-2.6c-.6-3.6-2.2-13.4-2.6-16.1-.4-3.3,1.6-16.7,4.8-22.4s-4.2-18.8-4.2-18.8a5,5,0,0,0-5.6-2.1s3.5,2.5,1.5,5.1-7.8,4.6-7.8,4.6-10.8,5.4-14.6,12a29,29,0,0,0-1.5,7.9c-.2,4.4.1,15-.1,16.5s-.9,11.5-.9,12c.1.3,3.3,15.8,3.3,15.8Z" transform="translate(-520.1 -244)"/><path class="cls-15" d="M677.4,438.4s11.2-28.1,10.9-38.5c-.3-10.1-16,20.2-16,20.2l-.4,16.7a30.41,30.41,0,0,0,5.5,1.6Z" transform="translate(-520.1 -244)"/><path class="cls-21" d="M672.2,404.9a55.57,55.57,0,0,0,.8-7c.1-4.1,1.4-10.9,8.9-9.6,10.5,1.8,5.7,16.3,4.5,18.9s-6,13.9-6.3,14.6-7.7,14.7-10.4,18.1c-.2.3-.7.4-.9.1-1-.9-3.4-3-3.6-4.3-.4-1.7,1.2-7.8,1.2-7.8s4.3-15.4,4.7-16.1C671.3,411.2,671.6,408.6,672.2,404.9Z" transform="translate(-520.1 -244)"/><path class="cls-17" d="M681.5,370.8a3.89,3.89,0,0,0-2.8-2.2c-2-.3-3.1-.8-3.2-1.5a12.22,12.22,0,0,0-.6-2.7,26,26,0,0,1-.8-3.8c0-.1-1.5-.5-1.5-1.2s.8-3,.7-3.2a4.9,4.9,0,0,1-.7-2.7,18,18,0,0,1,.9-4.1c.6-1.3,4.9-9.6,15.7-5.1s2.3,13.5,3.3,19.4c0,0,.9,1.3-.9,3.3C689.7,369.3,684.5,369.6,681.5,370.8Z" transform="translate(-520.1 -244)"/><path class="cls-18" d="M691.5,367.2c1.8-2.1.9-3.3.9-3.3a7.67,7.67,0,0,1,.1-2.6l-4.3.7s-6.2-5.7-5.8-2.7-1.1,3.5-1.1,3.5l1.3,1.7c.3.4.1.9-.2,1.4-1.9,3-6.2,2.1-6.2,2.1a6.12,6.12,0,0,0,2.6.8,3.88,3.88,0,0,1,2.8,2.1c2.9-1.3,8.1-1.6,9.9-3.7Z" transform="translate(-520.1 -244)"/><path class="cls-22" d="M673,346.3s-.8,2.2.4,3.2l2.3,1.9-.1,2.8a2.66,2.66,0,0,0,.3,1.2l1.5,2.4a2.93,2.93,0,0,1,.4,1.6v1.1a.73.73,0,0,0,.6.7l.4.1a.56.56,0,0,0,.7-.6l.2-1.6s.8-1.3,2.6.3l1.6.7a1.76,1.76,0,0,1,.9,1c.4,1.2,1.3,3.7,2,4.1.9.6,4.7-1.3,5.2-2.1s1.9-6.5,2.7-9.2.5-9.4-7.5-11.2c-7.8-2.1-13.1,1.2-14.2,3.6Z" transform="translate(-520.1 -244)"/><path class="cls-23" d="M692.1,362.9c.5-.8,1.9-6.5,2.7-9.2a20.07,20.07,0,0,1-7.2,2.6c-4.1.5-12-4.2-12-4.2v2.1a2.66,2.66,0,0,0,.3,1.2l1.5,2.4a2.93,2.93,0,0,1,.4,1.6v1.1a.73.73,0,0,0,.6.7l.4.1a.56.56,0,0,0,.7-.6l.2-1.6s.8-1.3,2.6.3l2.3,1s1.3,4.2,2.3,4.8c1,.4,4.7-1.5,5.2-2.3Z" transform="translate(-520.1 -244)"/><path class="cls-24" d="M692.3,363.2s3.1,2,1.5,4.7-13,7.3-13.6,8c0,0-.4-4.1,1.1-5.4,0,0,8.7-1.5,10.1-3.7S692.3,363.2,692.3,363.2Z" transform="translate(-520.1 -244)"/><path class="cls-9" d="M692.3,363.2s.5,1.4-.9,3.6c-1.1,1.6-6.3,2.9-8.8,3.5,0,0,.9.5,2.4,3.1,3.5-1.7,7.8-4,8.7-5.5C695.4,365.1,692.3,363.2,692.3,363.2Z" transform="translate(-520.1 -244)"/><path class="cls-15" d="M686.5,390.7c2.8,8.9-4.8,22.4-6,26.3S668,439.2,668,439.3c.3.3.6.5.8.7a.63.63,0,0,0,.9-.1c2.6-3.4,10.1-17.5,10.4-18.1s5.1-12.1,6.3-14.6c1-2.1,4.2-11.8.1-16.5Zm7.7-18.9s-5.1,2.8-7.6,4-5.2,2.9-5.2,2.9l-.9-.9-1.2,2.4a31,31,0,0,0-5.7,4.1,21.53,21.53,0,0,0-3.4,4.9s4.9-6.2,8.7-8l1-.5.6-1.9.9,1c.1.2,11.2-6.3,12.8-8Z" transform="translate(-520.1 -244)"/><path class="cls-17" d="M612.8,372.4a7.27,7.27,0,0,0,2.6,0,6.65,6.65,0,0,1,4.6.2,6.39,6.39,0,0,0,2.8.7,14.31,14.31,0,0,1,2.6.4c.4.3,1.3.8.5,1.9s-3.7.1-4.1,0-1,.7-.8,1.5,4.6,5.5,5.3,6,3.6,2.4,3.7,3.2,0,.9,0,.9.9.8.6,1.5-1.6-.4-1.9-.2c0,0,.2.8-.1.9a8.09,8.09,0,0,1-2.5-.8s-.2.6-1.3,0-5.2-3-5.7-3.4a34.82,34.82,0,0,0-2.8-2.4,26.08,26.08,0,0,1-2.4-2.3,13.62,13.62,0,0,0-4.2-2c-1.1-.3,3.1-6.1,3.1-6.1Z" transform="translate(-520.1 -244)"/><path class="cls-18" d="M616.1,381c-1-1.8-4.2-3.1-4.2-3.1.2-1.4,2.3-5.4,2.3-5.4a11.35,11.35,0,0,1-1.4-.1s-4.2,5.7-3.2,5.9a16.35,16.35,0,0,1,4.2,2,26.08,26.08,0,0,0,2.4,2.3A22,22,0,0,1,619,385c.5.4,4.7,2.8,5.7,3.4s1.3,0,1.3,0c.2.2,2.1,1,2.5.8s.1-.9.1-.9a12.46,12.46,0,0,0-2.7-1.2c-1.4-.4-8.8-4.3-9.8-6.1Z" transform="translate(-520.1 -244)"/><path class="cls-17" d="M609.7,366.1a19,19,0,0,1,.3,3.9c-.2,1.7-3.6-.5-3.5-.8s1.7-2.9,1.7-2.9Z" transform="translate(-520.1 -244)"/><path class="cls-15" d="M594.4,313.6s1.9-.1,4.3,3.8c2.3,3.7,6.3,17.1,8.4,22.2a5.73,5.73,0,0,1,.4,1.4c.7,4,3.9,22.8,4,25a17.35,17.35,0,0,1-4,2l-3.4-1.1-3.4-34-5.5-18Zm-10.9,112s-.7,3.1-.3,3.8,4.4,5.2,4.9,5.9,2.5,4.4,6.4,5.3,6.5.7,7.1-1.1-1.8-4.8-2.8-5.8-5.5-6.2-6.3-7a3.57,3.57,0,0,0-2-.9l-5.1.9Zm15.7-9.4s3.9,1.5,5.9,2,6.8,4.1,6.8,5.9-2.4,3.1-4.8,2.9a14.7,14.7,0,0,1-5.8-2.1,14.37,14.37,0,0,0-4.1-1.9c-2-.6-5.2-.9-5.7-2a11.41,11.41,0,0,1-.6-3.2l8.3-1.6Z" transform="translate(-520.1 -244)"/><path class="cls-15" d="M590.4,415.5c0-.2.2-.5.2-.6a39.12,39.12,0,0,0,0-4.9l-.8,1.2s.6,3.9,1.8,10c.3,1.6,1.1,3.1,1.2,4,.3,2.6-1.2,3.1-1.2,3.1a5.4,5.4,0,0,1-6.8.2c-1-.8-1.3-2-2.6-6.4s-2.5-13.6-2.2-15.8a89.85,89.85,0,0,0,.9-11c0-3.7-2.9-15.5-2.9-15.5l11.7-2.3,8-4.1,6.1.9s.8-2.6,1.6,5.4-4.1,22.6-4.1,22.6c-1.3,7.1-1.6,15.4-2.4,16.5s-3.7,3.7-6.4,1.7a8.7,8.7,0,0,1-1.4-1.2l-.7-3.8Z" transform="translate(-520.1 -244)"/><path class="cls-15" d="M589.8,411.2a137.74,137.74,0,0,0,5.7-20.7c1.8-10,4.9-11.4,6.2-13.2a16.68,16.68,0,0,0,3,1.1h.3c.9,0-4.3,6.4-5.2,8.1s-6.3,15.8-6.7,17.8-.8,15.6-.3,16.4-1.5-.6-1.5-.6a30.44,30.44,0,0,1-1.5-8.9Z" transform="translate(-520.1 -244)"/><path class="cls-15" d="M599.8,373.8l-2.1-.3-8,4.1L578,379.9s2.8,11.8,2.9,15.5-.7,9.1-.9,11c-.3,2.2.9,11.4,2.2,15.8.6,1.9,1,3.2,1.3,4.1a3.46,3.46,0,0,0,2.4,2.9s-4.6-14.2-4.2-22.6c.4-8.2,1.6-15.1,1.4-16.6,0,0,13.4-4.1,15.9-12.7a22.92,22.92,0,0,1,.8-3.5Z" transform="translate(-520.1 -244)"/><path class="cls-25" d="M576.6,315.5a3.9,3.9,0,0,0-1.2,1.6c-.2.8-1.4,3.7-1.4,3.7s-5.6,7.4-6.6,9.7a19.76,19.76,0,0,0-1.3,4L581,352.7s-5.2,17.8-3.7,24.4,3.4,9,5.7,9.8,14.8-4.4,15.6-10.9.5-7.3.5-7.3,5.8,1.5,6.2.1-.7-12.1-1-13.6-1.2-18.3-1.2-18.3-3.5-15.5-3.7-16.2-2.4-6.6-5.2-6.9-6.3,4.2-6.3,4.2Z" transform="translate(-520.1 -244)"/><path class="cls-24" d="M577.3,314.9a1.74,1.74,0,0,0-.7,1,3.51,3.51,0,0,0,.4,3.2c1,1.3,9.6,8.3,13,14.1s7.8,12.5,8.2,13.9c0,0,1.6-9.3.2-13.7s-5.9-13-6.9-13.6-6.8-1.2-6.8-1.2l-7.4-3.7Z" transform="translate(-520.1 -244)"/><path class="cls-9" d="M586.1,324.3a5.39,5.39,0,0,0-.6,1.3s-2.5-1.3-3.5-1.7l3.8,2.6a6.18,6.18,0,0,1,.4-1.6,13.22,13.22,0,0,1,2.5,2.4c.3.8,4.3,10.9,4.3,10.9l2.1,3.4.5-.8-3.4-9.4s-1.9-2.9-2-3l-1.3-3.2C588.9,325.1,586.1,324.3,586.1,324.3Z" transform="translate(-520.1 -244)"/><path class="cls-15" d="M586.1,324.3a4.68,4.68,0,0,1,3.7-2.3s.7,2.9.9,4.1c0,0-1.6.7-2.2.1A30.53,30.53,0,0,0,586.1,324.3Z" transform="translate(-520.1 -244)"/><path class="cls-15" d="M590.3,325.5s6.3,7.7,8.5,17.1l-.5,4.8-3.3-5.9s-5.4-13.5-6.7-16S590.3,325.5,590.3,325.5Zm-10.4,31c-.4,1.7-.9,3.7-1.4,5.9,0,0,9.3,12.1,18.3,17a7.49,7.49,0,0,0,1.7-3.6c.4-3.4.6-5.2.6-6.2l-10.5-8C588.6,361.7,579.9,356.5,579.9,356.5Zm-.6-17.8s2.7,3.7,3.4,4,6.5,10.5,7.7,12.4a29.32,29.32,0,0,0,4.3,4.6l-2.9.3-11.6-15.5Z" transform="translate(-520.1 -244)"/><path class="cls-26" d="M580.9,341.9a20.09,20.09,0,0,0-5.3-7.5c-2.7-2.2-6.2-4.4-8-2.4-3.3,3.4-1.9,9.9,2.7,16s11.8,14.9,13.5,16.3,15.6,11.9,23.6,15.9a1.31,1.31,0,0,0,1.7-.5c1.1-1.8,3.4-5.6,4.2-7.2a.65.65,0,0,0-.2-.9c-2.9-1.9-17.6-11.3-21.9-14.2a4.64,4.64,0,0,1-1.6-1.8c-1.3-2.5-4.5-8.6-7.4-11.7a5.78,5.78,0,0,1-1.3-2C581,342,580.9,342,580.9,341.9Z" transform="translate(-520.1 -244)"/><path class="cls-15" d="M591.7,316.9l5.1,5.2-1.3.5,1.7,1a48.9,48.9,0,0,1,3.2,20.6s2-8.6-2.4-20.8l-1.4-.7.9-.3Z" transform="translate(-520.1 -244)"/><path class="cls-17" d="M577.2,314a1.27,1.27,0,0,1,.1.6c0,.5-.1,1.2-.1,1.6a11.19,11.19,0,0,0,9.8,5.9s.8-1.2.9-1.4c0,0,2.7-.1,3.8-1.1s.4-2.7.4-2.7l.2-2a.71.71,0,0,1,.3-.6,4.17,4.17,0,0,0,.6-.8c.1-.2-.1-.7-.2-.9s-.1-.4,0-.6a8.48,8.48,0,0,0-.2-3,2.44,2.44,0,0,1,0-1.2,10.8,10.8,0,0,0,.4-1.9c0-.5-.9-1.9-.9-2.5a11,11,0,0,0-.8-2.4s-4.9-9.1-12.8-5.1-3.8,12.4-2.8,14.8c0,0,.9,2,1.1,2.4S577,313.6,577.2,314Z" transform="translate(-520.1 -244)"/><path class="cls-22" d="M592.1,301.9a1.9,1.9,0,0,1-.7,1.7,10.81,10.81,0,0,1-5.4,2.6c-1.8.2-2.7.3-3.3.3-.4,0-.6.3-.7.7a16.41,16.41,0,0,1-.2,2.3,2.35,2.35,0,0,1-.2.8l-.6,1.2a.63.63,0,0,1-.8.4h-.1c-.4,0-.6-.3-.7-.7v-.1a2.91,2.91,0,0,0-1.5-2.2,1.69,1.69,0,0,0-1.4-.1,1.39,1.39,0,0,0-.8,1.9,13.34,13.34,0,0,1-2.4-4.6c-.7-2.6-.6-7.4,2.9-9.8s7.9-3.5,11.7-.8c3.3,2.3,4.1,5,4.2,6.4Z" transform="translate(-520.1 -244)"/><path class="cls-18" d="M579.1,313c-.2-.2.1,1.6-1.8,1.7,0,.5-.1,1.2-.1,1.6a11.19,11.19,0,0,0,9.8,5.9s.8-1.2.9-1.4c0,0-6-2.9-7.1-4.2C579.9,315.2,579.3,313.2,579.1,313Z" transform="translate(-520.1 -244)"/><path class="cls-9" d="M589.8,322a8.3,8.3,0,0,1,2.6.7,3.54,3.54,0,0,0-.2-1.9s.5.4.5,2.6c0,0-2.6-.8-2.8-.9A4.33,4.33,0,0,0,589.8,322Z" transform="translate(-520.1 -244)"/><path class="cls-15" d="M609.7,378.3s-15.2-8.7-20.3-12.2-19.5-18.1-22.5-23.8a31.48,31.48,0,0,0,3.3,5.8c4.6,6.1,11.8,14.9,13.5,16.3s15.6,11.9,23.6,15.9a1.31,1.31,0,0,0,1.7-.5l.8-1.3C609.8,378.3,609.7,378.3,609.7,378.3Zm-34.9-57.1,6.9,9.9,1.8-.6.1,1.9s8.3,6.2,14.5,19c0,0-8.2-13.2-14.8-17.6l-.6-1.9-1.4.3Z" transform="translate(-520.1 -244)"/><path class="cls-23" d="M574.2,307.5c-.1,0-.2,0-.2-.1a13.45,13.45,0,0,0,2,3.4,1.39,1.39,0,0,1,.8-1.9,1.69,1.69,0,0,1,1.4.1,2.75,2.75,0,0,1,1.5,2.2v.1a.85.85,0,0,0,.7.7h.1a1.23,1.23,0,0,0,.8-.4l.6-1.2a1.88,1.88,0,0,0,.2-.8,19.53,19.53,0,0,0,.2-2.3c-.1-.1-4.8,1.4-8.1.2Z" transform="translate(-520.1 -244)"/><path class="cls-27" d="M657.2,294.8l-3.4-2v6.6l3.4,2Z" transform="translate(-520.1 -244)"/><path class="cls-28" d="M663.3,310.3l-3.4-2v-5.4l3.4,2Z" transform="translate(-520.1 -244)"/><path class="cls-29" d="M669.4,303.5l-3.4-2v4.8l3.4,2Z" transform="translate(-520.1 -244)"/><path class="cls-30" d="M675.5,302.2l-3.4-2v9.7l3.4,2Zm6-.7-3.4-2v13.9l3.4,2Z" transform="translate(-520.1 -244)"/><path class="cls-29" d="M687.6,309.2l-3.4-2v9.7l3.4,2Z" transform="translate(-520.1 -244)"/><path class="cls-28" d="M693.7,310.2l-3.4-2v12.2l3.4,2Z" transform="translate(-520.1 -244)"/><path class="cls-27" d="M699.8,308.5l-3.4-2v17.4l3.4,2Z" transform="translate(-520.1 -244)"/><path class="cls-31" d="M759,410.2c.8.5,1.5.2,1.5-.6V374.7a3,3,0,0,0-1.5-2.3c-.8-.5-1.5-.2-1.5.6v34.9A3,3,0,0,0,759,410.2Z" transform="translate(-520.1 -244)"/><path class="cls-32" d="M753.8,407.2c.8.5,1.5.2,1.5-.6V383.8a3,3,0,0,0-1.5-2.3c-.8-.4-1.5-.2-1.5.6v22.8A2.9,2.9,0,0,0,753.8,407.2Z" transform="translate(-520.1 -244)"/><path class="cls-33" d="M748.5,404.2c.8.5,1.5.2,1.5-.6V373a3,3,0,0,0-1.5-2.3c-.8-.4-1.5-.2-1.5.6v30.6A3.36,3.36,0,0,0,748.5,404.2Z" transform="translate(-520.1 -244)"/><path class="cls-3" d="M743.2,401.1c.8.5,1.5.2,1.5-.6v-19a3,3,0,0,0-1.5-2.3c-.8-.4-1.5-.2-1.5.6v19A3.16,3.16,0,0,0,743.2,401.1Zm-5.2-3c.8.5,1.5.2,1.5-.6V376.7a3,3,0,0,0-1.5-2.3c-.8-.4-1.5-.2-1.5.6v20.8A2.9,2.9,0,0,0,738,398.1Z" transform="translate(-520.1 -244)"/><path class="cls-33" d="M732.7,395c.8.5,1.5.2,1.5-.6V380.6a3,3,0,0,0-1.5-2.3c-.8-.4-1.5-.2-1.5.6v13.8A3,3,0,0,0,732.7,395Z" transform="translate(-520.1 -244)"/><path class="cls-32" d="M727.4,392c.8.5,1.5.2,1.5-.6V374.6a3,3,0,0,0-1.5-2.3c-.8-.5-1.5-.2-1.5.6v16.8A3.16,3.16,0,0,0,727.4,392Z" transform="translate(-520.1 -244)"/><path class="cls-31" d="M722.2,388.9c.8.5,1.5.2,1.5-.6v-6.1a3,3,0,0,0-1.5-2.3c-.8-.4-1.5-.2-1.5.6v6.1A2.76,2.76,0,0,0,722.2,388.9Z" transform="translate(-520.1 -244)"/><path class="cls-34" d="M628.1,486.2l-39.8-22.8a1.56,1.56,0,0,1-.8-.6,1.75,1.75,0,0,1,.4-2.4.76.76,0,0,1,.4-.2l27.2-15.6a6.14,6.14,0,0,1,5.6,0l39.8,22.8a1.75,1.75,0,0,1,1.1,2.2c-.1.2-.1.3-.2.4a1.56,1.56,0,0,1-.8.6l-27.2,15.6a6.35,6.35,0,0,1-5.7,0Z" transform="translate(-520.1 -244)"/><path class="cls-35" d="M721.1,419.7c-6.1-16.9,3.4-33.4,21.2-37s37.1,7.2,43.1,24.1-3.4,33.4-21.2,37-37-7.3-43.1-24.1Z" transform="translate(-520.1 -244)"/><path class="cls-36" d="M741.1,375.5c-3.8-10.6,2.2-21.1,13.4-23.3s23.4,4.6,27.2,15.2-2.2,21.1-13.4,23.3-23.4-4.5-27.2-15.2Z" transform="translate(-520.1 -244)"/></svg>