<svg id="Слой_1" data-name="Слой 1" xmlns="http://www.w3.org/2000/svg" xmlns:xlink="http://www.w3.org/1999/xlink" viewBox="0 0 542.7 575.56"><defs><style>.cls-1,.cls-39{fill:#58a0fa;}.cls-1{opacity:0.4;}.cls-1,.cls-10,.cls-11,.cls-12,.cls-13,.cls-14,.cls-15,.cls-16,.cls-17,.cls-18,.cls-19,.cls-2,.cls-20,.cls-21,.cls-22,.cls-25,.cls-4,.cls-49,.cls-5,.cls-50,.cls-51,.cls-52,.cls-53,.cls-54,.cls-55,.cls-56,.cls-57,.cls-58,.cls-59,.cls-6,.cls-60,.cls-61,.cls-62,.cls-63,.cls-64,.cls-65,.cls-66,.cls-67,.cls-68,.cls-69,.cls-70,.cls-71,.cls-72,.cls-73,.cls-74,.cls-8,.cls-9{isolation:isolate;}.cls-2{fill:#e9e4db;}.cls-2,.cls-22,.cls-3,.cls-49,.cls-5,.cls-50,.cls-51,.cls-52,.cls-53,.cls-54,.cls-55,.cls-57,.cls-58,.cls-59,.cls-6,.cls-60,.cls-61,.cls-62,.cls-63,.cls-64,.cls-65,.cls-66,.cls-67,.cls-68,.cls-69,.cls-70,.cls-71,.cls-72,.cls-73,.cls-74{opacity:0.5;}.cls-4,.cls-5{fill:#85b8f8;}.cls-4{opacity:0.5;}.cls-6{fill:#f8f9fb;}.cls-10,.cls-11,.cls-12,.cls-13,.cls-14,.cls-15,.cls-16,.cls-17,.cls-18,.cls-19,.cls-20,.cls-21,.cls-7,.cls-8,.cls-9{opacity:0.11;}.cls-8{fill:url(#Безымянный_градиент_19);}.cls-9{fill:url(#Безымянный_градиент_49);}.cls-10{fill:url(#Безымянный_градиент_19-2);}.cls-11{fill:url(#Безымянный_градиент_19-3);}.cls-12{fill:url(#Безымянный_градиент_19-4);}.cls-13{fill:url(#Безымянный_градиент_6);}.cls-14{fill:url(#Безымянный_градиент_19-5);}.cls-15{fill:url(#Безымянный_градиент_19-6);}.cls-16{fill:url(#Безымянный_градиент_49-2);}.cls-17{fill:url(#Безымянный_градиент_49-3);}.cls-18{fill:url(#Безымянный_градиент_49-4);}.cls-19{fill:url(#Безымянный_градиент_49-5);}.cls-20{fill:url(#Безымянный_градиент_49-6);}.cls-21{fill:url(#Безымянный_градиент_49-7);}.cls-22{fill:url(#Безымянный_градиент_15);}.cls-23{fill:url(#Безымянный_градиент_49-9);}.cls-24,.cls-53,.cls-56{fill:#fff;}.cls-25{fill:#180d5b;opacity:0.2;}.cls-26{fill:#160a5b;}.cls-27{fill:#093d89;}.cls-28{fill:url(#Безымянный_градиент_19-7);}.cls-29{fill:url(#Безымянный_градиент_19-8);}.cls-30{fill:#4846a5;}.cls-31{fill:#fcd1c5;}.cls-32{fill:url(#Безымянный_градиент_49-10);}.cls-33{fill:#f0f6ff;}.cls-34{fill:#aa8383;}.cls-35{fill:#c4ccd6;}.cls-36{fill:#e2b1a6;}.cls-37{fill:#1b2b3a;}.cls-38{fill:#936d6d;}.cls-40{fill:url(#Безымянный_градиент_49-11);}.cls-41{fill:url(#Безымянный_градиент_49-12);}.cls-42{fill:url(#Безымянный_градиент_49-13);}.cls-43{fill:url(#Безымянный_градиент_49-14);}.cls-44{fill:#722318;}.cls-45{fill:#4773c3;}.cls-46{fill:url(#Безымянный_градиент_25);}.cls-47{fill:#ccc7bf;}.cls-48{fill:#0f054c;}.cls-49{fill:url(#Безымянный_градиент_49-15);}.cls-50{fill:url(#Безымянный_градиент_49-16);}.cls-51{fill:url(#Безымянный_градиент_49-17);}.cls-52{fill:url(#Безымянный_градиент_47);}.cls-54{fill:url(#Безымянный_градиент_49-18);}.cls-55{fill:url(#Безымянный_градиент_49-19);}.cls-56{opacity:0.8;}.cls-57{fill:url(#Безымянный_градиент_49-20);}.cls-58{fill:url(#Безымянный_градиент_49-21);}.cls-59{fill:url(#Безымянный_градиент_49-22);}.cls-60{fill:url(#Безымянный_градиент_47-2);}.cls-61{fill:url(#Безымянный_градиент_49-23);}.cls-62{fill:url(#Безымянный_градиент_49-24);}.cls-63{fill:url(#Безымянный_градиент_49-25);}.cls-64{fill:url(#Безымянный_градиент_49-26);}.cls-65{fill:url(#Безымянный_градиент_49-27);}.cls-66{fill:url(#Безымянный_градиент_47-3);}.cls-67{fill:url(#Безымянный_градиент_49-28);}.cls-68{fill:url(#Безымянный_градиент_49-29);}.cls-69{fill:url(#Безымянный_градиент_49-30);}.cls-70{fill:url(#Безымянный_градиент_49-31);}.cls-71{fill:url(#Безымянный_градиент_49-32);}.cls-72{fill:url(#Безымянный_градиент_47-4);}.cls-73{fill:url(#Безымянный_градиент_49-33);}.cls-74{fill:url(#Безымянный_градиент_49-34);}.cls-75{fill:#7bd7ff;}.cls-76{fill:#4685ff;}.cls-77{fill:#1346c3;}.cls-78{fill:#78a6ff;}</style><linearGradient id="Безымянный_градиент_19" x1="586.58" y1="169.42" x2="837.01" y2="169.42" gradientTransform="matrix(1, 0, 0, -1, 0, 770)" gradientUnits="userSpaceOnUse"><stop offset="0" stop-color="#5761d7"/><stop offset="0.07" stop-color="#5472d8"/><stop offset="0.28" stop-color="#4e9cdb"/><stop offset="0.48" stop-color="#49bddd"/><stop offset="0.67" stop-color="#45d5df"/><stop offset="0.85" stop-color="#43e3e0"/><stop offset="1" stop-color="#42e8e0"/></linearGradient><linearGradient id="Безымянный_градиент_49" x1="632.57" y1="114.55" x2="871.86" y2="339.04" gradientTransform="matrix(1, 0, 0, -1, 0, 770)" gradientUnits="userSpaceOnUse"><stop offset="0" stop-color="#4b79ce"/><stop offset="0.41" stop-color="#426ab3"/><stop offset="1" stop-color="#2b4a81"/></linearGradient><linearGradient id="Безымянный_градиент_19-2" x1="586.58" y1="207.97" x2="837.01" y2="207.97" xlink:href="#Безымянный_градиент_19"/><linearGradient id="Безымянный_градиент_19-3" x1="586.58" y1="227.22" x2="837.01" y2="227.22" xlink:href="#Безымянный_градиент_19"/><linearGradient id="Безымянный_градиент_19-4" x1="586.58" y1="198.32" x2="837.01" y2="198.32" xlink:href="#Безымянный_градиент_19"/><linearGradient id="Безымянный_градиент_6" x1="586.58" y1="249.12" x2="837.01" y2="249.12" gradientTransform="matrix(1, 0, 0, -1, 0, 770)" gradientUnits="userSpaceOnUse"><stop offset="0" stop-color="#5761d7"/><stop offset="0.07" stop-color="#5472d8"/><stop offset="0.28" stop-color="#417dad"/><stop offset="0.48" stop-color="#49bddd"/><stop offset="0.67" stop-color="#45d5df"/><stop offset="0.85" stop-color="#43e3e0"/><stop offset="1" stop-color="#7989c5"/></linearGradient><linearGradient id="Безымянный_градиент_19-5" x1="586.58" y1="268.39" x2="837.01" y2="268.39" xlink:href="#Безымянный_градиент_19"/><linearGradient id="Безымянный_градиент_19-6" x1="586.58" y1="287.66" x2="837.01" y2="287.66" xlink:href="#Безымянный_градиент_19"/><linearGradient id="Безымянный_градиент_49-2" x1="632.57" y1="232.76" x2="871.88" y2="457.24" xlink:href="#Безымянный_градиент_49"/><linearGradient id="Безымянный_градиент_49-3" x1="608.71" y1="209.45" x2="920.18" y2="417.1" xlink:href="#Безымянный_градиент_49"/><linearGradient id="Безымянный_градиент_49-4" x1="632.57" y1="254.66" x2="871.88" y2="479.14" xlink:href="#Безымянный_градиент_49"/><linearGradient id="Безымянный_градиент_49-5" x1="632.57" y1="273.93" x2="871.88" y2="498.42" xlink:href="#Безымянный_градиент_49"/><linearGradient id="Безымянный_градиент_49-6" x1="632.57" y1="293.2" x2="871.88" y2="517.69" xlink:href="#Безымянный_градиент_49"/><linearGradient id="Безымянный_градиент_49-7" x1="632.57" y1="312.45" x2="871.88" y2="536.94" xlink:href="#Безымянный_градиент_49"/><linearGradient id="Безымянный_градиент_15" x1="586.58" y1="357.72" x2="837.01" y2="357.72" gradientTransform="matrix(1, 0, 0, -1, 0, 770)" gradientUnits="userSpaceOnUse"><stop offset="0" stop-color="#5761d7"/><stop offset="0.07" stop-color="#5472d8"/><stop offset="0.28" stop-color="#4e9cdb"/><stop offset="0.48" stop-color="#4972dd"/><stop offset="0.67" stop-color="#7399e5"/><stop offset="0.85" stop-color="#739ceb"/><stop offset="1" stop-color="#9ab4e8"/></linearGradient><linearGradient id="Безымянный_градиент_49-9" x1="663.13" y1="297.43" x2="766" y2="486.37" xlink:href="#Безымянный_градиент_49"/><linearGradient id="Безымянный_градиент_19-7" x1="689.15" y1="437.27" x2="699.99" y2="437.27" xlink:href="#Безымянный_градиент_19"/><linearGradient id="Безымянный_градиент_19-8" x1="694.67" y1="461.11" x2="721.82" y2="461.11" xlink:href="#Безымянный_градиент_19"/><linearGradient id="Безымянный_градиент_49-10" x1="698.48" y1="481.21" x2="725.54" y2="507.62" xlink:href="#Безымянный_градиент_49"/><linearGradient id="Безымянный_градиент_49-11" x1="746.8" y1="530.64" x2="750.6" y2="532.5" xlink:href="#Безымянный_градиент_49"/><linearGradient id="Безымянный_градиент_49-12" x1="719.71" y1="430.19" x2="765.58" y2="468.41" xlink:href="#Безымянный_градиент_49"/><linearGradient id="Безымянный_градиент_49-13" x1="753.76" y1="492.88" x2="766.86" y2="494.23" xlink:href="#Безымянный_градиент_49"/><linearGradient id="Безымянный_градиент_49-14" x1="716.9" y1="410.06" x2="721.55" y2="413.73" xlink:href="#Безымянный_градиент_49"/><linearGradient id="Безымянный_градиент_25" x1="703.5" y1="406.96" x2="716.7" y2="379.05" gradientTransform="matrix(1, 0, 0, -1, 0, 770)" gradientUnits="userSpaceOnUse"><stop offset="0" stop-color="#f47920"/><stop offset="0.9" stop-color="#f7bb62" stop-opacity="0.7"/></linearGradient><linearGradient id="Безымянный_градиент_49-15" x1="835.23" y1="418.96" x2="937.61" y2="513.25" xlink:href="#Безымянный_градиент_49"/><linearGradient id="Безымянный_градиент_49-16" x1="875.12" y1="454.24" x2="936.49" y2="499.41" xlink:href="#Безымянный_градиент_49"/><linearGradient id="Безымянный_градиент_49-17" x1="822.47" y1="454.25" x2="883.83" y2="499.4" xlink:href="#Безымянный_градиент_49"/><linearGradient id="Безымянный_градиент_47" x1="816.44" y1="457.81" x2="921.75" y2="457.81" gradientTransform="matrix(1, 0, 0, -1, 0, 770)" gradientUnits="userSpaceOnUse"><stop offset="0" stop-color="#2a4c4a"/><stop offset="0.15" stop-color="#4383e3"/><stop offset="0.33" stop-color="#4567df"/><stop offset="0.52" stop-color="#497bdd"/><stop offset="0.72" stop-color="#4e9cdb"/><stop offset="0.93" stop-color="#5472d8"/><stop offset="1" stop-color="#5761d7"/></linearGradient><linearGradient id="Безымянный_градиент_49-18" x1="875.11" y1="423.84" x2="936.5" y2="469.01" xlink:href="#Безымянный_градиент_49"/><linearGradient id="Безымянный_градиент_49-19" x1="822.46" y1="423.84" x2="883.85" y2="468.99" xlink:href="#Безымянный_градиент_49"/><linearGradient id="Безымянный_градиент_49-20" x1="850.89" y1="232.45" x2="953.26" y2="326.74" xlink:href="#Безымянный_градиент_49"/><linearGradient id="Безымянный_градиент_49-21" x1="890.77" y1="267.73" x2="952.15" y2="312.9" xlink:href="#Безымянный_градиент_49"/><linearGradient id="Безымянный_градиент_49-22" x1="838.12" y1="267.74" x2="899.49" y2="312.89" xlink:href="#Безымянный_градиент_49"/><linearGradient id="Безымянный_градиент_47-2" x1="832.09" y1="271.3" x2="937.41" y2="271.3" xlink:href="#Безымянный_градиент_47"/><linearGradient id="Безымянный_градиент_49-23" x1="890.76" y1="237.33" x2="952.16" y2="282.49" xlink:href="#Безымянный_градиент_49"/><linearGradient id="Безымянный_градиент_49-24" x1="838.11" y1="237.33" x2="899.5" y2="282.47" xlink:href="#Безымянный_градиент_49"/><linearGradient id="Безымянный_градиент_49-25" x1="514.21" y1="415.23" x2="616.58" y2="509.52" xlink:href="#Безымянный_градиент_49"/><linearGradient id="Безымянный_градиент_49-26" x1="554.09" y1="450.51" x2="615.47" y2="495.68" xlink:href="#Безымянный_градиент_49"/><linearGradient id="Безымянный_градиент_49-27" x1="501.44" y1="450.51" x2="562.81" y2="495.66" xlink:href="#Безымянный_градиент_49"/><linearGradient id="Безымянный_градиент_47-3" x1="495.41" y1="454.08" x2="600.73" y2="454.08" xlink:href="#Безымянный_градиент_47"/><linearGradient id="Безымянный_градиент_49-28" x1="554.08" y1="420.11" x2="615.48" y2="465.27" xlink:href="#Безымянный_градиент_49"/><linearGradient id="Безымянный_градиент_49-29" x1="501.43" y1="420.11" x2="562.82" y2="465.25" xlink:href="#Безымянный_градиент_49"/><linearGradient id="Безымянный_градиент_49-30" x1="529.86" y1="228.72" x2="632.23" y2="323" xlink:href="#Безымянный_градиент_49"/><linearGradient id="Безымянный_градиент_49-31" x1="569.74" y1="264" x2="631.11" y2="309.17" xlink:href="#Безымянный_градиент_49"/><linearGradient id="Безымянный_градиент_49-32" x1="517.09" y1="264" x2="578.45" y2="309.15" xlink:href="#Безымянный_градиент_49"/><linearGradient id="Безымянный_градиент_47-4" x1="511.06" y1="267.56" x2="616.38" y2="267.56" xlink:href="#Безымянный_градиент_47"/><linearGradient id="Безымянный_градиент_49-33" x1="569.73" y1="233.6" x2="631.13" y2="278.76" xlink:href="#Безымянный_градиент_49"/><linearGradient id="Безымянный_градиент_49-34" x1="517.08" y1="233.6" x2="578.47" y2="278.74" xlink:href="#Безымянный_градиент_49"/></defs><title>history-1</title><path class="cls-1" d="M901.49,211.51q7.63,2,15,4.11v36.22q-7.37-2.13-15-4.11Z" transform="translate(-411 -96)"/><path class="cls-2" d="M866.77,213q8.15,1.54,16.07,3.31v26.93q-7.92-1.76-16.07-3.31Z" transform="translate(-411 -96)"/><path class="cls-1" d="M829.84,183.53q8.63,1.11,17,2.45v50.53c-5.61-.88-11.3-1.7-17-2.46Z" transform="translate(-411 -96)"/><path class="cls-2" d="M791,151.67c6,.43,12,.93,17.87,1.52v78.47c-5.9-.59-11.84-1.09-17.87-1.52Z" transform="translate(-411 -96)"/><path class="cls-2" d="M750.69,168.33c6.26.09,12.45.27,18.61.52v59.86c-6.16-.25-12.35-.43-18.61-.52Z" transform="translate(-411 -96)"/><path class="cls-1" d="M709.69,105.86c6.1-.25,12.26-.41,18.44-.51v123q-9.3.15-18.44.51Z" transform="translate(-411 -96)"/><path class="cls-1" d="M670.2,131.19c5.86-.56,11.81-1.07,17.77-1.5V230.1q-9,.65-17.77,1.5Z" transform="translate(-411 -96)"/><path class="cls-1" d="M632.34,98.42q8.38-1.32,17-2.42V234c-5.73.74-11.4,1.53-17,2.41Z" transform="translate(-411 -96)"/><g class="cls-3"><path class="cls-4" d="M517.88,129.36c47.31-14.24,75.44,39.36,47.81,91-23.46,43.87-80.65,75.53-95.59,29.47-8.81-27.11-1.5-93.51,43.24-118.55-12.06,6.23-20.91,15.06-29.6,29.5,16.5,20.3,17.85,22,32.09,38.34,16.88-39.86,18.26-43.12,30.73-70.08C536.82,125.7,528.24,125.77,517.88,129.36Zm-3.32,1.38c-.35.16-.72.33-1.07.51C513.84,131.07,514.19,130.9,514.56,130.74Zm2.4-1,.8-.31Zm-1.13.47-1.11.48Zm0,0c.29-.12.6-.26.9-.37C516.43,129.92,516.14,130.06,515.83,130.18Z" transform="translate(-411 -96)"/><path class="cls-5" d="M437.89,180.2c2.77-2.91,5.73-5.75,8.89-8.56v138q-4.74,4.2-8.89,8.55Z" transform="translate(-411 -96)"/><path class="cls-5" d="M423.71,246.7a105.59,105.59,0,0,1,6.49-9.14V327a102.6,102.6,0,0,0-6.49,9.14Z" transform="translate(-411 -96)"/><path class="cls-4" d="M411,350.67l.14.32.18-9.07-.32-.48Zm0,26.7v-138c0-.87,0-1.77.06-2.65a70.94,70.94,0,0,1,3.26-18.59v138a71.56,71.56,0,0,0-3.26,18.59C411,375.6,411,376.47,411,377.37Z" transform="translate(-411 -96)"/><path class="cls-5" d="M411,350.67l.14.34.18-9.07-.32-.48Z" transform="translate(-411 -96)"/><path class="cls-5" d="M513.5,131.25l-.16.08A.4.4,0,0,1,513.5,131.25Zm4.27-1.83a.3.3,0,0,1,.11,0A.3.3,0,0,0,517.77,129.42Zm-3,1.24-.18.08Zm2-.85a0,0,0,0,0,0,0,0,0,0,0,0,0,0s0,0,0,0a0,0,0,0,0,0,0,0,0,0,0,0,0,0,0,0,0,0,0,0,0,0,0,0,0,0,0,0,0,0,0,0,0,0,0C516.89,129.75,516.83,129.77,516.75,129.81Z" transform="translate(-411 -96)"/><path class="cls-6" d="M515.84,130.18c15.41-6.43,26.54-2.56,30.73-1.09C528.93,168,527.08,172,515.84,199.18c-17.38-20.21-20.05-23.33-32.09-38.35C487.16,155.14,497.52,137.91,515.84,130.18Z" transform="translate(-411 -96)"/></g><g class="cls-3"><path class="cls-4" d="M625.3,469.55c-14.19,4.21-23.31-4.4-26.64-6.95-26-22.06-48.87-49-75-71-7.74-6.49-12.45-3.8-15.14-3.1-48.75,19.33-48.75,19.33-56.57,7.54-14.32-25.35-14.8-27.39-21.45-43.25-1.52-3.63-6.68-9.1-9-8.81-10.93,3.08-9.49,5.32-10.5,6.64v-9.21c12.89-5,14.22-5.58,19.46,6.43,24.09,51.11,28.31,50,33.93,48.65,51.3-20.52,50.66-19,63.73-5.43,22.62,23.55,68.24,69.4,82.33,73.05a48.92,48.92,0,0,0,15.26-1.09c49.53-16.59,69.17-27,117.63-47.9l4.34,7c-17.94,7.84-72.15,29.16-122.05,44.88Zm154.81,55.63v-138q-22.86,1.29-46.59,1.11C554.21,386.9,411,320.47,411,239.37v138c0,81.08,143.19,147.52,322.5,148.95Q757.22,526.49,780.11,525.18Z" transform="translate(-411 -96)"/><path class="cls-5" d="M625.3,469.55c-12.76,3.28-24.82,6.36-99.94-74.43-9.51-9.55-9.51-9.55-58.28,9.88-5.54,1.34-13.91,3.37-37-51.64-7.12-16.25-19-2.84-19.12-2.69v-9.21c4-2.3,4.31-2.46,10.37-4.15a4.51,4.51,0,0,1,3.33.27c1.62.84,3.25,2.75,6.1,8.81,13.29,28.29,13.29,28.29,22.85,43.78,5.63,8.36,5.63,8.36,51.43-9.8,3.11-.84,9.62-2.59,19.44,5.24,27.57,22,50,49.49,77.22,71.88,10.21,7.27,16.39,11.65,141.62-42.3l4.35,7C729.8,430,675.2,453.85,625.3,469.55Z" transform="translate(-411 -96)"/></g><g class="cls-3"><g class="cls-7"><path class="cls-8" d="M721.48,532.16a19.2,19.2,0,0,0-19.2,0L587.93,598a2.7,2.7,0,0,0,0,4.68L703.24,669.3a17,17,0,0,0,16.93,0l115.49-66.5a2.71,2.71,0,0,0,0-4.68Z" transform="translate(-411 -96)"/></g><g class="cls-7"><path class="cls-9" d="M721.48,512.89a19.25,19.25,0,0,0-19.2,0L587.93,578.75a2.7,2.7,0,0,0,0,4.68L703.24,650a17,17,0,0,0,16.93,0l115.49-66.5a2.71,2.71,0,0,0,0-4.68Z" transform="translate(-411 -96)"/></g><g class="cls-7"><path class="cls-10" d="M721.48,493.62a19.2,19.2,0,0,0-19.2,0L587.93,559.5a2.69,2.69,0,0,0,0,4.67l115.31,66.59a17,17,0,0,0,16.93,0l115.49-66.51a2.7,2.7,0,0,0,0-4.67Z" transform="translate(-411 -96)"/></g><g class="cls-7"><path class="cls-11" d="M721.48,474.37a19.2,19.2,0,0,0-19.2,0L587.93,540.25a2.69,2.69,0,0,0,0,4.67l115.31,66.59a17,17,0,0,0,16.93,0L835.66,545a2.7,2.7,0,0,0,0-4.67Z" transform="translate(-411 -96)"/></g><path class="cls-12" d="M835.66,540.29,721.48,474.37a19.2,19.2,0,0,0-19.2,0L587.93,540.25a2.66,2.66,0,0,0-1.35,2.33v57.8a2.68,2.68,0,0,0,1.35,2.34L703.24,669.3a17,17,0,0,0,16.93,0l115.49-66.5a2.69,2.69,0,0,0,1.35-2.34v-57.8A2.66,2.66,0,0,0,835.66,540.29Z" transform="translate(-411 -96)"/></g><g class="cls-7"><path class="cls-13" d="M721.48,452.47a19.2,19.2,0,0,0-19.2,0L587.93,518.35a2.69,2.69,0,0,0,0,4.67L703.24,589.6a17,17,0,0,0,16.93,0l115.49-66.5a2.71,2.71,0,0,0,0-4.68Z" transform="translate(-411 -96)"/></g><g class="cls-7"><path class="cls-14" d="M721.48,433.2a19.2,19.2,0,0,0-19.2,0L587.93,499.08a2.69,2.69,0,0,0,0,4.67l115.31,66.58a17,17,0,0,0,16.93,0l115.49-66.5a2.71,2.71,0,0,0,0-4.68Z" transform="translate(-411 -96)"/></g><g class="cls-7"><path class="cls-15" d="M721.48,413.92a19.2,19.2,0,0,0-19.2,0L587.93,479.8a2.7,2.7,0,0,0,0,4.68l115.31,66.58a17,17,0,0,0,16.93,0l115.49-66.5a2.71,2.71,0,0,0,0-4.68Z" transform="translate(-411 -96)"/></g><g class="cls-7"><path class="cls-16" d="M721.48,394.67a19.2,19.2,0,0,0-19.2,0L587.93,460.55a2.7,2.7,0,0,0,0,4.68l115.31,66.58a17,17,0,0,0,16.93,0l115.49-66.5a2.71,2.71,0,0,0,0-4.68Z" transform="translate(-411 -96)"/></g><path class="cls-17" d="M835.66,460.59,721.48,394.67a19.2,19.2,0,0,0-19.2,0L587.93,460.55a2.68,2.68,0,0,0-1.35,2.34v57.79a2.67,2.67,0,0,0,1.35,2.34L703.24,589.6a17,17,0,0,0,16.93,0l115.49-66.5a2.68,2.68,0,0,0,1.35-2.34V463A2.67,2.67,0,0,0,835.66,460.59Z" transform="translate(-411 -96)"/><g class="cls-7"><path class="cls-18" d="M721.48,372.77a19.2,19.2,0,0,0-19.2,0L587.93,438.65a2.7,2.7,0,0,0,0,4.68l115.31,66.58a17,17,0,0,0,16.93,0L835.66,443.4a2.7,2.7,0,0,0,0-4.67Z" transform="translate(-411 -96)"/></g><g class="cls-7"><path class="cls-19" d="M721.48,353.5a19.2,19.2,0,0,0-19.2,0L587.93,419.38a2.7,2.7,0,0,0,0,4.68l115.31,66.58a17,17,0,0,0,16.93,0l115.49-66.51a2.7,2.7,0,0,0,0-4.67Z" transform="translate(-411 -96)"/></g><g class="cls-7"><path class="cls-20" d="M721.48,334.23a19.2,19.2,0,0,0-19.2,0L587.93,400.11a2.7,2.7,0,0,0,0,4.68l115.31,66.58a17,17,0,0,0,16.93,0l115.49-66.51a2.7,2.7,0,0,0,0-4.67Z" transform="translate(-411 -96)"/></g><g class="cls-7"><path class="cls-21" d="M721.48,315a19.2,19.2,0,0,0-19.2,0L587.93,380.86a2.69,2.69,0,0,0,0,4.67l115.31,66.58a16.9,16.9,0,0,0,16.93,0l115.49-66.5a2.71,2.71,0,0,0,0-4.68Z" transform="translate(-411 -96)"/></g><path class="cls-22" d="M835.66,380.9,721.48,315a19.25,19.25,0,0,0-19.2,0L587.93,380.84a2.67,2.67,0,0,0-1.35,2.34V441a2.68,2.68,0,0,0,1.35,2.34l115.31,66.58a17,17,0,0,0,16.93,0l115.49-66.5a2.69,2.69,0,0,0,1.35-2.34v-57.8A2.65,2.65,0,0,0,835.66,380.9Z" transform="translate(-411 -96)"/><g class="cls-7"><path class="cls-21" d="M721.48,315a19.2,19.2,0,0,0-19.2,0L587.93,380.86a2.69,2.69,0,0,0,0,4.67l115.31,66.58a16.9,16.9,0,0,0,16.93,0l115.49-66.5a2.71,2.71,0,0,0,0-4.68Z" transform="translate(-411 -96)"/></g><path class="cls-23" d="M835.66,382.9,720.17,449.41a17,17,0,0,1-16.93,0L587.93,382.83a2.57,2.57,0,0,1-1-1,2.71,2.71,0,0,0,1,3.67l115.31,66.58a17,17,0,0,0,16.93,0l115.49-66.51a2.67,2.67,0,0,0,1-3.66A2.49,2.49,0,0,1,835.66,382.9Z" transform="translate(-411 -96)"/><path class="cls-24" d="M600,403.27l2.84,1.63V403L600,401.36Z" transform="translate(-411 -96)"/><path class="cls-24" d="M600,416.14l2.84,1.64V406.64L600,405Z" transform="translate(-411 -96)"/><path class="cls-24" d="M600,422.3l2.84,1.64v-4.42L600,417.88Z" transform="translate(-411 -96)"/><path class="cls-24" d="M600,428.69l2.84,1.64v-4.42L600,424.27Z" transform="translate(-411 -96)"/><path class="cls-24" d="M595.8,407l2.84,1.63V404.2l-2.84-1.64Z" transform="translate(-411 -96)"/><path class="cls-24" d="M595.8,415.44l2.84,1.64v-6.51l-2.84-1.64Z" transform="translate(-411 -96)"/><path class="cls-24" d="M595.8,423.22l2.84,1.64v-5.58l-2.84-1.64Z" transform="translate(-411 -96)"/><path class="cls-24" d="M600,435.07l2.84,1.65V432.3L600,430.64Z" transform="translate(-411 -96)"/><path class="cls-24" d="M595.8,400.81l2.84,1.66v-1.91l-2.84-1.64Z" transform="translate(-411 -96)"/><path class="cls-24" d="M597.9,440.05l5,2.87v-1.85l-5-2.87Z" transform="translate(-411 -96)"/><path class="cls-25" d="M711.8,418.81c33.91,0,61.4-15.86,61.4-35.44s-27.49-35.44-61.4-35.44-61.4,15.87-61.4,35.44S677.89,418.81,711.8,418.81Z" transform="translate(-411 -96)"/><path class="cls-26" d="M712.13,354.16l.12.55.17-.37s.84,2.86.12,4.28a32.59,32.59,0,0,1-3.3,5.19c-1.51,2-4,6.15-4.57,6.95a15.77,15.77,0,0,1-9,4.39c-4.63.49-5.82-2.19-5.43-3.61s2.88-5.24,5.59-8.34a41.4,41.4,0,0,0,4.79-7.09Z" transform="translate(-411 -96)"/><path class="cls-26" d="M698.2,341.57a21.69,21.69,0,0,1-.18,4.19c-.31,1.23-7.11,1.6-9.55,1.91a35.68,35.68,0,0,0-8,2.69c-1.32.65-10.17,1.58-11.24-1.67s4.44-6,8.18-6.86,9.86-2.73,9.86-2.73Z" transform="translate(-411 -96)"/><path class="cls-27" d="M721.81,282.69a83.54,83.54,0,0,1-2.53,19.85,77.88,77.88,0,0,0-2.45,19.57s2.9,13,.35,21.92-4.74,11.38-4.74,11.38-5.1,6.78-11.83.7c0,0,3.78-12.22,4.23-21.92a65.52,65.52,0,0,1-4.48-13.5s-1,10.13-1.54,14.22c0,0,.58,6-1,8.44s-8.83,3.13-11.13-1.09,1.91-2.17.64-21.57c0,0-6.64-8.29-7.59-23.54s-.86-21.3,0-24.26,15.6-13.68,15.6-13.68l8.32,10.62Z" transform="translate(-411 -96)"/><path class="cls-28" d="M700,324.43a41.65,41.65,0,0,1-1-4.25s-1,10.13-1.54,14.22c0,0,.59,6-1,8.44-1,1.56-4.39,2.4-7.27,1.68,3.08,1.48,7.44.62,8.65-1.19,1.6-2.44,1-8.44,1-8.44C699.18,332.4,699.66,327.74,700,324.43Z" transform="translate(-411 -96)"/><path class="cls-29" d="M721.82,282.69l-18.18-12.9-8.32-10.62-.65.47,7.56,9.64,18.18,12.9A83.64,83.64,0,0,1,717.88,302a77.79,77.79,0,0,0-2.45,19.56s2.9,13,.35,21.92S711,354.9,711,354.9s-3.14,4.13-7.71,3c5.33,2.46,9.11-2.53,9.11-2.53s2.19-2.5,4.74-11.38-.35-21.92-.35-21.92a78.46,78.46,0,0,1,2.45-19.57A83.72,83.72,0,0,0,721.82,282.69Z" transform="translate(-411 -96)"/><path class="cls-26" d="M689,299.72c-2.4-2.88-3.74-11.89-3.74-11.89s3.74,7.58,6.43,9.79a18.19,18.19,0,0,1,5.47,9.48c.49,2.89,3.2,13.57,3.2,13.57s-1,10.13-1.54,14.22c0,0,.58,6-1,8.44a3.91,3.91,0,0,1-1.58,1.23c0-.12.41-13.41,0-19S691.4,302.58,689,299.72Z" transform="translate(-411 -96)"/><path class="cls-30" d="M743.93,221.19s6.35,12.42,7,13.37,12.53,16.12,13.68,24.86c0,0,.9,3.4-3.19,6.4s-24.75,16.11-26,16.31-8.76-3.45-9.08-11.64c0,0,16.18-7.54,19.7-11.32,0,0-6.29-10.58-9.39-13.7a7.12,7.12,0,0,1-1.48-3.91,21.31,21.31,0,0,1,6.9-18.67Z" transform="translate(-411 -96)"/><path class="cls-27" d="M696.45,192.12s-9.82,3.65-13.2,2.4S671.64,192.22,666,189s-30.38-9.54-34-9.76c0,0-.06.14.54.41s3.16.49,3.84,3.35-.84,6.33-1.25,6.57-.66-.78-3-1.87a9.09,9.09,0,0,0-3.82-1l-.9,1.13-.55.84s1.17,3.49,4.33,3.72,23.5,8.73,24.77,9.12,18.35,7.74,21.55,8.89a38.43,38.43,0,0,1,5.69,2.61s10-6.64,10.29-6.64S696.45,192.12,696.45,192.12Z" transform="translate(-411 -96)"/><path class="cls-31" d="M607.55,175.13c.41.1,5.55,1.83,5.55,1.83s-2,1-2.24,2a31.27,31.27,0,0,0,.61,6.45,7.16,7.16,0,0,0,1.56,1.21c.31.19,1.11,2,1.85,1.75s1-1.15,1-1.15.59-.29.76-.41a12.52,12.52,0,0,1,5.07,1,8.26,8.26,0,0,0,5.12.83,25,25,0,0,0,3.18-1.38,7.85,7.85,0,0,1,2,.56c.7.37,2.94,1.88,3.27,2s4.93-8.86-3.27-10.56a20.09,20.09,0,0,1-4.87-1c-1.46-.7-5.63-3.9-7.16-4a10.16,10.16,0,0,0-3.09.45s-9.28-2.65-10-1.83S607.14,175.05,607.55,175.13Zm6.72,6.18a2.51,2.51,0,0,0,1.87-1.13,1.27,1.27,0,0,0,1.43-.12c0,.18,1.26.41,1.26.41s.59.49,1.29,1-.23,2.09-.23,2.09a4.78,4.78,0,0,1-2.21-.61,10.68,10.68,0,0,0-1.75-.46A10.58,10.58,0,0,1,614.27,181.31Z" transform="translate(-411 -96)"/><path class="cls-26" d="M679.7,272.87c.86-3,15.61-13.68,15.61-13.68l4.13,5.28L703,278.25l18.82,5.86s-1,9.41-16.33,8.34-17.12-13-17.12-13-1.7,3.9-9.26,4.93C678.91,278.07,679.14,274.82,679.7,272.87Z" transform="translate(-411 -96)"/><path class="cls-27" d="M725.3,199.86l2.59,6.64s12.47,10.8,16.06,14.69c0,0-6.16,11.83-7.31,24.3,0,0-5.71,4.66-7.42,6.8s-6.1,12-7.48,15.32,2.49,13.09,2.49,13.09-5.3,9.8-13.83,9.47S696,284.64,695,275.36s-.76-10.62-.76-10.62-3.84,11.38-9.64,11.38-15.06-9.88-15.06-9.88-6.24-5.65-5.65-8.22,14.67-24.69,15.43-28.33S683.21,213,683.21,213L696.5,192.1l8.11.39Z" transform="translate(-411 -96)"/><path class="cls-32" d="M710,287.81c-8.17-.31-13.8-5.12-15.22-13.66,0,.39.09.78.13,1.21,1.1,9.28,6.9,14.48,15.44,14.81s13.83-9.47,13.83-9.47-.27-.72-.66-1.81C722.3,280.88,717.37,288.09,710,287.81Z" transform="translate(-411 -96)"/><path class="cls-33" d="M725.3,199.86a23.11,23.11,0,0,1-1.5,7.89c-1.56,3.93-6.69,26.09-18.28,33.65l-4.46,2.83V230.14s.08-8.67,2.06-14.19A40.31,40.31,0,0,0,705,203.74s3.26-.9,3.26-.84S725.3,199.86,725.3,199.86Z" transform="translate(-411 -96)"/><path class="cls-31" d="M711,210.15s-2.07.83-2.94-.51-1.79-4-1.56-5.3c0,0-5.5.27-6.59-2.61s.1-3.63.27-4.52a22.27,22.27,0,0,1,1.08-5l.07-.74s-1.11-1-.6-2,3.51-4.13,3.82-4.68-.08-4.4,1.09-6.35a47.85,47.85,0,0,1,3.43-4.62s11.69-9.12,20.91,0-4.68,25.92-4.68,25.92-1.11,5.42-3.8,7.58S711,210.15,711,210.15Z" transform="translate(-411 -96)"/><path class="cls-34" d="M719.55,187.91a3.29,3.29,0,0,1,.14-1,4.84,4.84,0,0,0-1.89-5.75c-3.51-2.55-9.72-4.85-9.53-7.42s10-8.89,17.21-5.5,14,12,9.08,21-9.28,10.54-9.28,10.54-1.46-.31-.15-1.81,3.72-5.32,1.73-6.53-5.44,1.38-5.91,2a6.25,6.25,0,0,0-.5.76,1,1,0,0,1-1.25.39l-.17-.08a1,1,0,0,1-.51-1.21l.86-2.36a2.71,2.71,0,0,0,.17-1.09Z" transform="translate(-411 -96)"/><path class="cls-35" d="M711.29,212.7a13.71,13.71,0,0,1,4.13,5.4s-2.78-2.89-4.36-3.45c0,0-3.06,1.44-3.06,2.39a63.49,63.49,0,0,1-1,9.81c-.72,3.09-.64,14-.64,14l-2,1.28-.92-4.77.35-10.17,1.81-9.26a36.36,36.36,0,0,1,.49-3.68C706.27,214,711.29,212.7,711.29,212.7Z" transform="translate(-411 -96)"/><path class="cls-27" d="M711.29,212.7s-3-3.16-4.48-3.24a2.51,2.51,0,0,0-2.34.94c0,.19-1.44,5.14-1.44,5.14a61.88,61.88,0,0,0-2.52,18.71c.3,10.07.53,10,.53,10l3.68-2.33a46.65,46.65,0,0,1,1-15.55c2-8.34.23-9.59,1.2-10.45S711.76,213.73,711.29,212.7Z" transform="translate(-411 -96)"/><path class="cls-27" d="M729.2,252.27c-1.74,2.15-6,12-7.39,15.3a4.93,4.93,0,0,0-.39,2.05l-.56.37L719,268.15s1.67-6,4.36-13.52,13.29-9.16,13.29-9.16S730.91,250.13,729.2,252.27Z" transform="translate(-411 -96)"/><path class="cls-31" d="M726.31,270.74s-3-4.4-4-5c0,0,.21,1.24-1.5,2s-10.76,4.27-11.07,4.68,0,.92.6,1a11.93,11.93,0,0,1-2.63.63c-.76,0-1.79.95-1.28,1.79s.93.76.93.76-.21.93.33,1.13a8.35,8.35,0,0,0,1.91.23s-.27.94.49,1.29a27.77,27.77,0,0,0,4.4.76s2.87-.31,3.69-.31,4.54.89,6.11.66a46.33,46.33,0,0,0,7.33-2.4C732.16,277.76,726.31,270.74,726.31,270.74Z" transform="translate(-411 -96)"/><path class="cls-27" d="M728.48,208.67l-.39,5.94-3.22,1,2.17,1.77s-8.71,19.8-19.84,26.08c0,0,10.62-3.79,20.65-25.9,0,0-1.05-1.25-1.38-1.6l2.24-1Z" transform="translate(-411 -96)"/><path class="cls-27" d="M700,208s-3.94,20.21-.58,35.43c0,0-4-7.33-.39-35.43Z" transform="translate(-411 -96)"/><path class="cls-36" d="M611.1,178.5a6.76,6.76,0,0,1,2-1.54s4.21,1.72,4.93,2C618,179,613.73,178.56,611.1,178.5Z" transform="translate(-411 -96)"/><path class="cls-36" d="M635.24,189.84c-.18-.06-.84-.49-1.56-.93,2.79-3.76-.27-9.18-.29-9.2C639.59,182.11,635.55,190,635.24,189.84Z" transform="translate(-411 -96)"/><path class="cls-36" d="M731.63,278.07A53.77,53.77,0,0,1,726.1,280s-1.4-5.46-1.07-7.29,1.07-2.26,1.07-2.26c.12.18.21.29.21.29S732.16,277.76,731.63,278.07Z" transform="translate(-411 -96)"/><path class="cls-30" d="M726.31,270.49a6.39,6.39,0,0,0,1.21,5.61c2.15,2.46,2.38,2.77,2.38,2.77h2.46a26.81,26.81,0,0,0,1.07-4C733.21,274.8,726.31,270.49,726.31,270.49Z" transform="translate(-411 -96)"/><path class="cls-27" d="M703.49,213.94s-2.35,13.86-1.83,18.94a87.74,87.74,0,0,1,.33,10.59l-.74.64-.21.13s-.23.08-.53-10A61.88,61.88,0,0,1,703,215.54S703.24,214.82,703.49,213.94Z" transform="translate(-411 -96)"/><path class="cls-26" d="M702.72,357.63a12.06,12.06,0,0,1-2.11-1.54s3.78-12.22,4.23-21.92a65.52,65.52,0,0,1-4.48-13.5c.31,1.26,4.19,8.1,5.94,15.1S702.72,357.63,702.72,357.63Z" transform="translate(-411 -96)"/><path class="cls-36" d="M719.89,197.61c-.08.35-1.07,5.28-3.06,7.6a57.47,57.47,0,0,0-3.64,4.72c-1.29.17-2.19.23-2.19.23s-2.06.84-2.94-.5-1.79-4.06-1.56-5.3c0,0,7.41-.76,10.23-2.73A7.22,7.22,0,0,0,719.89,197.61Z" transform="translate(-411 -96)"/><path class="cls-37" d="M722.55,265.82a7.88,7.88,0,0,1-.47.89c-.07.06-.17-.64-.17-.64s.33-.68.35-.68S722.55,265.82,722.55,265.82Z" transform="translate(-411 -96)"/><path class="cls-27" d="M701,244.24s-5.16,16.51-6.9,20.5l.1,4S700.82,248.22,701,244.24Z" transform="translate(-411 -96)"/><path class="cls-27" d="M696.05,250.13a1.7,1.7,0,1,0,2.15-1.25A1.73,1.73,0,0,0,696.05,250.13Z" transform="translate(-411 -96)"/><path class="cls-27" d="M693.42,257.24a1.77,1.77,0,0,0,1.1,2.24,1.75,1.75,0,0,0,2.14-1.24,1.7,1.7,0,1,0-3.24-1Z" transform="translate(-411 -96)"/><path class="cls-38" d="M719.4,191a2.55,2.55,0,0,0,.17-1.09l0-2a3.29,3.29,0,0,1,.13-1,5.44,5.44,0,0,0,.27-1.23s8,5.87,13.16,6.1c-4.29,6.86-7.82,8.07-7.82,8.07s-1.46-.31-.15-1.81,3.72-5.32,1.73-6.53-5.44,1.38-5.9,2a8.38,8.38,0,0,0-.51.76,1,1,0,0,1-1.25.39l-.17-.07a1,1,0,0,1-.51-1.21Z" transform="translate(-411 -96)"/><path class="cls-26" d="M734.63,406.87a40.35,40.35,0,0,1-7.15,1c-3.53.14-13.07,2.07-12.84,5.63s5.24,8.73,11.5,9.49,14.32-1,18.41-.93a5.73,5.73,0,0,0,5.28-8.07C748.25,410.07,734.63,406.87,734.63,406.87Z" transform="translate(-411 -96)"/><path class="cls-26" d="M755.74,397.28s1.34,2.17.68,3.49-2.42,4.62-8.15,1.42-16.7-7.71-16.7-7.71-6.31-3.35-6-7.31,6.16-3.35,6.16-3.35Z" transform="translate(-411 -96)"/><path class="cls-27" d="M718.58,341.13s2.44,25.72,7.6,35.46c5.26,9.9,6.7,28.06,7.8,31.51s4.5,8.49,9.85,9.54,6.26-2.59,6-4.77-1.76-5.71-1.78-8.09a25.34,25.34,0,0,1,.61-4.55s6.14,1.81,7.07-3a12.17,12.17,0,0,1-.58-2.08c-.08-.7.52-17.93.68-20a88.11,88.11,0,0,0-2.69-18.89c-1.7-5.49-1.13-17.18-1.13-17.18l-17.48-2.44Z" transform="translate(-411 -96)"/><path class="cls-39" d="M753.17,356.29c-1.7-5.5-1.14-17.19-1.14-17.19l-1.51-.22c-.06,1.62-.43,11.89,1.11,16.94a87.93,87.93,0,0,1,2.64,18.86c-.15,2.08-.77,19.29-.7,20a13.11,13.11,0,0,0,.59,2.09c-.94,4.75-7.08,2.94-7.08,2.94a25.75,25.75,0,0,0-.62,4.54c0,2.38,1.5,5.9,1.75,8.09s-.62,5.84-6,4.77l-.48-.14a12,12,0,0,0,2.08.67c5.38,1.07,6.26-2.6,6-4.78s-1.75-5.71-1.77-8.08a27.41,27.41,0,0,1,.62-4.78s6.14,2,7.08-2.73a12.89,12.89,0,0,1-.59-2.08c-.08-.7.53-17.93.68-20A88.35,88.35,0,0,0,753.17,356.29Z" transform="translate(-411 -96)"/><path class="cls-26" d="M746.86,341a19.76,19.76,0,0,1-1.76,7.38s0,13.66-1.36,20.6c0,0,2.26,13.89,3.68,18.28s1.25,13,1.25,13a6,6,0,0,0,1.69.3c1,0,1.07-17-.46-20s-2.69-16.27-2.11-20.3.37-15.51,1.13-17.56a2.55,2.55,0,0,0-.95-3.09Z" transform="translate(-411 -96)"/><path class="cls-26" d="M732.12,248.18s-5.08,3.68-4.83,10l3.78-.82S730,250.36,732.12,248.18Z" transform="translate(-411 -96)"/><path class="cls-26" d="M734.11,346.56c11.59.35,17.85-4.77,17.85-4.77,0-1.62.08-2.69.08-2.69l-17.48-2.44-16,4.47s.49,5.06,1.46,11.55c2.85.31,5.63-6.68,5.63-6.68l7.95.5S722.52,346.21,734.11,346.56Z" transform="translate(-411 -96)"/><path class="cls-27" d="M720.82,341.5s25.2,10.28,37.39-9.24a3.31,3.31,0,0,0,.49-1.91l-.15-4.54a4.4,4.4,0,0,1,.25-1.69,7.1,7.1,0,0,0,.25-3.63c-.93-5.09-3.5-18.9-4.09-22.74-.72-4.68,1.75-23.4,5.92-31.51s-6.46-26-6.46-26a6.9,6.9,0,0,0-7.68-2.77s4.85,3.39,2.2,7S738.3,251,738.3,251s-14.73,7.64-19.78,16.95a39,39,0,0,0-1.89,10.95c-.15,6.18.53,21,.28,23.09s-1,16.21-1,16.87S720.82,341.5,720.82,341.5Z" transform="translate(-411 -96)"/><path class="cls-40" d="M749.09,240.11a3.57,3.57,0,0,0-.1-2.84,7.54,7.54,0,0,0-2.28.25A9.14,9.14,0,0,1,749.09,240.11Z" transform="translate(-411 -96)"/><path class="cls-27" d="M728.46,343.6s14.85-40.08,14.12-54.62c-.68-14.18-21.66,28.74-21.66,28.74l-.12,23.79A48.14,48.14,0,0,0,728.46,343.6Z" transform="translate(-411 -96)"/><path class="cls-41" d="M758.37,320.2a4.23,4.23,0,0,0-.24,1.67l.16,4.53a3.34,3.34,0,0,1-.49,1.9c-12.14,19.39-37.25,9.16-37.25,9.16S717.1,321.7,716,316.59c-.06,1.25-.08,2.13-.06,2.26.07.67,4.89,22.65,4.89,22.65s25.19,10.28,37.39-9.24a3.39,3.39,0,0,0,.49-1.91l-.16-4.54a4.4,4.4,0,0,1,.26-1.69,7.33,7.33,0,0,0,.25-3.63l-.35-1.87A12,12,0,0,1,758.37,320.2Z" transform="translate(-411 -96)"/><path class="cls-42" d="M760.45,262.7c-4.17,8-6.64,26.65-5.92,31.29.06.43.15,1,.27,1.64,0-6.71,2.34-22.22,6-29.41,1.15-2.24,1.13-5.3.53-8.49A10.1,10.1,0,0,1,760.45,262.7Z" transform="translate(-411 -96)"/><path class="cls-27" d="M720.45,296.25a65.19,65.19,0,0,0,.9-9.82c0-5.71,1.67-15.16,12-13.52,14.57,2.32,8.34,22.74,6.74,26.3s-8,19.76-8.32,20.7-10.4,21.06-14,25.89a.87.87,0,0,1-1.31.16c-1.46-1.25-4.73-4.21-5.16-6.08-.54-2.42,1.56-11.15,1.56-11.15s5.67-21.82,6.16-22.85C719.32,305.14,719.57,301.55,720.45,296.25Z" transform="translate(-411 -96)"/><path class="cls-31" d="M732.38,248.65a5.14,5.14,0,0,0-3.84-2.91c-2.67-.27-4.19-1-4.46-2a19,19,0,0,0-.94-3.67,28.55,28.55,0,0,1-1.19-5.16c0-.08-2-.7-2.12-1.6s.95-4.09.84-4.32a8,8,0,0,1-1.06-3.72,19.69,19.69,0,0,1,1.15-5.58c.82-1.85,6.47-13.17,21.22-7.34,14.91,5.88,3.57,18.39,5,26.5,0,0,1.33,1.71-1.11,4.61S736.45,247,732.38,248.65Z" transform="translate(-411 -96)"/><path class="cls-36" d="M745.94,243.45c2.44-2.91,1.11-4.62,1.11-4.62a11,11,0,0,1,0-3.61l-5.83,1.11s-8.61-7.65-8-3.56-1.49,4.85-1.49,4.85l1.78,2.24c.45.59.17,1.25-.18,1.89-2.45,4.23-8.43,3-8.43,3a8.51,8.51,0,0,0,3.64,1,5.16,5.16,0,0,1,3.84,2.9C736.45,247,743.51,246.37,745.94,243.45Z" transform="translate(-411 -96)"/><path class="cls-34" d="M720.16,215.39s-1,3,.64,4.3,3.18,2.48,3.18,2.48V226a2.91,2.91,0,0,0,.45,1.56l2.1,3.23a3.82,3.82,0,0,1,.62,2.1l0,1.58a.91.91,0,0,0,.8.9l.55.06a.89.89,0,0,0,1-.8l.24-2.18s1.11-1.76,3.52.33l2.18.89a2.28,2.28,0,0,1,1.31,1.39c.61,1.67,1.91,5,2.88,5.53,1.33.74,6.42-1.89,7.1-3.06s2.39-8.94,3.46-12.64.43-12.79-10.54-15.12S721.66,212.09,720.16,215.39Z" transform="translate(-411 -96)"/><path class="cls-38" d="M746.72,237.52c.68-1.17,2.39-8.94,3.46-12.64a26.88,26.88,0,0,1-9.76,3.66c-5.51.84-16.44-5.38-16.44-5.38V226a3,3,0,0,0,.44,1.56l2.11,3.23a3.83,3.83,0,0,1,.62,2.11l0,1.57a.91.91,0,0,0,.8.9l.55.06a.89.89,0,0,0,1-.8l.24-2.18s1.1-1.76,3.52.33l3.14,1.28s1.91,5.77,3.23,6.51S746,238.69,746.72,237.52Z" transform="translate(-411 -96)"/><path class="cls-33" d="M746.93,237.89s4.27,2.63,2.14,6.35-17.61,10.43-18.39,11.42c0,0-.6-5.59,1.44-7.48,0,0,11.85-2.32,13.7-5.34S746.93,237.89,746.93,237.89Z" transform="translate(-411 -96)"/><path class="cls-35" d="M746.93,237.89s.72,2-1.11,5c-1.39,2.3-8.52,4.17-11.91,4.95,0,0,1.27.72,3.37,4.31,4.76-2.48,10.54-5.65,11.79-7.84C751.19,240.52,746.93,237.89,746.93,237.89Z" transform="translate(-411 -96)"/><path class="cls-27" d="M749.81,249.84s-6.89,3.95-10.24,5.73-7.06,4.17-7.06,4.17l-1.28-1.29-1.54,3.41s-5.3,3.18-7.78,5.82a27.47,27.47,0,0,0-4.64,6.94s6.61-8.67,11.83-11.24l1.4-.7.8-2.69,1.29,1.34S747.73,252.2,749.81,249.84Z" transform="translate(-411 -96)"/><path class="cls-39" d="M732,366.85a3.35,3.35,0,0,0-.91-1.48l-28.37-23.82c-.75-.62-1.47-.15-1.62,1.08l-3.31,27.72a4.42,4.42,0,0,0,1.11,3.51l23.83,20.6-.82,8,7.13-3.28v0a1.73,1.73,0,0,0,.62-1.36l2.65-29A5.76,5.76,0,0,0,732,366.85Z" transform="translate(-411 -96)"/><path class="cls-27" d="M695,344.28l6.7-2.9.22-.1a.9.9,0,0,1,.8.26l28.37,23.81a3.28,3.28,0,0,1,.91,1.48l-1,.48-5.77,2.79-24.86-21.26Z" transform="translate(-411 -96)"/><path class="cls-27" d="M691.94,377l29,25.27c.8.7,1.54.16,1.68-1.19l2.82-29.13a4.51,4.51,0,0,0-1.18-3.5L696,344.48c-.74-.63-1.48-.16-1.61,1.07l-3.49,27.86A4.48,4.48,0,0,0,691.94,377Z" transform="translate(-411 -96)"/><path class="cls-26" d="M726.23,399.35,729,370.3a4.48,4.48,0,0,0-1.19-3.49l-28.33-23.87a1,1,0,0,0-.66-.28.92.92,0,0,1,.91.22L728,366.75a4.5,4.5,0,0,1,1.19,3.49l-2.72,29.05c-.08.91-.45,1.5-.94,1.52C725.9,400.65,726.15,400.13,726.23,399.35Z" transform="translate(-411 -96)"/><path class="cls-27" d="M715.83,356.58l1.48-.74a1.23,1.23,0,0,1,.92-.16l.12,0c.15,0,.23.2.19.41l0,.27-4.17,2.09,0-.27a1.27,1.27,0,0,1,.31-.69l.14-.15A4.75,4.75,0,0,1,715.83,356.58Z" transform="translate(-411 -96)"/><path class="cls-27" d="M716.36,360.18l-2-1.69,4.13-2.69,2,1.65Z" transform="translate(-411 -96)"/><path class="cls-43" d="M717.84,358.27l1.48-.74a1.38,1.38,0,0,1,.91-.17l.12,0c.16,0,.23.19.2.42l0,.28-4.16,2.08,0-.27a1.12,1.12,0,0,1,.31-.68l.13-.16A4.62,4.62,0,0,1,717.84,358.27Z" transform="translate(-411 -96)"/><path class="cls-44" d="M718.74,359l.11-1.22-.11.06-.14,1.22Z" transform="translate(-411 -96)"/><path class="cls-44" d="M718.85,357.77l-2.05-1.66-.11.06,2,1.66Z" transform="translate(-411 -96)"/><path class="cls-27" d="M706.83,349l1.48-.74a1.41,1.41,0,0,1,.91-.16l.12,0c.16,0,.21.2.2.41l0,.27-4.17,2.07,0-.27a1.39,1.39,0,0,1,.32-.67l.13-.15A4.14,4.14,0,0,1,706.83,349Z" transform="translate(-411 -96)"/><path class="cls-27" d="M707.33,352.54l-2-1.65,4.13-2.65,1.94,1.61Z" transform="translate(-411 -96)"/><path class="cls-39" d="M708.81,350.67l1.48-.74a1.37,1.37,0,0,1,.92-.15l.12,0c.15,0,.21.19.19.41l0,.27-4.17,2.06,0-.27a1.26,1.26,0,0,1,.31-.66l.14-.16A3.36,3.36,0,0,1,708.81,350.67Z" transform="translate(-411 -96)"/><path class="cls-44" d="M709.69,351.38l.12-1.21-.12.06-.14,1.2Z" transform="translate(-411 -96)"/><path class="cls-44" d="M709.81,350.17l-2-1.64-.1.06,2,1.64Z" transform="translate(-411 -96)"/><path class="cls-27" d="M719.65,352l-.52,5.16L717.78,356l.53-5a2.69,2.69,0,0,0-.8-2.11L711.74,344c-.51-.43-1-.2-1.07.52l-.55,5-1.32-1.11.56-5.1c.18-1.6,1.25-2.13,2.38-1.17l6.16,5.14A6,6,0,0,1,719.65,352Z" transform="translate(-411 -96)"/><path class="cls-27" d="M709.71,343.68l2.38-.24,6.88,6.41.29,4-.14,3.31-1.54.78,0-4.13-.07-2.82L716,348.9s-2.57-2.08-2.61-2.14Z" transform="translate(-411 -96)"/><path class="cls-27" d="M708.56,350.3l1.54-.76.41-3.66L709,346l-.43.07Z" transform="translate(-411 -96)"/><path class="cls-27" d="M708.62,342.55l1.66-.82s-.43.9-.45.9l-.54.19A6.69,6.69,0,0,1,708.62,342.55Z" transform="translate(-411 -96)"/><path class="cls-27" d="M718.13,352.72l-.55,5.18-1.34-1.13.53-5a2.72,2.72,0,0,0-.8-2.12l-5.77-4.83c-.51-.43-1-.2-1.07.53l-.57,5-1.32-1.11.58-5.1c.18-1.6,1.25-2.13,2.38-1.17l6.16,5.14A6,6,0,0,1,718.13,352.72Z" transform="translate(-411 -96)"/><path class="cls-31" d="M711.67,339.68s-1,5.07-.71,6.34,2.69,3.72,4.15,4.17.86-1.29,1.19-2.38a15.83,15.83,0,0,0,.28-3.47Z" transform="translate(-411 -96)"/><path class="cls-36" d="M716.57,344.34l-4.91-4.66s-.2,1-.39,2.28c0,0,1.83,3.76,5.16,5.25A17.49,17.49,0,0,0,716.57,344.34Z" transform="translate(-411 -96)"/><path class="cls-45" d="M711.31,340.05s1.74,5.44,6.1,6l-1.48-6s-3.68-1-3.8-1.05A6.26,6.26,0,0,0,711.31,340.05Z" transform="translate(-411 -96)"/><path class="cls-39" d="M739.7,276.12c4,12.32-6.08,31.47-7.54,37.06S715.29,345,715.29,345v0a2.45,2.45,0,0,0-.13.26,7.78,7.78,0,0,0,1,.68,3.39,3.39,0,0,0,.7.25.9.9,0,0,0,.9-.37c3.6-4.85,13.68-25,14-25.89s6.72-17.09,8.32-20.7C741.34,296.37,745.62,282.59,739.7,276.12Z" transform="translate(-411 -96)"/><path class="cls-46" d="M702.06,366.94a1.61,1.61,0,0,0,.39.61l.22.18c.09.06.15.09.21.14a1.72,1.72,0,0,1,.36.29,1.63,1.63,0,0,1,.32.44,1.9,1.9,0,0,1,.19.8,1.08,1.08,0,0,1,0,.55,1.32,1.32,0,0,1-.22.33c-.14.17-.17.17-.26.29a1.25,1.25,0,0,0-.2.39,1.5,1.5,0,0,0-.06.47,2.31,2.31,0,0,0,.06.53,2.21,2.21,0,0,0,.25.59,2.14,2.14,0,0,0,.36.44,2.53,2.53,0,0,0,.55.4,2.12,2.12,0,0,0,.46.18,1.72,1.72,0,0,0,.6,0,1.46,1.46,0,0,0,.54-.18c.23-.12.21-.17.43-.3a2.19,2.19,0,0,1,.62-.22,1.4,1.4,0,0,1,.65,0,2.38,2.38,0,0,1,.5.19,2.87,2.87,0,0,1,.4.26,2.29,2.29,0,0,1,.38.39s.08.11.28.47a4.35,4.35,0,0,0,.31.53,2.28,2.28,0,0,0,.45.47,2.31,2.31,0,0,0,1.32.6,2.14,2.14,0,0,0,.53,0,1.85,1.85,0,0,0,.55-.16,1.48,1.48,0,0,0,.5-.36,1.71,1.71,0,0,0,.33-.55,2.38,2.38,0,0,0,.12-.55,2.46,2.46,0,0,0-.07-.64,2.12,2.12,0,0,0-.23-.65,2.94,2.94,0,0,0-.41-.57,2.8,2.8,0,0,0-1.31-.81,2,2,0,0,0-.72-.08,1.87,1.87,0,0,0-.69.22c-.12.08-.11.09-.46.38a3.84,3.84,0,0,1-.39.28,1.33,1.33,0,0,1-.79.15,2,2,0,0,1-.49-.1A2.26,2.26,0,0,1,707,372a2.6,2.6,0,0,1-.57-.66c-.15-.2-.14-.23-.28-.4a2.69,2.69,0,0,0-.44-.49,6.21,6.21,0,0,0-.62-.4,3.4,3.4,0,0,1-.44-.32,1.73,1.73,0,0,1-.29-.33,1.89,1.89,0,0,1-.26-.6,1.67,1.67,0,0,1-.05-.43,1.47,1.47,0,0,1,.12-.58c.11-.26.17-.22.25-.45a1.19,1.19,0,0,0,.07-.59,1.49,1.49,0,0,0-.3-.71,1.75,1.75,0,0,0-.53-.46,1.3,1.3,0,0,0-.67-.19.91.91,0,0,0-.58.21,1,1,0,0,0-.33.43,1.22,1.22,0,0,0-.08.47A1.46,1.46,0,0,0,702.06,366.94Z" transform="translate(-411 -96)"/><path class="cls-39" d="M869.09,387a5.79,5.79,0,0,1-2.86-.67l-64.48-37.22a2.24,2.24,0,0,1-1.29-1.94,2.94,2.94,0,0,1,1.72-2.4l63.6-36.73a7.13,7.13,0,0,1,6.51-.25L936.76,345a2.27,2.27,0,0,1,1.29,1.95,2.93,2.93,0,0,1-1.72,2.4l-63.6,36.73A7.51,7.51,0,0,1,869.09,387Zm-2.38-1.55a6.21,6.21,0,0,0,5.52-.25l63.6-36.73c.76-.45,1.22-1,1.22-1.54a1.33,1.33,0,0,0-.79-1.07l-64.48-37.22a6.19,6.19,0,0,0-5.51.26l-63.6,36.73c-.77.45-1.23,1-1.23,1.54a1.34,1.34,0,0,0,.8,1.07Z" transform="translate(-411 -96)"/><path class="cls-47" d="M937.56,319.85v7.91L869.09,367.3l-68.47-39.54v-7.91Z" transform="translate(-411 -96)"/><path class="cls-39" d="M869.09,359.39l-68.47-39.54,68.47-39.54,68.47,39.54Z" transform="translate(-411 -96)"/><path class="cls-24" d="M869.09,358.45l-67.67-39.07-.8.47,68.47,39.54,68.47-39.54-.8-.47Z" transform="translate(-411 -96)"/><path class="cls-48" d="M869.08,350.27l-52.64-30.42,52.64-30.4,52.67,30.4Z" transform="translate(-411 -96)"/><path class="cls-49" d="M869.08,350.27l-52.64-30.42,52.64-30.4,52.67,30.4Z" transform="translate(-411 -96)"/><path class="cls-50" d="M869.08,281.79l52.67,30.4v7.66l-52.67-30.4Z" transform="translate(-411 -96)"/><path class="cls-51" d="M869.08,289.45l-52.64,30.4v-7.66l52.64-30.4Z" transform="translate(-411 -96)"/><path class="cls-52" d="M869.08,342.59l-52.64-30.4,52.64-30.4,52.67,30.4Z" transform="translate(-411 -96)"/><path class="cls-53" d="M869.08,324.33l-21-12.14,21-12.16,21,12.16Z" transform="translate(-411 -96)"/><path class="cls-53" d="M869.08,301.16l20.09,11.6,1-.57-21-12.16-21,12.16,1,.57Z" transform="translate(-411 -96)"/><path class="cls-54" d="M869.08,342.59v7.68l52.67-30.42v-7.66Z" transform="translate(-411 -96)"/><path class="cls-55" d="M816.44,312.19v7.66l52.64,30.42v-7.68Z" transform="translate(-411 -96)"/><path class="cls-56" d="M869.08,341.75l-51.92-30-.72.43,52.64,30.4,52.67-30.4-.72-.41Z" transform="translate(-411 -96)"/><path class="cls-39" d="M884.74,573.55a5.79,5.79,0,0,1-2.86-.67L817.4,535.67a2.27,2.27,0,0,1-1.29-1.95,3,3,0,0,1,1.72-2.4l63.6-36.73a7.13,7.13,0,0,1,6.51-.25l64.47,37.21a2.27,2.27,0,0,1,1.29,2,2.92,2.92,0,0,1-1.72,2.4l-63.59,36.73A7.58,7.58,0,0,1,884.74,573.55ZM882.36,572a6.24,6.24,0,0,0,5.52-.26L951.48,535c.76-.44,1.23-1,1.23-1.54a1.34,1.34,0,0,0-.8-1.07L887.43,495.2a6.18,6.18,0,0,0-5.51.25l-63.6,36.73c-.77.45-1.23,1-1.23,1.54a1.32,1.32,0,0,0,.8,1.07Z" transform="translate(-411 -96)"/><path class="cls-47" d="M953.21,506.36v7.91l-68.47,39.54-68.47-39.54v-7.91Z" transform="translate(-411 -96)"/><path class="cls-39" d="M884.74,545.9l-68.47-39.54,68.47-39.53,68.47,39.53Z" transform="translate(-411 -96)"/><path class="cls-24" d="M884.74,545l-67.67-39.07-.8.47,68.47,39.54,68.47-39.54-.8-.47Z" transform="translate(-411 -96)"/><path class="cls-48" d="M884.74,536.78l-52.65-30.42L884.74,476l52.67,30.4Z" transform="translate(-411 -96)"/><path class="cls-57" d="M884.74,536.78l-52.65-30.42L884.74,476l52.67,30.4Z" transform="translate(-411 -96)"/><path class="cls-58" d="M884.74,468.31l52.67,30.39v7.66L884.74,476Z" transform="translate(-411 -96)"/><path class="cls-59" d="M884.74,476l-52.65,30.4V498.7l52.65-30.39Z" transform="translate(-411 -96)"/><path class="cls-60" d="M884.74,529.1l-52.65-30.4,52.65-30.39,52.67,30.39Z" transform="translate(-411 -96)"/><path class="cls-53" d="M884.74,510.84l-21-12.14,21-12.16,21,12.16Z" transform="translate(-411 -96)"/><path class="cls-53" d="M884.74,487.67l20.09,11.6.95-.57-21-12.16-21,12.16,1,.57Z" transform="translate(-411 -96)"/><path class="cls-61" d="M884.74,529.1v7.68l52.67-30.42V498.7Z" transform="translate(-411 -96)"/><path class="cls-62" d="M832.09,498.7v7.66l52.65,30.42V529.1Z" transform="translate(-411 -96)"/><path class="cls-56" d="M884.74,528.26l-51.93-30-.72.43,52.65,30.4,52.67-30.4-.72-.41Z" transform="translate(-411 -96)"/><path class="cls-39" d="M548.06,390.77a5.89,5.89,0,0,1-2.86-.66l-64.48-37.22a2.26,2.26,0,0,1-1.28-1.95,2.94,2.94,0,0,1,1.71-2.4l63.6-36.73a7.16,7.16,0,0,1,6.51-.25l64.48,37.22a2.27,2.27,0,0,1,1.28,2,2.93,2.93,0,0,1-1.71,2.39l-63.6,36.73A7.47,7.47,0,0,1,548.06,390.77Zm-2.37-1.54a6.22,6.22,0,0,0,5.51-.25l63.6-36.74c.76-.44,1.23-1,1.23-1.53a1.34,1.34,0,0,0-.8-1.08l-64.48-37.21a6.22,6.22,0,0,0-5.51.25l-63.6,36.73c-.76.45-1.23,1-1.23,1.54a1.31,1.31,0,0,0,.8,1.07Z" transform="translate(-411 -96)"/><path class="cls-47" d="M616.54,323.58v7.91L548.06,371l-68.47-39.54v-7.91Z" transform="translate(-411 -96)"/><path class="cls-39" d="M548.06,363.12l-68.47-39.54,68.47-39.53,68.48,39.53Z" transform="translate(-411 -96)"/><path class="cls-24" d="M548.06,362.18l-67.67-39.07-.8.47,68.47,39.54,68.48-39.54-.8-.47Z" transform="translate(-411 -96)"/><path class="cls-48" d="M548.06,354l-52.65-30.42,52.65-30.4,52.67,30.4Z" transform="translate(-411 -96)"/><path class="cls-63" d="M548.06,354l-52.65-30.42,52.65-30.4,52.67,30.4Z" transform="translate(-411 -96)"/><path class="cls-64" d="M548.06,285.53l52.67,30.39v7.66l-52.67-30.4Z" transform="translate(-411 -96)"/><path class="cls-65" d="M548.06,293.18l-52.65,30.4v-7.66l52.65-30.39Z" transform="translate(-411 -96)"/><path class="cls-66" d="M548.06,346.32l-52.65-30.4,52.65-30.39,52.67,30.39Z" transform="translate(-411 -96)"/><path class="cls-53" d="M548.06,328.06l-21-12.13,21-12.16,21,12.16Z" transform="translate(-411 -96)"/><path class="cls-53" d="M548.06,304.9l20.09,11.59,1-.56-21-12.16-21,12.16,1,.56Z" transform="translate(-411 -96)"/><path class="cls-67" d="M548.06,346.32V354l52.67-30.42v-7.66Z" transform="translate(-411 -96)"/><path class="cls-68" d="M495.41,315.92v7.66L548.06,354v-7.68Z" transform="translate(-411 -96)"/><path class="cls-56" d="M548.06,345.48l-51.93-30-.72.43,52.65,30.39,52.67-30.39-.72-.42Z" transform="translate(-411 -96)"/><path class="cls-39" d="M563.71,577.28a5.89,5.89,0,0,1-2.86-.66L496.37,539.4a2.27,2.27,0,0,1-1.29-1.95,3,3,0,0,1,1.72-2.4l63.6-36.73a7.16,7.16,0,0,1,6.51-.25l64.47,37.22a2.26,2.26,0,0,1,1.29,2,2.93,2.93,0,0,1-1.71,2.39l-63.61,36.73A7.4,7.4,0,0,1,563.71,577.28Zm-2.38-1.54a6.24,6.24,0,0,0,5.52-.25l63.6-36.73c.76-.45,1.23-1,1.23-1.54a1.34,1.34,0,0,0-.8-1.08L566.4,498.93a6.22,6.22,0,0,0-5.51.25l-63.6,36.73c-.76.45-1.23,1-1.23,1.54a1.31,1.31,0,0,0,.8,1.07Z" transform="translate(-411 -96)"/><path class="cls-47" d="M632.18,510.09V518l-68.47,39.53L495.24,518v-7.92Z" transform="translate(-411 -96)"/><path class="cls-39" d="M563.71,549.63l-68.47-39.54,68.47-39.53,68.47,39.53Z" transform="translate(-411 -96)"/><path class="cls-24" d="M563.71,548.69,496,509.63l-.8.46,68.47,39.54,68.47-39.54-.8-.46Z" transform="translate(-411 -96)"/><path class="cls-48" d="M563.71,540.51l-52.65-30.42,52.65-30.39,52.67,30.39Z" transform="translate(-411 -96)"/><path class="cls-69" d="M563.71,540.51l-52.65-30.42,52.65-30.39,52.67,30.39Z" transform="translate(-411 -96)"/><path class="cls-70" d="M563.71,472l52.66,30.4v7.65L563.71,479.7Z" transform="translate(-411 -96)"/><path class="cls-71" d="M563.71,479.7l-52.65,30.39v-7.65L563.71,472Z" transform="translate(-411 -96)"/><path class="cls-72" d="M563.71,532.83l-52.65-30.39L563.71,472l52.67,30.4Z" transform="translate(-411 -96)"/><path class="cls-53" d="M563.71,514.58l-21.05-12.14,21.05-12.16,21,12.16Z" transform="translate(-411 -96)"/><path class="cls-53" d="M563.71,491.41,583.8,503l1-.56-21-12.16-21.05,12.16,1,.56Z" transform="translate(-411 -96)"/><path class="cls-73" d="M563.71,532.83v7.68l52.66-30.42v-7.65Z" transform="translate(-411 -96)"/><path class="cls-74" d="M511.06,502.44v7.65l52.65,30.42v-7.68Z" transform="translate(-411 -96)"/><path class="cls-56" d="M563.71,532l-51.93-30-.72.43,52.65,30.39,52.67-30.39-.72-.41Z" transform="translate(-411 -96)"/><path class="cls-75" d="M562.92,151.74l-1.06.62a1.36,1.36,0,0,1-.55.24,1.18,1.18,0,0,1-.59,0c-.27-.11-.41-.4-.41-.9V148a2.67,2.67,0,0,1,.41-1.37,3.19,3.19,0,0,1,1.14-1.08l1.06-.61a1.34,1.34,0,0,1,.54-.25,1.3,1.3,0,0,1,.59,0c.27.11.41.42.41.9v3.67a2.51,2.51,0,0,1-.41,1.38A3.28,3.28,0,0,1,562.92,151.74Zm-1-.11.87-.5a1.49,1.49,0,0,0,.65-.59,1.55,1.55,0,0,0,.24-.84v-3.61c0-.59-.29-.73-.89-.4l-.87.5a1.56,1.56,0,0,0-.63.59,1.46,1.46,0,0,0-.23.84v3.58C561.09,151.82,561.3,152,562,151.63Z" transform="translate(-411 -96)"/><path class="cls-76" d="M570.27,118.71v-.41a.55.55,0,0,1,0-.17.35.35,0,0,1,.11-.13l1.21-1.41.27-.27.45-.25h.15v6.49a.24.24,0,0,1,0,.14.32.32,0,0,1-.1.1l-.47.27h-.15v-5.79l-1.26,1.45C570.33,118.84,570.27,118.84,570.27,118.71Z" transform="translate(-411 -96)"/><path class="cls-75" d="M553,153l-1.06.6a1.48,1.48,0,0,1-.54.25,1.47,1.47,0,0,1-.59,0c-.27-.12-.43-.43-.43-.91v-3.66a2.62,2.62,0,0,1,.43-1.39,3,3,0,0,1,1.13-1.06l1.06-.62a1.32,1.32,0,0,1,.54-.24,1.26,1.26,0,0,1,.58,0c.29.12.43.4.43.91v3.64a2.45,2.45,0,0,1-.43,1.39A3.31,3.31,0,0,1,553,153Zm-1-.14.87-.5a1.65,1.65,0,0,0,.65-.58,1.69,1.69,0,0,0,.23-.85v-3.58c0-.62-.31-.75-.88-.41l-.87.51a1.47,1.47,0,0,0-.64.57,1.55,1.55,0,0,0-.25.83v3.61C551.13,153.06,551.44,153.2,552,152.85Z" transform="translate(-411 -96)"/><path class="cls-77" d="M564.61,182.86l-1.06.62a1.32,1.32,0,0,1-.54.24,1.35,1.35,0,0,1-.6,0c-.26,0-.4-.41-.4-.91v-3.64a2.64,2.64,0,0,1,.4-1.39,3.47,3.47,0,0,1,1.14-1.08l1.06-.6a1.36,1.36,0,0,1,.53-.25,1.18,1.18,0,0,1,.59,0c.29.12.42.43.42.91v3.66a2.45,2.45,0,0,1-.42,1.39A3.08,3.08,0,0,1,564.61,182.86Zm-1-.11.87-.51a1.56,1.56,0,0,0,.64-.58,1.6,1.6,0,0,0,.24-.84v-3.59c0-.62-.3-.75-.88-.4l-.87.48a1.52,1.52,0,0,0-.64.59,1.63,1.63,0,0,0-.23.84v3.6C562.78,182.94,563.07,183.08,563.65,182.75Z" transform="translate(-411 -96)"/><path class="cls-77" d="M546.76,194.05l-1.06.62a1.54,1.54,0,0,1-.54.24,1.52,1.52,0,0,1-.6,0c-.27-.12-.42-.41-.42-.91v-3.66a2.54,2.54,0,0,1,.42-1.37,3,3,0,0,1,1.14-1.08l1.06-.6a1.26,1.26,0,0,1,1.12-.25c.29.12.42.42.42.91v3.66a2.55,2.55,0,0,1-.42,1.39A3.25,3.25,0,0,1,546.76,194.05Zm-1-.12.86-.5a1.6,1.6,0,0,0,.89-1.43v-3.6c0-.6-.31-.73-.89-.41l-.86.51a1.46,1.46,0,0,0-.65.58,1.55,1.55,0,0,0-.24.84v3.61C544.91,194.13,545.2,194.26,545.8,193.93Z" transform="translate(-411 -96)"/><path class="cls-77" d="M558.62,218.39l-1,.62a1.32,1.32,0,0,1-.54.24,1.3,1.3,0,0,1-.59,0c-.29-.11-.43-.4-.43-.9v-3.67a2.36,2.36,0,0,1,.43-1.36,3.28,3.28,0,0,1,1.13-1.09l1-.59a1.2,1.2,0,0,1,.53-.26,1.35,1.35,0,0,1,.6,0c.27.11.43.42.43.9V216a2.61,2.61,0,0,1-.43,1.38A3,3,0,0,1,558.62,218.39Zm-1-.11.85-.5a1.54,1.54,0,0,0,.65-.59,1.46,1.46,0,0,0,.23-.84v-3.59c0-.61-.28-.75-.88-.42l-.85.5a1.6,1.6,0,0,0-.89,1.43v3.61C556.78,218.47,557.07,218.61,557.67,218.28Z" transform="translate(-411 -96)"/><path class="cls-77" d="M569.14,164.19l-1.06.61a1.4,1.4,0,0,1-.54.25,1.35,1.35,0,0,1-.6,0c-.27-.11-.4-.4-.4-.9v-3.67a2.51,2.51,0,0,1,.4-1.36,3.27,3.27,0,0,1,1.14-1.08l1.06-.6a1.23,1.23,0,0,1,.54-.26,1.35,1.35,0,0,1,.6,0c.27.11.4.42.4.9v3.67a2.64,2.64,0,0,1-.4,1.39A3.41,3.41,0,0,1,569.14,164.19Zm-1-.12.86-.5a1.57,1.57,0,0,0,.66-.59,1.63,1.63,0,0,0,.23-.84v-3.6c0-.6-.29-.74-.89-.41l-.86.5a1.59,1.59,0,0,0-.64.59,1.46,1.46,0,0,0-.23.84v3.6C567.31,164.27,567.6,164.4,568.18,164.07Z" transform="translate(-411 -96)"/><path class="cls-77" d="M558,166.67l-1,.6a1.23,1.23,0,0,1-.54.26,1.35,1.35,0,0,1-.6,0c-.28-.11-.42-.42-.42-.9V163a2.55,2.55,0,0,1,.42-1.39A3.31,3.31,0,0,1,557,160.5l1-.61a1.38,1.38,0,0,1,.55-.25,1.31,1.31,0,0,1,.59,0c.27.11.42.4.42.9v3.65a2.52,2.52,0,0,1-.42,1.38A3.19,3.19,0,0,1,558,166.67Zm-1-.13.87-.48a1.68,1.68,0,0,0,.65-.59,1.63,1.63,0,0,0,.23-.84V161c0-.61-.29-.75-.88-.4l-.87.5a1.52,1.52,0,0,0-.64.59,1.54,1.54,0,0,0-.23.84v3.58c-.06.62.2.76.79.41Z" transform="translate(-411 -96)"/><path class="cls-78" d="M542.24,171.7v-.42a.47.47,0,0,1,.11-.31l1.24-1.41a.93.93,0,0,1,.27-.25l.44-.27h.16v6.48a.34.34,0,0,1-.05.14.24.24,0,0,1-.11.09l-.48.27h-.14v-5.78l-1.25,1.44C542.3,171.82,542.24,171.82,542.24,171.7Z" transform="translate(-411 -96)"/><path class="cls-78" d="M559.18,131.87l-1,.62a1.32,1.32,0,0,1-.54.24,1.26,1.26,0,0,1-.58,0c-.29-.12-.43-.4-.43-.91v-3.68a2.48,2.48,0,0,1,.43-1.39,3.31,3.31,0,0,1,1.12-1.08l1-.59a1.29,1.29,0,0,1,.54-.26,1.22,1.22,0,0,1,.6,0c.27.11.41.42.41.9v3.67a2.68,2.68,0,0,1-.41,1.38A3.16,3.16,0,0,1,559.18,131.87Zm-1-.11.87-.5a1.61,1.61,0,0,0,.65-.59,1.55,1.55,0,0,0,.24-.84V126.2c0-.61-.29-.75-.89-.4l-.87.48a1.65,1.65,0,0,0-.64.59,1.63,1.63,0,0,0-.23.84v3.6Q557.35,132.26,558.22,131.76Z" transform="translate(-411 -96)"/><path class="cls-78" d="M571.51,143.61v-.42a.52.52,0,0,1,.12-.31l1.23-1.41a1.72,1.72,0,0,1,.27-.27l.45-.25h.13v6.5a.35.35,0,0,1,0,.14.28.28,0,0,1-.1.09l-.48.27H573v-5.78l-1.25,1.44C571.57,143.73,571.51,143.73,571.51,143.61Z" transform="translate(-411 -96)"/><path class="cls-78" d="M552.85,178.43V178a.55.55,0,0,1,.14-.31l1.23-1.41a1.09,1.09,0,0,1,.27-.25l.44-.25h.14v6.48a.23.23,0,0,1,0,.14.22.22,0,0,1-.1.09l-.48.29h-.15V177L553,178.45C552.93,178.55,552.85,178.57,552.85,178.43Z" transform="translate(-411 -96)"/></svg>