<svg id="Слой_1" data-name="Слой 1" xmlns="http://www.w3.org/2000/svg" xmlns:xlink="http://www.w3.org/1999/xlink" viewBox="0 0 399 409"><defs><style>.cls-1,.cls-3,.cls-4,.cls-7{fill:none;}.cls-1,.cls-6,.cls-7{stroke:#ed6f00;}.cls-1,.cls-4{stroke-linecap:round;}.cls-1,.cls-3{stroke-width:2px;}.cls-1{stroke-dasharray:2 8;opacity:0.4;isolation:isolate;}.cls-2{fill:#426ab3;}.cls-3,.cls-4{stroke:#426ab3;}.cls-4{stroke-width:2.33px;}.cls-5,.cls-6{fill:#fff;}.cls-8{fill:url(#Безымянный_градиент_3);}.cls-9{fill:url(#Безымянный_градиент_3-2);}.cls-10{fill:url(#Безымянный_градиент_3-3);}</style><linearGradient id="Безымянный_градиент_3" x1="770.64" y1="369.34" x2="898.78" y2="355.61" gradientTransform="matrix(1, 0, 0, -1, -483, 591)" gradientUnits="userSpaceOnUse"><stop offset="0" stop-color="#f47920"/><stop offset="0.9" stop-color="#f7bb62" stop-opacity="0.7"/></linearGradient><linearGradient id="Безымянный_градиент_3-2" x1="490.48" y1="314.45" x2="638.85" y2="298.55" xlink:href="#Безымянный_градиент_3"/><linearGradient id="Безымянный_градиент_3-3" x1="630.83" y1="563.7" x2="720.76" y2="554.06" xlink:href="#Безымянный_градиент_3"/></defs><title>icon-chima-cds</title><line class="cls-1" x1="206" y1="30" x2="398" y2="30"/><line class="cls-1" x1="366" y1="225" x2="398" y2="225"/><line class="cls-1" x1="49" y1="408" x2="394" y2="408"/><line class="cls-1" x1="48" y1="408" x2="48" y2="315"/><path class="cls-2" d="M569.34,492.34,595,496.53,587.5,511Z" transform="translate(-483 -179)"/><path class="cls-2" d="M623.62,216.55l-21.83,14.16L597.65,215Z" transform="translate(-483 -179)"/><path class="cls-2" d="M810.38,360.91l-10.89-23.63,16.18-1.85Z" transform="translate(-483 -179)"/><path class="cls-3" d="M507,416.5c-21.5-64.5-6.5-157,103-196.5m74.5-3c53.5,11,116,52.5,125,131M789,442.5c-35,57-119.5,102.5-206,57" transform="translate(-483 -179)"/><path class="cls-2" d="M612.54,363.26a4,4,0,0,0-1.71.34,3.45,3.45,0,0,0-1.27,1,4.54,4.54,0,0,0-.79,1.57,8.31,8.31,0,0,0,.16,4.74,3.73,3.73,0,0,0,1.33,1.72,4.06,4.06,0,0,0,2.26.59,8.1,8.1,0,0,0,1.65-.17,14.12,14.12,0,0,0,1.66-.44v1.86a8.92,8.92,0,0,1-1.64.46,10.88,10.88,0,0,1-1.91.14,6.31,6.31,0,0,1-3.39-.84,5.17,5.17,0,0,1-2-2.39,9,9,0,0,1-.66-3.6,8.7,8.7,0,0,1,.42-2.77,6.31,6.31,0,0,1,1.22-2.17,5.27,5.27,0,0,1,2-1.41,7,7,0,0,1,2.7-.5,8.69,8.69,0,0,1,2,.23,7.37,7.37,0,0,1,1.8.63l-.77,1.8a11.35,11.35,0,0,0-1.44-.57A5.52,5.52,0,0,0,612.54,363.26Zm14.72,1.56V374.9h-1.69l-.29-1.35h-.12a2.89,2.89,0,0,1-.81.86,3.49,3.49,0,0,1-1.09.5,5,5,0,0,1-3.22-.21,2.74,2.74,0,0,1-1.23-1.2,4.54,4.54,0,0,1-.42-2.09v-6.59h2.15V371a2.69,2.69,0,0,0,.47,1.75,1.82,1.82,0,0,0,1.49.59,2.71,2.71,0,0,0,1.55-.4,2.2,2.2,0,0,0,.81-1.19,6.58,6.58,0,0,0,.25-1.92v-5ZM637.1,372a2.82,2.82,0,0,1-.48,1.67,3,3,0,0,1-1.42,1,6.42,6.42,0,0,1-2.25.34,9.47,9.47,0,0,1-1.82-.15,6.46,6.46,0,0,1-1.43-.45v-1.85a10.05,10.05,0,0,0,1.61.58,6.63,6.63,0,0,0,1.7.24,2.71,2.71,0,0,0,1.52-.32,1.05,1.05,0,0,0,.46-.9.94.94,0,0,0-.19-.58,2.11,2.11,0,0,0-.69-.54,14.2,14.2,0,0,0-1.47-.67,12.51,12.51,0,0,1-1.62-.76,3,3,0,0,1-1-.92,2.69,2.69,0,0,1-.33-1.4,2.29,2.29,0,0,1,1-2,5.12,5.12,0,0,1,2.82-.7,8.07,8.07,0,0,1,1.74.19,8.33,8.33,0,0,1,1.62.54l-.67,1.61a10.33,10.33,0,0,0-1.38-.49,5,5,0,0,0-1.39-.2,2.42,2.42,0,0,0-1.26.26.78.78,0,0,0-.43.72.88.88,0,0,0,.21.6,2.22,2.22,0,0,0,.72.5c.34.16.82.36,1.44.61a9.81,9.81,0,0,1,1.55.73,2.68,2.68,0,0,1,1,.91A2.56,2.56,0,0,1,637.1,372Zm6.06,1.33a4.58,4.58,0,0,0,.83-.08,6.83,6.83,0,0,0,.75-.19v1.62a4.66,4.66,0,0,1-.92.27,6.48,6.48,0,0,1-1.18.1,4,4,0,0,1-1.54-.28,2.24,2.24,0,0,1-1.08-1,3.89,3.89,0,0,1-.4-1.94v-5.42h-1.38v-.95l1.48-.76.7-2.16h1.35v2.24h2.88v1.63h-2.88v5.39a1.55,1.55,0,0,0,.38,1.14A1.39,1.39,0,0,0,643.16,373.36Zm12.55-3.52a6.93,6.93,0,0,1-.33,2.23,4.61,4.61,0,0,1-1,1.65,4.33,4.33,0,0,1-1.52,1,5.43,5.43,0,0,1-2,.34,5.06,5.06,0,0,1-1.9-.34,4.48,4.48,0,0,1-1.51-1,4.8,4.8,0,0,1-1-1.65,6.65,6.65,0,0,1-.35-2.23,6.19,6.19,0,0,1,.58-2.82,4.13,4.13,0,0,1,1.65-1.78,5.18,5.18,0,0,1,2.56-.61,4.93,4.93,0,0,1,2.46.61,4.23,4.23,0,0,1,1.67,1.78A6.12,6.12,0,0,1,655.71,369.84Zm-7.31,0a6.16,6.16,0,0,0,.26,1.89,2.54,2.54,0,0,0,3.75,1.2,2.35,2.35,0,0,0,.83-1.2,5.85,5.85,0,0,0,.27-1.89,5.68,5.68,0,0,0-.27-1.87,2.27,2.27,0,0,0-.83-1.17,2.43,2.43,0,0,0-1.46-.41,2.18,2.18,0,0,0-1.94.89A4.51,4.51,0,0,0,648.4,369.84Zm21.16-5.21a3.39,3.39,0,0,1,2.55.88,3.88,3.88,0,0,1,.86,2.8v6.59h-2.14v-6.21a2.88,2.88,0,0,0-.44-1.73,1.63,1.63,0,0,0-1.36-.58,2.07,2.07,0,0,0-1.84.82,4.18,4.18,0,0,0-.56,2.36v5.34h-2.14v-6.21a3.35,3.35,0,0,0-.2-1.27,1.44,1.44,0,0,0-.59-.78,1.82,1.82,0,0,0-1-.26,2,2,0,0,0-2.16,1.58,7,7,0,0,0-.22,1.91v5h-2.14V364.82h1.66l.3,1.36h.12a2.78,2.78,0,0,1,.77-.86,3,3,0,0,1,1-.52,4.09,4.09,0,0,1,1.17-.17,4.17,4.17,0,0,1,1.9.4,2.5,2.5,0,0,1,1.16,1.2h.16a3,3,0,0,1,1.32-1.21A4.29,4.29,0,0,1,669.56,364.63Zm10.41,0a4.61,4.61,0,0,1,2.32.56,3.68,3.68,0,0,1,1.48,1.57,5.29,5.29,0,0,1,.52,2.44v1.15h-6.73a3.36,3.36,0,0,0,.78,2.26,2.79,2.79,0,0,0,2.12.79,7.6,7.6,0,0,0,1.73-.18,9.49,9.49,0,0,0,1.59-.56v1.74a6.82,6.82,0,0,1-1.54.52,9.24,9.24,0,0,1-1.87.16,5.77,5.77,0,0,1-2.62-.57,4.25,4.25,0,0,1-1.76-1.73,6,6,0,0,1-.62-2.85,6.6,6.6,0,0,1,.57-2.88,4.16,4.16,0,0,1,1.61-1.8A4.66,4.66,0,0,1,680,364.63Zm0,1.61a2.13,2.13,0,0,0-1.63.66,3.06,3.06,0,0,0-.73,1.92h4.59a3.72,3.72,0,0,0-.26-1.34,1.94,1.94,0,0,0-.73-.91A2.14,2.14,0,0,0,680,366.24Zm11.84-1.61.56,0a4.86,4.86,0,0,1,.51.07l-.2,2a3.47,3.47,0,0,0-.47-.08l-.49,0a3,3,0,0,0-1.09.19,2.48,2.48,0,0,0-.92.56,2.51,2.51,0,0,0-.63.94,3.52,3.52,0,0,0-.23,1.31v5.27H686.7V364.82h1.68l.29,1.78h.1a4.19,4.19,0,0,1,.75-1,3.37,3.37,0,0,1,1-.72A3,3,0,0,1,691.81,364.63Zm18.81,3.49a7.66,7.66,0,0,1-.84,3.76,5.35,5.35,0,0,1-2.43,2.27,9,9,0,0,1-3.84.75h-3.7V361.59h4.1a7.9,7.9,0,0,1,3.57.75,5.23,5.23,0,0,1,2.32,2.19A7.17,7.17,0,0,1,710.62,368.12Zm-2.27.06a6.17,6.17,0,0,0-.52-2.69,3.34,3.34,0,0,0-1.51-1.57,5.35,5.35,0,0,0-2.45-.52H702v9.67h1.55a4.79,4.79,0,0,0,3.6-1.23A5,5,0,0,0,708.35,368.18Zm8.87-3.55a4.26,4.26,0,0,1,2.89.85,3.3,3.3,0,0,1,1,2.64v6.78h-1.52l-.41-1.43h-.07a5.48,5.48,0,0,1-.88.91,3.18,3.18,0,0,1-1.06.52,5,5,0,0,1-1.45.18,3.76,3.76,0,0,1-1.61-.32,2.63,2.63,0,0,1-1.12-1,3.38,3.38,0,0,1-.41-1.73,2.64,2.64,0,0,1,1.16-2.34,6.75,6.75,0,0,1,3.51-.87l1.75-.06v-.53a1.67,1.67,0,0,0-1.86-1.94,4.78,4.78,0,0,0-1.46.22,9.75,9.75,0,0,0-1.39.54l-.69-1.51a7.08,7.08,0,0,1,1.68-.64A7.47,7.47,0,0,1,717.22,364.63Zm1.75,5.46-1.3,0a4.08,4.08,0,0,0-2.25.55,1.6,1.6,0,0,0-.65,1.35,1.29,1.29,0,0,0,.45,1.09,1.94,1.94,0,0,0,1.18.33,2.69,2.69,0,0,0,1.83-.62A2.32,2.32,0,0,0,719,371Zm8.87,3.27a4.58,4.58,0,0,0,.83-.08,6.11,6.11,0,0,0,.74-.19v1.62a4.28,4.28,0,0,1-.92.27,6.29,6.29,0,0,1-1.17.1,4,4,0,0,1-1.54-.28,2.24,2.24,0,0,1-1.08-1,3.89,3.89,0,0,1-.4-1.94v-5.42h-1.38v-.95l1.48-.76.7-2.16h1.35v2.24h2.88v1.63h-2.88v5.39a1.51,1.51,0,0,0,.38,1.14A1.37,1.37,0,0,0,727.84,373.36Zm7.57-8.73a4.26,4.26,0,0,1,2.89.85,3.28,3.28,0,0,1,1,2.64v6.78h-1.53l-.41-1.43h-.07a5.11,5.11,0,0,1-.88.91,3.09,3.09,0,0,1-1.06.52,5,5,0,0,1-1.44.18,3.81,3.81,0,0,1-1.62-.32,2.69,2.69,0,0,1-1.12-1,3.38,3.38,0,0,1-.41-1.73,2.64,2.64,0,0,1,1.16-2.34,6.77,6.77,0,0,1,3.51-.87l1.75-.06v-.53a1.67,1.67,0,0,0-1.85-1.94,4.8,4.8,0,0,0-1.47.22,10.24,10.24,0,0,0-1.39.54l-.69-1.51a7.08,7.08,0,0,1,1.68-.64A7.52,7.52,0,0,1,735.41,364.63Zm1.75,5.46-1.3,0a4.08,4.08,0,0,0-2.25.55A1.59,1.59,0,0,0,733,372a1.32,1.32,0,0,0,.44,1.09,1.94,1.94,0,0,0,1.18.33,2.72,2.72,0,0,0,1.84-.62,2.35,2.35,0,0,0,.73-1.87ZM614.55,396.28a3.44,3.44,0,0,1-2.24,3.35,6.59,6.59,0,0,1-2.56.45,10.55,10.55,0,0,1-1.4-.08,9.25,9.25,0,0,1-1.25-.23,7,7,0,0,1-1.07-.39v-2.06a15.8,15.8,0,0,0,1.81.64,7.45,7.45,0,0,0,2,.29,4,4,0,0,0,1.4-.22,1.64,1.64,0,0,0,1.12-1.61,1.62,1.62,0,0,0-.32-1,3,3,0,0,0-1-.74,15.79,15.79,0,0,0-1.6-.74,12.19,12.19,0,0,1-1.26-.6,5.55,5.55,0,0,1-1-.79,3.4,3.4,0,0,1-.74-1.08,3.71,3.71,0,0,1-.27-1.47,3.35,3.35,0,0,1,.54-1.93,3.47,3.47,0,0,1,1.53-1.23,5.7,5.7,0,0,1,2.31-.43,8.26,8.26,0,0,1,2,.22,9.31,9.31,0,0,1,1.82.62l-.69,1.75a12.88,12.88,0,0,0-1.59-.53,5.93,5.93,0,0,0-1.57-.2,2.91,2.91,0,0,0-1.17.21,1.58,1.58,0,0,0-.74.59,1.55,1.55,0,0,0-.25.89,1.63,1.63,0,0,0,.29,1,2.57,2.57,0,0,0,.89.72c.4.22.93.46,1.56.73a10.45,10.45,0,0,1,1.87,1,3.46,3.46,0,0,1,1.18,1.2A3.3,3.3,0,0,1,614.55,396.28Zm11.27-1.44a6.94,6.94,0,0,1-.32,2.23,4.49,4.49,0,0,1-1,1.65,4.29,4.29,0,0,1-1.51,1,5.43,5.43,0,0,1-2,.34,5.11,5.11,0,0,1-1.91-.34,4.54,4.54,0,0,1-1.5-1,4.65,4.65,0,0,1-1-1.65,6.65,6.65,0,0,1-.35-2.23,6.33,6.33,0,0,1,.57-2.82,4.09,4.09,0,0,1,1.66-1.78,5.18,5.18,0,0,1,2.56-.61,4.93,4.93,0,0,1,2.46.61,4.21,4.21,0,0,1,1.66,1.78A6,6,0,0,1,625.82,394.84Zm-7.31,0a5.85,5.85,0,0,0,.27,1.89,2.39,2.39,0,0,0,4.58,0,6.16,6.16,0,0,0,.26-1.89,6,6,0,0,0-.26-1.87,2.32,2.32,0,0,0-.83-1.17,2.48,2.48,0,0,0-1.47-.41,2.2,2.2,0,0,0-1.94.89A4.59,4.59,0,0,0,618.51,394.84Zm11.92,5.06h-2.15V385.73h2.15Zm11.85-10.08V399.9h-1.69l-.29-1.35h-.12a2.89,2.89,0,0,1-.81.86,3.39,3.39,0,0,1-1.09.5,4.36,4.36,0,0,1-1.26.17,4.46,4.46,0,0,1-1.95-.38,2.65,2.65,0,0,1-1.23-1.2,4.41,4.41,0,0,1-.43-2.09v-6.59h2.15V396a2.75,2.75,0,0,0,.47,1.75,1.82,1.82,0,0,0,1.49.59,2.69,2.69,0,0,0,1.55-.4,2.1,2.1,0,0,0,.81-1.19,6.26,6.26,0,0,0,.25-1.92v-5Zm6.82,8.54a4.67,4.67,0,0,0,.83-.08,6.11,6.11,0,0,0,.74-.19v1.62a4.28,4.28,0,0,1-.92.27,6.29,6.29,0,0,1-1.17.1,4,4,0,0,1-1.54-.28,2.2,2.2,0,0,1-1.08-1,3.89,3.89,0,0,1-.4-1.94v-5.42h-1.38v-.95l1.48-.76.7-2.16h1.35v2.24h2.88v1.63h-2.88v5.39a1.51,1.51,0,0,0,.38,1.14A1.37,1.37,0,0,0,649.1,398.36Zm5.76-8.54V399.9h-2.14V389.82ZM653.81,386a1.34,1.34,0,0,1,.84.27,1,1,0,0,1,.37.91,1.05,1.05,0,0,1-.37.91,1.4,1.4,0,0,1-.84.26,1.47,1.47,0,0,1-.87-.26,1.09,1.09,0,0,1-.34-.91,1.07,1.07,0,0,1,.34-.91A1.41,1.41,0,0,1,653.81,386Zm13,8.88a6.93,6.93,0,0,1-.33,2.23,4.34,4.34,0,0,1-.95,1.65,4.29,4.29,0,0,1-1.51,1,5.48,5.48,0,0,1-2,.34,5.1,5.1,0,0,1-1.9-.34,4.34,4.34,0,0,1-1.5-1,4.67,4.67,0,0,1-1-1.65,6.66,6.66,0,0,1-.34-2.23,6.33,6.33,0,0,1,.57-2.82,4.09,4.09,0,0,1,1.66-1.78,5.18,5.18,0,0,1,2.56-.61,4.93,4.93,0,0,1,2.46.61,4.21,4.21,0,0,1,1.66,1.78A6.12,6.12,0,0,1,666.85,394.84Zm-7.31,0a5.85,5.85,0,0,0,.27,1.89,2.19,2.19,0,0,0,2.29,1.61,2.45,2.45,0,0,0,1.46-.41,2.47,2.47,0,0,0,.83-1.2,6.16,6.16,0,0,0,.26-1.89,6,6,0,0,0-.26-1.87,2.39,2.39,0,0,0-.83-1.17,2.48,2.48,0,0,0-1.47-.41,2.2,2.2,0,0,0-1.94.89A4.51,4.51,0,0,0,659.54,394.84Zm15-5.21a3.71,3.71,0,0,1,2.64.89,3.63,3.63,0,0,1,1,2.81v6.57H676v-6.17a2.74,2.74,0,0,0-.48-1.76,1.83,1.83,0,0,0-1.5-.59,2.22,2.22,0,0,0-2,.9,4.91,4.91,0,0,0-.57,2.61v5h-2.14V389.82H671l.3,1.37h.12a2.93,2.93,0,0,1,.81-.87,3.78,3.78,0,0,1,1.09-.52A4.86,4.86,0,0,1,674.57,389.63Z" transform="translate(-483 -179)"/><path class="cls-4" d="M564,348.61V382.4c57.65.67,173,1.61,173,0" transform="translate(-483 -179)"/><path class="cls-4" d="M578.49,366.6,635.9,336l40.78,1.61L725,314" transform="translate(-483 -179)"/><circle class="cls-2" cx="151.27" cy="157.56" r="6.96"/><path class="cls-5" d="M632.51,340.73v-8h2.21a3.59,3.59,0,0,1,2.28.6,2.06,2.06,0,0,1,.75,1.72,2.13,2.13,0,0,1-1.45,2.14,4.45,4.45,0,0,1-1.75.29h-1v3.25Zm-1-1.52v-.73h4v.73Zm0-1.73v-.85h2.69v.85Zm2.91-.85a4.2,4.2,0,0,0,1.21-.15,1.31,1.31,0,0,0,1-1.4,1.33,1.33,0,0,0-.5-1.13,2.59,2.59,0,0,0-1.53-.37h-1.06v3.05Z" transform="translate(-483 -179)"/><circle class="cls-2" cx="94.41" cy="188.14" r="5.9"/><path class="cls-5" d="M575.92,370.68v-6.79h1.87a3.06,3.06,0,0,1,1.94.51,1.75,1.75,0,0,1,.64,1.46,2,2,0,0,1-.31,1.11,2,2,0,0,1-.92.71,4,4,0,0,1-1.49.24h-.83v2.76Zm-.87-1.29v-.62h3.41v.62Zm0-1.47v-.72h2.29v.72Zm2.48-.72a3.76,3.76,0,0,0,1-.12,1.12,1.12,0,0,0,.89-1.19,1.12,1.12,0,0,0-.42-1,2.18,2.18,0,0,0-1.31-.31h-.89v2.58Z" transform="translate(-483 -179)"/><circle class="cls-2" cx="194.86" cy="157.82" r="7.62"/><path class="cls-5" d="M675.93,341.39v-8.76h2.42a3.9,3.9,0,0,1,2.49.65,2.26,2.26,0,0,1,.83,1.89,2.58,2.58,0,0,1-.4,1.43,2.54,2.54,0,0,1-1.19.91,5,5,0,0,1-1.91.32h-1.08v3.56Zm-1.12-1.67v-.8h4.4v.8Zm0-1.89v-.93h3v.93Zm3.19-.93a5,5,0,0,0,1.32-.16,1.66,1.66,0,0,0,.85-.53,1.56,1.56,0,0,0,.3-1,1.46,1.46,0,0,0-.54-1.24,2.83,2.83,0,0,0-1.69-.4h-1.15v3.34Z" transform="translate(-483 -179)"/><circle class="cls-2" cx="245.28" cy="133.68" r="8.68"/><path class="cls-5" d="M726.08,317.89v-10h2.76a4.45,4.45,0,0,1,2.84.74,2.56,2.56,0,0,1,.94,2.15,2.94,2.94,0,0,1-.45,1.64,2.91,2.91,0,0,1-1.35,1,5.82,5.82,0,0,1-2.19.37H727.4v4.05Zm-1.27-1.9v-.91h5V316Zm0-2.15v-1.07h3.35v1.07Zm3.63-1.07a5.43,5.43,0,0,0,1.51-.18,1.84,1.84,0,0,0,1-.6,1.75,1.75,0,0,0,.34-1.15,1.66,1.66,0,0,0-.62-1.41,3.19,3.19,0,0,0-1.92-.46H727.4v3.8Z" transform="translate(-483 -179)"/><circle class="cls-6" cx="49" cy="281" r="48.5"/><circle class="cls-7" cx="172" cy="30" r="29.5"/><circle class="cls-8" cx="323.5" cy="225.5" r="28.5"/><circle class="cls-9" cx="49" cy="281" r="33"/><circle class="cls-10" cx="173" cy="30" r="20"/><circle class="cls-7" cx="323.5" cy="225.5" r="42"/><path class="cls-5" d="M813.9,414.08V416H799.17v-1.53l8.73-8.55a11.09,11.09,0,0,0,2.22-2.79,5.33,5.33,0,0,0,.6-2.4,3.46,3.46,0,0,0-1.29-2.88,5.53,5.53,0,0,0-3.63-1.05,7.2,7.2,0,0,0-5.73,2.34l-1.53-1.32a8.08,8.08,0,0,1,3.12-2.22,11.39,11.39,0,0,1,4.32-.78,7.75,7.75,0,0,1,5.07,1.53,5,5,0,0,1,1.89,4.14,7.13,7.13,0,0,1-.72,3.12,13.08,13.08,0,0,1-2.73,3.45l-7.14,7Z" transform="translate(-483 -179)"/><path class="cls-5" d="M532.73,459.2a9.49,9.49,0,0,1,6.18,2.22,6.64,6.64,0,0,1,2.15,5.14,7.35,7.35,0,0,1-1.08,4,7.23,7.23,0,0,1-3.18,2.7,11.9,11.9,0,0,1-5.14,1,15.69,15.69,0,0,1-5.33-.89,10.94,10.94,0,0,1-4-2.44l1.3-2.11a9.7,9.7,0,0,0,3.44,2.19,12.88,12.88,0,0,0,4.59.81,7.81,7.81,0,0,0,4.92-1.37,4.68,4.68,0,0,0,1.74-3.85,4.53,4.53,0,0,0-1.74-3.77,8.44,8.44,0,0,0-5.26-1.37h-1.85v-2l7.18-9H523.41V448.1h16.65V450Z" transform="translate(-483 -179)"/><path class="cls-5" d="M656.92,202v14h-1.44V203.28h-3.3V202Z" transform="translate(-483 -179)"/></svg>