<svg id="Слой_1" data-name="Слой 1" xmlns="http://www.w3.org/2000/svg" viewBox="0 0 22 26"><defs><style>.cls-1{fill:none;stroke:#333;stroke-linecap:round;stroke-linejoin:round;stroke-width:2px;}</style></defs><title>input-file</title><path class="cls-1" d="M692,396H674a1,1,0,0,1-.71-.29A1,1,0,0,1,673,395V373a1,1,0,0,1,.29-.71A1,1,0,0,1,674,372h12l7,7v16a1,1,0,0,1-.08.38.9.9,0,0,1-.54.54A1,1,0,0,1,692,396Z" transform="translate(-672 -371)"/><path class="cls-1" d="M686,372v7h7" transform="translate(-672 -371)"/><path class="cls-1" d="M680,387h6" transform="translate(-672 -371)"/><path class="cls-1" d="M683,384v6" transform="translate(-672 -371)"/></svg>