<svg id="Слой_1" data-name="Слой 1" xmlns="http://www.w3.org/2000/svg" xmlns:xlink="http://www.w3.org/1999/xlink" viewBox="0 0 483.62 82.46"><defs><style>.cls-1{fill:url(#linear-gradient);}.cls-2{fill:#516aae;}</style><linearGradient id="linear-gradient" x1="440.89" y1="383.22" x2="570.11" y2="383.22" gradientUnits="userSpaceOnUse"><stop offset="0.2" stop-color="#d8792c"/><stop offset="0.23" stop-color="#c77d42"/><stop offset="0.28" stop-color="#9b8979"/><stop offset="0.3" stop-color="#8b8d8e"/><stop offset="0.59" stop-color="#8b8d8e"/><stop offset="0.64" stop-color="#727e9c"/><stop offset="0.7" stop-color="#5a6fa9"/><stop offset="0.73" stop-color="#516aae"/></linearGradient></defs><title>logo</title><path class="cls-1" d="M548.17,342.21a21.93,21.93,0,0,0-21.92,21.94c0,.52,0,1.05.06,1.56.07,1.06.49,3,.49,4.26a18.93,18.93,0,0,1-18.93,18.94,19.61,19.61,0,0,1-3.09-.27,16,16,0,0,0-2.08-.46,17.73,17.73,0,0,0-2.93-.26,18.89,18.89,0,0,0-8.87,2.32c-3.59,1.91-6.61,3.06-9.37,3.06-7.4,0-13.39-4.56-15.7-12.81a12.73,12.73,0,1,0-7.69,15.39c.63-.24,4.45-2,7.78-2,7.84-.1,15.52,7.46,15.75,13.1a18.14,18.14,0,0,0,36.25-.89c0-14.37,8.21-21.72,18.63-21.72a18.81,18.81,0,0,1,4.78.63c.45.12.89.25,1.32.4a22.38,22.38,0,0,0,5.52.7,21.94,21.94,0,1,0,0-43.87Z" transform="translate(-440.89 -342.21)"/><path class="cls-2" d="M618.28,385.08h-7.67c-.52,0-.83.6-.83.6L592,408.44a.75.75,0,0,1-1.29-.49V385.84a.76.76,0,0,0-.76-.76h-3.47A4.92,4.92,0,0,0,583,387a8,8,0,0,0-1.36,4.1v32.41a.76.76,0,0,0,.76.76h7.92a.75.75,0,0,0,.6-.3l17.67-23.12a.76.76,0,0,1,1.36.46v22.2a.76.76,0,0,0,.76.76h7.54a.76.76,0,0,0,.76-.76V385.84A.76.76,0,0,0,618.28,385.08Z" transform="translate(-440.89 -342.21)"/><path class="cls-2" d="M847.33,391.19a.76.76,0,0,0,.76.76h14.2a.76.76,0,0,1,.76.76v30.75a.76.76,0,0,0,.76.76h7.54a.76.76,0,0,0,.76-.76V392.71a.76.76,0,0,1,.76-.76h12.24a.76.76,0,0,0,.76-.76v-5.35a.76.76,0,0,0-.76-.76h-33a5.9,5.9,0,0,0-3.86,1.91A6.63,6.63,0,0,0,847.33,391.19Z" transform="translate(-440.89 -342.21)"/><path class="cls-2" d="M843.67,395.79c-1-7.09-8-11.17-18.82-11.17-4.26,0-7.45.46-10,1.54a14.55,14.55,0,0,0-5.21,3.5.76.76,0,0,0,0,1.15l4.72,3.86a.76.76,0,0,0,1-.07,8.67,8.67,0,0,1,3.16-2.26,14.68,14.68,0,0,1,6-1c7.1,0,10.12,2.17,10.12,7.26v2.1a.77.77,0,0,1-.76.76H822.63c-9.58,0-15.44,4.24-15.44,11.34,0,7.57,5.59,11.81,15.62,11.81,4.74,0,7.58-.55,10.77-3a.75.75,0,0,1,1.21.61v1.2a.76.76,0,0,0,.76.76h7.36a.76.76,0,0,0,.76-.76v-19.2S843.7,396,843.67,395.79ZM834.28,414c0,2.09-5.09,4.17-9.43,4.17-6.12,0-8.87-1.78-8.87-5.56s2.75-5.56,8.07-5.56h9.64a.76.76,0,0,0,.6-.29S834.28,411.87,834.28,414Z" transform="translate(-440.89 -342.21)"/><path class="cls-2" d="M924.5,395.79c-1-7.09-8-11.17-18.81-11.17-4.27,0-7.46.46-10,1.54a14.58,14.58,0,0,0-5.22,3.5.77.77,0,0,0,0,1.15l4.73,3.86a.75.75,0,0,0,1-.07,8.75,8.75,0,0,1,3.16-2.26,14.71,14.71,0,0,1,6-1c7.1,0,10.12,2.17,10.12,7.26v2.1a.76.76,0,0,1-.76.76H903.47c-9.59,0-15.45,4.24-15.45,11.34,0,7.57,5.59,11.81,15.62,11.81,4.74,0,7.58-.55,10.78-3a.76.76,0,0,1,1.21.61v1.2a.76.76,0,0,0,.76.76h7.35a.76.76,0,0,0,.76-.76v-19.2S924.54,396,924.5,395.79ZM915.11,414c0,2.09-5.08,4.17-9.42,4.17-6.13,0-8.88-1.78-8.88-5.56s2.75-5.56,8.08-5.56h9.63a.73.73,0,0,0,.6-.29S915.11,411.87,915.11,414Z" transform="translate(-440.89 -342.21)"/><path class="cls-2" d="M753.85,407.15c0-.8.07-1.65.07-2.54,0,0,0-.05,0-.07s0-.06,0-.08,0-.13,0-.19c0-.58,0-1.14,0-1.69,0-.21,0-.43,0-.64,0-.53-.08-1-.13-1.52,0-.25-.05-.49-.08-.72,0-.47-.12-.92-.19-1.36,0-.21-.09-.42-.13-.63s-.13-.6-.21-.89-.16-.61-.25-.9-.16-.5-.25-.74-.17-.47-.27-.7a1,1,0,0,1,0-.1,14.09,14.09,0,0,0-2.22-3.65,1,1,0,0,0-.13-.09,16.14,16.14,0,0,0-1.36-1.39,16.47,16.47,0,0,0-3.34-2.29.52.52,0,0,0-.18-.15,19.24,19.24,0,0,0-4.08-1.5l-.13,0c-.57-.14-1.16-.26-1.76-.36H739c-.53-.08-1.08-.14-1.63-.19l-.45,0c-.58,0-1.17-.07-1.77-.07h0c-.6,0-1.2,0-1.78.07l-.44,0c-.55,0-1.1.11-1.64.19h-.06c-.6.1-1.18.22-1.75.36l-.13,0a19.53,19.53,0,0,0-4.09,1.5.49.49,0,0,0-.17.15,16.2,16.2,0,0,0-3.34,2.29,14.79,14.79,0,0,0-1.36,1.39.6.6,0,0,0-.13.09,14.41,14.41,0,0,0-2.23,3.65,1,1,0,0,1,0,.1l-.27.7c-.08.24-.17.49-.24.74s-.18.59-.26.9-.14.59-.2.89-.09.42-.13.63c-.08.44-.14.89-.2,1.36,0,.23-.05.47-.08.72,0,.49-.09,1-.12,1.52l0,.64c0,.55,0,1.11,0,1.69v.34c0,.89,0,1.74.07,2.54,0,.15,0,.29,0,.43s0,.42.05.63c.42,5.55,1.94,9,5.1,11.84a17.51,17.51,0,0,0,6.7,3.65l.53.16.81.21c.47.11,1,.21,1.44.29l.38.05c.45.07.91.12,1.37.16l.49,0c.58,0,1.17.07,1.77.07h0c.6,0,1.19,0,1.77-.07l.48,0c.47,0,.92-.09,1.37-.16l.38-.05c.49-.08,1-.18,1.45-.29l.81-.21.53-.16a17.58,17.58,0,0,0,6.7-3.65c3.16-2.88,4.67-6.29,5.1-11.84,0-.21,0-.42,0-.63Zm-13.3,9.09a8.63,8.63,0,0,1-3.68,1.29l-.29,0a12.48,12.48,0,0,1-1.39.09h0a12.48,12.48,0,0,1-1.39-.09l-.29,0a9.16,9.16,0,0,1-3.68-1.29.73.73,0,0,0-.28-.1,7.91,7.91,0,0,1-1.37-1.11,8.27,8.27,0,0,1-1.79-3,.78.78,0,0,0,0-.37,21.92,21.92,0,0,1-.85-6.76c0-4.63.53-8.26,2.76-10.65a7.94,7.94,0,0,1,1.64-1.28,9.59,9.59,0,0,1,3.59-1.22l.28,0a12.69,12.69,0,0,1,1.41-.09h0a12.69,12.69,0,0,1,1.41.09l.28,0a9.47,9.47,0,0,1,3.58,1.22,7.74,7.74,0,0,1,1.65,1.28c2.22,2.39,2.75,6,2.75,10.65a21.62,21.62,0,0,1-.85,6.76A9.55,9.55,0,0,1,740.55,416.24Z" transform="translate(-440.89 -342.21)"/><path class="cls-2" d="M708.67,385.08h-7.53a.76.76,0,0,0-.76.76v14.05a.77.77,0,0,1-.76.78H683.21a.77.77,0,0,1-.76-.78V385.84a.77.77,0,0,0-.76-.76h-3.32a4.06,4.06,0,0,0-3.84,1.54c-1.44,1.65-1.14,4.45-1.14,4.62v14.94h0v17.28a.76.76,0,0,0,.76.76h7.54a.76.76,0,0,0,.76-.76V408.3a.76.76,0,0,1,.76-.76h16.41a.76.76,0,0,1,.76.76v15.16a.76.76,0,0,0,.76.76h7.53a.76.76,0,0,0,.76-.76V385.84A.76.76,0,0,0,708.67,385.08Z" transform="translate(-440.89 -342.21)"/><path class="cls-2" d="M663.49,385.08H656a.76.76,0,0,0-.76.76v14.05a.77.77,0,0,1-.76.78H638a.77.77,0,0,1-.76-.78V385.84a.76.76,0,0,0-.76-.76h-3.32a4.05,4.05,0,0,0-3.83,1.54c-1.45,1.65-1.14,4.45-1.14,4.62v14.94h0v17.28a.76.76,0,0,0,.76.76h7.53a.76.76,0,0,0,.76-.76V408.3a.76.76,0,0,1,.76-.76h16.41a.76.76,0,0,1,.76.76v15.16a.76.76,0,0,0,.76.76h7.54a.76.76,0,0,0,.76-.76V385.84A.76.76,0,0,0,663.49,385.08Z" transform="translate(-440.89 -342.21)"/><path class="cls-2" d="M801.78,417.35h-4.69a.76.76,0,0,1-.76-.76V385.84a.76.76,0,0,0-.76-.76H771.05a4.87,4.87,0,0,0-3.77,1.62c-1.33,1.67-1.31,4.51-1.31,4.68V395c0,12.27-2,17.18-3.51,20.83-.39.95-.69,1.48-1.71,1.48h-4a.76.76,0,0,0-.76.76v5.38a.76.76,0,0,0,.76.76h45a.76.76,0,0,0,.76-.76v-5.38A.76.76,0,0,0,801.78,417.35Zm-14.51-.76a.76.76,0,0,1-.76.76H772.12c-.9,0-.86-.54-.62-1.2h0a49.72,49.72,0,0,0,3.09-17.95v-5.49a.76.76,0,0,1,.76-.76h11.17a.76.76,0,0,1,.76.76Z" transform="translate(-440.89 -342.21)"/></svg>