<svg id="Слой_1" data-name="Слой 1" xmlns="http://www.w3.org/2000/svg" xmlns:xlink="http://www.w3.org/1999/xlink" viewBox="0 0 129.21 82"><defs><style>.cls-1{fill:url(#linear-gradient);}</style><linearGradient id="linear-gradient" x1="617.89" y1="384.22" x2="747.11" y2="384.22" gradientUnits="userSpaceOnUse"><stop offset="0.2" stop-color="#d8792c"/><stop offset="0.23" stop-color="#c77d42"/><stop offset="0.28" stop-color="#9b8979"/><stop offset="0.3" stop-color="#8b8d8e"/><stop offset="0.59" stop-color="#8b8d8e"/><stop offset="0.64" stop-color="#727e9c"/><stop offset="0.7" stop-color="#5a6fa9"/><stop offset="0.73" stop-color="#516aae"/></linearGradient></defs><title>logo-icon</title><path class="cls-1" d="M725.17,343.21a21.93,21.93,0,0,0-21.92,21.94c0,.52,0,1.05.06,1.56.07,1.06.49,3,.49,4.26a18.93,18.93,0,0,1-18.93,18.94,19.61,19.61,0,0,1-3.09-.27,16,16,0,0,0-2.08-.46,17.73,17.73,0,0,0-2.93-.26,18.89,18.89,0,0,0-8.87,2.32c-3.59,1.91-6.61,3.06-9.37,3.06-7.4,0-13.39-4.56-15.7-12.81a12.73,12.73,0,1,0-7.69,15.39c.63-.24,4.45-2,7.78-2,7.84-.1,15.52,7.46,15.75,13.1a18.14,18.14,0,0,0,36.25-.89c0-14.37,8.21-21.72,18.63-21.72a18.81,18.81,0,0,1,4.78.63c.45.12.89.25,1.32.4a22.38,22.38,0,0,0,5.52.7,21.94,21.94,0,1,0,0-43.87Z" transform="translate(-617.89 -343.21)"/></svg>