<svg id="Слой_1" data-name="Слой 1" xmlns="http://www.w3.org/2000/svg" viewBox="0 0 40 40"><defs><style>.cls-1{fill:#f6f6f6;}.cls-2{fill:#686868;}</style></defs><title>logo-sd</title><circle class="cls-1" cx="20" cy="20" r="20"/><path class="cls-2" d="M689.44,382a2.36,2.36,0,0,0-1.15-.3,10.22,10.22,0,0,0-3.93.57,3.61,3.61,0,0,0-1.09.56h-.54a3.61,3.61,0,0,0-1.09-.56,10.27,10.27,0,0,0-3.94-.57,2.3,2.3,0,0,0-1.14.3l-1-.07.12,1s-.07,0,.32.27.44,1.07.82,1.85.68,1.17,2.22,1.39a2.89,2.89,0,0,0,2.84-1.08c.35-.49.82-1.84.89-1.84h.5c.07,0,.53,1.35.89,1.84a2.89,2.89,0,0,0,2.84,1.08c1.54-.22,1.83-.61,2.22-1.39s.44-1.6.82-1.85.32-.27.32-.27l.12-1Zm-7.33,1.87a9.44,9.44,0,0,1-.6,1.23,2.38,2.38,0,0,1-2,.91,2.56,2.56,0,0,1-.47,0c-1.43-.2-1.58-.52-1.89-1.15a5.88,5.88,0,0,1-.32-.85,1.93,1.93,0,0,1-.1-1.22,1.06,1.06,0,0,1,.93-.63,9.47,9.47,0,0,1,3.78.54A.93.93,0,0,1,682.11,383.89Zm7,.1a7.35,7.35,0,0,1-.32.85c-.31.63-.47,1-1.89,1.16l-.47,0a2.38,2.38,0,0,1-2-.91,7.43,7.43,0,0,1-.6-1.23.93.93,0,0,1,.62-1.21,9.66,9.66,0,0,1,3.78-.54,1,1,0,0,1,.93.64A1.88,1.88,0,0,1,689.13,384Z" transform="translate(-663 -363.86)"/><path class="cls-2" d="M690.92,378.85a1.5,1.5,0,0,0-1.06-.88,4,4,0,0,0-.79-.18,2.54,2.54,0,0,0,.07-.32,8.59,8.59,0,0,0-.3-1.79,9.66,9.66,0,0,0-.88-1.09,13.53,13.53,0,0,1,.74,1.23.41.41,0,0,1-.06.39,9.75,9.75,0,0,0-1.26-1.52,12.11,12.11,0,0,0-1.69-.83,4.84,4.84,0,0,1,.89.53,2,2,0,0,1,.62.83,5.76,5.76,0,0,0-2.26-1.18,9.75,9.75,0,0,0-4.33-.36,6.15,6.15,0,0,0-1.73.46,13.66,13.66,0,0,1,1.53-.22,5.07,5.07,0,0,1,1.64.17h-1a7.85,7.85,0,0,0-1.85.51,3.73,3.73,0,0,0-.73.52,2.89,2.89,0,0,0-.34.11,3.06,3.06,0,0,0-.55.37s.91-.39-.53.26-2,2.7-2,3.49a7.93,7.93,0,0,0,.22,1.95,4.06,4.06,0,0,0-.09-.74,7.81,7.81,0,0,1,.19-1.66,3.78,3.78,0,0,0,.13,1.11,14.27,14.27,0,0,0,.53,1.34s0-.18-.06-.76a1.76,1.76,0,0,1,.43-1.14,2.89,2.89,0,0,0-.11.69,1,1,0,0,0,.15.71,1.59,1.59,0,0,1,0-.88c.11-.63.33-1.08,1.67-1.28s3,1.46,3,1.46a1,1,0,0,0,.43.32c.23,0,.28-.09.28-.09a1.79,1.79,0,0,0,.48.08,1.44,1.44,0,0,0,.65-.23,6,6,0,0,0,1.74.48,2.1,2.1,0,0,0,1.26-.39,1.65,1.65,0,0,1,.44-.09,11.87,11.87,0,0,0,1.23-.27,1.76,1.76,0,0,0,1-.83,2.67,2.67,0,0,0,0,1.12,7.57,7.57,0,0,0,.57,1c.13.27,0,.69,0,.66a1.74,1.74,0,0,0,.36-.54.59.59,0,0,1,.06-.21s.28-.33.47-.61a3.23,3.23,0,0,0,.27-1.3c0-.29-.33-.6-.33-.6s0-.05.28,0a1.79,1.79,0,0,1,.61.44Z" transform="translate(-663 -363.86)"/><path class="cls-2" d="M688.46,387.8c-1.36,0-2.92-1.34-4.08-1.34s-1.38.6-1.38,1.07c0,.29.72,1.56,3.14,1.56l.41,0a1.54,1.54,0,0,1-.14.37c-.08.14-.5.18-.5.18a.78.78,0,0,0,.3.13c.11,0-.27.06-.45.36l-.27.46s-.52-.12-.73.06-.48.43-.78.3a.78.78,0,0,1-.39-.49l.21,0c.13,0-.07-.09-.14-.35a.93.93,0,0,1-.06-.28h-1.21a.93.93,0,0,1-.06.28c-.07.26-.27.38-.13.35a1,1,0,0,1,.2,0,.78.78,0,0,1-.39.49c-.3.13-.55-.11-.77-.3s-.74-.06-.74-.06-.09-.17-.27-.46-.56-.36-.45-.36a.85.85,0,0,0,.31-.13s-.43,0-.51-.18a1.54,1.54,0,0,1-.14-.37,2.82,2.82,0,0,0,.41,0c2.42,0,3.14-1.27,3.14-1.56,0-.47-.22-1.07-1.38-1.07s-2.72,1.34-4.08,1.34a2.19,2.19,0,0,1-1.61-.81,5,5,0,0,0,.63.69v.72c0,.75-.11.68-.11,1.54a21.74,21.74,0,0,0,.4,2.33.61.61,0,0,1-.21.44.9.9,0,0,0,.39-.27c.11-.17.08-.06.08-.06a9.2,9.2,0,0,0,.66,1.53c.35.57.22.11.17-.23a4.82,4.82,0,0,0,.63,1c.59.68,1.07.54,1.07.54s-.08-.1-.19-.21.1-.33.1-.33a2.72,2.72,0,0,1,.78,1c.19.52,0,.41.17.32a5.35,5.35,0,0,0,.49-.4s.58-.45.81-.13-.18,1-.18,1a2.48,2.48,0,0,0,.94-.26,1.56,1.56,0,0,0,.45-.72,1.44,1.44,0,0,0,.44.72,2.48,2.48,0,0,0,.94.26s-.47-.58-.18-1,.81.13.81.13a5.35,5.35,0,0,0,.49.4c.17.09,0,.2.17-.32a2.72,2.72,0,0,1,.78-1s.21.22.1.33-.19.21-.19.21.49.14,1.07-.54a4.82,4.82,0,0,0,.63-1c0,.34-.18.8.17.23a9.2,9.2,0,0,0,.66-1.53s0-.11.08.06a.9.9,0,0,0,.39.27.58.58,0,0,1-.2-.44c0-.31.39-1.47.39-2.33s-.11-.79-.11-1.54v-.72a5,5,0,0,0,.63-.69A2.16,2.16,0,0,1,688.46,387.8Z" transform="translate(-663 -363.86)"/></svg>