<svg id="Слой_1" data-name="Слой 1" xmlns="http://www.w3.org/2000/svg" xmlns:xlink="http://www.w3.org/1999/xlink" viewBox="0 0 55.85 70" width="70px" height="70px"><defs><style>.cls-1{fill:url(#Новый_образец_градиентной_залив);}</style><linearGradient id="Новый_образец_градиентной_залив" x1="655.08" y1="384" x2="710.92" y2="384" gradientUnits="userSpaceOnUse"><stop offset="0" stop-color="#f7bb62"/><stop offset="0.5" stop-color="#f47920"/><stop offset="1" stop-color="#e56102"/></linearGradient></defs><title>Безымянный-4</title><path class="cls-1" d="M682,349a27.94,27.94,0,0,0-26.42,33.21h0a8,8,0,0,0,.19.87,27.39,27.39,0,0,0,1.88,5.54c2.8,6.64,9.27,17.73,23.79,29.8a2.42,2.42,0,0,0,3.1,0c14.53-12.06,21-23.15,23.82-29.81a27.8,27.8,0,0,0,1.88-5.54c.12-.56.18-.88.18-.88h0A27.94,27.94,0,0,0,682,349Zm1,41.79a13.56,13.56,0,1,1,13.57-13.56A13.56,13.56,0,0,1,683,390.81Z" transform="translate(-655.08 -349)"/></svg>


