<svg id="Слой_1" data-name="Слой 1" xmlns="http://www.w3.org/2000/svg" xmlns:xlink="http://www.w3.org/1999/xlink" viewBox="0 0 866.95 676.53"><defs><style>.cls-1{fill:url(#Безымянный_градиент_2);}.cls-2{fill:#07306d;}.cls-3{fill:url(#Безымянный_градиент_4);}.cls-4{fill:url(#Безымянный_градиент_4-2);}.cls-5{fill:url(#Безымянный_градиент_4-3);}.cls-6{fill:url(#Безымянный_градиент_21);}.cls-7{fill:#bdbec5;}.cls-26,.cls-8{fill:#d6d6d6;}.cls-10,.cls-12,.cls-13,.cls-24,.cls-25,.cls-26,.cls-28,.cls-29,.cls-9{opacity:0.5;}.cls-10,.cls-13,.cls-24,.cls-25,.cls-26,.cls-27,.cls-28,.cls-29,.cls-32,.cls-9{isolation:isolate;}.cls-9{fill:url(#Безымянный_градиент_21-2);}.cls-10{fill:url(#Безымянный_градиент_21-3);}.cls-11{fill:#515151;}.cls-13{fill:url(#Безымянный_градиент_10);}.cls-14,.cls-32{fill:#2d2d2d;}.cls-15{fill:#426ab3;}.cls-16{fill:#fcd1c5;}.cls-17{fill:#f0f6ff;}.cls-18{fill:#c4ccd6;}.cls-19{fill:#e2b1a6;}.cls-20{fill:#aa8383;}.cls-21{fill:#936d6d;}.cls-22{fill:#334659;}.cls-23{fill:#263649;}.cls-24{fill:url(#Безымянный_градиент_10-2);}.cls-25{fill:#bdbec4;}.cls-27{fill:#180d5b;opacity:0.3;}.cls-28{fill:url(#Безымянный_градиент_10-3);}.cls-29{fill:url(#Безымянный_градиент_21-4);}.cls-30{fill:url(#Безымянный_градиент_21-5);}.cls-31{fill:#24126a;}.cls-32{opacity:0.63;}.cls-33{fill:url(#Безымянный_градиент_21-6);}.cls-34{fill:url(#Безымянный_градиент_14);}.cls-35{fill:#a5a6ae;}.cls-36{fill:#fff;}.cls-37{fill:#c3beb7;}.cls-38{fill:#a6a6ae;}.cls-39{fill:url(#Безымянный_градиент_15);}.cls-40{fill:#093d89;}.cls-41{fill:url(#Безымянный_градиент_16);}.cls-42{fill:url(#Безымянный_градиент_21-7);}.cls-43{fill:url(#Безымянный_градиент_21-8);}.cls-44{fill:url(#Безымянный_градиент_21-9);}.cls-45{fill:url(#Безымянный_градиент_21-10);}.cls-46{fill:#722318;}.cls-47{fill:url(#Безымянный_градиент_21-11);}.cls-48{fill:#4846a5;}</style><radialGradient id="Безымянный_градиент_2" cx="0.46" cy="769.53" r="1" gradientTransform="matrix(-306.51, 177, 153.3, 265.47, -117147.64, -203897.66)" gradientUnits="userSpaceOnUse"><stop offset="0" stop-color="#3b5fa2"/><stop offset="0.1" stop-color="#2d59aa"/><stop offset="0.73" stop-color="#20457b"/><stop offset="1" stop-color="#123d7d"/></radialGradient><linearGradient id="Безымянный_градиент_4" x1="872.65" y1="354.05" x2="701.56" y2="312.3" gradientTransform="matrix(1, 0, 0, -1, 0, 770)" gradientUnits="userSpaceOnUse"><stop offset="0" stop-color="#5761d7"/><stop offset="0.18" stop-color="#5c66d9"/><stop offset="0.39" stop-color="#6a73df"/><stop offset="0.61" stop-color="#8289e8"/><stop offset="0.85" stop-color="#a3a7f5"/><stop offset="1" stop-color="#bcbeff"/></linearGradient><linearGradient id="Безымянный_градиент_4-2" x1="873.9" y1="369.35" x2="1063.29" y2="369.35" xlink:href="#Безымянный_градиент_4"/><linearGradient id="Безымянный_градиент_4-3" x1="852.59" y1="373.45" x2="808.31" y2="416.24" xlink:href="#Безымянный_градиент_4"/><linearGradient id="Безымянный_градиент_21" x1="904.13" y1="299.33" x2="980.63" y2="391.45" gradientTransform="matrix(1, 0, 0, -1, 0, 770)" gradientUnits="userSpaceOnUse"><stop offset="0" stop-color="#4b79ce"/><stop offset="0.41" stop-color="#426ab3"/><stop offset="1" stop-color="#2b4a81"/></linearGradient><linearGradient id="Безымянный_градиент_21-2" x1="769.7" y1="511.3" x2="849.42" y2="584.71" xlink:href="#Безымянный_градиент_21"/><linearGradient id="Безымянный_градиент_21-3" x1="765.98" y1="507.84" x2="857.04" y2="579.42" xlink:href="#Безымянный_градиент_21"/><linearGradient id="Безымянный_градиент_10" x1="933.87" y1="670.37" x2="855.98" y2="469.99" gradientTransform="matrix(1, 0, 0, -1, 0, 770)" gradientUnits="userSpaceOnUse"><stop offset="0" stop-color="#42e8e0"/><stop offset="0.15" stop-color="#43e3e0"/><stop offset="0.33" stop-color="#45d5df"/><stop offset="0.52" stop-color="#49bddd"/><stop offset="0.72" stop-color="#4e9cdb"/><stop offset="0.93" stop-color="#5472d8"/><stop offset="1" stop-color="#5761d7"/></linearGradient><linearGradient id="Безымянный_градиент_10-2" x1="510.77" y1="443.88" x2="961.11" y2="443.88" xlink:href="#Безымянный_градиент_10"/><linearGradient id="Безымянный_градиент_10-3" x1="892.44" y1="456.69" x2="974.45" y2="456.69" xlink:href="#Безымянный_градиент_10"/><linearGradient id="Безымянный_градиент_21-4" x1="903.36" y1="428.94" x2="994.43" y2="500.52" xlink:href="#Безымянный_градиент_21"/><linearGradient id="Безымянный_градиент_21-5" x1="867.23" y1="495.2" x2="1022.41" y2="558.07" xlink:href="#Безымянный_градиент_21"/><linearGradient id="Безымянный_градиент_21-6" x1="699.83" y1="546.84" x2="873.72" y2="640.46" xlink:href="#Безымянный_градиент_21"/><linearGradient id="Безымянный_градиент_14" x1="704.39" y1="528.45" x2="718.1" y2="528.45" gradientTransform="matrix(1, 0, 0, -1, 0, 770)" gradientUnits="userSpaceOnUse"><stop offset="0" stop-color="#5761d7"/><stop offset="0.07" stop-color="#5472d8"/><stop offset="0.28" stop-color="#4e9cdb"/><stop offset="0.48" stop-color="#49bddd"/><stop offset="0.67" stop-color="#45d5df"/><stop offset="0.85" stop-color="#43e3e0"/><stop offset="1" stop-color="#42e8e0"/></linearGradient><linearGradient id="Безымянный_градиент_15" x1="775.59" y1="483.24" x2="610.52" y2="483.24" gradientTransform="matrix(1, 0, 0, -1, 0, 770)" gradientUnits="userSpaceOnUse"><stop offset="0" stop-color="#c0bff6"/><stop offset="0.29" stop-color="#c5c4f7"/><stop offset="0.64" stop-color="#d3d2f9"/><stop offset="1" stop-color="#e9e9fd"/></linearGradient><linearGradient id="Безымянный_градиент_16" x1="650.22" y1="487.68" x2="766.78" y2="465.2" gradientTransform="matrix(1, 0, 0, -1, 0, 770)" gradientUnits="userSpaceOnUse"><stop offset="0" stop-color="#f47920"/><stop offset="0.9" stop-color="#f7bb62" stop-opacity="0.7"/></linearGradient><linearGradient id="Безымянный_градиент_21-7" x1="487.27" y1="634.46" x2="497" y2="639.21" xlink:href="#Безымянный_градиент_21"/><linearGradient id="Безымянный_градиент_21-8" x1="454.12" y1="536.69" x2="487.68" y2="540.16" xlink:href="#Безымянный_градиент_21"/><linearGradient id="Безымянный_градиент_21-9" x1="499.55" y1="442.4" x2="637.43" y2="473.92" xlink:href="#Безымянный_градиент_21"/><linearGradient id="Безымянный_градиент_21-10" x1="562.75" y1="324.74" x2="574.64" y2="334.15" xlink:href="#Безымянный_градиент_21"/><linearGradient id="Безымянный_градиент_21-11" x1="585.9" y1="344.2" x2="597.67" y2="353.62" xlink:href="#Безымянный_градиент_21"/></defs><title>page-career</title><path class="cls-1" d="M682.48,722.53c239.4,0,433.47-112.07,433.47-250.32S921.88,221.9,682.48,221.9,249,334,249,472.21,443.07,722.53,682.48,722.53Z" transform="translate(-249 -46)"/><path class="cls-2" d="M869.83,495.54a9.44,9.44,0,1,1-9.44-9.44A9.44,9.44,0,0,1,869.83,495.54Z" transform="translate(-249 -46)"/><path class="cls-2" d="M962.84,390a9.44,9.44,0,1,1-9.44-9.43A9.44,9.44,0,0,1,962.84,390Z" transform="translate(-249 -46)"/><path class="cls-2" d="M983.17,462.14a9.44,9.44,0,1,1-9.43-9.44A9.43,9.43,0,0,1,983.17,462.14Z" transform="translate(-249 -46)"/><path class="cls-2" d="M779.11,444.32a9.44,9.44,0,1,1-9.44-9.44A9.44,9.44,0,0,1,779.11,444.32Z" transform="translate(-249 -46)"/><path class="cls-2" d="M837.49,380.51a9.44,9.44,0,1,1-9.43-9.43A9.43,9.43,0,0,1,837.49,380.51Z" transform="translate(-249 -46)"/><path class="cls-3" d="M873.8,415.5,770,435.5c-.44,0-.86.12-1.28.2l.1-.68-5-1.26v5.89h0a2.84,2.84,0,0,0,.06.7c.64,2.31,4.39,3.89,8.37,3.51l103.83-20Z" transform="translate(-249 -46)"/><path class="cls-4" d="M960.75,379.87l-3.16,2.67a11.86,11.86,0,0,0-9.74.72l-74,32.2,10.36,6,74-32.2c1.74-1,2.56-2.28,2.5-3.5h0Z" transform="translate(-249 -46)"/><path class="cls-5" d="M835.05,372.68c-1.85-2.08-6.25-2.91-9.84-1.85a10.76,10.76,0,0,0-1.18.45,5.41,5.41,0,0,0-.64-.85,15.35,15.35,0,0,0-2.17-1.56v5.87l0,0a2.86,2.86,0,0,0,.78,1.79l47.73,43.58,13-3.85Z" transform="translate(-249 -46)"/><path class="cls-6" d="M980.55,452.14l-1.77.62-1,2.08a10,10,0,0,0-1.24-.46L882.87,416.3l-6.65,7.54,93.67,38.08c3.6,1.06,8,.23,9.84-1.85a2.75,2.75,0,0,0,.76-2l0,0Z" transform="translate(-249 -46)"/><path class="cls-7" d="M869.75,420.19,854.36,486.1l-1.14-.58v6.09l0,0c.2,1.93,2.71,3.59,6.15,3.91,4,.36,7.74-1.2,8.38-3.51l16.45-70.45Z" transform="translate(-249 -46)"/><path class="cls-8" d="M976.54,448.53l-86.88-35.31,68.55-29.84c3.06-1.78,3.4-4.45.74-6l-.72-.42c-2.67-1.55-7.32-1.34-10.38.42l-68.56,29.84L835,366.81c-1.85-2.09-6.25-2.91-9.84-1.85s-5,3.61-3.21,5.69l44.26,40.43L770,429.63c-4,.36-6.71,2.53-6.09,4.83s4.39,3.89,8.37,3.51l96.3-18.56-15.25,65.35c-.64,2.3,2.08,4.47,6.09,4.83s7.73-1.2,8.38-3.51L883,420.73,969.87,456c3.6,1.07,8,.24,9.84-1.84S980.15,449.59,976.54,448.53ZM880.37,413.3l-1.63,1.84-3.52-.32-.56-2,3.18-.94Z" transform="translate(-249 -46)"/><path class="cls-2" d="M877.36,418.71a7.56,7.56,0,0,1-7.57-7.57V323.42h15.15v87.72A7.57,7.57,0,0,1,877.36,418.71Z" transform="translate(-249 -46)"/><path class="cls-9" d="M760.62,255.81l-1.58-.92c-5.9-3.41-5.15-9.34,1.64-13.25L808.56,214c6.8-3.93,17.07-4.35,23-1l1.58.93c5.89,3.38,5.15,9.33-1.64,13.24l-47.89,27.66C776.79,258.77,766.51,259.2,760.62,255.81Z" transform="translate(-249 -46)"/><path class="cls-10" d="M837.08,219.22l0,0c-.18-2-1.46-3.85-3.93-5.27l-1.58-.93c-5.89-3.4-16.15-3-22.94,1L760.7,241.64c-3.6,2.09-5.49,4.73-5.59,7.26l0,0v8.33h0c0,2.17,1.28,4.23,3.95,5.77l1.58.93c5.89,3.38,16.15,3,22.94-.95l47.89-27.65c3.49-2,5.37-4.57,5.59-7l0,0v-9.1Z" transform="translate(-249 -46)"/><path class="cls-11" d="M862,294.38,761.7,352.24c-5,2.87-9-.18-9-6.79s4-14.33,9-17.2L876.59,262v4.53C876.6,277.25,870.05,289.74,862,294.38Z" transform="translate(-249 -46)"/><g class="cls-12"><path class="cls-13" d="M869.39,47.2c-3.49-1.86-8-1.62-12.86,1.2l-3,1.72c-11.08,6.42-20.07,23.59-20.07,38.38V286.89l26.64-15.39v6.29l-32,26-72.61,48.7,102,57.69,58.67-45.17,33.41-28.53,20.82-232.16Z" transform="translate(-249 -46)"/></g><path class="cls-14" d="M794.64,374.64s-2.71-7.19,2.64-12.54,33.58-17.24,35.62-18.52,12.19-8.73,12.19-8.73l3.08-6.94s-57.28,5.59-58,6.47-26.81,24.27-26,25.29S782,364.86,782,364.86l3.33,4.55Z" transform="translate(-249 -46)"/><path class="cls-2" d="M958.11,105.81l-3,1.73C944,114,935.05,131.12,935.05,145.91V344.26l-71.73,41.38c-5,2.87-9,10.56-9,17.2s4,9.68,9,6.79l100.3-57.85c8-4.65,14.59-17.14,14.59-27.9V121C978.19,106.22,969.19,99.42,958.11,105.81Z" transform="translate(-249 -46)"/><path class="cls-2" d="M767.49,417.61s-14.77,9.48-19.78,15.07-14.88,17-10.82,22.48,17.84,8.5,32.6-5.11,10.58-14.43,23.17-21.16,16-14.09,14.54-18.3-7.73-11.62-11.12-10S767.49,417.61,767.49,417.61Z" transform="translate(-249 -46)"/><path class="cls-2" d="M839.36,457.45s-5.31,11.68-8,15.55-16,26.21-9.08,31.34,20,3.71,30.41-7.56,12.69-25,15.23-29.48,8.94-16.51,5.91-23.44-3.69-8.12-3.69-8.12Z" transform="translate(-249 -46)"/><path class="cls-2" d="M785.7,291.18s-43.9,43.32-51.11,65.09c0,0-3.05,11.76,5.45,21s26.51,39.36,26.51,39.36,13.44,16.27,30.81,3.26c0,0,7.86-12.54,3-20.9s-17.67-35-17.67-35,28.15-19.38,42-24.27A191.58,191.58,0,0,0,846.09,331,66.48,66.48,0,0,1,833.39,357c-10.16,12.78-27.19,33.34-21.52,47.65s9,18.74,14.28,27,10.36,25.41,14.91,27.2S866.59,462.61,870,449s-7.15-40.24-11.92-49.24c0,0,56.78-65.53,62.19-72.72S803.27,280.08,785.7,291.18Z" transform="translate(-249 -46)"/><path class="cls-2" d="M800.41,399c-4.83-8.34-17.68-35-17.68-35s28.16-19.38,42.06-24.27A191.58,191.58,0,0,0,846.11,331c2.66-3.69,11.3-17.78,15.15-28.92-32-9.38-66.78-16.45-75.54-10.92,3.11,7.67,19.44,7.59,19.44,7.59s6.09,14.85,10.13,16.74,13.73-.18,13.73-.18-1.56,2.44-8.46,7.43-50.11,40.38-50.11,40.38,2.47,1.4,14,22.2,13,34.51,13,34.51S805.23,407.33,800.41,399Z" transform="translate(-249 -46)"/><path class="cls-2" d="M897.46,314.18c-25.38-2.42-55-2.64-48.29,10.71a42.58,42.58,0,0,0,34,23.62c-.14,8.32-35,48.44-35,48.44l8.12,15.79c8.11,15.79,7.09,44.53,7.09,44.53a12.8,12.8,0,0,0,6.61-8.34c3.41-13.67-7.15-40.24-11.92-49.24,0,0,56.78-65.53,62.19-72.72C921.86,324.84,912.25,319.86,897.46,314.18Z" transform="translate(-249 -46)"/><path class="cls-15" d="M741.3,175.69l6.75-5.25s36.41-20.22,48.51-26.77c6.55-3.55,13.36-9.88,18.23-14.95A25.34,25.34,0,0,1,833,121l63.77-.32s7.43,11.91,9.94,14.25c1.84,1.72,19.15,16.23,31.56,28.18a53.69,53.69,0,0,1,14.46,24.06c7.11,25,7,75.53,8.08,111.62,0,0-4.39,1.73-15.31,4.05s-9.52.84-9.52.84-16.27,36.61-38.35,40.16-51.81-6.79-57.12-41.46c0,0-43-6.45-54.72-11.24a1.77,1.77,0,0,1-.76-2.71c5.21-6.91,24.61-33.68,26.47-51.14,2.14-20.18,1.48-49.45-.12-57.45,0,0-32.46,12.22-42.8,14.41,0,0-39.51,43.42-56,55.25,0,0,5.65-8.88-5.71-14.93Z" transform="translate(-249 -46)"/><path class="cls-2" d="M945.47,302.84c1.66-.36,3.14-.7,4.51-1l-2.29-4.51L887.83,291l-35,1.8-12,11.42a57.29,57.29,0,0,0,2.85,10.28c.06,0,14.86,2.15,21.74.67s60.16,6.37,60.26,6.37a121.75,121.75,0,0,0,10.24-17.78C935.85,304.08,936.51,304.75,945.47,302.84Z" transform="translate(-249 -46)"/><path class="cls-16" d="M864.66,281.92a.51.51,0,0,0-.48-.38c-2.88-.08-21.6-.62-28.67-3.07-7.67-2.64-15.81-2.16-16.21-1.72s-13.18,5.87-13.94,8.08c-.69,2-1.91,8.73-.2,11.24a38.62,38.62,0,0,1,2.5,4.19l1.32.14a40,40,0,0,0,2.69,4.57,7.88,7.88,0,0,1,1,1.72c.8,1.74,2.22,4.61,2.8,4.69.85.08,4.81.88,5.82.62.82-.22,1.56-2.73,1.22-3.83a.47.47,0,0,1,.38-.64,55.38,55.38,0,0,1,13.58-.3c8.32.76,20.1-4.67,21.16-5.19a.58.58,0,0,1,.18,0l11.74-1.06a.53.53,0,0,0,.46-.68Z" transform="translate(-249 -46)"/><path class="cls-17" d="M850.52,158.22s-10,36.81.58,74.64c0,0,38.43-71.68,42.6-83.32s5.69-19.9,1.78-24.07-38.61,17.4-38.61,17.4Z" transform="translate(-249 -46)"/><path class="cls-18" d="M860.41,216s7.32-22.4,6.05-29.64a88.73,88.73,0,0,0-3.08-12.4l6.59-6.09,2.91,6s14.52-10.66,15.48-12.65c0,0-11.7,8-15.37,9.24,0,0-1.74-2.88-4-3.85s-8,6.86-8,6.86L859.85,187l-5.75,31.71,2,4.71Z" transform="translate(-249 -46)"/><path class="cls-2" d="M854,158.64s-1.38,14.47-.18,15.49,5.67,1.08,7.76-.08,7.39-7.46,7.39-7.46S862.46,155.13,854,158.64Z" transform="translate(-249 -46)"/><path class="cls-2" d="M861.84,171.48s3.9,10,.16,23.93a201.9,201.9,0,0,0-5.19,26.77l-5.71,10.7s-7.11-20.94-4.79-42c1-9.46,8.26-17.81,8.26-17.81Z" transform="translate(-249 -46)"/><path class="cls-16" d="M832.59,99.52s-1.77,9-1.12,10.64,2.9,2.85,2.34,6.34,1.46,13.92,2.5,17.39c0,0-.76,3.71.28,4.87s2.39,1.1,3.37,2.86,1.3,10.79,5,13.81,8.41,3.65,10.88,3a17.56,17.56,0,0,0,5-2.53l5.51,2.31S894.86,150.1,894,130l0-2.12a23.14,23.14,0,0,0,2.62-4.71c.58-1.87,5.33-10.2,2.93-13.81,0,0,11.06-43.7-23.08-46.33S837.11,84.33,832.59,99.52Z" transform="translate(-249 -46)"/><path class="cls-19" d="M894,130v-.24a6.36,6.36,0,0,0-3.93-1.2c-3.91.68-3-7.42-3-7.42s-.72,1.47-2.72,11.83-23.52,22.9-23.52,22.9l5.5,2.31S894.86,150.08,894,130Z" transform="translate(-249 -46)"/><path class="cls-20" d="M832.72,80.54c-3.34,7.1-4.92,15.62,2,21.33,0,0,5.87,1.6,17-3.59,7.51-3.49,15-1.94,19.13-.56a4.52,4.52,0,0,1,3.09,4.43l-.16,6.21a4,4,0,0,0,2.38,3.73l5.19,2.2,1,6a2.9,2.9,0,0,0,3.85,2.25l1.3-.46s.78-13.47,11.88-12.79c0,0,9-19.44-.22-37.23S864.8,55.6,859.41,57.62c-7.09,2.64-6.09,2.26-10.16,4.77A43.47,43.47,0,0,0,832.72,80.54Z" transform="translate(-249 -46)"/><path class="cls-2" d="M923.59,217.67s-5.17,38.12-7.29,48.92l-16.71,8.82,29.67-1.81Z" transform="translate(-249 -46)"/><path class="cls-21" d="M899.48,109.36a50.42,50.42,0,0,0,3.77-15.59A40.27,40.27,0,0,1,874,102.15l-.16,6.21a4,4,0,0,0,2.38,3.73l5.19,2.2,1,6a2.9,2.9,0,0,0,3.85,2.25l1.3-.46S888.39,108.68,899.48,109.36Z" transform="translate(-249 -46)"/><path class="cls-2" d="M906.88,142.87S898,173.25,896.2,179.1l-7.11-.76,1.28,9.62L852,238.48l42.56-48.86-1.69-8.56,6.46.68Z" transform="translate(-249 -46)"/><path class="cls-2" d="M869.25,308s89.88-2.92,92.18-4.57,2.71-24.77,2.49-38.17c-.14-9.4,0-46.19-8.08-72,6.32,21.84,3,99.13.13,103.06s-88.36,6.19-88.36,6.19C868.55,305.73,869.25,308,869.25,308Z" transform="translate(-249 -46)"/><path class="cls-16" d="M692.64,236.07s-.34,2.27-4.25,4.49-13.91,7.15-15.53,8.58-8.84,7.75-9,8.59-2.38,8-2.36,8.44.7,3.75.7,3.75l-2.22,10.6s-2.83,4.11.24,5.23,4.81-2.07,4.85-2.55a51.34,51.34,0,0,0,8-4.85c3.41-2.64,17.05-13.6,19.36-12.94s.18,4.61-.93,5.29-8.35,7.73-5.31,12.66,5-2.76,7-4.32,6.33-7.72,9-8.48,7.48-10.66,8.1-15.07,3.78-7.28,4.91-8.7-2.45-12.42-2.45-12.42l-13.5-4.21-4.73,3.08Z" transform="translate(-249 -46)"/><path class="cls-22" d="M949.21,178.12c-2.82-4.47-4.12-1.16-7.91,2.5-5.11,5-11.54,12.69-14.87,22.41-6,17.71-3.86,62-1.84,68.33,0,0-56.28,9.22-60.19,9.06S869.23,308,869.23,308s89.88-2.92,92.19-4.57,2.7-24.77,2.48-38.17C963.74,253.77,963.94,201.38,949.21,178.12Z" transform="translate(-249 -46)"/><path class="cls-23" d="M869.25,308s89.88-2.92,92.19-4.57,2.7-24.77,2.48-38.17c-.14-9.4,0-46.19-8.07-72,6.31,21.84,3,99.13.12,103.06s-88.36,6.19-88.36,6.19C868.55,305.73,869.25,308,869.25,308Z" transform="translate(-249 -46)"/><path class="cls-24" d="M803.77,456.14,510.77,287l157.34-90.86,293,169.19Z" transform="translate(-249 -46)"/><path class="cls-25" d="M510.77,272.9V287l293,169.19,157.34-90.86v-14L803.77,442.11Z" transform="translate(-249 -46)"/><path class="cls-26" d="M803.77,442.11l-293-169.21L668.11,182l293,169.22Z" transform="translate(-249 -46)"/><path class="cls-27" d="M820.94,310.32s11.26,4,19.86,2.58,50-2.24,50-2.24l-6.52-3.77-14.52-10.12-36,2.42-13.88,5Z" transform="translate(-249 -46)"/><path class="cls-16" d="M864.66,281.92a.51.51,0,0,0-.48-.38c-2.89-.08-21.6-.62-28.67-3.07-7.68-2.64-15.81-2.16-16.21-1.72s-13.19,5.87-13.95,8.08c-.68,2-1.9,8.73-.2,11.24a37.92,37.92,0,0,1,2.51,4.19l1.32.14a39.52,39.52,0,0,0,2.68,4.57,7.55,7.55,0,0,1,1.05,1.72c.8,1.74,2.22,4.61,2.8,4.69.84.08,4.81.88,5.81.62.82-.22,1.57-2.73,1.22-3.83a.48.48,0,0,1,.38-.64,55.5,55.5,0,0,1,13.59-.3c8.32.76,20.1-4.67,21.16-5.19a.58.58,0,0,1,.18,0l11.74-1.06a.53.53,0,0,0,.46-.68Z" transform="translate(-249 -46)"/><path class="cls-28" d="M898,334.7l-1.58-.92c-5.89-3.38-5.15-9.34,1.64-13.24L946,292.88c6.79-3.93,17.07-4.35,22.94-.94l1.58.92c5.89,3.39,5.15,9.34-1.64,13.25l-47.89,27.65C914.17,337.67,903.89,338.09,898,334.7Z" transform="translate(-249 -46)"/><path class="cls-29" d="M974.46,298.11l0,0c-.18-2-1.46-3.84-3.92-5.27l-1.59-.92c-5.89-3.41-16.15-3-22.94.94l-47.88,27.66c-3.61,2.08-5.49,4.73-5.59,7.25l0,0v8.34h0c0,2.16,1.28,4.23,3.94,5.77l1.59.92c5.89,3.41,16.14,3,22.94-.94l47.88-27.66c3.49-2,5.37-4.56,5.59-7l0,0v-9.1Z" transform="translate(-249 -46)"/><path class="cls-30" d="M949.21,178.12c-2.82-4.47-4.12-1.16-7.91,2.5-5.11,5-11.54,12.69-14.87,22.41-6,17.71-3.86,62-1.84,68.33,0,0-56.28,9.22-60.19,9.06S869.23,308,869.23,308s89.88-2.92,92.19-4.57,2.7-24.77,2.48-38.17C963.74,253.77,963.94,201.38,949.21,178.12Z" transform="translate(-249 -46)"/><path class="cls-31" d="M869.25,308s89.88-2.92,92.18-4.57,2.71-24.77,2.49-38.17c-.14-9.4,0-46.19-8.08-72,6.32,21.84,3,99.13.12,103.06s-88.36,6.19-88.36,6.19C868.55,305.73,869.25,308,869.25,308Z" transform="translate(-249 -46)"/><path class="cls-27" d="M708.14,262s32.14-25.11,36.73-27.55a32.49,32.49,0,0,0,6.53-4.27l-10.76-6.21-18.19,7.47-22.93,22.73-35.28,25V285s29.11-12.51,32.36-14.63S708.14,262,708.14,262Z" transform="translate(-249 -46)"/><path class="cls-32" d="M689,284.71s6.85-6.12,11.26-8.16,11.44-7.48,12.3-11.62,8.17-13.33,8.17-13.33L709,258.35l-17,9.8L663.8,284.52s1.73,2,5.29.77,10.28-5.49,13.41-5.88,8.29-1.34,8.29-1.34Z" transform="translate(-249 -46)"/><path class="cls-16" d="M692.63,236.07s-.34,2.27-4.25,4.49-13.9,7.15-15.52,8.58-8.84,7.75-9,8.59-2.38,8-2.36,8.44.7,3.75.7,3.75l-2.23,10.6s-2.82,4.11.24,5.23,4.81-2.07,4.85-2.55a51.21,51.21,0,0,0,8-4.85c3.4-2.64,17.05-13.6,19.35-12.94s.18,4.61-.92,5.29-8.35,7.73-5.31,12.66,5-2.76,7-4.32,6.33-7.72,9-8.48,7.47-10.66,8.09-15.07,3.79-7.28,4.91-8.7-2.44-12.42-2.44-12.42l-13.51-4.21-4.73,3.08Z" transform="translate(-249 -46)"/><path class="cls-33" d="M814.55,161.92s-.5-20.14,3-35.59a26.41,26.41,0,0,0-2.69,2.39c-4.87,5.07-11.66,11.4-18.23,14.95-12.12,6.55-48.51,26.77-48.51,26.77l-6.75,5.25c-21.36,16.73-45.2,53.17-48.67,60.38,1.67-2.22,6-5.89,14.19-1.52,11.36,6,5.95,15.11,5.95,15.11,16.51-11.83,55.78-55.43,55.78-55.43,9.7-2,38.81-12.91,42.44-14.27A48.28,48.28,0,0,0,814.55,161.92Z" transform="translate(-249 -46)"/><path class="cls-34" d="M718.1,245.45c0-3-1.44-6.89-7.23-10a15.8,15.8,0,0,0-6.49-2,21.12,21.12,0,0,1,2.44,1.1c11.36,6,5.95,15.11,5.95,15.11C714.36,248.54,716.16,247.11,718.1,245.45Z" transform="translate(-249 -46)"/><path class="cls-31" d="M768.55,194.23c10.34-2.17,42.8-14.41,42.8-14.41,1.46,7.35,2.14,32.72.58,52.44,9.59-35.85,2.62-70.36,2.62-70.36-2.64,12.65-54.1,30.08-54.1,30.08-8.19,12.63-47.14,49-47.14,49v0a10.11,10.11,0,0,1-.78,8.44C729,237.65,768.55,194.23,768.55,194.23Z" transform="translate(-249 -46)"/><path class="cls-35" d="M610.33,299.13l7.79,4.07,78.2-45.15a5.65,5.65,0,0,1,5.11.22l134.84,77.88c1.28-.73,7.17-3.55,7.17-3.55L840.6,340h0a1.67,1.67,0,0,1-.8.88l-82.35,47.55a5.65,5.65,0,0,1-5.11-.22l-138-79.7a2.56,2.56,0,0,1-1.16-1.22h0Z" transform="translate(-249 -46)"/><path class="cls-8" d="M611.53,300.42,753,382.1a5.84,5.84,0,0,0,5.23.22l84.39-48.74c1.35-.78,1.19-2.12-.38-3L700.77,248.88a5.81,5.81,0,0,0-5.23-.23l-84.39,48.74C609.83,298.17,610,299.51,611.53,300.42Z" transform="translate(-249 -46)"/><path class="cls-36" d="M611.53,299.6,753,381.26a5.84,5.84,0,0,0,5.23.22l84.39-48.74a1.77,1.77,0,0,0,.82-.92,1.4,1.4,0,0,1-.82,1.72l-84.39,48.74a5.77,5.77,0,0,1-5.23-.22L611.53,300.38c-1-.61-1.45-1.41-1.2-2.11A2.48,2.48,0,0,0,611.53,299.6Z" transform="translate(-249 -46)"/><path class="cls-2" d="M795.62,364.42v-1.54c0-.14-.08-.22-.2-.16L790,365.89a.46.46,0,0,0-.2.38v1.54c0,.14.08.22.2.16l5.47-3.17A.46.46,0,0,0,795.62,364.42Z" transform="translate(-249 -46)"/><path class="cls-2" d="M787.45,369.15v-1.54c0-.14-.09-.22-.21-.16l-5.46,3.16a.51.51,0,0,0-.21.39v1.54c0,.14.08.22.21.16l5.46-3.17A.46.46,0,0,0,787.45,369.15Z" transform="translate(-249 -46)"/><path class="cls-37" d="M795,344.64,677.49,276.77a2.49,2.49,0,0,0-2.53,0L633.11,301a.9.9,0,0,0,0,1.56L750.58,370.4a2.47,2.47,0,0,0,2.52,0L795,346.21A.91.91,0,0,0,795,344.64Z" transform="translate(-249 -46)"/><path class="cls-35" d="M795,346.21l-.42.24L677.49,278.82a2.45,2.45,0,0,0-2.53,0l-41.43,24-.42-.24a.9.9,0,0,1,0-1.56L675,276.75a2.49,2.49,0,0,1,2.53,0L795,344.62A.93.93,0,0,1,795,346.21Z" transform="translate(-249 -46)"/><path class="cls-2" d="M671.8,282.92l108.25,62.5,5.37-2.14-109.09-63Z" transform="translate(-249 -46)"/><path class="cls-31" d="M660.66,289.34l95.77,55.3L761,342l-95.75-55.31Z" transform="translate(-249 -46)"/><path class="cls-2" d="M653.43,293.52l112.74,65.11L770.7,356,658,290.9Z" transform="translate(-249 -46)"/><path class="cls-2" d="M646.17,297.71l112.74,65.11,4.53-2.63L650.7,295.09Z" transform="translate(-249 -46)"/><path class="cls-31" d="M638.92,301.9,751.66,367l4.55-2.63L643.47,299.27Z" transform="translate(-249 -46)"/><path class="cls-2" d="M780.05,345.42l4.55,2.63,4.53-2.63-4.53-2.62Z" transform="translate(-249 -46)"/><path class="cls-2" d="M750.92,341.46l22.54,13,4.55-2.62-22.72-13.13Z" transform="translate(-249 -46)"/><path class="cls-37" d="M753.16,314.22l-31.69-18.29c-1.24-.72-1.24-1.89,0-2.59l21.68-12.5a4.92,4.92,0,0,1,4.48,0l31.7,18.29c1.24.73,1.24,1.89,0,2.59l-21.68,12.5A4.88,4.88,0,0,1,753.16,314.22Z" transform="translate(-249 -46)"/><path class="cls-38" d="M779.33,300.2l-31.69-18.3a4.94,4.94,0,0,0-4.49,0l-21.68,12.5a2,2,0,0,0-.78.77c-.32-.63-.08-1.33.78-1.83l21.68-12.5a4.94,4.94,0,0,1,4.49,0l31.69,18.29c.86.5,1.1,1.21.78,1.83A2,2,0,0,0,779.33,300.2Z" transform="translate(-249 -46)"/><path class="cls-39" d="M610.55,297l17.87-106.09-1.44-.6,2.16-1.24v0a1.54,1.54,0,0,1,1.66.12l142.9,82.5a4,4,0,0,1,1.86,3.63l-18,106.93a1.3,1.3,0,0,1-.76,1.08l-2.13,1.22-.36-2,.12,0-142-82A4.07,4.07,0,0,1,610.55,297Z" transform="translate(-249 -46)"/><path class="cls-35" d="M772.9,274.65l2.34-1a3.21,3.21,0,0,1,.3,1.77l-18,106.93a1.3,1.3,0,0,1-.76,1.08l-2.11,1.22-.36-2,.12,0-7.19-4.15Z" transform="translate(-249 -46)"/><path class="cls-40" d="M610.17,302l142.89,82.5c1.11.64,2.05.26,2.25-.88l18-106.93a4,4,0,0,0-1.86-3.63l-142.9-82.5c-1.1-.64-2-.26-2.24.88l-18,106.93A4,4,0,0,0,610.17,302Z" transform="translate(-249 -46)"/><path class="cls-41" d="M659,295.76a4.06,4.06,0,0,0,2.7.54,6.59,6.59,0,0,0,1.07-.32c.42-.18.63-.32.94-.46a6.21,6.21,0,0,1,1.74-.52,4.43,4.43,0,0,1,2,.22,6.47,6.47,0,0,1,2.76,2.16,5.66,5.66,0,0,1,1.46,2.24,11.81,11.81,0,0,1,.35,2.31c.12,1.3,0,1.38.16,2.29a11.14,11.14,0,0,0,.57,2.42,8.05,8.05,0,0,0,1.17,2.08,8.19,8.19,0,0,0,1.65,1.7,5.78,5.78,0,0,0,2.3,1.13,5.6,5.6,0,0,0,2.14,0,7.06,7.06,0,0,0,2.55-1,8.13,8.13,0,0,0,1.65-1.45,10.13,10.13,0,0,0,1.66-2.59,12.4,12.4,0,0,0,.89-3.16c.24-1.5.05-1.59.27-3.14a18.27,18.27,0,0,1,.95-3.72,10.15,10.15,0,0,1,1.61-3,7.52,7.52,0,0,1,1.81-1.54,7,7,0,0,1,1.78-.89,6.13,6.13,0,0,1,2-.23,12.23,12.23,0,0,1,2,.47,17,17,0,0,0,2.29.62,6.25,6.25,0,0,0,2.46-.28,8,8,0,0,0,3-1.5,10.49,10.49,0,0,0,2.05-2.28,13.5,13.5,0,0,0,1.37-2.45,15.13,15.13,0,0,0,1-3.16,15.48,15.48,0,0,0,.27-3.69A14.2,14.2,0,0,0,709,275a11.7,11.7,0,0,0-1.24-2.64,9.07,9.07,0,0,0-2-2.16,7.44,7.44,0,0,0-2.44-1.42,6.68,6.68,0,0,0-2.65-.29,7.55,7.55,0,0,0-2.53.66,9.64,9.64,0,0,0-3.08,2.3,10.79,10.79,0,0,0-2.06,3,13.7,13.7,0,0,0-1.13,4c-.11.87,0,.87-.16,3.59-.07,1.62-.11,2.42-.18,2.84a11.08,11.08,0,0,1-1.6,4.24,9.29,9.29,0,0,1-1.58,1.86,5.79,5.79,0,0,1-5.84,1.76c-.93-.1-1-.21-1.82-.26a7.17,7.17,0,0,0-2.5.17,21.18,21.18,0,0,0-2.72,1.3,7.68,7.68,0,0,1-2,.84,4.55,4.55,0,0,1-1.64,0,5.24,5.24,0,0,1-2.35-1.08,7,7,0,0,1-1.34-1.39,9.68,9.68,0,0,1-1.32-2.8c-.44-1.47-.19-1.65-.61-2.86a6.64,6.64,0,0,0-1.5-2.57,4.3,4.3,0,0,0-2.75-1.34,4.46,4.46,0,0,0-2.62.67,5.81,5.81,0,0,0-2.27,2.35,8.29,8.29,0,0,0-.91,3.51,8.79,8.79,0,0,0,.36,3.16,6.53,6.53,0,0,0,1.13,2.15A5.49,5.49,0,0,0,659,295.76Z" transform="translate(-249 -46)"/><path class="cls-2" d="M525.23,565.06a106.7,106.7,0,0,0,18.28,2.64c9,.36,33.44,5.25,32.84,14.39S563,604.43,547,606.38s-36.62-2.67-47.08-2.39-17.61-10.38-13.53-20.62S525.23,565.06,525.23,565.06Z" transform="translate(-249 -46)"/><path class="cls-2" d="M471.26,540.53s-3.43,5.51-1.75,8.9,6.17,11.8,20.8,3.66S533,533.38,533,533.38s16.13-8.58,15.25-18.72-15.73-8.56-15.73-8.56Z" transform="translate(-249 -46)"/><path class="cls-2" d="M566.29,396.91s-6.21,65.77-19.44,90.7c-13.42,25.32-17.13,71.74-19.93,80.59s-11.53,21.71-25.23,24.43-16-6.61-15.29-12.22,4.49-14.63,4.53-20.68-1.36-8.86-1.56-11.65c0,0-15.71,4.63-18.09-7.55a33.74,33.74,0,0,0,1.48-5.35c.2-1.8-1.34-45.85-1.72-51.18s2.48-34.11,6.85-48.3c4.33-14,2.88-44,2.88-44l44.72-6.23Z" transform="translate(-249 -46)"/><path class="cls-8" d="M477.87,435.7c4.33-14,2.88-44,2.88-44l3.91-.54c.18,4.14,1.1,30.4-2.87,43.3-4.34,14.17-7.17,42.95-6.79,48.26s2,49.31,1.79,51.14a33.42,33.42,0,0,1-1.49,5.35c2.41,12.16,18.1,7.53,18.1,7.53.22,2.77,1.62,5.59,1.58,11.63s-3.83,15.08-4.51,20.66,1.58,14.92,15.31,12.2c.42-.08.8-.26,1.22-.36a26.45,26.45,0,0,1-5.35,1.68c-13.72,2.73-16-6.61-15.29-12.22s4.49-14.63,4.53-20.68-1.36-9.42-1.58-12.19c0,0-15.69,5.17-18.1-7a33.42,33.42,0,0,0,1.49-5.35c.2-1.8-1.35-45.85-1.72-51.18S473.52,449.89,477.87,435.7Z" transform="translate(-249 -46)"/><path class="cls-2" d="M494,396.51s.19,10.26,4.47,18.89c0,0-.08,35,3.51,52.67,0,0-5.79,35.55-9.44,46.75s-3.18,33.26-3.18,33.26a15.33,15.33,0,0,1-4.35.77c-2.57.1-2.75-43.45,1.18-51.15s6.89-41.58,5.41-51.92-1-39.67-2.91-44.89a6.55,6.55,0,0,1,2.45-7.91Z" transform="translate(-249 -46)"/><path class="cls-2" d="M531.65,159.26s13,9.4,12.32,25.63l-9.66-2.08S537.2,164.83,531.65,159.26Z" transform="translate(-249 -46)"/><path class="cls-2" d="M526.58,410.83c-29.64.91-45.63-12.22-45.63-12.22-.06-4.15-.2-6.87-.2-6.87l44.72-6.23,40.82,11.38s-1.22,13-3.75,29.57c-7.27.79-14.4-17.07-14.4-17.07l-20.34,1.28S556.21,409.93,526.58,410.83Z" transform="translate(-249 -46)"/><path class="cls-15" d="M560.56,397.87s-64.44,26.31-95.6-23.59a8.8,8.8,0,0,1-1.24-4.91l.4-11.62a12,12,0,0,0-.62-4.31,18.52,18.52,0,0,1-.64-9.3c2.4-13,8.94-48.33,10.48-58.13,1.86-12-4.47-59.84-15.17-80.56C447.63,185,474.7,139.06,474.7,139.06s6.63-10.72,19.64-7.05c0,0-12.41,8.67-5.61,17.83s27.19,16.57,27.19,16.57,37.66,19.54,50.55,43.33a100,100,0,0,1,4.83,28c.4,15.82-1.37,53.79-.71,59.06S573.26,338.27,573,340,560.56,397.87,560.56,397.87Z" transform="translate(-249 -46)"/><path class="cls-42" d="M488.27,138.64a9.2,9.2,0,0,1,.24-7.3,18.47,18.47,0,0,1,5.83.67A23.16,23.16,0,0,0,488.27,138.64Z" transform="translate(-249 -46)"/><path class="cls-2" d="M541,403.26S503.09,300.78,504.9,263.57c1.76-36.28,55.4,73.48,55.4,73.48l.28,60.82S548.39,402.36,541,403.26Z" transform="translate(-249 -46)"/><path class="cls-8" d="M464.56,343.4a11.69,11.69,0,0,1,.62,4.29l-.38,11.56a8.55,8.55,0,0,0,1.25,4.87c31.05,49.56,95.27,23.43,95.27,23.43s8.83-40.32,11.6-53.37c.14,3.19.2,5.41.16,5.8-.22,1.68-12.5,57.89-12.5,57.89S496.14,424.18,465,374.28a8.73,8.73,0,0,1-1.25-4.91l.4-11.62a12,12,0,0,0-.62-4.31,18.52,18.52,0,0,1-.64-9.3c.26-1.36.56-3,.88-4.79A17.2,17.2,0,0,0,464.56,343.4Z" transform="translate(-249 -46)"/><path class="cls-43" d="M459.2,196.37c10.65,20.6,17,68.16,15.14,80-.18,1.1-.42,2.55-.7,4.21.06-17.16-6-56.77-15.47-75.17-3-5.73-2.88-13.53-1.34-21.74C456.73,188.46,457.37,192.82,459.2,196.37Z" transform="translate(-249 -46)"/><path class="cls-44" d="M561.52,282.18a162.68,162.68,0,0,1-2.27-25.13c-.16-14.57-4.27-38.76-30.63-34.55-37.27,5.93-21.32,58.16-17.25,67.3s20.41,50.53,21.27,52.9c.81,2.2,26.59,53.85,35.79,66.23a2.27,2.27,0,0,0,3.37.42c3.72-3.18,12.12-10.76,13.22-15.55,1.4-6.15-4-28.52-4-28.52s-14.52-55.83-15.75-58.41C564.36,304.91,563.74,295.73,561.52,282.18Z" transform="translate(-249 -46)"/><path class="cls-16" d="M531,160.44s3-6.73,9.8-7.43,10.72-2.59,11.4-5.13.72-5.59,2.38-9.36,3-13,3-13.23,5.17-1.78,5.43-4.07-2.44-10.44-2.14-11.08,3.08-5.63,2.7-9.52-.88-9.49-2.94-14.26S544.11,52.69,506.4,67.58c-38.11,15-9.12,47-12.9,67.77,0,0-3.39,4.37,2.82,11.79S520.61,156.21,531,160.44Z" transform="translate(-249 -46)"/><path class="cls-19" d="M496.32,147.14c-6.21-7.42-2.83-11.79-2.83-11.79a28.16,28.16,0,0,0-.08-9.24L508.34,129s22-19.6,20.46-9.1,3.77,12.41,3.77,12.41L528.06,138c-1.17,1.48-.48,3.2.48,4.85,6.29,10.82,21.56,7.55,21.58,7.57-1.91,1.24-5,2.15-9.32,2.59-6.83.7-9.8,7.43-9.8,7.43C520.6,156.21,502.55,154.59,496.32,147.14Z" transform="translate(-249 -46)"/><path class="cls-20" d="M562.26,75.35s2.64,7.74-1.62,11-8.14,6.33-8.14,6.33l0,9.82a7.4,7.4,0,0,1-1.16,4L546,114.75a10,10,0,0,0-1.6,5.41l0,4a2.29,2.29,0,0,1-2,2.29l-1.4.16a2.29,2.29,0,0,1-2.5-2.07l-.58-5.57s-2.83-4.49-9,.86l-5.57,2.29a6,6,0,0,0-3.37,3.5c-1.56,4.29-4.88,12.77-7.39,14.17-3.37,1.91-16.41-4.85-18.15-7.81s-6.13-22.87-8.86-32.35-1.12-32.7,27-38.65C540.4,55.1,558.41,66.94,562.26,75.35Z" transform="translate(-249 -46)"/><path class="cls-21" d="M494.34,132c-1.74-3-6.13-22.87-8.86-32.35a68.56,68.56,0,0,0,25,9.38c14.12,2.15,42.07-13.75,42.07-13.75l0,7.2a7.4,7.4,0,0,1-1.16,4L546,114.75a10,10,0,0,0-1.6,5.41l0,4a2.29,2.29,0,0,1-2,2.29l-1.4.16a2.29,2.29,0,0,1-2.5-2.07l-.58-5.57s-2.83-4.49-9,.86l-8.05,3.31s-4.89,14.77-8.26,16.65S496.08,135,494.34,132Z" transform="translate(-249 -46)"/><path class="cls-17" d="M493.78,133s-10.92,6.73-5.47,16.27,45.06,26.67,47,29.2c0,0,1.57-14.31-3.68-19.16,0,0-30.32-5.91-35-13.65S493.78,133,493.78,133Z" transform="translate(-249 -46)"/><path class="cls-18" d="M493.78,133s-1.84,5,2.84,12.66c3.57,5.85,21.78,10.66,30.44,12.65,0,0-3.23,1.82-8.6,11-12.18-6.31-27-14.45-30.15-20C482.86,139.66,493.78,133,493.78,133Z" transform="translate(-249 -46)"/><path class="cls-2" d="M486.4,163.49s17.64,10.1,26.23,14.67,18,10.66,18,10.66l3.31-3.29,4,8.7s13.54,8.13,19.87,14.91,11.16,15.71,11.84,17.73c0,0-16.91-22.18-30.23-28.77l-3.59-1.81-2-6.89-3.27,3.47S491.77,169.5,486.4,163.49Z" transform="translate(-249 -46)"/><path class="cls-8" d="M531.86,462.7a8.89,8.89,0,0,1,2.37-3.81L606.76,398c1.9-1.6,3.75-.38,4.13,2.74l8.47,70.92c.4,3.27-.88,7.3-2.82,9l-60.91,52.69,2.1,20.5-18.21-8.38v0c-.82-.52-1.42-1.68-1.59-3.47l-6.77-74.1A12.94,12.94,0,0,1,531.86,462.7Z" transform="translate(-249 -46)"/><path class="cls-15" d="M626.51,405l-17.15-7.41-.54-.24a2.41,2.41,0,0,0-2.06.66l-72.53,60.9a8.81,8.81,0,0,0-2.37,3.79l2.59,1.26,14.76,7.13,63.58-54.36Z" transform="translate(-249 -46)"/><path class="cls-31" d="M634.41,488.57,560.23,553.2c-2,1.76-3.94.42-4.28-3l-7.22-74.49c-.32-3.26,1-7.27,3-8.95l72.37-61.23c1.9-1.6,3.77-.38,4.15,2.75l8.91,71.26C637.59,482.84,636.35,486.88,634.41,488.57Z" transform="translate(-249 -46)"/><path class="cls-2" d="M546.73,545.82l-7-74.29c-.3-3.26,1.06-7.25,3-8.93l72.45-61.06a2.66,2.66,0,0,1,1.73-.71,2.26,2.26,0,0,0-2.33.57l-72.47,61c-2,1.68-3.34,5.67-3,8.93l7,74.29c.22,2.36,1.14,3.83,2.4,3.87C547.55,549.15,546.91,547.78,546.73,545.82Z" transform="translate(-249 -46)"/><path class="cls-2" d="M573.28,436.45l-3.79-1.89a3.61,3.61,0,0,0-2.36-.42l-.3.06c-.38.08-.59.48-.53,1.06l.09.68,10.68,5.33-.09-.7a3.33,3.33,0,0,0-.82-1.74l-.36-.4A9.46,9.46,0,0,0,573.28,436.45Z" transform="translate(-249 -46)"/><path class="cls-2" d="M571.94,445.63l5.13-4.33-10.6-6.86-5.05,4.23Z" transform="translate(-249 -46)"/><path class="cls-45" d="M568.17,440.77l-3.79-1.9a3.63,3.63,0,0,0-2.36-.42l-.3.06c-.38.08-.58.5-.52,1.08l.08.68L572,445.62l-.07-.7a3.24,3.24,0,0,0-.81-1.74l-.36-.4A9.11,9.11,0,0,0,568.17,440.77Z" transform="translate(-249 -46)"/><path class="cls-46" d="M565.89,442.6l-.33-3.13.33.16.32,3.13Z" transform="translate(-249 -46)"/><path class="cls-46" d="M565.56,439.47l5.27-4.25.28.14-5.22,4.27Z" transform="translate(-249 -46)"/><path class="cls-2" d="M596.32,417.07l-3.79-1.87a3.7,3.7,0,0,0-2.34-.42l-.3.06c-.38.08-.56.48-.5,1.06l.08.69,10.66,5.27-.08-.69a3.17,3.17,0,0,0-.83-1.7l-.36-.4A9.15,9.15,0,0,0,596.32,417.07Z" transform="translate(-249 -46)"/><path class="cls-2" d="M595.06,426.14l5.05-4.28-10.56-6.78-5,4.19Z" transform="translate(-249 -46)"/><path class="cls-47" d="M591.27,421.34l-3.79-1.89a3.74,3.74,0,0,0-2.36-.42l-.3.06c-.38.08-.56.48-.5,1.06l.08.68,10.66,5.3-.08-.69a3.27,3.27,0,0,0-.82-1.72l-.36-.4A9.16,9.16,0,0,0,591.27,421.34Z" transform="translate(-249 -46)"/><path class="cls-46" d="M589,423.14l-.34-3.09.32.16.34,3.09Z" transform="translate(-249 -46)"/><path class="cls-46" d="M588.69,420.05l5.19-4.19.27.15-5.14,4.2Z" transform="translate(-249 -46)"/><path class="cls-15" d="M563.52,424.62l1.36,13.23,3.43-2.89L567,422.12a6.92,6.92,0,0,1,2-5.41l14.77-12.35c1.32-1.1,2.54-.5,2.76,1.37l1.42,12.7,3.39-2.85-1.46-13c-.46-4.09-3.19-5.41-6.09-3L568.05,412.7C565.14,415.14,563.1,420.47,563.52,424.62Z" transform="translate(-249 -46)"/><path class="cls-15" d="M589,403.48l-6.09-.62-17.59,16.41-.77,10.12.36,8.46,4,2,.12-10.54.22-7.21,3.65-5.21s6.59-5.33,6.67-5.47S589,403.48,589,403.48Z" transform="translate(-249 -46)"/><path class="cls-15" d="M591.89,420.37,588,418.43l-1-9.36,3.77.3,1.1.18Z" transform="translate(-249 -46)"/><path class="cls-15" d="M591.77,400.58l-4.23-2.07s1.1,2.31,1.13,2.29,1.38.48,1.42.48Z" transform="translate(-249 -46)"/><path class="cls-2" d="M567.45,426.57l1.38,13.24,3.43-2.88-1.37-12.87a6.91,6.91,0,0,1,2.05-5.41l14.76-12.36c1.33-1.11,2.55-.5,2.77,1.36l1.44,12.72,3.39-2.84-1.48-13c-.46-4.09-3.19-5.43-6.09-3L572,414.64C569.05,417.09,567,422.42,567.45,426.57Z" transform="translate(-249 -46)"/><path class="cls-16" d="M584,393.24s2.5,12.93,1.8,16.17-6.89,9.52-10.62,10.66-2.2-3.28-3-6.09-.71-8.86-.71-8.86Z" transform="translate(-249 -46)"/><path class="cls-19" d="M571.39,405.12,584,393.24s.52,2.65,1,5.85c0,0-4.67,9.62-13.19,13.43A51.27,51.27,0,0,1,571.39,405.12Z" transform="translate(-249 -46)"/><path class="cls-48" d="M584.88,394.2s-4.45,13.93-15.61,15.25l3.79-15.25s9.43-2.66,9.72-2.7S584.88,394.2,584.88,394.2Z" transform="translate(-249 -46)"/><path class="cls-8" d="M512.27,230.68c-10.34,31.5,15.57,80.46,19.29,94.77s43.16,81.28,43.16,81.3l0,0c.22.4.38.66.38.66a19.38,19.38,0,0,1-2.56,1.74,8.36,8.36,0,0,1-1.77.66,2.24,2.24,0,0,1-2.26-.94c-9.2-12.38-35-64-35.78-66.23s-17.17-43.73-21.28-52.9C508.08,282.44,497.14,247.23,512.27,230.68Z" transform="translate(-249 -46)"/></svg>