<svg id="Слой_1" data-name="Слой 1" xmlns="http://www.w3.org/2000/svg" xmlns:xlink="http://www.w3.org/1999/xlink" viewBox="0 0 652.38 729.71"><defs><style>.cls-1{fill:#434244;}.cls-2,.cls-3,.cls-40{fill:#000028;}.cls-2,.cls-38{opacity:0.3;}.cls-2,.cls-27,.cls-3,.cls-35,.cls-38,.cls-39,.cls-40,.cls-42,.cls-51,.cls-64{isolation:isolate;}.cls-3,.cls-42{opacity:0.4;}.cls-4{fill:url(#Безымянный_градиент_31);}.cls-5{fill:url(#Безымянный_градиент_31-2);}.cls-6{fill:url(#Безымянный_градиент_31-3);}.cls-7{fill:url(#Безымянный_градиент_31-4);}.cls-8{fill:#24126a;}.cls-9{fill:url(#Безымянный_градиент_7);}.cls-10{fill:url(#Безымянный_градиент_31-5);}.cls-11{fill:url(#Безымянный_градиент_7-2);}.cls-12{fill:url(#Безымянный_градиент_31-6);}.cls-13{fill:url(#Безымянный_градиент_31-7);}.cls-14{fill:url(#Безымянный_градиент_10);}.cls-15{fill:url(#Безымянный_градиент_31-8);}.cls-16{fill:url(#Безымянный_градиент_27);}.cls-17{fill:#4875c7;}.cls-18{fill:#515151;}.cls-19{fill:#d1d0cd;}.cls-20{fill:#f0f6ff;}.cls-21,.cls-39{fill:#2d2d2d;}.cls-22{fill:url(#Безымянный_градиент_27-2);}.cls-23{fill:url(#Безымянный_градиент_31-9);}.cls-24{fill:url(#Безымянный_градиент_31-10);}.cls-25{fill:url(#Безымянный_градиент_31-11);}.cls-26{fill:#160a5b;}.cls-27{fill:#020230;opacity:0.6;}.cls-28{fill:#fcd1c5;}.cls-29{fill:#e2b1a6;}.cls-30{fill:#b18888;}.cls-31{fill:#936d6d;}.cls-32{fill:#334659;}.cls-33{fill:#263649;}.cls-34{fill:#031227;}.cls-35,.cls-40,.cls-51,.cls-64{opacity:0.5;}.cls-35{fill:url(#Безымянный_градиент_17);}.cls-36{fill:url(#Безымянный_градиент_18);}.cls-37{fill:url(#Безымянный_градиент_19);}.cls-38{fill:#180d5b;}.cls-39{opacity:0.63;}.cls-41{fill:#c4c4c4;}.cls-42{fill:#06033e;}.cls-43{fill:url(#Безымянный_градиент_20);}.cls-44{fill:url(#Безымянный_градиент_26);}.cls-45{fill:url(#Безымянный_градиент_22);}.cls-46{fill:url(#Безымянный_градиент_27-3);}.cls-47{fill:url(#Безымянный_градиент_24);}.cls-48,.cls-64{fill:#fff;}.cls-49{fill:#231f20;}.cls-50{fill:#dd853a;}.cls-51{fill:#b2aa9b;}.cls-52{fill:#0c3065;}.cls-53{fill:#bdbec5;}.cls-54{fill:#e28335;}.cls-55{fill:url(#Безымянный_градиент_27-4);}.cls-56{fill:#093d89;}.cls-57{fill:#8ab1f7;}.cls-58{fill:#25549d;}.cls-59{fill:#0b2348;}.cls-60,.cls-61{fill:none;}.cls-60{stroke:#093d89;stroke-width:2px;}.cls-61{stroke:#1151ae;stroke-width:4px;}.cls-62{fill:url(#Безымянный_градиент_26-2);}.cls-63{fill:url(#Безымянный_градиент_27-5);}.cls-65{fill:#606060;}.cls-66{fill:#4671bf;}.cls-67{fill:url(#Безымянный_градиент_31-12);}.cls-68{fill:url(#Безымянный_градиент_31-13);}.cls-69{fill:url(#Безымянный_градиент_30);}.cls-70{fill:url(#Безымянный_градиент_31-14);}.cls-71{fill:#9b5420;}.cls-72{fill:#ab9b80;}.cls-73{fill:#827969;}.cls-74{fill:#312f2c;}.cls-75{fill:#ff552e;}</style><radialGradient id="Безымянный_градиент_31" cx="5.58" cy="769.27" r="1" gradientTransform="matrix(77.34, 6.13, 3.49, -44.03, -2399.58, 34353.44)" gradientUnits="userSpaceOnUse"><stop offset="0" stop-color="#4671bf"/><stop offset="0.28" stop-color="#3b60a3"/><stop offset="0.33" stop-color="#3b60a4"/><stop offset="0.4" stop-color="#1b4179"/><stop offset="0.54" stop-color="#0b2448"/></radialGradient><radialGradient id="Безымянный_градиент_31-2" cx="5.58" cy="769.27" r="1" gradientTransform="matrix(77.34, 6.13, 3.49, -44.03, -2302.37, 34243.23)" xlink:href="#Безымянный_градиент_31"/><radialGradient id="Безымянный_градиент_31-3" cx="5.58" cy="769.27" r="1" gradientTransform="matrix(77.34, 6.13, 3.49, -44.03, -2281.18, 34318.4)" xlink:href="#Безымянный_градиент_31"/><radialGradient id="Безымянный_градиент_31-4" cx="5.58" cy="769.27" r="1" gradientTransform="matrix(77.34, 6.13, 3.49, -44.03, -2494.24, 34299.75)" xlink:href="#Безымянный_градиент_31"/><linearGradient id="Безымянный_градиент_7" x1="762.01" y1="321.56" x2="583.3" y2="277.94" gradientTransform="matrix(1, 0, 0, -1, 0, 770)" gradientUnits="userSpaceOnUse"><stop offset="0" stop-color="#5761d7"/><stop offset="0.18" stop-color="#5c66d9"/><stop offset="0.39" stop-color="#6a73df"/><stop offset="0.61" stop-color="#8289e8"/><stop offset="0.85" stop-color="#a3a7f5"/><stop offset="1" stop-color="#bcbeff"/></linearGradient><radialGradient id="Безымянный_градиент_31-5" cx="2" cy="768.97" r="1" gradientTransform="matrix(354.66, 13.49, 3.7, -97.33, -2893.24, 75219.53)" xlink:href="#Безымянный_градиент_31"/><linearGradient id="Безымянный_градиент_7-2" x1="741.02" y1="341.7" x2="694.78" y2="386.4" xlink:href="#Безымянный_градиент_7"/><radialGradient id="Безымянный_градиент_31-6" cx="1.83" cy="768.97" r="1" gradientTransform="matrix(426.48, 14.96, 3.79, -107.95, -3047.76, 83421.32)" xlink:href="#Безымянный_градиент_31"/><radialGradient id="Безымянный_градиент_31-7" cx="3.72" cy="769.3" r="1" gradientTransform="matrix(127.06, 24.45, 32.79, -170.35, -24988.68, 131400.93)" xlink:href="#Безымянный_градиент_31"/><radialGradient id="Безымянный_градиент_10" cx="1.4" cy="769" r="1" gradientTransform="matrix(883.95, 40.55, 13.41, -292.35, -11153.42, 225138.31)" gradientUnits="userSpaceOnUse"><stop offset="0" stop-color="#7590bf"/><stop offset="0.28" stop-color="#3b60a3"/><stop offset="0.33" stop-color="#fff"/><stop offset="0.4" stop-color="#093d89"/><stop offset="0.54" stop-color="#093d89"/></radialGradient><radialGradient id="Безымянный_градиент_31-8" cx="5.7" cy="769.72" r="1" gradientTransform="matrix(61.87, 30.84, 88.94, -178.45, -68073.43, 137520.26)" xlink:href="#Безымянный_градиент_31"/><radialGradient id="Безымянный_градиент_27" cx="2.01" cy="769" r="1" gradientTransform="matrix(352.62, 15.64, 5, -112.77, -3938.58, 86910.26)" gradientUnits="userSpaceOnUse"><stop offset="0" stop-color="#4671bf"/><stop offset="0.28" stop-color="#3b60a3"/><stop offset="0.33" stop-color="#3b60a4"/><stop offset="0.4" stop-color="#093d89"/><stop offset="0.54" stop-color="#093d89"/></radialGradient><radialGradient id="Безымянный_градиент_27-2" cx="1.53" cy="769.05" r="1" gradientTransform="matrix(664.06, 93.75, 93.75, -664.06, -72513.11, 510647.24)" xlink:href="#Безымянный_градиент_27"/><radialGradient id="Безымянный_градиент_31-9" cx="2.21" cy="769.05" r="1" gradientTransform="matrix(293.4, 19.25, 9.08, -138.45, -7096.12, 106855.12)" xlink:href="#Безымянный_градиент_31"/><radialGradient id="Безымянный_градиент_31-10" cx="2.6" cy="769.13" r="1" gradientTransform="matrix(220.81, 23.18, 17.39, -165.63, -13301.61, 127789.4)" xlink:href="#Безымянный_градиент_31"/><radialGradient id="Безымянный_градиент_31-11" cx="1.37" cy="769.01" r="1" gradientTransform="matrix(966.64, 50.37, 18.91, -362.89, -15518.06, 279307.67)" xlink:href="#Безымянный_градиент_31"/><linearGradient id="Безымянный_градиент_17" x1="383.98" y1="415.33" x2="854.47" y2="415.33" gradientTransform="matrix(1, 0, 0, -1, 0, 770)" gradientUnits="userSpaceOnUse"><stop offset="0" stop-color="#42e8e0"/><stop offset="0.15" stop-color="#43e3e0"/><stop offset="0.33" stop-color="#45d5df"/><stop offset="0.52" stop-color="#49bddd"/><stop offset="0.72" stop-color="#4e9cdb"/><stop offset="0.93" stop-color="#5472d8"/><stop offset="1" stop-color="#5761d7"/></linearGradient><radialGradient id="Безымянный_градиент_18" cx="1.94" cy="768.96" r="1" gradientTransform="matrix(378.39, 0, 0, -378.39, -354.61, 291274.03)" gradientUnits="userSpaceOnUse"><stop offset="0" stop-color="#d6d6d6"/><stop offset="0.4" stop-color="#bdbec5"/><stop offset="0.55" stop-color="#768bb2"/><stop offset="0.73" stop-color="#6b6b7f"/><stop offset="1" stop-color="#44444a"/></radialGradient><radialGradient id="Безымянный_градиент_19" cx="1.86" cy="769.57" r="1" gradientTransform="matrix(279, 204.5, 204.5, -279, -157368.64, 214576.02)" gradientUnits="userSpaceOnUse"><stop offset="0" stop-color="#c6c4c4"/><stop offset="0.23" stop-color="#bdbec5"/><stop offset="0.55" stop-color="#9e9eb6" stop-opacity="0.6"/><stop offset="0.73" stop-color="#6b6b7f"/><stop offset="1" stop-color="#6b6b7f"/></radialGradient><linearGradient id="Безымянный_градиент_20" x1="726.8" y1="378.31" x2="726.8" y2="341.29" gradientTransform="matrix(1, 0, 0, -1, 0, 770)" gradientUnits="userSpaceOnUse"><stop offset="0" stop-color="#c4c4c4"/><stop offset="1" stop-color="#c4c4c4" stop-opacity="0"/></linearGradient><linearGradient id="Безымянный_градиент_26" x1="728.95" y1="344.74" x2="721.11" y2="373.88" gradientTransform="matrix(1, 0, 0, -1, 0, 770)" gradientUnits="userSpaceOnUse"><stop offset="0" stop-color="#4f1fec"/><stop offset="1" stop-color="#a92ffb"/></linearGradient><linearGradient id="Безымянный_градиент_22" x1="715.65" y1="365.48" x2="743.9" y2="347.11" gradientTransform="matrix(1, 0, 0, -1, 0, 770)" gradientUnits="userSpaceOnUse"><stop offset="0" stop-color="#c4c4c4"/><stop offset="1" stop-color="#323233"/></linearGradient><radialGradient id="Безымянный_градиент_27-3" cx="7.32" cy="769.65" r="1" gradientTransform="matrix(55.09, 9.12, 10.62, -64.14, -7878.14, 49692.54)" xlink:href="#Безымянный_градиент_27"/><radialGradient id="Безымянный_градиент_24" cx="-0.59" cy="764" r="1" gradientTransform="matrix(-17.59, -65.4, -65.4, 17.59, 50675.25, -13039.34)" gradientUnits="userSpaceOnUse"><stop offset="0" stop-color="#e0d8d1"/><stop offset="0.25" stop-color="#836d91"/><stop offset="0.74" stop-color="#7d9bca"/></radialGradient><radialGradient id="Безымянный_градиент_27-4" cx="2.06" cy="769.02" r="1" gradientTransform="matrix(335.88, 17.98, 6.93, -129.53, -5292.46, 99855.27)" xlink:href="#Безымянный_градиент_27"/><linearGradient id="Безымянный_градиент_26-2" x1="504.97" y1="528.72" x2="477.34" y2="528.72" xlink:href="#Безымянный_градиент_26"/><radialGradient id="Безымянный_градиент_27-5" cx="-2.26" cy="770.41" r="1" gradientTransform="matrix(-108.88, 2.31, 0.35, 16.68, 17.66, -12608.07)" xlink:href="#Безымянный_градиент_27"/><radialGradient id="Безымянный_градиент_31-12" cx="4.81" cy="768.97" r="1" gradientTransform="matrix(93.13, 2.63, 5.7, -201.69, -4284.41, 155361.24)" xlink:href="#Безымянный_градиент_31"/><radialGradient id="Безымянный_градиент_31-13" cx="2.49" cy="767.44" r="1" gradientTransform="matrix(51.05, -92.71, -178.58, -98.34, 137461.61, 76108.48)" xlink:href="#Безымянный_градиент_31"/><radialGradient id="Безымянный_градиент_30" cx="3" cy="767.46" r="1" gradientTransform="matrix(46.97, -74.33, -169.41, -107.05, 130411.27, 82777.42)" gradientUnits="userSpaceOnUse"><stop offset="0" stop-color="#fff"/><stop offset="0.28" stop-color="#fff"/><stop offset="0.33" stop-color="#f7f7f7"/><stop offset="0.4" stop-color="#1b4179"/><stop offset="0.54" stop-color="#21457a"/></radialGradient><radialGradient id="Безымянный_градиент_31-14" cx="1.46" cy="768.95" r="1" gradientTransform="matrix(765.45, -19.49, -13.07, -513.36, 9206.73, 394962.87)" xlink:href="#Безымянный_градиент_31"/></defs><title>page-404</title><path class="cls-1" d="M747.59,445.27,731.21,444l-16.38-1.25c-3.07-.21-6.15-.47-9.22-.68-.13,0-.17.21,0,.26,5.46.52,10.92.94,16.38,1.35s10.93.89,16.39,1.31l9.21.72C747.85,445.79,747.85,445.32,747.59,445.27Z" transform="translate(-356 -18.81)"/><path class="cls-1" d="M751.47,383.11c.13-2.35.35-4.74.35-7.09,0-.15-.18-.15-.22,0-.17,2.09-.21,4.22-.3,6.36l-.3,6.24c-.21,4.22-.38,8.39-.59,12.6-.09,2.19-.22,4.38-.3,6.61,0-.05-.13-.05-.17.06a17.85,17.85,0,0,0-.3,2.18c-.09.78-.21,1.56-.3,2.35l-.64,4.73c-.34,2.76-.72,5.47-1.07,8.23-.08-.05-.21,0-.21.16,0,3.27,0,6.55.09,9.83s0,6.56.17,9.84a0,0,0,1,0,.08,0c0-3.28,0-6.56,0-9.84s.05-6.56,0-9.83c.39-2.77.77-5.52,1.15-8.28.22-1.56.43-3.08.64-4.64.09-.78.22-1.56.3-2.34.09-.62.22-1.25.26-1.87C750.66,399.87,751.05,391.49,751.47,383.11Z" transform="translate(-356 -18.81)"/><path class="cls-1" d="M710.9,375a7.27,7.27,0,0,0-.68-.68l-.55-.52a9.8,9.8,0,0,0,1.23,0c.09,0,.05-.16,0-.16a6.23,6.23,0,0,0-1.36.1s0-.05-.09-.05-.08.05,0,.05h0v.06h.12c.18.2.39.41.6.62a10.34,10.34,0,0,0,.77.73C710.86,375.19,711,375.14,710.9,375Z" transform="translate(-356 -18.81)"/><path class="cls-1" d="M712.91,373.89a9.39,9.39,0,0,0-1.75,1.2s0,.05,0,.05a13.16,13.16,0,0,0,1.79-1.09C713,374,713,373.84,712.91,373.89Z" transform="translate(-356 -18.81)"/><path class="cls-1" d="M715,375.56a19.21,19.21,0,0,0-1.33-1.93,22,22,0,0,0,1.24,2S715,375.66,715,375.56Z" transform="translate(-356 -18.81)"/><path class="cls-1" d="M720.2,375.3a22.73,22.73,0,0,0-1.58-1.67h0a13.38,13.38,0,0,0,1.54,1.72C720.16,375.45,720.24,375.4,720.2,375.3Z" transform="translate(-356 -18.81)"/><path class="cls-1" d="M723.79,373.32c-.9.67-1.8,1.4-2.69,2.13,0,0,0,.05,0,.05a24.94,24.94,0,0,0,2.73-2.08C723.91,373.37,723.83,373.27,723.79,373.32Z" transform="translate(-356 -18.81)"/><path class="cls-1" d="M726.43,375.14c-.68-.57-1.41-1.15-2.13-1.67h0c.68.63,1.36,1.2,2.09,1.77C726.39,375.3,726.47,375.19,726.43,375.14Z" transform="translate(-356 -18.81)"/><path class="cls-1" d="M730.1,372.74c-.85.68-1.66,1.41-2.47,2.14,0,.05,0,.05,0,.05.85-.67,1.71-1.35,2.56-2.08C730.27,372.8,730.18,372.69,730.1,372.74Z" transform="translate(-356 -18.81)"/><path class="cls-1" d="M734.37,374.83a26.74,26.74,0,0,0-2.86-2.4,0,0,0,0,0,0,.05,27.73,27.73,0,0,0,2.78,2.56C734.37,375.09,734.49,374.88,734.37,374.83Z" transform="translate(-356 -18.81)"/><path class="cls-1" d="M738.63,373.42a18.29,18.29,0,0,0-2.47,1.77v.05a28.64,28.64,0,0,0,2.51-1.66C738.76,373.47,738.72,373.37,738.63,373.42Z" transform="translate(-356 -18.81)"/><path class="cls-1" d="M740.6,374.46a16.69,16.69,0,0,0-.82-1.51h0a10.69,10.69,0,0,0,.73,1.57C740.51,374.62,740.64,374.57,740.6,374.46Z" transform="translate(-356 -18.81)"/><path class="cls-1" d="M743.28,373.63a17.54,17.54,0,0,0-1.92,1.35V375a14,14,0,0,0,2-1.31C743.41,373.68,743.33,373.58,743.28,373.63Z" transform="translate(-356 -18.81)"/><path class="cls-1" d="M751.9,373.53c0-.06,0-.06-.08-.06a1.65,1.65,0,0,1-.43.26s.3-.15.38-.1,0,.26,0,.36c0,.32,0,.58,0,.89,0,.57,0,1.14-.09,1.72,0,.1.18.15.18,0C751.86,375.61,751.94,374.57,751.9,373.53Z" transform="translate(-356 -18.81)"/><path class="cls-1" d="M713.93,371.91a4.76,4.76,0,0,0-.43-.52c0-.05,0-.05-.08,0-.77.73-1.54,1.41-2.31,2.19,0,.05,0,.05,0,.05l1.41-1.25a6.37,6.37,0,0,1,.68-.62c.13-.11.13-.16.3-.06s.21.26.3.37S714,372,713.93,371.91Z" transform="translate(-356 -18.81)"/><path class="cls-1" d="M715.08,371.34l-1.23.88c-.05.06,0,.11,0,.06A10.93,10.93,0,0,0,715.08,371.34Z" transform="translate(-356 -18.81)"/><path class="cls-1" d="M719.35,370.61a5.68,5.68,0,0,0-.6-.83h0a5.79,5.79,0,0,0,.51.88C719.26,370.77,719.35,370.66,719.35,370.61Z" transform="translate(-356 -18.81)"/><path class="cls-1" d="M720.71,369.62c-.34.37-.68.68-1,1a9.12,9.12,0,0,0,1-1Z" transform="translate(-356 -18.81)"/><path class="cls-1" d="M722.21,370.09a5.8,5.8,0,0,0-1-.89.05.05,0,0,0-.05.06c.13.15.3.31.43.47l.51.46C722.21,370.19,722.29,370.14,722.21,370.09Z" transform="translate(-356 -18.81)"/><path class="cls-1" d="M724.43,368.48c-.6.41-1.16.88-1.71,1.3l1.75-1.25S724.47,368.42,724.43,368.48Z" transform="translate(-356 -18.81)"/><path class="cls-1" d="M725.58,369.78a6.45,6.45,0,0,0-1-1.25h-.05a9.32,9.32,0,0,0,.9,1.35C725.54,369.93,725.66,369.88,725.58,369.78Z" transform="translate(-356 -18.81)"/><path class="cls-1" d="M727.16,368.89c-.47.31-.94.73-1.41,1.1V370a16.66,16.66,0,0,0,1.41-1.1C727.24,368.94,727.2,368.89,727.16,368.89Z" transform="translate(-356 -18.81)"/><path class="cls-1" d="M728.39,370a11,11,0,0,0-1.11-1.15s0,0,0,.05a10.84,10.84,0,0,0,1,1.2C728.35,370.19,728.44,370.14,728.39,370Z" transform="translate(-356 -18.81)"/><path class="cls-1" d="M729.38,369.05a7,7,0,0,0-.86.78h0a11.53,11.53,0,0,0,.9-.73C729.5,369.1,729.42,369.05,729.38,369.05Z" transform="translate(-356 -18.81)"/><path class="cls-1" d="M731,369.93a6.68,6.68,0,0,0-1-1.25s0,0,0,.06a1.74,1.74,0,0,0,.43.62c.17.21.34.47.51.68C730.91,370.09,731,370,731,369.93Z" transform="translate(-356 -18.81)"/><path class="cls-1" d="M732.92,368.63c-.43.42-.81.83-1.2,1.25h0a14,14,0,0,0,1.24-1.2S733,368.58,732.92,368.63Z" transform="translate(-356 -18.81)"/><path class="cls-1" d="M740.89,370.3c-.08-.57-.29-1.2-.42-1.77h-.05a14,14,0,0,0,.39,1.77C740.81,370.4,740.94,370.4,740.89,370.3Z" transform="translate(-356 -18.81)"/><path class="cls-1" d="M742.64,368.89a10.92,10.92,0,0,0-1.62,1.25s0,.05,0,.05a10.25,10.25,0,0,0,1.67-1.14C742.73,368.94,742.68,368.84,742.64,368.89Z" transform="translate(-356 -18.81)"/><path class="cls-1" d="M747.12,369.88a6.39,6.39,0,0,0-.81-1.14h0a5.06,5.06,0,0,0,.73,1.19C747.08,370,747.16,369.93,747.12,369.88Z" transform="translate(-356 -18.81)"/><path class="cls-1" d="M749.47,368.68c-.6.37-1.24.78-1.79,1.2h0a14.63,14.63,0,0,0,1.83-1.14S749.51,368.68,749.47,368.68Z" transform="translate(-356 -18.81)"/><path class="cls-1" d="M753.9,369.46a6.35,6.35,0,0,0-.72-1.14h0a9.13,9.13,0,0,0,.64,1.2C753.86,369.62,754,369.57,753.9,369.46Z" transform="translate(-356 -18.81)"/><path class="cls-1" d="M755.78,368.42a14,14,0,0,0-1.45,1.31v0a14,14,0,0,0,1.5-1.3C755.87,368.42,755.83,368.37,755.78,368.42Z" transform="translate(-356 -18.81)"/><path class="cls-1" d="M756.59,367.9s0,0,0,0a5.16,5.16,0,0,0,0,1.36c0,.05.13.05.13,0A11.41,11.41,0,0,0,756.59,367.9Z" transform="translate(-356 -18.81)"/><path class="cls-1" d="M752.63,375.4c-.22-.63-.47-1.25-.73-1.82h0a12.38,12.38,0,0,0,.68,1.82C752.58,375.5,752.67,375.5,752.63,375.4Z" transform="translate(-356 -18.81)"/><path class="cls-1" d="M756,371.6a15.75,15.75,0,0,0-.55,1.51s0,.05,0,0c.21-.47.43-1,.6-1.46C756,371.55,756,371.55,756,371.6Z" transform="translate(-356 -18.81)"/><path class="cls-1" d="M756.85,372.17a9.61,9.61,0,0,0-.64-1.14h0a6.28,6.28,0,0,0,.59,1.19C756.76,372.28,756.85,372.22,756.85,372.17Z" transform="translate(-356 -18.81)"/><path class="cls-1" d="M757.15,369.36c0-.05-.09-.05-.09,0a22.94,22.94,0,0,0-.13,2.34H757C757.06,370.92,757.11,370.14,757.15,369.36Z" transform="translate(-356 -18.81)"/><path class="cls-1" d="M756.59,440.27c.17-3.23.34-6.51.47-9.74s.39-6.51.39-9.73c0-.06-.05-.06-.05,0-.29,3.22-.42,6.5-.59,9.73s-.35,6.51-.52,9.74c-1.4.93-2.81,1.82-4.22,2.76a42.47,42.47,0,0,0-4.09,2.76c-.05,0,0,.15.08.1,1.45-.78,2.82-1.77,4.22-2.66s2.82-1.82,4.18-2.7a.48.48,0,0,0,.09-.11C756.55,440.37,756.59,440.32,756.59,440.27Z" transform="translate(-356 -18.81)"/><path class="cls-2" d="M629.26,676.67c150.91,0,273.25-70.59,273.25-157.68S780.17,361.32,629.26,361.32,356,431.91,356,519,478.34,676.67,629.26,676.67Z" transform="translate(-356 -18.81)"/><path class="cls-3" d="M670.23,530.3c57,0,103.14-26.7,103.14-59.63s-46.18-59.62-103.14-59.62-103.14,26.69-103.14,59.62S613.27,530.3,670.23,530.3Z" transform="translate(-356 -18.81)"/><path class="cls-4" d="M759,531.71a9.89,9.89,0,1,1-9.89-9.89A9.66,9.66,0,0,1,759,531.71Z" transform="translate(-356 -18.81)"/><path class="cls-5" d="M846.28,431.39a9.89,9.89,0,1,0-9.89-9.88A9.88,9.88,0,0,0,846.28,431.39Z" transform="translate(-356 -18.81)"/><path class="cls-6" d="M877.36,496.67a9.89,9.89,0,1,1-9.89-9.89A10,10,0,0,1,877.36,496.67Z" transform="translate(-356 -18.81)"/><path class="cls-7" d="M664.3,478a9.9,9.9,0,1,1-9.9-9.89C659.77,468.41,664.3,472.65,664.3,478Z" transform="translate(-356 -18.81)"/><path class="cls-8" d="M725.33,411.61a9.89,9.89,0,1,1-9.89-9.89A9.83,9.83,0,0,1,725.33,411.61Z" transform="translate(-356 -18.81)"/><path class="cls-9" d="M763.2,448.07,654.69,469a2.59,2.59,0,0,0-1.42.28v-.85L648.19,467v7.07c.56,2.54,4.52,3.95,8.76,3.67l108.51-20.91Z" transform="translate(-356 -18.81)"/><path class="cls-10" d="M854.19,410.77l-3.39,2.82a13,13,0,0,0-10.18.85l-77.14,33.63,10.74,6.21,77.14-33.62c1.7-1.13,2.55-2.26,2.55-3.68v-6.21Z" transform="translate(-356 -18.81)"/><path class="cls-11" d="M722.79,403.42c-2-2.26-6.5-3.11-10.17-2a1.47,1.47,0,0,0-1.14.57c-.28-.29-.28-.57-.56-.85a21.46,21.46,0,0,0-2.26-1.7v6.22a3.72,3.72,0,0,0,.85,2l49.73,45.49,13.56-3.95Z" transform="translate(-356 -18.81)"/><path class="cls-12" d="M874.82,486.22l-1.7.56L872,489c-.28-.28-.85-.28-1.41-.56L772.8,448.92l-7.06,7.91,97.77,39.84c3.68,1.13,8.48.28,10.18-2a3.05,3.05,0,0,0,.84-2Z" transform="translate(-356 -18.81)"/><path class="cls-13" d="M759,452.87l-16.11,69-1.13-.56v6.5c.28,2,2.83,3.67,6.5,4,4.24.28,8.2-1.13,8.76-3.67l17.24-73.47Z" transform="translate(-356 -18.81)"/><path class="cls-14" d="M870.58,482.54l-90.71-36.73,71.49-31.09c3.11-2,3.68-4.52.85-6.21l-.85-.57c-2.82-1.69-7.63-1.41-10.74.57l-71.49,31.08-46.34-42.1c-2-2.26-6.5-3.11-10.18-2s-5.36,3.67-3.39,5.93l46.35,42.11L655,463c-4.24.29-7.07,2.55-6.22,5.09.57,2.54,4.52,4,8.76,3.67l100.6-19.49-15.82,68.38c-.57,2.54,2.26,4.8,6.21,5.09,4.24.28,8.2-1.13,8.76-3.68l15.83-68.38,90.71,36.73c3.67,1.13,8.47.29,10.17-2S874.25,483.67,870.58,482.54ZM770,445.81l-1.7,2-3.67-.29-.56-2.26,3.39-.85Z" transform="translate(-356 -18.81)"/><path class="cls-15" d="M766.87,451.46a8.08,8.08,0,0,1-7.91-7.91V352h15.82v91.56A7.89,7.89,0,0,1,766.87,451.46Z" transform="translate(-356 -18.81)"/><path class="cls-16" d="M805,240.65a7.73,7.73,0,0,0-3.39-5.93l-1.41-1.13c-5.66-4.24-16.39-5.37-23.74-2.26L722.79,252.8c-4,1.7-6.5,4-6.78,6.79l-1.13,8.76c-.29,2.26.84,4.52,3.39,6.5l1.41,1.13c5.65,4.23,16.39,5.36,23.74,2.26l53.69-21.48c3.95-1.7,6.21-4,6.78-6.5Z" transform="translate(-356 -18.81)"/><path class="cls-17" d="M720.81,267.22l-1.41-1.13c-5.65-4.24-4-10.46,3.67-13.57l53.69-21.47c7.63-3.11,18.37-2,23.74,2.26l1.41,1.13c5.65,4.24,4,10.45-3.67,13.56l-53.69,21.48C736.92,272.59,726.18,271.46,720.81,267.22Z" transform="translate(-356 -18.81)"/><path class="cls-18" d="M816.61,326,704.42,371.21c-5.65,2.26-9.32-1.42-8.19-8.48.84-6.78,6.21-14.13,11.86-16.39l128.58-51.71-.57,4.8C834.41,310.45,825.65,322.32,816.61,326Z" transform="translate(-356 -18.81)"/><path class="cls-17" d="M860.4,71.39c-3.39-2.54-7.91-2.83-13.56-.57l-3.39,1.42C831,77.32,819.15,93.71,817.17,109L788.06,314.13,817.73,302l-.84,6.5L780.15,330.8l-82.23,39.84,97.21,74.6,67.25-38.15,38.72-24.58,55.38-237.09Z" transform="translate(-356 -18.81)"/><path class="cls-19" d="M785,354.82s11.87,11.58,17.8,2C814.91,337.3,820,327.41,820,327.41c11-42.11,7.91-13.57,12.43-52.56,1.13-9.89-4.52-87.32-11.59-94.1-13-12.44-19.49-13.85-21.47-15.54-2.54-2.55-11.59-15-11.59-15l-67.53-9.61a25.46,25.46,0,0,0-18.94,8.2c-5.08,5.36-12.15,11.86-18.93,15.54-12.72,6.78-50.58,28-50.58,28l-7.07,5.37-35.88,61.6c11.86,6.22,5.93,15.55,5.93,15.55,17.24-12.44,58.49-57.65,58.49-57.65,10.74-2.26,55.11-16.11,55.11-16.11s38.43,52,44.93,76" transform="translate(-356 -18.81)"/><path class="cls-20" d="M734.5,170s-1-15-15.5-29.5c-.81.82-7-4.37-24.5,14.5-4.84,5.22-9.76,6-16.21,9.58-12.11,6.6-48.15,27.2-48.15,27.2L623.42,197c-21.25,17-44.92,53.85-48.42,61.26,1.61-2.19,5.92-6,14-1.64,11.29,6,5.91,15.38,5.91,15.38,16.41-12.09,55.42-56.32,55.42-56.32,9.68-2.2,62.41-16.31,66.18-17.68C732.5,263.5,729,180,734.5,170Z" transform="translate(-356 -18.81)"/><path class="cls-21" d="M680.4,405.4s-2.82-7.63,2.83-13c5.65-5.65,35-18.09,37.3-19.22,2.26-1.41,12.71-9,12.71-9l3.11-7.35s-59.9,5.94-60.75,6.79-28,25.43-27.13,26.28c.85,1.13,18.65,5.37,18.65,5.37l3.39,4.8Z" transform="translate(-356 -18.81)"/><path class="cls-22" d="M940.66,141.75l-3.39,1.41C924.83,148.25,913,164.64,911,179.9L881.88,385.05l-80.25,32.22c-5.65,2.26-10.74,9.6-11.87,16.39-.85,6.78,2.83,10.45,8.19,8.47l112.19-45.21c9-3.67,17.52-15.54,19.21-26.84l.57-4.81L959,160.12C961.57,145.14,953.09,136.66,940.66,141.75Z" transform="translate(-356 -18.81)"/><path class="cls-23" d="M652.14,450.33s-15.54,9.89-20.62,15.82S616,484,620.21,489.61s18.65,8.76,34.19-5.37,11-15,24.31-22S695.38,447.5,694,443c-1.7-4.52-8.2-12.15-11.59-10.45C678.42,434.22,652.14,450.33,652.14,450.33Z" transform="translate(-356 -18.81)"/><path class="cls-24" d="M727.31,491.87S721.66,504,718.83,508s-16.67,27.42-9.6,32.78c7.34,5.37,20.91,4,31.64-7.91s13.28-26,15.83-30.8,9.32-17.24,6.22-24.58-4-8.48-4-8.48Z" transform="translate(-356 -18.81)"/><path class="cls-25" d="M780.43,335S625.3,363.58,617.67,386.18c0,0-3.11,12.15,5.65,22,8.76,9.61,27.69,41,27.69,41s14.13,16.95,32.22,3.39c0,0,8.19-13,3.11-21.76S668,394.38,668,394.38,697.36,374,711.77,369a214.74,214.74,0,0,0,22.32-9.05A69,69,0,0,1,720.81,387c-10.74,13.28-28.26,34.76-22.61,49.73,5.94,15,9.33,19.5,15,28.26,5.65,8.48,10.74,26.56,15.54,28.54s26.57,4,30.24-10.17c3.67-14.41-7.35-42.1-12.43-51.43,0,0,118.11-13,117.83-67.54C864.36,354.53,798.8,323.45,780.43,335Z" transform="translate(-356 -18.81)"/><path class="cls-26" d="M686.62,430.83c-5.09-8.76-18.37-36.45-18.37-36.45S697.64,374,712.05,369a215.69,215.69,0,0,0,22.33-9.05c2.82-3.95,11.86-18.65,15.82-30.23-33.34-9.89-69.8-17.24-78.84-11.31,3.11,7.92,20.34,7.92,20.34,7.92s6.5,15.54,10.46,17.52,14.41-.29,14.41-.29-1.69,2.55-8.76,7.63c-7.35,5.09-52.27,42.11-52.27,42.11s2.54,1.41,14.69,23.17,13.56,36.17,13.56,36.17S691.7,439.59,686.62,430.83Z" transform="translate(-356 -18.81)"/><path class="cls-27" d="M788.07,342.1c-26.57-2.54-57.37-2.83-50.59,11.3A44.15,44.15,0,0,0,773.09,378c-.28,8.76-36.45,50.58-36.45,50.58L745.11,445c8.48,16.39,7.35,46.62,7.35,46.62a12.12,12.12,0,0,0,6.78-8.75c3.68-14.42-7.35-42.11-12.43-51.44,0,0,59.34-68.38,65-76C813.5,353.4,803.32,348,788.07,342.1Z" transform="translate(-356 -18.81)"/><path class="cls-20" d="M738.9,179.33s-10.46,38.43.56,78c0,0,40.13-74.89,44.37-87s5.93-20.91,2-25.15-40.41,18.09-40.41,18.09Z" transform="translate(-356 -18.81)"/><path class="cls-28" d="M714.59,127.9s.85,9.61,2,11,3.68,2,4.24,5.65,5.65,13.56,7.63,16.67c0,0,.28,4,1.7,4.8s2.82.29,4.24,2c1.41,1.41,4.52,10.46,9,12.43s9.6,1.14,11.87-.28a19.43,19.43,0,0,0,4.23-4l6.22.56s26.28-16.67,19.5-36.45l-.57-2.26a23,23,0,0,0,1.13-5.37c0-2,2.27-11.87-1.13-14.7,0,0-2-46.9-36.73-39.56C712.62,86.08,714.59,111.51,714.59,127.9Z" transform="translate(-356 -18.81)"/><path class="cls-29" d="M785.24,140.34l-.28-2c0-2.54,4.8-17.24-.29-20.35-3.67-2.26-9,15.55-9,15.55s-.28,1.69.85,12.71-16.67,30-16.67,30l1.13,9,1.13,7.06,1.69-6.21,2.26-9.33C765.74,176.79,792,160.12,785.24,140.34Z" transform="translate(-356 -18.81)"/><path class="cls-30" d="M734.92,120.28C725,129,715,124.46,715,124.46l-6.66-7.57-5.56-18,8.32,5.56c-6.66-24-6.84-25.2-6.1-22.79l8.89,1,8.89,1c.74-4.39,3.67-13.82,9.45-16.49l6.43,6.12c1.93-1.67,6.24-6.12,8-10.56l7.2,8.36c6.24-8.47,9.65-11,10.58-11.14l9.45,18.71h14.45L782,90.47c.36.78.69,1.57,1,2.36l8.66,11.07-5.59,13.56,0-.56c-11.26,2.57-8.16,16.38-8.16,16.38l-1.13.85a3.05,3.05,0,0,1-4.52-1.13l-2.82-5.65-5.94-.57a4.25,4.25,0,0,1-3.39-3.1l-1.69-6.22c-.57-2-.86,4.78-2.84,4.78C751,122,741.42,114.63,734.92,120.28Z" transform="translate(-356 -18.81)"/><path class="cls-31" d="M786.1,118.3s1.11-3.29,5.56-14.4c-10.46,15-34.68,14.4-34.68,14.4l1.7,6.21a4.22,4.22,0,0,0,3.39,3.11l5.93.57,2.83,5.65a3.06,3.06,0,0,0,4.52,1.13l1.13-.85C776.48,134.4,774.8,120.84,786.1,118.3Z" transform="translate(-356 -18.81)"/><path class="cls-28" d="M573.87,260.72s-.28,2.26-4.52,4.8c-4,2.26-14.41,7.35-16.11,9-1.7,1.42-9.32,8.2-9.32,9.05-.29.84-2.55,8.47-2.55,8.76,0,.56.85,3.95.85,3.95l-2.26,11s-2.83,4.24.28,5.37,5.09-2.26,5.09-2.54a53.87,53.87,0,0,0,8.48-5.09c3.67-2.82,17.8-14.13,20.34-13.56s.28,4.8-.85,5.65-8.76,8.19-5.65,13.28,5.37-2.82,7.35-4.52,6.5-8.2,9.32-8.76c2.83-.85,7.92-11,8.48-15.82.57-4.53,4-7.63,5.09-9.05s-2.54-13-2.54-13l-14.13-4.52-5.09,3.11Z" transform="translate(-356 -18.81)"/><path class="cls-32" d="M842,200.24c-2.83-4.52-4.24-1.13-8.2,2.55-5.37,5.08-12.15,13.28-15.54,23.45-6.22,18.37-3.95,64.71-2,71.49,0,0-58.77,9.61-62.73,9.33s5.09,28.82,5.09,28.82,93.81-3.11,96.36-4.8c2.26-1.7,2.82-26,2.54-39.85C857.3,279.08,857.3,224.55,842,200.24Z" transform="translate(-356 -18.81)"/><path class="cls-33" d="M758.39,335.88s93.82-3.11,96.36-4.8c2.26-1.7,2.83-26,2.55-39.84-.29-9.89,0-48.33-8.48-75.17,6.5,22.89,3.11,103.42,0,107.66s-92.4,6.5-92.4,6.5A31.84,31.84,0,0,1,758.39,335.88Z" transform="translate(-356 -18.81)"/><path class="cls-34" d="M698.2,610a12.87,12.87,0,0,1-5.65-1.42c-3.95-2.26-6.21-6.78-6.21-12.71V461.07h5.93V595.86c0,3.67,1.13,6.5,3.11,7.91,2,1.13,5.08.85,8.19-1.13l112.19-64.71c7.91-4.52,14.41-16.11,14.41-25.15V378h5.93V512.5c0,11.3-7.63,24.58-17.23,30L706.68,607.16A15.84,15.84,0,0,1,698.2,610Z" transform="translate(-356 -18.81)"/><path class="cls-34" d="M411.1,450.33a13,13,0,0,1-5.65-1.41c-3.95-2.27-6.22-6.79-6.22-12.72V301.41h5.94V436.2c0,3.67,1.13,6.5,3.11,7.91,2,1.13,5.08.85,8.19-1.13l112.19-64.71c7.91-4.52,14.41-16.11,14.41-25.15V218.33H549V353.12c0,11.3-7.63,24.58-17.24,29.95L419.58,447.79A16.41,16.41,0,0,1,411.1,450.33Z" transform="translate(-356 -18.81)"/><path class="cls-34" d="M403.88,349.4,401,354.57,687.82,517.24l2.93-5.16Z" transform="translate(-356 -18.81)"/><path class="cls-35" d="M690,490.45,384,313.84,548.44,218.9l306,176.61Z" transform="translate(-356 -18.81)"/><path class="cls-36" d="M384,299.15v14.69L690,490.45l164.46-94.94v-14.7L690,475.76Z" transform="translate(-356 -18.81)"/><path class="cls-37" d="M690.29,477.17l-306-176.61,164.46-94.95,306,176.62Z" transform="translate(-356 -18.81)"/><path class="cls-38" d="M590.26,287.56s33.63-26.28,38.43-28.82a30.51,30.51,0,0,0,6.78-4.52l-11.3-6.5-18.93,7.91-24,23.74-36.74,26v5.94S575,298.3,578.39,296C581.5,294.06,590.26,287.56,590.26,287.56Z" transform="translate(-356 -18.81)"/><path class="cls-39" d="M570.2,311.58s7.06-6.5,11.86-8.48c4.53-2.26,11.87-7.91,12.72-12.15s8.48-13.84,8.48-13.84l-12.15,7.06L573.3,294.34l-29.38,17.24s1.69,2,5.65.85c3.67-1.13,10.73-5.65,14.13-6.22,3.39-.28,8.76-1.41,8.76-1.41Z" transform="translate(-356 -18.81)"/><path class="cls-28" d="M573.87,260.72s-.28,2.26-4.52,4.8c-4,2.26-14.41,7.35-16.11,9-1.7,1.42-9.32,8.2-9.32,9.05-.29.84-2.55,8.47-2.55,8.76,0,.56.85,3.95.85,3.95l-2.26,11s-2.83,4.24.28,5.37,5.09-2.26,5.09-2.54a53.87,53.87,0,0,0,8.48-5.09c3.67-2.82,17.8-14.13,20.34-13.56s.28,4.8-.85,5.65-8.76,8.19-5.65,13.28,5.37-2.82,7.35-4.52,6.5-8.2,9.32-8.76c2.83-.85,7.92-11,8.48-15.82.57-4.53,4-7.63,5.09-9.05s-2.54-13-2.54-13l-14.13-4.52-5.09,3.11Z" transform="translate(-356 -18.81)"/><path class="cls-40" d="M734.66,426.87l57.64-14.13,1.7-11.86-24.59-2.55Z" transform="translate(-356 -18.81)"/><path class="cls-40" d="M780,382.86l52.79,11.66L845,400.64l9.44-5V382.86l-23.59-8.34Z" transform="translate(-356 -18.81)"/><path class="cls-41" d="M723.92,393l9,33.91,35.89-13c2-.57,3.67-2.55,4.52-5.66,1.7-6.21-.57-15-5.37-19.49-2.26-2.27-4.8-3.11-6.78-2.55Z" transform="translate(-356 -18.81)"/><path class="cls-42" d="M734,427.05l-8.64-31.78,6.11-1.2a11.63,11.63,0,0,1,3.58,2.16c5.83,4.83,9.31,14.44,8.13,22.24l26-8.8a4.8,4.8,0,0,0,2.74-2c1-1.54,1.89-3.9,1.8-7.85a21.17,21.17,0,0,1-.16,8.41c-.83,3-2.58,4.94-4.53,5.49l-28,10.92Z" transform="translate(-356 -18.81)"/><path class="cls-42" d="M732.11,396.07c5.66,5.65,8.48,16.39,6.5,24s-8.19,9.33-13.84,3.68-8.48-16.39-6.5-24S726.46,390.42,732.11,396.07Z" transform="translate(-356 -18.81)"/><path class="cls-42" d="M728.16,398.9c4.8,4.8,7.35,14.13,5.65,20.63s-7.07,7.91-11.87,3.11-7.35-14.13-5.65-20.63S723.35,394.1,728.16,398.9Z" transform="translate(-356 -18.81)"/><path class="cls-43" d="M723.07,392.12l-3.39,1.13c-2.54.85-4.52,3.11-5.37,7.06-2,7.91.85,18.93,6.78,24.87,2.83,2.82,5.94,3.95,8.48,3.39l3.11-.57H733c2.83-.56,5.09-3.1,6.22-7.34,2.26-8.2-.85-19.5-6.78-25.43C729.29,392.12,725.9,391,723.07,392.12Z" transform="translate(-356 -18.81)"/><path class="cls-44" d="M728.16,398.9c4.8,4.8,7.35,14.13,5.65,20.63s-7.07,7.91-11.87,3.11-7.35-14.13-5.65-20.63S723.35,394.1,728.16,398.9Z" transform="translate(-356 -18.81)"/><path class="cls-45" d="M728.08,397.88c5.11,5.08,7.82,14.95,6,21.83s-7.53,8.38-12.64,3.3-7.83-15-6-21.84C717.24,394.59,723,392.79,728.08,397.88Z" transform="translate(-356 -18.81)"/><path class="cls-42" d="M722.51,420.66c-4.81-4.81-7.35-14.13-5.65-20.63v-.28A17.34,17.34,0,0,0,716,402c-1.7,6.5.85,15.82,5.65,20.63s9.89,3.39,11.87-2.83C731.27,424.33,726.74,424.9,722.51,420.66Z" transform="translate(-356 -18.81)"/><path class="cls-46" d="M723.35,422.35c-4.8-4.8-7.34-14.13-5.65-20.63.85-2.82,2.26-4.8,4-5.65-2.55.29-4.52,2.26-5.65,5.94-1.7,6.5.85,15.82,5.65,20.63,2.54,2.54,5.65,3.39,7.91,2.54C727.59,425.46,725.33,424.33,723.35,422.35Z" transform="translate(-356 -18.81)"/><path class="cls-47" d="M714.59,400.31c-2.26,7.91.85,19.22,6.5,25.15s12.15,4.24,14.42-3.67-.85-19.22-6.5-25.15S716.86,392.12,714.59,400.31Zm17.52,4.52,2,7.35a20.88,20.88,0,0,1-.28,7.35c-1.7,6.5-7.07,7.91-11.87,3.11s-7.35-14.13-5.65-20.63,7.06-7.91,11.87-3.11A21.78,21.78,0,0,1,732.11,404.83Z" transform="translate(-356 -18.81)"/><path class="cls-48" d="M715.72,402.29c-1.69,6.5.85,15.82,5.66,20.63,2.54,2.54,5.08,3.39,7.34,2.54-2,.28-4.52-.56-6.78-2.82-4.8-4.81-7.35-14.13-5.65-20.63.85-3.11,2.54-5.09,4.52-5.65C718.55,396.92,716.57,398.9,715.72,402.29Z" transform="translate(-356 -18.81)"/><path class="cls-48" d="M728.44,396.64c5.65,5.93,8.76,16.95,6.5,25.15-1.13,3.67-3.11,6.21-5.37,7.06,2.83-.56,5.09-3.11,6.22-7.06,2.26-7.91-.85-19.22-6.5-25.15-3.11-3.11-6.22-4-9-3.11C722.51,392.68,725.61,393.81,728.44,396.64Z" transform="translate(-356 -18.81)"/><path class="cls-49" d="M733.24,419.53l-13.56,2.26v2a16.47,16.47,0,0,1-3.39-5.37c-1.13-3.11-1.13-2.55-1.13-2.55s-23.74-.28-29.67,9S693.68,443,693.68,443s6.5,4.24,18.37,0,9.33-5.37,13.56-7.91c2.55-1.7,2.27,1.41,2.27,1.41a3.5,3.5,0,0,0,1.13,2.26c1.13,1.13,3.39-.56,3.39-.56s11.3-9.33,8.19-11.31-12.71,2.55-14.13,1.42c-.85-.85-.28-3.11-.28-3.11a6.51,6.51,0,0,0,4.52-2A6.16,6.16,0,0,0,733.24,419.53Z" transform="translate(-356 -18.81)"/><path class="cls-49" d="M730.14,439s-.29,7.92,1.69,9.05l2,1.41s.28,6.22-.28,7.35c-.57,1.41.56,1.41.56,1.41a.83.83,0,0,0,.85-.85c0-.84-.85-6.78-.28-8.47,0,0,1.41-1.13,2.54-.29,1.41.85,1.13,9.89,1.13,10.74,0,1.13.85,1.13.85,1.13s.85-.28.56-.85a59,59,0,0,1-.84-11.3c.28-2.54,2.26-2.54,0-4.8s-3.11-8.2-2.55-8.76Z" transform="translate(-356 -18.81)"/><path class="cls-20" d="M794,157.86a113.72,113.72,0,0,1,18.37,7.63C864.93,207,882.73,282.76,866.06,361.6c-42.11,2.54-63.58-22.33-89-18.37a5.22,5.22,0,0,1-4.52-1.41,5.09,5.09,0,0,1-1.13-4.52c18.94-76-35.6-102.3-24.58-144.4,2,17.23,5.37,21.19,7.91,21.76,7.91,1.41,20.35-32.78,37.3-47.76" transform="translate(-356 -18.81)"/><path class="cls-50" d="M759.52,214.94,759,335l4.52,10.73,10.17-18.65L764.89,215.5Z" transform="translate(-356 -18.81)"/><path class="cls-51" d="M774.22,247.44l-1.13,86.18,4.52,8.2,10.17-12.72-8.48-80.82Z" transform="translate(-356 -18.81)"/><path class="cls-51" d="M808.41,215.5c3.11,8.48,20.91,33.63,23.17,43,7.35,31.65,3.39,61.6-2.54,98.33a98.93,98.93,0,0,0,37,4.81c13.84-64.15,7.34-120.66-31.09-169-.84-1.13-11.58-13.29-12.71-11.87C814.91,188.66,808.69,210.13,808.41,215.5Z" transform="translate(-356 -18.81)"/><path class="cls-29" d="M755,163.23c.29,0,.57,0,.57-.29,1.13-2.82,9.61-20.34,14.69-26.28,5.65-6.21,8.48-14.12,8.48-15-.28-.57-.28-15-2-16.67-1.69-1.42-7.63-5.37-10.74-4.81a31.12,31.12,0,0,1-5.08.57l-.57,1.13s-4,.28-5.37.56a4.84,4.84,0,0,1-2,.28c-2,0-5.36.29-5.65.85-.56.85-2.82,4.24-3.1,5.37,0,.85,2,2.54,3.1,2.83a.6.6,0,0,1,.57.56,68.94,68.94,0,0,1-5.37,13.28c-4.24,7.63-4,21.2-3.67,22.33v.28l-4,11.59c0,.28,0,.56.57.84Z" transform="translate(-356 -18.81)"/><path class="cls-28" d="M745.39,161H735.22c-.28,0-.56-.29-.56-.85l4-11.59v-.28c0-1.13-.28-14.69,3.68-22.32a62.42,62.42,0,0,0,5.37-13.29c0-.28,0-.56-.57-.56-1.13,0-3.39-2-3.11-2.83.29-1.13,2.54-4.52,3.11-5.36.28-.57,3.67-.85,5.65-.85a4.7,4.7,0,0,0,2-.29c1.41-.56,5.37-.56,5.37-.56l.56-1.13a31.28,31.28,0,0,0,5.09-.57,35.83,35.83,0,0,1,3.67,9.89c1.14,6.5-3.1,11.87-10.17,22.61-2.54,3.67-7.63,5.09-10.17,8.76C743.42,149.38,747.94,155.88,745.39,161Z" transform="translate(-356 -18.81)"/><path class="cls-20" d="M788.35,185c-15.26,12.43-36.46,48.32-39.28,54.53,0,0,11.3-75.45,8.48-78.27s-20.35-2.54-20.35-2.54-11.3,31.64-15.82,57.92c-2.27,13.57-7.35,34.76-2.55,45.5,10.18,21.48,15,27.13,16.39,27.41,2.83.28,30-19.22,39-30,7.91-9,44.65-49.74,49.45-78C824.52,175.94,794,184.7,788.35,185Z" transform="translate(-356 -18.81)"/><path class="cls-51" d="M753,263.26c0-3.67-.56-3.67-.84-7.35-1.7-19.5-.85-19.21,1.13-37.3l5.37-57.36-3.39-1.13S751.61,200,748.5,233c-2.54,25.44-3.67,46.06-8.47,46.91,0,0-8.76-.85-15.83-9.61-5.93-7.34,5.09,16.39,11,18.94,1.42-.57,2.83-1.41,4.52-2.26a65,65,0,0,0,6.5-4.24,127.49,127.49,0,0,0,13-9c3.11-2.55,9-7.92,21.48-21.76C796,235,809,215.22,811.8,209.57c3.11-5.65,4.81-8.48,5.09-9.33.28-.56,4-8.47,5.08-12.71.57-1.7,1.42-6.5,1.42-6.5" transform="translate(-356 -18.81)"/><path class="cls-50" d="M756.42,185.27l1.41,23.45,2,.57-2.55-26Z" transform="translate(-356 -18.81)"/><path class="cls-50" d="M764.89,209.85l-7.34-2,2.26,7.62,3.67-.28Z" transform="translate(-356 -18.81)"/><path class="cls-52" d="M582.15,296.43l6.78,3.68L632.44,271a5.22,5.22,0,0,1,4.53.28l117.27,67.54c1.61,1,2.82,1.7,2.82,1.7l.85.8v.89c0,.28-.28.57-.56.85l-46.91,31.08a5.13,5.13,0,0,1-4.52-.28L586.1,304.63A2.22,2.22,0,0,1,585,303.5Z" transform="translate(-356 -18.81)"/><path class="cls-53" d="M583.27,297.56,706.2,368.49a5.13,5.13,0,0,0,4.52.28l43.52-26.84c1.13-.57,1.13-2-.29-2.54L631,268.46a5.13,5.13,0,0,0-4.52-.28L583,295C581.58,295.59,581.86,296.72,583.27,297.56Z" transform="translate(-356 -18.81)"/><path class="cls-8" d="M626,288,709,336l4-2.26-83.08-48Z" transform="translate(-356 -18.81)"/><path class="cls-42" d="M619.73,291.35l97.77,56.8,4-2.26-97.78-56.8Z" transform="translate(-356 -18.81)"/><path class="cls-42" d="M613.23,295l98,56.8,4-2.54-98.06-56.52Z" transform="translate(-356 -18.81)"/><path class="cls-8" d="M607,298.69l98.06,56.52L709,353l-98-56.52Z" transform="translate(-356 -18.81)"/><path class="cls-42" d="M734.46,334.58l-95-54.54-4,2.26,94.1,54.26,4,2.26,3.95-2.26Z" transform="translate(-356 -18.81)"/><path class="cls-42" d="M704.22,333.17,724,344.47l4-2.26-19.78-11.3Z" transform="translate(-356 -18.81)"/><path class="cls-51" d="M756.42,186.12h4.52l-1.42-9.89Z" transform="translate(-356 -18.81)"/><path class="cls-51" d="M765.74,176.79l-1.41,5.65,8.19,11.87Z" transform="translate(-356 -18.81)"/><path class="cls-54" d="M764.89,209.85s22-21.76,24.31-26,2-5.08,2-5.08h-2.26s-.56,4.24-1.69,5.37-24.59,25.15-24.59,25.15Z" transform="translate(-356 -18.81)"/><path class="cls-51" d="M796.83,162.66s-4.81,13.85-5.66,16.39l-4.24-.56.85,4.52-21.47,22.6,24-21.76-1.13-3.95,3.67.28Z" transform="translate(-356 -18.81)"/><path class="cls-55" d="M911.27,299.43c-.28-2-1.7-4-4.24-5.37l-1.69-.85c-6.22-3.67-17-3.11-24,1.13l-50,28.83c-3.67,2.25-5.65,4.8-5.94,7.62v8.76c0,2.27,1.42,4.53,4.24,5.94l1.7.85c6.22,3.67,17,3.11,24-1.13l50-28.83c3.67-2,5.65-4.8,5.93-7.34Z" transform="translate(-356 -18.81)"/><path class="cls-17" d="M831.3,337.58l-1.7-.85c-6.21-3.67-5.37-9.61,1.7-13.85l50-28.82c7.07-3.95,17.81-4.52,24-1.13l1.7.85c6.22,3.67,5.37,9.61-1.7,13.85l-50,28.82C848.25,340.69,837.51,341,831.3,337.58Z" transform="translate(-356 -18.81)"/><path class="cls-56" d="M978.41,594.87,908.3,554.13,908.15,498l70.12,40.74Z" transform="translate(-356 -18.81)"/><path class="cls-17" d="M940.63,526.08l-70.11-40.74L908,463.65l70.11,40.74Z" transform="translate(-356 -18.81)"/><path class="cls-56" d="M978.12,504.39,908,463.65l-.15-78.53L978,425.86Z" transform="translate(-356 -18.81)"/><path class="cls-17" d="M978,425.86l-70.11-40.74,30-17.27,70.11,40.74Z" transform="translate(-356 -18.81)"/><path class="cls-17" d="M910.37,465l-70.11-40.74,30-17.42,70.11,40.74Z" transform="translate(-356 -18.81)"/><path class="cls-56" d="M910.66,577.89l-70.11-40.74-.29-112.91L910.37,465Z" transform="translate(-356 -18.81)"/><path class="cls-57" d="M1007.93,408.59l.45,168.86-30,17.42-.14-56.09-67.61,39.11L910.37,465l30-17.42.3,78.52,37.49-21.69L978,425.86Z" transform="translate(-356 -18.81)"/><path class="cls-17" d="M813.1,656,743,615.24l37.5-21.7,70.11,40.74Z" transform="translate(-356 -18.81)"/><path class="cls-56" d="M850.59,634.28l-70.11-40.74-.15-99.78,70,40.74Z" transform="translate(-356 -18.81)"/><path class="cls-57" d="M782.69,538.78l97.57-56.39.44,169-97.57,56.38Zm67.9,95.5-.3-99.78-37.64,21.69L813,656Z" transform="translate(-356 -18.81)"/><path class="cls-17" d="M782.69,538.78,712.58,498l97.56-56.39,70.12,40.74Z" transform="translate(-356 -18.81)"/><path class="cls-56" d="M783.13,707.78,713,667l-.44-169,70.11,40.74Z" transform="translate(-356 -18.81)"/><path class="cls-56" d="M712.14,748.52,642,707.78l-.14-55.94L712,692.58Z" transform="translate(-356 -18.81)"/><path class="cls-17" d="M674.2,679.89l-70.11-40.74,37.64-21.85L711.84,658Z" transform="translate(-356 -18.81)"/><path class="cls-56" d="M711.84,658,641.73,617.3l-.15-78.38,70,40.74Z" transform="translate(-356 -18.81)"/><path class="cls-17" d="M711.55,579.66l-70-40.74,30-17.27,70.12,40.74Z" transform="translate(-356 -18.81)"/><path class="cls-17" d="M643.94,618.63l-70.11-40.74,30.11-17.27,70.11,40.74Z" transform="translate(-356 -18.81)"/><path class="cls-56" d="M644.39,731.55l-70.12-40.74-.44-112.92,70.11,40.74Z" transform="translate(-356 -18.81)"/><path class="cls-57" d="M741.66,562.39l.44,168.86-30,17.27L712,692.58l-67.6,39-.45-112.92,30.11-17.27.15,78.53L711.84,658l-.29-78.38Z" transform="translate(-356 -18.81)"/><circle class="cls-58" cx="254.32" cy="336.57" r="5.65"/><circle class="cls-58" cx="265.63" cy="339.4" r="5.65"/><circle class="cls-59" cx="265.63" cy="339.4" r="2.83"/><circle class="cls-58" cx="516.89" cy="604.75" r="5.65"/><circle class="cls-59" cx="516.89" cy="604.75" r="2.83"/><path class="cls-58" d="M713.54,559.61c0,1.95-3.16,2.83-7.06,2.83s-7.06-.88-7.06-2.83,3.16-2.83,7.06-2.83S713.54,557.66,713.54,559.61Z" transform="translate(-356 -18.81)"/><ellipse class="cls-59" cx="350.48" cy="540.8" rx="2.83" ry="1.41"/><path class="cls-60" d="M706.64,559.56c1.29-9.32-63-101-73.35-147.91s-10.37-51.65-11.67-53.8" transform="translate(-356 -18.81)"/><circle class="cls-59" cx="610.32" cy="355.38" r="2.83" transform="translate(-194.23 882.09) rotate(-80.78)"/><path class="cls-60" d="M610.32,355.38C619.59,379.61,629,444.86,596.75,495s-40.24,106-15.7,147.33" transform="translate(-356 -18.81)"/><circle class="cls-58" cx="641.36" cy="538.86" r="5.65"/><circle class="cls-58" cx="641.36" cy="524.73" r="5.65"/><circle class="cls-59" cx="641.36" cy="538.86" r="2.83"/><circle class="cls-59" cx="641.36" cy="524.73" r="2.83"/><path class="cls-61" d="M998.38,556.78c-11.48,25-51,71.81-125.59,66.23" transform="translate(-356 -18.81)"/><path class="cls-40" d="M492.9,280.9l-26.61,12.15-13.6-20.25,33.84-6.07Z" transform="translate(-356 -18.81)"/><path class="cls-48" d="M475.25,244.17h32.11l-2.89,30.37c0,1.74-1.16,3.47-3.76,4.63a23,23,0,0,1-18.52,0c-2.6-1.16-3.76-2.89-3.76-4.63Z" transform="translate(-356 -18.81)"/><path class="cls-42" d="M475.25,244.17h32.11l-.58,4.92a11.49,11.49,0,0,1-2.89,2.31c-6.08,3.47-16.2,4.34-23.14,1.73l1.15,22.28a3.13,3.13,0,0,0,1.16,2.6c1.16,1.16,3.18,2.32,6.94,2.89a22.19,22.19,0,0,1-7.81-2c-2.6-1.16-3.76-2.89-3.76-4.63L476.12,250Z" transform="translate(-356 -18.81)"/><path class="cls-42" d="M479.88,250c6.36,3.18,16.49,3.18,22.56,0,6.37-3.18,6.37-8.38,0-11.57s-16.49-3.18-22.56,0C473.52,241.57,473.52,246.77,479.88,250Z" transform="translate(-356 -18.81)"/><path class="cls-42" d="M481.33,246.19c5.49,2.61,14.17,2.61,19.67,0s5.49-7.23,0-9.83-14.18-2.6-19.67,0C476.12,239,476.12,243.59,481.33,246.19Z" transform="translate(-356 -18.81)"/><path class="cls-42" d="M474.1,243.59l.28-2.89c0-2,1.74-4,4.92-5.79,6.66-3.18,17.07-3.18,23.72,0,3.18,1.74,4.92,3.76,4.92,5.79l.29,2.31v.29c.29,2.32-1.45,4.63-4.92,6.36-6.65,3.47-17.35,3.47-24,0C475.54,248.51,474.1,245.9,474.1,243.59Z" transform="translate(-356 -18.81)"/><path class="cls-62" d="M481.33,246.19c5.49,2.61,14.17,2.61,19.67,0s5.49-7.23,0-9.83-14.18-2.6-19.67,0C476.12,239,476.12,243.59,481.33,246.19Z" transform="translate(-356 -18.81)"/><path class="cls-49" d="M490,247.93c-8,0-14.46-3.24-14.46-7.23s6.48-7.23,14.46-7.23,14.47,3.23,14.47,7.23S498,247.93,490,247.93Z" transform="translate(-356 -18.81)"/><path class="cls-42" d="M499.26,237.23c-5.5-2.61-14.17-2.61-19.67,0h-.29c.58-.29,1.16-.87,1.74-1.16,5.49-2.6,14.17-2.6,19.67,0,5.2,2.6,5.49,6.94.29,9.83C504.47,243.3,503.89,239.83,499.26,237.23Z" transform="translate(-356 -18.81)"/><path class="cls-63" d="M501,237.51c-5.5-2.6-14.18-2.6-19.67,0-2.32,1.16-3.76,2.61-4.05,4.34-.29-2,.86-4,4.05-5.49,5.49-2.6,14.17-2.6,19.67,0,2.89,1.44,4.34,3.47,4.05,5.49C504.76,240.41,503.31,238.67,501,237.51Z" transform="translate(-356 -18.81)"/><path class="cls-48" d="M479.3,235.49c6.36-3.47,17.07-3.47,23.72-.29s6.65,8.68,0,11.86c-6.36,3.47-17.07,3.47-23.72.29C472.94,244.17,472.65,238.67,479.3,235.49Zm8.39,12.44c8.39.58,11.57-.87,13.31-1.74,5.49-2.6,5.49-7.23,0-9.83s-14.18-2.6-19.67,0-5.5,7.23,0,9.83A20.43,20.43,0,0,0,487.69,247.93Z" transform="translate(-356 -18.81)"/><path class="cls-48" d="M481.33,235.78c5.49-2.6,14.17-2.6,19.67,0,2.89,1.45,4.05,3.18,4.05,5.21,0-1.74-1.45-3.48-4.05-4.63-5.5-2.6-14.18-2.6-19.67,0-2.61,1.15-4.05,2.89-4.05,4.63C477.28,239.25,478.43,237.23,481.33,235.78Z" transform="translate(-356 -18.81)"/><path class="cls-48" d="M479.3,246.77C486,250,496.37,250,503,246.48c3.18-1.73,4.63-3.76,4.92-5.78,0,2.31-1.45,4.34-4.92,6.07-6.36,3.47-17.07,3.47-23.72.29-3.47-1.74-5.2-4.05-4.92-6.36C474.67,243.3,476.12,245.32,479.3,246.77Z" transform="translate(-356 -18.81)"/><path class="cls-64" d="M491.74,243.3s-7.81-2.6-4.63-11.57,9.26-11.86,6.94-18.8c0,0,3.76,5.78.29,13.59-3.76,7.81-4.34,6.95-4.34,10.71a6.89,6.89,0,0,0,3.76,6.07Z" transform="translate(-356 -18.81)"/><path class="cls-64" d="M495.79,241s-2.89-.87-1.74-4.34c1.16-3.18,3.47-4.34,2.61-6.94a4.88,4.88,0,0,1,0,4.91c-1.45,2.89-1.74,2.61-1.74,4a2.5,2.5,0,0,0,1.45,2.32Z" transform="translate(-356 -18.81)"/><path class="cls-64" d="M489.14,220.74s.86-5.5-4.34-10.7c0,0,4.34,9.83,2.89,14.75C488,224.79,489.14,221.9,489.14,220.74Z" transform="translate(-356 -18.81)"/><path class="cls-48" d="M476.12,253.43s-.58-7.81-6.65-8.39-4.92,10.41-4.92,10.41l6.65,8.68a7.55,7.55,0,0,0,6.37,1.15l-.87-7.52Z" transform="translate(-356 -18.81)"/><path class="cls-65" d="M468.6,247.64s-4.05,1.74-2,6.65,8.68,8.39,8.68,8.39l-.58-9.83C474.38,253.13,472.94,246.77,468.6,247.64Z" transform="translate(-356 -18.81)"/><path class="cls-66" d="M509.74,316.15l6-127.15-1.62-.58-.14-2c.34-.43,3.72-.37,4.52-.07l178.9,77.12a4.81,4.81,0,0,1,2.79,3.93l-5.88,128.29c.09.77-3.74,1.49-4.12,1.53l-2.57-.82L512.9,320C510.91,319.5,509.54,317.72,509.74,316.15Z" transform="translate(-356 -18.81)"/><path class="cls-67" d="M591.91,282.63l1.5-1.34a3.52,3.52,0,0,1,.66,1.28l13.11,92.87c.16.54,0,.88-.25,1l-.73.08-1.43,0-6.53-1.86Z" transform="translate(-356 -18.81)"/><path class="cls-68" d="M562.84,361.44l-.1-1.49c.6-.13,3.76-3.23,4-3.17L650,393.72c.55.13,2.73-2.31,2.67-2.06l-1.78,3.14-1.19,1.52-4.83,4.77Z" transform="translate(-356 -18.81)"/><path class="cls-69" d="M562.74,360l3.25-3.31a3.87,3.87,0,0,1,1.43.11l84.76,33.92c.55.12.79.39.74.6l-.26.54-.88.92-4.42,3.79Z" transform="translate(-356 -18.81)"/><path class="cls-70" d="M506.77,316.05l6-127.15.12-1.36.75-1.07a1.69,1.69,0,0,1,1.9-.23l178.89,77.15a4.82,4.82,0,0,1,2.78,3.93l-5.89,128.29c.09.77-.79,1.37-1.17,1.41l-1-.06-1.57-.51L509.93,319.93C507.94,319.4,506.57,317.62,506.77,316.05Z" transform="translate(-356 -18.81)"/><path class="cls-71" d="M577.85,294.1a3.18,3.18,0,0,0,2.24.35,5.06,5.06,0,0,0,.87-.32c.35-.18.51-.3.76-.44a4.65,4.65,0,0,1,1.42-.54,3.54,3.54,0,0,1,1.68.11,5.25,5.25,0,0,1,2.36,1.77,4.86,4.86,0,0,1,1.3,1.91,10.27,10.27,0,0,1,.39,2c.15,1.14.09,1.22.22,2a10.73,10.73,0,0,0,.57,2.1,7,7,0,0,0,1.06,1.78,6.67,6.67,0,0,0,1.43,1.41,4.56,4.56,0,0,0,1.94.89,4.22,4.22,0,0,0,1.76-.07,5.65,5.65,0,0,0,2.07-1,6.68,6.68,0,0,0,1.3-1.34,8.88,8.88,0,0,0,1.26-2.35,11.1,11.1,0,0,0,.6-2.81c.15-1.32,0-1.4.1-2.77a16,16,0,0,1,.64-3.3,8.72,8.72,0,0,1,1.19-2.74,6.19,6.19,0,0,1,1.44-1.43,5.46,5.46,0,0,1,1.42-.86,4.61,4.61,0,0,1,1.68-.29,8.84,8.84,0,0,1,1.69.32,12.51,12.51,0,0,0,1.92.44,4.7,4.7,0,0,0,2-.35,6.32,6.32,0,0,0,2.41-1.44,9,9,0,0,0,1.6-2.1,12.19,12.19,0,0,0,1-2.21,14.49,14.49,0,0,0,.74-6.07,12.7,12.7,0,0,0-.72-3.1,10.41,10.41,0,0,0-1.13-2.26,8,8,0,0,0-1.71-1.81,5.92,5.92,0,0,0-2.06-1.14,5.44,5.44,0,0,0-2.21-.14,6.14,6.14,0,0,0-2.06.69,8.34,8.34,0,0,0-2.45,2.16,9.44,9.44,0,0,0-1.57,2.71,12.33,12.33,0,0,0-.77,3.56c0,.77,0,.76,0,3.16,0,1.42,0,2.13,0,2.5a10.21,10.21,0,0,1-1.15,3.79,8.17,8.17,0,0,1-1.22,1.7,6,6,0,0,1-2,1.57,5.43,5.43,0,0,1-2.75.23c-.77-.05-.83-.14-1.51-.15a5.67,5.67,0,0,0-2.06.26,16.38,16.38,0,0,0-2.19,1.26,5.78,5.78,0,0,1-1.65.82,3.48,3.48,0,0,1-1.35.12,4.09,4.09,0,0,1-2-.85,5.58,5.58,0,0,1-1.16-1.16,8.15,8.15,0,0,1-1.21-2.39c-.42-1.27-.22-1.44-.62-2.48a5.81,5.81,0,0,0-1.34-2.2,3.53,3.53,0,0,0-2.33-1.06,3.6,3.6,0,0,0-2.13.71,4.94,4.94,0,0,0-1.78,2.16,7.73,7.73,0,0,0-.61,3.12,8.4,8.4,0,0,0,.43,2.76,5.9,5.9,0,0,0,1,1.84A4.64,4.64,0,0,0,577.85,294.1Z" transform="translate(-356 -18.81)"/><path class="cls-28" d="M757.91,160.35c2.82,2.83-8.48,78.28-8.48,78.28l-30.24,22.6c-4.8-10.74.29-31.93,2.55-45.49,4.52-26.28,15.82-57.93,15.82-57.93S755.08,157.53,757.91,160.35Z" transform="translate(-356 -18.81)"/><path class="cls-29" d="M756.1,158.91c1.6,2.83-6.18,78.55-6.18,78.55l-21.61,17c3.33-12.78,4.63-26.35,5.91-39.9,2.56-26.27,11.87-57.9,11.87-57.9S754.49,156.09,756.1,158.91Z" transform="translate(-356 -18.81)"/><path class="cls-19" d="M721.64,258.07l-3.33-8.33V236.15c-1.33-.44-1.85,6.55-2.22,8.58l-1.12,17,6.67,7.47,20.56-5L756.65,252l-2.22-21.36c-3-.19-6.89,2.58-3.34,3s1.49,4.26,0,6.11l-15,16.12Z" transform="translate(-356 -18.81)"/><path class="cls-20" d="M720.53,255.05l-3.33-8.34.55-10.56c-1.33-.44-2.4,3.52-2.78,5.56v20l5.56,4.45,20.56-5,14.45-12.23-1.11-18.33c-3-.19-8-.45-4.45,0s1.48,4.26,0,6.11l-15,16.11Z" transform="translate(-356 -18.81)"/><path class="cls-72" d="M783.57,315.61l-.13,9.89s-.81,5.05-.93,6.36-.13,7.65-.13,7.65.81,2.44.51,3.23-.81,7.81-.81,8.27-1.45,15.1-1.45,15.1-.81,10.1-.94,10.73-.26,2.76-.26,2.76l.69,3.59,42.1,3.59,8.79-6,.69-18.22.38-2.14.25-25.19-.51-24.31-.38,2.6-.68-1.15-2,.84-2.52.62-3.45-.62-5.08.46-11.05-1.14s-4.26,1.14-4.78,1.14-4.56.37-4.56.37l-2.82-.52s-3.2-.31-3.58-.31a21.32,21.32,0,0,0-2.81,1.14l-4.27.62Z" transform="translate(-356 -18.81)"/><path class="cls-1" d="M831.21,310.3l0-1.35L829,310.82l-1.2-1.4-2.26,1.45-1.41-1.09L821.65,311l-.72-1.2-1.84,1-1.53-1-1.88,1.41-.56-1.61-1.28,1.3c.52,1.09,1.11,2.08,1.67,3.12.25.42-.3.94-.56.57a2.31,2.31,0,0,0-.47-.47l1.11,2.24,2.73-1.77,1.37,2.24,3-2.76a25.63,25.63,0,0,0,1.49,2.29c.39.42,2.35-1.61,2.35-1.61l.68,1.82,1.37-3,.76.84.13-1.15.6,1,.77-2.08.59,1.19.3-2.86Z" transform="translate(-356 -18.81)"/><path class="cls-1" d="M826.82,316.17l-.55-1.11-1.67,34.45-2.78,17.23.56,20,8.33-5.55.56-10,1.11-17.78-.56-42.23-.55,2.22-.56-1.11-.56,2.23-.82-1.12.27,1.12-1.11-1.12Z" transform="translate(-356 -18.81)"/><path class="cls-73" d="M797.52,372.93,821.84,368l.34,10Z" transform="translate(-356 -18.81)"/><path class="cls-73" d="M779.78,379.13l30.76,1.14-29.87,3.07Z" transform="translate(-356 -18.81)"/><path class="cls-73" d="M812.16,352.52s10.92-1.82,12.2-3.38c.21-.26.68-9.27.68-9.27S818.94,348.05,812.16,352.52Z" transform="translate(-356 -18.81)"/><path class="cls-73" d="M782.42,333.83l.38,8.91,4.91,18,3.93-25.2Z" transform="translate(-356 -18.81)"/><path class="cls-73" d="M808.74,332.53a16.17,16.17,0,0,0,8.41,5.47s-3-2.24-1.84-3,4.7-2.24,4.7-2.24S812.75,333.94,808.74,332.53Z" transform="translate(-356 -18.81)"/><path class="cls-74" d="M822.18,366.32l4.61-1.67-4,22.08Z" transform="translate(-356 -18.81)"/><path class="cls-74" d="M825.42,355.91s2.31,4.94,6.19,6.61l.51-1,.21-6.35Z" transform="translate(-356 -18.81)"/><path class="cls-74" d="M832.33,337.22l-4.94,8.43,4.82-2.13Z" transform="translate(-356 -18.81)"/><path class="cls-1" d="M812.45,314.36c-.72.52-1.36,1.15-2.09,1.62a.29.29,0,0,1-.42-.11,1.77,1.77,0,0,1-.22-.52c0-.05,0-.05,0-.1v-.05c0-.06,0-.06,0-.11a.39.39,0,0,1-.22-.26c-.16-.52-.34-1-.46-1.56v0c-.05-.11-.09-.21-.13-.32l0,0c-.13-.36-.26-.78-.39-1.2,0,0,0-.1-.08-.15-.17-.57-.26-1.15-.43-1.72v-.15c0-.06,0-.11,0-.16l-2.65,1.67-.81-1.36-1.71,1.46-1-1.2-1.45,1-1.15-1.45-2.39,1.51-1-.79-2,1.46a6.51,6.51,0,0,0-.51-.88c-.08-.06-2.34,1.71-2.34,1.71l-1.33-.2-1.23.88-.39-.83-2.34,2.24-1.71.2,1.36,1.31,2.86-1.51,1.33,1.92,3.11-2.08.51.16,1.58,1.66.68.58,2.9-2.55,3.12,2.34,4-3.49,4.05,3.12.64.37,3.88-2.81A1.71,1.71,0,0,0,812.45,314.36Z" transform="translate(-356 -18.81)"/><path class="cls-1" d="M822.51,315c-.73.52-1.37,1.15-2.09,1.62a.3.3,0,0,1-.43-.11,1.77,1.77,0,0,1-.21-.52c0-.05,0-.05,0-.1v0c0-.06,0-.06,0-.11a.38.38,0,0,1-.21-.26c-.17-.52-.34-1-.47-1.56v-.05c0-.11-.09-.21-.13-.31l0-.06c-.13-.36-.26-.78-.39-1.19,0-.06,0-.11-.08-.16-.17-.57-.26-1.14-.43-1.72v-.15c0-.06,0-.11,0-.16l-2.64,1.67-.81-1.36-1.71,1.46-1-1.2-1.45,1-1.15-1.45-2.39,1.51-1-.78-2,1.45a7.79,7.79,0,0,0-.51-.88,27.76,27.76,0,0,0-2.35,1.71l-1.32-.2-1.24.88-.39-.83-2.34,2.24-1.71.21,1.37,1.3,2.86-1.51,1.32,1.92,3.11-2.08.51.16,1.58,1.66.69.58,2.9-2.55,3.11,2.34,4-3.49,4,3.12.64.37,3.89-2.81A1.7,1.7,0,0,0,822.51,315Z" transform="translate(-356 -18.81)"/><path class="cls-75" d="M668,24.9l13.1-.9L680,31.9l13.5-4.3-6.4,20.1,16.7-6.1-7.3,22.7-1.3-.3L701,44.7l-18.3,6.9,8.2-21.3-13.1,3.6.8-6.6L665,30.9Z" transform="translate(-356 -18.81)"/><path class="cls-75" d="M739.18,18.81l6,4.63-5.65,4.92,8.39,2.48L732,41.92l10.89,2.54L725,56.94l-.34-.72,15.1-10.78-12.08-2.63,17.4-11.18-7.77-2.79L742,24.68l-8-3Z" transform="translate(-356 -18.81)"/></svg>