<svg id="Слой_1" data-name="Слой 1" xmlns="http://www.w3.org/2000/svg" xmlns:xlink="http://www.w3.org/1999/xlink" viewBox="0 0 573 635.04"><defs><style>.cls-1{fill:#716f6d;}.cls-1,.cls-40{opacity:0.3;}.cls-1,.cls-2,.cls-35,.cls-38,.cls-40,.cls-41,.cls-43,.cls-45,.cls-54,.cls-6,.cls-62,.cls-63,.cls-64,.cls-68,.cls-74{isolation:isolate;}.cls-2,.cls-43{fill:#000028;}.cls-2,.cls-38,.cls-45,.cls-62,.cls-63,.cls-64,.cls-68,.cls-74{opacity:0.4;}.cls-3{fill:url(#Безымянный_градиент_2);}.cls-4{fill:url(#Безымянный_градиент_39);}.cls-5{fill:url(#Безымянный_градиент_39-2);}.cls-38,.cls-6{fill:#36599a;}.cls-6{opacity:0.6;}.cls-7{fill:url(#Безымянный_градиент_39-3);}.cls-8{fill:#f0f6ff;}.cls-9{fill:#fcd1c5;}.cls-10{fill:url(#Безымянный_градиент_39-4);}.cls-11{fill:#093d89;}.cls-12{fill:#aa8383;}.cls-13{fill:#c4ccd6;}.cls-14{fill:#e5e5e5;}.cls-15{fill:#e2b1a6;}.cls-16{fill:#936d6d;}.cls-17{fill:#333;}.cls-18{fill:url(#Безымянный_градиент_7);}.cls-19{fill:#0e2660;}.cls-20{fill:url(#Безымянный_градиент_7-2);}.cls-21{fill:url(#Безымянный_градиент_39-5);}.cls-22{fill:url(#Безымянный_градиент_39-6);}.cls-23{fill:#515151;}.cls-24{fill:#58a0fa;}.cls-25,.cls-41{fill:#2d2d2d;}.cls-26{fill:#426ab3;}.cls-27{fill:url(#Безымянный_градиент_39-7);}.cls-28{fill:url(#Безымянный_градиент_39-8);}.cls-29{fill:url(#Безымянный_градиент_39-9);}.cls-30{fill:#160a5b;}.cls-31{fill:url(#Безымянный_градиент_39-10);}.cls-32{fill:#263649;}.cls-33{fill:#334659;}.cls-34{fill:#436db8;}.cls-35,.cls-43,.cls-54{opacity:0.5;}.cls-35{fill:url(#Безымянный_градиент_14);}.cls-36{fill:#bdbec5;}.cls-37{fill:#d6d6d6;}.cls-39{fill:url(#Безымянный_градиент_39-11);}.cls-40{fill:#180d5b;}.cls-41{opacity:0.63;}.cls-42{fill:url(#Безымянный_градиент_39-12);}.cls-44{fill:url(#Безымянный_градиент_17);}.cls-45,.cls-52{fill:#aba7a1;}.cls-46{fill:#e9e4db;}.cls-47{fill:url(#Безымянный_градиент_18);}.cls-48{fill:url(#Безымянный_градиент_19);}.cls-49{fill:url(#Безымянный_градиент_39-13);}.cls-50{fill:url(#Безымянный_градиент_21);}.cls-51,.cls-54{fill:#fff;}.cls-53{fill:url(#Безымянный_градиент_39-14);}.cls-55{fill:url(#Безымянный_градиент_39-15);}.cls-56{fill:url(#Безымянный_градиент_39-16);}.cls-57{fill:url(#Безымянный_градиент_39-17);}.cls-58{fill:url(#Безымянный_градиент_39-18);}.cls-59{fill:url(#Безымянный_градиент_39-19);}.cls-60{fill:#1e262d;}.cls-61{fill:url(#Безымянный_градиент_28);}.cls-62{fill:url(#Безымянный_градиент_38);}.cls-63{fill:url(#Безымянный_градиент_38-2);}.cls-64,.cls-66{fill:url(#Безымянный_градиент_38-3);}.cls-65{fill:url(#Безымянный_градиент_38-4);}.cls-67{fill:url(#Безымянный_градиент_38-6);}.cls-68{fill:url(#Безымянный_градиент_38-7);}.cls-69{fill:url(#Безымянный_градиент_39-20);}.cls-70{fill:url(#Безымянный_градиент_38-8);}.cls-71{fill:url(#Безымянный_градиент_38-9);}.cls-72{fill:url(#Безымянный_градиент_39-21);}.cls-73,.cls-74{fill-opacity:0.2;}.cls-75{fill:#f0f1f1;}.cls-76{fill:url(#Безымянный_градиент_40);}.cls-77{fill:#bed9ed;}.cls-78{fill:#f47920;}.cls-79{fill:#4685ff;}</style><linearGradient id="Безымянный_градиент_2" x1="649.99" y1="302.03" x2="602.02" y2="337.09" gradientTransform="matrix(1, 0, 0, -1, 0, 770)" gradientUnits="userSpaceOnUse"><stop offset="0" stop-color="#2d0979"/><stop offset="1" stop-color="#5b04f7"/></linearGradient><linearGradient id="Безымянный_градиент_39" x1="739.93" y1="244" x2="786.01" y2="256.45" gradientTransform="matrix(1, 0, 0, -1, 0, 770)" gradientUnits="userSpaceOnUse"><stop offset="0" stop-color="#4b79ce"/><stop offset="0.41" stop-color="#426ab3"/><stop offset="1" stop-color="#2b4a81"/></linearGradient><linearGradient id="Безымянный_градиент_39-2" x1="657.44" y1="345.79" x2="834.85" y2="395.77" xlink:href="#Безымянный_градиент_39"/><linearGradient id="Безымянный_градиент_39-3" x1="641.58" y1="492.23" x2="866.36" y2="566.6" xlink:href="#Безымянный_градиент_39"/><linearGradient id="Безымянный_градиент_39-4" x1="622.9" y1="532.98" x2="745.22" y2="567.41" xlink:href="#Безымянный_градиент_39"/><linearGradient id="Безымянный_градиент_7" x1="737.07" y1="233.33" x2="574.87" y2="193.76" gradientTransform="matrix(1, 0, 0, -1, 0, 770)" gradientUnits="userSpaceOnUse"><stop offset="0" stop-color="#5761d7"/><stop offset="0.18" stop-color="#5c66d9"/><stop offset="0.39" stop-color="#6a73df"/><stop offset="0.61" stop-color="#8289e8"/><stop offset="0.85" stop-color="#a3a7f5"/><stop offset="1" stop-color="#bcbeff"/></linearGradient><linearGradient id="Безымянный_градиент_7-2" x1="718.01" y1="251.66" x2="676.03" y2="292.22" xlink:href="#Безымянный_градиент_7"/><linearGradient id="Безымянный_градиент_39-5" x1="675.2" y1="156.84" x2="874.94" y2="340.83" xlink:href="#Безымянный_градиент_39"/><linearGradient id="Безымянный_градиент_39-6" x1="639.46" y1="382.42" x2="715.05" y2="452" xlink:href="#Безымянный_градиент_39"/><linearGradient id="Безымянный_градиент_39-7" x1="613.74" y1="200.19" x2="700.2" y2="255.56" xlink:href="#Безымянный_градиент_39"/><linearGradient id="Безымянный_градиент_39-8" x1="687.63" y1="168.15" x2="767.13" y2="200.3" xlink:href="#Безымянный_градиент_39"/><linearGradient id="Безымянный_градиент_39-9" x1="614.67" y1="228.31" x2="852.16" y2="366.08" xlink:href="#Безымянный_градиент_39"/><linearGradient id="Безымянный_градиент_39-10" x1="602.82" y1="331.54" x2="919.91" y2="522.88" xlink:href="#Безымянный_градиент_39"/><linearGradient id="Безымянный_градиент_14" x1="394" y1="318.49" x2="820.95" y2="318.49" gradientTransform="matrix(1, 0, 0, -1, 0, 770)" gradientUnits="userSpaceOnUse"><stop offset="0" stop-color="#42e8e0"/><stop offset="0.15" stop-color="#43e3e0"/><stop offset="0.33" stop-color="#45d5df"/><stop offset="0.52" stop-color="#49bddd"/><stop offset="0.72" stop-color="#4e9cdb"/><stop offset="0.93" stop-color="#5472d8"/><stop offset="1" stop-color="#5761d7"/></linearGradient><linearGradient id="Безымянный_градиент_39-11" x1="731.95" y1="367.16" x2="879.05" y2="426.71" xlink:href="#Безымянный_градиент_39"/><linearGradient id="Безымянный_градиент_39-12" x1="573.21" y1="416.11" x2="738.06" y2="504.84" xlink:href="#Безымянный_градиент_39"/><radialGradient id="Безымянный_градиент_17" cx="3.77" cy="768.84" r="1" gradientTransform="matrix(108.82, 0, 0, -108.86, 43.27, 84065.02)" gradientUnits="userSpaceOnUse"><stop offset="0" stop-color="#ccc7bf"/><stop offset="0.15" stop-color="#e9e4db"/><stop offset="0.41" stop-color="#ccc7bf"/><stop offset="0.93" stop-color="#ccc7bf"/></radialGradient><linearGradient id="Безымянный_градиент_18" x1="458.67" y1="413.71" x2="490.39" y2="413.71" gradientTransform="matrix(1, 0, 0, -1, 0, 770)" gradientUnits="userSpaceOnUse"><stop offset="0" stop-color="#e9e4db"/><stop offset="1" stop-color="#ccc7bf"/></linearGradient><linearGradient id="Безымянный_градиент_19" x1="457.93" y1="413.72" x2="489.65" y2="413.72" gradientTransform="matrix(1, 0, 0, -1, 0, 770)" gradientUnits="userSpaceOnUse"><stop offset="0" stop-color="#fff"/><stop offset="1" stop-color="#ccc7bf"/></linearGradient><linearGradient id="Безымянный_градиент_39-13" x1="471.3" y1="408.69" x2="486.03" y2="433.62" xlink:href="#Безымянный_градиент_39"/><radialGradient id="Безымянный_градиент_21" cx="5.23" cy="768.76" r="1" gradientTransform="matrix(71.19, 0, 0, -71.21, 77.96, 55090.1)" gradientUnits="userSpaceOnUse"><stop offset="0" stop-color="#e1dcd4"/><stop offset="0.25" stop-color="#fff"/><stop offset="0.74" stop-color="#ccc7bf"/></radialGradient><linearGradient id="Безымянный_градиент_39-14" x1="474.4" y1="404.35" x2="474.92" y2="406.26" xlink:href="#Безымянный_градиент_39"/><linearGradient id="Безымянный_градиент_39-15" x1="882.99" y1="109.38" x2="957.19" y2="146.73" xlink:href="#Безымянный_градиент_39"/><linearGradient id="Безымянный_градиент_39-16" x1="835.27" y1="147.41" x2="903.14" y2="211.59" xlink:href="#Безымянный_градиент_39"/><linearGradient id="Безымянный_градиент_39-17" x1="807.97" y1="433.59" x2="885.48" y2="443.32" xlink:href="#Безымянный_градиент_39"/><linearGradient id="Безымянный_градиент_39-18" x1="824.81" y1="394.17" x2="1046.58" y2="459.68" xlink:href="#Безымянный_градиент_39"/><linearGradient id="Безымянный_градиент_39-19" x1="841.95" y1="403.22" x2="1008.26" y2="508.99" xlink:href="#Безымянный_градиент_39"/><linearGradient id="Безымянный_градиент_28" x1="735.35" y1="305.37" x2="818.53" y2="298.61" gradientTransform="matrix(1, 0, 0, -1, 0, 770)" gradientUnits="userSpaceOnUse"><stop offset="0" stop-color="#ded9d0"/><stop offset="0.9" stop-color="#965900" stop-opacity="0.7"/></linearGradient><linearGradient id="Безымянный_градиент_38" x1="735.36" y1="305.5" x2="818.54" y2="298.74" gradientTransform="matrix(1, 0, 0, -1, 0, 770)" gradientUnits="userSpaceOnUse"><stop offset="0" stop-color="#e4dfd7"/><stop offset="0.9" stop-color="#c4c0b8"/></linearGradient><linearGradient id="Безымянный_градиент_38-2" x1="735.91" y1="331.24" x2="816.83" y2="316.24" xlink:href="#Безымянный_градиент_38"/><linearGradient id="Безымянный_градиент_38-3" x1="739.05" y1="334.4" x2="808.77" y2="321.46" xlink:href="#Безымянный_градиент_38"/><linearGradient id="Безымянный_градиент_38-4" x1="734.37" y1="332.67" x2="820.84" y2="318.81" xlink:href="#Безымянный_градиент_38"/><linearGradient id="Безымянный_градиент_38-6" x1="738.31" y1="334.41" x2="808.03" y2="321.48" xlink:href="#Безымянный_градиент_38"/><linearGradient id="Безымянный_градиент_38-7" x1="739.34" y1="335.19" x2="803.06" y2="322.32" xlink:href="#Безымянный_градиент_38"/><linearGradient id="Безымянный_градиент_39-20" x1="755.34" y1="325.76" x2="770.06" y2="350.69" xlink:href="#Безымянный_градиент_39"/><linearGradient id="Безымянный_градиент_38-8" x1="734.94" y1="335.17" x2="819.36" y2="319.51" xlink:href="#Безымянный_градиент_38"/><linearGradient id="Безымянный_градиент_38-9" x1="756.4" y1="322.99" x2="764.14" y2="319.12" xlink:href="#Безымянный_градиент_38"/><linearGradient id="Безымянный_градиент_39-21" x1="758.44" y1="321.42" x2="758.95" y2="323.33" xlink:href="#Безымянный_градиент_39"/><linearGradient id="Безымянный_градиент_40" x1="550.89" y1="376.46" x2="624.21" y2="305.34" gradientTransform="matrix(1, 0, 0, -1, 0, 770)" gradientUnits="userSpaceOnUse"><stop offset="0" stop-color="#f47920"/><stop offset="0.9" stop-color="#f7bb62" stop-opacity="0.7"/></linearGradient></defs><title>page-about</title><path class="cls-1" d="M682,702c136.91,0,247.9-64.1,247.9-143.17S818.93,415.7,682,415.7,434.13,479.8,434.13,558.87,545.11,702,682,702Z" transform="translate(-394 -67)"/><path class="cls-2" d="M719.15,569.17c51.71,0,93.62-24.21,93.62-54.06s-41.91-54.06-93.62-54.06-93.61,24.2-93.61,54.06S667.45,569.17,719.15,569.17Z" transform="translate(-394 -67)"/><path class="cls-3" d="M688,475.42s-2,2.12-4.15,4.64-8.06,6-10.56,7.53S659.4,497.83,657,506.38s5.79,9.68,14.16,8.18,16.18-9.2,18.45-12,10.19-9.12,20.46-14.43,4-12.46,4-12.46Z" transform="translate(-394 -67)"/><path class="cls-4" d="M765,494a31.53,31.53,0,0,1,2.17,8.79c.48,4.94,1.17,15.66,1.41,18.78a26.41,26.41,0,0,1-5.16,18.16c-5.51,7.33-8.37,10.25-15.7,7.35s-7.17-15.2-5.87-21.52a179,179,0,0,0,2.37-22,22.93,22.93,0,0,1,.58-4.76Z" transform="translate(-394 -67)"/><path class="cls-5" d="M662.74,330.24s1.54,56.43,14.69,86.38a217.37,217.37,0,0,1,10.65,57.76s-2.17,5.41.91,9.79,22.38,8.41,25.58-6,2-41.43-1.53-52.68,1.25-42.29,1.25-42.29,5.27,3.37,12.19,25.68,12,30.79,14.38,36.95c2,5.15,3.85,32.44,3.53,52a9.92,9.92,0,0,0,12.27,9.84c3.06-.77,5.88-2.18,7.42-4.72,4.51-7.47,6-46.13,4.88-58.45s-6.3-51.81-5.59-64,3.26-22.14.46-34.34-85.27-39.33-85.27-39.33Z" transform="translate(-394 -67)"/><path class="cls-6" d="M763.37,380.45c.71-12.22,3.26-22.15.46-34.34-1.05-4.58-13.37-11.29-28.31-17.85-25.24-2.31-57.26-5-59.45-4.64-2,.3-7.21,2.29-11.55,4l-1.76,2.61s.1,3.43.43,9c5.89,1.76,17.21-.06,17.21-.06,1.6,3.95,11.43,18,23.66,24.11s48,4,50.09,6.3,2.45,33.21,2.23,37.12,3.38,28.65,6.7,50.53c3.28,21.52-1.7,47.66-1.86,48.51A8.88,8.88,0,0,0,764.1,503c4.51-7.47,6-46.13,4.88-58.45S762.66,392.67,763.37,380.45Z" transform="translate(-394 -67)"/><path class="cls-7" d="M690.35,145.68s-18.29,4.17-24.45,5.61a3.18,3.18,0,0,0-2.23,1.93c-1.78,4.49-6.24,18.48-2.87,38.9,4.13,25.08,2.81,42,2.81,42l-8.47,44.07s-10.63,42-9.72,43.12,24.51,19.1,31.86,16.57,5-6.71,5-6.71,6,30.42,32.38,30.13,48-.2,52.5-10.9-1.23-55.62-5.89-73.39-15.74-53.24-15.74-53.24l38.71-42.86-33.08-25.26s-7.9-14.69-11.16-16.56-4.94-.28-4.94-.28Z" transform="translate(-394 -67)"/><path class="cls-8" d="M739.29,138.71s6.76,8.19-3,19.23c-6,6.79-16.29,21.45-25.06,36.67-5.49,9.5-10.55,14.57-13.41,22.73,0,0-.4-9.7-.78-24.67-.37-14.15-.55-28.84.08-32.52C698.45,152.49,731.81,135,739.29,138.71Z" transform="translate(-394 -67)"/><path class="cls-9" d="M714,163.31s-3.47,2.14-4.66,2-5-3.91-5-3.91-9.6-.18-10.64-4.27-1.74-8.25-2.71-10.4-5.11-12.4-5.15-16.55.12-11.59-1.68-15.54S679.94,71.28,718,72.39,744.17,113,744.17,113s2.77,1.17,1.09,6.26-2.06,5.61-2.92,8.12-1.27,4.13-3.68,6.18l-.63,4.68a18.82,18.82,0,0,1-2.92,14.1C730.37,159.34,714,163.31,714,163.31Z" transform="translate(-394 -67)"/><path class="cls-10" d="M664.87,151.76s-4,.61-17.2,33.69c-7.33,18.48-18.67,37.61-21.06,51.32s-1.06,28.41,1.64,29.44,49.86,18.69,64.65,24.28a1.41,1.41,0,0,0,1.87-1.07l4.07-22.84-29.33-11.33s-5.59-6.82-10.84-9.38c0,0,5.87-10.84,5.51-13.8s.53-33.57-2.92-46S664.87,151.76,664.87,151.76Z" transform="translate(-394 -67)"/><path class="cls-9" d="M682,239.23a55.81,55.81,0,0,0-5-3.1c-1-.39-6.4-2.23-7.43-2.7-.77-.34-3.91-.08-5.49.08a1.7,1.7,0,0,0-1.34.89c-1.25,2.31-4.72,9.06-4.33,11.63,0,0,9.76,6.18,10.85,8.92l1.56.34S677.37,241.25,682,239.23Z" transform="translate(-394 -67)"/><path class="cls-6" d="M761.26,277c-1.11-4.27-2.61-9.58-4.23-15.17l-59.39,25.47s17.78,21.86,48.94,20.46a41,41,0,0,0,19.3-6.1A237.6,237.6,0,0,0,761.26,277Z" transform="translate(-394 -67)"/><path class="cls-11" d="M784.23,180.89s-15.66,2.15-28.32,22.23S734,246.4,734,246.4l-.45,2.61a10.55,10.55,0,0,1-14.72,7.92c-13.37-6-33.16-15-36.85-17.7a34.13,34.13,0,0,0-15.07,22c-2.57,12.34-1.92,12.36-1.92,12.36s52.74,24.62,73.1,24.37,46.2-67.22,49.06-81.08S793.2,184.8,784.23,180.89Z" transform="translate(-394 -67)"/><path class="cls-9" d="M718.4,256.71s1.82-1.7,4.19-3.7,6.18-10.26,6.83-11,8.61-6.82,12.44-7,1,4.2.1,4.81-4.64,2.47-4.64,2.47-3.85,3.24-4.3,3.7,10.72-.76,12.48.33,1.36,3.93.1,4.72a4.47,4.47,0,0,1-2.21.75,3.88,3.88,0,0,1-2.08,4.92c-3.34,1.56-4.11.69-4.11.69s-.29,5.8-5.82,4.66Z" transform="translate(-394 -67)"/><path class="cls-12" d="M683.3,94.48s-5,15.8,8.1,11.3,24.87-12,29-9.15c3.12,2.18,3,8.87,2.73,11.93a4.44,4.44,0,0,0,.79,2.94l3.87,5.63a4.25,4.25,0,0,1,.75,2.15l.28,3.91a2,2,0,0,0,1.85,1.82l.89.06a2,2,0,0,0,2-1.62l1-5.75s3.07-7.74,9.58-4.7c0,0,4.35-5.84,2.89-18.34s-7-25.47-31.53-27.56S683.3,94.48,683.3,94.48Z" transform="translate(-394 -67)"/><path class="cls-13" d="M720.75,177.21l-3.66-2.84a19.74,19.74,0,0,0-4.72,5.81c-1.32,3,0,12.48,0,12.48l-1.12,1.93-1.37-2.51-1.16-11.23s1.26-8.31,1.38-8.51,7.07.73,7.07.73A14.21,14.21,0,0,1,720.75,177.21Z" transform="translate(-394 -67)"/><path class="cls-13" d="M703.13,166s-3.91.26-5.67,1.72c0,0,4.11.21,4.76.29S703.13,166,703.13,166Z" transform="translate(-394 -67)"/><path class="cls-14" d="M717.17,173.07l-6.59-6.14s-10.31-2.2-9.46.69.19,9.42.83,12a2.52,2.52,0,0,0,.15.34,31.94,31.94,0,0,1-2.46,7.11c-1.33,2.23-2.69,4.72-2.69,4.72l.16,31.55s11.61-23.93,14.12-28.77c0,0-.38-11.53-1.48-13.7C711.39,175.73,717.17,173.07,717.17,173.07Z" transform="translate(-394 -67)"/><path class="cls-15" d="M733.39,132.85c-7.62,22-29.07,28.53-29.07,28.53s3.83,3.73,5,3.91,4.66-2,4.66-2,16.36-4,21.1-10.92A18.85,18.85,0,0,0,738,138.3l.63-4.68C735.25,134.7,733.39,132.85,733.39,132.85Z" transform="translate(-394 -67)"/><path class="cls-6" d="M750.83,158.6s-3,10.38-3.4,10.78-7.56-.44-7.56-.44l3.49,6.6s-36.1,38.72-43.57,59.55c0,0,17.07-26.4,47.13-57.93l-4.25-6.44,7.37,1.44Z" transform="translate(-394 -67)"/><path class="cls-6" d="M691.54,149.43l-1.92,2.19,2.25,2.1-6.67,6s-2,42.35,6.12,70.41c0,0-11.06-25.73-8.55-71.56L690,153.7l-2.37-2.33Z" transform="translate(-394 -67)"/><path class="cls-6" d="M714.29,383.19l.24.2-9.35-9.95c4.31,6.1-.65,34-1.18,40.36s5,19.57,7,35-2.17,37.45-2.17,37.51a11.91,11.91,0,0,0,5.69-8.13c3.18-14.42,2-41.43-1.53-52.68S714.29,383.19,714.29,383.19Z" transform="translate(-394 -67)"/><path class="cls-16" d="M731.55,125.07a2,2,0,0,0,2-1.62l1-5.75s3.07-7.74,9.58-4.7c0,0,4.09-5.55,3-17.35-7.23,10.84-23.25,15.87-23.25,15.87l3.87,5.63a4.25,4.25,0,0,1,.75,2.15l.28,3.91a2,2,0,0,0,1.85,1.82Z" transform="translate(-394 -67)"/><path class="cls-17" d="M734.4,612.14a8.95,8.95,0,1,1-8.95-8.95A9,9,0,0,1,734.4,612.14Z" transform="translate(-394 -67)"/><path class="cls-17" d="M813.62,521.05a9,9,0,1,0-9-9A9,9,0,0,0,813.62,521.05Z" transform="translate(-394 -67)"/><path class="cls-17" d="M841.83,580.47a9,9,0,1,1-9-9A9,9,0,0,1,841.83,580.47Z" transform="translate(-394 -67)"/><path class="cls-17" d="M648.38,563.59a8.95,8.95,0,1,1-9-9A9,9,0,0,1,648.38,563.59Z" transform="translate(-394 -67)"/><path class="cls-17" d="M703.74,503.09a9,9,0,1,1-9-8.95A9,9,0,0,1,703.74,503.09Z" transform="translate(-394 -67)"/><path class="cls-18" d="M738.15,536.26l-98.44,19a11.17,11.17,0,0,0-1.22.18l.09-.65-4.74-1.19v5.59h0a2.35,2.35,0,0,0,.06.65c.6,2.18,4.15,3.68,7.94,3.32l98.44-19Z" transform="translate(-394 -67)"/><path class="cls-19" d="M820.6,502.49l-3,2.53a11.19,11.19,0,0,0-9.22.69l-70.12,30.51,9.82,5.68,70.11-30.54c1.64-.95,2.43-2.17,2.37-3.32l0,0Z" transform="translate(-394 -67)"/><path class="cls-20" d="M701.42,495.68c-1.74-2-5.91-2.76-9.33-1.74a9.59,9.59,0,0,0-1.14.42,4.34,4.34,0,0,0-.6-.79,13.82,13.82,0,0,0-2.07-1.48v5.57l0,0a2.69,2.69,0,0,0,.73,1.71l45.25,41.31L746.65,537Z" transform="translate(-394 -67)"/><path class="cls-19" d="M839.34,571l-1.66.59-.95,2c-.37-.16-.75-.3-1.18-.44l-88.79-36.09-6.3,7.13,88.79,36.09c3.43,1,7.6.22,9.34-1.74a2.73,2.73,0,0,0,.73-1.87l0,0Z" transform="translate(-394 -67)"/><path class="cls-19" d="M734.32,540.7l-14.58,62.49-1.1-.55v5.77l0,0c.2,1.83,2.55,3.41,5.84,3.71,3.78.35,7.33-1.15,7.94-3.32L748,542Z" transform="translate(-394 -67)"/><path class="cls-21" d="M835.55,567.57,753.2,534.09l65-28.3c2.92-1.68,3.23-4.24.71-5.67l-.68-.39c-2.54-1.46-6.93-1.28-9.85.41l-65,28.3-42-38.33c-1.75-2-5.92-2.76-9.34-1.75s-4.78,3.43-3,5.39l42,38.34-91.29,17.58c-3.79.35-6.36,2.4-5.77,4.59s4.15,3.68,7.94,3.32L733.15,540l-14.47,62c-.6,2.19,2,4.23,5.78,4.58s7.33-1.15,7.94-3.32l14.46-62,82.4,33.47c3.42,1,7.59.22,9.33-1.74S839,568.58,835.55,567.57Zm-91.16-33.4-1.54,1.75-3.34-.31-.53-1.92,3-.89Z" transform="translate(-394 -67)"/><path class="cls-17" d="M741.53,539.3a7.19,7.19,0,0,1-7.19-7.19V448.93H748.7v83.18A7.15,7.15,0,0,1,741.53,539.3Z" transform="translate(-394 -67)"/><path class="cls-17" d="M703.35,350.16l0,0c-.16-1.89-1.39-3.65-3.72-5l-1.5-.87c-5.57-3.22-15.32-2.81-21.76.91l-45.39,26.22c-3.42,2-5.2,4.48-5.3,6.89l0,0v7.9h0c0,2.05,1.21,4,3.74,5.47l1.5.88c5.57,3.22,15.31,2.81,21.76-.92L698,365.45c3.3-1.9,5.08-4.31,5.28-6.66l0,0Z" transform="translate(-394 -67)"/><path class="cls-22" d="M630.86,384.85l-1.5-.87c-5.57-3.23-4.88-8.86,1.56-12.57l45.39-26.21c6.44-3.73,16.19-4.12,21.76-.92l1.5.87c5.57,3.23,4.88,8.86-1.56,12.57l-45.4,26.21C646.19,387.66,636.45,388.07,630.86,384.85Z" transform="translate(-394 -67)"/><path class="cls-23" d="M727,421.44l-95.08,54.85c-4.72,2.71-8.52-.16-8.52-6.44s3.83-13.58,8.52-16.32L740.8,390.68V395C740.8,405.17,734.61,417,727,421.44Z" transform="translate(-394 -67)"/><path class="cls-24" d="M734,187.05c-3.3-1.76-7.55-1.54-12.19,1.14L719,189.83c-10.51,6.08-19,22.37-19,36.39V414.31l25.26-14.59v6l-30.3,24.69L626,476.55l96.74,54.71,55.62-42.81,31.68-27.05,19.73-220.13Z" transform="translate(-394 -67)"/><path class="cls-25" d="M663.11,497.52s-2.58-6.81,2.51-11.89,31.82-16.35,33.76-17.55,11.55-8.28,11.55-8.28l2.93-6.57s-54.3,5.29-55,6.14-25.42,23-24.69,24,17,4.92,17,4.92l3.14,4.32Z" transform="translate(-394 -67)"/><path class="cls-26" d="M818.08,242.65l-2.84,1.64c-10.51,6.08-19,22.37-19,36.39V468.75l-68,39.25c-4.71,2.71-8.52,10-8.52,16.31s3.83,9.18,8.52,6.44l95.08-54.85c7.64-4.41,13.83-16.25,13.83-26.44V257.08C837.12,243,828.59,236.57,818.08,242.65Z" transform="translate(-394 -67)"/><path class="cls-27" d="M637.38,538.27s-14,9-18.73,14.28-14.12,16.15-10.25,21.32,16.89,8.06,30.91-4.84,10-13.68,22-20.08S676.47,535.59,675,531.6s-7.34-11-10.56-9.5S637.38,538.27,637.38,538.27Z" transform="translate(-394 -67)"/><path class="cls-28" d="M705.5,576s-5,11.06-7.62,14.75-15.15,24.86-8.58,29.72,19,3.53,28.82-7.15,12-23.69,14.44-27.94,8.47-15.66,5.59-22.23-3.5-7.7-3.5-7.7Z" transform="translate(-394 -67)"/><path class="cls-29" d="M654.64,418.4S613,459.49,606.19,480.12c0,0-2.88,11.14,5.16,19.9s25.14,37.32,25.14,37.32,12.76,15.44,29.21,3.1c0,0,7.45-11.9,2.87-19.82s-16.75-33.19-16.75-33.19,26.7-18.38,39.86-23a184.39,184.39,0,0,0,20.2-8.23,62.94,62.94,0,0,1-12,24.56c-9.65,12.11-25.77,31.62-20.4,45.18S687.94,543.7,693,551.5s9.82,24.09,14.14,25.79,24.2,3.65,27.42-9.32-6.78-38.15-11.3-46.68c0,0,53.84-62.12,59-68.95S671.31,407.86,654.64,418.4Z" transform="translate(-394 -67)"/><path class="cls-30" d="M668.58,520.6c-4.58-7.9-16.75-33.19-16.75-33.19s26.69-18.38,39.86-23a181.17,181.17,0,0,0,20.19-8.22c2.53-3.49,10.7-16.86,14.36-27.44-30.36-8.89-63.32-15.6-71.62-10.35,2.94,7.27,18.41,7.21,18.41,7.21s5.77,14.08,9.62,15.87,13-.16,13-.16-1.48,2.31-8,7.05-47.5,38.29-47.5,38.29,2.33,1.34,13.25,21.05S665.7,540.4,665.7,540.4,673.15,528.5,668.58,520.6Z" transform="translate(-394 -67)"/><path class="cls-6" d="M760.59,440.2c-24.06-2.29-52.1-2.49-45.77,10.13A40.39,40.39,0,0,0,747,472.74c-.14,7.88-33.16,45.91-33.16,45.91l7.7,15c7.7,15,6.72,42.22,6.72,42.22a12.05,12.05,0,0,0,6.26-7.9c3.22-13-6.78-38.15-11.3-46.68,0,0,53.84-62.12,59-68.95C783.72,450.31,774.61,445.57,760.59,440.2Z" transform="translate(-394 -67)"/><path class="cls-31" d="M612.55,308.89l6.4-5s34.51-19.16,46-25.38c6.22-3.37,12.66-9.39,17.28-14.19A24,24,0,0,1,699.44,257l60.46-.31S767,268,769.32,270.23c1.74,1.64,18.15,15.38,29.92,26.7A50.85,50.85,0,0,1,813,319.75c6.75,23.74,6.64,71.62,7.66,105.84,0,0-4.18,1.62-14.53,3.83s-9,.79-9,.79-15.43,34.73-36.36,38.08S711.6,461.84,706.55,429c0,0-40.79-6.12-51.87-10.66a1.67,1.67,0,0,1-.71-2.55c4.94-6.55,23.33-32,25.08-48.49,2-19.13,1.39-46.89-.13-54.48,0,0-30.76,11.59-40.57,13.65,0,0-37.45,41.18-53.1,52.38,0,0,5.36-8.43-5.41-14.14Z" transform="translate(-394 -67)"/><path class="cls-6" d="M806.08,429.44c1.58-.34,3-.64,4.28-.95l-2.17-4.27-56.75-6-33.16,1.72-11.4,10.84a52.74,52.74,0,0,0,2.69,9.75c.06,0,14.1,2,20.62.62s57,6,57.14,6.06a116.4,116.4,0,0,0,9.7-16.83C797,430.62,797.6,431.27,806.08,429.44Z" transform="translate(-394 -67)"/><path class="cls-9" d="M729.5,409.61a.49.49,0,0,0-.46-.37c-2.74-.06-20.48-.59-27.18-2.89-7.28-2.52-15-2.05-15.38-1.63s-12.5,5.58-13.22,7.66c-.65,1.85-1.81,8.29-.21,10.66a35.25,35.25,0,0,1,2.37,4l1.26.14a35.16,35.16,0,0,0,2.55,4.34,7.57,7.57,0,0,1,1,1.62c.77,1.66,2.11,4.38,2.68,4.44.81.08,4.55.83,5.5.59.77-.21,1.48-2.58,1.16-3.63a.46.46,0,0,1,.34-.61,52.82,52.82,0,0,1,12.89-.28c7.9.73,19-4.44,20.05-4.91a.47.47,0,0,1,.16,0l11.12-1a.51.51,0,0,0,.45-.65Z" transform="translate(-394 -67)"/><path class="cls-8" d="M716.09,292.33s-9.46,34.91.55,70.78c0,0,36.42-68,40.37-79s5.38-18.87,1.7-22.84-36.6,16.5-36.6,16.5Z" transform="translate(-394 -67)"/><path class="cls-13" d="M725.47,347.08s6.95-21.23,5.73-28.1a82.59,82.59,0,0,0-2.93-11.75l6.25-5.78,2.76,5.71s13.77-10.11,14.68-12c0,0-11.1,7.62-14.58,8.75a10.14,10.14,0,0,0-3.83-3.65c-2.19-.93-7.61,6.51-7.61,6.51l-1,12.89-5.44,30.06,1.88,4.46Z" transform="translate(-394 -67)"/><path class="cls-14" d="M733.57,300.27s-6.15-10.88-14.18-7.53c0,0-1.27,13.39-.2,14.63-1.8,2.35-6.28,8.81-7.07,15.94-2.2,20,4.54,39.82,4.54,39.82L722.07,353A190.48,190.48,0,0,1,727,327.59a41.06,41.06,0,0,0,.41-20.83A72,72,0,0,0,733.57,300.27Z" transform="translate(-394 -67)"/><path class="cls-9" d="M699.08,236.65s-1.68,8.49-1.07,10.09,2.75,2.7,2.22,6,1.38,13.21,2.37,16.49c0,0-.73,3.53.27,4.62s2.27,1.06,3.2,2.72,1.23,10.23,4.7,13.09,8,3.46,10.31,2.83a16.68,16.68,0,0,0,4.72-2.41l5.22,2.17s27.08-7.68,26.23-26.72l0-2a22.19,22.19,0,0,0,2.49-4.46c.57-1.76,5-9.68,2.78-13.09,0,0,10.49-41.43-21.88-43.92S703.39,222.27,699.08,236.65Z" transform="translate(-394 -67)"/><path class="cls-15" d="M757.27,265.57v-.23a6,6,0,0,0-3.73-1.13c-3.7.65-2.85-7-2.85-7s-.69,1.4-2.58,11.22-22.3,21.72-22.3,21.72l5.23,2.17S758.12,284.61,757.27,265.57Z" transform="translate(-394 -67)"/><path class="cls-12" d="M699.22,218.68c-3.16,6.73-4.68,14.81,1.94,20.22,0,0,5.57,1.52,16.15-3.4,7.13-3.3,14.26-1.85,18.12-.55a4.28,4.28,0,0,1,2.92,4.22l-.16,5.89a3.7,3.7,0,0,0,2.27,3.53l4.92,2.09,1,5.73a2.76,2.76,0,0,0,3.65,2.13l1.23-.45S752,245.33,762.5,246c0,0,8.52-18.43-.21-35.29S729.62,195,724.52,196.94c-6.73,2.51-5.78,2.15-9.62,4.52A41.17,41.17,0,0,0,699.22,218.68Z" transform="translate(-394 -67)"/><path class="cls-6" d="M785.36,348.68s-4.9,36.15-6.9,46.38l-15.84,8.35,28.13-1.73Z" transform="translate(-394 -67)"/><path class="cls-16" d="M762.52,246a48.23,48.23,0,0,0,3.56-14.79,38.15,38.15,0,0,1-27.73,7.95l-.16,5.89a3.7,3.7,0,0,0,2.27,3.53l4.92,2.09,1,5.73a2.76,2.76,0,0,0,3.65,2.13l1.23-.45S752,245.37,762.52,246Z" transform="translate(-394 -67)"/><path class="cls-6" d="M769.52,277.77s-8.38,28.81-10.12,34.36l-6.75-.71,1.22,9.12-36.34,47.89,40.35-46.31-1.6-8.13,6.12.65Z" transform="translate(-394 -67)"/><path class="cls-32" d="M733.86,434.33s85.21-2.78,87.38-4.32,2.55-23.48,2.35-36.19c-.15-8.91-.05-43.8-7.64-68.26,6,20.73,2.83,94,.12,97.72s-83.77,5.88-83.77,5.88C733.17,432.2,733.86,434.33,733.86,434.33Z" transform="translate(-394 -67)"/><path class="cls-9" d="M566.43,366.15s-.32,2.14-4,4.25-13.19,6.79-14.73,8.13-8.38,7.35-8.56,8.14-2.25,7.6-2.25,8,.67,3.55.67,3.55l-2.11,10s-2.67,3.89.22,5,4.56-1.94,4.6-2.41a48.21,48.21,0,0,0,7.62-4.58c3.22-2.49,16.16-12.9,18.35-12.28s.18,4.38-.87,5-7.92,7.33-5.05,12,4.74-2.63,6.65-4.11,6-7.31,8.5-8,7.09-10.09,7.68-14.29,3.58-6.89,4.66-8.24-2.31-11.77-2.31-11.77l-12.8-4-4.5,2.92Z" transform="translate(-394 -67)"/><path class="cls-33" d="M809.65,311.17c-2.68-4.23-3.91-1.11-7.5,2.4-4.84,4.7-10.93,12-14.07,21.25-5.72,16.8-3.67,58.8-1.75,64.8,0,0-53.35,8.73-57.05,8.59s4.58,26.14,4.58,26.14,85.21-2.78,87.37-4.32,2.56-23.48,2.35-36.19C823.42,382.92,823.62,333.24,809.65,311.17Z" transform="translate(-394 -67)"/><path class="cls-32" d="M733.85,434.33s85.21-2.78,87.38-4.32,2.55-23.48,2.35-36.19c-.14-8.91,0-43.8-7.63-68.26,6,20.73,2.83,94,.12,97.72s-83.78,5.88-83.78,5.88C733.16,432.2,733.85,434.33,733.85,434.33Z" transform="translate(-394 -67)"/><path class="cls-17" d="M833.59,425l0,0c-.16-1.88-1.4-3.64-3.73-5l-1.49-.87c-5.57-3.22-15.32-2.82-21.76.91l-45.39,26.22c-3.42,2-5.2,4.48-5.31,6.89l0,0v7.9h0c0,2.05,1.22,4,3.75,5.47l1.5.87c5.57,3.22,15.31,2.82,21.75-.91l45.39-26.22c3.31-1.9,5.09-4.31,5.29-6.66l0,0Z" transform="translate(-394 -67)"/><path class="cls-34" d="M761.1,459.65l-1.5-.87c-5.57-3.22-4.88-8.85,1.56-12.56L806.55,420c6.44-3.73,16.19-4.11,21.76-.91l1.49.87c5.58,3.22,4.89,8.86-1.56,12.56l-45.39,26.22C776.43,462.47,766.69,462.88,761.1,459.65Z" transform="translate(-394 -67)"/><path class="cls-17" d="M679,683.24a10.06,10.06,0,0,1-5.09-1.34c-3.58-2.06-5.55-6.2-5.55-11.65V547.81h5.31V670.25c0,3.43,1,6,2.9,7s4.59.69,7.55-1l101.92-58.86c7.11-4.11,13.13-14.51,13.13-22.73V472.26h5.31V594.7c0,10.21-6.93,22.22-15.78,27.31L686.8,680.87A15.47,15.47,0,0,1,679,683.24Z" transform="translate(-394 -67)"/><path class="cls-17" d="M418.65,538.31a10.06,10.06,0,0,1-5.09-1.34c-3.58-2.07-5.55-6.2-5.55-11.65V402.88h5.31V525.32c0,3.42,1.05,6,2.9,7s4.57.71,7.55-1L525.69,472.5c7.11-4.11,13.13-14.51,13.13-22.73V327.32h5.31V449.77c0,10.21-6.93,22.2-15.78,27.31L426.43,535.94A15.48,15.48,0,0,1,418.65,538.31Z" transform="translate(-394 -67)"/><path class="cls-17" d="M412,446.64l-2.62,4.62L669.78,599l2.62-4.62Z" transform="translate(-394 -67)"/><path class="cls-35" d="M671.77,574.8,394,414.37l149.16-86.15L821,488.65Z" transform="translate(-394 -67)"/><path class="cls-36" d="M394,401.08v13.29L671.77,574.8,821,488.65V475.36L671.77,561.51Z" transform="translate(-394 -67)"/><path class="cls-37" d="M671.77,561.51,394,401.08l149.16-86.16L821,475.36Z" transform="translate(-394 -67)"/><path class="cls-38" d="M688.06,436.54s10.67,3.8,18.83,2.45,47.42-2.13,47.42-2.13l-6.18-3.57-13.77-9.58L700.25,426l-13.16,4.72Z" transform="translate(-394 -67)"/><path class="cls-9" d="M729.5,409.61a.49.49,0,0,0-.47-.37c-2.73-.06-20.48-.59-27.18-2.89-7.27-2.52-15-2.05-15.37-1.63s-12.5,5.58-13.23,7.66c-.65,1.85-1.8,8.29-.2,10.66a35.25,35.25,0,0,1,2.37,4l1.25.14a34.3,34.3,0,0,0,2.56,4.34,8.47,8.47,0,0,1,1,1.62c.77,1.66,2.11,4.38,2.67,4.44.81.08,4.56.83,5.51.59.77-.21,1.48-2.58,1.16-3.63a.46.46,0,0,1,.34-.61,52.73,52.73,0,0,1,12.88-.28c7.9.73,19-4.44,20.05-4.91a.53.53,0,0,1,.17,0l11.12-1a.51.51,0,0,0,.44-.65Z" transform="translate(-394 -67)"/><path class="cls-39" d="M809.65,311.17c-2.68-4.23-3.91-1.11-7.5,2.4-4.84,4.7-10.93,12-14.07,21.25-5.72,16.8-3.67,58.8-1.75,64.8,0,0-53.35,8.73-57.05,8.59s4.58,26.14,4.58,26.14,85.21-2.78,87.37-4.32,2.56-23.48,2.35-36.19C823.42,382.92,823.62,333.24,809.65,311.17Z" transform="translate(-394 -67)"/><path class="cls-6" d="M733.86,434.33s85.21-2.78,87.37-4.32,2.56-23.48,2.35-36.19c-.14-8.91,0-43.8-7.63-68.26,6,20.73,2.83,94,.12,97.72s-83.77,5.88-83.77,5.88C733.17,432.2,733.86,434.33,733.86,434.33Z" transform="translate(-394 -67)"/><path class="cls-40" d="M581.11,390.68s30.47-23.8,34.82-26.11a30.36,30.36,0,0,0,6.2-4.06l-10.19-5.89-17.24,7.09L573,383.25,539.53,407v5.51s27.59-11.85,30.69-13.88S581.11,390.68,581.11,390.68Z" transform="translate(-394 -67)"/><path class="cls-41" d="M563,412.26s6.48-5.79,10.67-7.74,10.84-7.09,11.67-11S593,380.86,593,380.86l-11.1,6.4-16.08,9.28-26.75,15.52s1.64,1.88,5,.73,9.74-5.21,12.7-5.57,7.86-1.28,7.86-1.28Z" transform="translate(-394 -67)"/><path class="cls-9" d="M566.43,366.14s-.33,2.15-4,4.26-13.19,6.79-14.73,8.12-8.38,7.36-8.57,8.15-2.24,7.6-2.24,8,.66,3.55.66,3.55l-2.1,10s-2.68,3.89.22,5,4.56-1.94,4.6-2.41a49.23,49.23,0,0,0,7.61-4.58c3.22-2.49,16.17-12.9,18.35-12.28s.19,4.38-.87,5-7.92,7.33-5,12,4.74-2.63,6.64-4.11,6-7.31,8.51-8,7.09-10.09,7.68-14.29,3.58-6.89,4.66-8.24-2.31-11.78-2.31-11.78l-12.8-4-4.5,2.92Z" transform="translate(-394 -67)"/><path class="cls-42" d="M682,295.84s-.46-19.09,2.78-33.74a28.42,28.42,0,0,0-2.56,2.25c-4.61,4.8-11.05,10.82-17.27,14.18-11.49,6.23-46,25.39-46,25.39l-6.38,5c-20.24,15.86-42.86,50.41-46.14,57.26,1.58-2.11,5.65-5.6,13.45-1.44,10.75,5.71,5.63,14.32,5.63,14.32,15.65-11.2,52.86-52.56,52.86-52.56,9.2-1.92,36.79-12.24,40.23-13.51A45.09,45.09,0,0,0,682,295.84Z" transform="translate(-394 -67)"/><path class="cls-6" d="M515.85,434.57,627.42,499a4.51,4.51,0,0,0,4.13.16l66.58-38.45c1-.61.93-1.69-.31-2.39L586.26,393.88a4.52,4.52,0,0,0-4.13-.16l-66.58,38.46C514.51,432.81,514.64,433.88,515.85,434.57Z" transform="translate(-394 -67)"/><path class="cls-43" d="M476.21,408.49,511,424.58l17.85-26.7-44.14-8.05Z" transform="translate(-394 -67)"/><path class="cls-44" d="M493,360H456.12l3.43,39.87c0,2.21,1.45,4.44,4.39,6.12,5.85,3.38,15.33,3.38,21.19,0,2.91-1.68,4.39-3.91,4.39-6.12Z" transform="translate(-394 -67)"/><path class="cls-45" d="M493,360H456.12l.57,6.56a14.9,14.9,0,0,0,3.4,3.08c7,4.66,18.64,5.57,26.56,2.21L485.43,401a5.73,5.73,0,0,1-1.31,3.48c-1.2,1.4-3.49,3.06-7.9,4a20.59,20.59,0,0,0,8.91-2.47c2.91-1.68,4.39-3.91,4.39-6.12l2.76-32Z" transform="translate(-394 -67)"/><path class="cls-45" d="M487.56,367.54c-7.19,4.16-18.84,4.16-26,0s-7.19-10.88,0-15,18.84-4.15,26,0S494.73,363.39,487.56,367.54Z" transform="translate(-394 -67)"/><path class="cls-45" d="M485.74,362.76c-6.2,3.57-16.23,3.57-22.43,0s-6.19-9.38,0-12.94,16.23-3.57,22.43,0S491.93,359.18,485.74,362.76Z" transform="translate(-394 -67)"/><path class="cls-46" d="M494,359.54v-.08l-.34-3.57,0,0c-.17-2.69-2-5.37-5.59-7.43-7.48-4.32-19.59-4.32-27.07,0-3.66,2.1-5.53,4.88-5.59,7.64l-.34,3.18c0,.08,0,.16,0,.24v.06c-.2,3,1.7,6.1,5.69,8.41,7.62,4.39,20,4.39,27.61,0C492.36,365.68,494.26,362.58,494,359.54Z" transform="translate(-394 -67)"/><path class="cls-47" d="M485.74,362.76c-6.2,3.57-16.23,3.57-22.43,0s-6.19-9.38,0-12.94,16.23-3.57,22.43,0S491.93,359.18,485.74,362.76Z" transform="translate(-394 -67)"/><path class="cls-48" d="M473.79,365.44c8.75,0,15.86-4.1,15.86-9.16s-7.11-9.16-15.86-9.16-15.86,4.1-15.86,9.16S465,365.44,473.79,365.44Z" transform="translate(-394 -67)"/><path class="cls-45" d="M465.2,351.17c6.19-3.56,16.22-3.56,22.42,0,.08,0,.14.1.22.14a13,13,0,0,0-2.1-1.49c-6.2-3.57-16.23-3.59-22.43,0s-6.18,9.21-.22,12.8C459.12,359.08,459.81,354.29,465.2,351.17Z" transform="translate(-394 -67)"/><path class="cls-49" d="M463.31,351.39c6.2-3.56,16.23-3.56,22.42,0,2.76,1.59,4.28,3.61,4.58,5.68.39-2.59-1.13-5.29-4.58-7.28-6.19-3.56-16.22-3.58-22.42,0-3.44,2-5,4.66-4.58,7.28C459.06,355,460.58,353,463.31,351.39Z" transform="translate(-394 -67)"/><path class="cls-50" d="M488.19,348.56c-7.46-4.4-19.63-4.5-27.17-.24s-7.59,11.28-.14,15.68,19.63,4.5,27.16.24S495.64,353,488.19,348.56Zm-2.45,14.2a20.28,20.28,0,0,1-7.22,2.37l-.28-.95a.92.92,0,0,0-.87-.65h-5.69a.91.91,0,0,0-.87.65l-.29.95a20.7,20.7,0,0,1-7.21-2.37c-6.19-3.56-6.19-9.38,0-12.94s16.23-3.57,22.43,0S491.93,359.17,485.74,362.76Z" transform="translate(-394 -67)"/><path class="cls-51" d="M485.74,349.13c-6.2-3.57-16.23-3.59-22.43,0-3.24,1.86-4.78,4.35-4.63,6.8.14-2.23,1.68-4.43,4.63-6.14,6.2-3.56,16.23-3.56,22.43,0,2.93,1.71,4.49,3.91,4.63,6.14C490.54,353.5,489,351,485.74,349.13Z" transform="translate(-394 -67)"/><path class="cls-51" d="M488,363.57c-7.53,4.28-19.7,4.16-27.16-.24-3.54-2.09-5.38-4.78-5.55-7.48-.14,2.92,1.71,5.9,5.55,8.17,7.46,4.4,19.63,4.5,27.16.24,3.95-2.23,5.86-5.23,5.68-8.21C493.6,358.79,491.69,361.51,488,363.57Z" transform="translate(-394 -67)"/><path class="cls-52" d="M476.24,365.64h-3.41a.42.42,0,0,1-.42-.43v-.06a.42.42,0,0,1,.42-.42h3.41a.42.42,0,0,1,.42.42v.06A.42.42,0,0,1,476.24,365.64Z" transform="translate(-394 -67)"/><path class="cls-53" d="M476.24,364.71h-3.41a.42.42,0,0,0-.42.42v.06s0,.08,0,.13a.42.42,0,0,1,.4-.33h3.41a.41.41,0,0,1,.4.33.32.32,0,0,0,0-.13v-.06A.42.42,0,0,0,476.24,364.71Z" transform="translate(-394 -67)"/><path class="cls-54" d="M475.73,365.33s10.29-3.44,6.12-15.27-12.28-15.44-9-24.9c0,0-5.12,7.66-.34,18s5.83,9.18,5.77,14.14a8.93,8.93,0,0,1-4.82,8h2.29Z" transform="translate(-394 -67)"/><path class="cls-54" d="M476.66,326.8s-1.08-7.07,5.57-14.21c0,0-5.88,13.11-4,19.6A33.41,33.41,0,0,1,476.66,326.8Z" transform="translate(-394 -67)"/><path class="cls-55" d="M931.69,622.17s3,6.18,2.21,10.15-10.5,17.81-13.33,25.47-17.36,19.07-25.5,19.07-15.64-3.39-11.73-12.44,7.19-12.44,10.43-16.6,9.52-16.06,10.45-21S931.69,622.17,931.69,622.17Z" transform="translate(-394 -67)"/><path class="cls-56" d="M891.81,584.91s1.31,8.06.12,10.94-3.75,5.53-11,7.6S867,606.27,855,613.4s-28.35,10.15-33.28,2.33,12.14-19.53,18.4-22.59,16-4.62,21.2-9.32,6.14-3.59,6.14-3.59Z" transform="translate(-394 -67)"/><path class="cls-11" d="M935.52,443.61s-5.92,53.26-4.14,71.93,13.76,53.47,9.83,76.81c-4,23.56-8.59,33.14-8.59,33.14s-16.08,16.44-28.36,1.73c0,0,5.17-9.49,4.46-34-.34-12.48-.61-19.66-.75-23.69a18.2,18.2,0,0,0-2.49-8.57,220.17,220.17,0,0,1-17.3-36.75s2.76,34.54,2.55,50.08a38.25,38.25,0,0,0,.65,7.22,18.28,18.28,0,0,1,.22,6.6c-.85,4-15.17,19.17-26.85,7,0,0-4.52-3-3.55-12.56.63-6.26-1-20.08-2.33-31.2a72,72,0,0,0-7.67-24.56c-3.24-6.2-6.3-18.88-8.23-24.72-3.85-11.63-18.15-67.39-18.39-80.07S840,400.29,840,400.29s35.9,17.54,35.19,19.47,45,21.09,45,21.09Z" transform="translate(-394 -67)"/><path class="cls-6" d="M840,400.29s35.89,17.54,35.19,19.47,45,21.09,45,21.09l15.42,2.76s-5.92,53.26-4.14,71.93,13.76,53.47,9.83,76.81c-4,23.56-8.59,33.14-8.59,33.14a32.31,32.31,0,0,1-6.54,4.91c2.12-6.89,9.07-31.14,8.85-52.34-.27-24.74-11-64.63-11.59-77.48-.3-7-5.55-12.54-12-12.8-10.43-.43-25.72-2.17-36.19-8.09,3.3,13.84,13.08,44.5,13.08,44.5s3,36.93,2.51,51.6a17.58,17.58,0,0,0,.43,4.4,20.63,20.63,0,0,1,.48,7.88c-.3,1.46-2.37,4.36-5.42,6.91-.33-15.18-3.31-53.61-4.4-62.45-1.24-9.86-11.65-49.39-11.65-49.39-5.44-4.28-8.14-14.43-9.19-19.52-4.64-10-5.35-19.45-14-19.61-.71,0-11.44,13.25-18.59,2.8-2.17-11.17-3.71-20.61-3.79-24.8C824.3,409.38,840,400.29,840,400.29Z" transform="translate(-394 -67)"/><path class="cls-15" d="M826.34,423.85l1.94,6.77s3.1.44,7.32-4.36a7,7,0,0,0,.2-9.34l-8,1.76Z" transform="translate(-394 -67)"/><path class="cls-57" d="M854.15,239.88s-2.23-.15-7.27,2.57-11.47,9.84-15.07,26.95-18.76,61.92-19.93,70.2c-1.14,7.92,1.64,61,6.62,83.52a2.91,2.91,0,0,0,3.75,2.21c4.29-1.46,12.15-4.42,16.63-7.86,6.34-4.89,5.2-43.24,5.2-43.24L839.79,325l7-40.31s10-31.81,8.53-33.87S854.15,239.88,854.15,239.88Z" transform="translate(-394 -67)"/><path class="cls-58" d="M964.05,288.89s7,13.31-2.22,31-31.52,54.34-31.52,54.34,7.21,51,6.22,63.46-10.33,27.13-12.7,31.81-21.78,16.49-44.22,5.25-24.28-26.5-26.51-43.14S851.58,416,851.58,416s-10.41,32.84-16.69,26.68c-2.69-2.63-2.88-10.69-2.17-19.2a411.94,411.94,0,0,0,1.28-54c0-.67,0-1.22,0-1.66,0-5.74-1.05-58,.49-72.07s-.61-36.23,6.76-45.35a37.92,37.92,0,0,1,13-10.5l10.43-.5s60.75-5,66,2.75a67,67,0,0,1,7.13,12.77S956.05,274.1,964.05,288.89Z" transform="translate(-394 -67)"/><path class="cls-8" d="M915.91,233.39a8.54,8.54,0,0,1,3.54,4.26c1,2.87,4,10.73,5.65,12.92,0,0-26.87,25.43-36.9,38.48S875,312.9,875,312.9L861,296.55l4.33-4.81L867.7,281l4.11-12.18,3-12,33.34-18.94Z" transform="translate(-394 -67)"/><path class="cls-13" d="M889.25,268s5.41,3.63,7.28,8.67c0,0-5.13-3.65-6.77-4,0,0-3.89,3.77-4.6,5.27s0,15.23,0,15.23L883.3,296l-2.21.24s-.24-9.84-.5-10.35a61.91,61.91,0,0,1-.51-9c.16-.63,7.27-7.35,7.27-7.35l2.49-1.66Z" transform="translate(-394 -67)"/><path class="cls-14" d="M875.16,265s3.46-1.58,5.65-1.1,8.18,3.49,9.09,4.67-.24,2.69-3.62,5.3-3.81,4.24-3.81,4.24,2,11.16.83,17.91c0,0-7.17,12.7-8.67,18.82s-7.9-19.71-7.9-19.71,2.19-8.29,3.22-10.37,5-13.26,3.93-15.2S875.16,265,875.16,265Z" transform="translate(-394 -67)"/><path class="cls-6" d="M935.74,256.55l-4.58,9.54-8.06-.42,1,8.39s-33.18,22.08-45.84,45.14l.79,2.47s14.85-24.58,47-44.88l1.08-.65-1.62-8.1,7.15,1.36Z" transform="translate(-394 -67)"/><path class="cls-9" d="M881,259.1s1.46,4.16,5.75,4.5,27.39-8.63,30.79-22.14c0,0-1.4-6.51-1.54-7.66a6,6,0,0,0,1.94-3.35c.31-2,2.17-6.56,2.74-8s1.74-4.27,1.07-6.32c0,0,6.91-37.73-13.79-44.19s-35.71-.2-42.52,21.17c0,0-1.64,5.78-3,10a14.43,14.43,0,0,0-.12,8.31,14.35,14.35,0,0,1,.68,4.23c-.24,2.64-1.49,8.55-.42,15.91,0,0-1.66,4,1.07,5.49s2.15,13.37,2.15,13.37l7.67,7.86S875.2,260.08,881,259.1Z" transform="translate(-394 -67)"/><path class="cls-12" d="M921.92,218.2s14.81-33.62-9-47.24c-18.71-10.67-41.06-4.61-47.82,19.6,0,0-2.61,5.37,5.77,8.35s19.16,6.3,24,6.18,7.38,2.63,7.46,9.09c0,3.65.48,5.11.87,5.68a3.2,3.2,0,0,1,.48,2l0,1.24a1.93,1.93,0,0,0,1.27,1.86c1.2.37,2.51,0,2.55-.24v0a13.66,13.66,0,0,1,6-9.71C917.16,212.6,921.4,211.41,921.92,218.2Z" transform="translate(-394 -67)"/><path class="cls-6" d="M870,284.76c1-2.07,5-13.26,3.93-15.2s1.26-4.56,1.26-4.56,3.46-1.58,5.65-1.1c.22.07.48.15.79.23a.44.44,0,0,1,0,.12s-2.9,5.15-3.53,6.38-3.32,14.37-4.78,17.31-4.21,13.13-4.21,13.13l-.87-.47c-.85-3.12-1.44-5.49-1.44-5.49S868.94,286.82,870,284.76Z" transform="translate(-394 -67)"/><path class="cls-15" d="M872.16,251.14s3.64,5.45,3.93,8.13a4.47,4.47,0,0,1-2.51-1l-3.06-3.12Z" transform="translate(-394 -67)"/><path class="cls-9" d="M847.79,301.33s-4.17-6.42-4-11.88a78.43,78.43,0,0,1,1.62-11.85s-3.08.08-2.9-4.44,1.48-8.81,3-9.94a4.31,4.31,0,0,1,3.14-.83s1.14-3.71,4.4-3.15A6,6,0,0,1,856,255c2.76-1.86,4.56,1,4.56,1s1.13-3.95,2.23-4.64a8.72,8.72,0,0,1,3.12-.87s5.33-.71,6.28.71,3.54,16.74,3.34,17.53-1.48,8.63-2.27,11.14-6.91,8.9-7.88,11.94-10.69,12.88-10.81,12.9S847.79,301.33,847.79,301.33Z" transform="translate(-394 -67)"/><path class="cls-6" d="M851.56,416s.28-53.19,9.11-76.75l-4.6,7.6S848.74,378,850.3,419.7Z" transform="translate(-394 -67)"/><path class="cls-6" d="M853,332.57s39.61,35.56,39.8,36,57.9-35.72,57.9-35.72l1.77,4.05c-10,17.55-22.12,37.32-22.12,37.32s.87,6.16,2,14.71c0,0-28.51,30.45-46.32,26.56-15.33-3.36-31.72-54.32-35.85-68a11.05,11.05,0,0,1,.1-6.73Z" transform="translate(-394 -67)"/><path class="cls-15" d="M845.42,296c5.69-3.41,16-4.36,16-4.36l-12,10.52-1.6-.81a30.88,30.88,0,0,1-2.59-5.21A1.35,1.35,0,0,0,845.42,296Z" transform="translate(-394 -67)"/><path class="cls-59" d="M918.58,310.67c6-7.68,14.3-13.7,22.36-18.93,7.25-4.7,15.15-8.26,19.45-5.28,9.29,6.42,7.33,18.25,3,30.11s-44.33,79-72.31,77.5c0,0-20.17-20.93-29.45-37.31-7.77-13.73-20.5-37.48-24.26-44.55a3,3,0,0,1,.63-3.65c5.44-5,22.24-19.65,27.22-17.18,0,0,11.4,28.81,22.83,43L897,342.9s7.49-13.65,13.37-21.53C912.44,318.53,915.64,314.44,918.58,310.67Z" transform="translate(-394 -67)"/><path class="cls-15" d="M886.76,263.62c-4.27-.34-5.75-4.5-5.75-4.5s23.78-9.5,26.29-24c0,0,.2,15.28-6.1,23.35C894.91,261.88,888.77,263.76,886.76,263.62Z" transform="translate(-394 -67)"/><path class="cls-16" d="M907.5,224.68h0c0,.28-1.36.63-2.55.26a1.93,1.93,0,0,1-1.28-1.86l.06-1.24a3.34,3.34,0,0,0-.48-2c-.39-.59-.83-2.05-.87-5.68a11.92,11.92,0,0,0-1.58-6.5l0,0s13.36,1,24.24.81c-.4,1.56-.65,3.1-1.07,4.5a43.68,43.68,0,0,1-2,5.24c-.52-6.78-4.78-5.59-8.42-3.2A13.43,13.43,0,0,0,907.5,224.68Z" transform="translate(-394 -67)"/><path class="cls-60" d="M888.18,524.2s0,.15,0,.39A.94.94,0,0,1,888.18,524.2Z" transform="translate(-394 -67)"/><path class="cls-6" d="M909,631.35a18.43,18.43,0,0,1-4.7-4.11s5.17-9.48,4.46-34c-.35-12.46-.61-19.64-.75-23.67a18.38,18.38,0,0,0-2.51-8.61A224.38,224.38,0,0,1,889,526.58c0-.1-.06-.23-.08-.33,4,7.07,22.2,28.82,24.59,45.47C915.89,588.05,910.72,621.1,909,631.35Z" transform="translate(-394 -67)"/><path class="cls-60" d="M889,526.25l-.12-.22c-.23-.61-.45-1.21-.67-1.84C888.26,523.74,888.54,524.55,889,526.25Z" transform="translate(-394 -67)"/><path class="cls-6" d="M845.28,356.34c-.28,2.41.93,4.56,2.73,4.76s3.51-1.56,3.79-4-.93-4.54-2.73-4.76S845.58,353.93,845.28,356.34Z" transform="translate(-394 -67)"/><path class="cls-6" d="M843,385.43c0,2.46,1.4,4.48,3.22,4.5s3.36-2,3.4-4.41-1.39-4.46-3.22-4.48S843.05,383,843,385.43Z" transform="translate(-394 -67)"/><path class="cls-6" d="M840.58,306.25s36.3,78.45,52.82,81.58,61.09-54.57,61.09-54.57,0,.08-.06.2c-14.28,23.73-42.29,61.74-63.38,60.63,0,0-20.17-20.93-29.45-37.3-7.77-13.74-20.5-37.49-24.26-44.56a3,3,0,0,1,.63-3.65C838.67,307.93,839.57,307.14,840.58,306.25Z" transform="translate(-394 -67)"/><path class="cls-6" d="M897,342.93s4.6,7.29,6.3,12l-5.47-13.47Z" transform="translate(-394 -67)"/><path class="cls-43" d="M760.25,491.42l18.25,8.43,33.36-19.25-43.09-7.84Z" transform="translate(-394 -67)"/><path class="cls-61" d="M777,443H740.16l3.42,39.87c0,2.21,1.46,4.44,4.4,6.12,5.85,3.38,15.33,3.38,21.18,0,2.92-1.68,4.4-3.91,4.4-6.12Z" transform="translate(-394 -67)"/><path class="cls-62" d="M777,443H740.16l.56,6.56a14.75,14.75,0,0,0,3.41,3.08c7,4.66,18.63,5.57,26.55,2.21L769.46,484a5.73,5.73,0,0,1-1.31,3.48c-1.2,1.4-3.48,3.06-7.9,4a20.59,20.59,0,0,0,8.91-2.47c2.92-1.68,4.4-3.91,4.4-6.12l2.75-32Z" transform="translate(-394 -67)"/><path class="cls-63" d="M771.57,450.48c-7.19,4.15-18.84,4.15-26,0s-7.19-10.89,0-15,18.84-4.15,26,0S778.76,446.32,771.57,450.48Z" transform="translate(-394 -67)"/><path class="cls-64" d="M769.77,445.69c-6.2,3.57-16.22,3.57-22.42,0s-6.2-9.38,0-12.94,16.22-3.57,22.42,0S776,442.11,769.77,445.69Z" transform="translate(-394 -67)"/><path class="cls-65" d="M778.05,442.45v-.08l-.34-3.57,0,.05c-.17-2.7-2-5.37-5.59-7.44-7.48-4.32-19.59-4.32-27.06,0-3.67,2.11-5.53,4.88-5.59,7.64l-.35,3.18c0,.08,0,.16,0,.24v.06c-.2,3,1.7,6.1,5.69,8.41,7.62,4.4,20,4.4,27.61,0C776.39,448.59,778.29,445.51,778.05,442.45Z" transform="translate(-394 -67)"/><path class="cls-66" d="M769.77,445.69c-6.2,3.57-16.22,3.57-22.42,0s-6.2-9.38,0-12.94,16.22-3.57,22.42,0S776,442.11,769.77,445.69Z" transform="translate(-394 -67)"/><path class="cls-67" d="M757.82,448.37c8.76,0,15.86-4.1,15.86-9.16s-7.1-9.16-15.86-9.16S742,434.15,742,439.21,749.06,448.37,757.82,448.37Z" transform="translate(-394 -67)"/><path class="cls-68" d="M749.23,434.1c6.2-3.56,16.22-3.56,22.42,0,.08,0,.14.1.22.14a12.15,12.15,0,0,0-2.1-1.49c-6.2-3.57-16.23-3.57-22.42,0s-6.18,9.21-.23,12.8C743.15,442,743.84,437.2,749.23,434.1Z" transform="translate(-394 -67)"/><path class="cls-69" d="M747.35,434.33c6.2-3.59,16.22-3.57,22.42,0,2.75,1.58,4.27,3.6,4.58,5.67.38-2.59-1.14-5.29-4.58-7.27-6.2-3.57-16.22-3.59-22.42,0-3.45,2-5,4.66-4.58,7.27C743.07,437.93,744.61,435.91,747.35,434.33Z" transform="translate(-394 -67)"/><path class="cls-70" d="M772.22,431.49c-7.46-4.4-19.63-4.5-27.17-.24s-7.59,11.28-.14,15.68,19.63,4.5,27.17.24S779.67,435.89,772.22,431.49Zm-2.45,14.2a20.28,20.28,0,0,1-7.22,2.37l-.28-.95a.91.91,0,0,0-.87-.65h-5.69a.91.91,0,0,0-.87.65l-.29.95a20.7,20.7,0,0,1-7.21-2.37c-6.19-3.56-6.19-9.38,0-12.94s16.23-3.57,22.43,0S776,442.11,769.77,445.69Z" transform="translate(-394 -67)"/><path class="cls-51" d="M769.77,432.06c-6.2-3.57-16.23-3.59-22.43,0-3.24,1.88-4.78,4.35-4.64,6.8.15-2.22,1.69-4.43,4.64-6.13,6.2-3.57,16.23-3.57,22.43,0,2.93,1.7,4.49,3.91,4.63,6.13C774.57,436.41,773,433.92,769.77,432.06Z" transform="translate(-394 -67)"/><path class="cls-51" d="M772.08,446.5c-7.54,4.28-19.71,4.16-27.17-.24-3.54-2.09-5.39-4.78-5.55-7.48-.14,2.92,1.71,5.9,5.55,8.17,7.46,4.4,19.63,4.5,27.17.24,3.94-2.23,5.85-5.23,5.67-8.2C777.62,441.72,775.72,444.44,772.08,446.5Z" transform="translate(-394 -67)"/><path class="cls-71" d="M760.27,448.55h-3.4a.43.43,0,0,1-.43-.43v-.06a.42.42,0,0,1,.43-.42h3.4a.43.43,0,0,1,.43.42v.06A.42.42,0,0,1,760.27,448.55Z" transform="translate(-394 -67)"/><path class="cls-72" d="M760.27,447.64h-3.4a.42.42,0,0,0-.43.42v.06c0,.05,0,.08,0,.13a.43.43,0,0,1,.41-.33h3.4a.41.41,0,0,1,.4.33.21.21,0,0,0,0-.13v-.06A.42.42,0,0,0,760.27,447.64Z" transform="translate(-394 -67)"/><path class="cls-73" d="M510.85,426.24l6.16,3.22,61.67-35.62a4.53,4.53,0,0,1,4,.17l106.38,61.43c1-.57,5.65-2.8,5.65-2.8l-2.24,5.88a1.37,1.37,0,0,1-.63.69l-65,37.52a4.49,4.49,0,0,1-4-.16L514,433.7a2,2,0,0,1-.91-1Z" transform="translate(-394 -67)"/><path class="cls-36" d="M511.8,427.26l111.56,64.43a4.54,4.54,0,0,0,4.14.16l66.58-38.46c1-.61.93-1.68-.31-2.39L582.21,386.57a4.52,4.52,0,0,0-4.13-.16L511.5,424.86C510.45,425.47,510.59,426.55,511.8,427.26Z" transform="translate(-394 -67)"/><path class="cls-73" d="M550.55,418.5l75.55,43.65,3.56-2.07-75.53-43.64Z" transform="translate(-394 -67)"/><path class="cls-74" d="M544.83,421.8l88.94,51.39,3.59-2.07-88.94-51.38Z" transform="translate(-394 -67)"/><path class="cls-74" d="M539.13,425.11l88.93,51.38,3.57-2.09L542.71,423Z" transform="translate(-394 -67)"/><path class="cls-73" d="M533.39,428.41l88.94,51.38,3.58-2.08L537,426.34Z" transform="translate(-394 -67)"/><path class="cls-74" d="M649,461.07l-86-49.7-3.58,2.07,85.39,49.33,3.59,2.07,3.58-2.07Z" transform="translate(-394 -67)"/><path class="cls-74" d="M621.74,459.63l17.79,10.28,3.58-2.07-17.9-10.35Z" transform="translate(-394 -67)"/><path class="cls-75" d="M511,424.58l14.09-83.7-1.13-.49,1.7-1a1.27,1.27,0,0,1,1.32.08l112.72,65.1a3.17,3.17,0,0,1,1.46,2.86L627,491.83a1.06,1.06,0,0,1-.59.85l-1.66,1-.29-1.56.11,0-112-64.69A3.06,3.06,0,0,1,511,424.58Z" transform="translate(-394 -67)"/><path class="cls-52" d="M639.11,406.91l1.84-.81a2.74,2.74,0,0,1,.24,1.4L627,491.87a1,1,0,0,1-.58.85l-1.66,1-.29-1.56.1,0-5.67-3.28Z" transform="translate(-394 -67)"/><path class="cls-11" d="M510.73,428.47l112.72,65.1c.87.51,1.62.2,1.76-.69l14.22-84.37a3.19,3.19,0,0,0-1.46-2.85L525.25,340.55c-.87-.5-1.62-.2-1.76.69l-14.22,84.37A3.14,3.14,0,0,0,510.73,428.47Z" transform="translate(-394 -67)"/><path class="cls-76" d="M551.1,407.15a4.39,4.39,0,0,0,1.81,1.52,5.09,5.09,0,0,0,.9.3c.37.1.57.11.84.17a6.24,6.24,0,0,1,1.46.49,4.91,4.91,0,0,1,1.43,1,5.86,5.86,0,0,1,1.33,2.48,3.89,3.89,0,0,1,.33,2,5.4,5.4,0,0,1-.5,1.48c-.33.8-.42.81-.63,1.39a6,6,0,0,0-.38,1.64,5.4,5.4,0,0,0,.18,1.73,6.69,6.69,0,0,0,.66,1.71,5.78,5.78,0,0,0,1.33,1.69,6.5,6.5,0,0,0,1.57,1,7.54,7.54,0,0,0,2.22.57,6.43,6.43,0,0,0,1.7-.09,6.52,6.52,0,0,0,2.08-.74,6.79,6.79,0,0,0,1.7-1.41c.67-.75.56-.89,1.23-1.68a9.29,9.29,0,0,1,1.94-1.7,5.88,5.88,0,0,1,2.18-1,8.23,8.23,0,0,1,3.45.23,7.1,7.1,0,0,1,1.59.79,13.75,13.75,0,0,1,1.34,1.19c1.18,1.1,1.16,1.14,1.5,1.39a6.94,6.94,0,0,0,1.9.95,7.82,7.82,0,0,0,2.71.49,7.48,7.48,0,0,0,2.27-.38,8.4,8.4,0,0,0,1.83-.79,8.63,8.63,0,0,0,1.75-1.37,7.23,7.23,0,0,0,2.09-4.36,7.4,7.4,0,0,0,0-2.07,7.55,7.55,0,0,0-.74-2.13,7,7,0,0,0-1.33-1.91,7.71,7.71,0,0,0-1.87-1.37,8.25,8.25,0,0,0-2.09-.76,8.55,8.55,0,0,0-3-.07,6.95,6.95,0,0,0-4.66,2.57c-.37.45-.31.48-1.3,2a18.68,18.68,0,0,1-1.07,1.55,6.47,6.47,0,0,1-2.58,1.71,6.86,6.86,0,0,1-1.78.35,6,6,0,0,1-2.4-.18,7.7,7.7,0,0,1-2.5-1.45c-.65-.48-.66-.56-1.25-1a8.57,8.57,0,0,0-1.9-1,23.88,23.88,0,0,0-2.45-.48,7.52,7.52,0,0,1-1.78-.44,5.2,5.2,0,0,1-1.23-.71,5.37,5.37,0,0,1-1.38-1.68,5.87,5.87,0,0,1-.53-1.4,6,6,0,0,1-.06-2.21c.16-1,.41-1,.49-1.91a4.31,4.31,0,0,0-1.85-4.17,5,5,0,0,0-2.16-.8,4.59,4.59,0,0,0-2.45.33,4.4,4.4,0,0,0-1.83,1.6,4.59,4.59,0,0,0-.77,2,4.38,4.38,0,0,0,.12,1.74A4.82,4.82,0,0,0,551.1,407.15Z" transform="translate(-394 -67)"/><path class="cls-77" d="M652.25,105.9,636.48,115V99.23l15.77-9.13Z" transform="translate(-394 -67)"/><path class="cls-77" d="M530.44,78.66l-4.67,2.69V76.68L530.44,74Z" transform="translate(-394 -67)"/><path class="cls-78" d="M578,301.38v9.31l9.31-5.38V296Z" transform="translate(-394 -67)"/><path class="cls-78" d="M597.64,286.64,593,289.33v-4.65l4.64-2.68Z" transform="translate(-394 -67)"/><path class="cls-78" d="M493,168.75l-15,8.65v-15l15-8.66Z" transform="translate(-394 -67)"/><path class="cls-79" d="M502.88,168.22l-4.65,2.68v-4.65l4.65-2.7Z" transform="translate(-394 -67)"/><path class="cls-79" d="M798.31,201.31,789,206.69v-9.31l9.31-5.38Z" transform="translate(-394 -67)"/><path class="cls-78" d="M577.74,188.59l-11.93,6.9v-12l11.93-6.89Z" transform="translate(-394 -67)"/><path class="cls-79" d="M535,253.53l-7.9,4.57v-7.9l7.9-4.57Z" transform="translate(-394 -67)"/><path class="cls-78" d="M529.82,269.61l-7.89,4.57v-7.9l7.89-4.56Z" transform="translate(-394 -67)"/></svg>