<svg id="Слой_1" data-name="Слой 1" xmlns="http://www.w3.org/2000/svg" viewBox="0 0 31.09 31.07"><defs><style>.cls-1{fill:#fff;}</style></defs><title>phone-footer</title><path class="cls-1" d="M696.46,390.8l-3.87-3.9a3.37,3.37,0,0,0-2.3-1,3.21,3.21,0,0,0-2.31,1l-2.24,2.24a1.37,1.37,0,0,0-.32-.16,0,0,0,0,1,0,0l0,0a5.44,5.44,0,0,0-1-.55,23.08,23.08,0,0,1-5.63-5.18,14.37,14.37,0,0,1-2-3.11,9.51,9.51,0,0,0,1.19-1.15l1-1a3.14,3.14,0,0,0,1.15-2.34,3.48,3.48,0,0,0-1.12-2.43l-3-3c-.29-.29-.57-.57-.89-.86a3.31,3.31,0,0,0-2.28-1,3.26,3.26,0,0,0-2.4,1l-2.33,2.34a5,5,0,0,0-1.6,3.29v0a12.7,12.7,0,0,0,.89,5.12,31.26,31.26,0,0,0,5.35,8.92,35.26,35.26,0,0,0,11.13,8.58l.1,0a17.75,17.75,0,0,0,6.08,1.73h.35a5.07,5.07,0,0,0,4-1.7c.39-.44.8-.86,1.16-1.24a4.74,4.74,0,0,0,.67-.68l.25-.25.07-.07A3.12,3.12,0,0,0,696.46,390.8Zm-1.12,3.56-.32.32,0,.06a3.52,3.52,0,0,1-.45.48l-.09.1c-.39.38-.83.83-1.28,1.34a3.48,3.48,0,0,1-2.82,1.15h-.25a16.56,16.56,0,0,1-5.51-1.6l-.06,0A33.36,33.36,0,0,1,673.94,388a28.84,28.84,0,0,1-5.09-8.45,10.81,10.81,0,0,1-.8-4.48,3.31,3.31,0,0,1,1.09-2.24l2.36-2.37a1.68,1.68,0,0,1,1.25-.54,1.7,1.7,0,0,1,1.15.51l0,0c.28.26.57.55.86.84l3,3a1.81,1.81,0,0,1,.67,1.28,1.52,1.52,0,0,1-.67,1.18l-1,1a12.6,12.6,0,0,1-1.32,1.25l-.06.07-.06.09a1.23,1.23,0,0,0-.16,1.25l0,.13,0,.13a16.56,16.56,0,0,0,2.18,3.48,24.52,24.52,0,0,0,6.08,5.57l.09.07c.26.12.51.25.74.38a.72.72,0,0,0,.32.19,1.78,1.78,0,0,1,.29.16l.22.16h.06l.1,0a1.09,1.09,0,0,0,.42.07,1.22,1.22,0,0,0,.89-.42l2.4-2.4a1.6,1.6,0,0,1,1.19-.54,1.82,1.82,0,0,1,1.18.54l3.9,3.91A1.52,1.52,0,0,1,695.34,394.36Z" transform="translate(-666.44 -368.31)"/><path class="cls-1" d="M995,178" transform="translate(-666.44 -368.31)"/></svg>