<svg id="Слой_1" data-name="Слой 1" xmlns="http://www.w3.org/2000/svg" viewBox="0 0 71.98 20.42"><defs><style>.cls-1{fill:#3f6aab;}.cls-2{fill:#093d89;}.cls-3{fill:#f0f1f1;}</style></defs><title>plane-project</title><path class="cls-1" d="M711.9,386.58l-12.55-.16-26.1-12.22-1.62,0,14,12.07-29.64,3.95-4.55-.06-3-5.28-1.11,0L647,393.7l7,.09,57.2.71,7.8.1Z" transform="translate(-647.02 -374.18)"/><path class="cls-2" d="M649.85,383.56h-.61l-.17,3.07,2.21,3.92,2.69-.35Z" transform="translate(-647.02 -374.18)"/><path class="cls-3" d="M712.16,387l-2.21.19-2.76.1,1.12,3.24,6.55-.53Z" transform="translate(-647.02 -374.18)"/><ellipse class="cls-3" cx="702.02" cy="389.3" rx="0.46" ry="0.27" transform="translate(-656.88 -355.85) rotate(-1.49)"/><ellipse class="cls-3" cx="699.72" cy="389.27" rx="0.46" ry="0.27" transform="translate(-656.88 -355.91) rotate(-1.49)"/><ellipse class="cls-3" cx="697.43" cy="389.24" rx="0.46" ry="0.27" transform="translate(-656.88 -355.96) rotate(-1.49)"/><ellipse class="cls-3" cx="695.07" cy="389.21" rx="0.4" ry="0.27" transform="translate(-665.91 -338.35) rotate(-2.91)"/><ellipse class="cls-3" cx="692.38" cy="389.18" rx="0.46" ry="0.27" transform="translate(-656.88 -356.1) rotate(-1.49)"/></svg>