<svg id="Слой_1" data-name="Слой 1" xmlns="http://www.w3.org/2000/svg" viewBox="0 0 56 56"><defs><style>.cls-1{fill:#426ab3;}</style></defs><title>project-page-4-blue</title><path class="cls-1" d="M47.6,33.6H34.53a.94.94,0,0,0-.84,1,1,1,0,0,0,.84.84H47.6a.94.94,0,0,0,.84-1A1,1,0,0,0,47.6,33.6Z"/><path class="cls-1" d="M34.53,31.73h6.54a.93.93,0,0,0,0-1.86H34.53a.93.93,0,0,0,0,1.86Z"/><path class="cls-1" d="M51.33,26.13H34.53a.94.94,0,0,0-.84,1,1,1,0,0,0,.84.84h16.8a.94.94,0,1,0,.19-1.87Z"/><path class="cls-1" d="M5.6,26.13H20.53a1.87,1.87,0,0,0,1.87-1.86V22.4a1.87,1.87,0,0,0-1.87-1.87H5.6A1.87,1.87,0,0,0,3.73,22.4v1.87A1.87,1.87,0,0,0,5.6,26.13Zm0-3.73H20.53v1.87H5.6Z"/><path class="cls-1" d="M13.07,50.4H4.67a.94.94,0,1,0-.19,1.87h8.59a.94.94,0,0,0,.84-1A1,1,0,0,0,13.07,50.4Z"/><path class="cls-1" d="M21.47,50.4H16.8a.94.94,0,0,0-.84,1,1,1,0,0,0,.84.84h4.67a.94.94,0,0,0,.84-1A1,1,0,0,0,21.47,50.4Z"/><path class="cls-1" d="M6.47,43.93h0a9.32,9.32,0,0,0,13.15,0h0a9.3,9.3,0,0,0,0-13.15h0A9.33,9.33,0,0,0,6.43,44Zm2-.71L13,38.65l4.57,4.57a7.4,7.4,0,0,1-9.11,0ZM19,41.9l-4.57-4.57L19,32.76A7.42,7.42,0,0,1,19,41.9Zm-5.89-12a7.42,7.42,0,0,1,4.57,1.57L7.18,41.9a7.45,7.45,0,0,1,5.89-12Z"/><path class="cls-1" d="M1.87,56h22.4a1.87,1.87,0,0,0,1.86-1.87V50.27A3.72,3.72,0,0,0,28.8,47.6h1.07a.94.94,0,0,0,.84-1,1,1,0,0,0-.84-.84H28.8a3.73,3.73,0,0,0-2.67-2.66V18.67a1.87,1.87,0,0,0-1.86-1.87H14v-.93a.94.94,0,1,0-1.87-.19.61.61,0,0,0,0,.19v.93H1.87A1.87,1.87,0,0,0,0,18.67V54.13A1.87,1.87,0,0,0,1.87,56Zm0-37.33h22.4V43.05l-.38.13-.17.06a4.83,4.83,0,0,0-.59.32l-.11.09a3.19,3.19,0,0,0-.4.33l-.16.18a3,3,0,0,0-.28.33L22,44.7a2.75,2.75,0,0,0-.2.38,1.63,1.63,0,0,0-.11.23c-.05.14-.1.29-.14.44s0,.14-.05.22a3.3,3.3,0,0,0,0,1.4.33.33,0,0,0,.05.21,3.31,3.31,0,0,1,.14.44,2.56,2.56,0,0,0,.11.24c.06.13.13.25.2.37l.14.21c.09.12.18.23.28.34a1.29,1.29,0,0,0,.16.17,3.19,3.19,0,0,0,.4.33l.11.09a3.37,3.37,0,0,0,.59.32.49.49,0,0,0,.17.06,2.43,2.43,0,0,0,.38.13v3.85H1.87Z"/><path class="cls-1" d="M54.13,0H31.73a1.87,1.87,0,0,0-1.86,1.87V5.73A3.72,3.72,0,0,0,27.2,8.4H26.13a.94.94,0,0,0-.84,1,1,1,0,0,0,.84.84H27.2a3.73,3.73,0,0,0,2.67,2.66v24.4a1.87,1.87,0,0,0,1.86,1.87H42v.93a.94.94,0,1,0,1.87.19.61.61,0,0,0,0-.19V39.2H54.13A1.87,1.87,0,0,0,56,37.33V1.87A1.87,1.87,0,0,0,54.13,0Zm0,37.33H31.73V13l.38-.13.17-.06a4.83,4.83,0,0,0,.59-.32L33,12.4a3.19,3.19,0,0,0,.4-.33l.16-.18a3,3,0,0,0,.28-.33l.14-.21a2.75,2.75,0,0,0,.2-.38,1.63,1.63,0,0,0,.11-.23c0-.14.1-.29.14-.44s0-.14.05-.22a3.3,3.3,0,0,0,0-1.4.33.33,0,0,0-.05-.21A3.31,3.31,0,0,1,34.27,8a2.56,2.56,0,0,0-.11-.24c-.06-.13-.13-.25-.2-.37l-.14-.21c-.09-.12-.18-.23-.28-.34l-.15-.17A4.23,4.23,0,0,0,33,6.37l-.11-.09A4.83,4.83,0,0,0,32.28,6l-.17-.06-.38-.13V1.92h22.4Z"/><path class="cls-1" d="M43.87,44.8v-.93A.94.94,0,1,0,42,43.68a.61.61,0,0,0,0,.19v.93a.93.93,0,0,1-.93.93h-.94a.94.94,0,0,0-.84,1,1,1,0,0,0,.84.84h.94A2.82,2.82,0,0,0,43.87,44.8Z"/><path class="cls-1" d="M36.4,45.73H33.6a.94.94,0,0,0-.84,1,1,1,0,0,0,.84.84h2.8a.94.94,0,0,0,.84-1A1,1,0,0,0,36.4,45.73Z"/><path class="cls-1" d="M14.93,8.4a2.82,2.82,0,0,0-2.8,2.8v.93a.94.94,0,0,0,1.87.19.61.61,0,0,0,0-.19V11.2a.93.93,0,0,1,.93-.93h.94a.94.94,0,0,0,.84-1,1,1,0,0,0-.84-.84Z"/><path class="cls-1" d="M22.4,8.4H19.6a.94.94,0,0,0-.84,1,1,1,0,0,0,.84.84h2.8a.94.94,0,0,0,.84-1A1,1,0,0,0,22.4,8.4Z"/><path class="cls-1" d="M49,21.89a.32.32,0,0,1-.32-.29l-.33-2.94A.33.33,0,1,1,49,18.5a.28.28,0,0,1,0,.09l.29,2.61,2.62-.29a.33.33,0,0,1,.07.65L49,21.89Z"/><path class="cls-1" d="M36.17,9.35A.32.32,0,0,1,36,9.27a.32.32,0,0,1,0-.45h0c.24-.28.51-.57.79-.85a.32.32,0,0,1,.45,0h0a.34.34,0,0,1,0,.46c-.28.27-.53.55-.76.82A.34.34,0,0,1,36.17,9.35Z"/><path class="cls-1" d="M42.82,24.5h-.23a.34.34,0,0,1-.32-.34.33.33,0,0,1,.33-.32,8.64,8.64,0,0,0,2.21-.22.33.33,0,0,1,.4.24h0a.32.32,0,0,1-.25.39A9.62,9.62,0,0,1,42.82,24.5Zm-2.5-.35h-.09A9.22,9.22,0,0,1,38,23.21a.32.32,0,0,1-.12-.44h0a.33.33,0,0,1,.45-.12,8.25,8.25,0,0,0,2,.87.33.33,0,0,1,.22.41A.31.31,0,0,1,40.32,24.15Zm-3.94-2.31a.32.32,0,0,1-.23-.09,9.25,9.25,0,0,1-1.47-1.88.33.33,0,0,1,.52-.41.25.25,0,0,1,0,.07,9,9,0,0,0,1.37,1.76.32.32,0,0,1,0,.45h0A.32.32,0,0,1,36.38,21.84ZM34,17.92a.33.33,0,0,1-.31-.24,9.44,9.44,0,0,1-.37-2.36.33.33,0,0,1,.65-.11.2.2,0,0,1,0,.11,8.56,8.56,0,0,0,.35,2.19.32.32,0,0,1-.22.4H34Zm-.1-4.57h-.08a.32.32,0,0,1-.23-.39h0a8.81,8.81,0,0,1,.91-2.2.32.32,0,0,1,.46-.06.33.33,0,0,1,.11.38,8.37,8.37,0,0,0-.85,2,.32.32,0,0,1-.28.23Z"/><path class="cls-1" d="M47.06,23.46a.32.32,0,0,1-.29-.17.33.33,0,0,1,.14-.44,9.14,9.14,0,0,0,.94-.58.32.32,0,0,1,.44.08h0a.3.3,0,0,1-.06.43l0,0a9.2,9.2,0,0,1-1,.61A.29.29,0,0,1,47.06,23.46Z"/><path class="cls-1" d="M49,21.89a.31.31,0,0,1-.22-.09.34.34,0,0,1,0-.46c.27-.28.52-.56.74-.83a.33.33,0,0,1,.51.41q-.36.43-.78.87A.35.35,0,0,1,49,21.89Z"/><path class="cls-1" d="M51,19.19h-.14a.33.33,0,0,1-.15-.43h0a7.84,7.84,0,0,0,.72-2,.32.32,0,0,1,.38-.25h0a.31.31,0,0,1,.25.36v0a8.5,8.5,0,0,1-.79,2.18A.33.33,0,0,1,51,19.19Zm.93-4.32a.34.34,0,0,1-.33-.31,8.89,8.89,0,0,0-.37-2.11.32.32,0,0,1,.22-.4.31.31,0,0,1,.4.21,9.24,9.24,0,0,1,.4,2.27.32.32,0,0,1-.3.34h0Zm-1.3-4.22a.33.33,0,0,1-.28-.16A8.5,8.5,0,0,0,49,8.8a.33.33,0,0,1,.08-.46.33.33,0,0,1,.38,0,9.27,9.27,0,0,1,1.43,1.81.33.33,0,0,1-.25.5ZM47.5,7.52a.49.49,0,0,1-.17,0,9.11,9.11,0,0,0-2-.87.34.34,0,0,1-.19-.43.34.34,0,0,1,.38-.2A9.5,9.5,0,0,1,47.63,7a.33.33,0,0,1,.12.45.32.32,0,0,1-.24.11ZM41,6.4a.33.33,0,0,1-.32-.26A.34.34,0,0,1,41,5.75a9.86,9.86,0,0,1,2.3-.16.33.33,0,0,1,.11.65h-.11a9.13,9.13,0,0,0-2.15.16Z"/><path class="cls-1" d="M37.92,7.65a.33.33,0,0,1-.27-.15.33.33,0,0,1,.1-.45,9.9,9.9,0,0,1,1-.57.32.32,0,0,1,.43.14v0a.33.33,0,0,1-.16.43,9.56,9.56,0,0,0-1,.53Z"/><path class="cls-1" d="M37.27,11.45a.32.32,0,0,1-.32-.29l-.29-2.61L34,8.84A.33.33,0,0,1,34,8.19l2.94-.33a.33.33,0,0,1,.36.29l.32,2.94a.32.32,0,0,1-.28.36h0Z"/><path class="cls-1" d="M41.57,20.76a2.25,2.25,0,0,1-.71-.18h0a6.3,6.3,0,0,1-.84-.37,7.52,7.52,0,0,1-.75-.5,3,3,0,0,1-.34-.28h0c-.17-.13-.33-.26-.34-.45a3.37,3.37,0,0,1,.1-1.14,4.14,4.14,0,0,1,.86-1.68A1.84,1.84,0,0,0,40,15a.36.36,0,0,0-.12-.27,2.28,2.28,0,0,0-1.49-.29,1.53,1.53,0,0,1-1.09-.36.32.32,0,0,1-.1-.32,5.93,5.93,0,0,1,2.63-3.67c.16-.1.36-.08.7.06a1.29,1.29,0,0,1,.42.26,1.75,1.75,0,0,1,.46.76,2.9,2.9,0,0,1,.06,1.65l-.06.14h0a.68.68,0,0,0,0,.65A.78.78,0,0,0,42,14a2.22,2.22,0,0,1,2,1.41l.12.3c.49,1.41-.56,2.33-1.41,3.07-.21.19-.41.36-.58.53a.46.46,0,0,0-.15.26,1,1,0,0,0,0,.24v.05a5.23,5.23,0,0,1,0,.56.36.36,0,0,1-.15.3A.43.43,0,0,1,41.57,20.76Zm-2.41-2,.1.08.08.06c.09.08.19.17.3.25a6,6,0,0,0,.67.44,4.91,4.91,0,0,0,.74.33h0l.22.08v-.13h0a1.14,1.14,0,0,1,0-.45,1.17,1.17,0,0,1,.34-.6c.19-.19.4-.38.61-.57,1-.83,1.55-1.44,1.22-2.37a1,1,0,0,0-.09-.21A1.63,1.63,0,0,0,42,14.61a1.43,1.43,0,0,1-1.18-.68,1.33,1.33,0,0,1-.06-1.28h0v-.06a2.45,2.45,0,0,0-.07-1.23,1.11,1.11,0,0,0-.28-.48.61.61,0,0,0-.22-.13L40,10.68a5.22,5.22,0,0,0-2.21,3,1,1,0,0,0,.47.09,2.83,2.83,0,0,1,2,.47,1,1,0,0,1,.32.74A2.44,2.44,0,0,1,40,16.55,3.5,3.5,0,0,0,39.24,18a3.22,3.22,0,0,0-.08.82Z"/><path class="cls-1" d="M44.51,20.65a.32.32,0,0,1-.28-.16l-.46-.76a.7.7,0,0,1-.06-.67c.21-.53,1-.78,1.26-.84a.57.57,0,0,0,.34-.5v-.06c0-.06.35-1.71,1.46-1.71a1.38,1.38,0,0,1,1,.29l.48.49a.33.33,0,0,1,.08.34,5.9,5.9,0,0,1-3.72,3.56ZM46,17.76a1.25,1.25,0,0,1-.77,1.07h0c-.35.09-.79.3-.85.46v.08l.32.54a5.29,5.29,0,0,0,3-2.89l-.33-.33a.89.89,0,0,0-.53-.11c-.5,0-.81.89-.81,1.18Z"/><path class="cls-1" d="M42.82,22A6.82,6.82,0,0,1,36,15.18V15a6.17,6.17,0,0,1,5.78-6.54q.36,0,.72,0c3.24,0,7,1.74,7,6.54C49.5,18.28,47.5,21.5,42.82,22Zm0-12.18A5.22,5.22,0,1,0,48,15.08V15A5.22,5.22,0,0,0,42.82,9.82Z"/><path class="cls-1" d="M46.76,14.36a3.34,3.34,0,0,1-2.5-1.42,1.82,1.82,0,0,1-.13-2.37,1.22,1.22,0,0,1,.28-.86h0l.08-.07a.33.33,0,0,1,.33-.06,5.87,5.87,0,0,1,3.59,3.85.31.31,0,0,1-.1.34h0l-.16.12A2.18,2.18,0,0,1,46.76,14.36Zm-1.92-4.13a.7.7,0,0,0-.05.43.33.33,0,0,1-.1.28c-.52.48-.33,1,.11,1.62a2.73,2.73,0,0,0,2,1.15,1.58,1.58,0,0,0,1-.35,5.23,5.23,0,0,0-3-3.13Z"/></svg>