<svg id="Слой_1" data-name="Слой 1" xmlns="http://www.w3.org/2000/svg" viewBox="0 0 60.81 48.03"><defs><style>.cls-1{fill:#426ab3;}</style></defs><title>project-page-1-blue</title><path class="cls-1" d="M.49,47.93A.81.81,0,0,0,.8,48H47.19a.82.82,0,0,0,.74-.49.8.8,0,0,0-.18-.87l-1.15-.94a.79.79,0,0,0-1.12,0h0a.81.81,0,0,0,0,1.12l-.21-.43H41.6v-1.6a.8.8,0,0,0-1.6,0v1.6H38.4v-1.6a.8.8,0,0,0-.8-.8.79.79,0,0,0-.8.79h0v1.6H35.2v-1.6a.8.8,0,1,0-1.6,0v1.6H32v-1.6a.8.8,0,0,0-.8-.8.79.79,0,0,0-.8.79h0v1.6H28.8v-1.6A.8.8,0,0,0,28,44a.79.79,0,0,0-.8.79h0v1.6H25.6v-1.6a.8.8,0,1,0-1.6,0v1.6H22.4v-1.6a.8.8,0,0,0-.8-.8h0a.79.79,0,0,0-.79.79h0v1.6H19.2v-1.6a.8.8,0,0,0-1.6,0v1.6H16v-1.6a.8.8,0,0,0-.8-.8.79.79,0,0,0-.8.79h0v1.6H12.8v-1.6A.8.8,0,0,0,12,44a.79.79,0,0,0-.8.79h0v1.6H2.73l3.44-3.44a2.3,2.3,0,0,0,1,.24,2.39,2.39,0,0,0,2.39-2.31l8.49-2.65A2.39,2.39,0,0,0,22.21,36l2.63-2.19,1.13.61c6.09,3.3,4,1.57,7.75,3.21a.8.8,0,1,0,0-1.6c-2.86-1-2.39.14-7-3l-.57-.3,2.18-1.82a2.33,2.33,0,0,0,1.21.34,2.39,2.39,0,0,0,2.4-2.38h0a2.44,2.44,0,0,0-.28-1.12l6.54-7.08a2.39,2.39,0,0,0,2.52-4L45.45,4.8h.09a2.4,2.4,0,1,0-2.26-3.19C27.46,1.9,21.7,12.47,16.62,21.81c-1,1.9-2,3.73-3.07,5.42a46.77,46.77,0,0,0-12-1.62V24h1.6a.8.8,0,0,0,0-1.6H1.55v-1.6h1.6a.8.8,0,0,0,0-1.6H1.55v-1.6h1.6a.8.8,0,1,0,0-1.6H1.55v-1.6h1.6a.8.8,0,0,0,0-1.6H1.55v-1.6h1.6a.8.8,0,1,0,0-1.6H1.55V8h1.6a.8.8,0,0,0,0-1.6H1.55V2.72L3.38,4.56a.81.81,0,0,0,1.12,0,.79.79,0,0,0,0-1.12h0L1.31.24A.8.8,0,0,0,.18.23.82.82,0,0,0-.06.8V47.19A.81.81,0,0,0,.49,47.93ZM21.21,34.74A2.46,2.46,0,0,0,20,34.39a2.39,2.39,0,0,0-2.39,2.31l-8.5,2.66A2.39,2.39,0,0,0,5,41.82L1.6,45.26V37.55c5.94-.29,9.63-3.81,12.69-8.45A52.39,52.39,0,0,1,23.35,33ZM45.59,1.6a.8.8,0,1,1-.8.8h0a.8.8,0,0,1,.8-.8Zm-27.52,21c5.11-9.39,10.4-19.09,25.27-19.37a2.27,2.27,0,0,0,.67,1L39.29,16h-.1a2.39,2.39,0,0,0-2.4,2.4h0a2.27,2.27,0,0,0,.29,1.11l-6.54,7.08a2.4,2.4,0,0,0-3.14,1.26,2.43,2.43,0,0,0,0,1.74l-2.67,2.23a56.53,56.53,0,0,0-9.5-4.16c1-1.59,1.94-3.32,2.89-5.07Zm-5.39,6.06c-2.78,4.11-6,7-11.08,7.31V30.39H3.2a.8.8,0,0,0,.18-1.59.54.54,0,0,0-.18,0H1.6V27.21a45.5,45.5,0,0,1,11.08,1.43Z" transform="translate(0.06 0)"/><path class="cls-1" d="M60.51,25.56,47.43,19.25a.38.38,0,0,0-.36,0L34,25.56a.42.42,0,0,0-.24.38V41.26a.42.42,0,0,0,.24.38L47.07,48a.45.45,0,0,0,.36,0l13.08-6.31a.42.42,0,0,0,.24-.38V26A.43.43,0,0,0,60.51,25.56ZM47.25,20.1,59.36,26l-3.51,1.69h-.07l-12-5.8ZM42.8,22.26l12.09,5.83-2.48,1.2L40.33,23.46ZM55.17,29.1v4.21L53,34.49V30ZM60,40.49,48,46V33l3-1.5c.21-.1-.11-.74-.21-.95a.41.41,0,0,0-.56-.19h0L47.5,31.49l-3.22-1.14c-.21-.11.29.35.19.56s-.77.09-.56.19l2.92,1.41V46.27L35,40.49V27l8.91,4.11a.41.41,0,0,0,.18,0,.42.42,0,0,0,.43-.41.41.41,0,0,0-.24-.39L35.14,26l4.19-2L52,30h0v5.06a.42.42,0,0,0,.2.35.43.43,0,0,0,.41,0l3.16-1.53a.43.43,0,0,0,.23-.38v-5l3.9-1.88Z" transform="translate(0.06 0)"/></svg>