<svg id="Слой_1" data-name="Слой 1" xmlns="http://www.w3.org/2000/svg" xmlns:xlink="http://www.w3.org/1999/xlink" viewBox="0 0 56 56"><defs><style>.cls-1{fill:url(#Новый_образец_градиентной_залив);}.cls-2{fill:url(#Новый_образец_градиентной_залив-2);}.cls-3{fill:url(#Новый_образец_градиентной_залив-3);}.cls-4{fill:url(#Новый_образец_градиентной_залив-4);}.cls-5{fill:url(#Новый_образец_градиентной_залив-5);}.cls-6{fill:url(#Новый_образец_градиентной_залив-6);}.cls-7{fill:url(#Новый_образец_градиентной_залив-7);}.cls-8{fill:url(#Новый_образец_градиентной_залив-8);}.cls-9{fill:url(#Новый_образец_градиентной_залив-9);}.cls-10{fill:url(#Новый_образец_градиентной_залив-10);}.cls-11{fill:url(#Новый_образец_градиентной_залив-11);}.cls-12{fill:url(#Новый_образец_градиентной_залив-12);}.cls-13{fill:url(#Новый_образец_градиентной_залив-13);}.cls-14{fill:url(#Новый_образец_градиентной_залив-14);}.cls-15{fill:url(#Новый_образец_градиентной_залив-15);}.cls-16{fill:url(#Новый_образец_градиентной_залив-16);}.cls-17{fill:url(#Новый_образец_градиентной_залив-17);}.cls-18{fill:url(#Новый_образец_градиентной_залив-18);}.cls-19{fill:url(#Новый_образец_градиентной_залив-19);}.cls-20{fill:url(#Новый_образец_градиентной_залив-20);}.cls-21{fill:url(#Новый_образец_градиентной_залив-21);}.cls-22{fill:url(#Новый_образец_градиентной_залив-22);}.cls-23{fill:url(#Новый_образец_градиентной_залив-23);}.cls-24{fill:url(#Новый_образец_градиентной_залив-24);}.cls-25{fill:url(#Новый_образец_градиентной_залив-25);}</style><linearGradient id="Новый_образец_градиентной_залив" x1="695.6" y1="377.49" x2="697.01" y2="383.47" gradientTransform="matrix(1, 0, 0, -1, 0, 770)" gradientUnits="userSpaceOnUse"><stop offset="0" stop-color="#f7bb62"/><stop offset="0.5" stop-color="#f47920"/><stop offset="1" stop-color="#e56102"/></linearGradient><linearGradient id="Новый_образец_градиентной_залив-2" x1="692.06" y1="381.42" x2="694.3" y2="386.79" xlink:href="#Новый_образец_градиентной_залив"/><linearGradient id="Новый_образец_градиентной_залив-3" x1="697.55" y1="384.92" x2="698.7" y2="391.01" xlink:href="#Новый_образец_градиентной_залив"/><linearGradient id="Новый_образец_градиентной_залив-4" x1="665.39" y1="385.92" x2="673.48" y2="400.27" xlink:href="#Новый_образец_градиентной_залив"/><linearGradient id="Новый_образец_градиентной_залив-5" x1="663.23" y1="360.8" x2="665.16" y2="366.45" xlink:href="#Новый_образец_градиентной_залив"/><linearGradient id="Новый_образец_градиентной_залив-6" x1="673.26" y1="361.05" x2="675.89" y2="365.94" xlink:href="#Новый_образец_градиентной_залив"/><linearGradient id="Новый_образец_градиентной_залив-7" x1="659.41" y1="372.07" x2="685.57" y2="385.99" xlink:href="#Новый_образец_градиентной_залив"/><linearGradient id="Новый_образец_градиентной_залив-8" x1="654.61" y1="372.23" x2="702.35" y2="391.27" xlink:href="#Новый_образец_градиентной_залив"/><linearGradient id="Новый_образец_градиентной_залив-9" x1="679.81" y1="387.17" x2="727.55" y2="406.21" xlink:href="#Новый_образец_градиентной_залив"/><linearGradient id="Новый_образец_градиентной_залив-10" x1="694.53" y1="367.29" x2="701.06" y2="370.77" xlink:href="#Новый_образец_градиентной_залив"/><linearGradient id="Новый_образец_градиентной_залив-11" x1="689" y1="366" x2="692.03" y2="370.03" xlink:href="#Новый_образец_градиентной_залив"/><linearGradient id="Новый_образец_градиентной_залив-12" x1="667.15" y1="402.41" x2="673.69" y2="405.88" xlink:href="#Новый_образец_градиентной_залив"/><linearGradient id="Новый_образец_градиентной_залив-13" x1="675" y1="403.33" x2="678.03" y2="407.36" xlink:href="#Новый_образец_градиентной_залив"/><linearGradient id="Новый_образец_градиентной_залив-14" x1="703.51" y1="393.02" x2="708.77" y2="396.07" xlink:href="#Новый_образец_градиентной_залив"/><linearGradient id="Новый_образец_градиентной_залив-15" x1="690.88" y1="405.05" x2="692.92" y2="406.09" xlink:href="#Новый_образец_градиентной_залив"/><linearGradient id="Новый_образец_градиентной_залив-16" x1="688.49" y1="393.7" x2="706.17" y2="401.7" xlink:href="#Новый_образец_градиентной_залив"/><linearGradient id="Новый_образец_градиентной_залив-17" x1="701.9" y1="390.71" x2="703.87" y2="392.08" xlink:href="#Новый_образец_градиентной_залив"/><linearGradient id="Новый_образец_градиентной_залив-18" x1="703.72" y1="392.52" x2="705.76" y2="393.54" xlink:href="#Новый_образец_градиентной_залив"/><linearGradient id="Новый_образец_градиентной_залив-19" x1="695.75" y1="399.15" x2="712.98" y2="406.92" xlink:href="#Новый_образец_градиентной_залив"/><linearGradient id="Новый_образец_градиентной_залив-20" x1="692.78" y1="406.48" x2="694.72" y2="407.9" xlink:href="#Новый_образец_градиентной_залив"/><linearGradient id="Новый_образец_градиентной_залив-21" x1="688.97" y1="403.21" x2="694.23" y2="406.26" xlink:href="#Новый_образец_градиентной_залив"/><linearGradient id="Новый_образец_градиентной_залив-22" x1="691.89" y1="397.28" x2="703.24" y2="401.24" xlink:href="#Новый_образец_градиентной_залив"/><linearGradient id="Новый_образец_градиентной_залив-23" x1="698.74" y1="394.69" x2="705.33" y2="398.19" xlink:href="#Новый_образец_градиентной_залив"/><linearGradient id="Новый_образец_градиентной_залив-24" x1="691.43" y1="395.55" x2="710.34" y2="405.6" xlink:href="#Новый_образец_градиентной_залив"/><linearGradient id="Новый_образец_градиентной_залив-25" x1="698.85" y1="400.96" x2="705.56" y2="404.44" xlink:href="#Новый_образец_градиентной_залив"/></defs><title>project-page-4</title><path class="cls-1" d="M702.6,389.6H689.53a.94.94,0,0,0,0,1.87H702.6a.94.94,0,0,0,0-1.87Z" transform="translate(-655 -356)"/><path class="cls-2" d="M689.53,387.73h6.54a.93.93,0,0,0,0-1.86h-6.54a.93.93,0,1,0,0,1.86Z" transform="translate(-655 -356)"/><path class="cls-3" d="M706.33,382.13h-16.8a.94.94,0,0,0,0,1.87h16.8a.94.94,0,1,0,0-1.87Z" transform="translate(-655 -356)"/><path class="cls-4" d="M660.6,382.13h14.93a1.87,1.87,0,0,0,1.87-1.86V378.4a1.87,1.87,0,0,0-1.87-1.87H660.6a1.87,1.87,0,0,0-1.87,1.87v1.87A1.87,1.87,0,0,0,660.6,382.13Zm0-3.73h14.93v1.87H660.6Z" transform="translate(-655 -356)"/><path class="cls-5" d="M668.07,406.4h-8.4a.94.94,0,1,0,0,1.87h8.4a.94.94,0,0,0,0-1.87Z" transform="translate(-655 -356)"/><path class="cls-6" d="M676.47,406.4H671.8a.94.94,0,0,0,0,1.87h4.67a.94.94,0,0,0,0-1.87Z" transform="translate(-655 -356)"/><path class="cls-7" d="M661.47,399.93l0,0a9.32,9.32,0,0,0,13.15,0l0,0v0a9.3,9.3,0,0,0,0-13.15,0,0,0,0,1,0,0h0a9.33,9.33,0,0,0-13.19,13.19Zm2-.71,4.57-4.57,4.57,4.57A7.39,7.39,0,0,1,663.5,399.22ZM674,397.9l-4.57-4.57,4.57-4.57A7.42,7.42,0,0,1,674,397.9Zm-5.89-12a7.44,7.44,0,0,1,4.57,1.57L662.18,397.9a7.45,7.45,0,0,1,5.89-12Z" transform="translate(-655 -356)"/><path class="cls-8" d="M656.87,412h22.4a1.87,1.87,0,0,0,1.86-1.87v-3.86a3.72,3.72,0,0,0,2.67-2.67h1.07a.94.94,0,0,0,0-1.87H683.8a3.73,3.73,0,0,0-2.67-2.66v-24.4a1.87,1.87,0,0,0-1.86-1.87H669v-.93a.94.94,0,1,0-1.87,0v.93H656.87a1.87,1.87,0,0,0-1.87,1.87v35.46A1.87,1.87,0,0,0,656.87,412Zm0-37.33h22.4v24.38l-.38.13-.17.06a4.19,4.19,0,0,0-.59.32l-.11.09a3.19,3.19,0,0,0-.4.33l-.16.18a3,3,0,0,0-.28.33l-.14.21a2.75,2.75,0,0,0-.2.38,1.63,1.63,0,0,0-.11.23c-.05.14-.1.29-.14.44s0,.14-.05.22a3.3,3.3,0,0,0,0,1.4c0,.07,0,.14.05.21s.09.3.14.44a2.56,2.56,0,0,0,.11.24,3.35,3.35,0,0,0,.2.37l.14.21c.09.12.18.23.28.34a1.29,1.29,0,0,0,.16.17,3.19,3.19,0,0,0,.4.33l.11.09a3.37,3.37,0,0,0,.59.32.85.85,0,0,0,.17.06,2.43,2.43,0,0,0,.38.13v3.85h-22.4Z" transform="translate(-655 -356)"/><path class="cls-9" d="M709.13,356h-22.4a1.87,1.87,0,0,0-1.86,1.87v3.86a3.72,3.72,0,0,0-2.67,2.67h-1.07a.94.94,0,0,0,0,1.87h1.07a3.73,3.73,0,0,0,2.67,2.66v24.4a1.87,1.87,0,0,0,1.86,1.87H697v.93a.94.94,0,1,0,1.87,0v-.93h10.26a1.87,1.87,0,0,0,1.87-1.87V357.87A1.87,1.87,0,0,0,709.13,356Zm0,37.33h-22.4V369l.38-.13.17-.06a4.19,4.19,0,0,0,.59-.32l.11-.09a3.19,3.19,0,0,0,.4-.33l.16-.18a3,3,0,0,0,.28-.33l.14-.21a2.75,2.75,0,0,0,.2-.38,1.63,1.63,0,0,0,.11-.23c.05-.14.1-.29.14-.44s0-.14.05-.22a3.3,3.3,0,0,0,0-1.4c0-.07,0-.14-.05-.21s-.09-.3-.14-.44a2.56,2.56,0,0,0-.11-.24,3.35,3.35,0,0,0-.2-.37l-.14-.21c-.09-.12-.18-.23-.28-.34l-.15-.17a4.23,4.23,0,0,0-.41-.33l-.11-.09a4.19,4.19,0,0,0-.59-.32l-.17-.06-.38-.13v-3.85h22.4Z" transform="translate(-655 -356)"/><path class="cls-10" d="M698.87,400.8v-.93a.94.94,0,1,0-1.87,0v.93a.93.93,0,0,1-.93.93h-.94a.94.94,0,0,0,0,1.87h.94A2.81,2.81,0,0,0,698.87,400.8Z" transform="translate(-655 -356)"/><path class="cls-11" d="M691.4,401.73h-2.8a.94.94,0,0,0,0,1.87h2.8a.94.94,0,0,0,0-1.87Z" transform="translate(-655 -356)"/><path class="cls-12" d="M669.93,364.4a2.81,2.81,0,0,0-2.8,2.8v.93a.94.94,0,1,0,1.87,0v-.93a.93.93,0,0,1,.93-.93h.94a.94.94,0,0,0,0-1.87Z" transform="translate(-655 -356)"/><path class="cls-13" d="M677.4,364.4h-2.8a.94.94,0,0,0,0,1.87h2.8a.94.94,0,0,0,0-1.87Z" transform="translate(-655 -356)"/><path class="cls-14" d="M704,377.89a.32.32,0,0,1-.32-.29l-.33-2.94a.33.33,0,1,1,.65-.07l.29,2.61,2.62-.29a.33.33,0,0,1,.36.29.33.33,0,0,1-.29.36l-2.94.33Z" transform="translate(-655 -356)"/><path class="cls-15" d="M691.17,365.35a.28.28,0,0,1-.21-.08.32.32,0,0,1,0-.46c.24-.28.51-.57.79-.85a.32.32,0,0,1,.46,0,.33.33,0,0,1,0,.46c-.28.27-.53.55-.76.82A.36.36,0,0,1,691.17,365.35Z" transform="translate(-655 -356)"/><path class="cls-16" d="M697.82,380.5h-.23a.34.34,0,0,1-.32-.34.33.33,0,0,1,.33-.32,8.55,8.55,0,0,0,2.21-.22.33.33,0,0,1,.4.25.33.33,0,0,1-.25.39A9.62,9.62,0,0,1,697.82,380.5Zm-2.5-.35h-.09a9.22,9.22,0,0,1-2.19-.94.32.32,0,0,1-.12-.44.33.33,0,0,1,.45-.12,8.36,8.36,0,0,0,2,.87.33.33,0,0,1,.22.41A.32.32,0,0,1,695.32,380.15Zm-3.94-2.31a.32.32,0,0,1-.23-.09,9.53,9.53,0,0,1-1.47-1.88.33.33,0,1,1,.56-.34,9,9,0,0,0,1.37,1.76.32.32,0,0,1,0,.46A.35.35,0,0,1,691.38,377.84ZM689,373.92a.33.33,0,0,1-.31-.24,9.37,9.37,0,0,1-.37-2.36.33.33,0,1,1,.65,0,8.56,8.56,0,0,0,.35,2.19.32.32,0,0,1-.23.4Zm-.1-4.57h-.08a.32.32,0,0,1-.23-.4,9,9,0,0,1,.91-2.2.33.33,0,0,1,.57.32,8.56,8.56,0,0,0-.85,2.05A.32.32,0,0,1,688.94,369.35Z" transform="translate(-655 -356)"/><path class="cls-17" d="M702.06,379.46a.32.32,0,0,1-.29-.17.33.33,0,0,1,.14-.44,9.14,9.14,0,0,0,.94-.58.32.32,0,0,1,.45.09.31.31,0,0,1-.08.45,9.34,9.34,0,0,1-1,.61A.28.28,0,0,1,702.06,379.46Z" transform="translate(-655 -356)"/><path class="cls-18" d="M704,377.89a.31.31,0,0,1-.22-.09.33.33,0,0,1,0-.46c.27-.28.52-.56.74-.83a.33.33,0,0,1,.51.41q-.36.43-.78.87A.33.33,0,0,1,704,377.89Z" transform="translate(-655 -356)"/><path class="cls-19" d="M706,375.19a.33.33,0,0,1-.14,0,.32.32,0,0,1-.14-.44,8.07,8.07,0,0,0,.72-2,.32.32,0,0,1,.39-.25.31.31,0,0,1,.25.38,8.4,8.4,0,0,1-.79,2.18A.32.32,0,0,1,706,375.19Zm.93-4.32a.33.33,0,0,1-.33-.31,8.81,8.81,0,0,0-.37-2.11.32.32,0,1,1,.62-.19,9.16,9.16,0,0,1,.4,2.27.32.32,0,0,1-.3.34Zm-1.3-4.22a.33.33,0,0,1-.28-.16A8.69,8.69,0,0,0,704,364.8a.33.33,0,0,1,.46-.46,9.27,9.27,0,0,1,1.43,1.81.34.34,0,0,1-.11.45A.37.37,0,0,1,705.64,366.65Zm-3.13-3.13a.33.33,0,0,1-.17,0,8.88,8.88,0,0,0-2-.87.33.33,0,0,1,.19-.63,9.5,9.5,0,0,1,2.11.94.33.33,0,0,1,.12.45A.33.33,0,0,1,702.51,363.52Zm-6.46-1.12a.33.33,0,0,1-.32-.26.34.34,0,0,1,.26-.39,9.86,9.86,0,0,1,2.3-.16.33.33,0,1,1,0,.65,9.13,9.13,0,0,0-2.15.16Z" transform="translate(-655 -356)"/><path class="cls-20" d="M692.92,363.65a.31.31,0,0,1-.27-.15.33.33,0,0,1,.1-.45,10.35,10.35,0,0,1,1-.57.32.32,0,0,1,.44.16.33.33,0,0,1-.16.43,9,9,0,0,0-1,.53A.41.41,0,0,1,692.92,363.65Z" transform="translate(-655 -356)"/><path class="cls-21" d="M692.27,367.45a.32.32,0,0,1-.32-.29l-.29-2.61-2.62.29a.33.33,0,0,1-.36-.29.33.33,0,0,1,.29-.36l2.94-.33a.33.33,0,0,1,.36.29l.32,2.94a.32.32,0,0,1-.28.36Z" transform="translate(-655 -356)"/><path class="cls-22" d="M696.57,376.76a2.32,2.32,0,0,1-.71-.18l0,0a6.3,6.3,0,0,1-.84-.37,6.11,6.11,0,0,1-.75-.5,3,3,0,0,1-.34-.28l0,0c-.17-.13-.33-.26-.34-.45a3.53,3.53,0,0,1,.1-1.14,4.08,4.08,0,0,1,.86-1.68,1.81,1.81,0,0,0,.42-1.16.34.34,0,0,0-.12-.27,2.29,2.29,0,0,0-1.49-.29,1.55,1.55,0,0,1-1.09-.36.31.31,0,0,1-.1-.32,5.93,5.93,0,0,1,2.63-3.67c.16-.1.36-.08.7.06a1.29,1.29,0,0,1,.42.26,1.75,1.75,0,0,1,.46.76,2.92,2.92,0,0,1,.06,1.65.84.84,0,0,1-.06.14v0a.66.66,0,0,0,0,.65.8.8,0,0,0,.63.37,2.22,2.22,0,0,1,2,1.41l.12.3c.49,1.41-.56,2.33-1.41,3.07-.21.19-.41.36-.58.53a.51.51,0,0,0-.15.26,1,1,0,0,0,0,.24v.05a5.09,5.09,0,0,1,0,.56.36.36,0,0,1-.15.3A.41.41,0,0,1,696.57,376.76Zm-2.41-2,.1.08.08.06c.09.08.19.17.3.25a5.16,5.16,0,0,0,.67.44,4.5,4.5,0,0,0,.74.33h0l.22.08c0-.05,0-.09,0-.13v0a1.31,1.31,0,0,1,0-.45,1.15,1.15,0,0,1,.34-.6c.19-.19.4-.38.61-.57.95-.83,1.55-1.44,1.22-2.37a1,1,0,0,0-.09-.21,1.62,1.62,0,0,0-1.39-1.06,1.43,1.43,0,0,1-1.18-.68,1.33,1.33,0,0,1-.06-1.28l0,0,0-.06a2.38,2.38,0,0,0-.07-1.23,1.11,1.11,0,0,0-.28-.48.61.61,0,0,0-.22-.13l-.19-.07a5.25,5.25,0,0,0-2.21,3,.9.9,0,0,0,.47.09,2.82,2.82,0,0,1,2,.47,1,1,0,0,1,.32.74,2.43,2.43,0,0,1-.57,1.57,3.57,3.57,0,0,0-.73,1.42A3.24,3.24,0,0,0,694.16,374.79Z" transform="translate(-655 -356)"/><path class="cls-23" d="M699.51,376.65a.32.32,0,0,1-.28-.16l-.46-.76a.69.69,0,0,1-.06-.67c.21-.53,1-.78,1.26-.84a.6.6,0,0,0,.34-.5s0,0,0-.06.35-1.71,1.46-1.71a1.39,1.39,0,0,1,1,.29l.48.49a.33.33,0,0,1,.08.34,5.9,5.9,0,0,1-3.72,3.56Zm1.46-2.89a1.24,1.24,0,0,1-.77,1.07l0,0c-.35.09-.79.3-.85.46,0,0,0,0,0,.08l.32.54a5.31,5.31,0,0,0,3-2.89l-.33-.33a.84.84,0,0,0-.53-.11C701.31,372.6,701,373.47,701,373.76Z" transform="translate(-655 -356)"/><path class="cls-24" d="M697.82,378a6.82,6.82,0,0,1-6.82-7,6.17,6.17,0,0,1,6.5-6.54c3.24,0,7,1.74,7,6.54C704.5,374.28,702.5,377.5,697.82,378Zm0-12.18A5.22,5.22,0,1,0,703,371,5.22,5.22,0,0,0,697.82,365.82Z" transform="translate(-655 -356)"/><path class="cls-25" d="M701.76,370.36a3.34,3.34,0,0,1-2.5-1.42,1.82,1.82,0,0,1-.13-2.37,1.26,1.26,0,0,1,.28-.86l0,0,.08-.07a.33.33,0,0,1,.33-.06,5.89,5.89,0,0,1,3.59,3.85.33.33,0,0,1-.1.34l0,0-.16.12A2.18,2.18,0,0,1,701.76,370.36Zm-1.92-4.13a.72.72,0,0,0-.05.43.33.33,0,0,1-.1.28c-.52.48-.33,1,.11,1.62a2.72,2.72,0,0,0,2,1.15,1.6,1.6,0,0,0,1-.35A5.25,5.25,0,0,0,699.84,366.23Z" transform="translate(-655 -356)"/></svg>