<svg id="Слой_1" data-name="Слой 1" xmlns="http://www.w3.org/2000/svg" xmlns:xlink="http://www.w3.org/1999/xlink" viewBox="0 0 323 326.79"><defs><style>.cls-1,.cls-12,.cls-2{fill:#f0f1f1;}.cls-11,.cls-2,.cls-21{opacity:0.4;}.cls-11,.cls-12,.cls-2,.cls-21,.cls-35,.cls-4,.cls-6{isolation:isolate;}.cls-3{fill:url(#Безымянный_градиент_19);}.cls-4{fill:#020230;}.cls-4,.cls-6{opacity:0.6;}.cls-5{fill:url(#Безымянный_градиент_19-2);}.cls-6{fill:#d7d8dc;}.cls-21,.cls-23,.cls-35,.cls-7{fill:#07306d;}.cls-7{fill-opacity:0.3;}.cls-8{fill:#ccc7bf;}.cls-9{fill:#e5e0d7;}.cls-10,.cls-11{fill:#bdbec5;}.cls-12,.cls-35{opacity:0.5;}.cls-13{fill:url(#Безымянный_градиент_8);}.cls-14{fill:url(#Безымянный_градиент_8-2);}.cls-15{fill:url(#Безымянный_градиент_8-3);}.cls-16{fill:url(#Безымянный_градиент_8-4);}.cls-17{fill:url(#Безымянный_градиент_8-5);}.cls-18{fill:url(#Безымянный_градиент_8-6);}.cls-19{fill:url(#Безымянный_градиент_19-3);}.cls-20{fill:url(#Безымянный_градиент_19-4);}.cls-22{fill:url(#Безымянный_градиент_19-6);}.cls-24{fill:url(#Безымянный_градиент_19-7);}.cls-25{fill:url(#Безымянный_градиент_19-8);}.cls-26{fill:url(#Безымянный_градиент_19-9);}.cls-27{fill:none;}.cls-28{fill:#1346c3;}.cls-29{fill:#4685ff;}.cls-30{fill:#7bd7ff;}.cls-31{fill:#e7e8ea;}.cls-32{fill:url(#Безымянный_градиент_16);}.cls-33{fill:url(#Безымянный_градиент_19-10);}.cls-34{fill:url(#Безымянный_градиент_19-11);}.cls-36{fill:url(#Безымянный_градиент_19-12);}.cls-37{fill:url(#Безымянный_градиент_20);}.cls-38{fill:url(#Безымянный_градиент_21);}</style><linearGradient id="Безымянный_градиент_19" x1="656.39" y1="283.33" x2="878.37" y2="487.8" gradientTransform="matrix(1, 0, 0, -1, 0, 770)" gradientUnits="userSpaceOnUse"><stop offset="0" stop-color="#4b79ce"/><stop offset="0.41" stop-color="#426ab3"/><stop offset="1" stop-color="#2b4a81"/></linearGradient><linearGradient id="Безымянный_градиент_19-2" x1="708.65" y1="314.69" x2="812.73" y2="493.21" xlink:href="#Безымянный_градиент_19"/><linearGradient id="Безымянный_градиент_8" x1="659.79" y1="356.06" x2="708.07" y2="355.11" gradientTransform="matrix(1, 0, 0, -1, 0, 770)" gradientUnits="userSpaceOnUse"><stop offset="0" stop-color="#f47920"/><stop offset="0.9" stop-color="#f7bb62" stop-opacity="0.7"/></linearGradient><linearGradient id="Безымянный_градиент_8-2" x1="667.31" y1="351.76" x2="715.59" y2="350.81" xlink:href="#Безымянный_градиент_8"/><linearGradient id="Безымянный_градиент_8-3" x1="674.81" y1="347.46" x2="723.09" y2="346.51" xlink:href="#Безымянный_градиент_8"/><linearGradient id="Безымянный_градиент_8-4" x1="682.31" y1="343.14" x2="730.62" y2="342.19" xlink:href="#Безымянный_градиент_8"/><linearGradient id="Безымянный_градиент_8-5" x1="689.83" y1="338.84" x2="738.11" y2="337.89" xlink:href="#Безымянный_градиент_8"/><linearGradient id="Безымянный_градиент_8-6" x1="697.33" y1="334.54" x2="745.62" y2="333.59" xlink:href="#Безымянный_градиент_8"/><linearGradient id="Безымянный_градиент_19-3" x1="657.46" y1="338.2" x2="743.65" y2="354.67" xlink:href="#Безымянный_градиент_19"/><linearGradient id="Безымянный_градиент_19-4" x1="611.25" y1="310.87" x2="686.82" y2="324.66" xlink:href="#Безымянный_градиент_19"/><linearGradient id="Безымянный_градиент_19-6" x1="611.27" y1="310.91" x2="686.21" y2="324.46" xlink:href="#Безымянный_градиент_19"/><linearGradient id="Безымянный_градиент_19-7" x1="647.91" y1="374.72" x2="668.02" y2="394.75" xlink:href="#Безымянный_градиент_19"/><linearGradient id="Безымянный_градиент_19-8" x1="655.71" y1="379.22" x2="675.81" y2="399.25" xlink:href="#Безымянный_градиент_19"/><linearGradient id="Безымянный_градиент_19-9" x1="663.5" y1="383.72" x2="683.6" y2="403.75" xlink:href="#Безымянный_градиент_19"/><linearGradient id="Безымянный_градиент_16" x1="578.08" y1="266.8" x2="628.16" y2="241.9" gradientTransform="matrix(1, 0, 0, -1, 0, 770)" gradientUnits="userSpaceOnUse"><stop offset="0" stop-color="#e0f1f4"/><stop offset="0.14" stop-color="#d6eef2"/><stop offset="0.36" stop-color="#bde6ee"/><stop offset="0.65" stop-color="#93d8e7"/><stop offset="0.98" stop-color="#59c6de"/><stop offset="1" stop-color="#56c5dd"/></linearGradient><linearGradient id="Безымянный_градиент_19-10" x1="578.68" y1="246.14" x2="622.04" y2="286.15" xlink:href="#Безымянный_градиент_19"/><linearGradient id="Безымянный_градиент_19-11" x1="572.99" y1="251.24" x2="604.28" y2="266.15" xlink:href="#Безымянный_градиент_19"/><linearGradient id="Безымянный_градиент_19-12" x1="587.58" y1="246.36" x2="604" y2="261.51" xlink:href="#Безымянный_градиент_19"/><radialGradient id="Безымянный_градиент_20" cx="12.8" cy="764.01" r="1" gradientTransform="matrix(44.06, 0, 0, -44.06, 4.7, 34158.52)" gradientUnits="userSpaceOnUse"><stop offset="0" stop-color="#f0f1f1"/><stop offset="0.14" stop-color="#f0f1f1"/><stop offset="0.36" stop-color="#e5e0d7"/><stop offset="0.65" stop-color="#e5e0d7"/><stop offset="0.84" stop-color="#ccc7bf"/><stop offset="0.98" stop-color="#ccc7bf"/></radialGradient><linearGradient id="Безымянный_градиент_21" x1="570.67" y1="265.17" x2="595.71" y2="265.17" gradientTransform="matrix(1, 0, 0, -1, 0, 770)" gradientUnits="userSpaceOnUse"><stop offset="0" stop-color="#f0f1f1"/><stop offset="0.14" stop-color="#f0f1f1"/><stop offset="0.36" stop-color="#e5e0d7"/><stop offset="0.65" stop-color="#e5e0d7"/><stop offset="0.86" stop-color="#ccc7bf"/><stop offset="0.98" stop-color="#ccc7bf"/></linearGradient></defs><title>project-2</title><path class="cls-1" d="M618.57,298.59a2.64,2.64,0,1,1-2.64-2.64A2.64,2.64,0,0,1,618.57,298.59Z" transform="translate(-521 -221)"/><path class="cls-1" d="M650.85,262.39a2.64,2.64,0,1,1-2.64-2.64A2.64,2.64,0,0,1,650.85,262.39Z" transform="translate(-521 -221)"/><path class="cls-1" d="M682.52,300.49a2.65,2.65,0,1,1-2.64-2.64A2.64,2.64,0,0,1,682.52,300.49Z" transform="translate(-521 -221)"/><path class="cls-1" d="M714.52,265.46a2.65,2.65,0,1,1-2.64-2.64A2.64,2.64,0,0,1,714.52,265.46Z" transform="translate(-521 -221)"/><path class="cls-2" d="M615.93,365.22a.54.54,0,0,1-.55-.55V298.59a.55.55,0,1,1,1.1,0v66.08A.55.55,0,0,1,615.93,365.22Z" transform="translate(-521 -221)"/><path class="cls-2" d="M648.21,383.88a.56.56,0,0,1-.56-.56V262.39a.56.56,0,0,1,1.11,0V383.32A.56.56,0,0,1,648.21,383.88Z" transform="translate(-521 -221)"/><path class="cls-2" d="M679.88,402.19a.55.55,0,0,1-.55-.56V300.49a.54.54,0,0,1,.55-.55.55.55,0,0,1,.55.55V401.63A.57.57,0,0,1,679.88,402.19Z" transform="translate(-521 -221)"/><path class="cls-2" d="M711.87,420.54a.55.55,0,0,1-.55-.55V265.69a.56.56,0,0,1,1.11,0V420A.55.55,0,0,1,711.87,420.54Z" transform="translate(-521 -221)"/><path class="cls-1" d="M576.94,326.75a.53.53,0,0,1-.45-.23.55.55,0,0,1,.14-.77l38.93-27.57L647.8,262a.59.59,0,0,1,.42-.19.58.58,0,0,1,.42.2l31.26,37.61,31.58-34.56L749,221.19a.55.55,0,1,1,.84.72L712.3,265.82l-32,35.05a.51.51,0,0,1-.41.18.54.54,0,0,1-.41-.2l-31.26-37.6L616.35,299l-.09.09-39,27.61A.8.8,0,0,1,576.94,326.75Z" transform="translate(-521 -221)"/><path class="cls-3" d="M724.13,483.75,617.72,422.32c-3.14-1.81-2.74-5,.88-7.06l104.66-60.42c3.62-2.09,9.09-2.31,12.21-.5l106.41,61.43c3.14,1.81,2.74,5-.88,7.05L736.34,483.25C732.73,485.34,727.26,485.57,724.13,483.75Z" transform="translate(-521 -221)"/><path class="cls-4" d="M724.13,483.75,617.72,422.32c-3.14-1.81-2.74-5,.88-7.06l104.66-60.42c3.62-2.09,9.09-2.31,12.21-.5l106.41,61.43c3.14,1.81,2.74,5-.88,7.05L736.34,483.25C732.73,485.34,727.26,485.57,724.13,483.75Z" transform="translate(-521 -221)"/><path class="cls-5" d="M617.72,422.32l2.77,1.61L723.25,364.6c3.62-2.09,9.09-2.31,12.21-.5L839.1,423.94l1.89-1.1c3.62-2.1,4-5.25.88-7.06L735.46,354.35c-3.13-1.81-8.6-1.59-12.21.5L618.59,415.28C615,417.36,614.58,420.51,617.72,422.32Z" transform="translate(-521 -221)"/><path class="cls-4" d="M638.22,422.45l99.17-57.25-1.91-1.11c-3.14-1.81-8.61-1.59-12.22.5L620.51,423.91l103.63,59.84c2.21,1.28,5.58,1.53,8.64.85l-95.44-55.1C634.21,427.7,634.6,424.54,638.22,422.45Z" transform="translate(-521 -221)"/><path class="cls-4" d="M735.46,354.34c-3.13-1.81-8.6-1.59-12.21.5L618.59,415.26c-3.62,2.1-4,5.25-.88,7.06l2.77,1.61L723.24,364.6c3.62-2.09,9.09-2.31,12.21-.5l1.92,1.11v-9.75Z" transform="translate(-521 -221)"/><path class="cls-1" d="M714.16,433.9l16.43-9.57a3.81,3.81,0,0,1,3.49.07c1,.59,1,1.52,0,2.07L717.71,436a3.78,3.78,0,0,1-3.49-.07C713.24,435.37,713.21,434.45,714.16,433.9Z" transform="translate(-521 -221)"/><path class="cls-1" d="M706.8,431.49c-1-.6-1-1.52,0-2.07L732,414.7a3.81,3.81,0,0,1,3.49.07c1,.59,1,1.52.06,2.07l-25.28,14.71A3.75,3.75,0,0,1,706.8,431.49Z" transform="translate(-521 -221)"/><path class="cls-1" d="M699.33,425,704.4,422a3.78,3.78,0,0,1,3.49.07c1,.59,1,1.52.06,2.07l-5.08,2.94a3.81,3.81,0,0,1-3.49-.06C698.4,426.43,698.38,425.51,699.33,425Z" transform="translate(-521 -221)"/><path class="cls-1" d="M691.91,420.49l14.31-8.33a3.81,3.81,0,0,1,3.49.07c1,.59,1,1.52,0,2.07l-14.3,8.33a3.81,3.81,0,0,1-3.49-.07C691,422,691,421,691.91,420.49Z" transform="translate(-521 -221)"/><path class="cls-1" d="M728.46,410.1c1,.6,1,1.52,0,2.07l-14.3,8.33a3.81,3.81,0,0,1-3.49-.06c-1-.6-1-1.52-.06-2.07L725,410A3.78,3.78,0,0,1,728.46,410.1Z" transform="translate(-521 -221)"/><path class="cls-1" d="M739.71,405.65l-.83.48-4.06,2.37a3.81,3.81,0,0,1-3.49-.07c-1-.59-1-1.52-.06-2.07l4.06-2.36.84-.49,4.06-2.36a3.81,3.81,0,0,1,3.49.06c1,.6,1,1.52,0,2.07Z" transform="translate(-521 -221)"/><path class="cls-1" d="M732.75,444.87l5.16-2.92a3.85,3.85,0,0,1,3.48,0,1.07,1.07,0,0,1,0,2l-5.17,2.91a3.82,3.82,0,0,1-3.47,0A1.06,1.06,0,0,1,732.75,444.87Z" transform="translate(-521 -221)"/><path class="cls-1" d="M725.5,440.59l14.58-8.25a3.82,3.82,0,0,1,3.47,0,1.06,1.06,0,0,1,0,2L729,442.63a3.82,3.82,0,0,1-3.47,0A1.06,1.06,0,0,1,725.5,440.59Z" transform="translate(-521 -221)"/><path class="cls-1" d="M762.35,430.12a1.06,1.06,0,0,1,0,2l-14.58,8.25a3.85,3.85,0,0,1-3.48,0,1.06,1.06,0,0,1,0-2l14.58-8.24A3.85,3.85,0,0,1,762.35,430.12Z" transform="translate(-521 -221)"/><path class="cls-1" d="M773.74,425.68l-.86.48-4.14,2.34a3.82,3.82,0,0,1-3.47,0,1.06,1.06,0,0,1,0-2l4.14-2.35.85-.48,4.14-2.35a3.85,3.85,0,0,1,3.48,0,1.06,1.06,0,0,1,0,2Z" transform="translate(-521 -221)"/><path class="cls-6" d="M586,495.73l-40.76-23.54c-1.5-.86-1.31-2.37.42-3.37l43.2-25a6.51,6.51,0,0,1,5.83-.24l40.76,23.53c1.5.86,1.31,2.37-.42,3.37l-43.2,25A6.51,6.51,0,0,1,586,495.73Z" transform="translate(-521 -221)"/><path class="cls-7" d="M636.37,451.46l-43.58-25.17a7.35,7.35,0,0,1-3.07-5.86V316.13c0-2.26,1.37-3.3,3.07-2.32L636.37,339a7.35,7.35,0,0,1,3.07,5.87V449.13C639.44,451.4,638.07,452.44,636.37,451.46Z" transform="translate(-521 -221)"/><path class="cls-8" d="M636.37,339l-43.58-25.16a2,2,0,0,0-2-.18l-49.76,28.71,2.34,8.67,45.37,129.22,49.56-28.59h0l.09-.05a2.76,2.76,0,0,0,1-2.45V344.84A7.35,7.35,0,0,0,636.37,339Z" transform="translate(-521 -221)"/><path class="cls-9" d="M636.37,339l-43.58-25.16a2,2,0,0,0-2-.18l-49.76,28.71,2.34,8.67,12.48,35.53,2.34,1.36,80.37-46.41A6.32,6.32,0,0,0,636.37,339Z" transform="translate(-521 -221)"/><path class="cls-1" d="M586.66,480.14,543.07,455a7.38,7.38,0,0,1-3.07-5.87V344.82c0-2.26,1.38-3.3,3.07-2.32l43.59,25.16a7.38,7.38,0,0,1,3.07,5.87V477.82C589.73,480.08,588.35,481.12,586.66,480.14Z" transform="translate(-521 -221)"/><path class="cls-10" d="M583.92,473.86l-38.1-22a6.4,6.4,0,0,1-2.68-5.12V349.87c0-2,1.2-2.88,2.68-2l38.1,22A6.44,6.44,0,0,1,586.6,375v96.87C586.59,473.81,585.39,474.72,583.92,473.86Z" transform="translate(-521 -221)"/><path class="cls-10" d="M583.92,473.86l-38.1-22a6.4,6.4,0,0,1-2.68-5.12V349.87c0-2,1.2-2.88,2.68-2l38.1,22A6.44,6.44,0,0,1,586.6,375v96.87C586.59,473.81,585.39,474.72,583.92,473.86Z" transform="translate(-521 -221)"/><path class="cls-11" d="M583.92,473.86l-38.1-22a6.4,6.4,0,0,1-2.68-5.12V349.87c0-2,1.2-2.88,2.68-2l38.1,22A6.44,6.44,0,0,1,586.6,375v96.87C586.59,473.81,585.39,474.72,583.92,473.86Z" transform="translate(-521 -221)"/><path class="cls-7" d="M585.16,473.12l-38.1-22a6.44,6.44,0,0,1-2.68-5.13V349.13a3.15,3.15,0,0,1,.38-1.62c-1,0-1.62.87-1.62,2.36v96.87a6.4,6.4,0,0,0,2.68,5.12l38.1,22a1.56,1.56,0,0,0,2.3-.41A2.2,2.2,0,0,1,585.16,473.12Z" transform="translate(-521 -221)"/><path class="cls-10" d="M589.77,351.28l-17.37-10c-.9-.51-.79-1.42.25-2a3.83,3.83,0,0,1,3.48-.14l17.37,10c.89.52.78,1.42-.25,2A3.87,3.87,0,0,1,589.77,351.28Z" transform="translate(-521 -221)"/><path class="cls-7" d="M572.65,340.49a3.87,3.87,0,0,1,3.48-.14l17.37,10a1.38,1.38,0,0,1,.34.28,1,1,0,0,0-.34-1.53l-17.37-10a3.83,3.83,0,0,0-3.48.14c-.87.49-1.08,1.21-.6,1.74A2.32,2.32,0,0,1,572.65,340.49Z" transform="translate(-521 -221)"/><path class="cls-10" d="M597.56,346.78l-17.37-10c-.9-.52-.79-1.42.25-2a3.83,3.83,0,0,1,3.48-.14l17.37,10c.89.52.78,1.42-.25,2A3.87,3.87,0,0,1,597.56,346.78Z" transform="translate(-521 -221)"/><path class="cls-7" d="M580.44,336a3.87,3.87,0,0,1,3.48-.14l17.37,10a1.08,1.08,0,0,1,.34.28,1,1,0,0,0-.34-1.53l-17.37-10a3.83,3.83,0,0,0-3.48.14c-.87.49-1.08,1.21-.59,1.74A2.11,2.11,0,0,1,580.44,336Z" transform="translate(-521 -221)"/><path class="cls-10" d="M605.36,342.29l-17.37-10c-.89-.51-.78-1.42.25-2a3.84,3.84,0,0,1,3.48-.14l17.37,10c.89.52.78,1.42-.25,2A3.93,3.93,0,0,1,605.36,342.29Z" transform="translate(-521 -221)"/><path class="cls-7" d="M588.23,331.49a3.87,3.87,0,0,1,3.48-.14l17.37,10a1.08,1.08,0,0,1,.34.28,1,1,0,0,0-.34-1.53l-17.37-10a3.87,3.87,0,0,0-3.48.15c-.87.49-1.08,1.21-.59,1.74A2.11,2.11,0,0,1,588.23,331.49Z" transform="translate(-521 -221)"/><path class="cls-2" d="M576.09,388l-.17-.1a2.75,2.75,0,0,1-1.16-2.2v-2.93c0-.85.52-1.24,1.16-.87l.17.1a2.74,2.74,0,0,1,1.16,2.2v2.93C577.24,388,576.72,388.36,576.09,388Z" transform="translate(-521 -221)"/><path class="cls-1" d="M576.09,396.63l-.17-.09a2.77,2.77,0,0,1-1.16-2.2v-2.93c0-.85.52-1.25,1.16-.87l.17.1a2.74,2.74,0,0,1,1.16,2.2v2.93C577.24,396.61,576.72,397,576.09,396.63Z" transform="translate(-521 -221)"/><path class="cls-2" d="M576.09,405.27l-.17-.1a2.74,2.74,0,0,1-1.16-2.2v-2.92c0-.85.52-1.25,1.16-.87l.17.1a2.74,2.74,0,0,1,1.16,2.2v2.92C577.24,405.25,576.72,405.64,576.09,405.27Z" transform="translate(-521 -221)"/><path class="cls-1" d="M576.09,413.91l-.17-.1a2.74,2.74,0,0,1-1.16-2.2v-2.93c0-.84.52-1.24,1.16-.86l.17.09a2.77,2.77,0,0,1,1.16,2.21V413C577.24,413.88,576.72,414.27,576.09,413.91Z" transform="translate(-521 -221)"/><path class="cls-1" d="M576.09,422.55l-.17-.1a2.74,2.74,0,0,1-1.16-2.2v-2.93c0-.84.52-1.24,1.16-.87l.17.1a2.77,2.77,0,0,1,1.16,2.2v2.93C577.24,422.52,576.72,422.91,576.09,422.55Z" transform="translate(-521 -221)"/><path class="cls-1" d="M576.09,431.19l-.17-.1a2.74,2.74,0,0,1-1.16-2.2V426c0-.85.52-1.24,1.16-.87l.17.1a2.74,2.74,0,0,1,1.16,2.2v2.93C577.24,431.15,576.72,431.55,576.09,431.19Z" transform="translate(-521 -221)"/><path class="cls-1" d="M576.09,439.83l-.17-.1a2.77,2.77,0,0,1-1.16-2.2V434.6c0-.85.52-1.25,1.16-.87l.17.1a2.74,2.74,0,0,1,1.16,2.2V439C577.24,439.79,576.72,440.19,576.09,439.83Z" transform="translate(-521 -221)"/><path class="cls-1" d="M576.09,448.46l-.17-.09a2.77,2.77,0,0,1-1.16-2.21v-2.92c0-.85.52-1.25,1.16-.87l.17.1a2.74,2.74,0,0,1,1.16,2.2v2.92C577.24,448.43,576.72,448.83,576.09,448.46Z" transform="translate(-521 -221)"/><path class="cls-1" d="M576.09,457.1l-.17-.1a2.74,2.74,0,0,1-1.16-2.2v-2.92c0-.85.52-1.25,1.16-.87l.17.09a2.77,2.77,0,0,1,1.16,2.21v2.92C577.24,457.07,576.72,457.46,576.09,457.1Z" transform="translate(-521 -221)"/><path class="cls-12" d="M570.51,384.78l-.17-.1a2.74,2.74,0,0,1-1.16-2.2v-2.92c0-.85.52-1.25,1.16-.87l.17.1a2.74,2.74,0,0,1,1.16,2.2v2.92C571.67,384.75,571.15,385.15,570.51,384.78Z" transform="translate(-521 -221)"/><path class="cls-1" d="M570.51,393.42l-.17-.1a2.74,2.74,0,0,1-1.16-2.2V388.2c0-.85.52-1.25,1.16-.87l.17.1a2.74,2.74,0,0,1,1.16,2.2v2.92C571.67,393.39,571.15,393.79,570.51,393.42Z" transform="translate(-521 -221)"/><path class="cls-1" d="M570.51,402.06l-.17-.1a2.74,2.74,0,0,1-1.16-2.2v-2.93c0-.84.52-1.24,1.16-.87l.17.1a2.77,2.77,0,0,1,1.16,2.2v2.93C571.67,402,571.15,402.42,570.51,402.06Z" transform="translate(-521 -221)"/><path class="cls-1" d="M570.51,410.7l-.17-.1a2.74,2.74,0,0,1-1.16-2.2v-2.93c0-.85.52-1.24,1.16-.87l.17.1a2.74,2.74,0,0,1,1.16,2.2v2.93C571.67,410.66,571.15,411.06,570.51,410.7Z" transform="translate(-521 -221)"/><path class="cls-1" d="M570.51,419.34l-.17-.1a2.77,2.77,0,0,1-1.16-2.2v-2.93c0-.85.52-1.24,1.16-.87l.17.1a2.74,2.74,0,0,1,1.16,2.2v2.93C571.67,419.3,571.15,419.7,570.51,419.34Z" transform="translate(-521 -221)"/><path class="cls-12" d="M570.51,428l-.17-.1a2.74,2.74,0,0,1-1.16-2.2v-2.92c0-.85.52-1.25,1.16-.87l.17.1a2.74,2.74,0,0,1,1.16,2.2v2.92C571.67,427.94,571.15,428.34,570.51,428Z" transform="translate(-521 -221)"/><path class="cls-1" d="M570.51,436.6l-.17-.1a2.74,2.74,0,0,1-1.16-2.2v-2.92c0-.85.52-1.25,1.16-.87l.17.09a2.77,2.77,0,0,1,1.16,2.2v2.93C571.67,436.58,571.15,437,570.51,436.6Z" transform="translate(-521 -221)"/><path class="cls-1" d="M570.51,445.24l-.17-.1a2.74,2.74,0,0,1-1.16-2.2V440c0-.85.52-1.24,1.16-.87l.17.1a2.77,2.77,0,0,1,1.16,2.2v2.93C571.67,445.22,571.15,445.61,570.51,445.24Z" transform="translate(-521 -221)"/><path class="cls-12" d="M570.51,453.88l-.17-.1a2.74,2.74,0,0,1-1.16-2.2v-2.93c0-.85.52-1.24,1.16-.87l.17.1a2.74,2.74,0,0,1,1.16,2.2V453C571.67,453.86,571.15,454.25,570.51,453.88Z" transform="translate(-521 -221)"/><path class="cls-1" d="M565,381.56l-.18-.1a2.74,2.74,0,0,1-1.16-2.2v-2.93c0-.84.52-1.24,1.16-.87l.18.1a2.79,2.79,0,0,1,1.15,2.2v2.93C566.1,381.54,565.58,381.93,565,381.56Z" transform="translate(-521 -221)"/><path class="cls-1" d="M565,390.2l-.18-.1a2.75,2.75,0,0,1-1.16-2.2V385c0-.85.52-1.24,1.16-.87l.18.1a2.76,2.76,0,0,1,1.15,2.2v2.93C566.1,390.18,565.58,390.57,565,390.2Z" transform="translate(-521 -221)"/><path class="cls-12" d="M565,398.84l-.18-.1a2.77,2.77,0,0,1-1.16-2.2v-2.93c0-.85.52-1.24,1.16-.87l.18.1a2.76,2.76,0,0,1,1.15,2.2V398C566.1,398.81,565.58,399.21,565,398.84Z" transform="translate(-521 -221)"/><path class="cls-1" d="M565,407.47l-.18-.09a2.77,2.77,0,0,1-1.16-2.21v-2.92c0-.85.52-1.25,1.16-.87l.18.1a2.76,2.76,0,0,1,1.15,2.2v2.92C566.1,407.45,565.58,407.85,565,407.47Z" transform="translate(-521 -221)"/><path class="cls-12" d="M565,416.11l-.18-.1a2.74,2.74,0,0,1-1.16-2.2v-2.93c0-.84.52-1.24,1.16-.86l.18.1a2.76,2.76,0,0,1,1.15,2.2v2.92C566.1,416.09,565.58,416.49,565,416.11Z" transform="translate(-521 -221)"/><path class="cls-1" d="M565,424.75l-.18-.1a2.74,2.74,0,0,1-1.16-2.2v-2.93c0-.84.52-1.24,1.16-.87l.18.1a2.79,2.79,0,0,1,1.15,2.2v2.93C566.1,424.73,565.58,425.11,565,424.75Z" transform="translate(-521 -221)"/><path class="cls-2" d="M565,433.39l-.18-.1a2.74,2.74,0,0,1-1.16-2.2v-2.93c0-.85.52-1.24,1.16-.87l.18.1a2.76,2.76,0,0,1,1.15,2.2v2.93C566.1,433.37,565.58,433.75,565,433.39Z" transform="translate(-521 -221)"/><path class="cls-12" d="M565,442l-.18-.1a2.77,2.77,0,0,1-1.16-2.2V436.8c0-.85.52-1.24,1.16-.87l.18.1a2.76,2.76,0,0,1,1.15,2.2v2.93C566.1,442,565.58,442.39,565,442Z" transform="translate(-521 -221)"/><path class="cls-12" d="M565,450.66l-.18-.09a2.77,2.77,0,0,1-1.16-2.2v-2.93c0-.85.52-1.25,1.16-.87l.18.1a2.76,2.76,0,0,1,1.15,2.2v2.92C566.1,450.64,565.58,451,565,450.66Z" transform="translate(-521 -221)"/><path class="cls-1" d="M559.38,378.35l-.18-.1a2.76,2.76,0,0,1-1.15-2.2v-2.93c0-.85.51-1.24,1.15-.87l.18.1a2.73,2.73,0,0,1,1.15,2.2v2.93C560.53,378.32,560,378.71,559.38,378.35Z" transform="translate(-521 -221)"/><path class="cls-12" d="M559.38,387l-.18-.11a2.73,2.73,0,0,1-1.15-2.2v-2.92c0-.85.51-1.25,1.15-.87l.18.1a2.73,2.73,0,0,1,1.15,2.2v2.93C560.53,387,560,387.35,559.38,387Z" transform="translate(-521 -221)"/><path class="cls-12" d="M559.38,395.62l-.18-.1a2.73,2.73,0,0,1-1.15-2.2V390.4c0-.85.51-1.25,1.15-.87l.18.1a2.73,2.73,0,0,1,1.15,2.2v2.92C560.53,395.6,560,396,559.38,395.62Z" transform="translate(-521 -221)"/><path class="cls-1" d="M559.38,404.26l-.18-.1a2.73,2.73,0,0,1-1.15-2.2V399c0-.84.51-1.24,1.15-.87l.18.1a2.76,2.76,0,0,1,1.15,2.2v2.93C560.53,404.24,560,404.62,559.38,404.26Z" transform="translate(-521 -221)"/><path class="cls-1" d="M559.38,412.9l-.18-.1a2.73,2.73,0,0,1-1.15-2.2v-2.93c0-.85.51-1.24,1.15-.87l.18.1a2.75,2.75,0,0,1,1.15,2.2V412C560.53,412.88,560,413.26,559.38,412.9Z" transform="translate(-521 -221)"/><path class="cls-12" d="M559.38,421.54l-.18-.1a2.76,2.76,0,0,1-1.15-2.2v-2.93c0-.85.51-1.24,1.15-.87l.18.1a2.73,2.73,0,0,1,1.15,2.2v2.93C560.53,421.51,560,421.9,559.38,421.54Z" transform="translate(-521 -221)"/><path class="cls-1" d="M559.38,430.18l-.18-.1a2.76,2.76,0,0,1-1.15-2.2V425c0-.85.51-1.24,1.15-.87l.18.1a2.73,2.73,0,0,1,1.15,2.2v2.93C560.53,430.15,560,430.54,559.38,430.18Z" transform="translate(-521 -221)"/><path class="cls-1" d="M559.38,438.81l-.18-.1a2.73,2.73,0,0,1-1.15-2.2v-2.92c0-.85.51-1.25,1.15-.87l.18.1a2.73,2.73,0,0,1,1.15,2.2v2.92C560.53,438.78,560,439.18,559.38,438.81Z" transform="translate(-521 -221)"/><path class="cls-1" d="M559.38,447.45l-.18-.1a2.73,2.73,0,0,1-1.15-2.2v-2.92c0-.85.51-1.25,1.15-.88l.18.1a2.76,2.76,0,0,1,1.15,2.2v2.93C560.53,447.42,560,447.82,559.38,447.45Z" transform="translate(-521 -221)"/><path class="cls-1" d="M553.81,375.13l-.18-.1a2.76,2.76,0,0,1-1.15-2.2v-2.92c0-.85.52-1.25,1.15-.87l.18.1a2.74,2.74,0,0,1,1.16,2.2v2.92C555,375.1,554.44,375.5,553.81,375.13Z" transform="translate(-521 -221)"/><path class="cls-1" d="M553.81,383.77l-.18-.1a2.76,2.76,0,0,1-1.15-2.2v-2.93c0-.84.52-1.24,1.15-.86l.18.09A2.77,2.77,0,0,1,555,380v2.92C555,383.74,554.44,384.13,553.81,383.77Z" transform="translate(-521 -221)"/><path class="cls-12" d="M553.81,392.41l-.18-.1a2.76,2.76,0,0,1-1.15-2.2v-2.93c0-.84.52-1.24,1.15-.87l.18.1a2.77,2.77,0,0,1,1.16,2.2v2.93C555,392.38,554.44,392.77,553.81,392.41Z" transform="translate(-521 -221)"/><path class="cls-2" d="M553.81,401.05l-.18-.1a2.76,2.76,0,0,1-1.15-2.2v-2.93c0-.85.52-1.24,1.15-.87l.18.1a2.74,2.74,0,0,1,1.16,2.2v2.93C555,401,554.44,401.41,553.81,401.05Z" transform="translate(-521 -221)"/><path class="cls-12" d="M553.81,409.69l-.18-.1a2.79,2.79,0,0,1-1.15-2.2v-2.93c0-.85.52-1.25,1.15-.87l.18.1a2.74,2.74,0,0,1,1.16,2.2v2.93C555,409.65,554.44,410.05,553.81,409.69Z" transform="translate(-521 -221)"/><path class="cls-1" d="M553.81,418.32l-.18-.09a2.79,2.79,0,0,1-1.15-2.21V413.1c0-.85.52-1.25,1.15-.87l.18.1a2.74,2.74,0,0,1,1.16,2.2v2.93C555,418.29,554.44,418.69,553.81,418.32Z" transform="translate(-521 -221)"/><path class="cls-1" d="M553.81,427l-.18-.1a2.76,2.76,0,0,1-1.15-2.2v-2.92c0-.85.52-1.25,1.15-.87l.18.09a2.77,2.77,0,0,1,1.16,2.21v2.92C555,426.93,554.44,427.32,553.81,427Z" transform="translate(-521 -221)"/><path class="cls-1" d="M553.81,435.6l-.18-.1a2.76,2.76,0,0,1-1.15-2.2v-2.93c0-.84.52-1.24,1.15-.87l.18.1a2.77,2.77,0,0,1,1.16,2.2v2.93C555,435.57,554.44,436,553.81,435.6Z" transform="translate(-521 -221)"/><path class="cls-1" d="M553.81,444.24l-.18-.1a2.76,2.76,0,0,1-1.15-2.2V439c0-.85.52-1.24,1.15-.87l.18.1a2.75,2.75,0,0,1,1.16,2.2v2.93C555,444.21,554.44,444.6,553.81,444.24Z" transform="translate(-521 -221)"/><path class="cls-13" d="M663.38,472.33a.72.72,0,0,1-.6-.34.7.7,0,0,1,.26-.94l13.53-7.81a13.28,13.28,0,0,0,6-10.4v-91.6c0-1.71-.54-2.95-1.52-3.51s-2.33-.41-3.81.43L663.71,366a.69.69,0,1,1-.68-1.19L676.56,357c1.92-1.1,3.75-1.27,5.16-.44s2.2,2.48,2.2,4.7v91.6a14.78,14.78,0,0,1-6.68,11.58l-13.53,7.81A.48.48,0,0,1,663.38,472.33Z" transform="translate(-521 -221)"/><path class="cls-14" d="M670.89,476.63a.69.69,0,0,1-.59-.34.68.68,0,0,1,.25-.93l13.54-7.82a13.25,13.25,0,0,0,6-10.39V365.54c0-1.71-.54-3-1.51-3.51s-2.34-.41-3.81.44l-13.54,7.81a.68.68,0,0,1-.93-.25.69.69,0,0,1,.25-.94l13.54-7.81c1.91-1.11,3.75-1.27,5.16-.44s2.2,2.49,2.2,4.7v91.61a14.76,14.76,0,0,1-6.68,11.57l-13.54,7.82A.57.57,0,0,1,670.89,476.63Z" transform="translate(-521 -221)"/><path class="cls-15" d="M678.4,480.94a.72.72,0,0,1-.6-.34.7.7,0,0,1,.26-.94l13.53-7.81a13.29,13.29,0,0,0,6-10.4V369.84c0-1.71-.54-2.95-1.52-3.52s-2.33-.41-3.81.44l-13.53,7.81a.69.69,0,0,1-.94-.25.7.7,0,0,1,.26-.94l13.53-7.81c1.92-1.1,3.75-1.27,5.16-.44s2.2,2.49,2.2,4.7v91.61A14.75,14.75,0,0,1,692.26,473l-13.53,7.82A.46.46,0,0,1,678.4,480.94Z" transform="translate(-521 -221)"/><path class="cls-16" d="M685.9,485.25a.69.69,0,0,1-.34-1.28l13.54-7.81a13.26,13.26,0,0,0,6-10.4V374.15c0-1.7-.54-2.94-1.51-3.51s-2.34-.4-3.81.44l-13.54,7.82a.69.69,0,0,1-.93-.26.68.68,0,0,1,.25-.93l13.54-7.81c1.91-1.11,3.75-1.27,5.17-.44s2.2,2.48,2.2,4.69v91.61a14.78,14.78,0,0,1-6.68,11.58l-13.54,7.81A.61.61,0,0,1,685.9,485.25Z" transform="translate(-521 -221)"/><path class="cls-17" d="M693.42,489.55a.72.72,0,0,1-.6-.34.69.69,0,0,1,.26-.93l13.53-7.82a13.25,13.25,0,0,0,6-10.39V378.46c0-1.71-.54-2.95-1.52-3.51s-2.33-.41-3.81.44l-13.53,7.81a.69.69,0,0,1-.94-.25.7.7,0,0,1,.26-.94l13.53-7.81c1.92-1.11,3.75-1.27,5.16-.44s2.2,2.48,2.2,4.7v91.61a14.78,14.78,0,0,1-6.68,11.57l-13.53,7.81A.58.58,0,0,1,693.42,489.55Z" transform="translate(-521 -221)"/><path class="cls-18" d="M700.92,493.86a.7.7,0,0,1-.59-.35.68.68,0,0,1,.25-.93l13.54-7.81a13.28,13.28,0,0,0,6-10.4V382.76c0-1.71-.54-2.95-1.51-3.52s-2.34-.41-3.81.44l-13.54,7.81a.68.68,0,0,1-.93-.25.69.69,0,0,1,.25-.94l13.53-7.81c1.92-1.1,3.76-1.27,5.17-.44s2.2,2.49,2.2,4.7v91.61a14.79,14.79,0,0,1-6.68,11.57l-13.54,7.82A.59.59,0,0,1,700.92,493.86Z" transform="translate(-521 -221)"/><path class="cls-1" d="M708.62,538.64a7.78,7.78,0,0,1-4-1.11l-33.4-19.92a.68.68,0,0,1,.7-1.16l33.4,19.91a6.53,6.53,0,0,0,6.58,0L818.6,474.64a2,2,0,0,0,0-3.42l-30-17.84a.68.68,0,1,1,.69-1.17l30,17.83a3.35,3.35,0,0,1-.05,5.77L712.55,537.57A7.72,7.72,0,0,1,708.62,538.64Z" transform="translate(-521 -221)"/><path class="cls-6" d="M657.38,539.45l-40.76-23.54c-1.49-.86-1.31-2.37.42-3.37l43.2-25a6.51,6.51,0,0,1,5.83-.24l40.76,23.53c1.5.86,1.31,2.37-.42,3.37l-43.2,25A6.45,6.45,0,0,1,657.38,539.45Z" transform="translate(-521 -221)"/><path class="cls-19" d="M707.76,495.18,664.17,470a7.37,7.37,0,0,1-3.07-5.86V359.85c0-2.26,1.38-3.3,3.07-2.32l43.59,25.16a7.38,7.38,0,0,1,3.07,5.87V492.85C710.82,495.12,709.45,496.15,707.76,495.18Z" transform="translate(-521 -221)"/><path class="cls-8" d="M707.76,382.69l-43.59-25.16a2,2,0,0,0-2-.18l-49.76,28.71,2.34,8.67L660.14,524l49.57-28.59h0l.09-.05a2.8,2.8,0,0,0,1-2.45V388.56A7.41,7.41,0,0,0,707.76,382.69Z" transform="translate(-521 -221)"/><path class="cls-9" d="M707.76,382.69l-43.59-25.16a2,2,0,0,0-2-.18l-49.76,28.71,2.34,8.67,12.48,35.53,2.35,1.36L710,385.21A6.32,6.32,0,0,0,707.76,382.69Z" transform="translate(-521 -221)"/><path class="cls-1" d="M658,523.86,614.44,498.7a7.38,7.38,0,0,1-3.07-5.87V388.54c0-2.26,1.38-3.3,3.07-2.33L658,411.38a7.35,7.35,0,0,1,3.07,5.86v104.3C661.1,523.81,659.73,524.84,658,523.86Z" transform="translate(-521 -221)"/><path class="cls-20" d="M655.29,517.58l-38.1-22a6.41,6.41,0,0,1-2.68-5.13V393.59c0-2,1.2-2.89,2.68-2l38.1,22A6.44,6.44,0,0,1,658,418.7v96.87C658,517.54,656.76,518.44,655.29,517.58Z" transform="translate(-521 -221)"/><path class="cls-20" d="M655.29,517.58l-38.1-22a6.41,6.41,0,0,1-2.68-5.13V393.59c0-2,1.2-2.89,2.68-2l38.1,22A6.44,6.44,0,0,1,658,418.7v96.87C658,517.54,656.76,518.44,655.29,517.58Z" transform="translate(-521 -221)"/><path class="cls-21" d="M655.29,517.58l-38.1-22a6.41,6.41,0,0,1-2.68-5.13V393.59c0-2,1.2-2.89,2.68-2l38.1,22A6.44,6.44,0,0,1,658,418.7v96.87C658,517.54,656.76,518.44,655.29,517.58Z" transform="translate(-521 -221)"/><path class="cls-22" d="M656.53,516.85l-38.09-22a6.42,6.42,0,0,1-2.69-5.13V392.86a3.15,3.15,0,0,1,.39-1.62c-1,0-1.63.87-1.63,2.36v96.87a6.4,6.4,0,0,0,2.68,5.12l38.1,22a1.56,1.56,0,0,0,2.3-.41A2.35,2.35,0,0,1,656.53,516.85Z" transform="translate(-521 -221)"/><path class="cls-23" d="M661.14,395l-17.37-10c-.89-.52-.78-1.42.25-2a3.87,3.87,0,0,1,3.48-.15l17.37,10c.89.52.78,1.42-.25,2A3.9,3.9,0,0,1,661.14,395Z" transform="translate(-521 -221)"/><path class="cls-24" d="M644,384.21a3.87,3.87,0,0,1,3.48-.14l17.38,10a1.38,1.38,0,0,1,.34.28,1,1,0,0,0-.34-1.53l-17.38-10A3.87,3.87,0,0,0,644,383c-.87.49-1.08,1.21-.59,1.74A2,2,0,0,1,644,384.21Z" transform="translate(-521 -221)"/><path class="cls-23" d="M669,390.51l-17.38-10c-.89-.52-.78-1.42.25-2a3.87,3.87,0,0,1,3.48-.15l17.38,10c.89.52.78,1.42-.26,2A3.85,3.85,0,0,1,669,390.51Z" transform="translate(-521 -221)"/><path class="cls-25" d="M651.81,379.71a3.87,3.87,0,0,1,3.48-.14l17.38,10a1.38,1.38,0,0,1,.34.28,1,1,0,0,0-.34-1.53l-17.38-10a3.87,3.87,0,0,0-3.48.15c-.87.49-1.07,1.21-.59,1.74A2,2,0,0,1,651.81,379.71Z" transform="translate(-521 -221)"/><path class="cls-23" d="M676.74,386l-17.38-10c-.89-.52-.78-1.42.26-2a3.85,3.85,0,0,1,3.47-.15l17.38,10c.89.52.78,1.42-.26,2A3.85,3.85,0,0,1,676.74,386Z" transform="translate(-521 -221)"/><path class="cls-26" d="M659.6,375.21a3.87,3.87,0,0,1,3.48-.14l17.38,10a1.38,1.38,0,0,1,.34.28,1,1,0,0,0-.34-1.53l-17.38-10a3.87,3.87,0,0,0-3.48.15c-.87.49-1.08,1.21-.59,1.73A2.5,2.5,0,0,1,659.6,375.21Z" transform="translate(-521 -221)"/><path class="cls-2" d="M647.47,431.72l-.18-.1a2.76,2.76,0,0,1-1.15-2.2v-2.93c0-.85.51-1.25,1.15-.87l.18.1a2.76,2.76,0,0,1,1.15,2.2v2.93C648.62,431.69,648.09,432.09,647.47,431.72Z" transform="translate(-521 -221)"/><path class="cls-1" d="M647.47,440.35l-.18-.09a2.77,2.77,0,0,1-1.15-2.21v-2.92c0-.85.51-1.25,1.15-.87l.18.1a2.76,2.76,0,0,1,1.15,2.2v2.93C648.62,440.33,648.09,440.73,647.47,440.35Z" transform="translate(-521 -221)"/><path class="cls-2" d="M647.47,449l-.18-.1a2.73,2.73,0,0,1-1.15-2.2v-2.93c0-.84.51-1.24,1.15-.86l.18.09a2.79,2.79,0,0,1,1.15,2.21v2.92C648.62,449,648.09,449.37,647.47,449Z" transform="translate(-521 -221)"/><path class="cls-1" d="M647.47,457.63l-.18-.1a2.73,2.73,0,0,1-1.15-2.2V452.4c0-.84.51-1.24,1.15-.87l.18.1a2.79,2.79,0,0,1,1.15,2.2v2.93C648.62,457.61,648.09,458,647.47,457.63Z" transform="translate(-521 -221)"/><path class="cls-1" d="M647.47,466.27l-.18-.1a2.73,2.73,0,0,1-1.15-2.2V461c0-.85.51-1.24,1.15-.87l.18.1a2.77,2.77,0,0,1,1.15,2.2v2.93C648.62,466.25,648.09,466.64,647.47,466.27Z" transform="translate(-521 -221)"/><path class="cls-1" d="M647.47,474.91l-.18-.1a2.76,2.76,0,0,1-1.15-2.2v-2.93c0-.85.51-1.24,1.15-.87l.18.1a2.76,2.76,0,0,1,1.15,2.2V474C648.62,474.88,648.09,475.28,647.47,474.91Z" transform="translate(-521 -221)"/><path class="cls-1" d="M647.47,483.55l-.18-.1a2.77,2.77,0,0,1-1.15-2.21v-2.92c0-.85.51-1.25,1.15-.87l.18.1a2.76,2.76,0,0,1,1.15,2.2v2.93C648.62,483.52,648.09,483.91,647.47,483.55Z" transform="translate(-521 -221)"/><path class="cls-1" d="M647.47,492.18l-.18-.1a2.73,2.73,0,0,1-1.15-2.2V487c0-.85.51-1.25,1.15-.87l.18.1a2.76,2.76,0,0,1,1.15,2.2v2.92C648.62,492.16,648.09,492.55,647.47,492.18Z" transform="translate(-521 -221)"/><path class="cls-1" d="M647.47,500.82l-.18-.1a2.73,2.73,0,0,1-1.15-2.2v-2.93c0-.84.51-1.24,1.15-.86l.18.09a2.79,2.79,0,0,1,1.15,2.2V500C648.62,500.8,648.09,501.18,647.47,500.82Z" transform="translate(-521 -221)"/><path class="cls-12" d="M641.9,428.5l-.18-.1a2.73,2.73,0,0,1-1.15-2.2v-2.92c0-.85.51-1.25,1.15-.87l.18.1a2.73,2.73,0,0,1,1.15,2.2v2.92C643,428.48,642.53,428.87,641.9,428.5Z" transform="translate(-521 -221)"/><path class="cls-1" d="M641.9,437.14l-.18-.1a2.73,2.73,0,0,1-1.15-2.2v-2.93c0-.84.51-1.24,1.15-.87l.18.1a2.76,2.76,0,0,1,1.15,2.2v2.93C643,437.12,642.53,437.5,641.9,437.14Z" transform="translate(-521 -221)"/><path class="cls-1" d="M641.9,445.78l-.18-.1a2.73,2.73,0,0,1-1.15-2.2v-2.93c0-.84.51-1.24,1.15-.87l.18.1a2.75,2.75,0,0,1,1.15,2.2v2.93C643,445.76,642.53,446.14,641.9,445.78Z" transform="translate(-521 -221)"/><path class="cls-1" d="M641.9,454.42l-.18-.1a2.75,2.75,0,0,1-1.15-2.2v-2.93c0-.85.51-1.24,1.15-.87l.18.1a2.73,2.73,0,0,1,1.15,2.2v2.93C643,454.4,642.53,454.78,641.9,454.42Z" transform="translate(-521 -221)"/><path class="cls-1" d="M641.9,463.05l-.18-.09a2.76,2.76,0,0,1-1.15-2.2v-2.93c0-.85.51-1.24,1.15-.87l.18.1a2.73,2.73,0,0,1,1.15,2.2v2.93C643,463,642.53,463.42,641.9,463.05Z" transform="translate(-521 -221)"/><path class="cls-12" d="M641.9,471.69l-.18-.1a2.73,2.73,0,0,1-1.15-2.2v-2.92c0-.85.51-1.25,1.15-.87l.18.1a2.73,2.73,0,0,1,1.15,2.2v2.92C643,471.67,642.53,472.06,641.9,471.69Z" transform="translate(-521 -221)"/><path class="cls-1" d="M641.9,480.33l-.18-.1a2.73,2.73,0,0,1-1.15-2.2V475.1c0-.84.51-1.24,1.15-.86l.18.09a2.77,2.77,0,0,1,1.15,2.21v2.92C643,480.31,642.53,480.7,641.9,480.33Z" transform="translate(-521 -221)"/><path class="cls-1" d="M641.9,489l-.18-.1a2.73,2.73,0,0,1-1.15-2.2v-2.93c0-.85.51-1.24,1.15-.87l.18.1a2.76,2.76,0,0,1,1.15,2.2v2.93C643,488.94,642.53,489.33,641.9,489Z" transform="translate(-521 -221)"/><path class="cls-12" d="M641.9,497.61l-.18-.1a2.75,2.75,0,0,1-1.15-2.2v-2.93c0-.85.51-1.24,1.15-.87l.18.1a2.73,2.73,0,0,1,1.15,2.2v2.93C643,497.58,642.53,498,641.9,497.61Z" transform="translate(-521 -221)"/><path class="cls-1" d="M636.32,425.29l-.18-.1A2.73,2.73,0,0,1,635,423v-2.93c0-.85.51-1.24,1.15-.87l.18.1a2.75,2.75,0,0,1,1.15,2.2v2.93C637.47,425.26,637,425.65,636.32,425.29Z" transform="translate(-521 -221)"/><path class="cls-1" d="M636.32,433.93l-.18-.1a2.75,2.75,0,0,1-1.15-2.2V428.7c0-.85.51-1.24,1.15-.87l.18.1a2.73,2.73,0,0,1,1.15,2.2v2.93C637.47,433.9,637,434.29,636.32,433.93Z" transform="translate(-521 -221)"/><path class="cls-12" d="M636.32,442.57l-.18-.1a2.76,2.76,0,0,1-1.15-2.2v-2.93c0-.85.51-1.24,1.15-.87l.18.1a2.73,2.73,0,0,1,1.15,2.2v2.93C637.47,442.53,637,442.93,636.32,442.57Z" transform="translate(-521 -221)"/><path class="cls-1" d="M636.32,451.2l-.18-.1a2.73,2.73,0,0,1-1.15-2.2V446c0-.85.51-1.25,1.15-.87l.18.1a2.73,2.73,0,0,1,1.15,2.2v2.92C637.47,451.17,637,451.57,636.32,451.2Z" transform="translate(-521 -221)"/><path class="cls-12" d="M636.32,459.84l-.18-.1a2.73,2.73,0,0,1-1.15-2.2v-2.92c0-.85.51-1.25,1.15-.87l.18.1a2.73,2.73,0,0,1,1.15,2.2V459C637.47,459.81,637,460.21,636.32,459.84Z" transform="translate(-521 -221)"/><path class="cls-1" d="M636.32,468.48l-.18-.1a2.73,2.73,0,0,1-1.15-2.2v-2.93c0-.84.51-1.24,1.15-.87l.18.1a2.76,2.76,0,0,1,1.15,2.2v2.93C637.47,468.45,637,468.84,636.32,468.48Z" transform="translate(-521 -221)"/><path class="cls-2" d="M636.32,477.12l-.18-.1a2.73,2.73,0,0,1-1.15-2.2v-2.93c0-.85.51-1.24,1.15-.87l.18.1a2.75,2.75,0,0,1,1.15,2.2v2.93C637.47,477.08,637,477.48,636.32,477.12Z" transform="translate(-521 -221)"/><path class="cls-12" d="M636.32,485.76l-.18-.1a2.76,2.76,0,0,1-1.15-2.2v-2.93c0-.85.51-1.24,1.15-.87l.18.1a2.73,2.73,0,0,1,1.15,2.2v2.93C637.47,485.72,637,486.12,636.32,485.76Z" transform="translate(-521 -221)"/><path class="cls-12" d="M636.32,494.39l-.18-.09a2.76,2.76,0,0,1-1.15-2.2v-2.93c0-.85.51-1.25,1.15-.87l.18.1a2.73,2.73,0,0,1,1.15,2.2v2.92C637.47,494.36,637,494.76,636.32,494.39Z" transform="translate(-521 -221)"/><path class="cls-1" d="M630.75,422.08l-.18-.1a2.79,2.79,0,0,1-1.15-2.2v-2.93c0-.85.52-1.24,1.15-.87l.18.1a2.74,2.74,0,0,1,1.16,2.2v2.93C631.91,422,631.39,422.44,630.75,422.08Z" transform="translate(-521 -221)"/><path class="cls-12" d="M630.75,430.71l-.18-.09a2.79,2.79,0,0,1-1.15-2.21v-2.92c0-.85.52-1.25,1.15-.87l.18.1a2.74,2.74,0,0,1,1.16,2.2v2.93C631.91,430.68,631.39,431.08,630.75,430.71Z" transform="translate(-521 -221)"/><path class="cls-12" d="M630.75,439.35l-.18-.1a2.76,2.76,0,0,1-1.15-2.2v-2.92c0-.85.52-1.25,1.15-.87l.18.1a2.74,2.74,0,0,1,1.16,2.2v2.92C631.91,439.32,631.39,439.72,630.75,439.35Z" transform="translate(-521 -221)"/><path class="cls-1" d="M630.75,448l-.18-.1a2.76,2.76,0,0,1-1.15-2.2v-2.93c0-.85.52-1.24,1.15-.87l.18.1a2.77,2.77,0,0,1,1.16,2.2v2.93C631.91,448,631.39,448.35,630.75,448Z" transform="translate(-521 -221)"/><path class="cls-1" d="M630.75,456.62l-.18-.1a2.76,2.76,0,0,1-1.15-2.2v-2.93c0-.85.52-1.24,1.15-.87l.18.1a2.74,2.74,0,0,1,1.16,2.2v2.93C631.91,456.6,631.39,457,630.75,456.62Z" transform="translate(-521 -221)"/><path class="cls-12" d="M630.75,465.26l-.18-.1a2.79,2.79,0,0,1-1.15-2.2V460c0-.85.52-1.24,1.15-.87l.18.1a2.74,2.74,0,0,1,1.16,2.2v2.93C631.91,465.23,631.39,465.63,630.75,465.26Z" transform="translate(-521 -221)"/><path class="cls-1" d="M630.75,473.89l-.18-.1a2.76,2.76,0,0,1-1.15-2.2v-2.92c0-.85.52-1.25,1.15-.87l.18.1a2.74,2.74,0,0,1,1.16,2.2V473C631.91,473.87,631.39,474.27,630.75,473.89Z" transform="translate(-521 -221)"/><path class="cls-1" d="M630.75,482.53l-.18-.1a2.76,2.76,0,0,1-1.15-2.2V477.3c0-.84.52-1.24,1.15-.86l.18.1a2.74,2.74,0,0,1,1.16,2.2v2.92C631.91,482.51,631.39,482.91,630.75,482.53Z" transform="translate(-521 -221)"/><path class="cls-1" d="M630.75,491.17l-.18-.1a2.76,2.76,0,0,1-1.15-2.2v-2.93c0-.84.52-1.24,1.15-.87l.18.1a2.77,2.77,0,0,1,1.16,2.2v2.93C631.91,491.15,631.39,491.55,630.75,491.17Z" transform="translate(-521 -221)"/><path class="cls-1" d="M625.18,418.85l-.17-.1a2.74,2.74,0,0,1-1.16-2.2v-2.92c0-.85.52-1.25,1.16-.87l.17.09a2.77,2.77,0,0,1,1.16,2.21V418C626.34,418.83,625.82,419.23,625.18,418.85Z" transform="translate(-521 -221)"/><path class="cls-1" d="M625.18,427.49l-.17-.1a2.74,2.74,0,0,1-1.16-2.2v-2.93c0-.84.52-1.24,1.16-.87l.17.1a2.77,2.77,0,0,1,1.16,2.2v2.93C626.34,427.47,625.82,427.86,625.18,427.49Z" transform="translate(-521 -221)"/><path class="cls-12" d="M625.18,436.13,625,436a2.74,2.74,0,0,1-1.16-2.2V430.9c0-.85.52-1.24,1.16-.87l.17.1a2.75,2.75,0,0,1,1.16,2.2v2.93C626.34,436.11,625.82,436.5,625.18,436.13Z" transform="translate(-521 -221)"/><path class="cls-2" d="M625.18,444.77l-.17-.1a2.77,2.77,0,0,1-1.16-2.2v-2.93c0-.85.52-1.24,1.16-.87l.17.1a2.74,2.74,0,0,1,1.16,2.2v2.93C626.34,444.74,625.82,445.13,625.18,444.77Z" transform="translate(-521 -221)"/><path class="cls-12" d="M625.18,453.4l-.17-.09a2.77,2.77,0,0,1-1.16-2.21v-2.92c0-.85.52-1.25,1.16-.87l.17.1a2.74,2.74,0,0,1,1.16,2.2v2.93C626.34,453.38,625.82,453.77,625.18,453.4Z" transform="translate(-521 -221)"/><path class="cls-1" d="M625.18,462l-.17-.1a2.74,2.74,0,0,1-1.16-2.2v-2.92c0-.85.52-1.25,1.16-.87l.17.1a2.74,2.74,0,0,1,1.16,2.2v2.92C626.34,462,625.82,462.41,625.18,462Z" transform="translate(-521 -221)"/><path class="cls-1" d="M625.18,470.68l-.17-.1a2.74,2.74,0,0,1-1.16-2.2v-2.93c0-.84.52-1.24,1.16-.86l.17.09a2.77,2.77,0,0,1,1.16,2.2v2.93C626.34,470.66,625.82,471,625.18,470.68Z" transform="translate(-521 -221)"/><path class="cls-1" d="M625.18,479.32l-.17-.1a2.74,2.74,0,0,1-1.16-2.2v-2.93c0-.85.52-1.24,1.16-.87l.17.1a2.75,2.75,0,0,1,1.16,2.2v2.93C626.34,479.3,625.82,479.68,625.18,479.32Z" transform="translate(-521 -221)"/><path class="cls-1" d="M625.18,488l-.17-.1a2.75,2.75,0,0,1-1.16-2.2v-2.93c0-.85.52-1.24,1.16-.87l.17.1a2.74,2.74,0,0,1,1.16,2.2v2.93C626.34,487.93,625.82,488.32,625.18,488Z" transform="translate(-521 -221)"/><rect class="cls-27" x="263.02" y="232.72" width="4.23" height="3.43"/><rect class="cls-27" x="232.65" y="213.44" width="32.48" height="21.13"/><rect class="cls-27" x="230.28" y="212.12" width="4.23" height="3.43"/><path class="cls-28" d="M648,421.5v-.21a.25.25,0,0,1,0-.15l.48-.66a.57.57,0,0,1,.11-.11l.17-.11h.05l-.09,3.26a.17.17,0,0,1,0,.07l0,0-.19.12h0l.08-2.91-.5.67S648,421.57,648,421.5Z" transform="translate(-521 -221)"/><path class="cls-29" d="M775.38,426.59l-.19-.14-.06-.07a.29.29,0,0,1,0-.09l-.12-1v-.2l.08-.26.06-.06,3,2.26a.12.12,0,0,1,0,.07.17.17,0,0,1,0,.07l-.07.27-.07.06-2.65-2,.12,1C775.47,426.62,775.44,426.64,775.38,426.59Z" transform="translate(-521 -221)"/><path class="cls-29" d="M769.86,395.12l-.19-.14-.07-.07,0-.07-.25-.84,0-.17,0-.22,0,0,3,2.26,0,.06a.13.13,0,0,1,0,.06l0,.23,0,0-2.65-2,.26.86C769.94,395.15,769.92,395.17,769.86,395.12Z" transform="translate(-521 -221)"/><path class="cls-29" d="M738.21,410.17,738,410,738,410a.13.13,0,0,1,0-.08l-.25-.84,0-.17,0-.21.05-.05,3,2.26,0,.06s0,.05,0,.07l0,.22-.05,0-2.64-2,.25.86C738.29,410.2,738.27,410.21,738.21,410.17Z" transform="translate(-521 -221)"/><path class="cls-30" d="M762.05,445.79l-.09.52a.44.44,0,0,1-.08.25.63.63,0,0,1-.21.18.63.63,0,0,1-.55-.17l-1.61-1.23a1.34,1.34,0,0,1-.45-.59A1.17,1.17,0,0,1,759,444l.09-.52a.46.46,0,0,1,.08-.25.44.44,0,0,1,.75,0l1.66,1.25a1.54,1.54,0,0,1,.46.6A1.18,1.18,0,0,1,762.05,445.79Zm-.38.25.07-.43a.53.53,0,0,0,0-.39,1,1,0,0,0-.29-.36l-1.58-1.2c-.26-.2-.42-.16-.49.13l-.07.43a.62.62,0,0,0,0,.4,1,1,0,0,0,.29.35l1.58,1.2C761.45,446.37,761.61,446.33,761.67,446Z" transform="translate(-521 -221)"/><path class="cls-30" d="M756.23,414.1l-.09.52a.44.44,0,0,1-.08.25.46.46,0,0,1-.21.18.63.63,0,0,1-.55-.17l-1.61-1.23a1.34,1.34,0,0,1-.45-.59,1.17,1.17,0,0,1-.08-.71l.09-.52a.46.46,0,0,1,.08-.25.63.63,0,0,1,.21-.18.68.68,0,0,1,.55.18l1.65,1.26a1.29,1.29,0,0,1,.46.59A1.1,1.1,0,0,1,756.23,414.1Zm-.38.25.08-.43a.59.59,0,0,0,0-.39.78.78,0,0,0-.28-.35L754,412c-.26-.2-.42-.16-.48.13l-.08.43a.69.69,0,0,0,0,.4,1,1,0,0,0,.29.35l1.58,1.2C755.63,414.69,755.79,414.64,755.85,414.35Z" transform="translate(-521 -221)"/><path class="cls-30" d="M697.18,367.74l-.14.58a.63.63,0,0,1-.12.28.68.68,0,0,1-.24.2.56.56,0,0,1-.57-.15l-1.61-1.22a1.12,1.12,0,0,1-.43-.61,1.27,1.27,0,0,1,0-.77l.15-.57a.58.58,0,0,1,.12-.28.83.83,0,0,1,.24-.21.6.6,0,0,1,.57.15l1.65,1.26a1.21,1.21,0,0,1,.44.62A1.18,1.18,0,0,1,697.18,367.74Zm-.43.3.13-.47a.61.61,0,0,0,0-.42.81.81,0,0,0-.27-.37L695,365.57c-.26-.2-.44-.14-.53.19l-.13.47a.61.61,0,0,0,0,.42.74.74,0,0,0,.27.37l1.58,1.2C696.48,368.42,696.65,368.37,696.75,368Z" transform="translate(-521 -221)"/><path class="cls-29" d="M782.55,440.35l-.19-.15a.27.27,0,0,1-.09-.15l-.11-1a.41.41,0,0,1,0-.19l.07-.26.06-.05,3,2.26s0,0,.05.06a.09.09,0,0,1,0,.07l-.09.28-.06.05-2.65-2,.12,1C782.63,440.37,782.61,440.39,782.55,440.35Z" transform="translate(-521 -221)"/><path class="cls-29" d="M776.92,408.8l-.18-.14a.29.29,0,0,1-.08-.14l0-.92a.41.41,0,0,1,0-.19l.09-.25.06-.05,2.7,2.05a.21.21,0,0,1,0,.06v.07l-.1.27-.06.05L777,407.78l0,.94C777,408.81,777,408.84,776.92,408.8Z" transform="translate(-521 -221)"/><path class="cls-29" d="M745.39,423.92l-.2-.14a.31.31,0,0,1-.1-.15l-.24-.84a.55.55,0,0,1,0-.17l0-.22,0,0,3,2.26,0,.05a.15.15,0,0,1,0,.06l0,.24,0,0-2.65-2,.25.87C745.46,424,745.45,424,745.39,423.92Z" transform="translate(-521 -221)"/><path class="cls-29" d="M716.9,389.61l-.18-.14a.29.29,0,0,1-.08-.14l0-.92a.41.41,0,0,1,0-.19l.09-.25.06-.05,2.7,2.05,0,.06a.09.09,0,0,1,0,.07l-.09.27-.06.05-2.41-1.83.05.94C717,389.62,717,389.65,716.9,389.61Z" transform="translate(-521 -221)"/><path class="cls-29" d="M717.78,362.22l-.19-.14a.33.33,0,0,1-.11-.15l-.24-.84a.55.55,0,0,1,0-.17l0-.21,0,0,3,2.26a.12.12,0,0,1,0,.05.13.13,0,0,1,0,.06l0,.24,0,0-2.65-2,.25.87C717.85,362.25,717.84,362.27,717.78,362.22Z" transform="translate(-521 -221)"/><path class="cls-30" d="M790,418.21l-.17.58a.56.56,0,0,1-.1.27,1,1,0,0,1-.24.22.64.64,0,0,1-.58-.16l-1.61-1.22a1.25,1.25,0,0,1-.43-.62,1.16,1.16,0,0,1,0-.76l.16-.58a.52.52,0,0,1,.1-.27.64.64,0,0,1,.25-.21.59.59,0,0,1,.56.15l1.61,1.22a1.21,1.21,0,0,1,.44.62A1.4,1.4,0,0,1,790,418.21Zm-.45.3.13-.48a.64.64,0,0,0,0-.43.72.72,0,0,0-.27-.36l-1.57-1.2c-.28-.21-.46-.14-.54.18l-.13.48a.67.67,0,0,0,0,.42.78.78,0,0,0,.27.36l1.59,1.21C789.31,418.89,789.49,418.83,789.57,418.51Z" transform="translate(-521 -221)"/><path class="cls-30" d="M763.07,401l-.11.52a.52.52,0,0,1-.07.25.46.46,0,0,1-.21.18.64.64,0,0,1-.55-.17l-1.61-1.23a1.44,1.44,0,0,1-.46-.59,1.14,1.14,0,0,1-.07-.7l.09-.53a.53.53,0,0,1,.08-.25.51.51,0,0,1,.21-.17.59.59,0,0,1,.54.17l1.61,1.22a1.29,1.29,0,0,1,.46.59A1.27,1.27,0,0,1,763.07,401Zm-.39.25.07-.44a.53.53,0,0,0,0-.39.81.81,0,0,0-.29-.35l-1.57-1.2c-.27-.21-.44-.16-.49.13l-.08.43a.65.65,0,0,0,0,.39,1,1,0,0,0,.28.36l1.59,1.2C762.46,401.59,762.63,401.54,762.68,401.25Z" transform="translate(-521 -221)"/><path class="cls-30" d="M752.7,401.92l-.1.52a.53.53,0,0,1-.08.25.46.46,0,0,1-.21.18.61.61,0,0,1-.54-.17l-1.61-1.22a1.48,1.48,0,0,1-.47-.6,1.14,1.14,0,0,1-.07-.7l.1-.53a.45.45,0,0,1,.07-.25.51.51,0,0,1,.21-.17.6.6,0,0,1,.55.17l1.6,1.22a1.35,1.35,0,0,1,.46.59A1.27,1.27,0,0,1,752.7,401.92Zm-.39.25.08-.43a.62.62,0,0,0,0-.4.84.84,0,0,0-.28-.35l-1.58-1.2c-.27-.21-.44-.16-.48.13l-.08.43a.56.56,0,0,0,0,.4.84.84,0,0,0,.28.35l1.58,1.2C752.09,402.51,752.26,402.46,752.31,402.17Z" transform="translate(-521 -221)"/><path class="cls-30" d="M801.73,406.58l-.16.58a.57.57,0,0,1-.11.27.73.73,0,0,1-.24.22.62.62,0,0,1-.57-.16L799,406.27a1.27,1.27,0,0,1-.44-.62,1.23,1.23,0,0,1,0-.76l.16-.58a.54.54,0,0,1,.11-.27.49.49,0,0,1,.81-.06l1.6,1.22a1.21,1.21,0,0,1,.44.62A1.31,1.31,0,0,1,801.73,406.58Zm-.45.3.13-.48a.64.64,0,0,0,0-.43.74.74,0,0,0-.28-.36l-1.57-1.2c-.27-.21-.46-.15-.54.18l-.13.48a.61.61,0,0,0,0,.42.7.7,0,0,0,.26.36l1.59,1.21C801,407.26,801.2,407.2,801.28,406.88Z" transform="translate(-521 -221)"/><path class="cls-29" d="M793.39,420.54l-.17-.14a.2.2,0,0,1-.09-.13l-.19-.79a.45.45,0,0,1,0-.16l0-.21,0,0,2.7,2.05,0,.06a.06.06,0,0,1,0,.06l0,.22,0,0-2.41-1.83.19.82C793.47,420.57,793.46,420.59,793.39,420.54Z" transform="translate(-521 -221)"/><path class="cls-28" d="M789.11,440.6l-.17-.14a.2.2,0,0,1-.09-.13l-.19-.8,0-.16,0-.21.05,0,2.7,2.05a.21.21,0,0,1,0,.06.13.13,0,0,1,0,.06l-.05.22,0,0L789,439.72l.2.82C789.18,440.62,789.16,440.63,789.11,440.6Z" transform="translate(-521 -221)"/><path class="cls-28" d="M784.77,402.52l-.2-.15a.24.24,0,0,1-.09-.15l-.11-1a.6.6,0,0,1,0-.19l.08-.26.07-.06,3,2.26,0,.06a.11.11,0,0,1,0,.08l-.09.28-.06.05-2.65-2,.12,1C784.85,402.54,784.83,402.57,784.77,402.52Z" transform="translate(-521 -221)"/><path class="cls-28" d="M753.13,417.56l-.2-.15a.23.23,0,0,1-.1-.14l-.25-.84a.33.33,0,0,1,0-.17l0-.21,0,0,3,2.25a.13.13,0,0,1,0,.06.2.2,0,0,1,0,.07l0,.23,0,0-2.65-2,.26.87C753.2,417.59,753.19,417.61,753.13,417.56Z" transform="translate(-521 -221)"/><path class="cls-28" d="M779,434.58l-.07.54a.47.47,0,0,1-.08.26.63.63,0,0,1-.21.18.71.71,0,0,1-.58-.2L776.33,434a1.78,1.78,0,0,1-.51-.63,1.19,1.19,0,0,1-.11-.73l.08-.54a.39.39,0,0,1,.06-.26.44.44,0,0,1,.2-.18.73.73,0,0,1,.58.2l1.75,1.33a1.68,1.68,0,0,1,.51.63A1.36,1.36,0,0,1,779,434.58Zm-.39.25.06-.45a.66.66,0,0,0,0-.41,1,1,0,0,0-.32-.37l-1.72-1.31c-.28-.22-.45-.17-.5.12l-.06.45a.66.66,0,0,0,.05.41,1.14,1.14,0,0,0,.32.38l1.72,1.3C778.4,435.17,778.57,435.13,778.62,434.83Z" transform="translate(-521 -221)"/><path class="cls-28" d="M801.63,443.4l-.18-.14a.24.24,0,0,1-.09-.13l-.18-.8a.3.3,0,0,1,0-.16l0-.21,0,0L804,444a.1.1,0,0,1,0,0,.07.07,0,0,1,0,.06l0,.23,0,0-2.41-1.84.18.83C801.7,443.42,801.68,443.44,801.63,443.4Z" transform="translate(-521 -221)"/><path class="cls-28" d="M795.92,411.79l-.19-.14a.36.36,0,0,1-.11-.14l-.24-.85a.35.35,0,0,1,0-.17l0-.21,0,0,3,2.26a.12.12,0,0,1,.05.05.09.09,0,0,1,0,.07l0,.23,0,0-2.66-2,.25.87C796,411.82,796,411.84,795.92,411.79Z" transform="translate(-521 -221)"/><path class="cls-28" d="M764.22,427.19l-.18-.14a.22.22,0,0,1-.08-.14l0-.92a.28.28,0,0,1,0-.18l.09-.26.06-.05,2.7,2.06a.07.07,0,0,1,0,.05.09.09,0,0,1,0,.07l-.1.27-.06.06-2.41-1.84,0,.95C764.29,427.2,764.28,427.23,764.22,427.19Z" transform="translate(-521 -221)"/><path class="cls-28" d="M735.9,392.61l-.19-.15a.36.36,0,0,1-.11-.14l-.24-.85a.35.35,0,0,1,0-.17l0-.21,0,0,3,2.26a.12.12,0,0,1,0,.05.09.09,0,0,1,0,.07l0,.23,0,0-2.65-2,.25.88C736,392.63,736,392.65,735.9,392.61Z" transform="translate(-521 -221)"/><path class="cls-28" d="M785.65,424l-.15.58a.55.55,0,0,1-.12.27.61.61,0,0,1-.24.21.56.56,0,0,1-.57-.15L783,423.67a1.15,1.15,0,0,1-.43-.61,1.27,1.27,0,0,1,0-.77l.15-.57a.57.57,0,0,1,.11-.28.49.49,0,0,1,.81-.06l1.61,1.23a1.25,1.25,0,0,1,.44.61A1.31,1.31,0,0,1,785.65,424Zm-.44.3.13-.47a.64.64,0,0,0,0-.43.68.68,0,0,0-.27-.36l-1.58-1.2c-.27-.21-.45-.15-.54.17l-.12.47a.58.58,0,0,0,0,.43.81.81,0,0,0,.27.37l1.59,1.2C784.94,424.66,785.12,424.6,785.21,424.28Z" transform="translate(-521 -221)"/><path class="cls-28" d="M745.86,376l-.12.59a.65.65,0,0,1-.11.29.52.52,0,0,1-.85,0L743,375.55a1.31,1.31,0,0,1-.48-.65,1.37,1.37,0,0,1-.06-.8l.14-.58a.51.51,0,0,1,.1-.29A.62.62,0,0,1,743,373a.68.68,0,0,1,.6.18l1.75,1.32a1.55,1.55,0,0,1,.49.66A1.34,1.34,0,0,1,745.86,376Zm-.43.29.1-.48a.61.61,0,0,0,0-.44.81.81,0,0,0-.3-.39l-1.71-1.3c-.29-.23-.47-.17-.56.16l-.1.48a.63.63,0,0,0,0,.45.88.88,0,0,0,.31.39l1.71,1.3C745.16,376.65,745.34,376.6,745.43,376.26Z" transform="translate(-521 -221)"/><path class="cls-28" d="M810.28,417l-.15.58a.54.54,0,0,1-.11.27.61.61,0,0,1-.24.21.56.56,0,0,1-.57-.15l-1.61-1.22a1.15,1.15,0,0,1-.43-.61,1.27,1.27,0,0,1,0-.77l.16-.57a.59.59,0,0,1,.1-.28.64.64,0,0,1,.25-.21.61.61,0,0,1,.57.15l1.61,1.22a1.39,1.39,0,0,1,.44.62A1.23,1.23,0,0,1,810.28,417Zm-.43.3.12-.47a.64.64,0,0,0,0-.43.7.7,0,0,0-.28-.36l-1.57-1.2c-.27-.21-.45-.15-.55.17l-.12.47a.7.7,0,0,0,0,.43.83.83,0,0,0,.28.37l1.58,1.2C809.58,417.72,809.75,417.66,809.85,417.34Z" transform="translate(-521 -221)"/><path class="cls-28" d="M732.65,375.43l-.18-.13a.29.29,0,0,1-.08-.14l-.19-.8a.44.44,0,0,1,0-.16l0-.21,0,0L735,376a.1.1,0,0,1,0,.05.13.13,0,0,1,0,.06l0,.23-.05,0-2.42-1.83.2.82C732.7,375.47,732.7,375.47,732.65,375.43Z" transform="translate(-521 -221)"/><path class="cls-28" d="M744.53,383.37l-.18-.14a.29.29,0,0,1-.08-.14l-.19-.79a.3.3,0,0,1,0-.16l0-.21,0,0,2.7,2.06,0,.05s0,0,0,.06l0,.22-.05,0-2.41-1.83.19.82C744.58,383.4,744.58,383.4,744.53,383.37Z" transform="translate(-521 -221)"/><path class="cls-28" d="M702.23,372.13,702,372a.26.26,0,0,1-.1-.14l-.25-.84,0-.17,0-.21,0-.05,3,2.26a.1.1,0,0,1,0,.06.06.06,0,0,1,0,.06l0,.23,0,.05-2.65-2,.25.86C702.3,372.15,702.29,372.18,702.23,372.13Z" transform="translate(-521 -221)"/><path class="cls-28" d="M745.38,407.42l-.09.53a.46.46,0,0,1-.08.25.51.51,0,0,1-.21.17.6.6,0,0,1-.55-.17l-1.6-1.22a1.29,1.29,0,0,1-.46-.59,1.18,1.18,0,0,1-.08-.71l.1-.52a.45.45,0,0,1,.07-.25.53.53,0,0,1,.21-.18.66.66,0,0,1,.55.17l1.61,1.23a1.51,1.51,0,0,1,.46.59A1.23,1.23,0,0,1,745.38,407.42Zm-.38.25.08-.42a.62.62,0,0,0,0-.4.84.84,0,0,0-.28-.35l-1.58-1.2c-.27-.21-.43-.16-.49.13l-.08.43a.59.59,0,0,0,0,.39.78.78,0,0,0,.28.35l1.59,1.21c.27.19.43.15.5-.15Z" transform="translate(-521 -221)"/><path class="cls-28" d="M762,387.79l-.1.53a.45.45,0,0,1-.07.25.63.63,0,0,1-.21.18.64.64,0,0,1-.55-.18l-1.61-1.22a1.42,1.42,0,0,1-.46-.59,1.23,1.23,0,0,1-.08-.7l.1-.54a.41.41,0,0,1,.08-.24.49.49,0,0,1,.22-.18c.14-.05.31,0,.53.18l1.6,1.21a1.45,1.45,0,0,1,.47.59A1.18,1.18,0,0,1,762,387.79Zm-.39.25.08-.43a.56.56,0,0,0,0-.4.87.87,0,0,0-.29-.35l-1.57-1.2c-.27-.2-.44-.16-.49.14l-.08.43a.62.62,0,0,0,0,.4,1,1,0,0,0,.29.35l1.58,1.2C761.36,388.38,761.52,388.34,761.57,388Z" transform="translate(-521 -221)"/><path class="cls-28" d="M776.44,446.46l-.09.53a.53.53,0,0,1-.08.25.65.65,0,0,1-.22.18.63.63,0,0,1-.54-.18l-1.6-1.22a1.47,1.47,0,0,1-.47-.59,1.22,1.22,0,0,1-.07-.7l.09-.54a.57.57,0,0,1,.08-.25.79.79,0,0,1,.22-.18.64.64,0,0,1,.54.19l1.62,1.23a1.56,1.56,0,0,1,.47.59A1.26,1.26,0,0,1,776.44,446.46Zm-.38.26.08-.44a.62.62,0,0,0,0-.4.93.93,0,0,0-.28-.35l-1.58-1.2c-.26-.2-.43-.15-.49.14l-.1.38a.62.62,0,0,0,0,.4,1,1,0,0,0,.29.35l1.58,1.2c.32.28.42.19.52-.1Z" transform="translate(-521 -221)"/><path class="cls-31" d="M586.51,479l-32,18.44L579,511.52l32-18.44Z" transform="translate(-521 -221)"/><path class="cls-9" d="M570.38,506.64l-24.47-14.13V475.76l24.47,14.13Z" transform="translate(-521 -221)"/><path class="cls-8" d="M569.85,490.87,546.5,477.39v-.56l23.35,13.49Z" transform="translate(-521 -221)"/><path class="cls-8" d="M602.33,488.2l-32,18.44V489.89l32-18.45Z" transform="translate(-521 -221)"/><path class="cls-1" d="M577.86,457.31l-32,18.45,24.47,14.12,32-18.44Z" transform="translate(-521 -221)"/><path class="cls-1" d="M570.38,489.44,546.3,475.53l-.39.23,24.47,14.12,32-18.44-.38-.22Z" transform="translate(-521 -221)"/><path class="cls-8" d="M558.57,483.07l31.95-18.45-.71-.41-31.95,18.44Z" transform="translate(-521 -221)"/><path class="cls-8" d="M557.86,482.65v.86l.71.3v-.74Z" transform="translate(-521 -221)"/><path class="cls-31" d="M546.27,521.8,528.63,532l24.47,14.13,17.64-10.23Z" transform="translate(-521 -221)"/><path class="cls-9" d="M545.47,542,521,527.83V511.08l24.47,14.13Z" transform="translate(-521 -221)"/><path class="cls-8" d="M544.94,526.2l-23.35-13.49v-.55l23.35,13.48Z" transform="translate(-521 -221)"/><path class="cls-8" d="M563.11,531.74,545.47,542V525.21L563.11,515Z" transform="translate(-521 -221)"/><path class="cls-1" d="M538.64,500.85,521,511.08l24.47,14.13L563.11,515Z" transform="translate(-521 -221)"/><path class="cls-1" d="M545.47,524.64l-24-13.84-.49.28,24.47,14.13L563.11,515l-.49-.28Z" transform="translate(-521 -221)"/><path class="cls-8" d="M533.66,518.39l17.64-10.23-.71-.41L532.94,518Z" transform="translate(-521 -221)"/><path class="cls-8" d="M532.94,518v.85l.72.3v-.74Z" transform="translate(-521 -221)"/><path class="cls-31" d="M604.83,521.08l-22.16,12.75,24.17,14L629,535Z" transform="translate(-521 -221)"/><path class="cls-9" d="M594,540.52l-24.17-13.95V510L594,524Z" transform="translate(-521 -221)"/><path class="cls-8" d="M616.18,527.77,594,540.52V524l22.16-12.75Z" transform="translate(-521 -221)"/><path class="cls-32" d="M592,497.27,569.85,510,594,524l22.16-12.75Z" transform="translate(-521 -221)"/><path class="cls-33" d="M592.05,497.75l-21.38,12.3L594,523.5l21.38-12.3Z" transform="translate(-521 -221)"/><path class="cls-34" d="M592,497.75l-21.37,12.3,20,11.56H592Z" transform="translate(-521 -221)"/><path class="cls-35" d="M592,497.75l-21.37,12.3,20,11.56H592Z" transform="translate(-521 -221)"/><path class="cls-36" d="M584.56,518.06,594,523.5l7.49-4.31-9.42-5.44Z" transform="translate(-521 -221)"/><path class="cls-37" d="M616.18,511.23l-20.47-.71-.87,2.59-24.17-13.95.87-2.6,20.48.71Z" transform="translate(-521 -221)"/><path class="cls-38" d="M571.54,496.56l24.17,14-.87,2.59-24.17-13.95Z" transform="translate(-521 -221)"/></svg>