<svg id="Слой_1" data-name="Слой 1" xmlns="http://www.w3.org/2000/svg" xmlns:xlink="http://www.w3.org/1999/xlink" viewBox="0 0 295.34 338.15"><defs><style>.cls-1{fill:#093d89;}.cls-2{fill:#0647aa;}.cls-3{fill:#1c64d0;}.cls-4{fill:#58a0fa;}.cls-5{fill:#00c6ff;}.cls-6{fill:#fff;}.cls-7{fill:#ccc7bf;}.cls-8{fill:#e9e4db;}.cls-9{fill:#bcb5ab;}.cls-10,.cls-13{fill:#a29d96;}.cls-11{fill:url(#Безымянный_градиент_5);}.cls-12{fill:url(#Безымянный_градиент_6);}.cls-13{opacity:0.7;}.cls-13,.cls-16,.cls-19,.cls-25{isolation:isolate;}.cls-14{fill:#d5d0c8;}.cls-15{fill:url(#Безымянный_градиент_13);}.cls-16{fill:#2983ff;opacity:0.8;}.cls-17{fill:#80e4ff;}.cls-18,.cls-19,.cls-25{opacity:0.5;}.cls-19{fill:#0f4bc2;}.cls-20{fill:url(#Безымянный_градиент_14);}.cls-21{fill:#fdfaf5;}.cls-22{fill:#6c00ac;}.cls-23{fill:#d2cdc4;}.cls-24{fill:url(#Безымянный_градиент_15);}.cls-25{fill:url(#Безымянный_градиент_16);}.cls-26{fill:#4c67ae;}.cls-27{fill:#e0dad0;}.cls-28{fill:#4685ff;}.cls-29{fill:#83beff;}</style><linearGradient id="Безымянный_градиент_5" x1="2376.65" y1="-6068.81" x2="2557.01" y2="-6594.11" gradientTransform="matrix(1, 0, 0, -1, 0, 340)" gradientUnits="userSpaceOnUse"><stop offset="0" stop-color="#2dc5ff"/><stop offset="0.33" stop-color="#1d7da2"/><stop offset="0.66" stop-color="#0d3a4b"/><stop offset="0.89" stop-color="#041015"/><stop offset="1"/></linearGradient><linearGradient id="Безымянный_градиент_6" x1="6451.98" y1="-18335.23" x2="8031.28" y2="-23024.23" xlink:href="#Безымянный_градиент_5"/><linearGradient id="Безымянный_градиент_13" x1="153.63" y1="207.58" x2="204.8" y2="207.58" gradientTransform="matrix(1, 0, 0, -1, 0, 340)" gradientUnits="userSpaceOnUse"><stop offset="0" stop-color="#1755d2"/><stop offset="0.51" stop-color="#0d47bd"/><stop offset="1" stop-color="#0238a6"/></linearGradient><linearGradient id="Безымянный_градиент_14" x1="152.49" y1="191.64" x2="205.95" y2="191.64" gradientTransform="matrix(1, 0, 0, -1, 0, 340)" gradientUnits="userSpaceOnUse"><stop offset="0" stop-color="#ccc7bf"/><stop offset="0.26" stop-color="#d4cfc7"/><stop offset="1" stop-color="#e9e4db"/></linearGradient><linearGradient id="Безымянный_градиент_15" x1="220.25" y1="181.57" x2="215.07" y2="172.61" gradientTransform="matrix(1, 0, 0, -1, 0, 340)" gradientUnits="userSpaceOnUse"><stop offset="0" stop-color="#4a3e2f"/><stop offset="0.62" stop-color="#0a0500"/><stop offset="1"/></linearGradient><radialGradient id="Безымянный_градиент_16" cx="-474.65" cy="530.21" r="1" gradientTransform="matrix(9, 0, 0, -9, 4503.37, 4936.77)" gradientUnits="userSpaceOnUse"><stop offset="0" stop-color="#ffe7d7"/><stop offset="0.07" stop-color="#a79388"/><stop offset="0.13" stop-color="#63544c"/><stop offset="0.22" stop-color="#1c150f"/><stop offset="0.28"/><stop offset="1"/></radialGradient></defs><title>project-2</title><path class="cls-1" d="M192.27,303.29l1.16-2.14-85-7.69-3.55,1.78,59.77,5.52-11.43,6.59L94.12,302l-3.55,1.76,87.35,8.05,1.16-2.13-8.89-.8,11.39-6.58Zm-25.17,5.33-10.76-1,11.42-6.6,10.73,1Z" transform="translate(-0.66)"/><path class="cls-1" d="M120.74,197.63,10.43,261.32l74.65,43.1H117l9.79,5.65h16.38l18.71-10.81-12.84-7.32,68.3-39.42Z" transform="translate(-0.66)"/><path class="cls-1" d="M72.07,307.07c-2.56-2.61-5-5.33-7.78-7.73l-19,11,13.57,7.82H71l-3.77-11.08Z" transform="translate(-0.66)"/><path class="cls-1" d="M255.25,280.55l-12,6.95,7.63,4.4h3.33Z" transform="translate(-0.66)"/><path class="cls-1" d="M151,322.8l-16.26,9.4L145,338.15h4.5Z" transform="translate(-0.66)"/><path class="cls-1" d="M237.11,249.76l-14.91,8.6,10.48,6.06h4.58Z" transform="translate(-0.66)"/><path class="cls-1" d="M33.63,238.38,18.73,247l10.48,6h4.58Z" transform="translate(-0.66)"/><path class="cls-2" d="M33.79,253l-10.24-5.91v-4.47l10.24,5.92Z" transform="translate(-0.66)"/><path class="cls-3" d="M49.87,243.75,33.79,253v-4.46l16.08-9.29Z" transform="translate(-0.66)"/><path class="cls-4" d="M33.79,248.58l-10.24-5.92,16.08-9.28,10.24,5.91Z" transform="translate(-0.66)"/><path class="cls-2" d="M254.19,291.9l-7.45-4.3v-3.25l7.45,4.3Z" transform="translate(-0.66)"/><path class="cls-3" d="M262.29,287.23l-8.1,4.67v-3.25l8.1-4.67Z" transform="translate(-0.66)"/><path class="cls-4" d="M254.19,288.65l-7.45-4.3,8.09-4.67,7.46,4.3Z" transform="translate(-0.66)"/><path class="cls-2" d="M149.54,338.15l-10.08-5.82v-4.39l10.08,5.83Z" transform="translate(-0.66)"/><path class="cls-3" d="M160.49,331.83l-11,6.32v-4.38l11-6.33Z" transform="translate(-0.66)"/><path class="cls-4" d="M149.54,333.77l-10.08-5.83,11-6.33,10.07,5.83Z" transform="translate(-0.66)"/><path class="cls-2" d="M71,318.15l-13.25-7.64V299.12L71,306.76Z" transform="translate(-0.66)"/><path class="cls-3" d="M71,306.76v11.39l20.8-12V294.76Z" transform="translate(-0.66)"/><path class="cls-4" d="M71,306.76l-13.25-7.64,20.81-12,13.24,7.65Z" transform="translate(-0.66)"/><path class="cls-2" d="M237.26,264.42,227,258.5V254L237.26,260Z" transform="translate(-0.66)"/><path class="cls-3" d="M253.34,255.13l-16.08,9.29V260l16.08-9.28Z" transform="translate(-0.66)"/><path class="cls-4" d="M237.26,260,227,254l16.09-9.28,10.23,5.91Z" transform="translate(-0.66)"/><path class="cls-5" d="M1,65.78a.65.65,0,0,1-.18-.15.56.56,0,0,1-.11-.2.5.5,0,0,1,0-.24A.57.57,0,0,1,.73,65a.49.49,0,0,1,.14-.18.55.55,0,0,1,.21-.12.58.58,0,0,1,.23,0,.6.6,0,0,1,.23.06l75.31,43.48a.56.56,0,0,1,.21.29.6.6,0,0,1,0,.35.61.61,0,0,1-.51.43l0,0a.6.6,0,0,1-.3-.07" transform="translate(-0.66)"/><path class="cls-5" d="M286.49,85a.59.59,0,0,1,.45-.06.59.59,0,0,1,.42.73.55.55,0,0,1-.28.35l-71,41a.62.62,0,0,1-.26.09.61.61,0,0,1-.3-.08.63.63,0,0,1-.21-.22.59.59,0,0,1-.06-.45.54.54,0,0,1,.28-.36" transform="translate(-0.66)"/><path class="cls-6" d="M149.79,184.29l-16.55-9.55,16.55-9.57,16.56,9.57Z" transform="translate(-0.66)"/><path class="cls-7" d="M149.79,202.12l-16.55-9.56V174.74l16.55,9.55Z" transform="translate(-0.66)"/><path class="cls-8" d="M166.35,192.56l-16.56,9.56V184.29l16.56-9.55Z" transform="translate(-0.66)"/><path class="cls-6" d="M168.41,195l-16.55-9.56,16.55-9.55L185,185.48Z" transform="translate(-0.66)"/><path class="cls-7" d="M168.41,212.87l-16.55-9.55V185.48L168.41,195Z" transform="translate(-0.66)"/><path class="cls-8" d="M185,203.32l-16.57,9.55V195L185,185.48Z" transform="translate(-0.66)"/><path class="cls-6" d="M187.05,205.8l-16.57-9.56,16.57-9.56,16.55,9.56Z" transform="translate(-0.66)"/><path class="cls-7" d="M187.05,223.63l-16.57-9.57V196.24l16.57,9.56Z" transform="translate(-0.66)"/><path class="cls-8" d="M203.6,214.06l-16.55,9.57V205.8l16.55-9.56Z" transform="translate(-0.66)"/><path class="cls-6" d="M205.67,216.55,189.12,207l16.55-9.57L222.22,207Z" transform="translate(-0.66)"/><path class="cls-7" d="M205.67,234.38l-16.55-9.56V207l16.55,9.55Z" transform="translate(-0.66)"/><path class="cls-8" d="M222.22,224.82l-16.55,9.56V216.55L222.22,207Z" transform="translate(-0.66)"/><path class="cls-6" d="M131.11,195.08l-16.56-9.57L131.11,176l16.56,9.55Z" transform="translate(-0.66)"/><path class="cls-7" d="M131.11,212.91l-16.56-9.56V185.51l16.56,9.57Z" transform="translate(-0.66)"/><path class="cls-8" d="M147.67,203.35l-16.56,9.56V195.08l16.56-9.57Z" transform="translate(-0.66)"/><path class="cls-6" d="M149.74,205.84l-16.57-9.57,16.57-9.56,16.55,9.56Z" transform="translate(-0.66)"/><path class="cls-7" d="M149.74,223.66l-16.57-9.56V196.27l16.57,9.57Z" transform="translate(-0.66)"/><path class="cls-8" d="M166.29,214.1l-16.55,9.56V205.84l16.55-9.57Z" transform="translate(-0.66)"/><path class="cls-6" d="M168.36,216.58,151.81,207l16.55-9.56L184.91,207Z" transform="translate(-0.66)"/><path class="cls-7" d="M168.36,234.41l-16.55-9.56V207l16.55,9.55Z" transform="translate(-0.66)"/><path class="cls-8" d="M184.91,224.85l-16.55,9.56V216.58L184.91,207Z" transform="translate(-0.66)"/><path class="cls-4" d="M197.39,233.35l-16.56-9.56,16.56-9.57L214,223.79Z" transform="translate(-0.66)"/><path class="cls-2" d="M197.39,251.17l-16.56-9.55V223.79l16.56,9.56Z" transform="translate(-0.66)"/><path class="cls-3" d="M214,241.62l-16.56,9.55V233.35L214,223.79Z" transform="translate(-0.66)"/><path class="cls-6" d="M112.42,205.87,95.87,196.3l16.55-9.56L129,196.3Z" transform="translate(-0.66)"/><path class="cls-7" d="M112.42,223.69l-16.55-9.55V196.3l16.55,9.57Z" transform="translate(-0.66)"/><path class="cls-8" d="M129,214.14l-16.56,9.55V205.87L129,196.3Z" transform="translate(-0.66)"/><path class="cls-6" d="M131.05,216.62l-16.56-9.56,16.56-9.56,16.56,9.56Z" transform="translate(-0.66)"/><path class="cls-7" d="M131.05,234.45l-16.56-9.57V207.06l16.56,9.56Z" transform="translate(-0.66)"/><path class="cls-8" d="M147.61,224.88l-16.56,9.57V216.62l16.56-9.56Z" transform="translate(-0.66)"/><path class="cls-6" d="M149.67,227.37l-16.55-9.56,16.55-9.55,16.57,9.55Z" transform="translate(-0.66)"/><path class="cls-7" d="M149.67,245.21l-16.55-9.57V217.81l16.55,9.56Z" transform="translate(-0.66)"/><path class="cls-8" d="M166.24,235.64l-16.57,9.57V227.37l16.57-9.56Z" transform="translate(-0.66)"/><path class="cls-6" d="M168.31,238.13l-16.57-9.56L168.31,219l16.55,9.57Z" transform="translate(-0.66)"/><path class="cls-7" d="M168.31,256l-16.57-9.56V228.57l16.57,9.56Z" transform="translate(-0.66)"/><path class="cls-8" d="M184.86,246.39,168.31,256V238.13l16.55-9.56Z" transform="translate(-0.66)"/><path class="cls-9" d="M93.74,216.66l-16.56-9.57,16.56-9.56,16.56,9.56Z" transform="translate(-0.66)"/><path class="cls-7" d="M93.74,234.48l-16.56-9.56V207.09l16.56,9.57Z" transform="translate(-0.66)"/><path class="cls-10" d="M110.3,224.92l-16.56,9.56V216.66l16.56-9.57Z" transform="translate(-0.66)"/><path class="cls-9" d="M112.37,227.4l-16.56-9.55,16.56-9.56,16.55,9.56Z" transform="translate(-0.66)"/><path class="cls-7" d="M112.37,245.24l-16.56-9.56V217.85l16.56,9.55Z" transform="translate(-0.66)"/><path class="cls-8" d="M128.92,235.68l-16.55,9.56V227.4l16.55-9.55Z" transform="translate(-0.66)"/><path class="cls-9" d="M131,238.16l-16.56-9.56L131,219l16.56,9.56Z" transform="translate(-0.66)"/><path class="cls-7" d="M131,256l-16.56-9.55V228.6L131,238.16Z" transform="translate(-0.66)"/><path class="cls-8" d="M147.55,246.43,131,256V238.16l16.55-9.56Z" transform="translate(-0.66)"/><path class="cls-4" d="M149.62,262.2l-16.56-9.57,16.56-9.55,16.55,9.55Z" transform="translate(-0.66)"/><path class="cls-2" d="M149.62,280l-16.56-9.55V252.63l16.56,9.57Z" transform="translate(-0.66)"/><path class="cls-3" d="M166.17,270.47,149.62,280V262.2l16.55-9.57Z" transform="translate(-0.66)"/><path class="cls-6" d="M149.79,164l-16.55-9.56,16.55-9.56,16.56,9.56Z" transform="translate(-0.66)"/><path class="cls-7" d="M149.79,181.82l-16.55-9.55V154.44L149.79,164Z" transform="translate(-0.66)"/><path class="cls-8" d="M166.35,172.27l-16.56,9.55V164l16.56-9.56Z" transform="translate(-0.66)"/><path class="cls-6" d="M168.41,174.76l-16.55-9.57,16.55-9.56L185,165.19Z" transform="translate(-0.66)"/><path class="cls-7" d="M168.41,192.58,151.86,183V165.19l16.55,9.57Z" transform="translate(-0.66)"/><path class="cls-8" d="M185,183l-16.57,9.56V174.76L185,165.19Z" transform="translate(-0.66)"/><path class="cls-9" d="M187.05,185.5,170.48,176l16.57-9.56L203.6,176Z" transform="translate(-0.66)"/><path class="cls-7" d="M187.05,203.34l-16.57-9.57V176l16.57,9.55Z" transform="translate(-0.66)"/><path class="cls-8" d="M203.6,193.77l-16.55,9.57V185.5L203.6,176Z" transform="translate(-0.66)"/><path class="cls-6" d="M205.67,196.26l-16.55-9.56,16.55-9.56,16.55,9.56Z" transform="translate(-0.66)"/><path class="cls-7" d="M205.67,214.08l-16.55-9.55V186.7l16.55,9.56Z" transform="translate(-0.66)"/><path class="cls-8" d="M222.22,204.53l-16.55,9.55V196.26l16.55-9.56Z" transform="translate(-0.66)"/><path class="cls-6" d="M131.11,174.79l-16.56-9.56,16.56-9.57,16.56,9.57Z" transform="translate(-0.66)"/><path class="cls-7" d="M131.11,192.61l-16.56-9.56V165.23l16.56,9.56Z" transform="translate(-0.66)"/><path class="cls-8" d="M147.67,183.05l-16.56,9.56V174.79l16.56-9.56Z" transform="translate(-0.66)"/><path class="cls-6" d="M149.74,185.54,133.17,176l16.57-9.56L166.29,176Z" transform="translate(-0.66)"/><path class="cls-7" d="M149.74,203.37l-16.57-9.56V176l16.57,9.56Z" transform="translate(-0.66)"/><path class="cls-8" d="M166.29,193.81l-16.55,9.56V185.54L166.29,176Z" transform="translate(-0.66)"/><path class="cls-6" d="M168.36,196.29l-16.55-9.56,16.55-9.55,16.55,9.55Z" transform="translate(-0.66)"/><path class="cls-7" d="M168.36,214.12l-16.55-9.56V186.73l16.55,9.56Z" transform="translate(-0.66)"/><path class="cls-8" d="M184.91,204.56l-16.55,9.56V196.29l16.55-9.56Z" transform="translate(-0.66)"/><path class="cls-6" d="M187,207.05l-16.55-9.56L187,187.93l16.57,9.56Z" transform="translate(-0.66)"/><path class="cls-7" d="M187,224.87l-16.55-9.56V197.49L187,207.05Z" transform="translate(-0.66)"/><path class="cls-8" d="M203.55,215.31,187,224.87V207.05l16.57-9.56Z" transform="translate(-0.66)"/><path class="cls-10" d="M112.42,185.58,95.87,176l16.55-9.57L129,176Z" transform="translate(-0.66)"/><path class="cls-10" d="M112.42,203.4l-16.55-9.56V176l16.55,9.56Z" transform="translate(-0.66)"/><path class="cls-10" d="M129,193.84l-16.56,9.56V185.58L129,176Z" transform="translate(-0.66)"/><path class="cls-10" d="M131.05,196.32l-16.56-9.56,16.56-9.55,16.56,9.55Z" transform="translate(-0.66)"/><path class="cls-10" d="M131.05,214.16l-16.56-9.56V186.76l16.56,9.56Z" transform="translate(-0.66)"/><path class="cls-10" d="M147.61,204.6l-16.56,9.56V196.32l16.56-9.56Z" transform="translate(-0.66)"/><path class="cls-6" d="M149.67,207.08l-16.55-9.56L149.67,188l16.57,9.56Z" transform="translate(-0.66)"/><path class="cls-7" d="M149.67,224.91l-16.55-9.57V197.52l16.55,9.56Z" transform="translate(-0.66)"/><path class="cls-8" d="M166.24,215.34l-16.57,9.57V207.08l16.57-9.56Z" transform="translate(-0.66)"/><path class="cls-6" d="M168.31,217.83l-16.57-9.55,16.57-9.56,16.55,9.56Z" transform="translate(-0.66)"/><path class="cls-7" d="M168.31,235.66l-16.57-9.56V208.28l16.57,9.55Z" transform="translate(-0.66)"/><path class="cls-8" d="M184.86,226.1l-16.55,9.56V217.83l16.55-9.55Z" transform="translate(-0.66)"/><path class="cls-9" d="M93.74,196.36,77.18,186.8l16.56-9.56,16.56,9.56Z" transform="translate(-0.66)"/><path class="cls-7" d="M93.74,214.19l-16.56-9.56V186.8l16.56,9.56Z" transform="translate(-0.66)"/><path class="cls-10" d="M110.3,204.63l-16.56,9.56V196.36l16.56-9.56Z" transform="translate(-0.66)"/><path class="cls-9" d="M112.37,207.12l-16.56-9.57L112.37,188l16.55,9.56Z" transform="translate(-0.66)"/><path class="cls-7" d="M112.37,224.94l-16.56-9.55V197.55l16.56,9.57Z" transform="translate(-0.66)"/><path class="cls-8" d="M128.92,215.39l-16.55,9.55V207.12l16.55-9.57Z" transform="translate(-0.66)"/><path class="cls-9" d="M131,217.86l-16.56-9.55L131,198.75l16.56,9.56Z" transform="translate(-0.66)"/><path class="cls-7" d="M131,235.7l-16.56-9.57V208.31L131,217.86Z" transform="translate(-0.66)"/><path class="cls-8" d="M147.55,226.13,131,235.7V217.86l16.55-9.55Z" transform="translate(-0.66)"/><path class="cls-6" d="M149.62,228.62l-16.56-9.56,16.56-9.55,16.55,9.55Z" transform="translate(-0.66)"/><path class="cls-7" d="M149.62,246.44l-16.56-9.55V219.06l16.56,9.56Z" transform="translate(-0.66)"/><path class="cls-8" d="M166.17,236.89l-16.55,9.55V228.62l16.55-9.56Z" transform="translate(-0.66)"/><path class="cls-9" d="M149.79,143.71l-16.55-9.56,16.55-9.57,16.56,9.57Z" transform="translate(-0.66)"/><path class="cls-7" d="M149.79,161.53,133.24,152V134.15l16.55,9.56Z" transform="translate(-0.66)"/><path class="cls-8" d="M166.35,152l-16.56,9.56V143.71l16.56-9.56Z" transform="translate(-0.66)"/><path class="cls-6" d="M168.41,154.46l-16.55-9.56,16.55-9.56L185,144.9Z" transform="translate(-0.66)"/><path class="cls-7" d="M168.41,172.29l-16.55-9.56V144.9l16.55,9.56Z" transform="translate(-0.66)"/><path class="cls-8" d="M185,162.73l-16.57,9.56V154.46L185,144.9Z" transform="translate(-0.66)"/><path class="cls-6" d="M187.05,165.21l-16.57-9.56,16.57-9.56,16.55,9.56Z" transform="translate(-0.66)"/><path class="cls-7" d="M187.05,183l-16.57-9.55V155.65l16.57,9.56Z" transform="translate(-0.66)"/><path class="cls-8" d="M203.6,173.49,187.05,183V165.21l16.55-9.56Z" transform="translate(-0.66)"/><path class="cls-6" d="M205.67,176l-16.55-9.55,16.55-9.56,16.55,9.56Z" transform="translate(-0.66)"/><path class="cls-7" d="M205.67,193.8l-16.55-9.57V166.41L205.67,176Z" transform="translate(-0.66)"/><path class="cls-8" d="M222.22,184.23l-16.55,9.57V176l16.55-9.55Z" transform="translate(-0.66)"/><path class="cls-9" d="M149.74,165.25l-16.57-9.57,16.57-9.55,16.55,9.55Z" transform="translate(-0.66)"/><path class="cls-7" d="M149.74,183.07l-16.57-9.55V155.68l16.57,9.57Z" transform="translate(-0.66)"/><path class="cls-7" d="M166.29,173.52l-16.55,9.55V165.25l16.55-9.57Z" transform="translate(-0.66)"/><path class="cls-6" d="M168.36,176l-16.55-9.57,16.55-9.56,16.55,9.56Z" transform="translate(-0.66)"/><path class="cls-7" d="M168.36,193.83l-16.55-9.57V166.44L168.36,176Z" transform="translate(-0.66)"/><path class="cls-8" d="M184.91,184.26l-16.55,9.57V176l16.55-9.57Z" transform="translate(-0.66)"/><path class="cls-4" d="M230.48,211.86l-16.56-9.55,16.56-9.56L247,202.31Z" transform="translate(-0.66)"/><path class="cls-2" d="M230.48,229.7l-16.56-9.56V202.31l16.56,9.55Z" transform="translate(-0.66)"/><path class="cls-3" d="M247,220.14l-16.56,9.56V211.86L247,202.31Z" transform="translate(-0.66)"/><path class="cls-6" d="M131.05,176l-16.56-9.57,16.56-9.56,16.56,9.56Z" transform="translate(-0.66)"/><path class="cls-7" d="M131.05,193.86l-16.56-9.56V166.47L131.05,176Z" transform="translate(-0.66)"/><path class="cls-8" d="M147.61,184.3l-16.56,9.56V176l16.56-9.57Z" transform="translate(-0.66)"/><path class="cls-6" d="M149.67,186.78l-16.55-9.55,16.55-9.56,16.57,9.56Z" transform="translate(-0.66)"/><path class="cls-7" d="M149.67,204.62l-16.55-9.57V177.23l16.55,9.55Z" transform="translate(-0.66)"/><path class="cls-8" d="M166.24,195.05l-16.57,9.57V186.78l16.57-9.55Z" transform="translate(-0.66)"/><path class="cls-6" d="M168.31,197.54,151.74,188l16.57-9.55L184.86,188Z" transform="translate(-0.66)"/><path class="cls-7" d="M168.31,215.37l-16.57-9.56V188l16.57,9.56Z" transform="translate(-0.66)"/><path class="cls-8" d="M184.86,205.81l-16.55,9.56V197.54L184.86,188Z" transform="translate(-0.66)"/><path class="cls-9" d="M93.74,176.07l-16.56-9.56,16.56-9.57,16.56,9.57Z" transform="translate(-0.66)"/><path class="cls-7" d="M93.74,193.89l-16.56-9.55V166.51l16.56,9.56Z" transform="translate(-0.66)"/><path class="cls-10" d="M110.3,184.34l-16.56,9.55V176.07l16.56-9.56Z" transform="translate(-0.66)"/><path class="cls-4" d="M72.67,209.74l-16.55-9.56,16.55-9.56,16.55,9.56Z" transform="translate(-0.66)"/><path class="cls-2" d="M72.67,227.56,56.12,218V200.18l16.55,9.56Z" transform="translate(-0.66)"/><path class="cls-3" d="M89.22,218l-16.55,9.55V209.74l16.55-9.56Z" transform="translate(-0.66)"/><path class="cls-9" d="M131,197.57,114.43,188,131,178.46,147.55,188Z" transform="translate(-0.66)"/><path class="cls-7" d="M131,215.4l-16.56-9.55V188L131,197.57Z" transform="translate(-0.66)"/><path class="cls-8" d="M147.55,205.85,131,215.4V197.57L147.55,188Z" transform="translate(-0.66)"/><path class="cls-6" d="M149.62,208.33l-16.56-9.56,16.56-9.56,16.55,9.56Z" transform="translate(-0.66)"/><path class="cls-7" d="M149.62,226.15l-16.56-9.56V198.77l16.56,9.56Z" transform="translate(-0.66)"/><path class="cls-8" d="M166.17,216.59l-16.55,9.56V208.33l16.55-9.56Z" transform="translate(-0.66)"/><path class="cls-6" d="M149.79,123.41l-16.55-9.55,16.55-9.56,16.56,9.56Z" transform="translate(-0.66)"/><path class="cls-7" d="M149.79,141.24l-16.55-9.56V113.86l16.55,9.55Z" transform="translate(-0.66)"/><path class="cls-8" d="M166.35,131.68l-16.56,9.56V123.41l16.56-9.55Z" transform="translate(-0.66)"/><path class="cls-6" d="M168.41,134.17l-16.55-9.56,16.55-9.56L185,124.61Z" transform="translate(-0.66)"/><path class="cls-7" d="M168.41,152l-16.55-9.56V124.61l16.55,9.56Z" transform="translate(-0.66)"/><path class="cls-8" d="M185,142.43,168.41,152V134.17L185,124.61Z" transform="translate(-0.66)"/><path class="cls-6" d="M187.05,144.92l-16.57-9.56,16.57-9.56,16.55,9.56Z" transform="translate(-0.66)"/><path class="cls-7" d="M187.05,162.75l-16.57-9.56V135.36l16.57,9.56Z" transform="translate(-0.66)"/><path class="cls-8" d="M203.6,153.19l-16.55,9.56V144.92l16.55-9.56Z" transform="translate(-0.66)"/><path class="cls-4" d="M205.67,126.52,189.12,117l16.55-9.56L222.22,117Z" transform="translate(-0.66)"/><path class="cls-2" d="M205.67,144.34l-16.55-9.55V117l16.55,9.57Z" transform="translate(-0.66)"/><path class="cls-3" d="M222.22,134.79l-16.55,9.55V126.52L222.22,117Z" transform="translate(-0.66)"/><path class="cls-4" d="M87,108.71,70.41,99.15,87,89.59l16.55,9.56Z" transform="translate(-0.66)"/><path class="cls-2" d="M87,126.54,70.41,117V99.15L87,108.71Z" transform="translate(-0.66)"/><path class="cls-3" d="M103.51,117,87,126.54V108.71l16.55-9.56Z" transform="translate(-0.66)"/><path class="cls-6" d="M149.74,145l-16.57-9.56,16.57-9.57,16.55,9.57Z" transform="translate(-0.66)"/><path class="cls-7" d="M149.74,162.78l-16.57-9.56V135.4L149.74,145Z" transform="translate(-0.66)"/><path class="cls-8" d="M166.29,153.22l-16.55,9.56V145l16.55-9.56Z" transform="translate(-0.66)"/><path class="cls-6" d="M168.36,155.71l-16.55-9.56,16.55-9.56,16.55,9.56Z" transform="translate(-0.66)"/><path class="cls-7" d="M168.36,173.54,151.81,164V146.15l16.55,9.56Z" transform="translate(-0.66)"/><path class="cls-8" d="M184.91,164l-16.55,9.56V155.71l16.55-9.56Z" transform="translate(-0.66)"/><path class="cls-6" d="M187,166.46l-16.55-9.56L187,147.34l16.57,9.56Z" transform="translate(-0.66)"/><path class="cls-7" d="M187,184.29l-16.55-9.55V156.9L187,166.46Z" transform="translate(-0.66)"/><path class="cls-8" d="M203.55,174.74,187,184.29V166.46l16.57-9.56Z" transform="translate(-0.66)"/><path class="cls-4" d="M94.23,134.48l-16.56-9.55,16.56-9.57,16.55,9.57Z" transform="translate(-0.66)"/><path class="cls-2" d="M94.23,152.31l-16.56-9.56V124.93l16.56,9.55Z" transform="translate(-0.66)"/><path class="cls-3" d="M110.78,142.75l-16.55,9.56V134.48l16.55-9.55Z" transform="translate(-0.66)"/><path class="cls-6" d="M131.05,155.74l-16.56-9.55,16.56-9.57,16.56,9.57Z" transform="translate(-0.66)"/><path class="cls-7" d="M131.05,173.57,114.49,164V146.19l16.56,9.55Z" transform="translate(-0.66)"/><path class="cls-8" d="M147.61,164l-16.56,9.56V155.74l16.56-9.55Z" transform="translate(-0.66)"/><path class="cls-4" d="M149.67,77.15l-16.55-9.57L149.67,58l16.57,9.55Z" transform="translate(-0.66)"/><path class="cls-2" d="M149.67,95l-16.55-9.55V67.58l16.55,9.57Z" transform="translate(-0.66)"/><path class="cls-3" d="M166.24,85.42,149.67,95V77.15l16.57-9.57Z" transform="translate(-0.66)"/><path class="cls-6" d="M168.31,177.24l-16.57-9.55,16.57-9.56,16.55,9.56Z" transform="translate(-0.66)"/><path class="cls-7" d="M168.31,195.08l-16.57-9.57V167.69l16.57,9.55Z" transform="translate(-0.66)"/><path class="cls-8" d="M184.86,185.51l-16.55,9.57V177.24l16.55-9.55Z" transform="translate(-0.66)"/><path class="cls-6" d="M93.74,155.77l-16.56-9.55,16.56-9.56,16.56,9.56Z" transform="translate(-0.66)"/><path class="cls-7" d="M93.74,173.6,77.18,164V146.22l16.56,9.55Z" transform="translate(-0.66)"/><path class="cls-8" d="M110.3,164,93.74,173.6V155.77l16.56-9.55Z" transform="translate(-0.66)"/><path class="cls-6" d="M112.37,166.53,95.81,157l16.56-9.55L128.92,157Z" transform="translate(-0.66)"/><path class="cls-7" d="M112.37,184.35,95.81,174.8V157l16.56,9.57Z" transform="translate(-0.66)"/><path class="cls-8" d="M128.92,174.8l-16.55,9.55V166.53L128.92,157Z" transform="translate(-0.66)"/><path class="cls-6" d="M131,177.29l-16.56-9.57L131,158.16l16.56,9.56Z" transform="translate(-0.66)"/><path class="cls-7" d="M131,195.11l-16.56-9.56V167.72L131,177.29Z" transform="translate(-0.66)"/><path class="cls-8" d="M147.55,185.55,131,195.11V177.29l16.55-9.57Z" transform="translate(-0.66)"/><path class="cls-6" d="M149.62,188l-16.56-9.56,16.56-9.55,16.55,9.55Z" transform="translate(-0.66)"/><path class="cls-7" d="M149.62,205.87l-16.56-9.57V178.47L149.62,188Z" transform="translate(-0.66)"/><path class="cls-8" d="M166.17,196.3l-16.55,9.57V188l16.55-9.56Z" transform="translate(-0.66)"/><path class="cls-5" d="M206.27,117a.67.67,0,0,1-.2.39.61.61,0,0,1-.82,0,.6.6,0,0,1-.18-.43V62.43a.6.6,0,0,1,1.2,0" transform="translate(-0.66)"/><path class="cls-11" d="M267.77,233.34a.6.6,0,0,1-.29-.08l-29-16.74a.62.62,0,0,1-.24-.83.56.56,0,0,1,.36-.29.57.57,0,0,1,.46,0l29,16.82a.59.59,0,0,1,.28.36.64.64,0,0,1-.05.45.63.63,0,0,1-.23.2A.77.77,0,0,1,267.77,233.34Z" transform="translate(-0.66)"/><path class="cls-12" d="M295.46,289.45a.61.61,0,0,1-.3-.08l-89.78-51.84a.8.8,0,0,1-.17-.15.7.7,0,0,1-.11-.21.87.87,0,0,1,0-.23.58.58,0,0,1,.08-.22.59.59,0,0,1,.81-.22l89.79,51.84a.72.72,0,0,1,.2.29.59.59,0,0,1,0,.35.57.57,0,0,1-.19.29.55.55,0,0,1-.32.14Z" transform="translate(-0.66)"/><path class="cls-5" d="M64.09,213.38a.59.59,0,0,1,.45-.06.61.61,0,0,1,.37.27.62.62,0,0,1,.06.46.6.6,0,0,1-.28.36l-36.29,21a.48.48,0,0,1-.35.08.52.52,0,0,1-.3-.08.56.56,0,0,1-.21-.22.6.6,0,0,1,.21-.81" transform="translate(-0.66)"/><path class="cls-5" d="M150.48,67.35a.55.55,0,0,1-.18.4.6.6,0,0,1-.83,0,.63.63,0,0,1-.17-.42V.68a.52.52,0,0,1,0-.25.51.51,0,0,1,.12-.23,1,1,0,0,1,.2-.15.65.65,0,0,1,.5,0,1,1,0,0,1,.2.15.51.51,0,0,1,.12.23.52.52,0,0,1,0,.25" transform="translate(-0.66)"/><path class="cls-5" d="M87.52,98.48a.59.59,0,0,1-1,.42.56.56,0,0,1-.18-.42V29.91a.59.59,0,0,1,1-.42.6.6,0,0,1,.18.42" transform="translate(-0.66)"/><path class="cls-13" d="M191.51,151.67l-1.44-1.07c-.72-.52-3.48-2-4.27-2.53l-9.51,5.49-7.94,2.7v1.89l-13,7.52c7.57,3.54,17.69,4.27,26.39,2.36a33.15,33.15,0,0,0,9.17-3.69l5.94-3.44C196.84,157.69,195,154.36,191.51,151.67Z" transform="translate(-0.66)"/><path class="cls-14" d="M204.83,138v5.52c0-3.83-2.5-7.66-7.55-10.56-10-5.78-26.26-5.78-36.22,0-4.94,2.87-7.42,6.64-7.47,10.42v-5.53c0-3.77,2.48-7.55,7.47-10.42,9.95-5.78,26.2-5.78,36.22,0C202.32,130.32,204.84,134.15,204.83,138Z" transform="translate(-0.66)"/><path class="cls-15" d="M161.06,130.71c9.95-5.78,26.2-5.78,36.22,0,4.62,2.68,7.12,6.12,7.47,9.61.43-4.11-2.07-8.32-7.47-11.44-10-5.8-26.27-5.8-36.22,0-5.34,3.1-7.81,7.27-7.38,11.35C154.05,136.77,156.5,133.37,161.06,130.71Z" transform="translate(-0.66)"/><path class="cls-16" d="M197.28,130.37c-10-5.79-26.27-5.79-36.22,0s-9.91,15.2.12,21,26.26,5.79,36.21,0S207.29,136.15,197.28,130.37Z" transform="translate(-0.66)"/><path class="cls-2" d="M165.66,132.33l-.47.28a1.39,1.39,0,0,1-.69.18,1.38,1.38,0,0,1-.71-.19l-1.64-.94c-.22-.13-.32-.27-.32-.4s.1-.28.32-.41l.47-.27a1.4,1.4,0,0,1,.69-.19,1.48,1.48,0,0,1,.71.19l1.63.95c.22.13.33.26.33.41S165.89,132.22,165.66,132.33Zm-.74.08.4-.23c.25-.15.25-.31,0-.47l-1.61-.92a.72.72,0,0,0-.4-.12.7.7,0,0,0-.4.12l-.4.22c-.25.16-.25.31,0,.47l1.61.93a.78.78,0,0,0,.8,0Z" transform="translate(-0.66)"/><path class="cls-17" d="M171.51,129l-.47.28a1.4,1.4,0,0,1-.7.18,1.21,1.21,0,0,1-.69-.18l-1.64-.95c-.22-.13-.33-.26-.33-.41s.1-.28.32-.39l.48-.28a1.21,1.21,0,0,1,.69-.18,1.39,1.39,0,0,1,.69.18l1.65,1c.22.13.33.27.33.4S171.73,128.83,171.51,129Zm-.73.07.39-.22c.26-.15.25-.31,0-.46l-1.62-.94a.8.8,0,0,0-.4-.11.87.87,0,0,0-.41.11l-.38.23c-.27.15-.26.3,0,.46L170,129a.72.72,0,0,0,.81,0Z" transform="translate(-0.66)"/><path class="cls-17" d="M171.23,126.37l-.18-.11c-.05,0-.06,0-.05-.08l.23-.51a.16.16,0,0,1,.07-.09l.21-.12.06,0,.07,0,2.91,1.68v.07l-.21.13h-.14l-2.61-1.51-.23.52S171.23,126.41,171.23,126.37Z" transform="translate(-0.66)"/><path class="cls-2" d="M158.83,142.82l-.47.28a1.4,1.4,0,0,1-.7.18,1.34,1.34,0,0,1-.7-.19l-1.63-.94c-.23-.13-.33-.27-.33-.4s.1-.28.32-.41l.48-.27a1.4,1.4,0,0,1,.69-.19,1.35,1.35,0,0,1,.69.19l1.65,1c.22.13.33.26.33.41S159,142.7,158.83,142.82Zm-.73.08.39-.22c.26-.16.25-.31,0-.47l-1.62-.93a.72.72,0,0,0-.4-.12.75.75,0,0,0-.41.12l-.38.22c-.27.15-.26.31,0,.47l1.61.93a.72.72,0,0,0,.41.11A.71.71,0,0,0,158.1,142.9Z" transform="translate(-0.66)"/><path class="cls-2" d="M164.48,139.56l-.47.28a1.51,1.51,0,0,1-.69.18,1.32,1.32,0,0,1-.7-.2l-1.64-.93c-.22-.13-.33-.27-.33-.41s.11-.28.32-.41l.48-.26a1.23,1.23,0,0,1,.7-.19,1.31,1.31,0,0,1,.69.19l1.64.95c.23.12.34.25.34.39S164.71,139.42,164.48,139.56Zm-.72.07.38-.22c.27-.15.26-.31,0-.47l-1.61-.93a.71.71,0,0,0-.4-.11.72.72,0,0,0-.41.11l-.38.23c-.27.14-.26.3,0,.47l1.62.92a.73.73,0,0,0,.8,0Z" transform="translate(-0.66)"/><path class="cls-17" d="M170.16,136.29l-.48.27a1.37,1.37,0,0,1-1.39,0l-1.64-.95c-.21-.12-.33-.26-.33-.4s.11-.27.33-.4l.47-.28a1.39,1.39,0,0,1,.69-.18,1.41,1.41,0,0,1,.7.19l1.64.94c.23.13.33.27.33.41A.46.46,0,0,1,170.16,136.29Zm-.73.08.38-.23c.27-.16.27-.31,0-.47l-1.61-.93a.81.81,0,0,0-.41-.11.8.8,0,0,0-.4.11L167,135c-.26.15-.25.31,0,.47l1.62.93a.77.77,0,0,0,.39.11.75.75,0,0,0,.4-.11Z" transform="translate(-0.66)"/><path class="cls-17" d="M169.75,133.76l-.2-.1s-.05,0,0-.1l.24-.49s0-.09.07-.1l.21-.11a.09.09,0,0,1,.06,0,.11.11,0,0,1,.07,0l2.91,1.67v.08l-.21.13h-.14l-2.6-1.51-.23.51a.14.14,0,0,1,0,.07.09.09,0,0,1-.06,0,.06.06,0,0,1-.07,0A.06.06,0,0,1,169.75,133.76Z" transform="translate(-0.66)"/><path class="cls-17" d="M175.81,133l-.48.26a1.31,1.31,0,0,1-1.39,0l-1.64-.95c-.22-.11-.32-.25-.32-.39s.1-.28.32-.41l.47-.27a1.4,1.4,0,0,1,.69-.19,1.32,1.32,0,0,1,.7.2l1.64.94c.22.12.33.26.33.4S176,132.9,175.81,133Zm-.74.07.39-.22c.26-.16.26-.31,0-.47l-1.62-.93a.72.72,0,0,0-.4-.12.73.73,0,0,0-.41.12l-.38.22c-.27.15-.26.31,0,.46l1.61.94a.77.77,0,0,0,.81,0Z" transform="translate(-0.66)"/><path class="cls-2" d="M159.14,146.44l-.19-.1s-.07-.07,0-.1l.22-.5a.28.28,0,0,1,.09-.1l.19-.1a.09.09,0,0,1,.07,0,.11.11,0,0,1,.07,0l2.9,1.67v.08l-.21.11a.09.09,0,0,1-.07,0l-.06,0-2.61-1.49-.24.5S159.19,146.47,159.14,146.44Z" transform="translate(-0.66)"/><path class="cls-17" d="M181.9,136.05l-.48.26a1.32,1.32,0,0,1-.69.2,1.27,1.27,0,0,1-.69-.2l-1.65-.95c-.21-.12-.33-.25-.33-.4s.11-.28.33-.4l.47-.27a1.37,1.37,0,0,1,1.39,0l1.64,1c.23.12.33.26.33.4S182.14,135.92,181.9,136.05Zm-.73.07.38-.22c.27-.16.27-.31,0-.47l-1.61-.93a.73.73,0,0,0-.41-.12.72.72,0,0,0-.4.12l-.39.22c-.26.15-.25.3,0,.46l1.61.93a.72.72,0,0,0,.42.13.79.79,0,0,0,.42-.12Z" transform="translate(-0.66)"/><path class="cls-17" d="M187.77,132.66l-.47.27a1.31,1.31,0,0,1-.69.19,1.38,1.38,0,0,1-.71-.19l-1.63-1q-.33-.18-.33-.39c0-.14.11-.28.32-.41l.47-.28a1.47,1.47,0,0,1,.71-.18,1.4,1.4,0,0,1,.69.19l1.64.94c.22.13.33.27.32.41A.52.52,0,0,1,187.77,132.66Zm-.73.08.39-.23c.27-.14.26-.3,0-.47l-1.61-.92a.73.73,0,0,0-.8,0l-.4.22c-.25.15-.24.31,0,.47l1.62.93a.69.69,0,0,0,.4.11A.71.71,0,0,0,187,132.74Z" transform="translate(-0.66)"/><path class="cls-17" d="M191.16,130.7l-.46.28a1.46,1.46,0,0,1-.7.18,1.43,1.43,0,0,1-.7-.18l-1.64-.95c-.22-.13-.33-.27-.33-.41s.11-.27.32-.4l.48-.27a1.37,1.37,0,0,1,1.39,0l1.64,1c.22.13.34.26.34.4S191.38,130.58,191.16,130.7Zm-.72.07.38-.22c.27-.15.26-.31,0-.47l-1.61-.93a.8.8,0,0,0-.4-.11.81.81,0,0,0-.41.11l-.38.23c-.27.16-.26.31,0,.47l1.61.92a.72.72,0,0,0,.4.12A.73.73,0,0,0,190.44,130.77Z" transform="translate(-0.66)"/><path class="cls-17" d="M173.47,147.47l-.47.27a1.4,1.4,0,0,1-.69.19,1.6,1.6,0,0,1-.71-.19l-1.64-1c-.22-.12-.32-.26-.32-.4s.1-.28.32-.41l.47-.26a1.32,1.32,0,0,1,.69-.2,1.39,1.39,0,0,1,.71.2l1.63.95c.22.12.33.25.33.4S173.68,147.35,173.47,147.47Zm-.74.07.4-.22c.25-.15.25-.31,0-.47l-1.61-.93a.73.73,0,0,0-.8,0l-.4.22c-.25.16-.25.31,0,.47l1.61.93a.72.72,0,0,0,.4.12A.7.7,0,0,0,172.73,147.54Z" transform="translate(-0.66)"/><path class="cls-17" d="M173.07,145l-.19-.12s-.06,0,0-.09l.24-.5a.23.23,0,0,1,.08-.09l.19-.12.07,0,.07,0,2.9,1.68v.08l-.21.12H176l-2.6-1.51-.25.52S173.13,145,173.07,145Z" transform="translate(-0.66)"/><path class="cls-17" d="M175.43,143.58l-.19-.1s-.06-.07,0-.1l.23-.5a.39.39,0,0,1,.08-.1l.19-.1.07,0a.09.09,0,0,1,.07,0l2.91,1.68v.08l-.22.11a.08.08,0,0,1-.12,0l-2.61-1.5-.24.51A.24.24,0,0,1,175.43,143.58Z" transform="translate(-0.66)"/><path class="cls-2" d="M183.85,141.48l-.47.27a1.37,1.37,0,0,1-1.39,0l-1.64-.95c-.23-.12-.34-.26-.34-.41s.11-.27.32-.39l.48-.28a1.43,1.43,0,0,1,.7-.18,1.31,1.31,0,0,1,.69.19l1.65.94c.22.13.33.26.33.4S184,141.35,183.85,141.48Zm-.73.07.38-.22c.27-.16.26-.31,0-.47l-1.61-.93a.8.8,0,0,0-.4-.11.81.81,0,0,0-.41.11l-.38.23c-.27.15-.26.31,0,.46l1.61.93a.72.72,0,0,0,.4.12A.73.73,0,0,0,183.12,141.55Z" transform="translate(-0.66)"/><path class="cls-17" d="M190.44,137.67,190,138a1.39,1.39,0,0,1-.69.18,1.48,1.48,0,0,1-.71-.19l-1.63-.94c-.22-.13-.33-.27-.33-.41s.11-.28.32-.4l.48-.27a1.37,1.37,0,0,1,1.39,0l1.64,1c.21.13.33.26.33.4S190.65,137.54,190.44,137.67Zm-.73.07.39-.22c.27-.15.25-.31,0-.47l-1.61-.93a.81.81,0,0,0-.41-.11.8.8,0,0,0-.4.11l-.39.23c-.26.15-.25.31,0,.47l1.61.92a.78.78,0,0,0,.41.12A.72.72,0,0,0,189.71,137.74Z" transform="translate(-0.66)"/><path class="cls-17" d="M196.1,134.4l-.47.28a1.43,1.43,0,0,1-.7.18,1.34,1.34,0,0,1-.7-.19l-1.63-.94c-.23-.13-.33-.27-.33-.4s.1-.28.32-.41l.48-.27a1.26,1.26,0,0,1,.69-.19,1.4,1.4,0,0,1,.69.19l1.65.95c.22.12.33.26.33.41S196.31,134.28,196.1,134.4Zm-.73.08.39-.23c.26-.15.25-.3,0-.46l-1.62-.93a.72.72,0,0,0-.4-.12.78.78,0,0,0-.41.12l-.38.22c-.27.15-.26.31,0,.47l1.61.93a.73.73,0,0,0,.41.12A.72.72,0,0,0,195.37,134.48Z" transform="translate(-0.66)"/><path class="cls-17" d="M174.56,150.64l-.18-.12s-.07-.05,0-.09l.23-.5a.18.18,0,0,1,.08-.09l.2-.12.06,0,.07,0,2.91,1.67v.09l-.21.12h-.14l-2.66-1.51-.23.51C174.66,150.66,174.62,150.67,174.56,150.64Z" transform="translate(-0.66)"/><path class="cls-17" d="M180.57,149.92l-.47.27a1.32,1.32,0,0,1-.7.19,1.44,1.44,0,0,1-.7-.19l-1.63-.95c-.23-.12-.33-.26-.33-.41s.1-.26.32-.39l.47-.28a1.39,1.39,0,0,1,.69-.18,1.32,1.32,0,0,1,.7.19l1.65.94c.21.13.33.27.32.41S180.84,149.79,180.57,149.92Zm-.74.08.4-.23c.26-.16.25-.31,0-.47l-1.61-.93a.84.84,0,0,0-.41-.11.8.8,0,0,0-.4.11l-.39.23c-.26.15-.25.31,0,.46L179,150a.78.78,0,0,0,.8,0Z" transform="translate(-0.66)"/><path class="cls-17" d="M180.12,147.42l-.19-.1s-.07-.07,0-.1l.23-.5a.25.25,0,0,1,.08-.1l.2-.11.06,0,.07,0,2.91,1.68v.08l-.21.11a.11.11,0,0,1-.07,0,.09.09,0,0,1-.07,0l-2.65-1.49-.23.51,0,0h-.07Z" transform="translate(-0.66)"/><path class="cls-17" d="M186.17,146.71l-.47.28a1.51,1.51,0,0,1-.69.18,1.48,1.48,0,0,1-.71-.19l-1.64-.94c-.21-.13-.32-.27-.32-.41s.11-.28.32-.4l.47-.27a1.32,1.32,0,0,1,.7-.19,1.34,1.34,0,0,1,.7.19l1.64.95c.21.13.32.25.32.4S186.34,146.58,186.17,146.71Zm-.74.07.4-.22c.26-.15.26-.31,0-.47l-1.61-.93a.73.73,0,0,0-.8,0l-.4.23c-.25.15-.25.31,0,.46l1.61.93a.76.76,0,0,0,.38.11.7.7,0,0,0,.38-.11Z" transform="translate(-0.66)"/><path class="cls-17" d="M191.24,141l-.19-.11s-.07,0,0-.09l.23-.5c0-.05,0-.08.08-.09l.2-.12.06,0,.07,0,2.9,1.68v.07l-.21.13-.07,0-.06,0-2.65-1.48-.24.51A.15.15,0,0,1,191.24,141Z" transform="translate(-0.66)"/><path class="cls-17" d="M196.84,137.8l-.19-.12s-.06-.05,0-.08l.23-.51A.24.24,0,0,1,197,137l.19-.12.07,0,.07,0,2.91,1.67v.09l-.22.12h-.13l-2.69-1.47-.24.51S196.84,137.83,196.84,137.8Z" transform="translate(-0.66)"/><path class="cls-17" d="M202.81,137.08l-.48.27a1.27,1.27,0,0,1-.68.19,1.35,1.35,0,0,1-.71-.19l-1.64-.95c-.21-.12-.32-.26-.32-.39s.11-.28.32-.41l.47-.28a1.39,1.39,0,0,1,.69-.18,1.48,1.48,0,0,1,.71.19l1.63.94c.22.13.33.27.33.41S203,137,202.81,137.08Zm-.74.08.39-.23c.27-.16.27-.31,0-.47l-1.61-.92a.78.78,0,0,0-.41-.12.72.72,0,0,0-.4.12l-.39.22c-.27.15-.25.31,0,.46l1.61.94a.81.81,0,0,0,.41.11A.8.8,0,0,0,202.07,137.16Z" transform="translate(-0.66)"/><path class="cls-17" d="M181.41,153.22l-.18-.11h0l0,0s0,0,0,0a0,0,0,0,1,0,0l.23-.5c0-.05,0-.08.08-.09l.2-.12h.13l2.91,1.68v.07l-.21.13-.07,0-.07,0-2.61-1.5-.23.51C181.52,153.29,181.47,153.29,181.41,153.22Z" transform="translate(-0.66)"/><path class="cls-17" d="M183.88,151.8l-.2-.11s-.06-.05,0-.09l.23-.49,0-.06.05,0,.2-.12h.13l2.91,1.68v.07l-.22.13-.06,0-.06,0-2.61-1.5-.24.51S183.93,151.83,183.88,151.8Z" transform="translate(-0.66)"/><path class="cls-17" d="M188.8,149l-.2-.11s-.06,0,0-.09l.23-.5a.24.24,0,0,1,.08-.09l.2-.12.07,0,.06,0,2.91,1.68v.07l-.22.13-.06,0-.06,0-2.61-1.5-.24.51S188.85,149,188.8,149Z" transform="translate(-0.66)"/><path class="cls-17" d="M191.25,147.54l-.19-.11s-.05-.06,0-.09l.23-.5a.39.39,0,0,1,.08-.1l.2-.11.06,0,.07,0,2.91,1.68v.07l-.21.13-.07,0-.07,0-2.6-1.5-.24.51a0,0,0,0,1,0,.06.1.1,0,0,1-.05,0l-.07,0A.11.11,0,0,1,191.25,147.54Z" transform="translate(-0.66)"/><path class="cls-17" d="M197.11,144.16l-.19-.11s-.07-.05,0-.08l.22-.51a.29.29,0,0,1,.09-.09l.19-.12h.14l2.9,1.68V145l-.21.13-.07,0-.06,0-2.6-1.5-.25.51C197.21,144.19,197.16,144.2,197.11,144.16Z" transform="translate(-0.66)"/><path class="cls-17" d="M199.57,142.74l-.2-.11a.06.06,0,0,1,0-.09l.24-.5s0-.08.07-.09l.2-.12H200l2.92,1.68v.07l-.22.13-.07,0-.07,0-2.6-1.5-.23.51S199.62,142.77,199.57,142.74Z" transform="translate(-0.66)"/><g class="cls-18"><path class="cls-19" d="M153.65,136.52l-.19-.12s-.06,0,0-.09l.24-.5a.14.14,0,0,1,.08-.09l.19-.12.07,0,.07,0,2.9,1.67v.09l-.21.12-.06,0-.07,0-2.6-1.51-.25.52C153.75,136.54,153.71,136.55,153.65,136.52Z" transform="translate(-0.66)"/><path class="cls-19" d="M159.8,135.72l-.47.26a1.32,1.32,0,0,1-.69.2,1.39,1.39,0,0,1-.71-.2L156.3,135c-.23-.11-.33-.25-.33-.39s.1-.28.32-.41l.48-.27a1.4,1.4,0,0,1,.69-.19,1.32,1.32,0,0,1,.7.2l1.64.93c.22.13.33.27.33.41S160,135.59,159.8,135.72Zm-.73.07.39-.22c.27-.16.25-.31,0-.47l-1.61-.93a.73.73,0,0,0-.41-.12.72.72,0,0,0-.4.12l-.39.22c-.27.15-.25.31,0,.47l1.61.93a.75.75,0,0,0,.41.12A.72.72,0,0,0,159.07,135.79Z" transform="translate(-0.66)"/><path class="cls-19" d="M159.49,133.13l-.19-.1s-.06-.07,0-.1l.23-.5a.25.25,0,0,1,.08-.1l.2-.1a.07.07,0,0,1,.06,0,.08.08,0,0,1,.07,0l2.91,1.68V134l-.21.11a.11.11,0,0,1-.07,0,.09.09,0,0,1-.07,0l-2.6-1.5-.24.51S159.56,133.17,159.49,133.13Z" transform="translate(-0.66)"/><path class="cls-19" d="M165.36,129.75l-.19-.11s-.07-.06,0-.09l.22-.5a.22.22,0,0,1,.09-.1l.19-.11.07,0,.07,0,2.9,1.68v.07l-.21.13-.07,0-.06,0-2.61-1.5-.24.51S165.41,129.81,165.36,129.75Z" transform="translate(-0.66)"/><path class="cls-19" d="M177.37,125.54l-.47.27a1.32,1.32,0,0,1-.7.19,1.34,1.34,0,0,1-.7-.19l-1.63-1c-.23-.13-.33-.25-.33-.4s.1-.28.31-.4l.47-.27a1.47,1.47,0,0,1,.7-.19,1.41,1.41,0,0,1,.7.19l1.65.94c.21.13.33.27.32.41A.42.42,0,0,1,177.37,125.54Zm-.74.08.39-.22c.27-.16.26-.31,0-.47l-1.61-.93a.73.73,0,0,0-.8,0l-.39.22c-.26.15-.26.31,0,.46l1.61.94a.75.75,0,0,0,.8,0Z" transform="translate(-0.66)"/><path class="cls-19" d="M158.42,140.29l-.19-.1s-.06-.06,0-.1l.23-.49s0-.08.08-.09l.2-.12.07,0,.06,0,2.9,1.67v.08l-.21.13h-.13l-2.6-1.51-.25.51A.17.17,0,0,1,158.42,140.29Z" transform="translate(-0.66)"/><path class="cls-19" d="M164.09,137l-.19-.11s-.07,0,0-.09l.23-.49c0-.06,0-.09.08-.1l.2-.12h.13l2.9,1.68c.05,0,.05,0,0,.07l-.2.13-.07,0-.07,0-2.61-1.51-.23.52S164.14,137.06,164.09,137Z" transform="translate(-0.66)"/><path class="cls-19" d="M175.4,130.5l-.18-.11c-.05,0-.06-.06-.05-.1l.23-.5a.23.23,0,0,1,.08-.09l.2-.11a.07.07,0,0,1,.06,0,.08.08,0,0,1,.07,0l2.91,1.68v.07l-.21.13-.07,0-.07,0L175.76,130l-.23.52S175.5,130.53,175.4,130.5Z" transform="translate(-0.66)"/><path class="cls-19" d="M181.46,129.81l-.48.27a1.25,1.25,0,0,1-.68.19,1.32,1.32,0,0,1-.7-.19l-1.65-1c-.21-.12-.32-.25-.32-.4s.11-.28.32-.4l.47-.28a1.4,1.4,0,0,1,.7-.18,1.44,1.44,0,0,1,.7.19l1.63.94c.23.13.33.27.33.41S181.68,129.63,181.46,129.81Zm-.73.08.38-.23c.27-.15.27-.3,0-.46l-1.61-.93a.72.72,0,0,0-.4-.12.73.73,0,0,0-.41.12l-.39.22c-.25.15-.25.31,0,.46l1.62.94a.82.82,0,0,0,.41.08.74.74,0,0,0,.4-.16Z" transform="translate(-0.66)"/><path class="cls-19" d="M184.76,127.85l-.48.28a1.33,1.33,0,0,1-.68.18,1.22,1.22,0,0,1-.7-.18l-1.65-.95c-.21-.13-.32-.26-.32-.41s.11-.27.32-.39l.47-.28a1.3,1.3,0,0,1,.69-.18,1.47,1.47,0,0,1,.71.18l1.63,1c.23.13.33.27.33.41S185,127.73,184.76,127.85Zm-.73.08.38-.23c.27-.15.27-.31,0-.46l-1.61-.94a.81.81,0,0,0-.41-.11.8.8,0,0,0-.4.11l-.39.23c-.26.15-.25.3,0,.46l1.62.93a.73.73,0,0,0,.41.12.87.87,0,0,0,.41-.11Z" transform="translate(-0.66)"/><path class="cls-19" d="M188.06,126l-.48.28a1.39,1.39,0,0,1-.69.18,1.41,1.41,0,0,1-.7-.19l-1.64-.94c-.21-.13-.33-.27-.33-.41s.1-.27.33-.4l.47-.27a1.37,1.37,0,0,1,1.39,0l1.64,1c.22.13.33.26.33.41S188.31,125.82,188.06,126Zm-.74.08.39-.23c.27-.15.27-.31,0-.47l-1.61-.93a.81.81,0,0,0-.41-.11.8.8,0,0,0-.4.11l-.39.23c-.27.15-.25.31,0,.47l1.61.93a.81.81,0,0,0,.41.11A.8.8,0,0,0,187.32,126Z" transform="translate(-0.66)"/><path class="cls-19" d="M165.29,145.64l-.47.28a1.46,1.46,0,0,1-.7.18,1.31,1.31,0,0,1-.69-.19l-1.65-.94c-.21-.13-.33-.27-.33-.41s.11-.27.32-.4l.48-.27a1.37,1.37,0,0,1,1.39,0l1.65,1c.22.13.33.26.33.41S165.51,145.52,165.29,145.64Zm-.73.08.38-.23c.27-.15.26-.31,0-.47l-1.61-.93a.8.8,0,0,0-.4-.11.81.81,0,0,0-.41.11l-.38.23c-.27.16-.26.31,0,.47l1.61.93a.74.74,0,0,0,.81,0Z" transform="translate(-0.66)"/><path class="cls-19" d="M165,143.06l-.18-.11s-.07,0,0-.09l.23-.49s0-.09.08-.1l.2-.12.06,0,.07,0,2.91,1.68v.07l-.21.13-.07,0-.07,0-2.61-1.51-.23.52S165.05,143.09,165,143.06Z" transform="translate(-0.66)"/><path class="cls-19" d="M171.14,142.26l-.47.28a1.52,1.52,0,0,1-.69.19,1.41,1.41,0,0,1-.7-.19l-1.65-.95c-.21-.13-.32-.26-.32-.41s.11-.28.32-.39l.47-.28a1.22,1.22,0,0,1,.7-.18,1.43,1.43,0,0,1,.7.18l1.64,1c.22.13.34.27.32.4A.52.52,0,0,1,171.14,142.26Zm-.73.07.39-.22c.27-.15.26-.31,0-.46l-1.61-.94a.78.78,0,0,0-.8,0l-.39.22c-.26.16-.26.3,0,.46l1.61.93a.71.71,0,0,0,.4.13A.72.72,0,0,0,170.41,142.33Z" transform="translate(-0.66)"/><path class="cls-19" d="M170.85,139.68l-.2-.11s-.06,0,0-.09l.24-.5a.16.16,0,0,1,.07-.09l.21-.12.06,0,.06,0,2.91,1.67v.08l-.22.13h-.13l-2.62-1.51-.25.51C170.94,139.71,170.9,139.72,170.85,139.68Z" transform="translate(-0.66)"/><path class="cls-19" d="M173.3,138.26l-.18-.11h0l0,0s0,0,0,0a0,0,0,0,1,0,0l.23-.49a.14.14,0,0,1,.08-.09l.2-.12.06,0,.07,0,2.91,1.67v.08l-.21.13h-.14l-2.61-1.51-.23.52C173.37,138.29,173.37,138.35,173.3,138.26Z" transform="translate(-0.66)"/><path class="cls-19" d="M175.76,136.84l-.19-.11s-.06,0,0-.1l.23-.49a.09.09,0,0,1,0,0l0,0,.19-.12.07,0,.07,0,2.91,1.67v.08l-.22.13h-.13l-2.6-1.51-.24.52A.14.14,0,0,1,175.76,136.84Z" transform="translate(-0.66)"/><path class="cls-19" d="M181.61,133.46l-.18-.11c-.05,0-.06,0-.05-.09l.23-.5a.39.39,0,0,1,.08-.1l.2-.11.07,0,.06,0,2.91,1.68v.08l-.21.12-.07,0-.07,0-2.6-1.51-.24.51A.11.11,0,0,1,181.61,133.46Z" transform="translate(-0.66)"/><path class="cls-19" d="M190.87,128.12l-.19-.11s-.07,0,0-.09l.23-.5s0-.08.07-.09l.21-.12a.07.07,0,0,1,.06,0,.1.1,0,0,1,.07,0l2.9,1.68c.05,0,.05.05,0,.07l-.21.13h-.13l-2.61-1.51-.23.52a.14.14,0,0,1,0,.06.06.06,0,0,1-.06,0,.07.07,0,0,1-.06,0A.09.09,0,0,1,190.87,128.12Z" transform="translate(-0.66)"/><path class="cls-19" d="M164.11,150.09l-.18-.1s-.06-.07,0-.1l.23-.5a.28.28,0,0,1,.09-.1l.19-.11.07,0,.07,0,2.9,1.68v.07l-.21.13-.06,0-.07,0-2.6-1.5-.25.5S164.17,150.15,164.11,150.09Z" transform="translate(-0.66)"/><path class="cls-19" d="M170.16,149.38l-.47.26a1.29,1.29,0,0,1-.69.2,1.32,1.32,0,0,1-.7-.2l-1.65-.95c-.21-.12-.32-.25-.32-.4s.11-.28.32-.4l.47-.27a1.47,1.47,0,0,1,.7-.19,1.41,1.41,0,0,1,.7.19l1.64.95c.22.12.32.26.32.4S170.39,149.25,170.16,149.38Zm-.73.06.39-.21c.27-.16.26-.31,0-.47l-1.61-.93a.73.73,0,0,0-.8,0l-.4.22c-.25.15-.25.3,0,.46l1.62.93a.7.7,0,0,0,.81,0Z" transform="translate(-0.66)"/><path class="cls-19" d="M177.79,142.22l-.19-.11s-.06-.07,0-.1l.24-.5a.23.23,0,0,1,.07-.1l.2-.1a.09.09,0,0,1,.07,0,.09.09,0,0,1,.06,0l2.9,1.67s.06,0,0,.08l-.2.13h-.14l-2.6-1.51-.24.51a.08.08,0,0,1,0,.07.09.09,0,0,1-.06,0,.1.1,0,0,1-.07,0Z" transform="translate(-0.66)"/><path class="cls-19" d="M187.14,139.57l-.47.28a1.39,1.39,0,0,1-.69.18,1.37,1.37,0,0,1-.71-.18l-1.63-.95c-.22-.13-.33-.26-.33-.41s.11-.28.32-.39l.48-.28a1.43,1.43,0,0,1,1.39,0l1.64,1c.23.13.33.27.33.4S187.35,139.42,187.14,139.57Zm-.72.07.38-.22c.27-.15.26-.31,0-.46l-1.61-.94a.81.81,0,0,0-.41-.11.8.8,0,0,0-.4.11l-.39.23c-.26.15-.25.29,0,.46l1.61.92a.79.79,0,0,0,.41.13A.78.78,0,0,0,186.42,139.64Z" transform="translate(-0.66)"/><path class="cls-19" d="M190,135.15l-.19-.11s-.06,0,0-.09l.24-.49c0-.06,0-.09.07-.1l.21-.12h.12l2.91,1.68V136l-.22.13-.06,0-.07,0-2.61-1.51-.25.51A.25.25,0,0,1,190,135.15Z" transform="translate(-0.66)"/><path class="cls-19" d="M199.39,132.5l-.47.27a1.28,1.28,0,0,1-.69.19,1.32,1.32,0,0,1-.7-.19l-1.64-1c-.22-.13-.33-.25-.33-.41s.11-.27.32-.39l.48-.28a1.4,1.4,0,0,1,.7-.18,1.51,1.51,0,0,1,.69.18l1.64.95c.23.13.34.27.34.41S199.61,132.38,199.39,132.5Zm-.72.08.38-.23c.27-.16.26-.31,0-.47l-1.61-.92a.72.72,0,0,0-.4-.12.73.73,0,0,0-.41.12l-.38.22c-.27.15-.26.3,0,.46l1.61.93a.72.72,0,0,0,.4.12A.87.87,0,0,0,198.67,132.58Z" transform="translate(-0.66)"/><path class="cls-19" d="M172.3,152l-.2-.12s-.06,0,0-.08l.23-.5a.23.23,0,0,1,0-.11l.19-.12h.14l2.9,1.68v.08l-.21.12-.07,0-.06,0-2.6-1.51-.25.52C172.35,152,172.3,152,172.3,152Z" transform="translate(-0.66)"/><path class="cls-19" d="M185.68,144.21l-.19-.11s-.07-.06,0-.09l.23-.5a.25.25,0,0,1,.08-.1l.2-.11.06,0,.07,0L189,145c.05,0,.05,0,0,.07l-.2.13-.07,0-.07,0L186,143.69l-.23.5,0,0h-.07Z" transform="translate(-0.66)"/><path class="cls-19" d="M191.69,143.5l-.47.27a1.4,1.4,0,0,1-.69.19,1.38,1.38,0,0,1-.71-.19l-1.64-1c-.22-.12-.32-.26-.32-.4s.1-.28.32-.41l.47-.26a1.33,1.33,0,0,1,.72-.2,1.39,1.39,0,0,1,.71.2l1.63.95c.22.12.33.25.33.4S191.9,143.38,191.69,143.5Zm-.74.07.4-.22c.25-.15.25-.31,0-.47l-1.61-.93a.75.75,0,0,0-.41-.12.72.72,0,0,0-.4.12l-.39.22c-.26.15-.26.3,0,.46l1.61.93a.72.72,0,0,0,.4.12A.71.71,0,0,0,191,143.57Z" transform="translate(-0.66)"/><path class="cls-19" d="M197.25,140.29l-.47.27a1.32,1.32,0,0,1-.7.19,1.34,1.34,0,0,1-.7-.19l-1.64-.95c-.22-.13-.32-.25-.32-.4s.1-.28.32-.4l.47-.28a1.51,1.51,0,0,1,.69-.18,1.59,1.59,0,0,1,.71.18l1.63.95c.22.13.33.27.33.41S197.46,140.17,197.25,140.29Zm-.74.07.39-.23q.39-.21,0-.45l-1.61-.93a.78.78,0,0,0-.41-.12.72.72,0,0,0-.4.12l-.39.22c-.26.15-.26.3,0,.46l1.61.93a.73.73,0,0,0,.41.12A.72.72,0,0,0,196.51,140.36Z" transform="translate(-0.66)"/><path class="cls-19" d="M186.33,150.38l-.18-.11h0l0,0a0,0,0,0,0,0,0,0,0,0,0,1,0,0l.23-.49c0-.06,0-.09.08-.1l.2-.12.06,0,.07,0,2.91,1.68v.07l-.21.13-.07,0-.07,0-2.6-1.5-.24.51S186.4,150.41,186.33,150.38Z" transform="translate(-0.66)"/><path class="cls-19" d="M197.41,146.74l-.47.28a1.39,1.39,0,0,1-.69.18,1.26,1.26,0,0,1-.71-.18l-1.64-1c-.22-.13-.32-.26-.32-.41s.1-.27.32-.39l.47-.28a1.3,1.3,0,0,1,.69-.18,1.47,1.47,0,0,1,.71.18l1.63.95c.22.13.33.27.33.41S197.62,146.62,197.41,146.74Zm-.74.08.4-.23c.25-.15.25-.31,0-.46l-1.61-.94a.84.84,0,0,0-.41-.11.8.8,0,0,0-.4.11l-.39.23c-.25.15-.25.3,0,.46l1.61.92a.73.73,0,0,0,.4.13A.8.8,0,0,0,196.67,146.82Z" transform="translate(-0.66)"/><path class="cls-19" d="M205.72,142l-.47.27a1.37,1.37,0,0,1-1.39,0l-1.65-.95c-.21-.13-.32-.26-.32-.41s.11-.28.32-.39l.47-.28a1.4,1.4,0,0,1,.7-.18,1.43,1.43,0,0,1,.7.18l1.63.95c.23.13.33.26.33.4S205.94,141.82,205.72,142ZM205,142l.39-.22c.26-.16.26-.31,0-.47l-1.61-.93a.78.78,0,0,0-.8,0l-.39.23c-.26.14-.26.3,0,.46l1.61.93a.73.73,0,0,0,.8,0Z" transform="translate(-0.66)"/></g><path class="cls-20" d="M206,138v5.53c0,3.93-2.6,7.87-7.76,10.87-10.4,6-27.36,6-37.81,0-5.27-3-7.9-7-7.89-11v-5.52c0,4,2.61,8,7.88,11,10.45,6,27.42,6,37.81,0,5.16-3,7.75-6.93,7.76-10.87Z" transform="translate(-0.66)"/><path class="cls-21" d="M198.07,126.94c10.46,6,10.51,15.86.12,21.9s-27.36,6-37.81,0-10.5-15.82-.12-21.9S187.61,120.9,198.07,126.94Zm-36.89,21.44c10,5.79,26.26,5.79,36.21,0s9.9-15.19-.11-21-26.27-5.78-36.22,0S151.15,142.6,161.18,148.38Z" transform="translate(-0.66)"/><path class="cls-22" d="M203,156.92c0,1.37,1,1.92,2.14,1.24a4.72,4.72,0,0,0,2.13-3.71c0-1.38-1-1.94-2.13-1.25a4.66,4.66,0,0,0-1.51,1.61A4.75,4.75,0,0,0,203,156.92Z" transform="translate(-0.66)"/><path class="cls-23" d="M206.68,153.06l-7-4a1.66,1.66,0,0,0-.79-.14,1.63,1.63,0,0,0-.74.28,4.84,4.84,0,0,0-1.51,1.61,4.79,4.79,0,0,0-.63,2.12,1.59,1.59,0,0,0,.13.77,1.41,1.41,0,0,0,.48.6l7,4a1.62,1.62,0,0,1-.49-.61,1.69,1.69,0,0,1-.12-.77,4.75,4.75,0,0,1,.63-2.11,4.66,4.66,0,0,1,1.51-1.61,1.45,1.45,0,0,1,.75-.27A1.5,1.5,0,0,1,206.68,153.06Z" transform="translate(-0.66)"/><path class="cls-24" d="M208.37,151.57a2.58,2.58,0,0,0-1.34-.24,2.53,2.53,0,0,0-1.27.48,8.05,8.05,0,0,0-2.59,2.73,8.22,8.22,0,0,0-1.07,3.61,2.62,2.62,0,0,0,.22,1.32,2.58,2.58,0,0,0,.85,1l26.36,15.21,5.22-8.94Z" transform="translate(-0.66)"/><path d="M228.49,173.38c0,2.34,1.64,3.28,3.66,2.13a8.09,8.09,0,0,0,3.65-6.34c0-1.52-.71-2.46-1.76-2.59a3.14,3.14,0,0,0-1.89.49,8.11,8.11,0,0,0-3.66,6.31Z" transform="translate(-0.66)"/><path class="cls-25" d="M228.49,173.38c.92-4.47,3.93-6.84,5.55-6.82C232,165.83,228,169.57,228.49,173.38Z" transform="translate(-0.66)"/><path class="cls-2" d="M153.65,127l-.19-.11s-.06-.06,0-.09l.24-.51a.17.17,0,0,1,.08-.09l.19-.12h.14l2.9,1.69v.07l-.21.12a.07.07,0,0,1-.06,0,.08.08,0,0,1-.07,0l-2.6-1.5-.25.51S153.71,127.06,153.65,127Z" transform="translate(-0.66)"/><path class="cls-26" d="M159.8,122.06l-.47.27a1.41,1.41,0,0,1-.69.2,1.39,1.39,0,0,1-.71-.2l-1.64-1c-.23-.13-.33-.25-.33-.4s.1-.28.32-.4l.48-.27a1.31,1.31,0,0,1,.69-.19,1.47,1.47,0,0,1,.7.19l1.64.94c.22.13.33.27.33.41S160,121.94,159.8,122.06Zm-.73.07.39-.22c.26-.15.25-.3,0-.46l-1.61-.93a.75.75,0,0,0-.41-.12.72.72,0,0,0-.4.12l-.39.22c-.27.15-.25.3,0,.46l1.61.93a.73.73,0,0,0,.41.12A.72.72,0,0,0,159.07,122.13Z" transform="translate(-0.66)"/><path class="cls-26" d="M159.49,116.52l-.19-.11s-.06-.06,0-.1l.23-.5a.18.18,0,0,1,.08-.09l.2-.11a.09.09,0,0,1,.06,0,.09.09,0,0,1,.07,0l2.91,1.68v.07l-.21.13h-.14l-2.64-1.55-.23.51S159.56,116.55,159.49,116.52Z" transform="translate(-0.66)"/><path class="cls-2" d="M165.36,120.39l-.19-.11s-.07-.06,0-.09l.22-.5a.22.22,0,0,1,.09-.1l.19-.12h.14l2.9,1.69v.07l-.21.12a.09.09,0,0,1-.07,0,.09.09,0,0,1-.06,0l-2.61-1.5-.24.51S165.41,120.42,165.36,120.39Z" transform="translate(-0.66)"/><path class="cls-26" d="M177.37,113.87l-.47.27a1.41,1.41,0,0,1-.7.19,1.44,1.44,0,0,1-.7-.19l-1.63-1c-.23-.12-.33-.26-.33-.4s.1-.28.31-.4l.47-.28a1.46,1.46,0,0,1,.7-.18,1.32,1.32,0,0,1,.7.19l1.65.94c.21.13.33.26.32.4S177.63,113.74,177.37,113.87Zm-.74.07.39-.22c.27-.16.26-.31,0-.47l-1.61-.93a.78.78,0,0,0-.8,0l-.39.23c-.26.15-.26.31,0,.45l1.61.94a.73.73,0,0,0,.8,0Z" transform="translate(-0.66)"/><path class="cls-26" d="M158.42,135.81l-.19-.11s-.06,0,0-.09l.19-.46.09-.1.2-.11.07,0,.06,0,2.9,1.67v.09l-.21.12-.07,0-.06,0-2.6-1.51-.25.51A.2.2,0,0,1,158.42,135.81Z" transform="translate(-0.66)"/><path class="cls-26" d="M164.09,126.07l-.19-.11s-.07-.06,0-.09l.23-.51a.23.23,0,0,1,.08-.09l.2-.11a.07.07,0,0,1,.06,0,.08.08,0,0,1,.07,0l2.9,1.68c.05,0,.05,0,0,.07l-.2.13-.07,0-.07,0-2.65-1.5-.23.52,0,0h-.07Z" transform="translate(-0.66)"/><path class="cls-2" d="M175.4,128l-.18-.12a.06.06,0,0,1-.05-.08l.23-.5a.2.2,0,0,1,.08-.1l.2-.12h.13l2.89,1.68v.08l-.21.12-.07,0-.07,0-2.61-1.51-.23.52S175.5,128,175.4,128Z" transform="translate(-0.66)"/><path class="cls-26" d="M181.46,123.81l-.48.27a1.33,1.33,0,0,1-.68.18,1.23,1.23,0,0,1-.7-.19l-1.65-.94c-.21-.13-.32-.26-.32-.4s.11-.28.32-.41l.47-.26a1.32,1.32,0,0,1,.7-.2,1.35,1.35,0,0,1,.7.2l1.63.94c.23.12.33.26.33.41S181.68,123.68,181.46,123.81Zm-.73.07.38-.22c.27-.15.27-.31,0-.47l-1.61-.93a.72.72,0,0,0-.4-.12.73.73,0,0,0-.41.12l-.39.22c-.25.15-.25.31,0,.47l1.62.93a.72.72,0,0,0,.4.12A.73.73,0,0,0,180.73,123.88Z" transform="translate(-0.66)"/><path class="cls-26" d="M184.76,100.21l-.48.27a1.34,1.34,0,0,1-.68.19,1.41,1.41,0,0,1-.7-.19l-1.65-1c-.21-.12-.32-.26-.32-.41s.11-.28.32-.39l.47-.28a1.39,1.39,0,0,1,.69-.18,1.35,1.35,0,0,1,.71.19l1.63.94c.23.13.33.26.33.4S185,100.08,184.76,100.21Zm-.73.07.38-.22c.27-.16.27-.31,0-.47l-1.61-.93a.81.81,0,0,0-.41-.11.8.8,0,0,0-.4.11l-.39.23c-.26.15-.25.31,0,.45l1.62.94a.73.73,0,0,0,.41.12.78.78,0,0,0,.41-.12Z" transform="translate(-0.66)"/><path class="cls-26" d="M188.06,118.48l-.48.28a1.39,1.39,0,0,1-.69.18,1.22,1.22,0,0,1-.7-.18l-1.64-1c-.21-.13-.33-.26-.33-.41s.1-.27.33-.39l.47-.28a1.3,1.3,0,0,1,.69-.18,1.4,1.4,0,0,1,.7.18l1.64,1c.22.13.33.27.33.4S188.31,118.36,188.06,118.48Zm-.74.08.39-.23c.27-.15.27-.31,0-.46l-1.61-.94a.81.81,0,0,0-.41-.11.8.8,0,0,0-.4.11l-.39.23c-.27.15-.25.3,0,.46l1.61.92a.74.74,0,0,0,.41.13A.8.8,0,0,0,187.32,118.56Z" transform="translate(-0.66)"/><path class="cls-26" d="M165.29,143.13l-.47.27a1.37,1.37,0,0,1-1.39,0l-1.65-1c-.21-.13-.33-.26-.33-.41s.11-.27.32-.39l.48-.28a1.43,1.43,0,0,1,1.39,0l1.65.95c.22.13.33.27.33.41S165.51,143,165.29,143.13Zm-.73.07.38-.22c.27-.16.26-.3,0-.47l-1.61-.92a.72.72,0,0,0-.4-.12.73.73,0,0,0-.41.12l-.38.22c-.27.15-.26.3,0,.46l1.61.93a.72.72,0,0,0,.4.12A.73.73,0,0,0,164.56,143.2Z" transform="translate(-0.66)"/><path class="cls-26" d="M165,140.55l-.17-.06s-.06,0,0-.09l.24-.5a.36.36,0,0,1,.07-.1l.21-.11.06,0,.07,0,2.91,1.67v.09l-.21.12H168l-2.61-1.51-.23.51A.23.23,0,0,1,165,140.55Z" transform="translate(-0.66)"/><path class="cls-26" d="M171.14,139.75l-.47.27a1.38,1.38,0,0,1-.69.19,1.41,1.41,0,0,1-.7-.19l-1.65-1c-.21-.12-.32-.26-.32-.4s.11-.27.32-.4l.47-.28a1.4,1.4,0,0,1,.7-.18,1.34,1.34,0,0,1,.7.19l1.64.94c.22.13.34.27.32.41S171.36,139.62,171.14,139.75Zm-.73.07.39-.22c.27-.16.26-.31,0-.47l-1.61-.93a.78.78,0,0,0-.8,0l-.39.23c-.26.15-.26.31,0,.47l1.61.92a.73.73,0,0,0,.8,0Z" transform="translate(-0.66)"/><path class="cls-26" d="M170.85,137.17l-.2-.11s-.06-.06,0-.1l.24-.5a.2.2,0,0,1,.07-.09l.21-.11.06,0,.06,0L174.2,138V138l-.22.12-.06,0-.07,0-2.6-1.49-.24.5S170.9,137.2,170.85,137.17Z" transform="translate(-0.66)"/><path class="cls-26" d="M173.3,105.37l-.18-.1,0,0,0,0s0,0,0,0a0,0,0,0,1,0,0l.23-.49a.19.19,0,0,1,.08-.1l.2-.11.06,0,.07,0,2.91,1.67v.08l-.21.13h-.14l-2.61-1.51-.23.51A.1.1,0,0,1,173.3,105.37Z" transform="translate(-0.66)"/><path class="cls-2" d="M175.76,134.33l-.19-.11s-.06-.06,0-.09l.23-.5a.27.27,0,0,1,.08-.1l.19-.12h.14l2.91,1.69v.07l-.22.12-.06,0-.07,0-2.6-1.5-.24.51C175.86,134.35,175.82,134.36,175.76,134.33Z" transform="translate(-0.66)"/><path class="cls-26" d="M181.61,131l-.18-.11c-.05,0-.06-.07-.05-.1l.23-.5a.34.34,0,0,1,.08-.09l.2-.11a.09.09,0,0,1,.07,0l.06,0,2.91,1.67v.08l-.21.13h-.14l-2.6-1.51-.24.51A.13.13,0,0,1,181.61,131Z" transform="translate(-0.66)"/><path class="cls-26" d="M190.87,111.18l-.19-.11s-.07,0,0-.09l.23-.49s0-.09.07-.1l.21-.12h.13l2.9,1.68c.05,0,.05,0,0,.07l-.21.13-.06,0-.07,0-2.65-1.55-.24.52S190.92,111.21,190.87,111.18Z" transform="translate(-0.66)"/><path class="cls-26" d="M164.11,147.6l-.18-.11s-.06-.06,0-.09l.23-.5,0-.06.05,0,.19-.11.07,0,.07,0,2.9,1.67v.08l-.21.13h-.13l-2.6-1.51-.25.51C164.22,147.63,164.17,147.64,164.11,147.6Z" transform="translate(-0.66)"/><path class="cls-26" d="M170.16,146.89l-.47.28a1.39,1.39,0,0,1-.69.18,1.41,1.41,0,0,1-.7-.19l-1.65-.94c-.21-.13-.32-.27-.32-.41s.11-.27.32-.4l.47-.27a1.38,1.38,0,0,1,1.4,0l1.64,1c.22.13.32.26.32.41S170.39,146.73,170.16,146.89Zm-.73.07.39-.22c.27-.15.26-.31,0-.47l-1.61-.93a.78.78,0,0,0-.8,0l-.4.23c-.25.15-.25.31,0,.47l1.62.92a.72.72,0,0,0,.81-.07Z" transform="translate(-0.66)"/><path class="cls-26" d="M177.79,139.71l-.19-.12s-.06,0,0-.08l.24-.51a.2.2,0,0,1,.07-.09l.2-.12.07,0,.06,0,2.9,1.68s.06.05,0,.08l-.2.12h-.14l-2.6-1.51-.24.52a0,0,0,0,1,0,0,0,0,0,0,1,0,0l0,0,0,0h0l0,0,0,0S177.79,139.72,177.79,139.71Z" transform="translate(-0.66)"/><path class="cls-1" d="M187.14,137.06l-.47.27a1.4,1.4,0,0,1-.69.19,1.48,1.48,0,0,1-.71-.19l-1.63-1c-.22-.12-.33-.26-.33-.4s.11-.27.32-.4l.48-.28a1.39,1.39,0,0,1,.69-.18,1.32,1.32,0,0,1,.7.19l1.64.94c.23.13.33.27.33.41S187.35,136.93,187.14,137.06Zm-.72.08.38-.23c.27-.16.26-.31,0-.47l-1.61-.93a.81.81,0,0,0-.41-.11.8.8,0,0,0-.4.11l-.39.23c-.26.15-.25.31,0,.46l1.61.94a.82.82,0,0,0,.82,0Z" transform="translate(-0.66)"/><path class="cls-1" d="M190,132.63l-.19-.11s-.06-.06,0-.09l.24-.5a.23.23,0,0,1,.07-.1l.21-.12h.12l2.91,1.69v.08l-.22.11-.06,0a.11.11,0,0,1-.07,0l-2.61-1.5-.25.51S190.1,132.66,190,132.63Z" transform="translate(-0.66)"/><path class="cls-1" d="M199.39,119.69l-.47.26a1.2,1.2,0,0,1-.69.19,1.32,1.32,0,0,1-.7-.19l-1.64-1c-.22-.11-.33-.25-.33-.39s.11-.28.32-.41l.48-.27a1.41,1.41,0,0,1,.7-.19,1.32,1.32,0,0,1,.69.2l1.64.94c.23.12.34.26.34.4S199.61,119.56,199.39,119.69Zm-.72.07.38-.22c.27-.16.26-.31,0-.47l-1.61-.93a.72.72,0,0,0-.4-.12.73.73,0,0,0-.41.12l-.38.22c-.27.15-.26.31,0,.47l1.61.93a.72.72,0,0,0,.4.12A.73.73,0,0,0,198.67,119.76Z" transform="translate(-0.66)"/><path class="cls-1" d="M172.3,149.45l-.2-.1s-.06-.07,0-.1l.23-.5a.39.39,0,0,1,.08-.1l.2-.11.07,0,.06,0,2.91,1.68v.07l-.22.13-.06,0-.06,0-2.61-1.5-.24.5S172.3,149.48,172.3,149.45Z" transform="translate(-0.66)"/><path class="cls-1" d="M185.68,113.1l-.19-.11s-.07-.06,0-.09l.23-.5a.25.25,0,0,1,.08-.1l.2-.12h.13l2.9,1.69c.05,0,.05,0,0,.07l-.2.12a.11.11,0,0,1-.07,0,.09.09,0,0,1-.07,0l-2.6-1.49-.24.5v0a.1.1,0,0,1,0,0l0,0h-.09l0,0S185.68,113.11,185.68,113.1Z" transform="translate(-0.66)"/><path class="cls-1" d="M191.69,141l-.47.27a1.4,1.4,0,0,1-.69.19,1.48,1.48,0,0,1-.71-.19l-1.64-.95c-.22-.12-.32-.26-.32-.41s.1-.28.32-.39l.47-.28a1.39,1.39,0,0,1,.69-.18,1.23,1.23,0,0,1,.7.19l1.64.94c.22.13.33.26.33.4S191.9,140.86,191.69,141Zm-.74.07.4-.22c.25-.16.25-.31,0-.47l-1.61-.93a.88.88,0,0,0-.41-.12.81.81,0,0,0-.4.12l-.39.22c-.26.16-.26.32,0,.46l1.61.94a.73.73,0,0,0,.8,0Z" transform="translate(-0.66)"/><path class="cls-1" d="M197.25,137.78l-.47.27a1.52,1.52,0,0,1-.69.19,1.39,1.39,0,0,1-.71-.2l-1.64-.94c-.22-.12-.32-.26-.32-.4s.1-.28.32-.41l.47-.26a1.32,1.32,0,0,1,.69-.2,1.39,1.39,0,0,1,.71.2l1.63.95c.22.11.33.25.33.4S197.46,137.65,197.25,137.78Zm-.74.07.39-.22c.26-.15.26-.31,0-.47l-1.61-.93a.78.78,0,0,0-.41-.12.72.72,0,0,0-.4.12l-.39.22c-.26.15-.26.31,0,.47l1.61.93a.73.73,0,0,0,.41.12A.72.72,0,0,0,196.51,137.85Z" transform="translate(-0.66)"/><path class="cls-1" d="M186.33,147.87l-.18-.11c-.05,0-.06-.06-.05-.09l.23-.5a.25.25,0,0,1,.08-.1l.2-.12h.13l2.91,1.69v.07l-.21.12a.1.1,0,0,1-.07,0,.08.08,0,0,1-.07,0l-2.6-1.5-.24.51S186.4,148,186.33,147.87Z" transform="translate(-0.66)"/><path class="cls-1" d="M197.41,144.23l-.47.27a1.31,1.31,0,0,1-.69.19,1.38,1.38,0,0,1-.71-.19l-1.64-.95c-.22-.12-.32-.26-.32-.4s.1-.27.32-.4l.47-.28a1.39,1.39,0,0,1,.69-.18,1.48,1.48,0,0,1,.71.19l1.63.94c.22.13.33.27.33.41S197.62,144.1,197.41,144.23Zm-.74.08.4-.23c.25-.16.25-.31,0-.47l-1.61-.93a.84.84,0,0,0-.41-.11.8.8,0,0,0-.4.11l-.39.23c-.25.15-.25.31,0,.47l1.61.93a.78.78,0,0,0,.8,0Z" transform="translate(-0.66)"/><path class="cls-26" d="M205.72,133.18l-.47.26a1.22,1.22,0,0,1-.69.19,1.32,1.32,0,0,1-.7-.19l-1.65-.94c-.21-.12-.32-.26-.32-.4s.11-.28.32-.41l.47-.26a1.32,1.32,0,0,1,.7-.2,1.35,1.35,0,0,1,.7.2l1.63.94c.23.12.33.26.33.4S205.94,133,205.72,133.18Zm-.73.07.39-.23c.26-.15.26-.31,0-.47l-1.61-.93a.73.73,0,0,0-.8,0l-.39.22c-.26.15-.26.31,0,.47l1.61.93a.7.7,0,0,0,.4.12A.8.8,0,0,0,205,133.25Z" transform="translate(-0.66)"/><path class="cls-26" d="M65.19,113.81,65,113.7s-.07-.06,0-.1l.22-.5a.39.39,0,0,1,.08-.1l.2-.1a.09.09,0,0,1,.07,0,.11.11,0,0,1,.07,0l2.9,1.67v.08l-.21.12-.07,0-.06,0-2.61-1.5-.24.5C65.28,113.81,65.24,113.86,65.19,113.81Z" transform="translate(-0.66)"/><path class="cls-1" d="M93.06,72.75l-.48.28a1.39,1.39,0,0,1-.69.18A1.3,1.3,0,0,1,91.2,73l-1.65-1c-.21-.13-.33-.26-.33-.41s.11-.28.33-.39L90,71a1.43,1.43,0,0,1,.7-.18,1.39,1.39,0,0,1,.69.18l1.64,1c.23.13.33.27.33.4S93.32,72.63,93.06,72.75Zm-.73.07.38-.22c.27-.15.27-.31,0-.46L91.1,71.2a.8.8,0,0,0-.4-.11.81.81,0,0,0-.41.11l-.38.23c-.27.14-.26.29,0,.45l1.61.93a.72.72,0,0,0,.81,0Z" transform="translate(-0.66)"/><path class="cls-26" d="M135.89,82.91l-.19-.11s-.06,0,0-.09l.23-.49a.09.09,0,0,1,0-.06.1.1,0,0,1,.05,0l.19-.12.07,0,.07,0,2.91,1.68v.07l-.21.13-.07,0-.06,0-2.6-1.5-.26.48S136,82.94,135.89,82.91Z" transform="translate(-0.66)"/><path class="cls-26" d="M82.12,61.2l-.19-.12s-.06,0,0-.08l.23-.5a.27.27,0,0,1,.08-.1l.2-.12h.13L85.48,62V62l-.22.12-.06,0-.07,0-2.6-1.5-.24.51S82.18,61.23,82.12,61.2Z" transform="translate(-0.66)"/><path class="cls-26" d="M234.34,99.48l-.2-.1s-.06-.07,0-.1l.23-.5a.39.39,0,0,1,.08-.1l.21-.11.06,0,.06,0,2.91,1.68v.08l-.22.11a.07.07,0,0,1-.12,0L234.74,99l-.24.5S234.39,99.52,234.34,99.48Z" transform="translate(-0.66)"/><path class="cls-26" d="M44.66,103.32l-.18-.12s-.06,0,0-.09l.23-.5a.39.39,0,0,1,.08-.1l.2-.11.07,0,.06,0L48,104.07v.09l-.21.12h-.14L45,102.77l-.24.51A.12.12,0,0,1,44.66,103.32Z" transform="translate(-0.66)"/><path class="cls-26" d="M93.06,79.05l-.48.26a1.18,1.18,0,0,1-.69.19,1.22,1.22,0,0,1-.69-.19l-1.65-1c-.21-.11-.33-.25-.33-.4s.11-.28.33-.4l.47-.28a1.55,1.55,0,0,1,.7-.18,1.32,1.32,0,0,1,.69.2l1.64.93c.23.13.33.27.33.41S93.32,78.92,93.06,79.05Zm-.73.07.38-.22c.27-.16.27-.31,0-.47l-1.62-.91a.73.73,0,0,0-.41-.12.72.72,0,0,0-.4.12l-.39.22c-.26.15-.25.31,0,.46l1.62.94a.76.76,0,0,0,.82,0Z" transform="translate(-0.66)"/><path class="cls-26" d="M72.91,93l-.19-.12s-.06,0,0-.08l.23-.5a.39.39,0,0,1,.08-.1l.19-.12h.14l2.88,1.68v.08l-.21.12-.06,0-.07,0-2.62-1.45L73,93A.22.22,0,0,1,72.91,93Z" transform="translate(-0.66)"/><path class="cls-26" d="M92.68,98.52l-.19-.1s-.07-.07,0-.1l.22-.5a.28.28,0,0,1,.09-.1l.19-.1a.09.09,0,0,1,.07,0,.11.11,0,0,1,.07,0L96,99.29v.08l-.21.12-.07,0-.06,0L93.09,98l-.25.51S92.73,98.55,92.68,98.52Z" transform="translate(-0.66)"/><path class="cls-26" d="M199.81,104.26l-.19-.1s0,0,0,0a.08.08,0,0,1,0,0l.23-.49a.11.11,0,0,1,.08-.1l.2-.11.07,0,.06,0,2.91,1.67v.08l-.21.13h-.14l-2.6-1.51-.24.51S199.88,104.3,199.81,104.26Z" transform="translate(-0.66)"/><path class="cls-26" d="M199.81,86.94l-.19-.1s-.05-.07,0-.1l.23-.5a.39.39,0,0,1,.08-.1l.12-.08a.08.08,0,0,1,.12,0l2.92,1.67v.08l-.21.13h-.14l-2.61-1.51-.23.51S199.88,87,199.81,86.94Z" transform="translate(-0.66)"/><path class="cls-26" d="M109,111l-.47.27a1.38,1.38,0,0,1-1.4,0l-1.65-1c-.21-.13-.31-.26-.31-.41s.1-.28.31-.4l.48-.27a1.43,1.43,0,0,1,1.39,0l1.65,1c.21.13.33.26.32.4A.57.57,0,0,1,109,111Zm-.74.06.39-.22c.27-.15.26-.3,0-.46l-1.61-.93a.78.78,0,0,0-.4-.12.81.81,0,0,0-.4.12l-.39.23q-.39.21,0,.45l1.61.93a.7.7,0,0,0,.84,0Z" transform="translate(-0.66)"/><path class="cls-26" d="M136.76,62l-.47.27a1.53,1.53,0,0,1-.7.19,1.44,1.44,0,0,1-.7-.19l-1.63-1c-.23-.13-.33-.26-.33-.41s.1-.28.32-.39l.48-.28a1.41,1.41,0,0,1,1.38,0l1.65.95c.21.13.33.27.33.4S137,61.84,136.76,62ZM136,62l.39-.22c.26-.15.25-.3,0-.46l-1.63-.91a.74.74,0,0,0-.81,0l-.38.23c-.27.15-.26.3,0,.46l1.61.92a.73.73,0,0,0,.8,0Z" transform="translate(-0.66)"/><path class="cls-26" d="M68.5,108.73,68,109a1.46,1.46,0,0,1-.7.18,1.21,1.21,0,0,1-.69-.18l-1.65-1c-.21-.12-.32-.25-.32-.4s.1-.28.32-.41l.47-.27a1.55,1.55,0,0,1,.7-.18,1.51,1.51,0,0,1,.69.18l1.64,1c.23.12.34.25.34.4S68.71,108.61,68.5,108.73Zm-.74.07.38-.22c.27-.15.27-.31,0-.46l-1.61-.94a.72.72,0,0,0-.4-.12.73.73,0,0,0-.41.12l-.38.22c-.27.15-.26.3,0,.46l1.61.93a.82.82,0,0,0,.4.13A.73.73,0,0,0,67.76,108.8Z" transform="translate(-0.66)"/><path class="cls-26" d="M211.12,97.8l-.47.27a1.35,1.35,0,0,1-1.38,0l-1.65-.95c-.21-.12-.33-.26-.33-.4s.11-.28.32-.41l.48-.26a1.31,1.31,0,0,1,1.39,0l1.64,1c.23.12.34.25.34.4S211.35,97.69,211.12,97.8Zm-.72.07.38-.22c.27-.15.26-.31,0-.47l-1.61-.93a.72.72,0,0,0-.4-.12.73.73,0,0,0-.41.12l-.38.22c-.27.16-.26.31,0,.47l1.61.93a.82.82,0,0,0,.4.13.75.75,0,0,0,.41-.12Z" transform="translate(-0.66)"/><path class="cls-26" d="M82.12,132.63l-.19-.11s-.06-.06,0-.09l.23-.5a.39.39,0,0,1,.08-.1l.19-.12h.14l2.91,1.69v.08l-.22.11a.07.07,0,0,1-.06,0,.09.09,0,0,1-.07,0l-2.6-1.5-.24.51S82.18,132.66,82.12,132.63Z" transform="translate(-0.66)"/><path class="cls-26" d="M104.49,96.49l-.5.24a1.34,1.34,0,0,1-.68.19,1.32,1.32,0,0,1-.7-.19l-1.65-1c-.21-.13-.32-.26-.32-.41s.11-.27.32-.39l.47-.28a1.4,1.4,0,0,1,.7-.18,1.46,1.46,0,0,1,.7.18l1.63,1c.23.13.33.27.33.41A.51.51,0,0,1,104.49,96.49Zm-.74.08.38-.22c.27-.15.27-.31,0-.46L102.52,95a.73.73,0,0,0-.41-.12.72.72,0,0,0-.4.12l-.38.22c-.26.15-.26.3,0,.46l1.61.93a.72.72,0,0,0,.4.12A.65.65,0,0,0,103.75,96.57Z" transform="translate(-0.66)"/><path class="cls-26" d="M104.18,93.91l-.19-.1s-.06-.06,0-.09l.23-.5a.16.16,0,0,1,.08-.1l.2-.11a.07.07,0,0,1,.06,0,.08.08,0,0,1,.07,0l2.91,1.67v.08l-.22.12-.06,0-.07,0-2.6-1.5-.24.51S104.24,94,104.18,93.91Z" transform="translate(-0.66)"/><path class="cls-26" d="M152.07,48.16l-.18-.11a.06.06,0,0,1,0-.09l.24-.49a.07.07,0,0,1,0-.06.1.1,0,0,1,.05,0l.19-.12h.14l2.9,1.68V49l-.21.13-.06,0-.07,0-2.65-1.49-.25.51S152.14,48.19,152.07,48.16Z" transform="translate(-0.66)"/><path class="cls-26" d="M134.09,78.52l-.18-.12c-.06,0-.06,0-.06-.08l.24-.5a.36.36,0,0,1,.07-.1l.21-.12h.13l2.91,1.68v.09l-.21.11-.07,0-.07,0-2.6-1.5-.24.51S134.15,78.59,134.09,78.52Z" transform="translate(-0.66)"/><path class="cls-26" d="M127.47,69.82l-.19-.1s-.06,0,0-.1l.23-.49a.11.11,0,0,1,.08-.1l.2-.11a.08.08,0,0,1,.07,0,.07.07,0,0,1,.06,0l2.9,1.67v.08l-.21.13h-.13l-2.6-1.51-.25.51S127.47,69.86,127.47,69.82Z" transform="translate(-0.66)"/><path class="cls-26" d="M167.84,79.47l-.19-.1s0,0,0,0a0,0,0,0,1,0,0,0,0,0,0,1,0,0v0l.24-.49s0-.09.07-.1l.2-.11a.08.08,0,0,1,.07,0,.07.07,0,0,1,.06,0l2.91,1.67v.08l-.21.12-.07,0-.07,0-2.6-1.5-.24.51A.12.12,0,0,1,167.84,79.47Z" transform="translate(-0.66)"/><path class="cls-26" d="M83.92,136.22l-.19-.11s-.07-.06,0-.1l.23-.5a.23.23,0,0,1,.08-.09l.2-.11a.07.07,0,0,1,.06,0,.08.08,0,0,1,.07,0l2.9,1.68s0,0,0,.07l-.21.13-.07,0-.06,0-2.61-1.51-.23.52a.07.07,0,0,1,0,.06.06.06,0,0,1-.06,0,.07.07,0,0,1-.06,0A.05.05,0,0,1,83.92,136.22Z" transform="translate(-0.66)"/><path class="cls-26" d="M116.31,135.85l-.48.28a1.43,1.43,0,0,1-1.39,0l-1.64-.95c-.22-.13-.33-.25-.33-.4s.11-.28.33-.4l.47-.28a1.39,1.39,0,0,1,.69-.18,1.47,1.47,0,0,1,.71.18l1.63,1c.22.13.33.27.33.41S116.52,135.74,116.31,135.85Zm-.74.08.39-.22c.26-.15.26-.31,0-.46l-1.61-.94a.76.76,0,0,0-.82,0l-.38.22c-.27.15-.26.3,0,.46l1.61.93a.73.73,0,0,0,.41.12A.64.64,0,0,0,115.57,135.93Z" transform="translate(-0.66)"/><path class="cls-26" d="M156.34,60l-.18-.1s-.06-.07,0-.1l.23-.5a.39.39,0,0,1,.08-.1l.2-.1a.09.09,0,0,1,.07,0l.06,0,2.91,1.67v.08l-.21.13h-.14l-2.6-1.51-.24.51S156.4,60,156.34,60Z" transform="translate(-0.66)"/><path class="cls-26" d="M211.13,129.43l-.48.27a1.35,1.35,0,0,1-.69.19,1.4,1.4,0,0,1-.69-.19l-1.65-.95c-.21-.12-.33-.26-.33-.4s.11-.28.33-.4l.47-.28a1.4,1.4,0,0,1,.7-.18,1.31,1.31,0,0,1,.69.19l1.64.94c.23.13.34.27.34.4S211.35,129.3,211.13,129.43Zm-.73.08.38-.23c.27-.16.27-.31,0-.47l-1.61-.93a.8.8,0,0,0-.4-.11.81.81,0,0,0-.41.11l-.38.23c-.27.15-.26.31,0,.47l1.61.93a.74.74,0,0,0,.81,0Z" transform="translate(-0.66)"/><path class="cls-26" d="M180.24,118l-.2-.11s-.06-.06,0-.09l.23-.5a.27.27,0,0,1,.08-.1l.2-.11.07,0,.06,0,2.91,1.68v.07l-.22.12-.06,0-.06,0-2.61-1.51-.24.51S180.29,118.07,180.24,118Z" transform="translate(-0.66)"/><path class="cls-26" d="M166.5,92.51l-.47.28a1.39,1.39,0,0,1-.69.18,1.38,1.38,0,0,1-.71-.19L163,91.84c-.21-.13-.32-.27-.32-.4s.11-.28.32-.41l.47-.27a1.41,1.41,0,0,1,.7-.19,1.44,1.44,0,0,1,.7.19l1.64.95c.21.13.33.26.32.41S166.71,92.39,166.5,92.51Zm-.74.08.4-.23c.27-.14.26-.3,0-.47L164.55,91a.73.73,0,0,0-.8,0l-.4.22c-.25.15-.25.31,0,.47l1.61.93a.81.81,0,0,0,.41.11A.74.74,0,0,0,165.76,92.59Z" transform="translate(-0.66)"/><path class="cls-26" d="M80.33,83.92l-.19-.1s-.06-.07,0-.1l.22-.5a.28.28,0,0,1,.09-.1l.19-.1a.11.11,0,0,1,.07,0,.09.09,0,0,1,.07,0l2.9,1.67v.08l-.21.11a.09.09,0,0,1-.06,0,.09.09,0,0,1-.07,0l-2.6-1.49-.25.5A.74.74,0,0,1,80.33,83.92Z" transform="translate(-0.66)"/><path class="cls-26" d="M153.88,82.91l-.2-.11c-.05,0-.06,0-.05-.09l.24-.51a.15.15,0,0,1,.08-.08l.19-.12.07,0,.07,0,2.9,1.68v.07l-.21.13-.06,0-.07,0-2.6-1.5-.25.51S153.93,82.94,153.88,82.91Z" transform="translate(-0.66)"/><path class="cls-26" d="M94.51,130.63l-.46.27a1.46,1.46,0,0,1-.7.18,1.33,1.33,0,0,1-.7-.18L91,130c-.22-.13-.33-.26-.33-.4s.11-.28.32-.41l.48-.26a1.31,1.31,0,0,1,1.39,0l1.64.94c.23.13.34.26.34.41S94.73,130.51,94.51,130.63Zm-.72.07.38-.22c.27-.15.26-.31,0-.46l-1.61-.94a.72.72,0,0,0-.4-.12.73.73,0,0,0-.41.12l-.38.22c-.27.15-.26.3,0,.46l1.61.93a.82.82,0,0,0,.4.13A.73.73,0,0,0,93.79,130.7Z" transform="translate(-0.66)"/><path class="cls-26" d="M228.09,116.32l-.47.28a1.43,1.43,0,0,1-1.39,0l-1.65-.95c-.21-.13-.32-.26-.32-.4s.11-.28.32-.41l.47-.27a1.4,1.4,0,0,1,.69-.19,1.45,1.45,0,0,1,.71.19l1.63,1c.23.13.33.26.33.41S228.31,116.21,228.09,116.32Zm-.73.08.39-.22c.26-.15.26-.31,0-.47l-1.61-.93a.72.72,0,0,0-.4-.12.73.73,0,0,0-.41.12L225,115c-.26.16-.26.31,0,.47l1.61.93a.7.7,0,0,0,.4.12A.8.8,0,0,0,227.36,116.4Z" transform="translate(-0.66)"/><path class="cls-26" d="M72.91,126.07l-.19-.11s-.06-.06,0-.09l.23-.51a.24.24,0,0,1,.08-.09l.19-.11a.1.1,0,0,1,.07,0,.08.08,0,0,1,.07,0l2.91,1.68v.07l-.22.13-.06,0-.07,0-2.64-1.5-.25.52A.13.13,0,0,1,72.91,126.07Z" transform="translate(-0.66)"/><path class="cls-26" d="M109,119.69l-.47.26a1.23,1.23,0,0,1-.7.19,1.32,1.32,0,0,1-.7-.19l-1.65-1c-.21-.11-.31-.25-.31-.39s.1-.28.31-.41l.48-.27a1.4,1.4,0,0,1,.69-.19,1.32,1.32,0,0,1,.7.2l1.65.94c.21.12.32.26.32.4S109.17,119.56,109,119.69Zm-.74.07.39-.22c.26-.16.26-.31,0-.47l-1.61-.93a.7.7,0,0,0-.4-.12.72.72,0,0,0-.4.12l-.39.22c-.26.15-.26.31,0,.47l1.61.93a.74.74,0,0,0,.84,0Z" transform="translate(-0.66)"/><path class="cls-1" d="M170.46,64.94l-.48.27a1.4,1.4,0,0,1-.69.19,1.32,1.32,0,0,1-.7-.2L167,64.26c-.21-.12-.32-.26-.32-.4s.11-.28.32-.41l.47-.26a1.32,1.32,0,0,1,.69-.2,1.36,1.36,0,0,1,.71.2l1.63,1c.23.11.33.25.33.4S170.68,64.81,170.46,64.94Zm-.73.07.38-.22c.27-.15.27-.31,0-.47l-1.61-.93a.73.73,0,0,0-.41-.12.72.72,0,0,0-.4.12l-.39.22c-.26.15-.25.31,0,.47l1.61.93a.76.76,0,0,0,.82,0Z" transform="translate(-0.66)"/><path class="cls-1" d="M147.62,38l-.47.28a1.39,1.39,0,0,1-.69.18,1.41,1.41,0,0,1-.7-.19l-1.64-.94c-.22-.13-.33-.27-.33-.41s.11-.27.32-.4l.47-.27a1.35,1.35,0,0,1,.71-.19,1.31,1.31,0,0,1,.69.19l1.64.95c.22.13.33.26.33.41A.43.43,0,0,1,147.62,38Zm-.72.08.38-.23c.27-.15.26-.31,0-.47l-1.66-.88a.76.76,0,0,0-.82,0l-.38.22c-.27.16-.26.31,0,.47l1.61.93a.75.75,0,0,0,.43.13.76.76,0,0,0,.44-.13Z" transform="translate(-0.66)"/><path class="cls-1" d="M147.62,42.74l-.47.28a1.43,1.43,0,0,1-1.39,0l-1.64-1c-.22-.13-.33-.26-.33-.41s.11-.28.32-.4l.47-.27a1.26,1.26,0,0,1,.71-.18A1.21,1.21,0,0,1,146,41l1.64.95c.22.13.33.26.33.4S147.84,42.62,147.62,42.74Zm-.72.07.38-.22c.27-.15.26-.31,0-.46l-1.66-.9a.82.82,0,0,0-.82,0l-.38.23c-.27.15-.26.3,0,.46l1.61.92a.7.7,0,0,0,.44.12A.77.77,0,0,0,146.9,42.81Z" transform="translate(-0.66)"/><path class="cls-26" d="M229,126.54l-.47.28a1.39,1.39,0,0,1-.69.18,1.44,1.44,0,0,1-.71-.18l-1.63-.95c-.23-.13-.33-.26-.33-.41s.1-.28.32-.39l.48-.28a1.21,1.21,0,0,1,.69-.18,1.43,1.43,0,0,1,.7.18l1.64.95c.22.13.33.26.33.4S229.2,126.42,229,126.54Zm-.73.07.39-.22c.26-.15.25-.31,0-.46L227,125a.87.87,0,0,0-.41-.11.8.8,0,0,0-.4.11l-.39.22c-.27.15-.25.3,0,.46l1.61.93a.73.73,0,0,0,.41.12A.71.71,0,0,0,228.26,126.61Z" transform="translate(-0.66)"/><path class="cls-7" d="M193.92,303.74l-1.74-.38-3.7-15.82,1.75.4Z" transform="translate(-0.66)"/><path class="cls-7" d="M189.73,285.79,188,285.4l-3-12.77,1.75.4Z" transform="translate(-0.66)"/><path class="cls-27" d="M176.87,293.22l-1.75-.39L188,285.4l1.75.39Z" transform="translate(-0.66)"/><path class="cls-7" d="M186.25,270.88l-1.75-.38-3-12.79,1.75.4Z" transform="translate(-0.66)"/><path class="cls-27" d="M173.38,278.31l-1.75-.38,12.87-7.43,1.75.38Z" transform="translate(-0.66)"/><path class="cls-7" d="M182.76,256l-1.75-.38-3-12.76,1.75.39Z" transform="translate(-0.66)"/><path class="cls-27" d="M169.9,263.39l-1.75-.38L181,255.58l1.75.38Z" transform="translate(-0.66)"/><path class="cls-7" d="M179.28,241.06l-1.75-.39-3-12.75,1.75.38Z" transform="translate(-0.66)"/><path class="cls-27" d="M166.41,248.49l-1.75-.39,12.87-7.43,1.75.39Z" transform="translate(-0.66)"/><path class="cls-7" d="M175.8,226.15l-1.75-.38-3-12.77,1.75.38Z" transform="translate(-0.66)"/><path class="cls-7" d="M172.31,211.24l-1.75-.39L168.5,202l1.74.4Z" transform="translate(-0.66)"/><path class="cls-27" d="M170.24,202.41l-1.74-.4,1.77-1,1.75.39Z" transform="translate(-0.66)"/><path class="cls-27" d="M162.93,233.59l-1.75-.39,12.87-7.43,1.75.38Z" transform="translate(-0.66)"/><path class="cls-27" d="M159.44,218.66l-1.75-.38,12.87-7.43,1.75.39Z" transform="translate(-0.66)"/><path class="cls-27" d="M155.62,210.85l-1.75-.39,1.76-1,1.75.4Z" transform="translate(-0.66)"/><path class="cls-7" d="M179.3,312.2l-1.75-.4L153.87,210.46l1.75.39Z" transform="translate(-0.66)"/><path class="cls-6" d="M170.24,202.39l1.78-1.07L195.7,302.71l-1.77,1.07L190.23,288l-12.86,7.47,3.69,15.81-1.76,1.06L155.6,210.93l1.78-1.07,2.06,8.82,12.87-7.47Zm16,68.47-3-12.81-12.87,7.48,3,12.8ZM175.8,226.13l-3-12.8-12.87,7.47,3,12.8Zm13.87,59.64-3-12.81-12.87,7.47,3,12.81ZM179.22,241l-3-12.8-12.86,7.47,3,12.8Zm3.48,15-2.93-12.78-12.87,7.47,3,12.75L182.75,256Z" transform="translate(-0.66)"/><path class="cls-28" d="M27.17,108l-4.35,2.52v-4.36l4.35-2.5Z" transform="translate(-0.66)"/><path class="cls-28" d="M255.14,161.45l-2.52,1.45v-2.52l2.52-1.45Z" transform="translate(-0.66)"/><path class="cls-2" d="M44.32,130.49,38,134.14v-6.32l6.31-3.65Z" transform="translate(-0.66)"/><path class="cls-28" d="M53,175.71l-5,2.9v-5l5-2.9Z" transform="translate(-0.66)"/><path class="cls-2" d="M174.14,38.39l-5,2.91v-5l5-2.89Z" transform="translate(-0.66)"/><path class="cls-2" d="M246.49,81,244,82.44V79.93l2.51-1.45Z" transform="translate(-0.66)"/><path class="cls-28" d="M180.6,88l-2.51,1.45V86.93l2.51-1.45Z" transform="translate(-0.66)"/><path class="cls-28" d="M201,78.16l-5,2.9V76l5-2.9Z" transform="translate(-0.66)"/><path class="cls-28" d="M270.74,138.43l-2.51,1.45v-2.52l2.51-1.44Z" transform="translate(-0.66)"/><path class="cls-28" d="M13.14,126,11,127.23v-2.17l2.18-1.27Z" transform="translate(-0.66)"/><path class="cls-28" d="M164.11,51.3l-2.51,1.45V50.23l2.51-1.45Z" transform="translate(-0.66)"/><path class="cls-28" d="M55.27,132.65,47,137.46v-8.32l8.31-4.8Z" transform="translate(-0.66)"/><path class="cls-29" d="M263,165.07,258,168v-5l5-2.89Z" transform="translate(-0.66)"/><path class="cls-29" d="M176.65,97.2l-5,2.9v-5l5-2.9Z" transform="translate(-0.66)"/><path class="cls-2" d="M128.82,118.8l-5,2.9v-5l5-2.9Z" transform="translate(-0.66)"/><path class="cls-29" d="M71.45,142,69,143.44v-2.51l2.5-1.45Z" transform="translate(-0.66)"/><path class="cls-28" d="M281.84,100l-2.51,1.45V99l2.51-1.45Z" transform="translate(-0.66)"/><path class="cls-28" d="M62.08,163.81l-5,2.9v-5l5-2.89Z" transform="translate(-0.66)"/><path class="cls-28" d="M121.86,92.48l-5,2.91v-5l5-2.9Z" transform="translate(-0.66)"/><path class="cls-2" d="M65.83,176.44l-8.52,4.92v-8.51l8.52-4.92Z" transform="translate(-0.66)"/><path class="cls-28" d="M245.24,180.46l-5.83,3.36V178l5.83-3.36Z" transform="translate(-0.66)"/><path class="cls-28" d="M128.82,96.48l-2.51,1.46V95.43L128.82,94Z" transform="translate(-0.66)"/><path class="cls-28" d="M23.15,171.73l-5,2.9v-5l5-2.9Z" transform="translate(-0.66)"/><path class="cls-28" d="M263.49,210.7,261,212.15v-2.5l2.51-1.46Z" transform="translate(-0.66)"/><path class="cls-29" d="M56.76,152.65l-2.52,1.45v-2.51l2.52-1.46Z" transform="translate(-0.66)"/><path class="cls-29" d="M261.66,122.24l-2.52,1.45v-2.52l2.52-1.44Z" transform="translate(-0.66)"/><path class="cls-29" d="M142.6,53l-2.51,1.45V52l2.51-1.45Z" transform="translate(-0.66)"/></svg>