<svg id="Слой_1" data-name="Слой 1" xmlns="http://www.w3.org/2000/svg" xmlns:xlink="http://www.w3.org/1999/xlink" viewBox="0 0 55 55"><defs><style>.cls-1{fill:none;}.cls-2{clip-path:url(#clip-path);}.cls-3{fill:#426ab3;}</style><clipPath id="clip-path" transform="translate(-655 -356)"><rect class="cls-1" x="655" y="356" width="55" height="55"/></clipPath></defs><title>project-page-5</title><g class="cls-2"><path class="cls-3" d="M707.34,373.74a2.66,2.66,0,0,0-2.5,1.78h-7.42a2.65,2.65,0,1,0-4.5,2.63L687.39,388a3.42,3.42,0,0,0-.46,0,2.76,2.76,0,0,0-.95.18l-2.07-2.41a2.59,2.59,0,0,0,.36-1.32,2.66,2.66,0,0,0-2.66-2.66,2.61,2.61,0,0,0-1.77.69v-5.15a4.42,4.42,0,0,0-3.16-4.25L671,371.31V370a6.2,6.2,0,0,0,2.66-5.08v-2.39a5.68,5.68,0,0,0,1.24-1.65l.9-1.8-2.17-.72a10.87,10.87,0,0,1-2.54-1.24,6.33,6.33,0,0,0-9.85,5.26V365a6,6,0,0,0,1.78,4.29,6.36,6.36,0,0,0,.89.74v1.26L658.16,373a4.42,4.42,0,0,0-3.16,4.25v8.89l23.8,0-4.74,4.55-1.14-1.15-1.9,1.27a9.77,9.77,0,0,0-1.54-.63l-.45-2.24h-5l-.45,2.24a9.29,9.29,0,0,0-1.53.63l-1.91-1.27-3.53,3.54,1.27,1.9a9.82,9.82,0,0,0-.64,1.54L655,397v5l2.24.45a9.33,9.33,0,0,0,.64,1.53l-1.27,1.91,3.53,3.53,1.91-1.27a9.33,9.33,0,0,0,1.53.64L664,411h5l.45-2.24a9.43,9.43,0,0,0,1.54-.64l1.9,1.27,3.54-3.53L675.19,404a10.29,10.29,0,0,0,.64-1.53l2.23-.45v-5l-2.23-.45a10.41,10.41,0,0,0-.64-1.54l1.27-1.9-1.15-1.14,5.16-5.16a2.59,2.59,0,0,0,1.14.27,2.77,2.77,0,0,0,1-.18l2.07,2.41a2.59,2.59,0,0,0-.37,1.32,2.67,2.67,0,0,0,5.33,0,2.63,2.63,0,0,0-.67-1.74l5.54-9.84a2.14,2.14,0,0,0,.45.05,2.67,2.67,0,0,0,2.5-1.78h7.42a2.66,2.66,0,1,0,2.5-3.55Zm-39.8-16a4.59,4.59,0,0,1,2.54.76,12,12,0,0,0,3,1.45l.22.08a3.92,3.92,0,0,1-5.67,1.48l-1.88-1.25-.65.32a6.65,6.65,0,0,1-1.95.63A4.57,4.57,0,0,1,667.54,357.78ZM663,363.05a8.18,8.18,0,0,0,2.6-.71l1,.69a5.84,5.84,0,0,0,5.25.56v1.28a4.45,4.45,0,0,1-4.46,4.44h-.13A4.28,4.28,0,0,1,663,365Zm4.28,8h.13a6.27,6.27,0,0,0,1.8-.26v.9a1.94,1.94,0,0,1-3.54,0v-.86A6.13,6.13,0,0,0,667.26,371.08Zm-10.49,6.19a2.66,2.66,0,0,1,1.9-2.55l5.52-1.65,1.44,4.32-.78,7H662.1v-7.1h-1.78v7.1h-3.55Zm21.29,7.12h-3.54v-7.1h-1.78v7.1H670l-.78-7,1.44-4.32,5.52,1.65a2.65,2.65,0,0,1,1.89,2.55Zm-1.77,14v2.1l-1.89.37-.14.55a7.9,7.9,0,0,1-.87,2.1l-.29.48,1.07,1.61-1.48,1.48-1.6-1.07-.48.28a8.13,8.13,0,0,1-2.11.88l-.54.13-.38,1.9h-2.09l-.38-1.89-.54-.14a8.16,8.16,0,0,1-2.11-.87L662,406l-1.61,1.07-1.48-1.48L660,404l-.28-.48a7.92,7.92,0,0,1-.88-2.1l-.13-.55-1.9-.37v-2.1l1.9-.38.13-.54a7.92,7.92,0,0,1,.88-2.1l.28-.48-1.07-1.61,1.48-1.48L662,392.9l.48-.29a7.9,7.9,0,0,1,2.1-.87l.55-.14.37-1.89h2.1l.38,1.89.54.14a7.9,7.9,0,0,1,2.1.87l.48.29,1.61-1.07,1.48,1.48-1.07,1.61.29.48a7.9,7.9,0,0,1,.87,2.1l.14.54Z" transform="translate(-655 -356)"/><path class="cls-3" d="M705,380.33h-5.86v28.92h-2V390.9h-5.86v18.35h-2v-11.4h-5.87v11.4h-2.26a.88.88,0,0,0-.88.87h0a.88.88,0,0,0,.88.88h26.81a.87.87,0,0,0,.87-.88h0a.87.87,0,0,0-.87-.87h-3Zm-3.91,1.75h2v27.17h-2Zm-7.82,10.58h2v16.59h-2Zm-7.82,6.95h1.95v9.64h-1.95Z" transform="translate(-655 -356)"/><path class="cls-3" d="M670.87,399.37a4.24,4.24,0,1,0-4.23,4.23A4.24,4.24,0,0,0,670.87,399.37Z" transform="translate(-655 -356)"/><path class="cls-3" d="M708.22,356H694a1.78,1.78,0,0,0-1.77,1.78v1.77H680.73a1.78,1.78,0,0,0-1.78,1.77v8.87a1.78,1.78,0,0,0,1.78,1.78h2.66v3.55l4.73-3.55h6.8a1.78,1.78,0,0,0,1.77-1.78v-1.77h2.66V372l4.73-3.55h4.14a1.78,1.78,0,0,0,1.78-1.77v-8.87A1.78,1.78,0,0,0,708.22,356Zm-13.3,14.19h-7.39L685.16,372v-1.78h-4.43v-8.87h14.2Zm13.3-3.54h-4.73l-2.36,1.77v-1.77h-4.44v-5.33a1.77,1.77,0,0,0-1.77-1.77H694v-1.77h14.19Z" transform="translate(-655 -356)"/><path class="cls-3" d="M700.24,362.21a.89.89,0,0,1,.89-.89h0a.89.89,0,0,1,.89.89h0a.89.89,0,0,1-.89.89h0a.89.89,0,0,1-.89-.89Z" transform="translate(-655 -356)"/><path class="cls-3" d="M703.79,362.21a.89.89,0,0,1,.89-.89h0a.88.88,0,0,1,.88.89h0a.88.88,0,0,1-.88.89h0a.89.89,0,0,1-.89-.89Z" transform="translate(-655 -356)"/><path class="cls-3" d="M682.5,364a.88.88,0,0,1,.89-.88h8.87a.88.88,0,0,1,.89.88h0a.89.89,0,0,1-.89.89h-8.87a.89.89,0,0,1-.89-.89Z" transform="translate(-655 -356)"/><path class="cls-3" d="M682.5,367.53a.88.88,0,0,1,.89-.88h8.87a.88.88,0,0,1,.89.88h0a.89.89,0,0,1-.89.89h-8.87a.89.89,0,0,1-.89-.89Z" transform="translate(-655 -356)"/></g></svg>