<svg id="Слой_1" data-name="Слой 1" xmlns="http://www.w3.org/2000/svg" xmlns:xlink="http://www.w3.org/1999/xlink" viewBox="0 0 59 59"><defs><style>.cls-1{fill:url(#Новый_образец_градиентной_залив);}.cls-2{fill:url(#Новый_образец_градиентной_залив-2);}.cls-3{fill:url(#Новый_образец_градиентной_залив-3);}.cls-4{fill:url(#Новый_образец_градиентной_залив-4);}.cls-5{fill:url(#Новый_образец_градиентной_залив-5);}.cls-6{fill:url(#Новый_образец_градиентной_залив-6);}.cls-7{fill:url(#Новый_образец_градиентной_залив-7);}.cls-8{fill:url(#Новый_образец_градиентной_залив-8);}.cls-9{fill:url(#Новый_образец_градиентной_залив-9);}.cls-10{fill:url(#Новый_образец_градиентной_залив-10);}.cls-11{fill:url(#Новый_образец_градиентной_залив-11);}.cls-12{fill:url(#Новый_образец_градиентной_залив-12);}.cls-13{fill:url(#Новый_образец_градиентной_залив-13);}.cls-14{fill:url(#Новый_образец_градиентной_залив-14);}.cls-15{fill:url(#Новый_образец_градиентной_залив-15);}.cls-16{fill:url(#Новый_образец_градиентной_залив-16);}.cls-17{fill:url(#Новый_образец_градиентной_залив-17);}.cls-18{fill:url(#Новый_образец_градиентной_залив-18);}.cls-19{fill:url(#Новый_образец_градиентной_залив-19);}</style><linearGradient id="Новый_образец_градиентной_залив" x1="656.93" y1="359.96" x2="672.65" y2="359.96" gradientUnits="userSpaceOnUse"><stop offset="0" stop-color="#f7bb62"/><stop offset="0.5" stop-color="#f47920"/><stop offset="1" stop-color="#e56102"/></linearGradient><linearGradient id="Новый_образец_градиентной_залив-2" x1="656.93" y1="363.89" x2="665.77" y2="363.89" xlink:href="#Новый_образец_градиентной_залив"/><linearGradient id="Новый_образец_градиентной_залив-3" x1="656.93" y1="407.12" x2="658.9" y2="407.12" xlink:href="#Новый_образец_градиентной_залив"/><linearGradient id="Новый_образец_градиентной_залив-4" x1="661.31" y1="408.32" x2="663.77" y2="408.32" xlink:href="#Новый_образец_градиентной_залив"/><linearGradient id="Новый_образец_градиентной_залив-5" x1="689" y1="374" x2="697" y2="374" xlink:href="#Новый_образец_градиентной_залив"/><linearGradient id="Новый_образец_градиентной_залив-6" x1="665.29" y1="406.2" x2="667.26" y2="406.2" xlink:href="#Новый_образец_градиентной_залив"/><linearGradient id="Новый_образец_градиентной_залив-7" x1="669.74" y1="406.98" x2="671.85" y2="406.98" xlink:href="#Новый_образец_градиентной_залив"/><linearGradient id="Новый_образец_градиентной_залив-8" x1="694.32" y1="384.5" x2="700.18" y2="384.5" xlink:href="#Новый_образец_градиентной_залив"/><linearGradient id="Новый_образец_градиентной_залив-9" x1="666.81" y1="377.71" x2="672.67" y2="377.71" xlink:href="#Новый_образец_градиентной_залив"/><linearGradient id="Новый_образец_градиентной_залив-10" x1="667" y1="394" x2="675" y2="394" xlink:href="#Новый_образец_градиентной_залив"/><linearGradient id="Новый_образец_градиентной_залив-11" x1="672.65" y1="409.09" x2="674.62" y2="409.09" xlink:href="#Новый_образец_градиентной_залив"/><linearGradient id="Новый_образец_градиентной_залив-12" x1="690.34" y1="407.12" x2="692.3" y2="407.12" xlink:href="#Новый_образец_градиентной_залив"/><linearGradient id="Новый_образец_градиентной_залив-13" x1="694.27" y1="409.09" x2="696.23" y2="409.09" xlink:href="#Новый_образец_градиентной_залив"/><linearGradient id="Новый_образец_градиентной_залив-14" x1="698.2" y1="409.09" x2="700.16" y2="409.09" xlink:href="#Новый_образец_градиентной_залив"/><linearGradient id="Новый_образец_градиентной_залив-15" x1="702.13" y1="407.12" x2="704.09" y2="407.12" xlink:href="#Новый_образец_градиентной_залив"/><linearGradient id="Новый_образец_градиентной_залив-16" x1="706.06" y1="409.09" x2="708.02" y2="409.09" xlink:href="#Новый_образец_градиентной_залив"/><linearGradient id="Новый_образец_градиентной_залив-17" x1="702.13" y1="361.92" x2="704.09" y2="361.92" xlink:href="#Новый_образец_градиентной_залив"/><linearGradient id="Новый_образец_градиентной_залив-18" x1="702.13" y1="367.82" x2="704.09" y2="367.82" xlink:href="#Новый_образец_градиентной_залив"/><linearGradient id="Новый_образец_градиентной_залив-19" x1="653" y1="384.5" x2="712" y2="384.5" xlink:href="#Новый_образец_градиентной_залив"/></defs><title>project-page-2</title><path class="cls-1" d="M657.91,360.94h13.76a1,1,0,1,0,0-2H657.91a1,1,0,0,0,0,2Z" transform="translate(-653 -355)"/><path class="cls-2" d="M665.77,363.89a1,1,0,0,0-1-1h-6.88a1,1,0,0,0,0,2h6.88A1,1,0,0,0,665.77,363.89Z" transform="translate(-653 -355)"/><path class="cls-3" d="M658.9,407.12a1,1,0,1,1-1-1A1,1,0,0,1,658.9,407.12Z" transform="translate(-653 -355)"/><path class="cls-4" d="M663.77,408.32a1.23,1.23,0,1,1-1.23-1.23A1.23,1.23,0,0,1,663.77,408.32Z" transform="translate(-653 -355)"/><path class="cls-5" d="M697,374a4,4,0,1,1-4-4A4,4,0,0,1,697,374Z" transform="translate(-653 -355)"/><path class="cls-6" d="M667.26,406.2a1,1,0,1,1-1-1A1,1,0,0,1,667.26,406.2Z" transform="translate(-653 -355)"/><path class="cls-7" d="M671.85,407a1.06,1.06,0,1,1-1.06-1.06A1.05,1.05,0,0,1,671.85,407Z" transform="translate(-653 -355)"/><path class="cls-8" d="M700.18,384.5a2.93,2.93,0,1,1-2.93-2.93A2.93,2.93,0,0,1,700.18,384.5Z" transform="translate(-653 -355)"/><path class="cls-9" d="M672.67,377.71a2.93,2.93,0,1,1-2.93-2.93A2.93,2.93,0,0,1,672.67,377.71Z" transform="translate(-653 -355)"/><path class="cls-10" d="M675,394a4,4,0,1,1-4-4A4,4,0,0,1,675,394Z" transform="translate(-653 -355)"/><path class="cls-11" d="M674.62,409.09a1,1,0,1,1-1-1A1,1,0,0,1,674.62,409.09Z" transform="translate(-653 -355)"/><path class="cls-12" d="M692.3,407.12a1,1,0,1,1-1-1A1,1,0,0,1,692.3,407.12Z" transform="translate(-653 -355)"/><path class="cls-13" d="M696.23,409.09a1,1,0,1,1-1-1A1,1,0,0,1,696.23,409.09Z" transform="translate(-653 -355)"/><path class="cls-14" d="M700.16,409.09a1,1,0,1,1-1-1A1,1,0,0,1,700.16,409.09Z" transform="translate(-653 -355)"/><path class="cls-15" d="M704.09,407.12a1,1,0,1,1-1-1A1,1,0,0,1,704.09,407.12Z" transform="translate(-653 -355)"/><path class="cls-16" d="M708,409.09a1,1,0,1,1-1-1A1,1,0,0,1,708,409.09Z" transform="translate(-653 -355)"/><path class="cls-17" d="M703.11,364.87a1,1,0,0,0,1-1V360a1,1,0,0,0-2,0v3.93A1,1,0,0,0,703.11,364.87Z" transform="translate(-653 -355)"/><path class="cls-18" d="M704.09,367.82a1,1,0,1,1-1-1A1,1,0,0,1,704.09,367.82Z" transform="translate(-653 -355)"/><path class="cls-19" d="M697.6,370.79a8.87,8.87,0,1,0-1.39-1.39l-3.35,3.35a15.67,15.67,0,0,0-24,3.9l-8.39-3.35a1,1,0,0,1-.62-.92V368.8h14.74a2,2,0,0,0,2-2V357a2,2,0,0,0-2-2H655a2,2,0,0,0-2,2v9.83a2,2,0,0,0,2,2h2.95v3.58a2.93,2.93,0,0,0,1.86,2.74l8.22,3.29a15.64,15.64,0,0,0,2,15.65l-10.47,8.15H655a2,2,0,0,0-2,2V412a2,2,0,0,0,2,2h21.62a2,2,0,0,0,2-2v-7.87a2,2,0,0,0-2-2H662.74l8.56-6.65a15.6,15.6,0,0,0,11.18,4.68,14.11,14.11,0,0,0,1.59-.08l.24,0c.44-.05.89-.12,1.33-.21h0a15.72,15.72,0,0,0,12.19-12.18s0,0,0-.05c.09-.43.15-.88.2-1.33,0-.08,0-.15,0-.23s0-.41,0-.61h6.93a1,1,0,0,1,1,1v15.72H688.37a2,2,0,0,0-2,2V412a2,2,0,0,0,2,2H710a2,2,0,0,0,2-2v-7.87a2,2,0,0,0-2-2h-2V386.49a3,3,0,0,0-2.94-2.95h-6.93a15.67,15.67,0,0,0-3.9-9.4ZM655,357h19.66v9.83H655Zm21.62,55H655v-7.87h21.62ZM710,412H688.37v-7.87H710Zm-6.88-55a6.88,6.88,0,1,1-6.88,6.88A6.88,6.88,0,0,1,703.11,357Zm-9.49,19.48c.12.16.24.32.35.49s.25.4.36.6a5.39,5.39,0,0,1,.3.52c.11.21.21.43.31.65s.18.35.25.53.17.47.26.7l.19.54c.07.25.13.51.19.77a4.39,4.39,0,0,1,.13.52c.06.29.1.59.14.88s0,.31.06.46,0,.26,0,.39a1,1,0,0,0,0,2h0c0,.11,0,.23,0,.35s0,.24,0,.36c0,.32-.09.65-.15,1,0,.12-.05.23-.08.35-.07.32-.15.64-.25.95,0,.1-.06.2-.09.3-.11.33-.23.65-.36,1a2.29,2.29,0,0,1-.1.23c-.14.33-.3.66-.47,1a1.62,1.62,0,0,1-.1.18c-.18.33-.37.65-.58,1l-.1.15c-.21.31-.44.61-.67.9l-.12.15-.19.21-9.4-9.4v-13.3h.22l.62.07.72.11.61.14.69.17.59.19.65.24.57.25c.21.09.42.19.62.3l.54.29.59.35.51.35.54.4.48.39.06.06-.06-.06a1,1,0,0,0-.27,1,1,1,0,0,0,.7.7,1,1,0,0,0,1-.27l.06.06c.12.13.24.27.35.41S693.49,376.3,693.62,376.49Zm-2.5,18.72c-.29.24-.59.46-.9.67l-.16.11c-.31.2-.63.4-.95.58l-.19.1c-.31.17-.64.32-1,.47l-.24.1c-.32.13-.64.25-1,.35l-.29.1-1,.25-.36.07c-.32.07-.64.11-1,.15l-.35,0c-.44,0-.89.07-1.34.07s-.93,0-1.38-.07l-.45-.07c-.3,0-.59-.07-.88-.13l-.53-.13c-.26-.06-.51-.12-.77-.2a5.62,5.62,0,0,1-.53-.19c-.24-.08-.48-.16-.7-.25l-.54-.25-.65-.31-.51-.3c-.21-.12-.41-.24-.6-.37l-.5-.34c-.18-.14-.37-.27-.55-.42s-.31-.26-.46-.39l-.51-.46-.06-.06a1,1,0,1,0-1.2-1.56l-.1.08-.32-.42c-.12-.17-.23-.34-.34-.52s-.24-.38-.35-.58-.21-.36-.3-.54-.2-.41-.3-.62-.17-.38-.24-.57-.17-.44-.24-.66-.13-.39-.19-.59a7,7,0,0,1-.18-.69c-.05-.2-.09-.4-.13-.6s-.08-.48-.11-.72-.06-.42-.08-.62a1.55,1.55,0,0,0,0-.22h13.3l9.4,9.4c-.07.06-.13.13-.21.19Zm-22.27-12.46c0-.25.07-.5.11-.75l.12-.56c.06-.24.12-.48.19-.72s.11-.36.16-.54.17-.46.26-.68a3.65,3.65,0,0,1,.14-.35l.18.07a1,1,0,0,0,.73-1.83l.12-.2c.09-.15.18-.3.28-.45s.32-.42.48-.63.19-.26.29-.38c.24-.28.49-.56.75-.82l.2-.21c.27-.26.54-.51.83-.75l.37-.28c.21-.17.42-.33.64-.48l.45-.29c.2-.13.41-.26.63-.38l.49-.26c.22-.11.43-.22.66-.31l.52-.22.68-.25.55-.17c.23-.07.47-.13.71-.18A5.59,5.59,0,0,1,680,371c.25-.05.5-.08.76-.12l.56-.06h.22v12.72H668.77a1.69,1.69,0,0,0,0-.23C668.8,383.12,668.82,382.94,668.85,382.75Z" transform="translate(-653 -355)"/></svg>