<svg id="Слой_1" data-name="Слой 1" xmlns="http://www.w3.org/2000/svg" viewBox="0 0 59.01 59.01"><defs><style>.cls-1{fill:#426ab3;}</style></defs><title>project-page-2-blue</title><path class="cls-1" d="M4.91,5.94H18.67a1,1,0,0,0,0-2H4.91a1,1,0,0,0,0,2Z" transform="translate(0 0.01)"/><path class="cls-1" d="M12.77,8.89a1,1,0,0,0-1-1H4.89a1,1,0,0,0,0,2h6.88A1,1,0,0,0,12.77,8.89Z" transform="translate(0 0.01)"/><path class="cls-1" d="M5.9,52.12a1,1,0,1,1-1-1A1,1,0,0,1,5.9,52.12Z" transform="translate(0 0.01)"/><path class="cls-1" d="M10.77,53.32a1.23,1.23,0,1,1-1.23-1.23h0A1.23,1.23,0,0,1,10.77,53.32Z" transform="translate(0 0.01)"/><path class="cls-1" d="M44,19a4,4,0,1,1-4-4A4,4,0,0,1,44,19Z" transform="translate(0 0.01)"/><path class="cls-1" d="M14.26,51.2a1,1,0,1,1-1-1A1,1,0,0,1,14.26,51.2Z" transform="translate(0 0.01)"/><path class="cls-1" d="M18.85,52a1.06,1.06,0,1,1-1.06-1.06h0a1,1,0,0,1,1.06,1Z" transform="translate(0 0.01)"/><path class="cls-1" d="M47.18,29.5a2.93,2.93,0,1,1-2.93-2.93h0A2.93,2.93,0,0,1,47.18,29.5Z" transform="translate(0 0.01)"/><path class="cls-1" d="M19.67,22.71a2.93,2.93,0,1,1-2.93-2.93h0A2.93,2.93,0,0,1,19.67,22.71Z" transform="translate(0 0.01)"/><path class="cls-1" d="M22,39a4,4,0,1,1-4-4A4,4,0,0,1,22,39Z" transform="translate(0 0.01)"/><path class="cls-1" d="M21.62,54.09a1,1,0,1,1-1-1A1,1,0,0,1,21.62,54.09Z" transform="translate(0 0.01)"/><path class="cls-1" d="M39.3,52.12a1,1,0,1,1-1-1A1,1,0,0,1,39.3,52.12Z" transform="translate(0 0.01)"/><path class="cls-1" d="M43.23,54.09a1,1,0,1,1-1-1A1,1,0,0,1,43.23,54.09Z" transform="translate(0 0.01)"/><path class="cls-1" d="M47.16,54.09a1,1,0,1,1-1-1A1,1,0,0,1,47.16,54.09Z" transform="translate(0 0.01)"/><path class="cls-1" d="M51.09,52.12a1,1,0,1,1-1-1A1,1,0,0,1,51.09,52.12Z" transform="translate(0 0.01)"/><path class="cls-1" d="M55,54.09a1,1,0,1,1-1-1A1,1,0,0,1,55,54.09Z" transform="translate(0 0.01)"/><path class="cls-1" d="M50.11,9.87a1,1,0,0,0,1-1V5a1,1,0,0,0-2,0V8.93A1,1,0,0,0,50.11,9.87Z" transform="translate(0 0.01)"/><path class="cls-1" d="M51.09,12.82a1,1,0,1,1-1-1A1,1,0,0,1,51.09,12.82Z" transform="translate(0 0.01)"/><path class="cls-1" d="M44.6,15.79a8.87,8.87,0,1,0-1.39-1.39l-3.35,3.35A15.67,15.67,0,0,0,17.74,19a15.42,15.42,0,0,0-1.88,2.61L7.47,18.3a1,1,0,0,1-.62-.92V13.8H21.59a2,2,0,0,0,2-2V2a2,2,0,0,0-2-2H2A2,2,0,0,0,0,2v9.83a2,2,0,0,0,2,2H5v3.58a2.92,2.92,0,0,0,1.86,2.74L15,23.44a15.63,15.63,0,0,0,2,15.65L6.56,47.24H2a2,2,0,0,0-2,2V57a2,2,0,0,0,2,2H23.62a2,2,0,0,0,2-2V49.13a2,2,0,0,0-2-2H9.74l8.56-6.65a15.6,15.6,0,0,0,11.18,4.68,14.11,14.11,0,0,0,1.59-.08h.24c.44,0,.89-.12,1.33-.21h0A15.73,15.73,0,0,0,44.83,32.69v0c.09-.43.15-.88.2-1.33v-.84H52a1,1,0,0,1,1,1V47.19H35.37a2,2,0,0,0-2,2V57a2,2,0,0,0,2,2H57a2,2,0,0,0,2-2V49.13a2,2,0,0,0-2-2H55V31.49a3,3,0,0,0-2.94-2.95H45.13a15.67,15.67,0,0,0-3.9-9.4ZM2,2H21.66v9.83H2ZM23.62,57H2V49.13H23.62ZM57,57H35.37V49.13H57ZM50.12,2a6.88,6.88,0,1,1-6.88,6.88A6.88,6.88,0,0,1,50.12,2ZM40.63,21.48c.12.16.24.32.35.49s.25.4.36.6a5.39,5.39,0,0,1,.3.52c.11.21.21.43.31.65s.18.35.25.53.17.47.26.7l.19.54c.07.25.13.51.19.77a4.39,4.39,0,0,1,.13.52c.06.29.1.59.14.88s0,.31.06.46,0,.26,0,.39a1,1,0,0,0,0,2h0v.71a6.22,6.22,0,0,1-.15,1,1.47,1.47,0,0,1-.08.35c-.07.32-.15.64-.25.95a1.14,1.14,0,0,1-.09.3c-.11.33-.23.65-.36,1a1.6,1.6,0,0,1-.1.23c-.14.33-.3.66-.47,1a1.62,1.62,0,0,1-.1.18c-.18.33-.37.65-.58,1l-.1.15c-.21.31-.44.61-.67.9l-.12.15-.19.21-9.4-9.4V16h.22l.62.07.72.11.61.14.69.17.59.19.65.24.57.25c.21.09.42.19.62.3l.54.29.59.35.51.35.54.4.48.39.06.06-.06-.06a1,1,0,0,0-.27,1,1,1,0,0,0,.7.7,1,1,0,0,0,1-.27l.06.06c.12.13.24.27.35.41a4.84,4.84,0,0,1,.32.38ZM38.13,40.2c-.29.24-.59.46-.9.67l-.16.11c-.31.2-.63.4-1,.58l-.19.1a10.34,10.34,0,0,1-1,.47l-.24.1a9,9,0,0,1-1,.35l-.29.1-1,.25L32,43a9.57,9.57,0,0,1-1,.15h-.35c-.44,0-.89.07-1.34.07A9.12,9.12,0,0,1,28,43.15l-.45-.07a4.35,4.35,0,0,1-.88-.13l-.53-.13c-.26-.06-.51-.12-.77-.2a4.76,4.76,0,0,1-.53-.19c-.24-.08-.48-.16-.7-.25l-.54-.25-.65-.31-.51-.3c-.21-.12-.41-.24-.6-.37l-.5-.34c-.18-.14-.37-.27-.55-.42l-.46-.39-.51-.46-.06-.06a1,1,0,0,0-.92-1.78,1.18,1.18,0,0,0-.28.22l-.1.08-.32-.42c-.12-.17-.23-.34-.34-.52s-.24-.38-.35-.58-.21-.36-.3-.54l-.3-.62c-.1-.21-.17-.38-.24-.57s-.17-.44-.24-.66-.13-.39-.19-.59-.13-.46-.18-.69-.09-.4-.13-.6-.08-.48-.11-.72-.06-.42-.08-.62a.81.81,0,0,0,0-.22H29l9.4,9.4c-.07.06-.13.13-.21.19ZM15.86,27.74A4.85,4.85,0,0,1,16,27l.12-.56c.06-.24.12-.48.19-.72s.11-.36.16-.54.17-.46.26-.68a3.65,3.65,0,0,1,.14-.35l.18.07a1,1,0,0,0,.73-1.83l.12-.2c.09-.15.18-.3.28-.45s.32-.42.48-.63.19-.26.29-.38c.24-.28.49-.56.75-.82l.2-.21c.27-.26.54-.51.83-.75l.37-.28c.21-.17.42-.33.64-.48l.45-.29c.2-.13.41-.26.63-.38l.49-.26c.22-.11.43-.22.66-.31l.52-.22.68-.25.55-.17c.23-.07.47-.13.71-.18s.4-.09.6-.12.5-.08.76-.12l.56-.06h.22V28.54H15.77a.89.89,0,0,0,0-.23c0-.19.05-.37.08-.56Z" transform="translate(0 0.01)"/></svg>