<svg id="Слой_1" data-name="Слой 1" xmlns="http://www.w3.org/2000/svg" xmlns:xlink="http://www.w3.org/1999/xlink" viewBox="0 0 309.04 285.05"><defs><style>.cls-1,.cls-15,.cls-5{fill:#f0f1f1;}.cls-2{fill:#cdced2;}.cls-2,.cls-33{opacity:0.6;}.cls-15,.cls-2,.cls-33,.cls-4,.cls-45,.cls-48,.cls-49,.cls-5,.cls-58{isolation:isolate;}.cls-3{fill:#bdbec5;}.cls-22,.cls-33,.cls-4,.cls-48{fill:#07306d;}.cls-15,.cls-4{opacity:0.4;}.cls-45,.cls-5,.cls-58{opacity:0.5;}.cls-6{fill:url(#Безымянный_градиент_30);}.cls-7{fill:#ccc7bf;}.cls-8{fill:#e5e0d7;}.cls-9{fill:url(#Безымянный_градиент_30-2);}.cls-10{fill:#abacb6;}.cls-11{fill:#848489;}.cls-12{fill:url(#Безымянный_градиент_30-4);}.cls-13{fill:url(#Безымянный_градиент_30-5);}.cls-14{fill:url(#Безымянный_градиент_30-6);}.cls-16{fill:url(#Безымянный_градиент_24);}.cls-17{fill:url(#Безымянный_градиент_24-2);}.cls-18{fill:url(#Безымянный_градиент_24-3);}.cls-19{fill:url(#Безымянный_градиент_24-4);}.cls-20{fill:url(#Безымянный_градиент_30-7);}.cls-21{fill:url(#Безымянный_градиент_30-8);}.cls-23{fill:url(#Безымянный_градиент_30-9);}.cls-24{fill:#ed6f00;}.cls-25{fill:url(#Безымянный_градиент_30-10);}.cls-26{fill:url(#Безымянный_градиент_30-11);}.cls-27{fill:#515151;}.cls-28{fill:url(#Безымянный_градиент_30-12);}.cls-29,.cls-49{fill:#2d2d2d;}.cls-30{fill:url(#Безымянный_градиент_30-13);}.cls-31{fill:url(#Безымянный_градиент_30-14);}.cls-32{fill:url(#Безымянный_градиент_30-15);}.cls-34{fill:url(#Безымянный_градиент_30-16);}.cls-35{fill:#fcd1c5;}.cls-36{fill:#f0f6ff;}.cls-37{fill:#c4ccd6;}.cls-38{fill:url(#Безымянный_градиент_30-17);}.cls-39{fill:#e2b1a6;}.cls-40{fill:#aa8383;}.cls-41{fill:#936d6d;}.cls-42{fill:#426ab3;}.cls-43{fill:url(#Безымянный_градиент_30-18);}.cls-44{fill:url(#Безымянный_градиент_30-19);}.cls-45{fill:url(#Безымянный_градиент_24-5);}.cls-46{fill:url(#Безымянный_градиент_25);}.cls-47{fill:url(#Безымянный_градиент_30-20);}.cls-48{opacity:0.3;}.cls-49{opacity:0.63;}.cls-50{fill:url(#Безымянный_градиент_30-21);}.cls-51{fill:#9f9c97;}.cls-52{fill:url(#Безымянный_градиент_30-22);}.cls-53{fill:url(#Безымянный_градиент_29);}.cls-54{fill:url(#Безымянный_градиент_30-23);}.cls-55{opacity:0.7;}.cls-56{fill:#ce7436;}.cls-57{fill:none;}.cls-58{fill:url(#Безымянный_градиент_31);}.cls-59{fill:#4685ff;}.cls-60{fill:#7bd7ff;}.cls-61{fill:#1346c3;}.cls-62{fill:#78a6ff;}</style><linearGradient id="Безымянный_градиент_30" x1="655.04" y1="426.47" x2="772.26" y2="448.87" gradientTransform="matrix(1, 0, 0, -1, 0, 770)" gradientUnits="userSpaceOnUse"><stop offset="0" stop-color="#4b79ce"/><stop offset="0.41" stop-color="#426ab3"/><stop offset="1" stop-color="#2b4a81"/></linearGradient><linearGradient id="Безымянный_градиент_30-2" x1="592.17" y1="389.29" x2="694.97" y2="408.05" xlink:href="#Безымянный_градиент_30"/><linearGradient id="Безымянный_градиент_30-4" x1="642.06" y1="476.14" x2="669.4" y2="503.39" xlink:href="#Безымянный_градиент_30"/><linearGradient id="Безымянный_градиент_30-5" x1="652.66" y1="482.26" x2="680" y2="509.51" xlink:href="#Безымянный_градиент_30"/><linearGradient id="Безымянный_градиент_30-6" x1="663.26" y1="488.39" x2="690.59" y2="515.62" xlink:href="#Безымянный_градиент_30"/><linearGradient id="Безымянный_градиент_24" x1="708.92" y1="362.04" x2="736.58" y2="361.25" gradientTransform="matrix(1, 0, 0, -1, 0, 770)" gradientUnits="userSpaceOnUse"><stop offset="0" stop-color="#f47920"/><stop offset="0.9" stop-color="#f7bb62" stop-opacity="0.7"/></linearGradient><linearGradient id="Безымянный_градиент_24-2" x1="701.19" y1="357.56" x2="728.85" y2="356.77" xlink:href="#Безымянный_градиент_24"/><linearGradient id="Безымянный_градиент_24-3" x1="693.45" y1="353.07" x2="721.11" y2="352.28" xlink:href="#Безымянный_градиент_24"/><linearGradient id="Безымянный_градиент_24-4" x1="685.72" y1="348.59" x2="713.38" y2="347.8" xlink:href="#Безымянный_градиент_24"/><linearGradient id="Безымянный_градиент_30-7" x1="686.11" y1="289.81" x2="809.28" y2="348.07" xlink:href="#Безымянный_градиент_30"/><linearGradient id="Безымянный_градиент_30-8" x1="689.88" y1="289.83" x2="741.62" y2="307.08" xlink:href="#Безымянный_градиент_30"/><linearGradient id="Безымянный_градиент_30-9" x1="689.88" y1="289.83" x2="741.62" y2="307.08" xlink:href="#Безымянный_градиент_30"/><linearGradient id="Безымянный_градиент_30-10" x1="601.35" y1="291.54" x2="619.68" y2="303.25" xlink:href="#Безымянный_градиент_30"/><linearGradient id="Безымянный_градиент_30-11" x1="597.21" y1="271.27" x2="646.38" y2="316.55" xlink:href="#Безымянный_градиент_30"/><linearGradient id="Безымянный_градиент_30-12" x1="583" y1="325.6" x2="665.03" y2="351.35" xlink:href="#Безымянный_градиент_30"/><linearGradient id="Безымянный_градиент_30-13" x1="582.09" y1="281.93" x2="603.37" y2="295.58" xlink:href="#Безымянный_градиент_30"/><linearGradient id="Безымянный_градиент_30-14" x1="600.27" y1="274.06" x2="619.84" y2="281.97" xlink:href="#Безымянный_градиент_30"/><linearGradient id="Безымянный_градиент_30-15" x1="582.33" y1="288.84" x2="640.78" y2="322.76" xlink:href="#Безымянный_градиент_30"/><linearGradient id="Безымянный_градиент_30-16" x1="579.4" y1="314.24" x2="657.45" y2="361.35" xlink:href="#Безымянный_градиент_30"/><linearGradient id="Безымянный_градиент_30-17" x1="605.74" y1="341.16" x2="615.18" y2="342.7" xlink:href="#Безымянный_градиент_30"/><linearGradient id="Безымянный_градиент_30-18" x1="619.6" y1="307.56" x2="640.84" y2="324.28" xlink:href="#Безымянный_градиент_30"/><linearGradient id="Безымянный_градиент_30-19" x1="620.49" y1="308.36" x2="639.07" y2="325.49" xlink:href="#Безымянный_градиент_30"/><linearGradient id="Безымянный_градиент_24-5" x1="515.9" y1="323.04" x2="746.9" y2="280.18" xlink:href="#Безымянный_градиент_24"/><radialGradient id="Безымянный_градиент_25" cx="7.23" cy="766.15" r="1" gradientTransform="matrix(84.53, 0, 0, -84.53, -84.7, 65210.73)" gradientUnits="userSpaceOnUse"><stop offset="0" stop-color="#e9e4db"/><stop offset="0.4" stop-color="#e9e4db"/><stop offset="0.55" stop-color="#ccc7bf"/><stop offset="0.73" stop-color="#ccc7bf"/><stop offset="1" stop-color="#ccc7bf"/></radialGradient><linearGradient id="Безымянный_градиент_30-20" x1="611.18" y1="323.02" x2="647.39" y2="337.69" xlink:href="#Безымянный_градиент_30"/><linearGradient id="Безымянный_градиент_30-21" x1="572.11" y1="335.06" x2="612.68" y2="356.92" xlink:href="#Безымянный_градиент_30"/><linearGradient id="Безымянный_градиент_30-22" x1="556.95" y1="312.63" x2="604.87" y2="334.13" xlink:href="#Безымянный_градиент_30"/><linearGradient id="Безымянный_градиент_29" x1="588.85" y1="311.44" x2="583.35" y2="311.44" gradientTransform="matrix(1, 0, 0, -1, 0, 770)" gradientUnits="userSpaceOnUse"><stop offset="0" stop-color="#5761d7"/><stop offset="0.18" stop-color="#5c66d9"/><stop offset="0.39" stop-color="#6a73df"/><stop offset="0.61" stop-color="#8289e8"/><stop offset="0.85" stop-color="#a3a7f5"/><stop offset="1" stop-color="#bcbeff"/></linearGradient><linearGradient id="Безымянный_градиент_30-23" x1="556.57" y1="312.38" x2="604.41" y2="333.97" xlink:href="#Безымянный_градиент_30"/><linearGradient id="Безымянный_градиент_31" x1="730.69" y1="370.57" x2="725.31" y2="416.06" gradientTransform="matrix(1, 0, 0, -1, 0, 770)" gradientUnits="userSpaceOnUse"><stop offset="0" stop-color="#4c9cfa"/><stop offset="0.5" stop-color="#426ab3" stop-opacity="0.4"/><stop offset="0.99" stop-color="#fff" stop-opacity="0"/><stop offset="1" stop-color="#fff" stop-opacity="0"/></linearGradient></defs><title>project-item-3</title><path class="cls-1" d="M759.6,387.24a1,1,0,0,1-.81-.47.93.93,0,0,1,.34-1.27l18.47-10.67c4.52-2.61,8.19-9,8.19-14.19V270.73c0-2.32-.74-4-2.07-4.8s-3.18-.56-5.19.61l-18.47,10.67a.93.93,0,1,1-.93-1.61l18.47-10.67c2.61-1.51,5.12-1.72,7-.61s3,3.39,3,6.41v89.91c0,5.81-4.09,12.9-9.13,15.8l-18.47,10.67A.81.81,0,0,1,759.6,387.24Z" transform="translate(-528 -242)"/><path class="cls-1" d="M769.85,393.11a1,1,0,0,1-.81-.47.93.93,0,0,1,.34-1.27l18.48-10.67c4.52-2.61,8.19-9,8.19-14.19V276.6c0-2.32-.74-4-2.07-4.8s-3.18-.55-5.19.61l-18.48,10.67a.93.93,0,1,1-.93-1.61l18.48-10.67c2.61-1.51,5.12-1.73,7-.61s3,3.39,3,6.41v89.91c0,5.81-4.09,12.9-9.13,15.8L770.3,393A.79.79,0,0,1,769.85,393.11Z" transform="translate(-528 -242)"/><path class="cls-1" d="M780.1,399a1,1,0,0,1-.81-.47.93.93,0,0,1,.34-1.27l18.48-10.67c4.52-2.61,8.19-9,8.19-14.19V282.48c0-2.33-.74-4-2.07-4.8s-3.18-.55-5.19.61L780.56,289a.93.93,0,1,1-.93-1.61l18.48-10.67c2.61-1.51,5.12-1.72,7-.61s3,3.4,3,6.41v89.91c0,5.81-4.09,12.9-9.13,15.8l-18.48,10.67A.79.79,0,0,1,780.1,399Z" transform="translate(-528 -242)"/><path class="cls-2" d="M755.4,433.69l-37.08-21.41c-1.36-.78-1.19-2.15.38-3.06L758,386.47a5.89,5.89,0,0,1,5.3-.22l37.08,21.41c1.36.78,1.19,2.15-.38,3.06l-39.3,22.75A5.92,5.92,0,0,1,755.4,433.69Z" transform="translate(-528 -242)"/><path class="cls-3" d="M801.29,289.8l-13.35-6.52-19-11c-1.36-.78-7-4.5-9-3.5l-34.5,19.5-8,3.44V393.64h0a1.56,1.56,0,0,0,.9,1.35l37.08,21.41a5.89,5.89,0,0,0,5.3-.22L800,393.43a2.27,2.27,0,0,0,1.29-1.62h0v-102Z" transform="translate(-528 -242)"/><path class="cls-1" d="M800,290.65l-39.3,22.75a5.89,5.89,0,0,1-5.3.22l-37.08-21.41a1.74,1.74,0,0,1-.83-.93,1.45,1.45,0,0,0,.83,1.75l37.08,21.41a5.89,5.89,0,0,0,5.3-.22L800,291.47c1-.61,1.46-1.42,1.21-2.13A2.44,2.44,0,0,1,800,290.65Z" transform="translate(-528 -242)"/><path class="cls-3" d="M722.75,383.87l0-30.37c0-1.11.9-1.5,2-.85l27.93,16a4.18,4.18,0,0,1,2,3.18l0,30.37c0,1.11-.9,1.5-2,.85l-27.93-16A4.21,4.21,0,0,1,722.75,383.87Z" transform="translate(-528 -242)"/><path class="cls-4" d="M722.75,383.87l0-30.37c0-1.11.9-1.5,2-.85l27.93,16a4.18,4.18,0,0,1,2,3.18l0,30.37c0,1.11-.9,1.5-2,.85l-27.93-16A4.21,4.21,0,0,1,722.75,383.87Z" transform="translate(-528 -242)"/><path class="cls-5" d="M747.56,380.46l-.23-.14a3.79,3.79,0,0,1-1.57-3v-4c0-1.15.71-1.68,1.57-1.19l.23.14a3.79,3.79,0,0,1,1.57,3v4C749.12,380.43,748.42,381,747.56,380.46Z" transform="translate(-528 -242)"/><path class="cls-1" d="M747.56,392.21l-.23-.14a3.79,3.79,0,0,1-1.57-3v-4c0-1.15.71-1.68,1.57-1.19l.23.14a3.79,3.79,0,0,1,1.57,3v4C749.12,392.18,748.42,392.71,747.56,392.21Z" transform="translate(-528 -242)"/><path class="cls-1" d="M740,376.09l-.23-.14a3.79,3.79,0,0,1-1.57-3v-4c0-1.15.71-1.68,1.57-1.19l.23.14a3.79,3.79,0,0,1,1.57,3v4C741.55,376.05,740.84,376.59,740,376.09Z" transform="translate(-528 -242)"/><path class="cls-1" d="M740,387.84l-.23-.14a3.79,3.79,0,0,1-1.57-3v-4c0-1.15.71-1.68,1.57-1.19l.23.14a3.79,3.79,0,0,1,1.57,3v4C741.55,387.8,740.84,388.34,740,387.84Z" transform="translate(-528 -242)"/><path class="cls-1" d="M732.4,371.71l-.23-.14a3.79,3.79,0,0,1-1.57-3v-4c0-1.15.71-1.68,1.57-1.19l.23.14a3.79,3.79,0,0,1,1.57,3v4C734,371.68,733.26,372.21,732.4,371.71Z" transform="translate(-528 -242)"/><path class="cls-5" d="M732.4,383.46l-.23-.14a3.79,3.79,0,0,1-1.57-3v-4c0-1.15.71-1.68,1.57-1.19l.23.14a3.79,3.79,0,0,1,1.57,3v4C734,383.43,733.26,384,732.4,383.46Z" transform="translate(-528 -242)"/><path class="cls-3" d="M726.84,385.59a4.18,4.18,0,0,1-2-3.18l0-29.73,0,0c-1.11-.64-2-.26-2,.85l0,30.37a4.21,4.21,0,0,0,2,3.18l27.93,16c1.11.64,2,.26,2-.85v-.63Z" transform="translate(-528 -242)"/><path class="cls-3" d="M722.75,340.37l0-30.37c0-1.11.9-1.5,2-.85l27.93,16a4.18,4.18,0,0,1,2,3.18l0,30.37c0,1.11-.9,1.5-2,.85l-27.93-16A4.24,4.24,0,0,1,722.75,340.37Z" transform="translate(-528 -242)"/><path class="cls-4" d="M722.75,340.37l0-30.37c0-1.11.9-1.5,2-.85l27.93,16a4.18,4.18,0,0,1,2,3.18l0,30.37c0,1.11-.9,1.5-2,.85l-27.93-16A4.24,4.24,0,0,1,722.75,340.37Z" transform="translate(-528 -242)"/><path class="cls-5" d="M747.56,337l-.23-.14a3.79,3.79,0,0,1-1.57-3v-4c0-1.15.71-1.68,1.57-1.19l.23.14a3.79,3.79,0,0,1,1.57,3v4C749.12,336.92,748.42,337.46,747.56,337Z" transform="translate(-528 -242)"/><path class="cls-1" d="M747.56,348.71l-.23-.14a3.79,3.79,0,0,1-1.57-3v-4c0-1.15.71-1.68,1.57-1.19l.23.14a3.79,3.79,0,0,1,1.57,3v4C749.12,348.67,748.42,349.21,747.56,348.71Z" transform="translate(-528 -242)"/><path class="cls-1" d="M740,332.58l-.23-.14a3.79,3.79,0,0,1-1.57-3v-4c0-1.15.71-1.68,1.57-1.19l.23.14a3.79,3.79,0,0,1,1.57,3v4C741.55,332.55,740.84,333.08,740,332.58Z" transform="translate(-528 -242)"/><path class="cls-1" d="M740,344.33l-.23-.14a3.79,3.79,0,0,1-1.57-3v-4c0-1.15.71-1.68,1.57-1.19l.23.14a3.79,3.79,0,0,1,1.57,3v4C741.55,344.3,740.84,344.83,740,344.33Z" transform="translate(-528 -242)"/><path class="cls-1" d="M732.4,328.21l-.23-.14a3.79,3.79,0,0,1-1.57-3v-4c0-1.15.71-1.68,1.57-1.19l.23.14a3.79,3.79,0,0,1,1.57,3v4C734,328.17,733.26,328.71,732.4,328.21Z" transform="translate(-528 -242)"/><path class="cls-5" d="M732.4,340l-.23-.14a3.79,3.79,0,0,1-1.57-3v-4c0-1.15.71-1.68,1.57-1.19l.23.14a3.79,3.79,0,0,1,1.57,3v4C734,339.92,733.26,340.46,732.4,340Z" transform="translate(-528 -242)"/><path class="cls-3" d="M726.84,342.08a4.18,4.18,0,0,1-2-3.18l0-29.73,0,0c-1.11-.64-2-.26-2,.85l0,30.37a4.21,4.21,0,0,0,2,3.18l27.93,16c1.11.64,2,.26,2-.85v-.63Z" transform="translate(-528 -242)"/><path class="cls-4" d="M764.89,407.67a1.45,1.45,0,0,1-.77-.2,1.6,1.6,0,0,1-.74-1.47l0-84.33a4.67,4.67,0,0,1,2.27-3.61l27.93-16a2,2,0,0,1,2-.18,1.6,1.6,0,0,1,.74,1.47l0,84.33a4.67,4.67,0,0,1-2.27,3.61l-27.93,16A2.45,2.45,0,0,1,764.89,407.67Zm30-105a1.62,1.62,0,0,0-.76.24l-27.93,16a3.69,3.69,0,0,0-1.77,2.74l0,84.33c0,.17,0,.48.24.6a1.14,1.14,0,0,0,1-.18l27.93-16a3.69,3.69,0,0,0,1.77-2.74l0-84.33c0-.17,0-.48-.24-.6A.4.4,0,0,0,794.87,302.66Z" transform="translate(-528 -242)"/><path class="cls-4" d="M758.18,308.42a3.94,3.94,0,0,1-1.89-.44L730,292.8a1.6,1.6,0,0,1-.9-1.38,2,2,0,0,1,1.17-1.66l27.87-16.13a4.69,4.69,0,0,1,4.26-.16l26.3,15.18a1.59,1.59,0,0,1,.9,1.38,2,2,0,0,1-1.17,1.66l-27.87,16.13A4.77,4.77,0,0,1,758.18,308.42ZM760.52,274a4,4,0,0,0-1.88.46l-27.87,16.13c-.41.24-.67.54-.67.79s.25.42.4.51l26.3,15.18a3.69,3.69,0,0,0,3.26-.16l27.87-16.13c.41-.24.67-.54.67-.79s-.25-.42-.4-.51l-26.3-15.18A2.93,2.93,0,0,0,760.52,274Z" transform="translate(-528 -242)"/><path class="cls-1" d="M605.05,422.41a.84.84,0,0,1-.48-.14l-34.22-20.79a3.9,3.9,0,0,1,.18-6.78l38.36-20.54a.93.93,0,1,1,.88,1.64l-38.36,20.54a2,2,0,0,0-.1,3.55l34.22,20.79a.93.93,0,0,1,.31,1.28A.92.92,0,0,1,605.05,422.41Z" transform="translate(-528 -242)"/><path class="cls-2" d="M654.93,490l-55.45-32c-2-1.17-1.78-3.22.57-4.58l58.77-34c2.35-1.35,5.9-1.5,7.93-.33l55.45,32c2,1.17,1.78,3.22-.57,4.58l-58.77,34C660.51,491,657,491.13,654.93,490Z" transform="translate(-528 -242)"/><path class="cls-6" d="M723.45,429.74l-59.29-34.23c-2.31-1.33-4.17-4.9-4.17-8V245.66c0-3.07,1.87-4.49,4.17-3.16l59.29,34.23c2.31,1.33,4.17,4.9,4.17,8V426.58C727.63,429.66,725.76,431.07,723.45,429.74Z" transform="translate(-528 -242)"/><path class="cls-7" d="M723.45,276.73,664.16,242.5a2.65,2.65,0,0,0-2.7-.23l-67.69,39,3.19,11.8,61.72,175.77L726.09,430l0,0,.12-.07h0a3.76,3.76,0,0,0,1.38-3.33V284.71C727.63,281.63,725.76,278.06,723.45,276.73Z" transform="translate(-528 -242)"/><path class="cls-8" d="M723.45,276.73,664.16,242.5a2.65,2.65,0,0,0-2.7-.23l-67.69,39,3.19,11.8,17,48.33,3.19,1.84,109.33-63.12A8.31,8.31,0,0,0,723.45,276.73Z" transform="translate(-528 -242)"/><path class="cls-8" d="M655.81,468.76l-59.29-34.23c-2.31-1.33-4.17-4.9-4.17-8V284.68c0-3.07,1.87-4.49,4.17-3.16l59.29,34.23c2.31,1.33,4.17,4.9,4.17,8V465.61C660,468.67,658.12,470.09,655.81,468.76Z" transform="translate(-528 -242)"/><path class="cls-9" d="M652.08,460.22,600.25,430.3c-2-1.16-3.65-4.29-3.65-7V291.56c0-2.69,1.63-3.92,3.65-2.76l51.83,29.92c2,1.16,3.65,4.29,3.65,7V457.45C655.73,460.14,654.1,461.38,652.08,460.22Z" transform="translate(-528 -242)"/><path class="cls-9" d="M652.08,460.22,600.25,430.3c-2-1.16-3.65-4.29-3.65-7V291.56c0-2.69,1.63-3.92,3.65-2.76l51.83,29.92c2,1.16,3.65,4.29,3.65,7V457.45C655.73,460.14,654.1,461.38,652.08,460.22Z" transform="translate(-528 -242)"/><path class="cls-10" d="M652.08,460.22,600.25,430.3c-2-1.16-3.65-4.29-3.65-7V291.56c0-2.69,1.63-3.92,3.65-2.76l51.83,29.92c2,1.16,3.65,4.29,3.65,7V457.45C655.73,460.14,654.1,461.38,652.08,460.22Z" transform="translate(-528 -242)"/><path class="cls-11" d="M653.78,459.22,602,429.3c-2-1.16-3.65-4.29-3.65-7V290.56a4.21,4.21,0,0,1,.52-2.2c-1.3,0-2.22,1.19-2.22,3.2V423.32c0,2.69,1.63,5.81,3.65,7l51.83,29.92c1.33.77,2.49.49,3.13-.56A2.92,2.92,0,0,1,653.78,459.22Z" transform="translate(-528 -242)"/><path class="cls-10" d="M660.06,293.47l-23.63-13.64c-1.21-.7-1.06-1.92.34-2.73a5.25,5.25,0,0,1,4.73-.2l23.63,13.64c1.21.7,1.06,1.92-.34,2.73A5.25,5.25,0,0,1,660.06,293.47Z" transform="translate(-528 -242)"/><path class="cls-12" d="M636.76,278.79a5.25,5.25,0,0,1,4.73-.2l23.63,13.64a2,2,0,0,1,.47.38,1.27,1.27,0,0,0-.47-2.07L641.49,276.9a5.25,5.25,0,0,0-4.73.2c-1.18.68-1.46,1.65-.8,2.36A2.61,2.61,0,0,1,636.76,278.79Z" transform="translate(-528 -242)"/><path class="cls-10" d="M670.66,287.35,647,273.71c-1.21-.7-1.06-1.92.34-2.73a5.25,5.25,0,0,1,4.73-.2l23.63,13.64c1.21.7,1.06,1.92-.34,2.73A5.25,5.25,0,0,1,670.66,287.35Z" transform="translate(-528 -242)"/><path class="cls-13" d="M647.36,272.67a5.25,5.25,0,0,1,4.73-.2l23.63,13.64a2,2,0,0,1,.47.38,1.27,1.27,0,0,0-.47-2.07l-23.63-13.64a5.25,5.25,0,0,0-4.73.2c-1.18.68-1.46,1.65-.8,2.36A2.61,2.61,0,0,1,647.36,272.67Z" transform="translate(-528 -242)"/><path class="cls-10" d="M681.26,281.23l-23.63-13.64c-1.21-.7-1.06-1.92.34-2.73a5.25,5.25,0,0,1,4.73-.2l23.63,13.64c1.21.7,1.06,1.92-.34,2.73A5.25,5.25,0,0,1,681.26,281.23Z" transform="translate(-528 -242)"/><path class="cls-14" d="M658,266.55a5.25,5.25,0,0,1,4.73-.2L686.32,280a1.76,1.76,0,0,1,.46.38,1.28,1.28,0,0,0-.46-2.07l-23.63-13.64a5.25,5.25,0,0,0-4.73.2c-1.18.68-1.46,1.65-.8,2.36A2.73,2.73,0,0,1,658,266.55Z" transform="translate(-528 -242)"/><path class="cls-15" d="M641.44,343.42l-.23-.14a3.79,3.79,0,0,1-1.57-3v-4c0-1.15.71-1.68,1.57-1.19l.23.14a3.79,3.79,0,0,1,1.57,3v4C643,343.38,642.31,343.91,641.44,343.42Z" transform="translate(-528 -242)"/><path class="cls-1" d="M641.44,355.17l-.23-.14a3.79,3.79,0,0,1-1.57-3v-4c0-1.15.71-1.68,1.57-1.19l.23.14a3.79,3.79,0,0,1,1.57,3v4C643,355.13,642.31,355.66,641.44,355.17Z" transform="translate(-528 -242)"/><path class="cls-15" d="M641.44,366.92l-.23-.14a3.79,3.79,0,0,1-1.57-3v-4c0-1.15.71-1.68,1.57-1.19l.23.14a3.79,3.79,0,0,1,1.57,3v4C643,366.88,642.31,367.41,641.44,366.92Z" transform="translate(-528 -242)"/><path class="cls-1" d="M641.44,378.67l-.23-.14a3.79,3.79,0,0,1-1.57-3v-4c0-1.15.71-1.68,1.57-1.19l.23.14a3.79,3.79,0,0,1,1.57,3v4C643,378.63,642.31,379.16,641.44,378.67Z" transform="translate(-528 -242)"/><path class="cls-1" d="M641.44,390.41l-.23-.14a3.79,3.79,0,0,1-1.57-3v-4c0-1.15.71-1.68,1.57-1.19l.23.14a3.79,3.79,0,0,1,1.57,3v4C643,390.38,642.31,390.91,641.44,390.41Z" transform="translate(-528 -242)"/><path class="cls-1" d="M641.44,402.16l-.23-.14a3.79,3.79,0,0,1-1.57-3v-4c0-1.15.71-1.68,1.57-1.19l.23.14a3.79,3.79,0,0,1,1.57,3v4C643,402.13,642.31,402.66,641.44,402.16Z" transform="translate(-528 -242)"/><path class="cls-1" d="M641.44,413.91l-.23-.14a3.79,3.79,0,0,1-1.57-3v-4c0-1.15.71-1.68,1.57-1.19l.23.14a3.79,3.79,0,0,1,1.57,3v4C643,413.88,642.31,414.41,641.44,413.91Z" transform="translate(-528 -242)"/><path class="cls-1" d="M641.44,425.66l-.23-.14a3.79,3.79,0,0,1-1.57-3v-4c0-1.15.71-1.68,1.57-1.19l.23.14a3.79,3.79,0,0,1,1.57,3v4C643,425.63,642.31,426.16,641.44,425.66Z" transform="translate(-528 -242)"/><path class="cls-1" d="M641.44,437.41l-.23-.14a3.79,3.79,0,0,1-1.57-3v-4c0-1.15.71-1.68,1.57-1.19l.23.14a3.79,3.79,0,0,1,1.57,3v4C643,437.38,642.31,437.91,641.44,437.41Z" transform="translate(-528 -242)"/><path class="cls-5" d="M633.87,339l-.23-.14a3.79,3.79,0,0,1-1.57-3v-4c0-1.15.71-1.68,1.57-1.19l.23.14a3.79,3.79,0,0,1,1.57,3v4C635.43,339,634.73,339.54,633.87,339Z" transform="translate(-528 -242)"/><path class="cls-1" d="M633.87,350.79l-.23-.14a3.79,3.79,0,0,1-1.57-3v-4c0-1.15.71-1.68,1.57-1.19l.23.14a3.79,3.79,0,0,1,1.57,3v4C635.43,350.76,634.73,351.29,633.87,350.79Z" transform="translate(-528 -242)"/><path class="cls-1" d="M633.87,362.54l-.23-.14a3.79,3.79,0,0,1-1.57-3v-4c0-1.15.71-1.68,1.57-1.19l.23.14a3.79,3.79,0,0,1,1.57,3v4C635.43,362.5,634.73,363,633.87,362.54Z" transform="translate(-528 -242)"/><path class="cls-1" d="M633.87,374.29l-.23-.14a3.79,3.79,0,0,1-1.57-3v-4c0-1.15.71-1.68,1.57-1.19l.23.14a3.79,3.79,0,0,1,1.57,3v4C635.43,374.25,634.73,374.79,633.87,374.29Z" transform="translate(-528 -242)"/><path class="cls-1" d="M633.87,386l-.23-.14a3.79,3.79,0,0,1-1.57-3v-4c0-1.15.71-1.68,1.57-1.19l.23.14a3.79,3.79,0,0,1,1.57,3v4C635.43,386,634.73,386.54,633.87,386Z" transform="translate(-528 -242)"/><path class="cls-5" d="M633.87,397.79l-.23-.14a3.79,3.79,0,0,1-1.57-3v-4c0-1.15.71-1.68,1.57-1.19l.23.14a3.79,3.79,0,0,1,1.57,3v4C635.43,397.75,634.73,398.29,633.87,397.79Z" transform="translate(-528 -242)"/><path class="cls-1" d="M633.87,409.54l-.23-.14a3.79,3.79,0,0,1-1.57-3v-4c0-1.15.71-1.68,1.57-1.19l.23.14a3.79,3.79,0,0,1,1.57,3v4C635.43,409.5,634.73,410,633.87,409.54Z" transform="translate(-528 -242)"/><path class="cls-1" d="M633.87,421.29l-.23-.14a3.79,3.79,0,0,1-1.57-3v-4c0-1.15.71-1.68,1.57-1.19l.23.14a3.79,3.79,0,0,1,1.57,3v4C635.43,421.25,634.73,421.79,633.87,421.29Z" transform="translate(-528 -242)"/><path class="cls-5" d="M633.87,433l-.23-.14a3.79,3.79,0,0,1-1.57-3v-4c0-1.15.71-1.68,1.57-1.19l.23.14a3.79,3.79,0,0,1,1.57,3v4C635.43,433,634.73,433.54,633.87,433Z" transform="translate(-528 -242)"/><path class="cls-1" d="M626.29,334.67l-.23-.14a3.79,3.79,0,0,1-1.57-3v-4c0-1.15.71-1.68,1.57-1.19l.23.14a3.79,3.79,0,0,1,1.57,3v4C627.86,334.63,627.15,335.16,626.29,334.67Z" transform="translate(-528 -242)"/><path class="cls-1" d="M626.29,346.42l-.23-.14a3.79,3.79,0,0,1-1.57-3v-4c0-1.15.71-1.68,1.57-1.19l.23.14a3.79,3.79,0,0,1,1.57,3v4C627.86,346.38,627.15,346.91,626.29,346.42Z" transform="translate(-528 -242)"/><path class="cls-5" d="M626.29,358.17l-.23-.14a3.79,3.79,0,0,1-1.57-3v-4c0-1.15.71-1.68,1.57-1.19l.23.14a3.79,3.79,0,0,1,1.57,3v4C627.86,358.13,627.15,358.66,626.29,358.17Z" transform="translate(-528 -242)"/><path class="cls-1" d="M626.29,369.92l-.23-.14a3.79,3.79,0,0,1-1.57-3v-4c0-1.15.71-1.68,1.57-1.19l.23.14a3.79,3.79,0,0,1,1.57,3v4C627.86,369.88,627.15,370.41,626.29,369.92Z" transform="translate(-528 -242)"/><path class="cls-5" d="M626.29,381.66l-.23-.14a3.79,3.79,0,0,1-1.57-3v-4c0-1.15.71-1.68,1.57-1.19l.23.14a3.79,3.79,0,0,1,1.57,3v4C627.86,381.63,627.15,382.16,626.29,381.66Z" transform="translate(-528 -242)"/><path class="cls-1" d="M626.29,393.41l-.23-.14a3.79,3.79,0,0,1-1.57-3v-4c0-1.15.71-1.68,1.57-1.19l.23.14a3.79,3.79,0,0,1,1.57,3v4C627.86,393.38,627.15,393.91,626.29,393.41Z" transform="translate(-528 -242)"/><path class="cls-15" d="M626.29,405.16l-.23-.14a3.79,3.79,0,0,1-1.57-3v-4c0-1.15.71-1.68,1.57-1.19l.23.14a3.79,3.79,0,0,1,1.57,3v4C627.86,405.13,627.15,405.66,626.29,405.16Z" transform="translate(-528 -242)"/><path class="cls-5" d="M626.29,416.91l-.23-.14a3.79,3.79,0,0,1-1.57-3v-4c0-1.15.71-1.68,1.57-1.19l.23.14a3.79,3.79,0,0,1,1.57,3v4C627.86,416.88,627.15,417.41,626.29,416.91Z" transform="translate(-528 -242)"/><path class="cls-5" d="M626.29,428.66l-.23-.14a3.79,3.79,0,0,1-1.57-3v-4c0-1.15.71-1.68,1.57-1.19l.23.14a3.79,3.79,0,0,1,1.57,3v4C627.86,428.63,627.15,429.16,626.29,428.66Z" transform="translate(-528 -242)"/><path class="cls-1" d="M618.71,330.29l-.23-.14a3.79,3.79,0,0,1-1.57-3v-4c0-1.15.71-1.68,1.57-1.19l.23.14a3.79,3.79,0,0,1,1.57,3v4C620.28,330.26,619.57,330.79,618.71,330.29Z" transform="translate(-528 -242)"/><path class="cls-5" d="M618.71,342l-.23-.14a3.79,3.79,0,0,1-1.57-3v-4c0-1.15.71-1.68,1.57-1.19l.23.14a3.79,3.79,0,0,1,1.57,3v4C620.28,342,619.57,342.54,618.71,342Z" transform="translate(-528 -242)"/><path class="cls-5" d="M618.71,353.79l-.23-.14a3.79,3.79,0,0,1-1.57-3v-4c0-1.15.71-1.68,1.57-1.19l.23.14a3.79,3.79,0,0,1,1.57,3v4C620.28,353.75,619.57,354.29,618.71,353.79Z" transform="translate(-528 -242)"/><path class="cls-1" d="M618.71,365.54l-.23-.14a3.79,3.79,0,0,1-1.57-3v-4c0-1.15.71-1.68,1.57-1.19l.23.14a3.79,3.79,0,0,1,1.57,3v4C620.28,365.5,619.57,366,618.71,365.54Z" transform="translate(-528 -242)"/><path class="cls-1" d="M618.71,377.29l-.23-.14a3.79,3.79,0,0,1-1.57-3v-4c0-1.15.71-1.68,1.57-1.19l.23.14a3.79,3.79,0,0,1,1.57,3v4C620.28,377.25,619.57,377.79,618.71,377.29Z" transform="translate(-528 -242)"/><path class="cls-5" d="M618.71,389l-.23-.14a3.79,3.79,0,0,1-1.57-3v-4c0-1.15.71-1.68,1.57-1.19l.23.14a3.79,3.79,0,0,1,1.57,3v4C620.28,389,619.57,389.54,618.71,389Z" transform="translate(-528 -242)"/><path class="cls-1" d="M618.71,400.79l-.23-.14a3.79,3.79,0,0,1-1.57-3v-4c0-1.15.71-1.68,1.57-1.19l.23.14a3.79,3.79,0,0,1,1.57,3v4C620.28,400.75,619.57,401.29,618.71,400.79Z" transform="translate(-528 -242)"/><path class="cls-1" d="M618.71,412.54l-.23-.14a3.79,3.79,0,0,1-1.57-3v-4c0-1.15.71-1.68,1.57-1.19l.23.14a3.79,3.79,0,0,1,1.57,3v4C620.28,412.5,619.57,413,618.71,412.54Z" transform="translate(-528 -242)"/><path class="cls-1" d="M618.71,424.29l-.23-.14a3.79,3.79,0,0,1-1.57-3v-4c0-1.15.71-1.68,1.57-1.19l.23.14a3.79,3.79,0,0,1,1.57,3v4C620.28,424.25,619.57,424.79,618.71,424.29Z" transform="translate(-528 -242)"/><path class="cls-1" d="M611.13,325.92l-.23-.14a3.79,3.79,0,0,1-1.57-3v-4c0-1.15.71-1.68,1.57-1.19l.23.14a3.79,3.79,0,0,1,1.57,3v4C612.7,325.88,612,326.41,611.13,325.92Z" transform="translate(-528 -242)"/><path class="cls-1" d="M611.13,337.67l-.23-.14a3.79,3.79,0,0,1-1.57-3v-4c0-1.15.71-1.68,1.57-1.19l.23.14a3.79,3.79,0,0,1,1.57,3v4C612.7,337.63,612,338.16,611.13,337.67Z" transform="translate(-528 -242)"/><path class="cls-5" d="M611.13,349.42l-.23-.14a3.79,3.79,0,0,1-1.57-3v-4c0-1.15.71-1.68,1.57-1.19l.23.14a3.79,3.79,0,0,1,1.57,3v4C612.7,349.38,612,349.91,611.13,349.42Z" transform="translate(-528 -242)"/><path class="cls-15" d="M611.13,361.17l-.23-.14a3.79,3.79,0,0,1-1.57-3v-4c0-1.15.71-1.68,1.57-1.19l.23.14a3.79,3.79,0,0,1,1.57,3v4C612.7,361.13,612,361.66,611.13,361.17Z" transform="translate(-528 -242)"/><path class="cls-5" d="M611.13,372.91l-.23-.14a3.79,3.79,0,0,1-1.57-3v-4c0-1.15.71-1.68,1.57-1.19l.23.14a3.79,3.79,0,0,1,1.57,3v4C612.7,372.88,612,373.41,611.13,372.91Z" transform="translate(-528 -242)"/><path class="cls-1" d="M611.13,384.66l-.23-.14a3.79,3.79,0,0,1-1.57-3v-4c0-1.15.71-1.68,1.57-1.19l.23.14a3.79,3.79,0,0,1,1.57,3v4C612.7,384.63,612,385.16,611.13,384.66Z" transform="translate(-528 -242)"/><path class="cls-1" d="M611.13,396.41l-.23-.14a3.79,3.79,0,0,1-1.57-3v-4c0-1.15.71-1.68,1.57-1.19l.23.14a3.79,3.79,0,0,1,1.57,3v4C612.7,396.38,612,396.91,611.13,396.41Z" transform="translate(-528 -242)"/><path class="cls-1" d="M611.13,408.16l-.23-.14a3.79,3.79,0,0,1-1.57-3v-4c0-1.15.71-1.68,1.57-1.19l.23.14a3.79,3.79,0,0,1,1.57,3v4C612.7,408.13,612,408.66,611.13,408.16Z" transform="translate(-528 -242)"/><path class="cls-1" d="M611.13,419.91l-.23-.14a3.79,3.79,0,0,1-1.57-3v-4c0-1.15.71-1.68,1.57-1.19l.23.14a3.79,3.79,0,0,1,1.57,3v4C612.7,419.88,612,420.41,611.13,419.91Z" transform="translate(-528 -242)"/><path class="cls-16" d="M721.87,431a.82.82,0,0,1-.43-.12l-7.68-4.43a7,7,0,0,1-3.19-5.52V388.25a2.53,2.53,0,0,1,4-2.34l7.69,4.44a.86.86,0,0,1,.32,1.18.87.87,0,0,1-1.18.32l-7.69-4.44a1.15,1.15,0,0,0-1.08-.19,1.18,1.18,0,0,0-.37,1v32.66a5.22,5.22,0,0,0,2.32,4l7.68,4.43a.87.87,0,0,1,.32,1.18A.89.89,0,0,1,721.87,431Z" transform="translate(-528 -242)"/><path class="cls-17" d="M714.14,435.46a.82.82,0,0,1-.43-.12L706,430.91a7,7,0,0,1-3.19-5.52V392.73a2.53,2.53,0,0,1,4-2.34l7.69,4.44a.86.86,0,0,1,.32,1.18.87.87,0,0,1-1.18.32L706,391.89a1.15,1.15,0,0,0-1.08-.19,1.18,1.18,0,0,0-.37,1v32.66a5.22,5.22,0,0,0,2.32,4l7.68,4.43a.87.87,0,0,1-.44,1.62Z" transform="translate(-528 -242)"/><path class="cls-18" d="M706.4,440a.82.82,0,0,1-.43-.12l-7.68-4.43a7,7,0,0,1-3.19-5.52V397.22a2.53,2.53,0,0,1,4-2.34l7.69,4.44a.87.87,0,0,1,.32,1.18.86.86,0,0,1-1.18.32l-7.69-4.44a1.15,1.15,0,0,0-1.08-.19,1.18,1.18,0,0,0-.37,1v32.66a5.22,5.22,0,0,0,2.32,4l7.68,4.43a.87.87,0,0,1,.32,1.18A.88.88,0,0,1,706.4,440Z" transform="translate(-528 -242)"/><path class="cls-19" d="M698.67,444.43a.82.82,0,0,1-.43-.12l-7.68-4.43a7,7,0,0,1-3.19-5.52V401.7a2.78,2.78,0,0,1,1.24-2.53,2.81,2.81,0,0,1,2.81.19l7.69,4.44a.86.86,0,1,1-.86,1.5l-7.69-4.44a1.15,1.15,0,0,0-1.08-.19,1.18,1.18,0,0,0-.37,1v32.66a5.22,5.22,0,0,0,2.32,4l7.68,4.43a.87.87,0,0,1,.32,1.18A.89.89,0,0,1,698.67,444.43Z" transform="translate(-528 -242)"/><path class="cls-2" d="M723.67,526.52l-37.08-21.41c-1.36-.78-1.19-2.15.38-3.06l39.3-22.75a5.89,5.89,0,0,1,5.3-.22l37.08,21.41c1.36.78,1.19,2.15-.38,3.06L729,526.3A5.92,5.92,0,0,1,723.67,526.52Z" transform="translate(-528 -242)"/><path class="cls-20" d="M769.58,434.06,736,415.5c-1.36-.78-8.16,4.37-9.73,5.28L718,416l-32.32,20v50.49h0a1.56,1.56,0,0,0,.9,1.35l37.08,21.41A5.89,5.89,0,0,0,729,509l39.3-22.75a2.27,2.27,0,0,0,1.29-1.62h0Z" transform="translate(-528 -242)"/><path class="cls-1" d="M768.27,434.9,729,457.65a5.89,5.89,0,0,1-5.3.22l-37.08-21.41a1.74,1.74,0,0,1-.83-.93,1.45,1.45,0,0,0,.83,1.75l37.08,21.41a5.89,5.89,0,0,0,5.3-.22l39.3-22.75c1.05-.61,1.46-1.42,1.21-2.13A2.48,2.48,0,0,1,768.27,434.9Z" transform="translate(-528 -242)"/><path class="cls-21" d="M691,480.47l0-30.37c0-1.11.9-1.5,2-.85l27.93,16a4.18,4.18,0,0,1,2,3.18l0,30.37c0,1.11-.9,1.5-2,.85l-27.93-16A4.18,4.18,0,0,1,691,480.47Z" transform="translate(-528 -242)"/><path class="cls-22" d="M691,480.47l0-30.37c0-1.11.9-1.5,2-.85l27.93,16a4.18,4.18,0,0,1,2,3.18l0,30.37c0,1.11-.9,1.5-2,.85l-27.93-16A4.18,4.18,0,0,1,691,480.47Z" transform="translate(-528 -242)"/><path class="cls-23" d="M695.11,482.19a4.18,4.18,0,0,1-2-3.18l0-29.73,0,0c-1.11-.64-2-.26-2,.85l0,30.37a4.21,4.21,0,0,0,2,3.18l27.93,16c1.11.64,2,.26,2-.85v-.63Z" transform="translate(-528 -242)"/><path class="cls-4" d="M764.12,480.47l0-30.37c0-1.11-.9-1.5-2-.85l-27.93,16a4.18,4.18,0,0,0-2,3.18l0,30.37c0,1.11.9,1.5,2,.85l27.93-16A4.18,4.18,0,0,0,764.12,480.47Z" transform="translate(-528 -242)"/><path class="cls-4" d="M760,482.19a4.18,4.18,0,0,0,2-3.18l0-29.73,0,0c1.11-.64,2-.26,2,.85l0,30.37a4.21,4.21,0,0,1-2,3.18l-27.93,16c-1.11.64-2,.26-2-.85v-.63Z" transform="translate(-528 -242)"/><path class="cls-4" d="M726.46,452.67a3.94,3.94,0,0,1-1.89-.44l-26.3-15.18a1.59,1.59,0,0,1-.9-1.38,2,2,0,0,1,1.17-1.66l27.87-16.13a4.69,4.69,0,0,1,4.26-.16L757,432.9a1.59,1.59,0,0,1,.9,1.38,2,2,0,0,1-1.17,1.66l-27.87,16.13A4.8,4.8,0,0,1,726.46,452.67Zm2.34-34.39a4,4,0,0,0-1.88.46l-27.87,16.13c-.41.24-.67.54-.67.79s.25.42.4.51l26.3,15.18a3.66,3.66,0,0,0,3.26-.16l27.87-16.13c.41-.24.67-.54.67-.8s-.25-.42-.4-.51l-26.3-15.18A3.06,3.06,0,0,0,728.8,418.28Z" transform="translate(-528 -242)"/><path class="cls-5" d="M715.83,477.06l-.23-.14a3.79,3.79,0,0,1-1.57-3v-4c0-1.15.71-1.68,1.57-1.19l.23.14a3.79,3.79,0,0,1,1.57,3v4C717.4,477,716.7,477.56,715.83,477.06Z" transform="translate(-528 -242)"/><path class="cls-1" d="M715.83,488.81l-.23-.14a3.79,3.79,0,0,1-1.57-3v-4c0-1.15.71-1.68,1.57-1.19l.23.14a3.79,3.79,0,0,1,1.57,3v4C717.4,488.78,716.7,489.31,715.83,488.81Z" transform="translate(-528 -242)"/><path class="cls-1" d="M708.26,472.69l-.23-.14a3.79,3.79,0,0,1-1.57-3v-4c0-1.15.71-1.68,1.57-1.19l.23.14a3.79,3.79,0,0,1,1.57,3v4C709.83,472.65,709.12,473.19,708.26,472.69Z" transform="translate(-528 -242)"/><path class="cls-1" d="M708.26,484.44l-.23-.14a3.79,3.79,0,0,1-1.57-3v-4c0-1.15.71-1.68,1.57-1.19l.23.14a3.79,3.79,0,0,1,1.57,3v4C709.83,484.4,709.12,484.94,708.26,484.44Z" transform="translate(-528 -242)"/><path class="cls-1" d="M700.68,468.31l-.24-.13a3.79,3.79,0,0,1-1.57-3v-4c0-1.15.71-1.68,1.57-1.19l.23.14a3.79,3.79,0,0,1,1.57,3v4C702.25,468.28,701.54,468.81,700.68,468.31Z" transform="translate(-528 -242)"/><path class="cls-5" d="M700.68,480.06l-.23-.14a3.79,3.79,0,0,1-1.57-3v-4c0-1.15.71-1.68,1.57-1.19l.23.14a3.79,3.79,0,0,1,1.57,3v4C702.25,480,701.54,480.56,700.68,480.06Z" transform="translate(-528 -242)"/><path class="cls-1" d="M760.6,515.68a3.52,3.52,0,0,1-1.69-.44,3.43,3.43,0,0,1-1.79-3V483.61a4.87,4.87,0,0,0-2.4-4.19l-7-4.14a.93.93,0,0,1,.94-1.6l7,4.14a6.75,6.75,0,0,1,3.31,5.79V512.2a1.59,1.59,0,0,0,.83,1.41,1.61,1.61,0,0,0,1.64,0l51.75-32.22a1.21,1.21,0,0,0,.59-1.06,1.19,1.19,0,0,0-.6-1.05L778.7,458.57a3.26,3.26,0,0,1,0-5.57l55.79-33.88a1.47,1.47,0,0,0,.71-1.28,1.44,1.44,0,0,0-.75-1.25l-37.22-21a.93.93,0,0,1,.92-1.62l37.22,21a3.34,3.34,0,0,1,.09,5.75l-55.79,33.87a1.39,1.39,0,0,0,0,2.38l34.48,20.67a3.1,3.1,0,0,1,.05,5.29l-51.75,32.21A3.45,3.45,0,0,1,760.6,515.68Z" transform="translate(-528 -242)"/><path class="cls-3" d="M769.56,409.14,730,388.28a3.56,3.56,0,0,0-4.06,0l-40.26,22.77v8.05h0a1.56,1.56,0,0,0,.9,1.35l37.08,21.41a5.89,5.89,0,0,0,5.3-.22l39.3-22.75a2.27,2.27,0,0,0,1.29-1.62h0v-8.13Z" transform="translate(-528 -242)"/><path class="cls-15" d="M726.45,428a3.88,3.88,0,0,1-1.91-.45L698,412.15a1.61,1.61,0,0,1-.91-1.39,2,2,0,0,1,1.18-1.67l28.18-16.31a4.72,4.72,0,0,1,4.3-.16L757.29,408a1.63,1.63,0,0,1,.91,1.39A2,2,0,0,1,757,411l-28.18,16.31A4.88,4.88,0,0,1,726.45,428ZM725,426.63a3.75,3.75,0,0,0,3.3-.16l28.18-16.31c.42-.24.68-.55.68-.81s-.26-.43-.41-.52L730.2,393.48a3.71,3.71,0,0,0-3.3.16L698.72,410c-.42.24-.68.55-.68.81s.26.43.41.52Z" transform="translate(-528 -242)"/><path class="cls-1" d="M768.27,410,729,432.74a5.89,5.89,0,0,1-5.3.22l-37.08-21.41a1.74,1.74,0,0,1-.83-.93,1.45,1.45,0,0,0,.83,1.75l37.08,21.41a5.89,5.89,0,0,0,5.3-.22l39.3-22.75c1.05-.61,1.46-1.42,1.21-2.13A2.55,2.55,0,0,1,768.27,410Z" transform="translate(-528 -242)"/><path class="cls-4" d="M743.94,429.09a2.62,2.62,0,0,1-1.19,2.06c-.66.38-1.19.07-1.19-.69a2.62,2.62,0,0,1,1.19-2.06C743.41,428,743.94,428.33,743.94,429.09Z" transform="translate(-528 -242)"/><path class="cls-24" d="M748.63,426.38a2.62,2.62,0,0,1-1.19,2.06c-.66.38-1.19.07-1.19-.69a2.62,2.62,0,0,1,1.19-2.06C748.1,425.32,748.63,425.63,748.63,426.38Z" transform="translate(-528 -242)"/><path class="cls-24" d="M753.32,423.68a2.62,2.62,0,0,1-1.19,2.06c-.66.38-1.19.07-1.19-.69a2.62,2.62,0,0,1,1.19-2.06C752.79,422.61,753.32,422.92,753.32,423.68Z" transform="translate(-528 -242)"/><path class="cls-2" d="M597.06,518.29l-62.39-36c-2-1.18-1.78-3.23.57-4.59l28.65-16.54c2.35-1.36,5.92-1.51,8-.33l62.39,36c2,1.18,1.78,3.23-.57,4.59L605,518C602.66,519.32,599.1,519.47,597.06,518.29Z" transform="translate(-528 -242)"/><path class="cls-22" d="M611.79,498.48a2.2,2.2,0,1,1-2.2-2.2A2.2,2.2,0,0,1,611.79,498.48Z" transform="translate(-528 -242)"/><path class="cls-22" d="M633.49,473.86a2.2,2.2,0,1,1-2.2-2.2A2.2,2.2,0,0,1,633.49,473.86Z" transform="translate(-528 -242)"/><path class="cls-22" d="M636,492.89a2.2,2.2,0,1,0-2.2-2.2A2.19,2.19,0,0,0,636,492.89Z" transform="translate(-528 -242)"/><path class="cls-22" d="M590.62,486.53a2.2,2.2,0,1,1-2.2-2.2A2.2,2.2,0,0,1,590.62,486.53Z" transform="translate(-528 -242)"/><path class="cls-22" d="M604.24,471.65a2.2,2.2,0,1,1-2.2-2.2A2.2,2.2,0,0,1,604.24,471.65Z" transform="translate(-528 -242)"/><path class="cls-1" d="M612.71,479.81l-24.23,4.67-.3,0,0-.16-1.17-.29v1.37h0a.44.44,0,0,0,0,.16c.15.54,1,.9,2,.82l24.23-4.67Z" transform="translate(-528 -242)"/><path class="cls-22" d="M633,471.5l-.74.62a2.75,2.75,0,0,0-2.27.17l-17.26,7.51,2.42,1.39,17.26-7.51a.93.93,0,0,0,.58-.82h0Z" transform="translate(-528 -242)"/><path class="cls-25" d="M603.67,469.82a2.41,2.41,0,0,0-2.3-.43l-.28.1a1,1,0,0,0-.15-.2,3.38,3.38,0,0,0-.51-.36v1.37h0a.7.7,0,0,0,.18.42l11.14,10.17,3-.9Z" transform="translate(-528 -242)"/><path class="cls-22" d="M637.62,488.36l-.41.14L637,489a2,2,0,0,0-.29-.11L614.83,480l-1.55,1.76,21.86,8.88a2.44,2.44,0,0,0,2.3-.43.67.67,0,0,0,.18-.46h0Z" transform="translate(-528 -242)"/><path class="cls-22" d="M611.77,480.9l-3.59,15.38-.27-.14v1.42h0c.05.45.63.84,1.44.91s1.81-.28,1.95-.82l3.84-16.44Z" transform="translate(-528 -242)"/><path class="cls-26" d="M636.69,487.51l-20.27-8.24,16-7c.72-.41.79-1,.17-1.4l-.17-.1a2.69,2.69,0,0,0-2.42.1l-16,7-10.33-9.43a2.41,2.41,0,0,0-2.3-.43c-.84.25-1.17.84-.75,1.33L611,478.77l-22.47,4.33c-.93.09-1.57.59-1.42,1.13s1,.9,2,.82l22.47-4.33L607.92,496c-.15.54.49,1,1.42,1.13s1.81-.28,1.95-.82L614.85,481l20.27,8.24a2.44,2.44,0,0,0,2.3-.43C637.86,488.35,637.53,487.76,636.69,487.51Zm-22.45-8.21-.38.43-.82-.08-.13-.47.74-.22Z" transform="translate(-528 -242)"/><path class="cls-22" d="M613.55,480.56a1.77,1.77,0,0,1-1.77-1.77V458.32h3.54v20.47A1.78,1.78,0,0,1,613.55,480.56Z" transform="translate(-528 -242)"/><path class="cls-22" d="M604.14,434a1.66,1.66,0,0,0-.93-1.23l-.37-.21a6,6,0,0,0-5.35.22l-11.17,6.45a2.26,2.26,0,0,0-1.31,1.69h0v1.95a1.6,1.6,0,0,0,.92,1.35l.37.21a6,6,0,0,0,5.36-.22l11.17-6.45a2.29,2.29,0,0,0,1.3-1.64h0V434Z" transform="translate(-528 -242)"/><path class="cls-22" d="M586.3,442.55l-.37-.21c-1.37-.79-1.2-2.18.38-3.09l11.17-6.45a5.93,5.93,0,0,1,5.35-.22l.37.21c1.37.79,1.2,2.18-.38,3.09l-11.17,6.45A6,6,0,0,1,586.3,442.55Z" transform="translate(-528 -242)"/><path class="cls-27" d="M610,451.55l-23.4,13.5c-1.16.67-2.1,0-2.1-1.59a5,5,0,0,1,2.1-4L613.37,444v1.06C613.36,447.55,611.84,450.47,610,451.55Z" transform="translate(-528 -242)"/><path class="cls-28" d="M611.68,393.88a3,3,0,0,0-3,.28l-.7.4c-2.59,1.49-4.69,5.5-4.69,8.95v46.28l6.22-3.59v1.47l-7.46,6.08-16.94,11.36,23.81,13.46L622.61,468l7.8-6.66,4.86-54.16Z" transform="translate(-528 -242)"/><path class="cls-29" d="M594.24,470.28a2.91,2.91,0,0,1,.62-2.93c1.25-1.25,7.83-4,8.31-4.32s2.84-2,2.84-2l.72-1.62s-13.37,1.3-13.54,1.51-6.26,5.66-6.08,5.9A35.07,35.07,0,0,0,591.3,468l.77,1.06Z" transform="translate(-528 -242)"/><path class="cls-22" d="M632.38,407.56l-.7.4c-2.59,1.49-4.69,5.5-4.69,9v46.28l-16.74,9.66a5,5,0,0,0-2.1,4c0,1.55.94,2.26,2.1,1.59l23.4-13.5a8.17,8.17,0,0,0,3.41-6.51V411.1C637.07,407.65,635,406.07,632.38,407.56Z" transform="translate(-528 -242)"/><path class="cls-30" d="M587.91,480.3a31.69,31.69,0,0,0-4.61,3.52c-1.17,1.3-3.48,4-2.53,5.24s4.16,2,7.61-1.19,2.47-3.37,5.41-4.94,3.75-3.29,3.39-4.27-1.8-2.71-2.6-2.34S587.91,480.3,587.91,480.3Z" transform="translate(-528 -242)"/><path class="cls-31" d="M604.68,489.59a35.69,35.69,0,0,1-1.88,3.63c-.64.9-3.73,6.12-2.12,7.31s4.68.87,7.1-1.76,3-5.83,3.55-6.88,2.08-3.85,1.38-5.47-.86-1.9-.86-1.9Z" transform="translate(-528 -242)"/><path class="cls-32" d="M592.16,450.81S581.91,460.92,580.24,466a5.62,5.62,0,0,0,1.27,4.89c2,2.15,6.19,9.18,6.19,9.18s3.14,3.8,7.19.76c0,0,1.83-2.93.71-4.87s-4.12-8.16-4.12-8.16,6.57-4.52,9.81-5.66a45.13,45.13,0,0,0,5-2,15.5,15.5,0,0,1-3,6c-2.37,3-6.34,7.78-5,11.12a28,28,0,0,0,3.33,6.29c1.24,1.92,2.42,5.93,3.48,6.35s6,.9,6.75-2.29-1.67-9.39-2.78-11.49c0,0,13.25-15.29,14.51-17S596.26,448.21,592.16,450.81Z" transform="translate(-528 -242)"/><path class="cls-22" d="M595.59,476c-1.13-1.95-4.12-8.16-4.12-8.16s6.57-4.52,9.81-5.66a45.13,45.13,0,0,0,5-2,33.82,33.82,0,0,0,3.53-6.75c-7.47-2.19-15.58-3.84-17.63-2.55.72,1.79,4.53,1.77,4.53,1.77s1.42,3.46,2.37,3.91,3.2,0,3.2,0a8.22,8.22,0,0,1-2,1.73c-1.61,1.16-11.69,9.42-11.69,9.42s.57.33,3.26,5.18a24,24,0,0,1,3,8.05S596.71,477.9,595.59,476Z" transform="translate(-528 -242)"/><path class="cls-33" d="M618.23,456.17c-5.92-.57-12.82-.62-11.27,2.49a9.92,9.92,0,0,0,7.93,5.51c0,1.94-8.16,11.3-8.16,11.3l1.89,3.68c1.89,3.68,1.66,10.39,1.66,10.39a3,3,0,0,0,1.54-1.94c.79-3.19-1.67-9.39-2.78-11.49,0,0,13.25-15.29,14.51-17C623.93,458.66,621.69,457.49,618.23,456.17Z" transform="translate(-528 -242)"/><path class="cls-34" d="M581.8,423.86l1.58-1.22s8.49-4.72,11.32-6.24a19.32,19.32,0,0,0,4.25-3.49,5.94,5.94,0,0,1,4.24-1.81l14.88-.07a30.75,30.75,0,0,0,2.32,3.32c.43.4,4.47,3.79,7.36,6.57a12.6,12.6,0,0,1,3.38,5.62c1.66,5.84,1.63,17.62,1.88,26a26.39,26.39,0,0,1-3.57.94c-2.53.54-2.22.2-2.22.2s-3.8,8.54-9,9.37-12.09-1.58-13.33-9.67c0,0-10-1.5-12.77-2.62a.42.42,0,0,1-.18-.63c1.21-1.61,5.74-7.86,6.17-11.93a66,66,0,0,0,0-13.4s-7.57,2.85-10,3.36c0,0-9.22,10.13-13.07,12.89,0,0,1.32-2.07-1.33-3.48Z" transform="translate(-528 -242)"/><path class="cls-33" d="M629.43,453.52l1.05-.24-.54-1-14-1.48-8.16.42L605,453.84a13.53,13.53,0,0,0,.66,2.4,20.88,20.88,0,0,0,5.07.16c1.61-.34,14,1.48,14.06,1.49a29.11,29.11,0,0,0,2.39-4.14C627.19,453.81,627.34,454,629.43,453.52Z" transform="translate(-528 -242)"/><path class="cls-35" d="M610.58,448.64a.13.13,0,0,0-.11-.09c-.67,0-5-.15-6.69-.72a8,8,0,0,0-3.78-.4c-.1.1-3.08,1.37-3.25,1.88a4.24,4.24,0,0,0,0,2.62,8.49,8.49,0,0,1,.58,1l.31,0a8.74,8.74,0,0,0,.63,1.07,1.63,1.63,0,0,1,.24.4c.19.41.52,1.08.66,1.09a7.46,7.46,0,0,0,1.36.14c.19-.05.36-.64.29-.89a.11.11,0,0,1,.09-.15,12.68,12.68,0,0,1,3.17-.07,11.91,11.91,0,0,0,4.94-1.21h0l2.74-.25a.13.13,0,0,0,.11-.16Z" transform="translate(-528 -242)"/><path class="cls-36" d="M607.28,419.79a36.72,36.72,0,0,0,.13,17.42s9-16.73,9.94-19.44,1.33-4.64.42-5.62-9,4.06-9,4.06Z" transform="translate(-528 -242)"/><path class="cls-37" d="M609.59,433.26s1.71-5.23,1.41-6.91a20.53,20.53,0,0,0-.72-2.89l1.54-1.42.68,1.41a34.25,34.25,0,0,0,3.62-2.95,28.26,28.26,0,0,1-3.59,2.15,2.5,2.5,0,0,0-.94-.9c-.54-.23-1.87,1.6-1.87,1.6l-.25,3.17-1.34,7.4.47,1.1Z" transform="translate(-528 -242)"/><path class="cls-38" d="M611.58,421.74s-1.52-2.68-3.49-1.86c0,0-.32,3.3-.05,3.6a8.72,8.72,0,0,0-1.74,3.92,25.71,25.71,0,0,0,1.12,9.8l1.33-2.5a47.94,47.94,0,0,1,1.21-6.25,10,10,0,0,0,.1-5.12A16.19,16.19,0,0,0,611.58,421.74Z" transform="translate(-528 -242)"/><path class="cls-35" d="M603.09,406.09a10.82,10.82,0,0,0-.26,2.48c.15.4.68.66.55,1.48a15.37,15.37,0,0,0,.58,4.06s-.18.87.07,1.13.56.26.79.67.3,2.52,1.16,3.22a3.19,3.19,0,0,0,2.54.7,4.06,4.06,0,0,0,1.16-.59l1.29.54s6.67-1.89,6.46-6.57v-.5a5.4,5.4,0,0,0,.61-1.1c.14-.44,1.24-2.38.68-3.22,0,0,2.58-10.2-5.39-10.81S604.15,402.54,603.09,406.09Z" transform="translate(-528 -242)"/><path class="cls-39" d="M617.42,413.2v-.06a1.5,1.5,0,0,0-.92-.28c-.91.16-.7-1.73-.7-1.73a17.09,17.09,0,0,0-.63,2.76c-.47,2.42-5.49,5.34-5.49,5.34l1.29.54S617.63,417.89,617.42,413.2Z" transform="translate(-528 -242)"/><path class="cls-40" d="M603.13,401.66c-.78,1.65-1.15,3.64.48,5,0,0,1.37.37,4-.84a6,6,0,0,1,4.46-.13,1.07,1.07,0,0,1,.72,1l0,1.45a.92.92,0,0,0,.56.87l1.21.52.24,1.41a.68.68,0,0,0,.9.53l.31-.11s.18-3.14,2.77-3c0,0,2.1-4.54-.05-8.69s-8-3.85-9.3-3.38a8.51,8.51,0,0,0-2.37,1.11A10,10,0,0,0,603.13,401.66Z" transform="translate(-528 -242)"/><path class="cls-33" d="M624.33,433.65s-1.21,8.89-1.7,11.41l-3.9,2.06,6.92-.42Z" transform="translate(-528 -242)"/><path class="cls-41" d="M618.71,408.39a11.85,11.85,0,0,0,.88-3.64,9.38,9.38,0,0,1-6.82,1.95l0,1.45a.92.92,0,0,0,.56.87l1.21.52.24,1.41a.68.68,0,0,0,.9.53l.31-.11S616.12,408.23,618.71,408.39Z" transform="translate(-528 -242)"/><path class="cls-33" d="M620.43,416.2s-2.06,7.09-2.49,8.45l-1.66-.18.3,2.24-8.94,11.79,9.93-11.4-.39-2,1.51.16Z" transform="translate(-528 -242)"/><path class="cls-42" d="M611.65,454.73s21-.68,21.51-1.06.63-5.78.58-8.9c0-2.19,0-10.78-1.88-16.8,1.47,5.1.7,23.13,0,24s-20.62,1.45-20.62,1.45Z" transform="translate(-528 -242)"/><path class="cls-35" d="M570.44,438s-.08.53-1,1.05-3.25,1.67-3.62,2a22.32,22.32,0,0,0-2.11,2c-.05.19-.55,1.87-.55,2s.16.87.16.87l-.52,2.47s-.66,1,.06,1.22a.91.91,0,0,0,1.13-.59,11.89,11.89,0,0,0,1.88-1.13c.79-.62,4-3.18,4.52-3s0,1.08-.22,1.23-1.95,1.81-1.24,3,1.17-.65,1.63-1,1.48-1.8,2.09-2,1.74-2.49,1.89-3.52a4,4,0,0,1,1.15-2c.26-.33-.57-2.9-.57-2.9l-3.15-1-1.1.72Z" transform="translate(-528 -242)"/><path class="cls-3" d="M630.31,424.42c-.66-1-1-.27-1.85.59a13.83,13.83,0,0,0-3.47,5.23c-1.41,4.13-.9,14.47-.43,15.94,0,0-13.13,2.15-14,2.11s1.13,6.43,1.13,6.43,21-.68,21.51-1.06.63-5.78.58-8.9C633.7,442.08,633.75,429.85,630.31,424.42Z" transform="translate(-528 -242)"/><path class="cls-42" d="M611.65,454.73s21-.68,21.51-1.06.63-5.78.58-8.9c0-2.19,0-10.78-1.88-16.8,1.47,5.1.7,23.13,0,24s-20.62,1.45-20.62,1.45Z" transform="translate(-528 -242)"/><path class="cls-43" d="M636.2,452.42a1.66,1.66,0,0,0-.93-1.23l-.37-.21a6,6,0,0,0-5.36.22l-11.17,6.45a2.26,2.26,0,0,0-1.31,1.69h0v2a1.6,1.6,0,0,0,.92,1.35l.37.21a6,6,0,0,0,5.35-.22l11.17-6.45a2.29,2.29,0,0,0,1.3-1.64h0v-2.12Z" transform="translate(-528 -242)"/><path class="cls-44" d="M618.36,461l-.37-.21c-1.37-.79-1.2-2.18.38-3.09l11.17-6.45a6,6,0,0,1,5.36-.22l.37.21c1.37.79,1.2,2.18-.38,3.09l-11.17,6.45A6,6,0,0,1,618.36,461Z" transform="translate(-528 -242)"/><path class="cls-42" d="M598.16,516a2.46,2.46,0,0,1-1.25-.33,3.12,3.12,0,0,1-1.37-2.87V482.64h1.3v30.14a2,2,0,0,0,.71,1.74,1.93,1.93,0,0,0,1.86-.25l25.09-14.48a7.26,7.26,0,0,0,3.23-5.59V464.07H629V494.2a8.44,8.44,0,0,1-3.88,6.72L600.06,515.4A3.8,3.8,0,0,1,598.16,516Z" transform="translate(-528 -242)"/><path class="cls-42" d="M534.07,480.31a2.46,2.46,0,0,1-1.25-.33,3.12,3.12,0,0,1-1.37-2.87V447h1.3v30.13a2,2,0,0,0,.71,1.74,1.93,1.93,0,0,0,1.86-.25l25.09-14.48a7.26,7.26,0,0,0,3.23-5.59V428.4h1.3v30.13a8.48,8.48,0,0,1-3.88,6.72L536,479.73A3.72,3.72,0,0,1,534.07,480.31Z" transform="translate(-528 -242)"/><path class="cls-42" d="M532.44,457.76l-.65,1.14,64.1,36.34.64-1.14Z" transform="translate(-528 -242)"/><path class="cls-45" d="M596.37,489.29,528,449.82l36.72-21.2,68.37,39.47Z" transform="translate(-528 -242)"/><path class="cls-46" d="M528,446.54v3.28l68.37,39.47,36.72-21.2v-3.27L596.37,486Z" transform="translate(-528 -242)"/><path class="cls-1" d="M596.37,486,528,446.54l36.72-21.2,68.37,39.48Z" transform="translate(-528 -242)"/><path class="cls-4" d="M600.38,455.27a11.2,11.2,0,0,0,4.64.6c2-.33,11.67-.52,11.67-.52l-1.52-.88-3.39-2.36-8.4.57-3.24,1.16Z" transform="translate(-528 -242)"/><path class="cls-35" d="M610.58,448.64a.13.13,0,0,0-.11-.09c-.67,0-5-.15-6.69-.72a8,8,0,0,0-3.78-.4c-.1.1-3.08,1.37-3.25,1.88a4.24,4.24,0,0,0,0,2.62,8.49,8.49,0,0,1,.58,1l.31,0a8.74,8.74,0,0,0,.63,1.07,1.63,1.63,0,0,1,.24.4c.19.41.52,1.08.66,1.09a7.46,7.46,0,0,0,1.36.14c.19-.05.36-.64.29-.89a.11.11,0,0,1,.09-.15,12.68,12.68,0,0,1,3.17-.07,11.91,11.91,0,0,0,4.94-1.21h0l2.74-.25a.13.13,0,0,0,.11-.16Z" transform="translate(-528 -242)"/><path class="cls-47" d="M630.31,424.42c-.66-1-1-.27-1.85.59a13.83,13.83,0,0,0-3.47,5.23c-1.41,4.13-.9,14.47-.43,15.94,0,0-13.13,2.15-14,2.11s1.13,6.43,1.13,6.43,21-.68,21.51-1.06.63-5.78.58-8.9C633.7,442.08,633.75,429.85,630.31,424.42Z" transform="translate(-528 -242)"/><path class="cls-33" d="M611.65,454.73s21-.68,21.51-1.06.63-5.78.58-8.9c0-2.19,0-10.78-1.88-16.8,1.47,5.1.7,23.13,0,24s-20.62,1.45-20.62,1.45Z" transform="translate(-528 -242)"/><path class="cls-48" d="M574.06,444s7.5-5.86,8.57-6.43a7.45,7.45,0,0,0,1.52-1l-2.51-1.45-4.24,1.75-5.35,5.3L563.82,448v1.36s6.79-2.92,7.55-3.41S574.06,444,574.06,444Z" transform="translate(-528 -242)"/><path class="cls-49" d="M569.58,449.29a14.8,14.8,0,0,1,2.63-1.9c1-.48,2.67-1.74,2.87-2.71a12.75,12.75,0,0,1,1.91-3.11l-2.73,1.58-4,2.29-6.59,3.82a1.13,1.13,0,0,0,1.24.18,29,29,0,0,1,3.13-1.37c.73-.09,1.94-.31,1.94-.31Z" transform="translate(-528 -242)"/><path class="cls-35" d="M570.44,438s-.08.53-1,1.05-3.25,1.67-3.62,2a22.32,22.32,0,0,0-2.11,2c-.05.19-.55,1.87-.55,2s.16.87.16.87l-.52,2.47s-.66,1,.06,1.22a.91.91,0,0,0,1.13-.59,11.89,11.89,0,0,0,1.88-1.13c.79-.62,4-3.18,4.52-3s0,1.08-.22,1.23-1.95,1.81-1.24,3,1.17-.65,1.63-1,1.48-1.8,2.09-2,1.74-2.49,1.89-3.52a4,4,0,0,1,1.15-2c.26-.33-.57-2.9-.57-2.9l-3.15-1-1.1.72Z" transform="translate(-528 -242)"/><path class="cls-50" d="M598.89,420.65a41.07,41.07,0,0,1,.68-8.3,6.53,6.53,0,0,0-.63.55,19.32,19.32,0,0,1-4.25,3.49c-2.83,1.53-11.32,6.24-11.32,6.24l-1.58,1.22c-5,3.91-10.55,12.4-11.36,14.09.39-.52,1.39-1.38,3.31-.35,2.65,1.41,1.39,3.52,1.39,3.52,3.85-2.76,13-12.93,13-12.93,2.26-.47,9.05-3,9.9-3.33A10.76,10.76,0,0,0,598.89,420.65Z" transform="translate(-528 -242)"/><path class="cls-1" d="M615.86,509.92a2.81,2.81,0,0,1-2.79-2.8V480.18a3.15,3.15,0,0,0-1.51-2.71L592.89,465.9a.93.93,0,1,1,1-1.58l18.67,11.57a5,5,0,0,1,2.39,4.29v26.95a.94.94,0,0,0,1.4.81l68.88-40.15a.93.93,0,0,1,.94,1.6l-68.88,40.15A2.87,2.87,0,0,1,615.86,509.92Z" transform="translate(-528 -242)"/><path class="cls-33" d="M558,454.79l27.46,15.86a1.15,1.15,0,0,0,1,0l16.39-9.46c.26-.15.23-.41-.07-.59l-27.47-15.86a1.15,1.15,0,0,0-1,0l-16.39,9.46C557.66,454.35,557.69,454.61,558,454.79Z" transform="translate(-528 -242)"/><path class="cls-51" d="M556.76,452.74l1.51.79,15.18-8.77a1.09,1.09,0,0,1,1,0l26.19,15.12c.25-.14,1.39-.69,1.39-.69l-.55,1.44a.34.34,0,0,1-.15.17l-16,9.23a1.09,1.09,0,0,1-1,0l-26.8-15.47a.45.45,0,0,1-.22-.24Z" transform="translate(-528 -242)"/><path class="cls-7" d="M557,453l27.46,15.86a1.15,1.15,0,0,0,1,0l16.39-9.46c.26-.15.23-.41-.07-.59L574.34,443a1.15,1.15,0,0,0-1,0l-16.39,9.46C556.66,452.55,556.7,452.81,557,453Z" transform="translate(-528 -242)"/><path class="cls-22" d="M566.53,450.83l18.6,10.74.88-.51-18.59-10.73Z" transform="translate(-528 -242)"/><path class="cls-4" d="M565.13,451.65,587,464.29l.88-.51L566,451.14Z" transform="translate(-528 -242)"/><path class="cls-4" d="M563.72,452.46l21.89,12.64.88-.51L564.6,452Z" transform="translate(-528 -242)"/><path class="cls-22" d="M562.31,453.27l21.89,12.64.89-.51-21.9-12.64Z" transform="translate(-528 -242)"/><path class="cls-4" d="M590.76,461.31l-21.18-12.23-.88.51,21,12.13.88.51.88-.51Z" transform="translate(-528 -242)"/><path class="cls-4" d="M584.06,461l4.38,2.53.88-.51-4.41-2.55Z" transform="translate(-528 -242)"/><path class="cls-52" d="M556.81,452.33l3.47-20.6-.28-.12.42-.24a.31.31,0,0,1,.32,0l27.74,16a.78.78,0,0,1,.36.7l-3.5,20.76a.25.25,0,0,1-.15.21l-.41.24-.07-.38h0L557.15,453A.8.8,0,0,1,556.81,452.33Z" transform="translate(-528 -242)"/><path class="cls-53" d="M588.33,448l.46-.2a.62.62,0,0,1,.06.34l-3.5,20.76a.25.25,0,0,1-.15.21l-.41.24-.07-.38h0l-1.4-.81Z" transform="translate(-528 -242)"/><path class="cls-54" d="M556.73,453.28l27.74,16c.21.12.4.05.44-.17l3.5-20.76a.77.77,0,0,0-.36-.7l-27.74-16c-.21-.12-.4,0-.44.17l-3.5,20.76A.78.78,0,0,0,556.73,453.28Z" transform="translate(-528 -242)"/><g class="cls-55"><path class="cls-4" d="M706.47,351.63c4.86-8.41,4.86-17.51,0-20.32s-12.74,1.75-17.6,10.16-4.86,17.52,0,20.32S701.61,360.05,706.47,351.63Z" transform="translate(-528 -242)"/><path class="cls-3" d="M699,361.23l4.36-7.22a20.83,20.83,0,0,0,3.57-5.91l4.81-8-5.94-3.41h0c-1.59-1-3.84-1-6.35.48-4.81,2.78-8.71,9.54-8.71,15.09,0,2.74.95,4.67,2.49,5.6l0,0,0,0Z" transform="translate(-528 -242)"/><path class="cls-22" d="M714,345.6c0,5.56-3.9,12.31-8.71,15.09s-8.71.53-8.71-5,3.9-12.31,8.71-15.09S714,340,714,345.6Z" transform="translate(-528 -242)"/><path class="cls-24" d="M711,347.33a12.65,12.65,0,0,1-5.73,9.92c-3.16,1.83-5.73.35-5.73-3.31a12.65,12.65,0,0,1,5.73-9.92C708.42,342.19,711,343.67,711,347.33Z" transform="translate(-528 -242)"/><path class="cls-56" d="M707.76,343.25a4.87,4.87,0,0,1,.77,2.85A12.65,12.65,0,0,1,702.8,356a5.2,5.2,0,0,1-2.51.77c1,1.41,2.84,1.68,5,.45a12.68,12.68,0,0,0,5.73-9.92C711,344.71,709.67,343.22,707.76,343.25Z" transform="translate(-528 -242)"/><path class="cls-24" d="M716.44,362.8a5.74,5.74,0,1,0-5.74-5.74A5.74,5.74,0,0,0,716.44,362.8Z" transform="translate(-528 -242)"/><g class="cls-55"><g class="cls-55"><g class="cls-55"><rect class="cls-57" x="149.92" y="88.15" width="37.2" height="30.96"/></g></g><rect class="cls-57" x="178" y="104.23" width="14.64" height="18"/><g class="cls-55"><g class="cls-55"><rect class="cls-57" x="183.52" y="107.35" width="37.2" height="31.2"/></g></g></g></g><path class="cls-58" d="M757.5,409.5,757,326H697v84.48c0,.22,11.19,6.35,11.5,6.52l16.67,9.75a4.17,4.17,0,0,0,2.83,0l14.75-8.24C743.07,418.34,757.5,410.5,757.5,409.5Z" transform="translate(-528 -242)"/><path class="cls-59" d="M722,384.51v-.23s0-.07,0-.1a.56.56,0,0,1,0-.08l.55-.8.12-.16.2-.14H723v3.71a.19.19,0,0,1,0,.08s0,0-.05.06l-.21.15h-.07v-3.31l-.56.83C722,384.59,722,384.59,722,384.51Z" transform="translate(-528 -242)"/><path class="cls-59" d="M740,360.51v-.23a.19.19,0,0,1,0-.1.24.24,0,0,1,.09-.08l1.1-.8.24-.16.4-.14H742v3.71a.12.12,0,0,1,0,.08.33.33,0,0,1-.1.06l-.42.15h-.14v-3.31l-1.13.83C740.05,360.59,740,360.59,740,360.51Z" transform="translate(-528 -242)"/><path class="cls-59" d="M713,353.13V353a.09.09,0,0,1,0-.07.15.15,0,0,1,.09-.06l1.1-.61.24-.11.4-.11H715v2.79a.07.07,0,0,1,0,0,.18.18,0,0,1-.1,0l-.42.12h-.14v-2.48l-1.13.62C713.05,353.19,713,353.19,713,353.13Z" transform="translate(-528 -242)"/><path class="cls-60" d="M701.25,389.44l-.5.39a.63.63,0,0,1-.26.15.48.48,0,0,1-.29,0c-.13-.08-.2-.26-.2-.58v-2.3a1.88,1.88,0,0,1,.2-.86,1.79,1.79,0,0,1,.55-.68l.5-.39a.63.63,0,0,1,.26-.15.48.48,0,0,1,.29,0c.13.08.2.27.2.58V388a2,2,0,0,1-.2.88A1.78,1.78,0,0,1,701.25,389.44Zm-.45-.07.4-.32a.81.81,0,0,0,.31-.37,1.15,1.15,0,0,0,.12-.53v-2.26c0-.38-.14-.46-.43-.26l-.4.32a.87.87,0,0,0-.32.36,1.37,1.37,0,0,0-.11.54v2.25C700.37,389.49,700.51,389.57,700.8,389.37Z" transform="translate(-528 -242)"/><path class="cls-60" d="M719.63,365.55l-.25.31a.34.34,0,0,1-.14.13.17.17,0,0,1-.14,0c-.07-.06-.1-.2-.1-.46v-1.84a2.44,2.44,0,0,1,.1-.69,1.31,1.31,0,0,1,.28-.54l.25-.31a.27.27,0,0,1,.13-.13.17.17,0,0,1,.14,0c.07.06.1.21.1.46v1.89a2.57,2.57,0,0,1-.1.7A1.44,1.44,0,0,1,719.63,365.55Zm-.23-.05.2-.26a.67.67,0,0,0,.16-.29,1.94,1.94,0,0,0,.06-.43v-1.81c0-.3-.08-.37-.22-.21l-.2.26a.61.61,0,0,0-.16.29,1.49,1.49,0,0,0-.06.43v1.8C719.18,365.59,719.26,365.66,719.4,365.5Z" transform="translate(-528 -242)"/><path class="cls-60" d="M721.25,301.67l-.5.23a1.14,1.14,0,0,1-.26.09h-.29a.33.33,0,0,1-.2-.35v-1.38a.81.81,0,0,1,.2-.52,1.53,1.53,0,0,1,.55-.41l.5-.23a1.14,1.14,0,0,1,.26-.09h.29a.33.33,0,0,1,.2.35v1.42a.81.81,0,0,1-.2.52A1.66,1.66,0,0,1,721.25,301.67Zm-.45-.05.4-.19a.65.65,0,0,0,.31-.22.47.47,0,0,0,.12-.32v-1.36c0-.22-.14-.28-.43-.15l-.4.19a.74.74,0,0,0-.32.22.52.52,0,0,0-.11.32v1.35C720.37,301.69,720.51,301.75,720.8,301.62Z" transform="translate(-528 -242)"/><path class="cls-59" d="M716,397.13V397a.21.21,0,0,1,0-.13l.56-.61.13-.1.2-.11H717v2.79l0,0s0,0,0,0l-.22.12h-.06v-2.49l-.57.62C716,397.18,716,397.19,716,397.13Z" transform="translate(-528 -242)"/><path class="cls-59" d="M735,373.76v-.13a.1.1,0,0,1,0-.08l.56-.41.13-.07.2-.07H736v1.86l0,0a.05.05,0,0,1,0,0l-.22.08h-.06v-1.66l-.57.42C735,373.79,735,373.8,735,373.76Z" transform="translate(-528 -242)"/><path class="cls-59" d="M707,365.76v-.12s0-.07.1-.09l1.13-.41a1.15,1.15,0,0,1,.24-.07l.41-.07H709v1.86l0,0a.14.14,0,0,1-.09,0l-.44.08h-.12v-1.66l-1.14.42C707.05,365.79,707,365.8,707,365.76Z" transform="translate(-528 -242)"/><path class="cls-59" d="M717,327.14V327a.21.21,0,0,1,0-.13l.56-.6a.45.45,0,0,1,.13-.11l.2-.11H718v2.78a.11.11,0,0,1,0,.06.08.08,0,0,1,0,0l-.22.12h-.06v-2.49l-.57.63Q717,327.22,717,327.14Z" transform="translate(-528 -242)"/><path class="cls-59" d="M736,309.76v-.12a.11.11,0,0,1,0-.09l.56-.41.13-.07.2-.07H737v1.86l0,0a.05.05,0,0,1,0,0l-.22.08h-.06v-1.66l-.57.42C736,309.79,736,309.8,736,309.76Z" transform="translate(-528 -242)"/><path class="cls-60" d="M735.63,388.45l-.25.37a.38.38,0,0,1-.14.16.12.12,0,0,1-.14,0,1.06,1.06,0,0,1-.1-.57V386.1a3.92,3.92,0,0,1,.1-.87,1.9,1.9,0,0,1,.28-.67l.25-.39a.33.33,0,0,1,.13-.15.12.12,0,0,1,.14,0,1,1,0,0,1,.1.58v2.29a3.35,3.35,0,0,1-.1.87A2.36,2.36,0,0,1,735.63,388.45Zm-.23-.09.21-.32a.87.87,0,0,0,.15-.36,2.26,2.26,0,0,0,.06-.53v-2.26c0-.39-.08-.48-.21-.26l-.21.32a1,1,0,0,0-.16.36,4.12,4.12,0,0,0-.06.52v2.27C735.18,388.49,735.26,388.58,735.4,388.36Z" transform="translate(-528 -242)"/><path class="cls-60" d="M754.26,364.56l-.51.3a.68.68,0,0,1-.26.12.71.71,0,0,1-.29,0c-.13-.05-.2-.21-.2-.45v-1.85a1.42,1.42,0,0,1,.2-.7,1.55,1.55,0,0,1,.55-.53l.51-.31a.67.67,0,0,1,.25-.13.71.71,0,0,1,.29,0c.13.06.2.2.2.46v1.83a1.3,1.3,0,0,1-.2.7A1.67,1.67,0,0,1,754.26,364.56Zm-.46-.07.41-.25a.75.75,0,0,0,.31-.3.79.79,0,0,0,.12-.42v-1.81c0-.31-.15-.38-.43-.2l-.41.25a.67.67,0,0,0-.31.29.79.79,0,0,0-.12.42v1.81C753.37,364.6,753.52,364.66,753.8,364.49Z" transform="translate(-528 -242)"/><path class="cls-60" d="M726.63,354.78l-.25.15a.35.35,0,0,1-.14.06h-.14c-.06,0-.1-.1-.1-.23v-.92a.74.74,0,0,1,.1-.35.81.81,0,0,1,.28-.27l.25-.15a.31.31,0,0,1,.13-.06h.14c.07,0,.1.1.1.23v.92a.64.64,0,0,1-.1.35A.87.87,0,0,1,726.63,354.78Zm-.23,0,.21-.12a.43.43,0,0,0,.15-.15.39.39,0,0,0,.06-.21v-.9c0-.16-.08-.19-.21-.11l-.21.13a.38.38,0,0,0-.16.15.66.66,0,0,0-.06.2v.91C726.18,354.8,726.26,354.83,726.4,354.74Z" transform="translate(-528 -242)"/><path class="cls-60" d="M753.89,333.56l-.76.3a1.27,1.27,0,0,1-.39.12,1,1,0,0,1-.43,0,.42.42,0,0,1-.31-.45v-1.85a1.06,1.06,0,0,1,.31-.7,2,2,0,0,1,.82-.53l.76-.31a1.14,1.14,0,0,1,.38-.13,1.47,1.47,0,0,1,.42,0,.41.41,0,0,1,.31.46v1.83a1,1,0,0,1-.31.7A2.23,2.23,0,0,1,753.89,333.56Zm-.7-.07.63-.25a1.19,1.19,0,0,0,.47-.3.64.64,0,0,0,.17-.42v-1.81c0-.31-.22-.38-.64-.2l-.63.25a1,1,0,0,0-.46.29.63.63,0,0,0-.17.42v1.81C752.56,333.6,752.78,333.66,753.19,333.49Z" transform="translate(-528 -242)"/><path class="cls-60" d="M752.63,396.56l-.25.3a.31.31,0,0,1-.14.12.12.12,0,0,1-.14,0,.68.68,0,0,1-.1-.45v-1.85a2.57,2.57,0,0,1,.1-.7,1.33,1.33,0,0,1,.28-.53l.25-.31a.32.32,0,0,1,.13-.13.17.17,0,0,1,.14,0c.07.06.1.2.1.46v1.83a2.19,2.19,0,0,1-.1.7A1.66,1.66,0,0,1,752.63,396.56Zm-.23-.07.21-.25a.7.7,0,0,0,.15-.3,1.42,1.42,0,0,0,.06-.42v-1.81c0-.31-.08-.38-.21-.2l-.21.25a.71.71,0,0,0-.16.29,2.65,2.65,0,0,0-.06.42v1.81C752.18,396.6,752.26,396.66,752.4,396.49Z" transform="translate(-528 -242)"/><path class="cls-59" d="M753,337.13V337c0-.05,0-.09.1-.13l1.12-.61a1.08,1.08,0,0,1,.24-.1l.4-.11H755v2.79a.07.07,0,0,1,0,0,.18.18,0,0,1-.1,0l-.43.12h-.13v-2.48l-1.13.62C753.05,337.19,753,337.2,753,337.13Z" transform="translate(-528 -242)"/><path class="cls-59" d="M756,303.13V303a.21.21,0,0,1,0-.13l.56-.61a.4.4,0,0,1,.12-.1l.2-.11H757v2.79a.08.08,0,0,1,0,0,.07.07,0,0,1-.05,0l-.22.12h-.06v-2.48l-.56.62C756,303.19,756,303.2,756,303.13Z" transform="translate(-528 -242)"/><path class="cls-61" d="M719,401.14V401a.19.19,0,0,1,0-.13l.56-.61.12-.11.2-.11H720v2.79a.08.08,0,0,1,0,0,.07.07,0,0,1-.05,0l-.22.12h-.06v-2.48l-.56.62Q719,401.22,719,401.14Z" transform="translate(-528 -242)"/><path class="cls-61" d="M716,366.14V366a.21.21,0,0,1,0-.13l.56-.61a.4.4,0,0,1,.12-.1l.2-.11H717v2.79a.08.08,0,0,1,0,0,.07.07,0,0,1-.05,0l-.22.12h-.06v-2.49l-.56.63C716,366.18,716,366.19,716,366.14Z" transform="translate(-528 -242)"/><path class="cls-61" d="M718.26,391.66l-.51.24a.8.8,0,0,1-.26.09.94.94,0,0,1-.29,0,.33.33,0,0,1-.2-.35v-1.38a.83.83,0,0,1,.2-.52,1.4,1.4,0,0,1,.55-.4l.51-.23a.69.69,0,0,1,.25-.1.94.94,0,0,1,.29,0,.34.34,0,0,1,.2.35v1.38a.79.79,0,0,1-.2.52A1.37,1.37,0,0,1,718.26,391.66Zm-.46,0,.41-.19a.73.73,0,0,0,.31-.22.47.47,0,0,0,.12-.32v-1.36c0-.22-.15-.27-.43-.15l-.41.19a.74.74,0,0,0-.32.22.52.52,0,0,0-.11.32v1.36C717.37,391.69,717.51,391.74,717.8,391.62Z" transform="translate(-528 -242)"/><path class="cls-61" d="M724,410.76v-.13a.1.1,0,0,1,0-.08l.56-.41.13-.07.2-.07H725v1.86l0,0a.05.05,0,0,1,0,0l-.22.08h-.06v-1.66l-.58.42C724,410.79,724,410.8,724,410.76Z" transform="translate(-528 -242)"/><path class="cls-61" d="M743,386.51v-.24a.37.37,0,0,1,0-.18l.56-.8a.64.64,0,0,1,.13-.15l.2-.14H744v3.71a.19.19,0,0,1,0,.08l0,.06-.22.15h-.06v-3.32l-.58.83C743,386.58,743,386.59,743,386.51Z" transform="translate(-528 -242)"/><path class="cls-61" d="M716,378.51v-.24a.37.37,0,0,1,0-.18l.56-.8a.64.64,0,0,1,.13-.15l.2-.14H717v3.71a.19.19,0,0,1,0,.08l0,.06-.22.15h-.06v-3.32l-.58.83C716,378.58,716,378.59,716,378.51Z" transform="translate(-528 -242)"/><path class="cls-61" d="M724,339.51v-.24a.37.37,0,0,1,0-.18l.56-.8a.64.64,0,0,1,.13-.15l.2-.14H725v3.71a.19.19,0,0,1,0,.08l0,.06-.22.15h-.06v-3.31l-.58.82C724,339.58,724,339.59,724,339.51Z" transform="translate(-528 -242)"/><path class="cls-61" d="M728.88,388.55l-.75.31a1.25,1.25,0,0,1-.4.13,1.48,1.48,0,0,1-.42,0,.41.41,0,0,1-.31-.46v-1.84a.94.94,0,0,1,.31-.69,2,2,0,0,1,.82-.54l.75-.3a1.15,1.15,0,0,1,.38-.14,1.24,1.24,0,0,1,.43,0,.43.43,0,0,1,.31.46v1.84a1.06,1.06,0,0,1-.31.7A2,2,0,0,1,728.88,388.55Zm-.69-.06.62-.25a1,1,0,0,0,.46-.29.58.58,0,0,0,.17-.43v-1.8c0-.31-.2-.38-.63-.21l-.62.25a1,1,0,0,0-.46.29.58.58,0,0,0-.17.43v1.81C727.56,388.59,727.76,388.66,728.19,388.49Z" transform="translate(-528 -242)"/><path class="cls-61" d="M747.88,335.44l-.75.39a.92.92,0,0,1-.4.15,1,1,0,0,1-.42,0c-.21-.08-.31-.26-.31-.57V333.1a1.32,1.32,0,0,1,.31-.86,2.11,2.11,0,0,1,.82-.68l.75-.38a1,1,0,0,1,.38-.16,1,1,0,0,1,.43,0,.55.55,0,0,1,.31.57v2.31a1.49,1.49,0,0,1-.31.87A2.13,2.13,0,0,1,747.88,335.44Zm-.69-.07.62-.32a1,1,0,0,0,.46-.36.82.82,0,0,0,.17-.53V331.9c0-.39-.2-.48-.63-.27l-.62.32a1.11,1.11,0,0,0-.46.36.82.82,0,0,0-.17.53v2.27C746.56,335.49,746.76,335.58,747.19,335.37Z" transform="translate(-528 -242)"/><path class="cls-61" d="M746.88,398.55l-.75.31a1.25,1.25,0,0,1-.4.13,1.48,1.48,0,0,1-.42,0,.41.41,0,0,1-.31-.46v-1.84a.94.94,0,0,1,.31-.69,2,2,0,0,1,.82-.54l.75-.3a1.15,1.15,0,0,1,.38-.14,1.24,1.24,0,0,1,.43,0,.43.43,0,0,1,.31.46v1.84a1.06,1.06,0,0,1-.31.7A2,2,0,0,1,746.88,398.55Zm-.69-.06.62-.25a1,1,0,0,0,.46-.29.58.58,0,0,0,.17-.43v-1.8c0-.31-.2-.38-.63-.21l-.62.25a1,1,0,0,0-.46.29.58.58,0,0,0-.17.43v1.81C745.56,398.59,745.76,398.66,746.19,398.49Z" transform="translate(-528 -242)"/><path class="cls-61" d="M753,385.13V385c0-.05,0-.09.12-.13l1.1-.61a.88.88,0,0,1,.26-.1l.4-.11H755v2.79a.09.09,0,0,1,0,0,.13.13,0,0,1-.09,0l-.44.12h-.14v-2.49l-1.13.62C753,385.18,753,385.18,753,385.13Z" transform="translate(-528 -242)"/><path class="cls-61" d="M720,307.75v-.12s0-.06.12-.08l1.1-.41.24-.07.4-.07H722v1.85s0,0,0,0l-.1,0-.42.08h-.14v-1.65l-1.13.41C720.05,307.79,720,307.79,720,307.75Z" transform="translate(-528 -242)"/><path class="cls-61" d="M718.63,354.67l-.25.23a.42.42,0,0,1-.14.09h-.14c-.07-.05-.1-.16-.1-.35v-1.37a1.32,1.32,0,0,1,.1-.53,1,1,0,0,1,.28-.41l.25-.22a.26.26,0,0,1,.13-.1h.14a.47.47,0,0,1,.1.35v1.38a1.42,1.42,0,0,1-.1.52A1.13,1.13,0,0,1,718.63,354.67Zm-.23-.05.2-.19a.47.47,0,0,0,.16-.22.79.79,0,0,0,.06-.32v-1.35c0-.23-.08-.29-.22-.16l-.2.19a.47.47,0,0,0-.16.22.79.79,0,0,0-.06.32v1.36c0,.22.08.28.23.15Z" transform="translate(-528 -242)"/><path class="cls-61" d="M749.26,347.67l-.52.22a.69.69,0,0,1-.25.1h-.28a.33.33,0,0,1-.21-.35v-1.38a.75.75,0,0,1,.21-.52,1.37,1.37,0,0,1,.53-.41l.52-.23a.88.88,0,0,1,.26-.09h.28a.33.33,0,0,1,.2.35v1.37a.83.83,0,0,1-.2.53A1.49,1.49,0,0,1,749.26,347.67Zm-.47-.06.42-.18a.73.73,0,0,0,.31-.22.51.51,0,0,0,.12-.32v-1.36c0-.23-.14-.28-.43-.15l-.42.19a.7.7,0,0,0-.31.22.56.56,0,0,0-.11.32v1.35C748.37,347.69,748.51,347.75,748.79,347.61Z" transform="translate(-528 -242)"/><path class="cls-61" d="M750.63,314.55l-.26.3a.24.24,0,0,1-.13.13.12.12,0,0,1-.14,0c-.07-.06-.1-.21-.1-.46v-1.84a2.57,2.57,0,0,1,.1-.7,1.46,1.46,0,0,1,.27-.53l.26-.31a.32.32,0,0,1,.13-.13.17.17,0,0,1,.14,0c.07.06.1.2.1.46v1.83a2.24,2.24,0,0,1-.1.7A1.6,1.6,0,0,1,750.63,314.55Zm-.23-.06.2-.26a.54.54,0,0,0,.16-.29,1.49,1.49,0,0,0,.06-.43v-1.8c0-.31-.07-.38-.22-.2l-.2.25a.67.67,0,0,0-.16.29,1.21,1.21,0,0,0,0,.43v1.8Q750.19,314.75,750.4,314.49Z" transform="translate(-528 -242)"/><path class="cls-61" d="M708.26,396.77l-.52.16a.91.91,0,0,1-.26.06h-.28a.22.22,0,0,1-.2-.23v-.92a.48.48,0,0,1,.2-.35,1.51,1.51,0,0,1,.54-.26l.52-.16a.91.91,0,0,1,.26-.06h.28a.23.23,0,0,1,.2.23v.93a.48.48,0,0,1-.2.35A1.8,1.8,0,0,1,708.26,396.77Zm-.47,0,.42-.13a.82.82,0,0,0,.31-.15.27.27,0,0,0,.12-.21v-.9c0-.15-.15-.19-.43-.11l-.39.11a.69.69,0,0,0-.31.15.28.28,0,0,0-.11.21v.9c0,.2.11.2.42.13Z" transform="translate(-528 -242)"/><path class="cls-61" d="M699.63,365.66l-.26.24a.38.38,0,0,1-.13.09h-.14c-.07-.05-.1-.16-.1-.35v-1.37a1.51,1.51,0,0,1,.1-.53,1,1,0,0,1,.27-.4l.26-.24a.38.38,0,0,1,.13-.09h.14c.07.05.1.17.1.35v1.39a1.56,1.56,0,0,1-.1.53A1,1,0,0,1,699.63,365.66Zm-.23,0,.2-.19a.52.52,0,0,0,.16-.22.87.87,0,0,0,.06-.32v-1.36c0-.22-.08-.27-.22-.15l-.19.15a.49.49,0,0,0-.15.23.79.79,0,0,0-.06.32v1.36c0,.29.06.29.21.18Z" transform="translate(-528 -242)"/><path class="cls-61" d="M708.88,326.78l-.76.15a2.25,2.25,0,0,1-.4.06h-.43c-.19,0-.29-.1-.29-.23v-.92c0-.12.1-.24.29-.35a3.37,3.37,0,0,1,.83-.27l.76-.15a2.25,2.25,0,0,1,.4-.06h.43c.19,0,.29.11.29.23v.93c0,.12-.1.24-.29.35A4.08,4.08,0,0,1,708.88,326.78Zm-.69,0,.62-.13a1.44,1.44,0,0,0,.47-.15.32.32,0,0,0,.18-.21v-.9c0-.15-.23-.19-.65-.11l-.58.11a1.24,1.24,0,0,0-.46.15c-.11.06-.17.13-.17.21v.9c0,.2.17.2.63.13Z" transform="translate(-528 -242)"/><path class="cls-62" d="M707.88,382.44l-.76.39a.93.93,0,0,1-.39.15,1,1,0,0,1-.42,0c-.21-.08-.31-.26-.31-.57V380.1a1.36,1.36,0,0,1,.31-.87,2.13,2.13,0,0,1,.81-.67l.76-.38a1.11,1.11,0,0,1,.39-.16,1.09,1.09,0,0,1,.44,0,.55.55,0,0,1,.29.57v2.3a1.51,1.51,0,0,1-.29.87A2.32,2.32,0,0,1,707.88,382.44Zm-.69-.07.62-.31a1.11,1.11,0,0,0,.48-.37.93.93,0,0,0,.17-.53v-2.27c0-.38-.21-.47-.65-.25l-.62.3a1.05,1.05,0,0,0-.46.37.86.86,0,0,0-.17.53v2.25C706.56,382.49,706.77,382.58,707.19,382.37Z" transform="translate(-528 -242)"/><path class="cls-62" d="M698.63,351.44l-.26.39a.28.28,0,0,1-.13.15.12.12,0,0,1-.14,0c-.07-.07-.1-.25-.1-.56V349.1a3.92,3.92,0,0,1,.1-.87,2.12,2.12,0,0,1,.27-.67l.26-.38a.36.36,0,0,1,.13-.16.12.12,0,0,1,.14,0,1,1,0,0,1,.1.57v2.3a4,4,0,0,1-.1.87A2.18,2.18,0,0,1,698.63,351.44Zm-.23-.07.2-.31a.91.91,0,0,0,.16-.37,2.2,2.2,0,0,0,.06-.53v-2.27c0-.38-.07-.47-.22-.25l-.2.3a1,1,0,0,0-.16.37,2.22,2.22,0,0,0,0,.53v2.25C698.19,351.49,698.26,351.58,698.4,351.37Z" transform="translate(-528 -242)"/><path class="cls-62" d="M735,355.52v-.24a.35.35,0,0,1,0-.18l.56-.8a1,1,0,0,1,.13-.16l.2-.14H736v3.71a.19.19,0,0,1,0,.08l0,.06-.22.15h-.06v-3.31l-.57.83Q735,355.63,735,355.52Z" transform="translate(-528 -242)"/><path class="cls-62" d="M707,347.52v-.24a.24.24,0,0,1,.1-.18l1.13-.8a1.43,1.43,0,0,1,.24-.16l.41-.14H709v3.71a.11.11,0,0,1,0,.08l-.09.06-.44.15h-.12v-3.31l-1.14.83C707.05,347.59,707,347.59,707,347.52Z" transform="translate(-528 -242)"/></svg>