<svg id="Слой_1" data-name="Слой 1" xmlns="http://www.w3.org/2000/svg" viewBox="0 0 54.99 55"><defs><style>.cls-1{fill:#426ab3;}</style></defs><title>project-page-3-blue</title><path class="cls-1" d="M656.84,367h8.25v4.7l-1.32-.88a.92.92,0,0,0-1.27.26.9.9,0,0,0,.25,1.26l2.75,1.84.1,0,.09,0a.86.86,0,0,0,.63,0l.2-.09,2.75-1.84a.92.92,0,0,0-1-1.52l-1.33.88V367H688a1.83,1.83,0,0,0,1.84-1.83v-2.75h1a.92.92,0,0,0,0-1.84h-1v-2.75A1.83,1.83,0,0,0,688,356H656.84a1.83,1.83,0,0,0-1.83,1.83v7.34A1.83,1.83,0,0,0,656.84,367Zm0-3.28a21.91,21.91,0,0,1,8.25-2.18v3.63h-8.25Zm14.8-1.39a24.47,24.47,0,0,0,5.37.94v1.9H666.92v-3.65A19.86,19.86,0,0,1,671.64,362.33Zm7.2,2.84v-1.84a15.54,15.54,0,0,0,5.38-1.12,28.88,28.88,0,0,1,3.79-1.1v4.06Zm9.16-7.34v1.4a31.67,31.67,0,0,0-4.38,1.24,13.57,13.57,0,0,1-4.78,1,22.78,22.78,0,0,1-6.72-.94,20.73,20.73,0,0,0-6.11-.89,22.83,22.83,0,0,0-9.17,2v-3.88Z" transform="translate(-655.01 -356)"/><path class="cls-1" d="M705.42,372.5a4.58,4.58,0,0,0-4.49,3.66h-1.19a13.2,13.2,0,0,0-10.64,5.42c-2.1,2.88-4.59,4.38-7.6,4.62l.85-1.28a.91.91,0,0,0-.26-1.26.92.92,0,0,0-1.27.24L679,386.65a.94.94,0,0,0,0,1l1.83,2.75a.92.92,0,0,0,1.53-1l-.91-1.37a11.94,11.94,0,0,0,9.14-5.37,11.34,11.34,0,0,1,9.16-4.66h1.19a4.56,4.56,0,0,0,3.34,3.5,1.61,1.61,0,0,1-.21.3.91.91,0,0,0,1.39,1.19,3.46,3.46,0,0,0,.76-1.41,4.57,4.57,0,0,0-.79-9.08Z" transform="translate(-655.01 -356)"/><path class="cls-1" d="M705.42,365.17a.92.92,0,0,0,.91-.92v-.92A2.78,2.78,0,0,0,706,362a.92.92,0,0,0-1.61.88,1,1,0,0,1,.11.44v.92A.92.92,0,0,0,705.42,365.17Z" transform="translate(-655.01 -356)"/><path class="cls-1" d="M696.38,362.42a.92.92,0,0,0,0-1.84h-1.83a.92.92,0,1,0,0,1.84Z" transform="translate(-655.01 -356)"/><path class="cls-1" d="M701.88,360.58h-1.83a.92.92,0,1,0,0,1.84h1.83a.92.92,0,0,0,0-1.84Z" transform="translate(-655.01 -356)"/><path class="cls-1" d="M701.91,367.41a.87.87,0,0,0-.14.68,1,1,0,0,0,.39.59l2.75,1.83,0,0,.1.05.06,0h0l.07,0a.85.85,0,0,0,.23,0h0a.91.91,0,0,0,.23,0l.07,0h0l.06,0,.09-.05,0,0,2.75-1.83a.92.92,0,0,0-1-1.53l-1.33.89v-.12a.92.92,0,1,0-1.83,0V368l-1.32-.89A.92.92,0,0,0,701.91,367.41Z" transform="translate(-655.01 -356)"/><path class="cls-1" d="M693.66,391.24a.89.89,0,0,0-.14.69,1,1,0,0,0,.39.58l2.75,1.83a.9.9,0,0,0,1,0l2.75-1.83a.92.92,0,0,0-1-1.53l-2.24,1.5-2.24-1.5A.92.92,0,0,0,693.66,391.24Z" transform="translate(-655.01 -356)"/><path class="cls-1" d="M658.23,394.94h0a11,11,0,0,0,6.84,3.16v7.38a2.75,2.75,0,0,0,2.75,2.75h12l-.88,1.33a.92.92,0,0,0-.06.92.91.91,0,0,0,.76.51.92.92,0,0,0,.83-.42l1.83-2.74.09-.2a.81.81,0,0,0,.06-.31h0a.85.85,0,0,0-.06-.31l0-.09,0-.1-1.83-2.75a.92.92,0,0,0-1.59.1.92.92,0,0,0,.06.92l.88,1.32h-12a.92.92,0,0,1-.92-.92v-7.38a11,11,0,1,0-8.7-3.19Zm7.78,1.39a9.08,9.08,0,0,1-5.8-2.08l6.18-6.17h8.74A9.19,9.19,0,0,1,666,396.33Zm9.12-10.08h-8.21V378A9.2,9.2,0,0,1,675.13,386.25Z" transform="translate(-655.01 -356)"/><path class="cls-1" d="M709.08,409.16c-1.43,0-2.47-2.31-3.58-4.76-1.62-3.59-3.64-8.07-8.33-8.07s-6.71,4.48-8.34,8.07c-.85,1.9-1.67,3.7-2.66,4.43V397.24a.92.92,0,0,0-1.83,0v12.84a.91.91,0,0,0,.91.91h23.83a.92.92,0,1,0,0-1.83Zm-18.58-4c1.42-3.12,2.88-6.33,5.75-6.9v.82a.92.92,0,0,0,1.84,0v-.82c2.87.57,4.33,3.78,5.74,6.9a22.57,22.57,0,0,0,2.13,4h-7.87v-.92a.92.92,0,0,0-1.84,0v.92h-7.87A22.52,22.52,0,0,0,690.5,405.16Z" transform="translate(-655.01 -356)"/><path class="cls-1" d="M697.17,405.49a.92.92,0,0,0,.92-.91v-1.84a.92.92,0,0,0-1.84,0v1.84A.92.92,0,0,0,697.17,405.49Z" transform="translate(-655.01 -356)"/><path class="cls-1" d="M700.45,386.72a.93.93,0,0,0,.61-.23,15.83,15.83,0,0,1,1.36-1.09.92.92,0,0,0-1.08-1.48c-.52.38-1,.78-1.51,1.21a.91.91,0,0,0-.24,1A.92.92,0,0,0,700.45,386.72Z" transform="translate(-655.01 -356)"/><path class="cls-1" d="M697.57,391.3a.91.91,0,0,0,.88-.67,8.4,8.4,0,0,1,.58-1.54.91.91,0,0,0,0-.93.89.89,0,0,0-.83-.41.91.91,0,0,0-.77.52,10.39,10.39,0,0,0-.71,1.88.92.92,0,0,0,.89,1.15Z" transform="translate(-655.01 -356)"/><path class="cls-1" d="M700,373.51l-5.34,1.61,2.56,1.57a.31.31,0,0,1,.12.38.3.3,0,0,1-.24.18h-.12l-4.73-1.17a.62.62,0,0,1-.52.64.69.69,0,0,1-.32,0,.7.7,0,0,1-.29.13.61.61,0,0,1-.69-.52s0,0,0-.06a.62.62,0,0,1-.4-.42l-6.79,1a.61.61,0,1,1-.81.67.63.63,0,0,1,.24-.58l-1.17.17c-.91.14-1.61.42-1.75-.48.31-1.41,2.44-2.55,3.34-2.68l5-.75,7.15-4.25.11,0a.31.31,0,0,1,.28.11.29.29,0,0,1,0,.39l-2.72,3.08,4.8-.71c.36-.88.78-1.9,1.22-3,1.24-3.13,2.11-1.5,2.17-1.08l.47,5.25c.06.42-.29.41-.71.47Z" transform="translate(-655.01 -356)"/></svg>