<svg id="Слой_1" data-name="Слой 1" xmlns="http://www.w3.org/2000/svg" xmlns:xlink="http://www.w3.org/1999/xlink" viewBox="0 0 60.75 47.99"><defs><style>.cls-1{fill:url(#Новый_образец_градиентной_залив);}.cls-2{fill:url(#Новый_образец_градиентной_залив-2);}</style><linearGradient id="Новый_образец_градиентной_залив" x1="652" y1="384.01" x2="700" y2="384.01" gradientUnits="userSpaceOnUse"><stop offset="0" stop-color="#f7bb62"/><stop offset="0.5" stop-color="#f47920"/><stop offset="1" stop-color="#e56102"/></linearGradient><linearGradient id="Новый_образец_градиентной_залив-2" x1="685.75" y1="393.61" x2="712.75" y2="393.61" xlink:href="#Новый_образец_градиентной_залив"/></defs><title>project-page-1</title><path class="cls-1" d="M652.49,407.94a.81.81,0,0,0,.31.06h46.39a.82.82,0,0,0,.74-.49.8.8,0,0,0-.18-.87l-1.15-.94a.79.79,0,0,0-1.12,0,.8.8,0,0,0,0,1.12l-.21-.43h-3.67v-1.6a.8.8,0,0,0-1.6,0v1.6h-1.6v-1.6a.8.8,0,1,0-1.6,0v1.6h-1.6v-1.6a.8.8,0,0,0-1.6,0v1.6H684v-1.6a.8.8,0,1,0-1.6,0v1.6h-1.6v-1.6a.8.8,0,1,0-1.6,0v1.6h-1.6v-1.6a.8.8,0,0,0-1.6,0v1.6H674.4v-1.6a.8.8,0,0,0-.81-.8.79.79,0,0,0-.79.8v1.6h-1.6v-1.6a.8.8,0,0,0-1.6,0v1.6H668v-1.6a.8.8,0,1,0-1.6,0v1.6h-1.6v-1.6a.8.8,0,1,0-1.6,0v1.6h-8.47l3.44-3.44a2.29,2.29,0,0,0,1,.24,2.39,2.39,0,0,0,2.39-2.31l8.49-2.65a2.39,2.39,0,0,0,4.16-2.27l2.63-2.19,1.13.61c6.09,3.3,4,1.57,7.75,3.21a.8.8,0,0,0,0-1.6c-2.86-1-2.39.14-7-3l-.57-.3,2.18-1.82a2.33,2.33,0,0,0,1.21.34,2.39,2.39,0,0,0,2.4-2.39,2.44,2.44,0,0,0-.28-1.12l6.54-7.08a2.39,2.39,0,0,0,2.52-4l4.73-11.81h.09a2.4,2.4,0,1,0-2.26-3.19c-15.82.29-21.58,10.86-26.66,20.2-1,1.9-2,3.73-3.07,5.42a46.83,46.83,0,0,0-12-1.62V384h1.6a.8.8,0,0,0,0-1.6h-1.6v-1.6h1.6a.8.8,0,0,0,0-1.6h-1.6v-1.6h1.6a.8.8,0,0,0,0-1.6h-1.6v-1.6h1.6a.8.8,0,0,0,0-1.6h-1.6v-1.6h1.6a.8.8,0,0,0,0-1.6h-1.6V368h1.6a.8.8,0,0,0,0-1.6h-1.6v-3.67l1.83,1.84a.81.81,0,0,0,1.12,0,.79.79,0,0,0,0-1.12l-3.19-3.2a.8.8,0,0,0-1.37.56V407.2A.82.82,0,0,0,652.49,407.94Zm20.72-13.19a2.43,2.43,0,0,0-1.21-.35,2.4,2.4,0,0,0-2.39,2.31l-8.5,2.66a2.39,2.39,0,0,0-4.07,2.46l-3.44,3.44v-7.71c5.94-.29,9.63-3.81,12.69-8.45a52.39,52.39,0,0,1,9.06,3.86Zm24.38-33.14a.8.8,0,1,1-.8.8A.8.8,0,0,1,697.59,361.61Zm-27.52,21c5.11-9.39,10.4-19.09,25.27-19.37a2.39,2.39,0,0,0,.67,1L691.29,376h-.1a2.4,2.4,0,0,0-2.4,2.4,2.27,2.27,0,0,0,.29,1.11l-6.54,7.08a2.39,2.39,0,0,0-3.19,3l-2.67,2.23a56.88,56.88,0,0,0-9.5-4.16C668.17,386.07,669.12,384.34,670.07,382.59Zm-5.39,6.06c-2.78,4.11-6,7-11.08,7.31V390.4h1.6a.8.8,0,1,0,0-1.59h-1.6v-1.59A45.5,45.5,0,0,1,664.68,388.65Z" transform="translate(-652 -360.01)"/><path class="cls-2" d="M712.51,385.57l-13.08-6.31a.38.38,0,0,0-.36,0L686,385.57a.42.42,0,0,0-.24.38v15.32a.42.42,0,0,0,.24.38L699.07,408a.43.43,0,0,0,.36,0l13.08-6.31a.42.42,0,0,0,.24-.38V386A.42.42,0,0,0,712.51,385.57Zm-13.26-5.46L711.36,386l-3.51,1.69-.07,0-12-5.8Zm-4.45,2.16,12.09,5.83-2.48,1.2-12.08-5.83Zm12.37,6.84v4.21L705,394.5V390ZM712,400.5,700,406V393l3-1.5c.21-.1-.11-.74-.21-.95a.42.42,0,0,0-.57-.19l-2.72,1.14-3.22-1.14c-.21-.11.29.35.19.56s-.77.09-.56.19l2.92,1.41v13.76L687,400.5V387l8.91,4.11a.41.41,0,0,0,.18.05.42.42,0,0,0,.19-.8L687.14,386l4.19-2L704,390h0v5.06a.42.42,0,0,0,.2.35.42.42,0,0,0,.41,0l3.16-1.53a.42.42,0,0,0,.23-.38V388.5l3.9-1.88Z" transform="translate(-652 -360.01)"/></svg>