<svg id="Слой_1" data-name="Слой 1" xmlns="http://www.w3.org/2000/svg" xmlns:xlink="http://www.w3.org/1999/xlink" viewBox="0 0 398.07 312"><defs><style>.cls-1,.cls-2,.cls-4{opacity:0.6;}.cls-12,.cls-14,.cls-2{fill:#bdbec5;}.cls-10,.cls-14,.cls-16,.cls-2,.cls-20,.cls-21,.cls-4,.cls-56,.cls-59,.cls-60{isolation:isolate;}.cls-3{fill:url(#Безымянный_градиент_39);}.cls-10,.cls-13,.cls-4,.cls-59{fill:#07306d;}.cls-5{fill:url(#Безымянный_градиент_39-2);}.cls-6{fill:#d6d6d6;}.cls-7{fill:url(#Безымянный_градиент_39-3);}.cls-8{fill:url(#Безымянный_градиент_39-4);}.cls-9{fill:url(#Безымянный_градиент_39-5);}.cls-10{opacity:0.4;}.cls-11{fill:url(#Безымянный_градиент_39-6);}.cls-14,.cls-20,.cls-56{opacity:0.5;}.cls-15{fill:#a5a5ab;}.cls-16,.cls-59{opacity:0.3;}.cls-16{fill:url(#Безымянный_градиент_7);}.cls-17{fill:#fff;}.cls-18,.cls-56{fill:#f0f1f1;}.cls-19{fill:url(#Безымянный_градиент_8);}.cls-20{fill:url(#Безымянный_градиент_9);}.cls-21{opacity:0.2;fill:url(#Безымянный_градиент_10);}.cls-22{fill:url(#Безымянный_градиент_39-7);}.cls-23{fill:url(#Безымянный_градиент_39-8);}.cls-24{fill:url(#Безымянный_градиент_39-9);}.cls-25{fill:url(#Безымянный_градиент_39-10);}.cls-26{fill:url(#Безымянный_градиент_39-11);}.cls-27{fill:#426ab3;}.cls-28{fill:#ed6f00;}.cls-29{fill:#ce7436;}.cls-30{opacity:0.7;}.cls-31{fill:none;}.cls-32{fill:url(#Безымянный_градиент_39-12);}.cls-33{fill:url(#Безымянный_градиент_38);}.cls-34{fill:url(#Безымянный_градиент_38-2);}.cls-35{fill:url(#Безымянный_градиент_39-13);}.cls-36{fill:url(#Безымянный_градиент_39-14);}.cls-37{fill:url(#Безымянный_градиент_39-15);}.cls-38{fill:url(#Безымянный_градиент_39-16);}.cls-39{fill:#515151;}.cls-40{fill:url(#Безымянный_градиент_39-17);}.cls-41,.cls-60{fill:#2d2d2d;}.cls-42{fill:url(#Безымянный_градиент_39-18);}.cls-43{fill:url(#Безымянный_градиент_39-19);}.cls-44{fill:url(#Безымянный_градиент_39-20);}.cls-45{fill:url(#Безымянный_градиент_39-21);}.cls-46{fill:url(#Безымянный_градиент_39-22);}.cls-47{fill:#f0f6ff;}.cls-48{fill:#c4ccd6;}.cls-49{fill:url(#Безымянный_градиент_39-23);}.cls-50{fill:#fcd1c5;}.cls-51{fill:#e2b1a6;}.cls-52{fill:#aa8383;}.cls-53{fill:#936d6d;}.cls-54{fill:url(#Безымянный_градиент_39-24);}.cls-55{fill:url(#Безымянный_градиент_39-25);}.cls-57{fill:url(#Безымянный_градиент_32);}.cls-58{fill:url(#Безымянный_градиент_39-26);}.cls-60{opacity:0.63;}.cls-61{fill:url(#Безымянный_градиент_39-27);}.cls-62{fill:#9f9c97;}.cls-63{fill:#ccc7bf;}.cls-64{fill:url(#Безымянный_градиент_39-28);}.cls-65{fill:url(#Безымянный_градиент_39-29);}.cls-66{fill:url(#Безымянный_градиент_39-30);}.cls-67{fill:url(#Безымянный_градиент_38-3);}.cls-68{fill:url(#Безымянный_градиент_39-31);}.cls-69{fill:#78a6ff;}.cls-70{fill:#1346c3;}.cls-71{fill:#4685ff;}.cls-72{fill:#7bd7ff;}.cls-73{fill:#e9e4db;}.cls-74{fill:#093d89;}</style><linearGradient id="Безымянный_градиент_39" x1="614.66" y1="326.19" x2="828.23" y2="522.93" gradientTransform="matrix(1, 0, 0, -1, 0, 770)" gradientUnits="userSpaceOnUse"><stop offset="0" stop-color="#4b79ce"/><stop offset="0.41" stop-color="#426ab3"/><stop offset="1" stop-color="#2b4a81"/></linearGradient><linearGradient id="Безымянный_градиент_39-2" x1="664.93" y1="356.37" x2="765.08" y2="528.14" xlink:href="#Безымянный_градиент_39"/><linearGradient id="Безымянный_градиент_39-3" x1="671.1" y1="370.9" x2="685.73" y2="383.08" xlink:href="#Безымянный_градиент_39"/><linearGradient id="Безымянный_градиент_39-4" x1="688.63" y1="388.46" x2="718.43" y2="412.93" xlink:href="#Безымянный_градиент_39"/><linearGradient id="Безымянный_градиент_39-5" x1="643.98" y1="380.33" x2="650.84" y2="386.21" xlink:href="#Безымянный_градиент_39"/><linearGradient id="Безымянный_градиент_39-6" x1="642.24" y1="427.14" x2="647.15" y2="429.16" xlink:href="#Безымянный_градиент_39"/><linearGradient id="Безымянный_градиент_7" x1="695.12" y1="381.1" x2="807.3" y2="494.19" gradientTransform="matrix(1, 0, 0, -1, 0, 770)" gradientUnits="userSpaceOnUse"><stop offset="0" stop-color="#30d2f5"/><stop offset="0.41" stop-color="#9eb7dd"/><stop offset="1" stop-color="#2b4a81"/></linearGradient><linearGradient id="Безымянный_градиент_8" x1="509.33" y1="382.89" x2="630.81" y2="382.89" gradientTransform="matrix(1, 0, 0, -1, 0, 770)" gradientUnits="userSpaceOnUse"><stop offset="0" stop-color="#f0f1f1"/><stop offset="0.25" stop-color="#e9e4db"/><stop offset="0.56" stop-color="#ccc7bf"/></linearGradient><linearGradient id="Безымянный_градиент_9" x1="587.16" y1="390.92" x2="572.52" y2="495.91" gradientTransform="matrix(1, 0, 0, -1, 0, 770)" gradientUnits="userSpaceOnUse"><stop offset="0" stop-color="#4c9cfa"/><stop offset="0.5" stop-color="#426ab3" stop-opacity="0.4"/><stop offset="0.99" stop-color="#fff" stop-opacity="0"/><stop offset="1" stop-color="#fff" stop-opacity="0"/></linearGradient><linearGradient id="Безымянный_градиент_10" x1="520.83" y1="432.13" x2="629.98" y2="432.13" gradientTransform="matrix(1, 0, 0, -1, 0, 770)" gradientUnits="userSpaceOnUse"><stop offset="0" stop-color="#b6cae9"/><stop offset="1" stop-color="#92bcef"/></linearGradient><linearGradient id="Безымянный_градиент_39-7" x1="526.28" y1="358.65" x2="593.6" y2="381.09" xlink:href="#Безымянный_градиент_39"/><linearGradient id="Безымянный_градиент_39-8" x1="526.3" y1="358.66" x2="593.61" y2="381.1" xlink:href="#Безымянный_градиент_39"/><linearGradient id="Безымянный_градиент_39-9" x1="541.53" y1="363.46" x2="544.95" y2="364.07" xlink:href="#Безымянный_градиент_39"/><linearGradient id="Безымянный_градиент_39-10" x1="554.17" y1="359.47" x2="557.69" y2="359.77" xlink:href="#Безымянный_градиент_39"/><linearGradient id="Безымянный_градиент_39-11" x1="537.83" y1="374.61" x2="539.69" y2="376.61" xlink:href="#Безымянный_градиент_39"/><linearGradient id="Безымянный_градиент_39-12" x1="759.65" y1="280.71" x2="766.18" y2="284.18" xlink:href="#Безымянный_градиент_39"/><linearGradient id="Безымянный_градиент_38" x1="772.82" y1="273.09" x2="730.56" y2="262.78" gradientTransform="matrix(1, 0, 0, -1, 0, 770)" gradientUnits="userSpaceOnUse"><stop offset="0" stop-color="#5761d7"/><stop offset="0.18" stop-color="#5c66d9"/><stop offset="0.39" stop-color="#6a73df"/><stop offset="0.61" stop-color="#8289e8"/><stop offset="0.85" stop-color="#a3a7f5"/><stop offset="1" stop-color="#bcbeff"/></linearGradient><linearGradient id="Безымянный_градиент_38-2" x1="767.86" y1="277.88" x2="756.92" y2="288.45" xlink:href="#Безымянный_градиент_38"/><linearGradient id="Безымянный_градиент_39-13" x1="756.69" y1="253.18" x2="808.75" y2="301.12" xlink:href="#Безымянный_градиент_39"/><linearGradient id="Безымянный_градиент_39-14" x1="771.77" y1="284.07" x2="778.46" y2="284.64" xlink:href="#Безымянный_градиент_39"/><linearGradient id="Безымянный_градиент_39-15" x1="746.46" y1="311.09" x2="768.95" y2="328.78" xlink:href="#Безымянный_градиент_39"/><linearGradient id="Безымянный_градиент_39-16" x1="747.4" y1="311.94" x2="767.07" y2="330.07" xlink:href="#Безымянный_градиент_39"/><linearGradient id="Безымянный_градиент_39-17" x1="741.65" y1="310.69" x2="828.5" y2="337.96" xlink:href="#Безымянный_градиент_39"/><linearGradient id="Безымянный_градиент_39-18" x1="766.16" y1="308.8" x2="818.73" y2="320.07" xlink:href="#Безымянный_градиент_39"/><linearGradient id="Безымянный_градиент_39-19" x1="740.68" y1="264.46" x2="763.21" y2="278.91" xlink:href="#Безымянный_градиент_39"/><linearGradient id="Безымянный_градиент_39-20" x1="759.93" y1="256.13" x2="780.65" y2="264.51" xlink:href="#Безымянный_градиент_39"/><linearGradient id="Безымянный_градиент_39-21" x1="740.93" y1="271.79" x2="802.82" y2="307.71" xlink:href="#Безымянный_градиент_39"/><linearGradient id="Безымянный_градиент_39-22" x1="737.84" y1="298.66" x2="820.47" y2="348.55" xlink:href="#Безымянный_градиент_39"/><linearGradient id="Безымянный_градиент_39-23" x1="765.73" y1="327.17" x2="775.72" y2="328.81" xlink:href="#Безымянный_градиент_39"/><linearGradient id="Безымянный_градиент_39-24" x1="780.41" y1="291.6" x2="802.9" y2="309.29" xlink:href="#Безымянный_градиент_39"/><linearGradient id="Безымянный_градиент_39-25" x1="781.34" y1="292.45" x2="801.01" y2="310.57" xlink:href="#Безымянный_градиент_39"/><radialGradient id="Безымянный_градиент_32" cx="6.39" cy="766.46" r="1" gradientTransform="matrix(89.5, 0, 0, -89.5, 110.68, 69062.37)" gradientUnits="userSpaceOnUse"><stop offset="0" stop-color="#e9e4db"/><stop offset="0.4" stop-color="#e9e4db"/><stop offset="0.55" stop-color="#ccc7bf"/><stop offset="0.73" stop-color="#ccc7bf"/><stop offset="1" stop-color="#ccc7bf"/></radialGradient><linearGradient id="Безымянный_градиент_39-26" x1="771.49" y1="307.96" x2="809.83" y2="323.5" xlink:href="#Безымянный_градиент_39"/><linearGradient id="Безымянный_градиент_39-27" x1="730.11" y1="320.71" x2="773.07" y2="343.86" xlink:href="#Безымянный_градиент_39"/><linearGradient id="Безымянный_градиент_39-28" x1="727.9" y1="292.37" x2="747.95" y2="310.83" xlink:href="#Безымянный_градиент_39"/><linearGradient id="Безымянный_градиент_39-29" x1="724.05" y1="287.75" x2="747.49" y2="309.33" xlink:href="#Безымянный_градиент_39"/><linearGradient id="Безымянный_градиент_39-30" x1="714.05" y1="296.97" x2="764.79" y2="319.73" xlink:href="#Безымянный_градиент_39"/><linearGradient id="Безымянный_градиент_38-3" x1="747.84" y1="295.71" x2="742.02" y2="295.71" xlink:href="#Безымянный_градиент_38"/><linearGradient id="Безымянный_градиент_39-31" x1="713.67" y1="296.7" x2="764.32" y2="319.56" xlink:href="#Безымянный_градиент_39"/></defs><title>project-item-4</title><g class="cls-1"><path class="cls-2" d="M847,446.36a4.19,4.19,0,0,1-2.12-.57l-85.69-49.48a4.23,4.23,0,1,1,4.24-7.32l85.69,49.47a4.24,4.24,0,0,1-2.12,7.9Z" transform="translate(-483 -228)"/></g><path class="cls-3" d="M679.83,441,577.44,381.9c-3-1.74-2.63-4.78.85-6.79L679,317c3.49-2,8.75-2.22,11.75-.49L793.13,375.6c3,1.73,2.64,4.77-.85,6.78l-100.7,58.14C688.1,442.52,682.84,442.74,679.83,441Z" transform="translate(-483 -228)"/><path class="cls-4" d="M679.83,441,577.44,381.9c-3-1.74-2.63-4.78.85-6.79L679,317c3.49-2,8.75-2.22,11.75-.49L793.13,375.6c3,1.73,2.64,4.77-.85,6.78l-100.7,58.14C688.1,442.52,682.84,442.74,679.83,441Z" transform="translate(-483 -228)"/><path class="cls-5" d="M577.43,381.88l2.67,1.55L679,326.35c3.49-2,8.75-2.22,11.75-.49l99.72,57.58,1.82-1.06c3.49-2,3.86-5.05.85-6.78L690.72,316.48c-3-1.73-8.28-1.52-11.75.49l-100.7,58.14C574.8,377.11,574.43,380.15,577.43,381.88Z" transform="translate(-483 -228)"/><path class="cls-4" d="M597.16,382l95.42-55.09-1.85-1.07c-3-1.73-8.28-1.52-11.75.49l-98.87,57.08L679.83,441c2.13,1.23,5.37,1.47,8.31.81l-91.83-53C593.3,387.06,593.68,384,597.16,382Z" transform="translate(-483 -228)"/><path class="cls-4" d="M690.74,316.47c-3-1.74-8.28-1.52-11.76.49L578.28,375.1c-3.48,2-3.85,5-.85,6.78l2.67,1.55L679,326.35c3.49-2,8.75-2.22,11.75-.49l1.85,1.07v-9.38Z" transform="translate(-483 -228)"/><path class="cls-6" d="M659.1,396.16c-1.27.73-1.2,2,.17,2.94l8,5.28a5,5,0,0,0,4.77.3c1.27-.73,1.19-2-.17-2.94l-8-5.29A5,5,0,0,0,659.1,396.16Z" transform="translate(-483 -228)"/><path class="cls-7" d="M670,391.14c-1.27.73-1.2,2.05.17,2.94l7,4.63a5,5,0,0,0,4.76.3c1.28-.74,1.2-2.06-.16-2.95l-7-4.63A5,5,0,0,0,670,391.14Z" transform="translate(-483 -228)"/><path class="cls-6" d="M671.93,380.31c-1.27.73-1.2,2,.17,2.94L687,393a5,5,0,0,0,4.76.3c1.27-.73,1.2-2-.17-2.94l-14.91-9.79A5,5,0,0,0,671.93,380.31Z" transform="translate(-483 -228)"/><path class="cls-6" d="M673.19,369c-1.27.73-1.2,2.05.17,2.94l23.49,15.43a5,5,0,0,0,4.77.29c1.27-.72,1.2-2-.17-2.94L678,369.29A5,5,0,0,0,673.19,369Z" transform="translate(-483 -228)"/><path class="cls-8" d="M685.5,364.92c-1.27.73-1.19,2.06.17,2.95l21,13.8a5,5,0,0,0,4.76.3c1.28-.73,1.2-2-.17-2.94l-21-13.81A5,5,0,0,0,685.5,364.92Z" transform="translate(-483 -228)"/><path class="cls-6" d="M679.65,348.94c-1.27.74-1.2,2.05.17,2.95L716.54,376a5,5,0,0,0,4.76.29c1.27-.73,1.2-2-.17-2.94l-36.72-24.11A5,5,0,0,0,679.65,348.94Z" transform="translate(-483 -228)"/><path class="cls-6" d="M656.08,391.39c1.33.88,1.41,2.17.16,2.89a4.9,4.9,0,0,1-4.68-.28c-1.34-.88-1.41-2.17-.16-2.89A4.9,4.9,0,0,1,656.08,391.39Z" transform="translate(-483 -228)"/><path class="cls-9" d="M648.51,386.43c1.33.87,1.41,2.17.16,2.89A4.9,4.9,0,0,1,644,389c-1.34-.88-1.41-2.17-.16-2.89A4.9,4.9,0,0,1,648.51,386.43Z" transform="translate(-483 -228)"/><path class="cls-10" d="M632.82,348.56a3.55,3.55,0,0,1-1.6,2.78c-.89.51-1.6.09-1.6-.92a3.55,3.55,0,0,1,1.6-2.78C632.11,347.13,632.82,347.55,632.82,348.56Z" transform="translate(-483 -228)"/><path class="cls-6" d="M639.14,344.92a3.51,3.51,0,0,1-1.6,2.77c-.89.51-1.6.1-1.6-.92a3.54,3.54,0,0,1,1.6-2.77C638.42,343.48,639.14,343.89,639.14,344.92Z" transform="translate(-483 -228)"/><path class="cls-11" d="M645.46,341.27a3.51,3.51,0,0,1-1.6,2.77c-.89.51-1.6.1-1.6-.92a3.54,3.54,0,0,1,1.6-2.77C644.74,339.84,645.46,340.25,645.46,341.27Z" transform="translate(-483 -228)"/><path class="cls-12" d="M799.24,350.61c-.33-.84-.71-1.68-1.13-2.51a27.69,27.69,0,0,1-2.87,8.65,21.3,21.3,0,0,1-.07,5.64l-3.32,1.19-9.13,9-12.17,6.26-14,4.89-16.41,2.92h-14l-16.54-3.05-19.06-4.77L675.25,368.2l-5.94-5.27a21.29,21.29,0,0,1-.29-3.47,57.27,57.27,0,0,1-3.44-9.88c-.2.43-.36.86-.52,1.29l-1.57-2.71V360l0,0c.31,9.91,7,19.77,20.11,27.33,26.84,15.5,70.36,15.5,97.2,0,13.47-7.78,20.17-18,20.1-28.2h0v-11Z" transform="translate(-483 -228)"/><path class="cls-13" d="M687.49,333.5c24.69-14.25,64.72-14.25,89.4,0,11.22,6.48,17.32,14.78,18.34,23.26a27.69,27.69,0,0,0,2.87-8.65,30.61,30.61,0,0,0-2.43-4l2-.17-9.79-17.13L759.2,313l-25.86-3.18-22.11,2.78-14,2.65-11.38,5.29-11.77,8.6-5.83,11.52-.73,5.22a28.28,28.28,0,0,0-1.93,3.69,58.43,58.43,0,0,0,3.44,9.88C668.92,350.08,675.07,340.67,687.49,333.5Z" transform="translate(-483 -228)"/><path class="cls-14" d="M732.2,389c34.91,0,63.21-16.34,63.21-36.5S767.11,316,732.2,316,669,332.31,669,352.47,697.29,389,732.2,389Z" transform="translate(-483 -228)"/><path class="cls-15" d="M780.85,319.9c-26.86-16.34-70.41-16.34-97.27,0s-26.86,42.8,0,59.14,70.41,16.34,97.27,0S807.71,336.23,780.85,319.9ZM777,376.66c-24.71,15-64.76,15-89.46,0s-24.71-39.38,0-54.4,64.76-15,89.46,0S801.66,361.64,777,376.66Z" transform="translate(-483 -228)"/><path class="cls-16" d="M687.49,329c-10.89,6.29-14.61,6.5-18.43,20.55-.34,7.46,5.94,20.09,16.83,26.38,32.1,17.35,67.27,14.25,92,0a34.66,34.66,0,0,0,17.3-24.41c-1.28-8.21-7.36-16.23-18.25-22.52C752.21,314.7,712.17,314.7,687.49,329Z" transform="translate(-483 -228)"/><path class="cls-12" d="M863.72,438.39a4.19,4.19,0,0,1-2.12-.57l-85.69-49.48a4.23,4.23,0,1,1,4.24-7.32l85.69,49.47a4.24,4.24,0,0,1-2.12,7.9Z" transform="translate(-483 -228)"/><path class="cls-4" d="M780.15,381a4.23,4.23,0,1,0-4.24,7.32l6.18,3.57s-2.25-5.68,4.41-7.23Z" transform="translate(-483 -228)"/><path class="cls-2" d="M571.13,509.4l-72.27-41.61c-1.26-.72-1.1-2,.35-2.83l75.56-43.77a5.44,5.44,0,0,1,4.91-.2L652,462.6c1.26.72,1.1,2-.35,2.82L576,509.2A5.52,5.52,0,0,1,571.13,509.4Z" transform="translate(-483 -228)"/><path class="cls-6" d="M652.8,440,584.44,404.3l-4.76,1.39c-1.26-.72-10.52-2.22-12-1.39l-58.38,32.49L498,442.68v5.14h0a1.43,1.43,0,0,0,.84,1.25l72.27,41.61a5.48,5.48,0,0,0,4.9-.2l75.57-43.78a2.11,2.11,0,0,0,1.19-1.49h0V440Z" transform="translate(-483 -228)"/><path class="cls-17" d="M651.6,440.77,576,484.55a5.45,5.45,0,0,1-4.9.2l-72.27-41.61a1.67,1.67,0,0,1-.78-.86,1.34,1.34,0,0,0,.78,1.62l72.27,41.61a5.48,5.48,0,0,0,4.9-.2l75.58-43.77c1-.56,1.36-1.32,1.12-2A2.42,2.42,0,0,1,651.6,440.77Z" transform="translate(-483 -228)"/><path class="cls-18" d="M644.06,502.87a8.89,8.89,0,0,1-4.95-1.51l-14-9.43a8.69,8.69,0,0,1-3.83-7.21V471.33a7.39,7.39,0,0,0-3.58-6.33l-35.78-21.47a.66.66,0,1,1,.68-1.12l35.77,21.47a8.73,8.73,0,0,1,4.23,7.46v13.39a7.35,7.35,0,0,0,3.25,6.12l14,9.43a7.54,7.54,0,0,0,8.24.13l108.76-68.52a9.94,9.94,0,0,1,10.22-.24l80.52,45.7a3.39,3.39,0,0,0,3.54-.12L878,459.48a3.93,3.93,0,0,0,1.76-3.26V446.17a3.91,3.91,0,0,0-2-3.4l-12.13-6.84a.66.66,0,0,1-.25-.89.65.65,0,0,1,.89-.25l12.13,6.83a5.24,5.24,0,0,1,2.65,4.54v10a5.25,5.25,0,0,1-2.34,4.36l-26.88,17.75a4.68,4.68,0,0,1-4.9.17L766.42,432.8a8.59,8.59,0,0,0-8.86.2L648.8,501.52A8.93,8.93,0,0,1,644.06,502.87Z" transform="translate(-483 -228)"/><path class="cls-4" d="M570.26,471.65,522,443.8c-1.76-1-1.54-2.8.5-4l51.13-29.59a7.68,7.68,0,0,1,6.89-.29l48.24,27.85c1.77,1,1.55,2.81-.49,4l-51.13,29.59A7.64,7.64,0,0,1,570.26,471.65Z" transform="translate(-483 -228)"/><path class="cls-19" d="M630,351.35l-12.64-5.61-38.65-20.65a7.65,7.65,0,0,0-6.89.29l-33.87,19.3-17.08,9.16v65.7h0a2,2,0,0,0,1.17,1.75l48.24,27.85a7.7,7.7,0,0,0,6.9-.29l51.13-29.59a3,3,0,0,0,1.67-2.11h0v-65.8Z" transform="translate(-483 -228)"/><path class="cls-10" d="M573.88,375.57a5,5,0,0,1-2.45-.57l-34.21-19.75a2.1,2.1,0,0,1-1.18-1.79,2.64,2.64,0,0,1,1.53-2.17l36.26-21a6.08,6.08,0,0,1,5.54-.2l34.21,19.76a2.08,2.08,0,0,1,1.17,1.78,2.65,2.65,0,0,1-1.52,2.17L577,374.8A6.31,6.31,0,0,1,573.88,375.57Zm3-44.74a5,5,0,0,0-2.44.6l-36.27,21c-.54.31-.87.71-.87,1s.33.55.52.66l34.21,19.76a4.79,4.79,0,0,0,4.24-.2l36.26-21c.54-.3.87-.71.87-1s-.33-.54-.52-.66l-34.21-19.76A3.59,3.59,0,0,0,576.92,330.83Z" transform="translate(-483 -228)"/><path class="cls-17" d="M628.29,352.46l-51.13,29.59a7.7,7.7,0,0,1-6.9.29L522,354.49a2.31,2.31,0,0,1-1.08-1.2,1.89,1.89,0,0,0,1.08,2.27l48.24,27.85a7.67,7.67,0,0,0,6.9-.29l51.13-29.59c1.37-.79,1.9-1.85,1.57-2.78A3.31,3.31,0,0,1,628.29,352.46Z" transform="translate(-483 -228)"/><path class="cls-20" d="M613.37,352.11V235.35h-76V353.84c0,.31,12.86,8.49,13.25,8.72l20.86,12.05a6.8,6.8,0,0,0,4.23,0l19.61-11.4C595.73,363,613.37,353.5,613.37,352.11Z" transform="translate(-483 -228)"/><path class="cls-18" d="M573.26,369.94a6.6,6.6,0,0,1-3.26-.76l-48.24-27.85a2.56,2.56,0,0,1-1.46-2.19,3.35,3.35,0,0,1,2-2.71l51.13-29.59a8.11,8.11,0,0,1,7.42-.29L629,334.4a2.56,2.56,0,0,1,1.46,2.19,3.36,3.36,0,0,1-2,2.71l-51.13,29.59A8.49,8.49,0,0,1,573.26,369.94Zm-2.73-1.67a7.19,7.19,0,0,0,6.37-.29L628,338.39c.91-.52,1.43-1.18,1.43-1.8a1.6,1.6,0,0,0-.93-1.27l-48.24-27.85a7.19,7.19,0,0,0-6.37.29l-51.13,29.59c-.91.52-1.43,1.18-1.43,1.8a1.58,1.58,0,0,0,.93,1.27Z" transform="translate(-483 -228)"/><path class="cls-21" d="M570.26,368.72,522,340.88c-1.76-1-1.54-2.81.5-4l51.13-29.59a7.68,7.68,0,0,1,6.89-.28l48.24,27.84c1.77,1,1.55,2.81-.49,4l-51.13,29.6A7.7,7.7,0,0,1,570.26,368.72Z" transform="translate(-483 -228)"/><path class="cls-22" d="M527.78,411.74l0-39.5c0-1.45,1.18-1.95,2.62-1.11L566.68,392a5.4,5.4,0,0,1,2.63,4.12l.05,39.51c0,1.45-1.17,1.95-2.61,1.11l-36.34-20.86A5.47,5.47,0,0,1,527.78,411.74Z" transform="translate(-483 -228)"/><path class="cls-10" d="M527.78,411.74l0-39.5c0-1.45,1.18-1.95,2.62-1.11L566.68,392a5.4,5.4,0,0,1,2.63,4.12l.05,39.51c0,1.45-1.17,1.95-2.61,1.11l-36.34-20.86A5.47,5.47,0,0,1,527.78,411.74Z" transform="translate(-483 -228)"/><path class="cls-23" d="M533.1,414a5.44,5.44,0,0,1-2.63-4.13l-.05-38.69-.06,0c-1.45-.84-2.63-.34-2.62,1.11l0,39.5a5.44,5.44,0,0,0,2.63,4.13l36.34,20.86c1.45.83,2.62.34,2.61-1.11v-.83Z" transform="translate(-483 -228)"/><path class="cls-18" d="M538.44,400.68c-.54-.32-1-.07-1,.57V405a2.19,2.19,0,0,0,1,1.7c.54.32,1,.06,1-.57v-3.72A2.18,2.18,0,0,0,538.44,400.68Z" transform="translate(-483 -228)"/><path class="cls-24" d="M542.66,403.58c-.54-.32-1-.07-1,.57v3.25a2.16,2.16,0,0,0,1,1.7c.54.31,1,.07,1-.57v-3.25A2.2,2.2,0,0,0,542.66,403.58Z" transform="translate(-483 -228)"/><path class="cls-18" d="M546.89,402.39c-.54-.32-1-.06-1,.57v6.89a2.19,2.19,0,0,0,1,1.7c.54.32,1,.06,1-.57V404.1A2.14,2.14,0,0,0,546.89,402.39Z" transform="translate(-483 -228)"/><path class="cls-18" d="M551.11,400.86c-.54-.32-1-.07-1,.57v10.85a2.18,2.18,0,0,0,1,1.71c.54.3,1,.06,1-.58V402.56A2.17,2.17,0,0,0,551.11,400.86Z" transform="translate(-483 -228)"/><path class="cls-25" d="M555.33,404.44c-.54-.32-1-.07-1,.57v9.72a2.16,2.16,0,0,0,1,1.7c.54.32,1,.07,1-.57v-9.72A2.16,2.16,0,0,0,555.33,404.44Z" transform="translate(-483 -228)"/><path class="cls-18" d="M559.56,399.62c-.54-.32-1-.07-1,.57v17a2.19,2.19,0,0,0,1,1.71c.54.31,1,.06,1-.57v-17A2.17,2.17,0,0,0,559.56,399.62Z" transform="translate(-483 -228)"/><path class="cls-18" d="M539.41,398.79c0,.62-.44.87-1,.56a2.11,2.11,0,0,1-1-1.68c0-.61.44-.87,1-.56A2.19,2.19,0,0,1,539.41,398.79Z" transform="translate(-483 -228)"/><path class="cls-26" d="M539.14,395.92c.38-.22.38-.93,0-1.59s-1-1-1.38-.79-.38.93,0,1.59S538.76,396.14,539.14,395.92Z" transform="translate(-483 -228)"/><path class="cls-10" d="M619.91,415.63,586.37,435c-1.09.63-2,0-2-1.49V392.56a4.69,4.69,0,0,1,2-3.76l33.54-19.37c1.09-.62,2,.05,2,1.5v40.94A4.68,4.68,0,0,1,619.91,415.63Z" transform="translate(-483 -228)"/><path class="cls-10" d="M619.92,369.44l-.51.3v40.75a4.69,4.69,0,0,1-2,3.76l-33,19.07v.18c0,1.45.88,2.12,2,1.49l33.54-19.36a4.71,4.71,0,0,0,2-3.76V370.93C621.89,369.48,621,368.81,619.92,369.44Z" transform="translate(-483 -228)"/><path class="cls-10" d="M612.91,397.35c0,6.43-4.51,14.25-10.08,17.46s-10.08.62-10.08-5.82,4.51-14.25,10.08-17.46S612.91,390.92,612.91,397.35Z" transform="translate(-483 -228)"/><path class="cls-27" d="M603.87,415.07l3.54-5.85a17.15,17.15,0,0,0,2.89-4.78l3.89-6.45-4.81-2.76c-1.3-.84-3.12-.79-5.15.39a15.61,15.61,0,0,0-7.06,12.23c0,2.22.77,3.78,2,4.53l0,0,0,0Z" transform="translate(-483 -228)"/><path class="cls-27" d="M616,402.4A15.61,15.61,0,0,1,609,414.63c-3.89,2.26-7.06.43-7.06-4.07A15.63,15.63,0,0,1,609,398.33C612.87,396.07,616,397.9,616,402.4Z" transform="translate(-483 -228)"/><path class="cls-28" d="M613.61,403.8a10.24,10.24,0,0,1-4.64,8c-2.56,1.48-4.64.27-4.64-2.68a10.25,10.25,0,0,1,4.64-8C611.52,399.64,613.61,400.84,613.61,403.8Z" transform="translate(-483 -228)"/><path class="cls-29" d="M611,400.5a4,4,0,0,1,.62,2.31,10.25,10.25,0,0,1-4.64,8,4.16,4.16,0,0,1-2,.63c.8,1.14,2.3,1.35,4,.37a10.26,10.26,0,0,0,4.64-8C613.61,401.68,612.54,400.48,611,400.5Z" transform="translate(-483 -228)"/><path class="cls-28" d="M618,416.34a4.65,4.65,0,1,0-4.64-4.65A4.65,4.65,0,0,0,618,416.34Z" transform="translate(-483 -228)"/><g class="cls-30"><g class="cls-30"><g class="cls-30"><rect class="cls-31" x="103.73" y="161.79" width="30.49" height="25.41"/></g></g><rect class="cls-31" x="126.6" y="175" width="11.94" height="14.48"/><g class="cls-30"><g class="cls-30"><rect class="cls-31" x="130.67" y="177.29" width="30.49" height="25.41"/></g></g></g><path class="cls-2" d="M767.82,539l-74.9-44.21c-2.44-1.45-2.14-4,.69-5.64L728,468.86c2.83-1.67,7.1-1.85,9.55-.41l74.9,44.22c2.45,1.44,2.14,4-.69,5.63l-34.39,20.31C774.54,540.29,770.27,540.47,767.82,539Z" transform="translate(-483 -228)"/><path class="cls-13" d="M772.12,516.56a2.33,2.33,0,1,1-2.33-2.33A2.32,2.32,0,0,1,772.12,516.56Z" transform="translate(-483 -228)"/><path class="cls-13" d="M795.11,490.5a2.33,2.33,0,1,1-2.33-2.33A2.33,2.33,0,0,1,795.11,490.5Z" transform="translate(-483 -228)"/><path class="cls-13" d="M797.8,510.64a2.33,2.33,0,1,0-2.33-2.32A2.32,2.32,0,0,0,797.8,510.64Z" transform="translate(-483 -228)"/><path class="cls-13" d="M747.38,506.24a2.33,2.33,0,1,0-2.33-2.33A2.33,2.33,0,0,0,747.38,506.24Z" transform="translate(-483 -228)"/><path class="cls-32" d="M764.14,488.14a2.33,2.33,0,1,1-2.33-2.32A2.33,2.33,0,0,1,764.14,488.14Z" transform="translate(-483 -228)"/><path class="cls-33" d="M773.11,496.8l-25.66,4.94-.31.05,0-.17-1.24-.3v1.45h0a.52.52,0,0,0,0,.17c.16.57,1.08.95,2.06.86l25.66-4.94Z" transform="translate(-483 -228)"/><path class="cls-13" d="M794.59,488l-.78.65a3,3,0,0,0-2.41.18l-18.27,8,2.56,1.47,18.28-8a1,1,0,0,0,.61-.86h0Z" transform="translate(-483 -228)"/><path class="cls-34" d="M763.54,486.22a2.57,2.57,0,0,0-2.44-.46l-.3.11a.8.8,0,0,0-.15-.21,3.52,3.52,0,0,0-.54-.38v1.45h0a.74.74,0,0,0,.19.44l11.79,10.77,3.22-.95Z" transform="translate(-483 -228)"/><path class="cls-13" d="M799.48,505.85l-.43.15-.24.52a1.66,1.66,0,0,0-.31-.12L775.35,497l-1.64,1.86,23.15,9.4a2.55,2.55,0,0,0,2.43-.45.71.71,0,0,0,.19-.49h0Z" transform="translate(-483 -228)"/><path class="cls-13" d="M772.1,498l-3.8,16.28-.28-.14v1.5h0c.05.47.66.89,1.52,1s1.92-.29,2.07-.87l4.06-17.4Z" transform="translate(-483 -228)"/><path class="cls-35" d="M798.49,505,777,496.22,794,488.86c.76-.44.83-1.11.18-1.49l-.18-.1a2.89,2.89,0,0,0-2.57.1l-16.94,7.37-10.93-10a2.57,2.57,0,0,0-2.44-.46c-.89.27-1.24.89-.79,1.41l10.93,10-23.79,4.58c-1,.1-1.66.62-1.5,1.2s1.08.95,2.06.86l23.8-4.58L768,513.91c-.16.57.52,1.1,1.5,1.19s1.92-.29,2.06-.87l3.77-16.14,21.47,8.72a2.58,2.58,0,0,0,2.43-.45C799.74,505.84,799.38,505.21,798.49,505Zm-23.76-8.69-.4.45-.87-.08-.14-.5.78-.23Z" transform="translate(-483 -228)"/><path class="cls-36" d="M774,497.59a1.88,1.88,0,0,1-1.88-1.88V474h3.75v21.67A1.88,1.88,0,0,1,774,497.59Z" transform="translate(-483 -228)"/><path class="cls-37" d="M764,448.3a1.8,1.8,0,0,0-1-1.3l-.39-.22A6.33,6.33,0,0,0,757,447l-11.82,6.83a2.41,2.41,0,0,0-1.39,1.79h0v2.06a1.7,1.7,0,0,0,1,1.43l.4.23a6.31,6.31,0,0,0,5.66-.24l11.83-6.83a2.41,2.41,0,0,0,1.37-1.73h0V448.3Z" transform="translate(-483 -228)"/><path class="cls-38" d="M745.15,457.35l-.39-.23c-1.46-.83-1.28-2.3.4-3.27L757,447a6.32,6.32,0,0,1,5.68-.23l.39.22c1.45.84,1.27,2.31-.4,3.27l-11.83,6.83A6.33,6.33,0,0,1,745.15,457.35Z" transform="translate(-483 -228)"/><path class="cls-39" d="M770.2,466.87l-24.78,14.3c-1.23.71-2.22,0-2.22-1.68a5.3,5.3,0,0,1,2.22-4.25l28.39-16.37V460C773.8,462.64,772.19,465.73,770.2,466.87Z" transform="translate(-483 -228)"/><path class="cls-40" d="M772,405.81a3.21,3.21,0,0,0-3.18.3l-.74.42c-2.74,1.58-5,5.83-5,9.48v49l6.58-3.8v1.56l-7.9,6.43-17.93,12,25.21,14.25,14.49-11.16,8.26-7.05L797,419.93Z" transform="translate(-483 -228)"/><path class="cls-41" d="M753.55,486.7a3.09,3.09,0,0,1,.66-3.1c1.32-1.32,8.29-4.25,8.8-4.57s3-2.16,3-2.16l.76-1.72s-14.16,1.38-14.34,1.6-6.63,6-6.44,6.25a37.91,37.91,0,0,0,4.44,1.28l.82,1.12Z" transform="translate(-483 -228)"/><path class="cls-42" d="M793.93,420.3l-.74.42c-2.74,1.58-5,5.82-5,9.48v49L770.5,489.43a5.34,5.34,0,0,0-2.22,4.24c0,1.64,1,2.4,2.22,1.69l24.78-14.3c2-1.15,3.61-4.23,3.61-6.89V424C798.9,420.39,796.68,418.71,793.93,420.3Z" transform="translate(-483 -228)"/><path class="cls-43" d="M746.84,497.32A33.23,33.23,0,0,0,742,501c-1.24,1.38-3.69,4.2-2.68,5.55s4.41,2.1,8.06-1.26,2.61-3.57,5.73-5.23,4-3.48,3.59-4.52-1.91-2.87-2.76-2.48S746.84,497.32,746.84,497.32Z" transform="translate(-483 -228)"/><path class="cls-44" d="M764.6,507.15a39.09,39.09,0,0,1-2,3.84c-.68,1-4,6.48-2.25,7.74s5,.92,7.52-1.86,3.13-6.17,3.76-7.28,2.2-4.08,1.46-5.8-.91-2-.91-2Z" transform="translate(-483 -228)"/><path class="cls-45" d="M751.34,466.08s-10.85,10.7-12.62,16.07a6,6,0,0,0,1.34,5.18c2.1,2.28,6.56,9.72,6.56,9.72s3.32,4,7.61.8c0,0,1.94-3.1.75-5.15s-4.36-8.64-4.36-8.64,7-4.79,10.39-6a48.21,48.21,0,0,0,5.26-2.14,16.5,16.5,0,0,1-3.13,6.39c-2.51,3.17-6.72,8.24-5.32,11.78a29.77,29.77,0,0,0,3.53,6.66c1.31,2,2.56,6.27,3.68,6.72s6.31.95,7.15-2.43-1.77-9.94-2.95-12.16c0,0,14-16.19,15.37-18S755.68,463.34,751.34,466.08Z" transform="translate(-483 -228)"/><path class="cls-13" d="M755,492.71c-1.19-2.07-4.36-8.64-4.36-8.64s7-4.79,10.39-6a48.21,48.21,0,0,0,5.26-2.14,36.09,36.09,0,0,0,3.74-7.15c-7.91-2.32-16.5-4.06-18.67-2.7.76,1.9,4.8,1.87,4.8,1.87s1.5,3.67,2.51,4.14,3.38,0,3.38,0a8.48,8.48,0,0,1-2.09,1.83c-1.71,1.23-12.38,10-12.38,10s.6.35,3.45,5.48a25.45,25.45,0,0,1,3.21,8.53S756.17,494.77,755,492.71Z" transform="translate(-483 -228)"/><path class="cls-4" d="M779,471.76c-6.27-.6-13.57-.65-11.93,2.64a10.53,10.53,0,0,0,8.4,5.84c0,2.05-8.64,12-8.64,12l2,3.9c2,3.89,1.76,11,1.76,11a3.18,3.18,0,0,0,1.63-2.06c.83-3.37-1.77-9.94-2.95-12.16,0,0,14-16.19,15.37-18C785,474.4,782.61,473.16,779,471.76Z" transform="translate(-483 -228)"/><path class="cls-46" d="M740.37,437.55l1.67-1.29s9-5,12-6.6a20.58,20.58,0,0,0,4.5-3.7A6.28,6.28,0,0,1,763,424l15.75-.07a34.24,34.24,0,0,0,2.46,3.52c.45.42,4.73,4,7.79,6.95a13.27,13.27,0,0,1,3.58,5.95c1.76,6.19,1.73,18.66,2,27.57a26.93,26.93,0,0,1-3.78,1c-2.68.57-2.35.21-2.35.21s-4,9-9.48,9.92-12.8-1.67-14.11-10.24c0,0-10.63-1.59-13.52-2.77a.44.44,0,0,1-.19-.67c1.28-1.7,6.08-8.32,6.53-12.63a70,70,0,0,0,0-14.19s-8,3-10.58,3.56c0,0-9.76,10.73-13.84,13.65,0,0,1.4-2.19-1.4-3.69Z" transform="translate(-483 -228)"/><path class="cls-4" d="M790.81,469c.42-.08.78-.17,1.11-.25l-.57-1.12L776.56,466l-8.64.44-3,2.83a14.9,14.9,0,0,0,.69,2.54A22.15,22.15,0,0,0,771,472c1.71-.36,14.87,1.57,14.89,1.58a31.08,31.08,0,0,0,2.53-4.39C788.44,469.27,788.6,469.44,790.81,469Z" transform="translate(-483 -228)"/><path class="cls-18" d="M770.85,463.79a.13.13,0,0,0-.11-.09c-.71,0-5.34-.16-7.09-.77a8.62,8.62,0,0,0-4-.42c-.1.11-3.26,1.45-3.44,2s-.47,2.16-.05,2.78a7.44,7.44,0,0,1,.61,1l.33,0a8.84,8.84,0,0,0,.67,1.13,1.79,1.79,0,0,1,.25.42c.2.44.55,1.15.7,1.16a7.48,7.48,0,0,0,1.44.14c.2-.05.38-.67.31-.94a.12.12,0,0,1,.09-.16,13.69,13.69,0,0,1,3.36-.07c2.05.19,5-1.15,5.23-1.28h0l2.9-.27a.13.13,0,0,0,.12-.17Z" transform="translate(-483 -228)"/><path class="cls-47" d="M767.36,433.24a38.8,38.8,0,0,0,.14,18.44S777,434,778,431.1s1.41-4.92.45-6-9.54,4.3-9.54,4.3Z" transform="translate(-483 -228)"/><path class="cls-48" d="M769.81,447.5s1.81-5.54,1.49-7.32a22.34,22.34,0,0,0-.76-3.06l1.63-1.5.72,1.49a35.47,35.47,0,0,0,3.83-3.12,29.3,29.3,0,0,1-3.8,2.27,2.58,2.58,0,0,0-1-.95c-.57-.24-2,1.7-2,1.7l-.26,3.35-1.42,7.84.5,1.16Z" transform="translate(-483 -228)"/><path class="cls-49" d="M771.91,435.31s-1.61-2.84-3.69-2c0,0-.34,3.5-.05,3.81a9.31,9.31,0,0,0-1.85,4.15,27.25,27.25,0,0,0,1.19,10.38l1.41-2.65a51.17,51.17,0,0,1,1.28-6.62,10.5,10.5,0,0,0,.1-5.42A15.75,15.75,0,0,0,771.91,435.31Z" transform="translate(-483 -228)"/><path class="cls-50" d="M762.92,418.74a11.42,11.42,0,0,0-.27,2.63c.16.42.72.7.58,1.56a15.91,15.91,0,0,0,.62,4.3s-.2.92.07,1.2.59.27.84.71.31,2.67,1.22,3.41a3.38,3.38,0,0,0,2.69.74,4.2,4.2,0,0,0,1.23-.63l1.37.58s7.06-2,6.84-7v-.53a6,6,0,0,0,.64-1.16c.15-.47,1.32-2.52.72-3.41,0,0,2.73-10.8-5.7-11.45S764.05,415,762.92,418.74Z" transform="translate(-483 -228)"/><path class="cls-51" d="M778.09,426.27v-.06a1.56,1.56,0,0,0-1-.3c-1,.17-.74-1.83-.74-1.83a18.16,18.16,0,0,0-.67,2.92c-.49,2.56-5.81,5.65-5.81,5.65l1.37.58S778.31,431.22,778.09,426.27Z" transform="translate(-483 -228)"/><path class="cls-52" d="M763,414.05c-.83,1.75-1.22,3.85.5,5.27,0,0,1.45.39,4.21-.89a6.42,6.42,0,0,1,4.72-.13,1.12,1.12,0,0,1,.76,1.1l0,1.53a1,1,0,0,0,.59.92l1.28.55.26,1.5a.72.72,0,0,0,1,.56l.33-.12s.19-3.32,2.93-3.15c0,0,2.23-4.81-.05-9.2s-8.51-4.08-9.85-3.58a9.13,9.13,0,0,0-2.51,1.17A10.48,10.48,0,0,0,763,414.05Z" transform="translate(-483 -228)"/><path class="cls-4" d="M785.41,447.92s-1.28,9.41-1.8,12.08l-4.13,2.18,7.33-.44Z" transform="translate(-483 -228)"/><path class="cls-53" d="M779.45,421.18a12.69,12.69,0,0,0,.93-3.86,10,10,0,0,1-7.22,2.07l0,1.53a1,1,0,0,0,.59.92l1.28.55.26,1.5a.72.72,0,0,0,1,.56l.33-.12S776.71,421,779.45,421.18Z" transform="translate(-483 -228)"/><path class="cls-4" d="M781.28,429.45s-2.18,7.5-2.63,8.94l-1.76-.19.32,2.37-9.47,12.49L778.26,441l-.42-2.12,1.6.17Z" transform="translate(-483 -228)"/><path class="cls-27" d="M772,470.23s22.2-.72,22.77-1.12.67-6.12.62-9.43c0-2.31,0-11.41-2-17.78,1.55,5.4.74,24.49,0,25.46s-21.84,1.54-21.84,1.54C771.81,469.68,772,470.23,772,470.23Z" transform="translate(-483 -228)"/><path class="cls-18" d="M728.35,452.48s-.08.56-1.05,1.11-3.44,1.76-3.83,2.11a23.67,23.67,0,0,0-2.23,2.12c0,.2-.58,2-.58,2.09s.17.92.17.92l-.56,2.61s-.69,1,.07,1.3a1,1,0,0,0,1.2-.63,12.59,12.59,0,0,0,2-1.2c.83-.65,4.21-3.36,4.78-3.19s0,1.14-.23,1.3-2.07,1.91-1.32,3.12,1.24-.69,1.73-1.07,1.57-1.9,2.21-2.09,1.85-2.64,2-3.73a4.22,4.22,0,0,1,1.21-2.15c.28-.35-.6-3.07-.6-3.07L730,451l-1.16.77Z" transform="translate(-483 -228)"/><path class="cls-27" d="M791.74,438.15c-.7-1.1-1-.29-2,.62a14.74,14.74,0,0,0-3.67,5.54c-1.49,4.37-1,15.32-.46,16.88,0,0-13.9,2.27-14.86,2.23s1.2,6.81,1.2,6.81,22.2-.72,22.77-1.12.67-6.12.62-9.43C795.33,456.84,795.38,443.9,791.74,438.15Z" transform="translate(-483 -228)"/><path class="cls-27" d="M772,470.23s22.2-.72,22.77-1.12.67-6.12.62-9.43c0-2.31,0-11.41-2-17.78,1.55,5.4.74,24.49,0,25.46s-21.84,1.54-21.84,1.54C771.81,469.68,772,470.23,772,470.23Z" transform="translate(-483 -228)"/><path class="cls-54" d="M798,467.79a1.76,1.76,0,0,0-1-1.3l-.4-.22a6.3,6.3,0,0,0-5.66.23l-11.83,6.83a2.39,2.39,0,0,0-1.38,1.79h0v2.07a1.69,1.69,0,0,0,1,1.43l.39.22a6.3,6.3,0,0,0,5.66-.23l11.83-6.83A2.43,2.43,0,0,0,798,470h0v-2.25Z" transform="translate(-483 -228)"/><path class="cls-55" d="M779.09,476.84l-.39-.22c-1.45-.84-1.27-2.31.4-3.28l11.83-6.83a6.34,6.34,0,0,1,5.66-.23l.39.22c1.45.84,1.28,2.31-.4,3.28l-11.82,6.82A6.33,6.33,0,0,1,779.09,476.84Z" transform="translate(-483 -228)"/><path class="cls-27" d="M757.69,535.08a2.63,2.63,0,0,1-1.32-.35,3.31,3.31,0,0,1-1.45-3v-31.9h1.38v31.9a2.07,2.07,0,0,0,.75,1.85,2,2,0,0,0,2-.27l26.56-15.33A7.69,7.69,0,0,0,789,512v-31.9h1.38V512a9,9,0,0,1-4.11,7.12L759.7,534.47A3.87,3.87,0,0,1,757.69,535.08Z" transform="translate(-483 -228)"/><path class="cls-27" d="M689.83,497.33a2.63,2.63,0,0,1-1.32-.35,3.32,3.32,0,0,1-1.45-3V462h1.38v31.9a1.62,1.62,0,0,0,2.72,1.57l26.56-15.33a7.69,7.69,0,0,0,3.42-5.92v-31.9h1.38v31.9a8.94,8.94,0,0,1-4.11,7.12l-26.56,15.33A4,4,0,0,1,689.83,497.33Z" transform="translate(-483 -228)"/><path class="cls-27" d="M688.12,473.45l-.68,1.2,67.86,38.48.68-1.2Z" transform="translate(-483 -228)"/><path class="cls-56" d="M755.81,506.83,683.42,465l38.87-22.43,72.4,41.79Z" transform="translate(-483 -228)"/><path class="cls-57" d="M683.42,461.57V465l72.39,41.8,38.88-22.44v-3.46l-38.88,22.44Z" transform="translate(-483 -228)"/><path class="cls-18" d="M755.81,503.37l-72.39-41.8,38.87-22.45,72.4,41.8Z" transform="translate(-483 -228)"/><path class="cls-10" d="M760.05,470.81a11.87,11.87,0,0,0,4.92.64c2.13-.35,12.35-.55,12.35-.55l-1.61-.93-3.59-2.5-8.89.6-3.43,1.23Z" transform="translate(-483 -228)"/><path class="cls-50" d="M770.85,463.79a.13.13,0,0,0-.11-.09c-.71,0-5.34-.16-7.09-.77a8.62,8.62,0,0,0-4-.42c-.1.11-3.26,1.45-3.44,2s-.47,2.16-.05,2.78a7.44,7.44,0,0,1,.61,1l.33,0a8.84,8.84,0,0,0,.67,1.13,1.79,1.79,0,0,1,.25.42c.2.44.55,1.15.7,1.16a7.48,7.48,0,0,0,1.44.14c.2-.05.38-.67.31-.94a.12.12,0,0,1,.09-.16,13.69,13.69,0,0,1,3.36-.07c2.05.19,5-1.15,5.23-1.28h0l2.9-.27a.13.13,0,0,0,.12-.17Z" transform="translate(-483 -228)"/><path class="cls-58" d="M791.74,438.15c-.7-1.1-1-.29-2,.62a14.74,14.74,0,0,0-3.67,5.54c-1.49,4.37-1,15.32-.46,16.88,0,0-13.9,2.27-14.86,2.23s1.2,6.81,1.2,6.81,22.2-.72,22.77-1.12.67-6.12.62-9.43C795.33,456.84,795.38,443.9,791.74,438.15Z" transform="translate(-483 -228)"/><path class="cls-4" d="M772,470.23s22.2-.72,22.77-1.12.67-6.12.62-9.43c0-2.31,0-11.41-2-17.78,1.55,5.4.74,24.49,0,25.46s-21.84,1.54-21.84,1.54C771.81,469.68,772,470.23,772,470.23Z" transform="translate(-483 -228)"/><path class="cls-59" d="M732.18,458.87s7.94-6.21,9.07-6.81a7.81,7.81,0,0,0,1.61-1.06l-2.66-1.53-4.49,1.85-5.66,5.61-8.72,6.19v1.43s7.19-3.09,8-3.6S732.18,458.87,732.18,458.87Z" transform="translate(-483 -228)"/><path class="cls-60" d="M727.44,464.48a16,16,0,0,1,2.79-2c1.09-.51,2.82-1.84,3-2.87a13.64,13.64,0,0,1,2-3.29L732.4,458l-4.2,2.42-7,4.05a1.19,1.19,0,0,0,1.31.19,31.29,31.29,0,0,1,3.31-1.45c.78-.1,2.06-.33,2.06-.33Z" transform="translate(-483 -228)"/><path class="cls-50" d="M728.35,452.48s-.08.56-1.05,1.11-3.44,1.76-3.83,2.11a23.67,23.67,0,0,0-2.23,2.12c-.06.2-.59,2-.59,2.09s.17.92.17.92l-.55,2.61s-.7,1,.07,1.3a1,1,0,0,0,1.19-.63,12.12,12.12,0,0,0,2-1.2c.84-.65,4.22-3.36,4.79-3.19s0,1.14-.23,1.3-2.07,1.91-1.32,3.12,1.24-.69,1.73-1.07,1.57-1.9,2.21-2.09,1.85-2.64,2-3.73a4.3,4.3,0,0,1,1.22-2.15c.28-.35-.6-3.07-.6-3.07L730,451l-1.16.77Z" transform="translate(-483 -228)"/><path class="cls-61" d="M758.47,434.16a43.26,43.26,0,0,1,.72-8.79,6.19,6.19,0,0,0-.67.58,20.58,20.58,0,0,1-4.5,3.7c-3,1.62-12,6.6-12,6.6l-1.67,1.29c-5.27,4.14-11.17,13.13-12,14.92.41-.55,1.47-1.46,3.51-.37,2.8,1.5,1.47,3.73,1.47,3.73,4.07-2.92,13.77-13.69,13.77-13.69,2.4-.5,9.59-3.19,10.49-3.53A11.48,11.48,0,0,0,758.47,434.16Z" transform="translate(-483 -228)"/><path class="cls-4" d="M715.17,470.3l29.08,16.8a1.21,1.21,0,0,0,1.08,0l17.35-10c.27-.16.24-.43-.07-.62l-29.08-16.79a1.25,1.25,0,0,0-1.08,0l-17.35,10C714.82,469.84,714.85,470.11,715.17,470.3Z" transform="translate(-483 -228)"/><path class="cls-62" d="M713.87,468.12l1.6.84,16.07-9.29a1.15,1.15,0,0,1,1.05.05l27.73,16c.26-.15,1.47-.74,1.47-.74l-.58,1.53a.38.38,0,0,1-.16.18l-16.93,9.77a1.15,1.15,0,0,1-1,0L714.7,470.05a.48.48,0,0,1-.24-.25Z" transform="translate(-483 -228)"/><path class="cls-63" d="M714.11,468.39l29.08,16.79a1.21,1.21,0,0,0,1.08,0l17.35-10c.28-.16.24-.44-.07-.63l-29.08-16.79a1.21,1.21,0,0,0-1.08,0l-17.35,10C713.76,467.93,713.79,468.21,714.11,468.39Z" transform="translate(-483 -228)"/><path class="cls-64" d="M724.21,466.11l19.69,11.37.94-.54-19.69-11.37Z" transform="translate(-483 -228)"/><path class="cls-10" d="M722.72,467l23.19,13.37.93-.53-23.19-13.38Z" transform="translate(-483 -228)"/><path class="cls-10" d="M721.24,467.84l23.17,13.38.94-.54L722.17,467.3Z" transform="translate(-483 -228)"/><path class="cls-65" d="M719.74,468.7l23.18,13.38.93-.54-23.17-13.39Z" transform="translate(-483 -228)"/><path class="cls-10" d="M749.86,477.21l-22.43-12.95-.93.54,22.26,12.84.93.54.94-.54Z" transform="translate(-483 -228)"/><path class="cls-10" d="M742.77,476.83l4.63,2.68.93-.55-4.67-2.7Z" transform="translate(-483 -228)"/><path class="cls-66" d="M713.91,467.7l3.68-21.81-.3-.13.44-.25a.3.3,0,0,1,.34,0l29.37,17a.82.82,0,0,1,.39.74l-3.71,22a.24.24,0,0,1-.16.22l-.43.26-.08-.4h0l-29.2-16.86A.87.87,0,0,1,713.91,467.7Z" transform="translate(-483 -228)"/><path class="cls-67" d="M747.3,463.09l.48-.21a.61.61,0,0,1,.07.36l-3.71,22a.24.24,0,0,1-.16.22l-.43.26-.08-.4h0l-1.48-.86Z" transform="translate(-483 -228)"/><path class="cls-68" d="M713.84,468.71l29.37,17c.22.12.42.05.46-.18l3.71-22a.83.83,0,0,0-.38-.75l-29.37-17c-.22-.12-.42-.05-.47.18l-3.7,22A.8.8,0,0,0,713.84,468.71Z" transform="translate(-483 -228)"/><path class="cls-69" d="M671.15,355.57l-.13-.06a.13.13,0,0,1-.07-.09l-.2-.59,0-.12v-.17l0,0,2,1.05,0,0a.09.09,0,0,1,0,.05v.18l0,0-1.75-.93.2.6C671.19,355.58,671.18,355.59,671.15,355.57Z" transform="translate(-483 -228)"/><path class="cls-69" d="M673.69,306.86l-.13-.07a.13.13,0,0,1-.07-.08l-.2-.59,0-.13v-.17l0,0,2,1.06s0,0,0,0a.06.06,0,0,1,0,0v.19l0,0-1.75-.94.2.6Q673.74,306.89,673.69,306.86Z" transform="translate(-483 -228)"/><path class="cls-70" d="M686.87,328.71l-.13-.06a.16.16,0,0,1-.07-.09l-.2-.59a.36.36,0,0,1,0-.11v-.17l0,0,2,1,0,0a.09.09,0,0,1,0,0V329l0,0-1.75-.94.19.61C686.91,328.72,686.91,328.74,686.87,328.71Z" transform="translate(-483 -228)"/><path class="cls-70" d="M718.32,366.93l-.17-.1a.24.24,0,0,1-.1-.1l-.34-.66a.69.69,0,0,1-.05-.13v-.19l0,0,2.62,1.4a.1.1,0,0,1,.05,0,.08.08,0,0,1,0,.05l0,.2,0,0L718,366.2l.34.68C718.38,366.93,718.38,367,718.32,366.93Z" transform="translate(-483 -228)"/><path class="cls-70" d="M671.25,319l-.13-.07a.27.27,0,0,1-.07-.08l-.19-.59a.27.27,0,0,1,0-.12V318l0,0,2,1.05a.05.05,0,0,1,0,0s0,0,0,0v.19l0,0-1.75-.93.2.6C671.3,319,671.29,319,671.25,319Z" transform="translate(-483 -228)"/><path class="cls-70" d="M696,355.88l-.17-.09a.35.35,0,0,1-.1-.11l-.34-.66a.69.69,0,0,1,0-.13l0-.18,0,0,2.61,1.39a.13.13,0,0,1,.06,0s0,0,0,0l0,.2,0,0-2.33-1.24.34.68C696.06,355.89,696.06,355.91,696,355.88Z" transform="translate(-483 -228)"/><path class="cls-70" d="M742,381.27l-.12-.07a.12.12,0,0,1-.05-.12l0-.95a.81.81,0,0,1,0-.2l.09-.3a.3.3,0,0,0,0-.08l2,1.05,0,0a.13.13,0,0,1,0,.08l-.09.33a.3.3,0,0,0,0,.08l-1.75-.94,0,1C742,381.25,742,381.29,742,381.27Z" transform="translate(-483 -228)"/><path class="cls-70" d="M684,302.14l-.17-.09a.24.24,0,0,1-.1-.1l-.34-.67a.29.29,0,0,1,0-.13l0-.18,0,0,2.61,1.39.06,0a.11.11,0,0,1,0,.05l0,.21,0,0-2.33-1.25.34.68C684.07,302.15,684.07,302.17,684,302.14Z" transform="translate(-483 -228)"/><path class="cls-69" d="M699.51,323.57V324a.41.41,0,0,1,0,.22.3.3,0,0,1-.52.14l-1.31-.69a1.21,1.21,0,0,1-.41-.4,1.09,1.09,0,0,1-.15-.56v-.43a.49.49,0,0,1,0-.21.76.76,0,0,1,.12-.19.4.4,0,0,1,.4,0l1.31.7a1,1,0,0,1,.41.39A1.16,1.16,0,0,1,699.51,323.57Zm-.24.27v-.37a.52.52,0,0,0-.08-.31.7.7,0,0,0-.25-.23l-1.28-.68c-.22-.12-.32-.05-.31.19v.37a.52.52,0,0,0,.08.31.62.62,0,0,0,.25.23L699,324C699.17,324.15,699.28,324.09,699.27,323.84Z" transform="translate(-483 -228)"/><path class="cls-69" d="M728.88,361.11l0,.4a.52.52,0,0,1,0,.21.71.71,0,0,1-.12.18.28.28,0,0,1-.33,0l-1-.52a.61.61,0,0,1-.28-.33.93.93,0,0,1-.07-.5l0-.41a.46.46,0,0,1,.05-.2.44.44,0,0,1,.12-.18.25.25,0,0,1,.32,0l1,.52a.61.61,0,0,1,.28.33A1,1,0,0,1,728.88,361.11Zm-.23.27,0-.34a.44.44,0,0,0,0-.28.41.41,0,0,0-.18-.19l-1-.51c-.16-.09-.25,0-.28.21l0,.34a.45.45,0,0,0,0,.28.35.35,0,0,0,.17.19l1,.52C728.53,361.68,728.63,361.61,728.65,361.38Z" transform="translate(-483 -228)"/><path class="cls-69" d="M709.88,378.62v.43a.41.41,0,0,1,0,.22.3.3,0,0,1-.52.14l-1.31-.7a1.06,1.06,0,0,1-.56-.95v-.43a.55.55,0,0,1,0-.22.71.71,0,0,1,.12-.18.4.4,0,0,1,.4,0l1.31.7a1,1,0,0,1,.41.39A1.13,1.13,0,0,1,709.88,378.62Zm-.24.26v-.36a.5.5,0,0,0-.08-.31.7.7,0,0,0-.25-.23L708,377.3c-.22-.12-.32-.05-.31.19v.36a.48.48,0,0,0,.08.31.58.58,0,0,0,.25.24l1.28.68C709.54,379.2,709.65,379.13,709.64,378.88Z" transform="translate(-483 -228)"/><path class="cls-69" d="M706.48,350v.43a.42.42,0,0,1,0,.22.36.36,0,0,1-.12.18.4.4,0,0,1-.4,0l-1.31-.7a1.1,1.1,0,0,1-.41-.39,1.16,1.16,0,0,1-.16-.56v-.43a.41.41,0,0,1,0-.22.44.44,0,0,1,.12-.18c.1-.07.23-.05.4,0l1.31.7a1,1,0,0,1,.41.39A1.21,1.21,0,0,1,706.48,350Zm-.24.26v-.36a.5.5,0,0,0-.08-.31.61.61,0,0,0-.25-.23l-1.28-.68c-.22-.12-.33-.06-.32.19v.36a.55.55,0,0,0,.07.31.61.61,0,0,0,.25.23l1.29.69C706.14,350.6,706.24,350.53,706.24,350.28Z" transform="translate(-483 -228)"/><path class="cls-69" d="M753.12,374.91v.43a.37.37,0,0,1,0,.21.62.62,0,0,1-.12.19.42.42,0,0,1-.41,0l-1.31-.7a1.18,1.18,0,0,1-.41-.39,1.15,1.15,0,0,1-.15-.56v-.43a.53.53,0,0,1,0-.22.46.46,0,0,1,.13-.18c.09-.07.22-.05.4,0l1.3.7a.91.91,0,0,1,.41.39A1.1,1.1,0,0,1,753.12,374.91Zm-.24.26v-.36a.68.68,0,0,0-.08-.31.64.64,0,0,0-.26-.23l-1.28-.68c-.22-.12-.32-.06-.31.19v.36a.48.48,0,0,0,.08.31.51.51,0,0,0,.25.23l1.28.69C752.78,375.49,752.89,375.42,752.88,375.17Z" transform="translate(-483 -228)"/><path class="cls-69" d="M686.17,356.46v.44a.38.38,0,0,1,0,.21.52.52,0,0,1-.11.19.42.42,0,0,1-.41,0l-1.31-.7a1.21,1.21,0,0,1-.41-.4,1.08,1.08,0,0,1-.15-.55v-.44a.5.5,0,0,1,0-.21.46.46,0,0,1,.13-.18c.09-.07.22-.06.39,0l1.31.69a.93.93,0,0,1,.41.4A1.1,1.1,0,0,1,686.17,356.46Zm-.24.27v-.36a.56.56,0,0,0-.09-.31.51.51,0,0,0-.25-.23l-1.28-.69c-.22-.11-.32-.05-.31.2v.36a.5.5,0,0,0,.08.31.62.62,0,0,0,.25.23l1.28.69C685.83,357,685.94,357,685.93,356.73Z" transform="translate(-483 -228)"/><path class="cls-69" d="M682.65,335.57l0,.41a.48.48,0,0,1,0,.2.76.76,0,0,1-.12.19.3.3,0,0,1-.33,0l-1-.52a.64.64,0,0,1-.28-.33,1,1,0,0,1-.06-.51l0-.4a.54.54,0,0,1,0-.21.63.63,0,0,1,.12-.18.27.27,0,0,1,.32,0l1,.52a.57.57,0,0,1,.28.33A.93.93,0,0,1,682.65,335.57Zm-.23.28,0-.34a.47.47,0,0,0,0-.29.32.32,0,0,0-.18-.18l-1-.52c-.16-.09-.25,0-.28.21l0,.34a.48.48,0,0,0,0,.29.39.39,0,0,0,.17.19l1,.51C682.3,336.15,682.4,336.08,682.42,335.85Z" transform="translate(-483 -228)"/><path class="cls-69" d="M735.85,374.55l-.13-.07a.16.16,0,0,1-.07-.09l-.19-.59a.21.21,0,0,1,0-.12v-.16l0,0,2,1,0,0a.06.06,0,0,1,0,0v.19l0,0-1.75-.93.2.59C735.9,374.54,735.89,374.57,735.85,374.55Z" transform="translate(-483 -228)"/><path class="cls-69" d="M727.57,351.12l-.17-.09a.26.26,0,0,1-.1-.11l-.34-.66a.35.35,0,0,1-.05-.13l0-.19,0,0,2.61,1.39.05,0,0,.05,0,.2,0,.05-2.34-1.25.35.68C727.63,351.12,727.62,351.15,727.57,351.12Z" transform="translate(-483 -228)"/><path class="cls-69" d="M708.38,368.53l-.13-.07a.22.22,0,0,1-.07-.09l-.19-.58a.27.27,0,0,1,0-.12v-.17l0,0,2,1.05a0,0,0,0,1,0,0,.06.06,0,0,1,0,0v.19l0,.05-1.75-.94.2.6S708.42,368.55,708.38,368.53Z" transform="translate(-483 -228)"/><path class="cls-69" d="M705,339.93l-.13-.07a.16.16,0,0,1-.07-.09l-.19-.58a.27.27,0,0,1,0-.12v-.17l0,0,2,1.05s0,0,0,0a.06.06,0,0,1,0,0v.19l0,0-1.75-.93.2.6C705,339.93,705,340,705,339.93Z" transform="translate(-483 -228)"/><path class="cls-69" d="M750.77,365.23l-.17-.1a.19.19,0,0,1-.1-.1l-.34-.66a.27.27,0,0,1,0-.13l0-.19,0,0,2.62,1.4a.1.1,0,0,1,0,0,.08.08,0,0,1,0,.05l0,.2,0,.05-2.34-1.25.35.67C750.83,365.23,750.82,365.26,750.77,365.23Z" transform="translate(-483 -228)"/><path class="cls-69" d="M684.26,347l-.13-.07a.16.16,0,0,1-.07-.09l-.19-.58a.27.27,0,0,1,0-.12V346a.11.11,0,0,1,0,0l2,1.05s0,0,0,0a.06.06,0,0,1,0,0v.19l0,0-1.75-.93.2.59C684.31,347,684.3,347,684.26,347Z" transform="translate(-483 -228)"/><path class="cls-69" d="M690.6,310.47l-.17-.09a.35.35,0,0,1-.1-.11l-.34-.66a.69.69,0,0,1,0-.13v-.19l0,0,2.62,1.4,0,0,0,.05,0,.2,0,.05-2.33-1.25.35.68C690.66,310.47,690.66,310.5,690.6,310.47Z" transform="translate(-483 -228)"/><path class="cls-69" d="M744.42,376.53l-.15-.08a.21.21,0,0,1-.1-.11l-.35-.66a.69.69,0,0,1-.05-.13l0-.19,0,0,2.63,1.4.05,0s0,0,0,.05v.2l0,0-2.35-1.25.35.67C744.48,376.53,744.47,376.55,744.42,376.53Z" transform="translate(-483 -228)"/><path class="cls-69" d="M693.11,342.59l-.12-.06a.16.16,0,0,1-.07-.09l-.2-.58a.5.5,0,0,1,0-.12v-.18l0,0,2,1.05a.08.08,0,0,1,0,0,.06.06,0,0,1,0,0v.18l0,.05-1.75-.94.19.6S693.14,342.61,693.11,342.59Z" transform="translate(-483 -228)"/><path class="cls-69" d="M717,370.51l-.15-.08a.21.21,0,0,1-.1-.11l-.35-.65a.43.43,0,0,1,0-.14l0-.19,0,0,2.62,1.4.05,0a.17.17,0,0,1,0,.05l0,.2,0,.05-2.34-1.25.34.67C717,370.51,717,370.54,717,370.51Z" transform="translate(-483 -228)"/><path class="cls-69" d="M679.92,321.08l-.12-.06a.18.18,0,0,1-.06-.09l-.2-.58a.28.28,0,0,1,0-.13v-.17l0,0,2,1.05,0,0a.09.09,0,0,1,0,.05v.18l0,.05-1.76-.94.2.59C680,321.08,680,321.1,679.92,321.08Z" transform="translate(-483 -228)"/><path class="cls-69" d="M748.69,379.67l-.13-.07,0,0s0,0,0-.05l-.2-.58,0-.12v-.17l0,0,2,1,0,0a.43.43,0,0,1,0,.05v.17l0,0-1.75-.94.2.6C748.74,379.68,748.73,379.7,748.69,379.67Z" transform="translate(-483 -228)"/><path class="cls-69" d="M671.87,337.53l-.18-.09a.12.12,0,0,1-.05-.05.1.1,0,0,1,0-.05l-.35-.66,0-.13,0-.19,0,0,2.62,1.4a.1.1,0,0,1,0,0,.07.07,0,0,1,0,.06l0,.19,0,0-2.34-1.24.35.67C671.92,337.54,671.92,337.56,671.87,337.53Z" transform="translate(-483 -228)"/><path class="cls-69" d="M718.24,344.41l-.13-.07,0,0,0-.05-.2-.59,0-.11v-.17l0-.05,2,1.05,0,0a.11.11,0,0,1,0,.05v.18l0,.05-1.76-.94.21.6C718.28,344.41,718.28,344.43,718.24,344.41Z" transform="translate(-483 -228)"/><path class="cls-69" d="M659,307l-.17-.09s-.05,0-.06-.05l0-.06-.35-.66,0-.13v-.18l0-.05,2.61,1.4,0,0a.07.07,0,0,1,0,.06l0,.19,0,0-2.34-1.25.35.68C659.08,307,659.08,307,659,307Z" transform="translate(-483 -228)"/><path class="cls-69" d="M697.52,351.5l-.13-.07a.08.08,0,0,1,0,0l0,0-.2-.59,0-.12v-.17l0,0,2,1.05,0,0a.09.09,0,0,1,0,.05v.18l0,.05-1.76-.94.21.6C697.56,351.5,697.56,351.52,697.52,351.5Z" transform="translate(-483 -228)"/><path class="cls-69" d="M694.18,330.71l-.17-.09a.1.1,0,0,1,0-.06.19.19,0,0,1,0-.08l-.12-1v-.21l.07-.32.05-.08,2.62,1.39a.1.1,0,0,1,.05.06.34.34,0,0,1,0,.09l-.06.32-.06.09-2.33-1.24.11,1C694.25,330.7,694.24,330.74,694.18,330.71Z" transform="translate(-483 -228)"/><path class="cls-69" d="M664.81,318.71v.44a.5.5,0,0,1,0,.21.57.57,0,0,1-.12.18c-.1.07-.23.06-.41,0l-1.31-.69a1,1,0,0,1-.4-.39,1.16,1.16,0,0,1-.16-.56v-.43a.41.41,0,0,1,0-.22.46.46,0,0,1,.13-.18.4.4,0,0,1,.4,0l1.31.69a1.21,1.21,0,0,1,.41.4A1.08,1.08,0,0,1,664.81,318.71Zm-.24.28v-.37a.52.52,0,0,0-.08-.31.61.61,0,0,0-.25-.23l-1.29-.69c-.21-.11-.31-.05-.32.2V318a.48.48,0,0,0,.08.31.61.61,0,0,0,.25.23l1.28.68C664.47,319.29,664.57,319.23,664.57,319Z" transform="translate(-483 -228)"/><path class="cls-69" d="M727.94,372.7v.44a.49.49,0,0,1,0,.21.62.62,0,0,1-.12.19c-.1.06-.23,0-.41-.05l-1.3-.69a1,1,0,0,1-.41-.39,1,1,0,0,1-.15-.56v-.43a.42.42,0,0,1,0-.22.36.36,0,0,1,.12-.18.4.4,0,0,1,.4,0l1.31.7a1.1,1.1,0,0,1,.41.39A1.08,1.08,0,0,1,727.94,372.7Zm-.23.28v-.36a.53.53,0,0,0-.08-.32.7.7,0,0,0-.25-.23l-1.28-.68c-.22-.12-.32-.05-.33.19V372a.6.6,0,0,0,.08.31.73.73,0,0,0,.26.23l1.27.68C727.6,373.28,727.71,373.22,727.71,373Z" transform="translate(-483 -228)"/><path class="cls-69" d="M680.07,326.34l0,.44a.49.49,0,0,1-.15.4c-.1.07-.23.05-.4,0l-1.31-.7a1,1,0,0,1-.4-.39,1,1,0,0,1-.16-.56v-.43a.55.55,0,0,1,0-.22.44.44,0,0,1,.12-.18.42.42,0,0,1,.41,0l1.3.7a1,1,0,0,1,.41.39A1.08,1.08,0,0,1,680.07,326.34Zm-.23.28v-.36a.61.61,0,0,0-.08-.32.73.73,0,0,0-.26-.23l-1.28-.68c-.21-.12-.32,0-.32.19v.37a.61.61,0,0,0,.09.31.7.7,0,0,0,.25.23l1.28.68C679.74,326.92,679.84,326.86,679.84,326.62Z" transform="translate(-483 -228)"/><path class="cls-69" d="M704.91,361.28v.44a.38.38,0,0,1,0,.21.44.44,0,0,1-.12.18c-.1.07-.23.05-.41,0l-1.3-.7a.91.91,0,0,1-.41-.39,1,1,0,0,1-.15-.55V360a.38.38,0,0,1,0-.21.44.44,0,0,1,.12-.19.4.4,0,0,1,.4,0l1.31.7a1.12,1.12,0,0,1,.41.4A1.08,1.08,0,0,1,704.91,361.28Zm-.23.27v-.36a.48.48,0,0,0-.08-.31.56.56,0,0,0-.25-.23l-1.28-.69c-.22-.11-.32,0-.32.2v.36a.58.58,0,0,0,.08.31.73.73,0,0,0,.26.23l1.27.68C704.57,361.86,704.68,361.79,704.68,361.55Z" transform="translate(-483 -228)"/><path class="cls-69" d="M688.75,318v.44a.5.5,0,0,1,0,.21.57.57,0,0,1-.12.18c-.1.07-.23,0-.41,0l-1.3-.7a.91.91,0,0,1-.41-.39,1,1,0,0,1-.15-.55v-.44a.4.4,0,0,1,.14-.4.4.4,0,0,1,.4,0l1.31.7a1.18,1.18,0,0,1,.41.39A1.15,1.15,0,0,1,688.75,318Zm-.24.27v-.36a.48.48,0,0,0-.08-.31.64.64,0,0,0-.25-.24l-1.28-.68c-.22-.11-.32-.05-.33.2v.36a.5.5,0,0,0,.08.31.79.79,0,0,0,.25.23l1.28.68C688.41,318.6,688.52,318.53,688.51,318.29Z" transform="translate(-483 -228)"/><path class="cls-69" d="M684.19,368.37v.44a.5.5,0,0,1,0,.21.57.57,0,0,1-.12.18c-.1.07-.23.06-.41,0l-1.3-.7a.91.91,0,0,1-.41-.39,1,1,0,0,1-.15-.55v-.44a.37.37,0,0,1,0-.21.39.39,0,0,1,.12-.19.4.4,0,0,1,.4,0l1.31.7a1.12,1.12,0,0,1,.41.4A1.08,1.08,0,0,1,684.19,368.37Zm-.23.27v-.36a.48.48,0,0,0-.08-.31.56.56,0,0,0-.25-.23l-1.28-.69c-.22-.11-.32-.05-.33.2v.36a.58.58,0,0,0,.08.31.73.73,0,0,0,.26.23l1.27.68C683.85,369,684,368.88,684,368.64Z" transform="translate(-483 -228)"/><path class="cls-69" d="M681.71,347.17v.44a.38.38,0,0,1,0,.21.44.44,0,0,1-.12.18c-.1.07-.23.06-.41,0l-1.3-.69a1,1,0,0,1-.41-.39,1,1,0,0,1-.15-.56v-.43a.41.41,0,0,1,0-.22.36.36,0,0,1,.12-.18.39.39,0,0,1,.41,0l1.3.69a1.21,1.21,0,0,1,.41.4A1.08,1.08,0,0,1,681.71,347.17Zm-.23.27v-.36a.5.5,0,0,0-.08-.31.56.56,0,0,0-.25-.23l-1.28-.69c-.22-.11-.32-.05-.32.2v.36a.65.65,0,0,0,.08.31.58.58,0,0,0,.26.23l1.27.68C681.37,347.75,681.48,347.69,681.48,347.44Z" transform="translate(-483 -228)"/><path class="cls-71" d="M569.13,331.51v-.22a.29.29,0,0,1,0-.09l.07-.07.76-.77.17-.15.27-.14h.1v3.55a.11.11,0,0,1,0,.07.18.18,0,0,1-.07.05l-.29.15H570v-3.15l-.79.79C569.17,331.59,569.13,331.59,569.13,331.51Z" transform="translate(-483 -228)"/><path class="cls-71" d="M593.07,305.14v-.22a.29.29,0,0,1,0-.09.35.35,0,0,1,0-.08l.57-.76.12-.15.21-.14h.07v3.55a.1.1,0,0,1,0,.07l-.05.05-.21.15h-.08v-3.15l-.58.78C593.1,305.22,593.07,305.22,593.07,305.14Z" transform="translate(-483 -228)"/><path class="cls-71" d="M558.72,295.78v-.23a.29.29,0,0,1,0-.09.18.18,0,0,1,0-.07l.57-.77.12-.15.21-.14h.07v3.55a.1.1,0,0,1,0,.07.12.12,0,0,1,0,.05l-.22.15h-.07V295l-.59.79C558.75,295.85,558.72,295.85,558.72,295.78Z" transform="translate(-483 -228)"/><path class="cls-72" d="M543.37,336.9l-.52.32a1,1,0,0,1-.27.13.76.76,0,0,1-.3,0c-.15-.06-.21-.21-.21-.48v-1.92a1.28,1.28,0,0,1,.21-.71,1.56,1.56,0,0,1,.57-.57l.52-.32a.68.68,0,0,1,.27-.13.61.61,0,0,1,.3,0c.14.06.21.22.21.47v2a1.32,1.32,0,0,1-.21.73A1.74,1.74,0,0,1,543.37,336.9Zm-.47-.07.42-.26a.74.74,0,0,0,.32-.31.83.83,0,0,0,.12-.44v-1.89c0-.31-.14-.38-.44-.21l-.42.27a.74.74,0,0,0-.33.3.86.86,0,0,0-.12.44v1.88C542.45,336.94,542.6,337,542.9,336.83Z" transform="translate(-483 -228)"/><path class="cls-72" d="M567.31,310.18l-.52.32a.68.68,0,0,1-.27.13.61.61,0,0,1-.3,0c-.14-.06-.21-.21-.21-.47v-1.92a1.29,1.29,0,0,1,.21-.72,1.64,1.64,0,0,1,.57-.57l.52-.32a.68.68,0,0,1,.27-.13.61.61,0,0,1,.3,0c.14.06.21.22.21.47v2a1.32,1.32,0,0,1-.21.73A1.55,1.55,0,0,1,567.31,310.18Zm-.47-.06.42-.27a.74.74,0,0,0,.33-.3,1,1,0,0,0,.12-.44v-1.89c0-.32-.15-.39-.45-.22l-.42.27a.74.74,0,0,0-.33.3.89.89,0,0,0-.12.45v1.87C566.39,310.22,566.54,310.29,566.84,310.12Z" transform="translate(-483 -228)"/><path class="cls-72" d="M568.57,238.7,568,239a.7.7,0,0,1-.32.13.78.78,0,0,1-.34,0c-.17-.06-.25-.21-.25-.47v-1.92a1.19,1.19,0,0,1,.25-.72,1.74,1.74,0,0,1,.66-.57l.61-.32a1.07,1.07,0,0,1,.31-.13,1,1,0,0,1,.35,0c.17.06.25.22.25.48v2a1.19,1.19,0,0,1-.25.72A1.75,1.75,0,0,1,568.57,238.7Zm-.55-.06.49-.26a.9.9,0,0,0,.38-.31.79.79,0,0,0,.14-.44v-1.89c0-.32-.17-.39-.52-.21l-.49.26a.88.88,0,0,0-.38.3.82.82,0,0,0-.14.45v1.88C567.5,238.74,567.67,238.81,568,238.64Z" transform="translate(-483 -228)"/><path class="cls-71" d="M561.85,346.09v-.23a.23.23,0,0,1,.07-.17l.78-.77a.61.61,0,0,1,.17-.14l.28-.13h.08v3.54a.08.08,0,0,1,0,.07s0,0-.06.06l-.31.14h-.08V345.3l-.79.79C561.88,346.15,561.85,346.17,561.85,346.09Z" transform="translate(-483 -228)"/><path class="cls-71" d="M585.79,319.59v-.21a.21.21,0,0,1,.07-.15l.78-.7a.55.55,0,0,1,.17-.13l.28-.12h.09v3.22a.09.09,0,0,1,0,.06.1.1,0,0,1-.06.05l-.3.14h-.09v-2.88l-.79.72C585.82,319.65,585.79,319.66,585.79,319.59Z" transform="translate(-483 -228)"/><path class="cls-71" d="M551.44,310.35v-.23a.34.34,0,0,1,0-.17l.58-.77a.86.86,0,0,1,.13-.14l.21-.13h.07v3.54a.14.14,0,0,1,0,.07.1.1,0,0,1-.05.06l-.23.14h-.06v-3.16l-.59.79C551.46,310.42,551.44,310.43,551.44,310.35Z" transform="translate(-483 -228)"/><path class="cls-71" d="M562.54,267.19V267a.23.23,0,0,1,.07-.15l.78-.7a.66.66,0,0,1,.17-.12l.28-.13h.09v3.22a.14.14,0,0,1,0,.07.18.18,0,0,1-.07.05l-.3.13h-.09v-2.87l-.79.71C562.58,267.25,562.54,267.26,562.54,267.19Z" transform="translate(-483 -228)"/><path class="cls-71" d="M587.18,247.89v-.23a.34.34,0,0,1,.05-.17l.58-.77a.53.53,0,0,1,.13-.13l.21-.14h.07V250a.24.24,0,0,1,0,.08.12.12,0,0,1-.05.05l-.23.15h-.06V247.1l-.59.79C587.2,248,587.18,248,587.18,247.89Z" transform="translate(-483 -228)"/><path class="cls-72" d="M586.28,334.82l-.62.31a.9.9,0,0,1-.32.13.83.83,0,0,1-.35,0,.46.46,0,0,1-.24-.47v-1.93a1.27,1.27,0,0,1,.24-.72,1.74,1.74,0,0,1,.67-.56l.62-.32a.66.66,0,0,1,.31-.13.78.78,0,0,1,.34,0c.17.06.25.21.25.47v1.91a1.22,1.22,0,0,1-.25.73A2,2,0,0,1,586.28,334.82Zm-.57-.07.51-.27a.81.81,0,0,0,.52-.74v-1.89c0-.32-.18-.39-.52-.21l-.51.26a.93.93,0,0,0-.37.31.76.76,0,0,0-.14.43v1.89C585.2,334.86,585.38,334.93,585.71,334.75Z" transform="translate(-483 -228)"/><path class="cls-72" d="M610,308.45l-.53.31a.68.68,0,0,1-.27.13.76.76,0,0,1-.3,0c-.13-.06-.21-.22-.21-.47v-1.93a1.4,1.4,0,0,1,.21-.72,1.53,1.53,0,0,1,.57-.56l.53-.32a.57.57,0,0,1,.27-.13.71.71,0,0,1,.29,0c.14.07.21.22.21.48v1.91a1.32,1.32,0,0,1-.21.73A1.7,1.7,0,0,1,610,308.45Zm-.48-.07.43-.27a.86.86,0,0,0,.33-.3,1,1,0,0,0,.11-.45v-1.88c0-.32-.15-.39-.44-.21l-.43.26a.8.8,0,0,0-.32.31.83.83,0,0,0-.13.43v1.89C609.07,308.49,609.23,308.56,609.52,308.38Z" transform="translate(-483 -228)"/><path class="cls-72" d="M575.65,299.08l-.53.31a.68.68,0,0,1-.27.13.76.76,0,0,1-.3,0c-.14-.06-.21-.22-.21-.47v-1.92a1.41,1.41,0,0,1,.21-.73,1.53,1.53,0,0,1,.57-.56l.53-.32a.58.58,0,0,1,.26-.13.61.61,0,0,1,.3,0c.14.06.21.21.21.47v1.91a1.32,1.32,0,0,1-.21.73A1.79,1.79,0,0,1,575.65,299.08Zm-.48-.07.43-.27a.71.71,0,0,0,.32-.3A.88.88,0,0,0,576,298v-1.89c0-.32-.15-.39-.44-.21l-.43.26a.82.82,0,0,0-.33.31.93.93,0,0,0-.12.43v1.89C574.72,299.12,574.88,299.19,575.17,299Z" transform="translate(-483 -228)"/><path class="cls-72" d="M609.31,274.44l-.53.31a.82.82,0,0,1-.28.14.71.71,0,0,1-.29,0c-.14-.06-.22-.23-.22-.48v-1.92a1.45,1.45,0,0,1,.22-.73,1.51,1.51,0,0,1,.57-.55l.53-.33a.58.58,0,0,1,.26-.13.7.7,0,0,1,.29,0c.15.06.22.21.22.48v1.91a1.36,1.36,0,0,1-.22.73A1.73,1.73,0,0,1,609.31,274.44Zm-.49-.07.44-.26a.86.86,0,0,0,.32-.31.83.83,0,0,0,.12-.44v-1.88c0-.33-.15-.4-.44-.21l-.44.26a.82.82,0,0,0-.44.74v1.89C608.38,274.48,608.53,274.55,608.82,274.37Z" transform="translate(-483 -228)"/><path class="cls-72" d="M608.83,345.57l-.62.32a.85.85,0,0,1-.31.13,1,1,0,0,1-.35,0c-.16-.06-.25-.22-.25-.48v-1.92a1.31,1.31,0,0,1,.25-.73,1.7,1.7,0,0,1,.66-.55l.62-.33a.84.84,0,0,1,.31-.12.78.78,0,0,1,.34,0c.17.06.25.22.25.48v1.91a1.17,1.17,0,0,1-.25.73A1.86,1.86,0,0,1,608.83,345.57Zm-.56-.07.5-.26a.83.83,0,0,0,.38-.31.77.77,0,0,0,.14-.44v-1.88c0-.32-.18-.39-.52-.21l-.5.26a.88.88,0,0,0-.38.3.79.79,0,0,0-.14.44v1.89C607.75,345.61,607.93,345.68,608.27,345.5Z" transform="translate(-483 -228)"/><path class="cls-71" d="M586.48,338.67v-.21a.2.2,0,0,1,.06-.15l.57-.7a.49.49,0,0,1,.13-.12l.21-.13h.07v3.22a.14.14,0,0,1,0,.07.12.12,0,0,1,0,.05l-.23.13h-.06V338l-.59.72C586.51,338.74,586.48,338.75,586.48,338.67Z" transform="translate(-483 -228)"/><path class="cls-71" d="M609.73,278.43v-.24a.28.28,0,0,1,0-.16l.58-.77a.58.58,0,0,1,.13-.14l.21-.13h.07v3.54a.14.14,0,0,1,0,.07.08.08,0,0,1,0,0l-.23.15h-.06v-3.15l-.59.79C609.76,278.5,609.73,278.51,609.73,278.43Z" transform="translate(-483 -228)"/><path class="cls-71" d="M611.81,240.6v-.23a.27.27,0,0,1,.06-.17l.58-.76a.41.41,0,0,1,.12-.14l.21-.14h.07v3.55a.19.19,0,0,1,0,.07.12.12,0,0,1-.05.05l-.23.15h-.06v-3.15l-.59.78C611.84,240.68,611.81,240.69,611.81,240.6Z" transform="translate(-483 -228)"/><path class="cls-70" d="M566,350.48v-.21a.3.3,0,0,1,0-.16l.58-.69.13-.14.21-.12h.07v3.22a.19.19,0,0,1,0,.07.1.1,0,0,1,0,0l-.23.14h-.06v-2.87l-.59.72Q566,350.57,566,350.48Z" transform="translate(-483 -228)"/><path class="cls-70" d="M596.54,320.07v-.23a.27.27,0,0,1,.08-.17l.77-.77a.47.47,0,0,1,.17-.14l.27-.14h.1v3.55a.11.11,0,0,1,0,.07.13.13,0,0,1-.07.05l-.3.15h-.08v-3.16l-.78.79C596.58,320.13,596.54,320.14,596.54,320.07Z" transform="translate(-483 -228)"/><path class="cls-70" d="M562.19,310.7v-.23a.27.27,0,0,1,.06-.17l.58-.77a.41.41,0,0,1,.12-.14l.21-.14h.07v3.55a.19.19,0,0,1,0,.07l-.05.05-.23.15h-.06v-3.16l-.59.79C562.22,310.76,562.19,310.77,562.19,310.7Z" transform="translate(-483 -228)"/><path class="cls-70" d="M564.54,339.63,564,340a.59.59,0,0,1-.27.14.57.57,0,0,1-.29,0c-.14-.06-.22-.22-.22-.51v-2.08a1.6,1.6,0,0,1,.22-.78,1.57,1.57,0,0,1,.56-.61l.53-.34a.72.72,0,0,1,.27-.15.57.57,0,0,1,.29,0c.15.06.22.24.22.51v2.08a1.54,1.54,0,0,1-.22.79A1.62,1.62,0,0,1,564.54,339.63Zm-.48-.06.44-.29a.85.85,0,0,0,.32-.33,1,1,0,0,0,.12-.48v-2c0-.34-.15-.42-.44-.24l-.44.29a.85.85,0,0,0-.32.33,1,1,0,0,0-.12.48v2C563.62,339.68,563.76,339.75,564.06,339.57Z" transform="translate(-483 -228)"/><path class="cls-70" d="M571.91,360.53v-.21a.27.27,0,0,1,.05-.15l.59-.7a.3.3,0,0,1,.13-.12l.21-.13H573v3.22a.19.19,0,0,1,0,.07l0,.05-.23.13h-.07v-2.87l-.6.71C571.94,360.59,571.91,360.6,571.91,360.53Z" transform="translate(-483 -228)"/><path class="cls-70" d="M595.85,334v-.24a.3.3,0,0,1,0-.16l.59-.77a.35.35,0,0,1,.13-.14l.21-.14h.06v3.55a.1.1,0,0,1,0,.07.1.1,0,0,1,0,.05l-.23.15h-.07v-3.16l-.6.79C595.88,334,595.85,334,595.85,334Z" transform="translate(-483 -228)"/><path class="cls-70" d="M561.15,324.79v-.21a.23.23,0,0,1,.07-.15l.78-.7a.66.66,0,0,1,.17-.12l.28-.13h.09v3.22a.14.14,0,0,1,0,.07.18.18,0,0,1-.07.05l-.3.13h-.09v-2.87l-.8.71C561.19,324.85,561.15,324.86,561.15,324.79Z" transform="translate(-483 -228)"/><path class="cls-70" d="M572.6,281.55v-.23a.27.27,0,0,1,.06-.17l.58-.77a.4.4,0,0,1,.13-.13l.21-.14h.06v3.54a.15.15,0,0,1,0,.07s0,0,0,.06l-.23.14h-.06v-3.16l-.61.79C572.63,281.62,572.6,281.63,572.6,281.55Z" transform="translate(-483 -228)"/><path class="cls-70" d="M578.28,336.2l-.6.33a1,1,0,0,1-.32.12,1,1,0,0,1-.35,0c-.17-.06-.24-.22-.24-.48v-1.92a1.16,1.16,0,0,1,.24-.72,1.93,1.93,0,0,1,.67-.56l.6-.32a.9.9,0,0,1,.32-.13,1,1,0,0,1,.35,0,.47.47,0,0,1,.24.48v1.92a1.3,1.3,0,0,1-.24.73A1.81,1.81,0,0,1,578.28,336.2Zm-.55-.06.5-.26a.89.89,0,0,0,.38-.31.69.69,0,0,0,.13-.44v-1.88c0-.32-.16-.39-.51-.22l-.5.26a.89.89,0,0,0-.38.31.69.69,0,0,0-.13.44v1.89C577.22,336.24,577.38,336.31,577.73,336.14Z" transform="translate(-483 -228)"/><path class="cls-70" d="M601.53,276.13l-.6.36a1,1,0,0,1-.32.13.83.83,0,0,1-.35,0c-.17-.07-.25-.23-.25-.52V274a1.37,1.37,0,0,1,.25-.78,1.88,1.88,0,0,1,.67-.61l.6-.34a.86.86,0,0,1,.32-.15.78.78,0,0,1,.34,0c.16.07.25.24.25.51v2.08a1.4,1.4,0,0,1-.25.79A1.74,1.74,0,0,1,601.53,276.13Zm-.55-.06.5-.29a.92.92,0,0,0,.38-.33A.81.81,0,0,0,602,275v-2q0-.53-.51-.24l-.5.28a.87.87,0,0,0-.38.33.92.92,0,0,0-.14.48v2C600.46,276.18,600.63,276.26,601,276.07Z" transform="translate(-483 -228)"/><path class="cls-70" d="M600.84,347l-.61.32a.83.83,0,0,1-.32.13.78.78,0,0,1-.34,0c-.17-.06-.25-.21-.25-.47V345a1.13,1.13,0,0,1,.25-.72,1.84,1.84,0,0,1,.66-.57l.61-.31a.85.85,0,0,1,.31-.13.69.69,0,0,1,.35,0c.16.06.25.22.25.47v1.93a1.31,1.31,0,0,1-.25.72A1.9,1.9,0,0,1,600.84,347Zm-.55-.06.49-.26a.9.9,0,0,0,.38-.31.79.79,0,0,0,.14-.44V344c0-.33-.17-.4-.52-.22l-.49.26a.81.81,0,0,0-.38.3.82.82,0,0,0-.14.45v1.88C599.77,347,599.94,347.07,600.29,346.9Z" transform="translate(-483 -228)"/><path class="cls-70" d="M609.73,332.78v-.22a.39.39,0,0,1,.06-.15l.57-.7a.53.53,0,0,1,.14-.12l.21-.13h.06v3.22a.08.08,0,0,1,0,.07.1.1,0,0,1,0,.05l-.23.13h-.07v-2.87l-.59.72C609.73,332.83,609.73,332.83,609.73,332.78Z" transform="translate(-483 -228)"/><path class="cls-70" d="M586.48,280.38v-.21a.34.34,0,0,1,.06-.15l.57-.7a.57.57,0,0,1,.14-.13l.21-.12h.06v3.22a.13.13,0,0,1,0,.06.08.08,0,0,1,0,0l-.23.14h-.07v-2.88l-.59.72C586.48,280.44,586.48,280.44,586.48,280.38Z" transform="translate(-483 -228)"/><path class="cls-70" d="M568.09,245.12v-.24a.28.28,0,0,1,.06-.16l.57-.77.13-.14.21-.14h.07v3.54a.19.19,0,0,1,0,.07.08.08,0,0,1-.05.05l-.22.16h-.07v-3.15l-.59.79C568.12,245.18,568.09,245.19,568.09,245.12Z" transform="translate(-483 -228)"/><path class="cls-70" d="M565.92,298.38l-.52.32a.57.57,0,0,1-.27.13.76.76,0,0,1-.3,0c-.14-.07-.21-.22-.21-.48v-1.91a1.35,1.35,0,0,1,.21-.73,1.61,1.61,0,0,1,.57-.56l.52-.32a.68.68,0,0,1,.27-.13.61.61,0,0,1,.3,0q.21.09.21.48v1.92a1.38,1.38,0,0,1-.21.72A1.53,1.53,0,0,1,565.92,298.38Zm-.47-.06.42-.26a.82.82,0,0,0,.33-.31.83.83,0,0,0,.12-.44v-1.88c0-.32-.15-.39-.45-.22l-.42.26a.8.8,0,0,0-.44.75v1.89c0,.31.16.38.46.21Z" transform="translate(-483 -228)"/><path class="cls-70" d="M603.4,290.75l-.53.31a.73.73,0,0,1-.26.14.61.61,0,0,1-.3,0c-.15-.06-.21-.22-.21-.47V288.8a1.32,1.32,0,0,1,.21-.73,1.67,1.67,0,0,1,.56-.56l.53-.32a.72.72,0,0,1,.28-.13.57.57,0,0,1,.29,0c.14.06.21.21.21.47v1.91a1.35,1.35,0,0,1-.21.73A1.73,1.73,0,0,1,603.4,290.75Zm-.48-.07.44-.27a.77.77,0,0,0,.32-.3.86.86,0,0,0,.12-.44v-1.88c0-.33-.15-.4-.44-.22l-.44.27a.77.77,0,0,0-.32.3.88.88,0,0,0-.12.44v1.88C602.48,290.79,602.63,290.86,602.92,290.68Z" transform="translate(-483 -228)"/><path class="cls-70" d="M605.49,252.93l-.54.31a.64.64,0,0,1-.26.13.51.51,0,0,1-.3,0c-.14-.06-.21-.22-.21-.47V251a1.32,1.32,0,0,1,.21-.73,1.58,1.58,0,0,1,.56-.56l.54-.32a.68.68,0,0,1,.27-.13.61.61,0,0,1,.3,0c.13.06.2.21.2.47v1.91a1.43,1.43,0,0,1-.2.73A1.94,1.94,0,0,1,605.49,252.93Zm-.49-.08.44-.26a.71.71,0,0,0,.32-.3.8.8,0,0,0,.12-.45V250c0-.32-.14-.39-.44-.21L605,250a.77.77,0,0,0-.32.3.78.78,0,0,0-.11.44v1.88C604.57,253,604.71,253,605,252.85Z" transform="translate(-483 -228)"/><path class="cls-70" d="M552.4,346.61l-.54.32a.57.57,0,0,1-.27.13.76.76,0,0,1-.3,0c-.13-.07-.2-.22-.2-.48v-1.91a1.43,1.43,0,0,1,.2-.73,1.79,1.79,0,0,1,.57-.56l.54-.32a.57.57,0,0,1,.27-.13.76.76,0,0,1,.3,0c.13.06.2.23.2.48v1.93a1.43,1.43,0,0,1-.2.73A1.83,1.83,0,0,1,552.4,346.61Zm-.49-.06.44-.27a.79.79,0,0,0,.32-.31.83.83,0,0,0,.12-.44v-1.88c0-.31-.15-.38-.44-.21l-.41.21a.86.86,0,0,0-.32.31.78.78,0,0,0-.11.44v1.89c0,.41.11.41.43.26Z" transform="translate(-483 -228)"/><path class="cls-70" d="M541.86,310.87l-.62.32a.8.8,0,0,1-.32.13,1,1,0,0,1-.35,0c-.16-.07-.24-.22-.24-.48v-1.91a1.3,1.3,0,0,1,.24-.73,1.93,1.93,0,0,1,.67-.56l.62-.32a.7.7,0,0,1,.32-.13,1,1,0,0,1,.34,0c.16.06.24.23.24.48v1.93a1.23,1.23,0,0,1-.24.73A1.94,1.94,0,0,1,541.86,310.87Zm-.57-.06.51-.27a.83.83,0,0,0,.38-.31.77.77,0,0,0,.14-.44v-1.88c0-.31-.18-.38-.52-.21l-.47.21a.85.85,0,0,0-.38.32.76.76,0,0,0-.13.44v1.88c0,.41.13.41.51.26Z" transform="translate(-483 -228)"/><path class="cls-70" d="M553.09,267.84l-.53.33a.75.75,0,0,1-.27.13.61.61,0,0,1-.3,0c-.14-.06-.21-.21-.21-.48V265.9a1.47,1.47,0,0,1,.21-.73,1.7,1.7,0,0,1,.57-.56l.53-.32a.68.68,0,0,1,.27-.13.61.61,0,0,1,.3,0c.14.06.21.22.21.47v1.93a1.51,1.51,0,0,1-.21.73A1.63,1.63,0,0,1,553.09,267.84Zm-.48-.06.43-.26a.8.8,0,0,0,.32-.31.87.87,0,0,0,.13-.44v-1.88c0-.32-.16-.39-.45-.21l-.4.21a.74.74,0,0,0-.32.31.83.83,0,0,0-.12.44v1.89c0,.4.12.4.44.25Z" transform="translate(-483 -228)"/><path class="cls-69" d="M551.36,329.26l-.54.33a.68.68,0,0,1-.26.12.76.76,0,0,1-.3,0c-.14-.06-.21-.21-.21-.48v-1.92a1.29,1.29,0,0,1,.21-.72,1.76,1.76,0,0,1,.56-.56l.54-.32a.62.62,0,0,1,.27-.13.76.76,0,0,1,.3,0c.13.06.2.22.2.48V328a1.42,1.42,0,0,1-.2.72A1.73,1.73,0,0,1,551.36,329.26Zm-.49-.06.44-.26a.71.71,0,0,0,.32-.3.86.86,0,0,0,.12-.44v-1.89c0-.32-.14-.39-.44-.21l-.44.25a.79.79,0,0,0-.32.31.73.73,0,0,0-.11.43V329C550.44,329.3,550.58,329.38,550.87,329.2Z" transform="translate(-483 -228)"/><path class="cls-69" d="M540.6,293.52l-.53.33a.66.66,0,0,1-.27.12.76.76,0,0,1-.3,0c-.14-.06-.21-.21-.21-.48v-1.92a1.32,1.32,0,0,1,.21-.72,1.79,1.79,0,0,1,.57-.56l.53-.32a.68.68,0,0,1,.27-.13.76.76,0,0,1,.3,0c.14.06.2.23.2.48v1.91a1.42,1.42,0,0,1-.2.72A1.64,1.64,0,0,1,540.6,293.52Zm-.49-.06.44-.26a.79.79,0,0,0,.33-.3.86.86,0,0,0,.12-.44v-1.89q0-.48-.45-.21l-.44.25a.79.79,0,0,0-.32.31.92.92,0,0,0-.11.43v1.88C539.68,293.56,539.82,293.64,540.11,293.46Z" transform="translate(-483 -228)"/><path class="cls-69" d="M585.79,299.26V299a.2.2,0,0,1,.07-.16l.78-.77a.8.8,0,0,1,.17-.15l.28-.14h.09v3.55a.11.11,0,0,1,0,.07.1.1,0,0,1-.06.05l-.3.15h-.09v-3.15l-.79.79C585.82,299.32,585.79,299.32,585.79,299.26Z" transform="translate(-483 -228)"/><path class="cls-69" d="M551.44,290.1v-.21a.27.27,0,0,1,0-.15l.58-.7a1.59,1.59,0,0,1,.13-.13l.21-.13h.07V292a.14.14,0,0,1,0,.07l-.05.05-.23.13h-.06v-2.87l-.59.72C551.46,290.16,551.44,290.16,551.44,290.1Z" transform="translate(-483 -228)"/><path class="cls-70" d="M579.89,309.65v-.23a.34.34,0,0,1,.05-.17l.59-.76a.55.55,0,0,1,.12-.14l.21-.14h.07v3.54a.17.17,0,0,1,0,.07.1.1,0,0,1-.06.05l-.22.16h-.07v-3.15l-.6.78C579.92,309.72,579.89,309.73,579.89,309.65Z" transform="translate(-483 -228)"/><path class="cls-70" d="M578.5,346.78v-.23a.27.27,0,0,1,.06-.17l.58-.77a.4.4,0,0,1,.13-.13l.21-.14h.06v3.53a.19.19,0,0,1,0,.08.12.12,0,0,1,0,.05l-.23.16h-.07V346l-.6.79C578.53,346.85,578.5,346.86,578.5,346.78Z" transform="translate(-483 -228)"/><path class="cls-69" d="M570.43,343.84l-.52.31a.57.57,0,0,1-.27.13.51.51,0,0,1-.3,0c-.13-.06-.21-.22-.21-.47v-1.92a1.55,1.55,0,0,1,.21-.73,1.73,1.73,0,0,1,.57-.57l.52-.31a.63.63,0,0,1,.57-.12c.15.06.21.21.21.46v1.92a1.25,1.25,0,0,1-.21.73A1.64,1.64,0,0,1,570.43,343.84Zm-.47-.07.43-.27a.67.67,0,0,0,.32-.3.88.88,0,0,0,.12-.44v-1.88c0-.33-.15-.4-.44-.22l-.43.27a.71.71,0,0,0-.32.3.82.82,0,0,0-.12.43v1.9C569.52,343.88,569.66,344,570,343.77Z" transform="translate(-483 -228)"/><path class="cls-69" d="M594.38,317.47l-.52.31a.72.72,0,0,1-.28.13.48.48,0,0,1-.29,0c-.14-.06-.22-.22-.22-.47v-1.92a1.42,1.42,0,0,1,.22-.73,1.56,1.56,0,0,1,.57-.57l.52-.31a.62.62,0,0,1,.56-.12c.15.06.22.21.22.46v1.92a1.33,1.33,0,0,1-.22.73A1.61,1.61,0,0,1,594.38,317.47Zm-.48-.07.44-.27a.84.84,0,0,0,.32-.3,1,1,0,0,0,.11-.44V314.5c0-.32-.14-.39-.43-.21l-.44.26a.79.79,0,0,0-.32.31.82.82,0,0,0-.12.43v1.89C593.46,317.51,593.6,317.58,593.9,317.4Z" transform="translate(-483 -228)"/><path class="cls-69" d="M593,354.6l-.52.31a.75.75,0,0,1-.27.13.76.76,0,0,1-.3,0c-.14-.06-.21-.22-.21-.47v-1.93a1.29,1.29,0,0,1,.21-.72,1.64,1.64,0,0,1,.57-.57L593,351a.57.57,0,0,1,.27-.13.76.76,0,0,1,.3,0c.14.06.21.22.21.47v1.92a1.35,1.35,0,0,1-.21.73A1.82,1.82,0,0,1,593,354.6Zm-.48-.08.44-.26a.86.86,0,0,0,.32-.31.82.82,0,0,0,.11-.44v-1.88c0-.32-.14-.39-.43-.21l-.44.26a.84.84,0,0,0-.32.3.86.86,0,0,0-.12.44v1.89C592.07,354.64,592.22,354.71,592.51,354.52Z" transform="translate(-483 -228)"/><path class="cls-69" d="M581.62,334.64v-.23a.28.28,0,0,1,.09-.17l.77-.77a.79.79,0,0,1,.17-.14l.28-.13H583v3.53a.14.14,0,0,1,0,.07l-.06.06-.31.15h-.09v-3.15l-.79.79C581.67,334.7,581.62,334.71,581.62,334.64Z" transform="translate(-483 -228)"/><path class="cls-69" d="M571.21,298.9v-.23a.33.33,0,0,1,.07-.17l.58-.77a.53.53,0,0,1,.12-.14l.21-.13h.06V301a.08.08,0,0,1,0,.07s0,0,0,.06l-.22.15h-.08v-3.15l-.59.79S571.21,299,571.21,298.9Z" transform="translate(-483 -228)"/><path class="cls-69" d="M604.18,345.26v-.21a.31.31,0,0,1,.08-.15l.78-.7a.48.48,0,0,1,.16-.12l.28-.13h.09v3.22a.09.09,0,0,1,0,.06.1.1,0,0,1-.06,0l-.3.14h-.1v-2.86l-.78.71C604.23,345.32,604.18,345.33,604.18,345.26Z" transform="translate(-483 -228)"/><path class="cls-69" d="M585.44,346.08v-.21a.35.35,0,0,1,.06-.17l.57-.77a.93.93,0,0,1,.14-.14l.21-.14h.06v3.54a.08.08,0,0,1,0,.07.09.09,0,0,1,0,.06l-.23.14h-.07V345.3l-.59.78C585.48,346.14,585.44,346.14,585.44,346.08Z" transform="translate(-483 -228)"/><path class="cls-69" d="M609.38,319.58v-.19a.44.44,0,0,1,.06-.16l.57-.69a.43.43,0,0,1,.14-.13l.21-.13h.06v3.22a.13.13,0,0,1,0,.06l0,.05-.23.14h-.07v-2.88l-.59.71C609.42,319.64,609.38,319.64,609.38,319.58Z" transform="translate(-483 -228)"/><path class="cls-69" d="M574.68,310.21V310a.24.24,0,0,1,.09-.15l.76-.7a.59.59,0,0,1,.18-.13l.28-.13h.08v3.22a.1.1,0,0,1,0,.07s0,0-.06,0l-.3.14h-.1V309.5l-.79.71C574.73,310.27,574.68,310.27,574.68,310.21Z" transform="translate(-483 -228)"/><path class="cls-69" d="M584.75,353v-.23a.28.28,0,0,1,0-.09l0-.07.57-.78.13-.14.2-.13h.08v3.53a.19.19,0,0,1,0,.08l-.06.06-.21.14h-.07v-3.15l-.59.79C584.77,353.09,584.75,353.1,584.75,353Z" transform="translate(-483 -228)"/><path class="cls-69" d="M608.69,326.66v-.23a.15.15,0,0,1,0-.09.16.16,0,0,1,0-.07l.57-.78.13-.14.21-.13h.07v3.53a.19.19,0,0,1,0,.08l-.05.06-.22.14h-.07v-3.15l-.59.79C608.72,326.72,608.69,326.73,608.69,326.66Z" transform="translate(-483 -228)"/><path class="cls-69" d="M608,292.87v-.21s0-.06,0-.08a.18.18,0,0,1,0-.07l.57-.7.12-.13.21-.12H609v3.21a.14.14,0,0,1,0,.07.1.1,0,0,1-.06.05l-.21.14h-.08v-2.87l-.59.72C608,292.93,608,292.94,608,292.87Z" transform="translate(-483 -228)"/><path class="cls-69" d="M609.73,255.18V255a.29.29,0,0,1,0-.09l.06-.07.76-.78.17-.14.28-.13h.1v3.53a.11.11,0,0,1,0,.08.2.2,0,0,1-.07.06l-.29.14h-.09V254.4l-.79.79C609.77,255.24,609.73,255.25,609.73,255.18Z" transform="translate(-483 -228)"/><path class="cls-69" d="M555.17,350.43l-.53.32a.68.68,0,0,1-.27.13.57.57,0,0,1-.29,0c-.15-.06-.22-.21-.22-.47v-1.92a1.3,1.3,0,0,1,.22-.72,1.61,1.61,0,0,1,.56-.57l.53-.31a.62.62,0,0,1,.27-.13.48.48,0,0,1,.29,0c.14.06.22.22.22.47v1.92a1.45,1.45,0,0,1-.22.73A1.67,1.67,0,0,1,555.17,350.43Zm-.49-.06.44-.26a.85.85,0,0,0,.44-.75v-1.89c0-.32-.14-.39-.44-.22l-.44.27a.79.79,0,0,0-.32.31.92.92,0,0,0-.11.43v1.88C554.25,350.47,554.39,350.54,554.68,350.37Z" transform="translate(-483 -228)"/><path class="cls-69" d="M579.11,324.06l-.52.32a.75.75,0,0,1-.27.13.61.61,0,0,1-.3,0c-.15-.06-.21-.21-.21-.47v-1.92a1.29,1.29,0,0,1,.21-.72,1.56,1.56,0,0,1,.57-.57l.52-.31a.7.7,0,0,1,.27-.14.61.61,0,0,1,.3,0c.13.06.21.22.21.47v1.92a1.55,1.55,0,0,1-.21.73A1.79,1.79,0,0,1,579.11,324.06Zm-.48-.06.43-.27a.79.79,0,0,0,.33-.3,1,1,0,0,0,.11-.44V321.1c0-.32-.14-.39-.44-.22l-.43.27a.69.69,0,0,0-.32.31.82.82,0,0,0-.12.43v1.88C578.19,324.1,578.34,324.17,578.63,324Z" transform="translate(-483 -228)"/><path class="cls-73" d="M487.64,274.94l6.25,1.39,14.65-2.07.81.18-8.6,3.42,14.17,5.08,2.27.51,2.21-1.86.56.12-1.09,3.73-3.49-.78-28.5-6.34-3.88-.86Z" transform="translate(-483 -228)"/><path class="cls-74" d="M518.87,280.88l.3.07-.34,1.3-1.64,1.38-1.29-.46Z" transform="translate(-483 -228)"/><path class="cls-74" d="M487.45,275.09l1.07.34,1.36.36-1,1.22-3.18-1Z" transform="translate(-483 -228)"/><ellipse class="cls-74" cx="492.17" cy="277.22" rx="0.12" ry="0.23" transform="translate(-368.34 469.42) rotate(-77.45)"/><ellipse class="cls-74" cx="493.31" cy="277.47" rx="0.12" ry="0.23" transform="translate(-367.69 470.74) rotate(-77.45)"/><ellipse class="cls-74" cx="494.46" cy="277.73" rx="0.12" ry="0.23" transform="translate(-367.04 472.05) rotate(-77.45)"/><ellipse class="cls-74" cx="495.63" cy="277.99" rx="0.12" ry="0.2" transform="translate(-366.38 473.4) rotate(-77.45)"/><ellipse class="cls-74" cx="496.97" cy="278.29" rx="0.12" ry="0.23" transform="translate(-365.62 474.94) rotate(-77.45)"/><path class="cls-18" d="M609.92,229.32a10.65,10.65,0,0,0-2.6,2.2c-1.09-3.51-4.42-4.59-8.35-2.32a19.19,19.19,0,0,0-7.6,9.49,3.5,3.5,0,0,0-1.64.52,8.52,8.52,0,0,0-3.85,6.66.86.86,0,0,0,0,.16,4.65,4.65,0,0,0-2,.65,10.9,10.9,0,0,0-4.92,8.53c0,3.13,2.2,4.41,4.92,2.84l26-15a13.12,13.12,0,0,0,5.94-10.28C615.86,229,613.2,227.43,609.92,229.32Z" transform="translate(-483 -228)"/><path class="cls-13" d="M609.92,229.32a10.16,10.16,0,0,0-1.56,1.14l-2.9-1.68c-1.6-1.12-3.92-1.08-6.49.41a19.19,19.19,0,0,0-7.6,9.49,3.39,3.39,0,0,0-1.64.52,8.52,8.52,0,0,0-3.85,6.66.71.71,0,0,0,0,.15,4.82,4.82,0,0,0-2,.66A10.9,10.9,0,0,0,579,255.2a3.44,3.44,0,0,0,1.42,3.16h0l7.13,4.14,1.55-7.49,20.8-12a13.12,13.12,0,0,0,5.94-10.28C615.86,229,613.2,227.43,609.92,229.32Z" transform="translate(-483 -228)"/><path class="cls-6" d="M621.37,233.11l-7.21-4.19c-1.08-.63-2.57-.56-4.24.4a10.16,10.16,0,0,0-1.56,1.14l-2.9-1.68c-1.6-1.12-3.92-1.08-6.49.41a19.19,19.19,0,0,0-7.6,9.49,3.39,3.39,0,0,0-1.64.52,8.52,8.52,0,0,0-3.85,6.66.71.71,0,0,0,0,.15,4.82,4.82,0,0,0-2,.66A10.9,10.9,0,0,0,579,255.2a3.44,3.44,0,0,0,1.42,3.16h0l7.13,4.14,1.55-7.49,20.8-12a13.29,13.29,0,0,0,5.67-8.07Z" transform="translate(-483 -228)"/><path class="cls-18" d="M617.06,233.47a10.22,10.22,0,0,0-2.6,2.2c-1.09-3.51-4.43-4.59-8.35-2.32a19.08,19.08,0,0,0-7.6,9.49,3.41,3.41,0,0,0-1.64.51A8.53,8.53,0,0,0,593,250a.76.76,0,0,0,0,.15,4.62,4.62,0,0,0-2,.66,10.89,10.89,0,0,0-4.91,8.52c0,3.14,2.2,4.41,4.91,2.84l26-15A13.12,13.12,0,0,0,623,236.9C623,233.11,620.35,231.57,617.06,233.47Z" transform="translate(-483 -228)"/><path class="cls-17" d="M614.47,235.67a10.26,10.26,0,0,1,2.6-2.2c2-1.16,3.78-1,4.86.11-1-1.32-2.91-1.53-5-.31a10.56,10.56,0,0,0-2.53,2.11A1.61,1.61,0,0,0,614.47,235.67Z" transform="translate(-483 -228)"/><path class="cls-17" d="M586.14,259.35a10.89,10.89,0,0,1,4.91-8.52,4.76,4.76,0,0,1,2-.66s0-.1,0-.15a8.53,8.53,0,0,1,3.85-6.67,3.41,3.41,0,0,1,1.64-.51,19,19,0,0,1,7.6-9.49c3-1.73,5.61-1.52,7.19.2-1.55-1.9-4.27-2.18-7.36-.4a19.12,19.12,0,0,0-7.59,9.49,3.41,3.41,0,0,0-1.64.51,8.53,8.53,0,0,0-3.85,6.67.76.76,0,0,0,0,.15,4.82,4.82,0,0,0-2,.66,10.9,10.9,0,0,0-4.92,8.53,3.87,3.87,0,0,0,.93,2.77A4,4,0,0,1,586.14,259.35Z" transform="translate(-483 -228)"/><path class="cls-18" d="M564.92,291.32a10.65,10.65,0,0,0-2.6,2.2c-1.09-3.51-4.42-4.59-8.35-2.32a19.19,19.19,0,0,0-7.6,9.49,3.5,3.5,0,0,0-1.64.52,8.52,8.52,0,0,0-3.85,6.66.44.44,0,0,0,0,.16,4.65,4.65,0,0,0-2,.65,10.9,10.9,0,0,0-4.92,8.53c0,3.13,2.2,4.41,4.92,2.84l26-15a13.12,13.12,0,0,0,5.94-10.28C570.86,291,568.2,289.43,564.92,291.32Z" transform="translate(-483 -228)"/><path class="cls-13" d="M564.92,291.32a10.16,10.16,0,0,0-1.56,1.14l-2.9-1.68c-1.6-1.12-3.92-1.08-6.49.41a19.19,19.19,0,0,0-7.6,9.49,3.39,3.39,0,0,0-1.64.52,8.52,8.52,0,0,0-3.85,6.66.36.36,0,0,0,0,.15,4.82,4.82,0,0,0-2,.66A10.9,10.9,0,0,0,534,317.2a3.44,3.44,0,0,0,1.42,3.16h0l7.13,4.14,1.55-7.49,20.8-12a13.12,13.12,0,0,0,5.94-10.28C570.86,291,568.2,289.43,564.92,291.32Z" transform="translate(-483 -228)"/><path class="cls-6" d="M576.37,295.11l-7.21-4.19c-1.08-.63-2.58-.56-4.24.4a10.16,10.16,0,0,0-1.56,1.14l-2.9-1.68c-1.6-1.12-3.92-1.08-6.49.41a19.19,19.19,0,0,0-7.6,9.49,3.39,3.39,0,0,0-1.64.52,8.52,8.52,0,0,0-3.85,6.66.36.36,0,0,0,0,.15,4.82,4.82,0,0,0-2,.66A10.9,10.9,0,0,0,534,317.2a3.44,3.44,0,0,0,1.42,3.16h0l7.13,4.14,1.55-7.49,20.8-12a13.29,13.29,0,0,0,5.67-8.07Z" transform="translate(-483 -228)"/><path class="cls-18" d="M572.06,295.47a10.44,10.44,0,0,0-2.61,2.2c-1.08-3.51-4.42-4.59-8.34-2.32a19.13,19.13,0,0,0-7.6,9.49,3.41,3.41,0,0,0-1.64.51A8.53,8.53,0,0,0,548,312a.76.76,0,0,0,0,.15,4.62,4.62,0,0,0-2,.66,10.89,10.89,0,0,0-4.91,8.52c0,3.14,2.2,4.41,4.91,2.84l26-15A13.12,13.12,0,0,0,578,298.9C578,295.11,575.35,293.57,572.06,295.47Z" transform="translate(-483 -228)"/><path class="cls-17" d="M569.47,297.67a10.06,10.06,0,0,1,2.6-2.2c2-1.16,3.79-1,4.86.11-1-1.32-2.91-1.53-5-.31a10.56,10.56,0,0,0-2.53,2.11A1.61,1.61,0,0,0,569.47,297.67Z" transform="translate(-483 -228)"/><path class="cls-17" d="M541.14,321.35a10.89,10.89,0,0,1,4.91-8.52,4.62,4.62,0,0,1,2-.66c0-.05,0-.1,0-.15a8.53,8.53,0,0,1,3.85-6.67,3.41,3.41,0,0,1,1.64-.51,19.08,19.08,0,0,1,7.6-9.49c3-1.73,5.61-1.52,7.19.2-1.55-1.9-4.27-2.18-7.36-.4a19.19,19.19,0,0,0-7.6,9.49,3.41,3.41,0,0,0-1.63.51,8.53,8.53,0,0,0-3.85,6.67.76.76,0,0,0,0,.15,4.82,4.82,0,0,0-2,.66,10.9,10.9,0,0,0-4.92,8.53,3.87,3.87,0,0,0,.93,2.77A4,4,0,0,1,541.14,321.35Z" transform="translate(-483 -228)"/></svg>