<svg id="Слой_1" data-name="Слой 1" xmlns="http://www.w3.org/2000/svg" viewBox="0 0 184.81 145.18"><defs><style>.cls-1{fill:#fff;stroke:#f59539;stroke-miterlimit:10;}</style></defs><title>quotation-mark-small-next</title><path class="cls-1" d="M27.92,146.91l-8-8q20-17.59,28-35.6,8-18.4,6.8-28.4l-15.2,8-36-40,44-40a73.86,73.86,0,0,1,31.2,23.6q12.41,16,12.4,41.6a60.75,60.75,0,0,1-6.4,27.6,81.93,81.93,0,0,1-16,22.4,122,122,0,0,1-20.4,17.2A148.23,148.23,0,0,1,27.92,146.91Zm96,0-8-8q20-17.59,28-35.6,8-18.4,6.8-28.4l-15.2,8-36-40,44-40a73.86,73.86,0,0,1,31.2,23.6q12.41,16,12.4,41.6a60.75,60.75,0,0,1-6.4,27.6,81.93,81.93,0,0,1-16,22.4,122,122,0,0,1-20.4,17.2A148.23,148.23,0,0,1,123.92,146.91Z" transform="translate(-2.82 -2.33)"/></svg>