<svg id="Слой_1" data-name="Слой 1" xmlns="http://www.w3.org/2000/svg" viewBox="0 0 183.6 144"><defs><style>.cls-1{fill:#e0e2e2;}</style></defs><title>quotation-mark-big</title><path class="cls-1" d="M615.4,456l-8-8q20-17.6,28-35.6,8-18.4,6.8-28.4L627,392l-36-40,44-40a73.82,73.82,0,0,1,31.2,23.6q12.4,16,12.4,41.6a60.79,60.79,0,0,1-6.4,27.6,82,82,0,0,1-16,22.4,122.33,122.33,0,0,1-20.4,17.2A149.06,149.06,0,0,1,615.4,456Zm96,0-8-8q20-17.6,28-35.6,8-18.4,6.8-28.4L723,392l-36-40,44-40a73.82,73.82,0,0,1,31.2,23.6q12.4,16,12.4,41.6a60.79,60.79,0,0,1-6.4,27.6,82,82,0,0,1-16,22.4,122.33,122.33,0,0,1-20.4,17.2A149.06,149.06,0,0,1,711.4,456Z" transform="translate(-591 -312)"/></svg>