<svg id="Слой_1" data-name="Слой 1" xmlns="http://www.w3.org/2000/svg" viewBox="0 0 436.03 326.66"><defs><style>.cls-1{fill:#07306d;stroke:#07306d;}.cls-1,.cls-2{stroke-miterlimit:10;stroke-width:9px;}.cls-2{fill:#ed6f00;stroke:#ed6f00;}</style></defs><title>send-letter</title><path class="cls-1" d="M819.33,378.11A76.66,76.66,0,1,0,772.47,362l-99.42,76.38a5,5,0,0,1-6.1,0L479,294a15,15,0,0,1,14.82-12.67H722.92a5.18,5.18,0,0,0,5.24-4.56,5,5,0,0,0-5-5.44H493.81a25,25,0,0,0-25,25V517.74a25,25,0,0,0,25,25H846.19a25,25,0,0,0,25-25V385.81a5.15,5.15,0,0,0-4.51-5.19,5,5,0,0,0-5.49,5v122L730.28,407l50.94-39.13a76,76,0,0,0,38.11,10.21ZM609.72,407,478.81,507.59V306.47ZM861,520.05a15,15,0,0,1-14.8,12.69H493.81A15,15,0,0,1,479,520.05L617.93,413.34l42.93,33a15,15,0,0,0,18.28,0l42.93-33ZM752.81,301.59a66.52,66.52,0,1,1,66.52,66.52A66.59,66.59,0,0,1,752.81,301.59Z" transform="translate(-464.31 -220.58)"/><path class="cls-2" d="M782,301.13l24.15,10.75,9.3,24.75a5,5,0,0,0,9.27.24l26.79-61.41a5,5,0,0,0-6.31-6.7l-62.89,23.11A5,5,0,0,0,782,301.13Z" transform="translate(-464.31 -220.58)"/></svg>