<svg id="Слой_1" data-name="Слой 1" xmlns="http://www.w3.org/2000/svg" viewBox="0 0 438.34 328.95"><defs><style>.cls-1{fill:#07306d;stroke:#07306d;stroke-width:11px;}.cls-1,.cls-2{stroke-miterlimit:10;}.cls-2{fill:#ed6f00;stroke:#ed6f00;stroke-width:9px;}</style></defs><title>send-letter</title><path class="cls-1" d="M819,378.53a76.65,76.65,0,1,0-46.86-16.11L672.74,438.8a5,5,0,0,1-6.1,0L478.69,294.42a15,15,0,0,1,14.82-12.67h229.1a5.18,5.18,0,0,0,5.24-4.56,5,5,0,0,0-4.54-5.42l-.46,0H493.5a25,25,0,0,0-25,25V518.16a25,25,0,0,0,25,25H845.88a25,25,0,0,0,25-25V386.23a5.15,5.15,0,0,0-4.51-5.19,5,5,0,0,0-5.47,4.49c0,.17,0,.34,0,.51V508L730,407.42l50.94-39.13A76,76,0,0,0,819,378.5ZM609.41,407.42,478.5,508V306.89ZM860.69,520.47a15,15,0,0,1-14.8,12.69H493.5a15,15,0,0,1-14.81-12.69L617.62,413.76l42.93,33a15,15,0,0,0,18.28,0l42.93-33ZM752.5,302A66.52,66.52,0,1,1,819,368.53,66.52,66.52,0,0,1,752.5,302Z" transform="translate(-463 -219.71)"/><path class="cls-2" d="M781.69,301.55l24.15,10.75,9.3,24.75a5,5,0,0,0,9.27.24l26.79-61.41a5,5,0,0,0-6.31-6.7L782,292.29a5,5,0,0,0-.31,9.26Z" transform="translate(-463 -219.71)"/></svg>