<svg id="Слой_1" data-name="Слой 1" xmlns="http://www.w3.org/2000/svg" viewBox="0 0 391.13 328.87"><defs><style>.cls-1{fill:#395a96;}.cls-1,.cls-2{fill-opacity:1;}.cls-2{fill:#4f6ca5;}</style></defs><title>shape-solution</title><path class="cls-1" d="M991.2,374.44a62.35,62.35,0,0,0-.82,26.64,66.66,66.66,0,0,0,10.35,25.23,69.2,69.2,0,0,0,19.71,19.35,68.13,68.13,0,0,0,25.56,10,64.07,64.07,0,0,0,26.9-1.05,60.23,60.23,0,0,0,23.45-12,58.68,58.68,0,0,0,15.86-20.75c.44-1.23.94-2.43,1.5-3.61a50.42,50.42,0,0,1,7.2-11.6c18.9-22.61,50.71-26.31,83.69,1.26a55.84,55.84,0,0,0,38.2,12.46c.66,0,1.31-.07,2-.12a49.29,49.29,0,0,0,45-53.28A55.62,55.62,0,0,0,1272.24,331c-12.54-11.32-16-42.51-1.48-59.3,6-7.2,17-12.11,18.69-13a34.19,34.19,0,0,0,14.83-15.44,35.77,35.77,0,0,0,3-21.42,39.2,39.2,0,0,0-9.89-20,40.09,40.09,0,0,0-19.28-11.61,37.27,37.27,0,0,0-21.95.85,34.38,34.38,0,0,0-17,13,35.07,35.07,0,0,0-6,20.64,38.41,38.41,0,0,0,7,21c14.71,20.85,14.32,42.6.89,58.66-5,6-13,10.42-23.88,14.57a47.54,47.54,0,0,0-26,21.76,56.06,56.06,0,0,0-2.88,5.41,49.72,49.72,0,0,1-5,7.22,52.1,52.1,0,0,1-37,18.35A58.42,58.42,0,0,1,1105.58,358c-2.86-2.4-6.59-7.05-8.85-9.24a45.43,45.43,0,0,0-3.5-3.15A67.65,67.65,0,0,0,1046,329.78a60.39,60.39,0,0,0-42.89,21.33A59.18,59.18,0,0,0,991.2,374.44Z" transform="translate(-962.91 -181.1)"/><path class="cls-2" d="M965.21,409a76.89,76.89,0,0,0-1,32.73,82.13,82.13,0,0,0,12.71,31,85.21,85.21,0,0,0,24.21,23.76,83.62,83.62,0,0,0,31.41,12.32,78.48,78.48,0,0,0,33-1.29,73.77,73.77,0,0,0,28.8-14.69,72,72,0,0,0,19.49-25.48,43.89,43.89,0,0,1,1.83-4.43,62.08,62.08,0,0,1,8.85-14.25c23.21-27.77,62.29-32.32,102.79,1.54a68.63,68.63,0,0,0,46.93,15.31c.8,0,1.6-.09,2.4-.15a60.54,60.54,0,0,0,55.2-65.44,68.26,68.26,0,0,0-21.45-44.31c-15.4-13.91-19.61-52.21-1.82-72.84,7.39-8.84,20.87-14.88,23-16a42,42,0,0,0,18.22-19,43.86,43.86,0,0,0,3.66-26.31,48,48,0,0,0-12.14-24.6,49.27,49.27,0,0,0-23.69-14.27,45.8,45.8,0,0,0-26.95,1,42.25,42.25,0,0,0-20.82,16,42.88,42.88,0,0,0-7.37,25.34,47.07,47.07,0,0,0,8.64,25.85c18.06,25.61,17.58,52.32,1.09,72-6.15,7.35-16,12.8-29.34,17.89a58.43,58.43,0,0,0-31.93,26.73,65.16,65.16,0,0,0-3.54,6.65,60.48,60.48,0,0,1-6.11,8.87,64,64,0,0,1-45.47,22.54,71.84,71.84,0,0,1-50.08-16.81c-3.52-2.95-8.09-8.66-10.87-11.35a54.28,54.28,0,0,0-4.29-3.87,83.15,83.15,0,0,0-58.06-19.45,74.16,74.16,0,0,0-52.67,26.2A72.82,72.82,0,0,0,965.21,409Z" transform="translate(-962.91 -181.1)"/></svg>