<svg id="Слой_1" data-name="Слой 1" xmlns="http://www.w3.org/2000/svg" viewBox="0 0 519.1 425.79"><defs><style>.cls-1{fill:#adb3b4;fill-opacity:0.1;}</style></defs><title>shape</title><path class="cls-1" d="M1096.44,173.63c-24.21,7.14-44.42,24.17-56.19,47.33a103.77,103.77,0,0,0-6.59,76.19A66.91,66.91,0,0,0,1036,304c1.7,4.53,6,12.6,7.61,18.11a89.63,89.63,0,0,1-5.66,65.74,79.91,79.91,0,0,1-48.44,40.9,74.5,74.5,0,0,1-13.17,2.6,83.91,83.91,0,0,0-9.37.75,73.07,73.07,0,0,0-46.51,23.3c-12.46,12.82-23.61,21.33-35.1,24.72-30.8,9.09-61.66-3.64-82-37.09A58.87,58.87,0,0,0,778,420.27a53.75,53.75,0,0,0-32.71-4.16A52.76,52.76,0,0,0,716.59,432,57.21,57.21,0,0,0,702,462.36a61.48,61.48,0,0,0,4.57,34.24,60,60,0,0,0,22.15,26.14,54.72,54.72,0,0,0,32,8.91,52.44,52.44,0,0,0,30.63-11.46c2.31-1.83,15.92-14.27,29.74-18.35,32.53-10.12,74.28,13.76,82.56,38.32a85.37,85.37,0,0,0,40.19,46.62,75.65,75.65,0,0,0,103.79-33.34,85.73,85.73,0,0,0,5.79-61.39c-18.66-63.25,6-105.76,49.36-118.56a77.63,77.63,0,0,1,20.73-3.05,57.48,57.48,0,0,1,6,.1,90.2,90.2,0,0,0,38.88-9.65,92.36,92.36,0,0,0,31.16-25.7A98.58,98.58,0,0,0,1217.43,298a104.71,104.71,0,0,0,1.49-42.11,106.24,106.24,0,0,0-15.19-39.56,102.48,102.48,0,0,0-29.19-30,95.78,95.78,0,0,0-38-15.12A90.79,90.79,0,0,0,1096.44,173.63Z" transform="translate(-701.27 -170)"/></svg>