<svg  id="Слой_1" data-name="Слой 1" xmlns="http://www.w3.org/2000/svg" viewBox="0 0 415.54 340.84"><defs><style>.cls-1{fill:#adb3b4;fill-opacity:0.1; }</style></defs><title>shape</title><path class="cls-1" d="M791.22,216a74.16,74.16,0,0,0-45,37.89,83.09,83.09,0,0,0-5.27,61,53.39,53.39,0,0,0,1.84,5.48c1.36,3.62,4.78,10.09,6.08,14.49a71.79,71.79,0,0,1-4.52,52.63,64,64,0,0,1-38.78,32.74A60.86,60.86,0,0,1,695,422.3a67.09,67.09,0,0,0-7.5.6,58.45,58.45,0,0,0-37.24,18.65c-10,10.26-18.9,17.08-28.09,19.79-24.66,7.27-49.36-2.92-65.66-29.69a47.11,47.11,0,0,0-20.27-18.21,42.91,42.91,0,0,0-26.18-3.33,42.19,42.19,0,0,0-23,12.71,45.79,45.79,0,0,0-11.69,24.31,49.23,49.23,0,0,0,3.66,27.41,48,48,0,0,0,17.73,20.93,43.81,43.81,0,0,0,25.59,7.12A42,42,0,0,0,547,493.43c1.85-1.47,12.75-11.43,23.81-14.69,26-8.11,59.46,11,66.09,30.67A68.29,68.29,0,0,0,669,546.73,60.54,60.54,0,0,0,752.11,520a68.64,68.64,0,0,0,4.64-49.14c-14.94-50.64,4.79-84.67,39.51-94.91a62,62,0,0,1,16.59-2.44,45.4,45.4,0,0,1,4.8.08,72.1,72.1,0,0,0,31.13-7.73,73.83,73.83,0,0,0,24.94-20.57,78.67,78.67,0,0,0,14.34-29.79,83.69,83.69,0,0,0,1.2-33.71,85.21,85.21,0,0,0-12.16-31.67,82.07,82.07,0,0,0-23.37-24,76.71,76.71,0,0,0-30.42-12.1A72.73,72.73,0,0,0,791.22,216Z" transform="translate(-474.89 -213.1)"/></svg>