<svg id="Слой_1" data-name="Слой 1" xmlns="http://www.w3.org/2000/svg" xmlns:xlink="http://www.w3.org/1999/xlink" viewBox="0 0 214.22 129.95"><defs><style>.cls-1{fill:none;stroke:#ed6f00;stroke-linecap:round;stroke-width:2px;stroke-dasharray:2 8;opacity:0.4;isolation:isolate;}.cls-2{fill:#ed6f00;}.cls-3{fill:url(#Безымянный_градиент_2);}.cls-4{fill:url(#Безымянный_градиент_2-2);}</style><linearGradient id="Безымянный_градиент_2" x1="583.64" y1="266.59" x2="905.64" y2="40.82" gradientTransform="matrix(1, 0, 0, -1, 0, 770)" gradientUnits="userSpaceOnUse"><stop offset="0" stop-color="#f47920"/><stop offset="0.9" stop-color="#f7bb62" stop-opacity="0.7"/></linearGradient><linearGradient id="Безымянный_градиент_2-2" x1="576.41" y1="276.11" x2="973.98" y2="121.61" xlink:href="#Безымянный_градиент_2"/></defs><title>simba-bg-bottom</title><line class="cls-1" x1="107" y1="29" x2="107" y2="1"/><path class="cls-2" d="M682,484l-5-13h10Z" transform="translate(-575 -443)"/><path class="cls-3" d="M784.28,569.86H683.94v-3.08c0-.92-.78-1.54-1.94-1.54s-2,.62-2,1.54v3.08h-7.78v-3.08c0-.92-.78-1.54-1.95-1.54s-1.94.62-1.94,1.54v3.08H660.6v-3.08c0-.92-.78-1.54-2-1.54s-1.94.62-1.94,1.54v3.08h-7.79v-3.08c0-.92-.77-1.54-1.94-1.54s-2,.62-2,1.54v3.08h-7.78v-3.08c0-.92-.78-1.54-1.94-1.54s-1.95.62-1.95,1.54v3.08h-7.78v-3.08c0-.92-.78-1.54-1.94-1.54s-1.95.62-1.95,1.54v3.08h-7.78v-3.08c0-.92-.78-1.54-1.95-1.54s-1.94.62-1.94,1.54v3.08h-7.79v-3.08c0-.92-.77-1.54-1.94-1.54s-1.94.62-1.94,1.54v3.08h-7.79v-3.08c0-.92-.77-1.54-1.94-1.54s-2,.62-2,1.54v3.08h-8.43V542.22c0-.93-.45-1.54-1.62-1.54s-1.62.61-1.62,1.54v29.19c0,.92.78,1.54,2,1.54H784.28c1.17,0,1.94-.62,1.94-1.54S785.45,569.86,784.28,569.86Z" transform="translate(-575 -443)"/><path class="cls-4" d="M781.73,512.48a7.69,7.69,0,0,0-7.68,7.51,7.13,7.13,0,0,0,1.87,5.08l-15.17,18.59a7.33,7.33,0,0,0-8.43.94l-71.89-26.52a8.45,8.45,0,0,0,.94-3.57,7.5,7.5,0,1,0-15,0,6.78,6.78,0,0,0,1.12,3.76l-68.28,30.3a6.72,6.72,0,0,0-3.74-1.12A7.51,7.51,0,1,0,603,555a6.81,6.81,0,0,0-1.12-3.76l68.28-30.3a7.11,7.11,0,0,0,7.68,0l72.45,26.9a5.14,5.14,0,0,0-.57,2.44,7.5,7.5,0,1,0,15,0,7.41,7.41,0,0,0-1.12-4l15.55-19a5.44,5.44,0,0,0,2.43.38,7.61,7.61,0,0,0,.19-15.22ZM595.48,558.72a3.76,3.76,0,1,1,3.74-3.76A3.77,3.77,0,0,1,595.48,558.72Zm78.39-40.45a3.76,3.76,0,1,1,3.75-3.76A3.76,3.76,0,0,1,673.87,518.27ZM757.19,554a3.76,3.76,0,1,1,3.74-3.76A3.77,3.77,0,0,1,757.19,554Zm24.35-30.06a3.76,3.76,0,1,1,3.75-3.76A3.76,3.76,0,0,1,781.54,523.94Z" transform="translate(-575 -443)"/></svg>