<svg id="Слой_1" data-name="Слой 1" xmlns="http://www.w3.org/2000/svg" viewBox="0 0 770 280"><defs><style>.cls-1{fill:none;stroke:#ed6f00;stroke-linecap:round;stroke-width:2px;stroke-dasharray:2 8;opacity:0.4;}.cls-1,.cls-4{isolation:isolate;}.cls-2{fill:#ed6f00;}.cls-3{fill:#bdbec5;}.cls-4{fill:#fff;stroke:#426ab3;opacity:0.3;}.cls-5{fill:#07306d;}</style></defs><title>simba-bg</title><line class="cls-1" x1="180" y1="269" x2="180" y2="241"/><line class="cls-1" x1="385" y1="266" x2="385" y2="241"/><line class="cls-1" x1="590" y1="266" x2="590" y2="241"/><path class="cls-2" d="M888,524l-5-13h10Z" transform="translate(-298 -244)"/><path class="cls-2" d="M683,524l-5-13h10Z" transform="translate(-298 -244)"/><path class="cls-2" d="M478,524l-5-13h10Z" transform="translate(-298 -244)"/><path class="cls-3" d="M982.31,365.86h-41v-1.17a3.53,3.53,0,0,0-3.52-3.52h-9.37a3.53,3.53,0,0,0-3.52,3.52v7.65a19.9,19.9,0,0,0,2.34,37.17V428a5.87,5.87,0,0,0,5.86,5.86h49.22a3.53,3.53,0,0,0,3.52-3.52V369.38A3.53,3.53,0,0,0,982.31,365.86ZM928.41,387h9.37a3.52,3.52,0,0,0,3.52-3.51v-2.87a12.9,12.9,0,1,1-16.41,0v2.87a3.52,3.52,0,0,0,3.52,3.51Zm-1.18-22.26a1.17,1.17,0,0,1,1.18-1.17h9.37a1.17,1.17,0,0,1,1.17,1.17v18.75a1.17,1.17,0,0,1-1.17,1.17h-9.37a1.18,1.18,0,0,1-1.18-1.17Zm-11.71,25.78a17.49,17.49,0,0,1,9.37-15.53v2.71a15.24,15.24,0,1,0,16.41,0v-2.71a17.57,17.57,0,1,1-25.78,15.53ZM929.58,428V410.06a18.89,18.89,0,0,0,7,0V428a3.52,3.52,0,0,1-7,0Zm53.9,2.34a1.17,1.17,0,0,1-1.17,1.17H937.75A5.81,5.81,0,0,0,939,428V409.51a20,20,0,0,0,13.7-15.31l2.77.36a4.67,4.67,0,1,0,8.45-3.28l2.91-3.43a9.44,9.44,0,1,0-1.81-1.49l-2.9,3.42a4.55,4.55,0,0,0-2-.48,4.68,4.68,0,0,0-4.34,2.94l-2.77-.36c0-.47.08-.94.08-1.41a19.82,19.82,0,0,0-11.72-18.13V368.2h41a1.17,1.17,0,0,1,1.17,1.18ZM962.39,394a2.35,2.35,0,1,1-2.34-2.34A2.35,2.35,0,0,1,962.39,394Zm2.34-14.06a7,7,0,1,1,7,7A7,7,0,0,1,964.73,379.92Z" transform="translate(-298 -244)"/><path class="cls-3" d="M922.55,391.64h2.34V394h-2.34Z" transform="translate(-298 -244)"/><path class="cls-3" d="M927.23,391.64h2.35V394h-2.35Z" transform="translate(-298 -244)"/><path class="cls-3" d="M941.3,391.64h2.34V394H941.3Z" transform="translate(-298 -244)"/><path class="cls-3" d="M931.92,391.64h2.35V394h-2.35Z" transform="translate(-298 -244)"/><path class="cls-3" d="M936.61,391.64H939V394h-2.34Z" transform="translate(-298 -244)"/><path class="cls-3" d="M929.58,365.86h7v2.34h-7Z" transform="translate(-298 -244)"/><path class="cls-3" d="M929.58,370.55h7v2.34h-7Z" transform="translate(-298 -244)"/><path class="cls-3" d="M929.58,375.23h7v2.35h-7Z" transform="translate(-298 -244)"/><path class="cls-3" d="M929.58,379.92h7v2.35h-7Z" transform="translate(-298 -244)"/><path class="cls-3" d="M975.63,376.75l-5,5-1.51-1.52-1.66,1.66,3.17,3.18,6.69-6.69Z" transform="translate(-298 -244)"/><path class="cls-3" d="M975.28,391.64h-7v25.78h-4.69V401h-7v16.4h-4.69v-9.37h-7v9.37h-2.34v2.35h35.16v-2.35h-2.35ZM970.59,394h2.35v23.44h-2.35Zm-11.71,9.38h2.34v14.06h-2.34Zm-11.72,7h2.34v7h-2.34Z" transform="translate(-298 -244)"/><path class="cls-3" d="M942.47,429.14h9.37v-7h-9.37Zm2.34-4.69h4.69v2.35h-4.69Z" transform="translate(-298 -244)"/><path class="cls-3" d="M954.19,429.14h11.72v-7H954.19Zm2.34-4.69h7v2.35h-7Z" transform="translate(-298 -244)"/><path class="cls-3" d="M968.25,429.14h9.38v-7h-9.38Zm2.34-4.69h4.69v2.35h-4.69Z" transform="translate(-298 -244)"/><path class="cls-3" d="M698.58,360.94a3,3,0,0,0-2.18-.94H656.51a3,3,0,0,0-3,3v69a3,3,0,0,0,3,3h52a3,3,0,0,0,3-3V375.81a3,3,0,0,0-.82-2.06Zm-.23,3.14,9.29,9.84h-7.29a2,2,0,0,1-2-2Zm10.82,66.6a2,2,0,0,1-2,2H657.82a2,2,0,0,1-2-2V364.32a2,2,0,0,1,2-2H696v10.92a3,3,0,0,0,3,3h10.14Z" transform="translate(-298 -244)"/><path class="cls-3" d="M704.15,389.54h-43.3v2.32h43.3Z" transform="translate(-298 -244)"/><path class="cls-3" d="M679.41,381.8H660.85v2.32h18.56Z" transform="translate(-298 -244)"/><path class="cls-3" d="M704.15,397.27h-43.3v2.32h43.3Z" transform="translate(-298 -244)"/><path class="cls-3" d="M704.15,405h-43.3v2.32h43.3Z" transform="translate(-298 -244)"/><path class="cls-3" d="M704.15,412.73h-43.3v2.32h43.3Z" transform="translate(-298 -244)"/><path class="cls-3" d="M704.15,420.46h-43.3v2.32h43.3Z" transform="translate(-298 -244)"/><path class="cls-3" d="M429.58,351.94a3,3,0,0,0-2.18-.94H387.5a3,3,0,0,0-3,3v69a3,3,0,0,0,3,3h52a3,3,0,0,0,3-3V366.81a3,3,0,0,0-.81-2.06Zm-.23,3.14,9.29,9.84h-7.29a2,2,0,0,1-2-2Zm10.83,66.6a2,2,0,0,1-2,2H388.82a2,2,0,0,1-2-2V355.32a2,2,0,0,1,2-2H427v10.92a3,3,0,0,0,3,3h10.15Z" transform="translate(-298 -244)"/><path class="cls-3" d="M435.15,380.54h-43.3v2.32h43.3Z" transform="translate(-298 -244)"/><path class="cls-3" d="M410.41,372.8H391.85v2.32h18.56Z" transform="translate(-298 -244)"/><path class="cls-3" d="M435.15,388.27h-43.3v2.32h43.3Z" transform="translate(-298 -244)"/><path class="cls-3" d="M435.15,396h-43.3v2.32h43.3Z" transform="translate(-298 -244)"/><path class="cls-3" d="M435.15,403.73h-43.3v2.32h43.3Z" transform="translate(-298 -244)"/><path class="cls-3" d="M435.15,411.46h-43.3v2.32h43.3Z" transform="translate(-298 -244)"/><rect class="cls-4" x="540.5" y="0.5" width="229" height="239" rx="9.5"/><rect class="cls-4" x="270.5" y="0.5" width="229" height="239" rx="9.5"/><rect class="cls-4" x="0.5" y="0.5" width="229" height="239" rx="9.5"/><path class="cls-5" d="M879.63,310V292.15h14.12V310H890V295.3H883.4V310Zm30.55,0h-3.72V299.15H903a50.2,50.2,0,0,1-.87,6.45,8.4,8.4,0,0,1-1.48,3.55,3.2,3.2,0,0,1-2.55,1.1,4.77,4.77,0,0,1-2.12-.4v-3a3.07,3.07,0,0,0,1.2.25,1.08,1.08,0,0,0,.82-.46,4.56,4.56,0,0,0,.7-1.62,22.32,22.32,0,0,0,.62-3.27c.19-1.42.36-3.23.5-5.43h10.33Zm9.49-13.92a6.39,6.39,0,0,1,4.2,1.2,4.35,4.35,0,0,1,1.47,3.62V310h-2.6l-.72-1.85h-.1a5.77,5.77,0,0,1-1.85,1.6,6,6,0,0,1-2.68.5,4.43,4.43,0,0,1-3-1.05,4.19,4.19,0,0,1-1.2-3.28,3.6,3.6,0,0,1,1.52-3.2,8.67,8.67,0,0,1,4.58-1.14l2.37-.08v-.6a2,2,0,0,0-.57-1.57,2.21,2.21,0,0,0-1.55-.5,6.11,6.11,0,0,0-1.95.3,12.83,12.83,0,0,0-1.9.7l-1.23-2.53a11.1,11.1,0,0,1,2.43-.9A11.73,11.73,0,0,1,919.67,296.08Zm.52,7.64a4.08,4.08,0,0,0-2.5.66A2,2,0,0,0,917,306a1.43,1.43,0,0,0,.5,1.22,2.19,2.19,0,0,0,1.3.36,3.07,3.07,0,0,0,2-.7,2.57,2.57,0,0,0,.82-2v-1.13Zm20.27-4.57H936V310h-3.72V299.15h-4.48v-2.8h12.68Zm12.25-2.87a8.35,8.35,0,0,1,5.42,2.17,6.35,6.35,0,0,1,1.88,4.72,6.52,6.52,0,0,1-1.83,4.75,8.27,8.27,0,0,1-5.47,2.18V316h-3.45v-5.9a8.7,8.7,0,0,1-5.45-2.2,6.34,6.34,0,0,1-1.9-4.73,6.61,6.61,0,0,1,1.77-4.77,8.18,8.18,0,0,1,5.58-2.12V291h3.45Zm-3.45,2.8a3.88,3.88,0,0,0-2.58,1.34,4.14,4.14,0,0,0-.95,2.75,4.24,4.24,0,0,0,.93,2.8,3.83,3.83,0,0,0,2.6,1.31Zm3.45,8.2a3.76,3.76,0,0,0,2.57-1.31,4.33,4.33,0,0,0,.9-2.8,4.11,4.11,0,0,0-.92-2.72,3.75,3.75,0,0,0-2.55-1.32Zm22.78-4.13a7.21,7.21,0,0,1-1.8,5.25,6.41,6.41,0,0,1-4.85,1.85,7.06,7.06,0,0,1-3.4-.82,5.9,5.9,0,0,1-2.32-2.4,8.15,8.15,0,0,1-.85-3.88,7.21,7.21,0,0,1,1.77-5.23,6.51,6.51,0,0,1,4.88-1.82,7,7,0,0,1,3.4.82,5.86,5.86,0,0,1,2.32,2.41A7.79,7.79,0,0,1,975.49,303.15Zm-9.42,0a5.8,5.8,0,0,0,.65,3.07,2.39,2.39,0,0,0,2.17,1,2.32,2.32,0,0,0,2.13-1,5.69,5.69,0,0,0,.67-3.07,5.43,5.43,0,0,0-.67-3,2.76,2.76,0,0,0-4.3,0A5.53,5.53,0,0,0,966.07,303.15Zm20.1-7a4.54,4.54,0,0,1,3.73,1.8,10.35,10.35,0,0,1,0,10.55,4.69,4.69,0,0,1-3.78,1.8,4.54,4.54,0,0,1-2.35-.53,5.55,5.55,0,0,1-1.42-1.22h-.2a11,11,0,0,1,.2,2V316h-3.73V296.35h3l.52,1.78h.18a4.9,4.9,0,0,1,1.47-1.43A4.36,4.36,0,0,1,986.17,296.1Zm-1.2,3a2.29,2.29,0,0,0-2.05.89,5.53,5.53,0,0,0-.62,2.75v.41a6.58,6.58,0,0,0,.57,3,2.25,2.25,0,0,0,2.15,1.05,2,2,0,0,0,1.88-1.05,6.24,6.24,0,0,0,.62-3.07Q987.52,299.08,985,299.08Zm26.62-2.73V310h-3.47v-6.7c0-.67,0-1.32,0-1.95s.08-1.22.13-1.75h-.08l-3.77,10.4h-2.8l-3.83-10.42h-.1c.07.55.11,1.14.13,1.77s0,1.3,0,2V310h-3.48V296.35h5.28l3.4,9.25,3.45-9.25Zm9.5-.27a6.34,6.34,0,0,1,4.19,1.2,4.33,4.33,0,0,1,1.48,3.62V310h-2.6l-.73-1.85h-.09a5.79,5.79,0,0,1-1.86,1.6,5.93,5.93,0,0,1-2.67.5,4.45,4.45,0,0,1-3-1.05,4.18,4.18,0,0,1-1.19-3.28,3.58,3.58,0,0,1,1.52-3.2,8.66,8.66,0,0,1,4.57-1.14l2.38-.08v-.6a1.94,1.94,0,0,0-.58-1.57,2.17,2.17,0,0,0-1.55-.5,6.2,6.2,0,0,0-1.95.3,13.14,13.14,0,0,0-1.89.7l-1.23-2.53a11,11,0,0,1,2.42-.9A11.81,11.81,0,0,1,1021.09,296.08Zm.52,7.64a4.08,4.08,0,0,0-2.5.66,2,2,0,0,0-.7,1.57,1.43,1.43,0,0,0,.5,1.22,2.17,2.17,0,0,0,1.3.36,3,3,0,0,0,2-.7,2.57,2.57,0,0,0,.83-2v-1.13ZM871.78,333a5.32,5.32,0,0,1-.67,2.62,4.81,4.81,0,0,1-2.08,2,7.44,7.44,0,0,1-3.55.75h-2.92V345h-3.5V327.55h6.42a7.72,7.72,0,0,1,3.45.7,4.84,4.84,0,0,1,2.13,1.93A5.35,5.35,0,0,1,871.78,333Zm-6.45,2.52a3,3,0,0,0,2.15-.65,2.44,2.44,0,0,0,.7-1.87q0-2.55-2.85-2.55h-2.77v5.07Zm12.44-2.17A4.75,4.75,0,0,1,882,331v3.68h-.93a2.9,2.9,0,0,0-3.32,3.47V345h-3.5V331.15h3.5Zm12.76,11.92a7.38,7.38,0,0,1-3.6-.87,6.54,6.54,0,0,1-2.53-2.53,7.59,7.59,0,0,1-.9-3.75,7.45,7.45,0,0,1,.93-3.75,6.57,6.57,0,0,1,2.57-2.5,7.83,7.83,0,0,1,7.25,0,6.45,6.45,0,0,1,2.55,2.5,7.36,7.36,0,0,1,1,3.75,7.13,7.13,0,0,1-1,3.75,6.65,6.65,0,0,1-2.6,2.53A7.63,7.63,0,0,1,890.53,345.22Zm0-3a3.54,3.54,0,0,0,1.77-.46,3.32,3.32,0,0,0,1.35-1.4,4.68,4.68,0,0,0,.5-2.25,4.09,4.09,0,0,0-1-3,3.49,3.49,0,0,0-5.05,0,4.2,4.2,0,0,0-1,3,4.41,4.41,0,0,0,1,3.06A3.34,3.34,0,0,0,890.53,342.18Zm8.89-4.11a7.75,7.75,0,0,1,.87-3.75,6.22,6.22,0,0,1,2.43-2.5,6.91,6.91,0,0,1,3.55-.89,6.78,6.78,0,0,1,4.25,1.29,6.2,6.2,0,0,1,2.27,3.6H909a2.61,2.61,0,0,0-1-1.39,2.76,2.76,0,0,0-1.75-.53,2.87,2.87,0,0,0-2.37,1.1,4.72,4.72,0,0,0-.88,3.07,4.79,4.79,0,0,0,.88,3.08,2.87,2.87,0,0,0,2.37,1.07,2.65,2.65,0,0,0,2.78-1.9h3.77a6.38,6.38,0,0,1-2.27,3.58,6.71,6.71,0,0,1-4.25,1.32,7.1,7.1,0,0,1-3.55-.87,6.35,6.35,0,0,1-2.43-2.5A7.87,7.87,0,0,1,899.42,338.07Zm28.81-.29a8,8,0,0,1-.1,1.35H918a3.38,3.38,0,0,0,1,2.34,3.2,3.2,0,0,0,2.27.85,2.86,2.86,0,0,0,2.78-1.67h3.77a6.36,6.36,0,0,1-2.3,3.3,6.74,6.74,0,0,1-4.17,1.27,7.38,7.38,0,0,1-3.6-.87,6.42,6.42,0,0,1-2.48-2.53,8.56,8.56,0,0,1,0-7.52,6.15,6.15,0,0,1,2.45-2.5,7.38,7.38,0,0,1,3.63-.87,7.16,7.16,0,0,1,3.52.85,5.84,5.84,0,0,1,2.43,2.42A7.19,7.19,0,0,1,928.23,337.78Zm-3.62-1a2.73,2.73,0,0,0-1-2.15,3.37,3.37,0,0,0-2.32-.83,3.2,3.2,0,0,0-2.2.8,3.45,3.45,0,0,0-1.08,2.18Zm11.48,8.44a7.41,7.41,0,0,1-3.05-.59,5.61,5.61,0,0,1-2.15-1.68,4.25,4.25,0,0,1-.85-2.32h3.52a2,2,0,0,0,.78,1.32,2.77,2.77,0,0,0,1.72.52,2.58,2.58,0,0,0,1.55-.4,1.2,1.2,0,0,0,.58-1,1.07,1.07,0,0,0-.7-1,12.21,12.21,0,0,0-2.18-.75,20.64,20.64,0,0,1-2.55-.77,4.56,4.56,0,0,1-1.7-1.23,3.31,3.31,0,0,1-.7-2.23A3.69,3.69,0,0,1,931,333a4.58,4.58,0,0,1,1.9-1.5,7.33,7.33,0,0,1,2.93-.54,5.88,5.88,0,0,1,3.95,1.25,4.53,4.53,0,0,1,1.62,3.32h-3.35a1.75,1.75,0,0,0-.7-1.3,2.47,2.47,0,0,0-1.62-.5,2.68,2.68,0,0,0-1.48.35,1.13,1.13,0,0,0-.5,1,1.17,1.17,0,0,0,.7,1.07,11.9,11.9,0,0,0,2.18.72,17.83,17.83,0,0,1,2.47.78,4.26,4.26,0,0,1,1.68,1.25,3.34,3.34,0,0,1,.75,2.2,3.62,3.62,0,0,1-.68,2.15,4.4,4.4,0,0,1-1.9,1.5A7.21,7.21,0,0,1,936.09,345.22Zm13.62,0a7.44,7.44,0,0,1-3.05-.59,5.61,5.61,0,0,1-2.15-1.68,4.25,4.25,0,0,1-.85-2.32h3.52A2,2,0,0,0,948,342a2.79,2.79,0,0,0,1.72.52,2.56,2.56,0,0,0,1.55-.4,1.17,1.17,0,0,0,.58-1,1.06,1.06,0,0,0-.7-1,12.21,12.21,0,0,0-2.18-.75,19.91,19.91,0,0,1-2.54-.77,4.59,4.59,0,0,1-1.71-1.23,3.36,3.36,0,0,1-.7-2.23,3.63,3.63,0,0,1,.66-2.1,4.61,4.61,0,0,1,1.89-1.5,7.37,7.37,0,0,1,2.93-.54,5.87,5.87,0,0,1,3.95,1.25A4.53,4.53,0,0,1,955,335.5h-3.35a1.72,1.72,0,0,0-.7-1.3,2.45,2.45,0,0,0-1.62-.5,2.64,2.64,0,0,0-1.47.35,1.11,1.11,0,0,0-.5,1,1.17,1.17,0,0,0,.7,1.07,11.74,11.74,0,0,0,2.17.72,17.4,17.4,0,0,1,2.47.78,4.19,4.19,0,0,1,1.68,1.25,3.34,3.34,0,0,1,.75,2.2,3.62,3.62,0,0,1-.68,2.15,4.37,4.37,0,0,1-1.89,1.5A7.3,7.3,0,0,1,949.71,345.22ZM983,327.55V345h-3.5V333.65L974.84,345h-2.65l-4.7-11.35V345H964V327.55h4l5.55,13,5.55-13Zm5.23,1.95a2.21,2.21,0,0,1-1.55-.57,2,2,0,0,1-.6-1.48,1.92,1.92,0,0,1,.6-1.45,2.15,2.15,0,0,1,1.55-.6,2.07,2.07,0,0,1,1.53.6,1.9,1.9,0,0,1,.62,1.45,2,2,0,0,1-.62,1.48A2.13,2.13,0,0,1,988.25,329.5Zm1.72,1.65V345h-3.5V331.15Zm11.14-.2a5.29,5.29,0,0,1,4,1.58,5.91,5.91,0,0,1,1.52,4.35V345h-3.5v-7.65a3.57,3.57,0,0,0-.82-2.53,2.89,2.89,0,0,0-2.25-.89,3,3,0,0,0-2.3.89,3.57,3.57,0,0,0-.83,2.53V345h-3.5V331.15h3.5v1.73a4.85,4.85,0,0,1,1.78-1.41A5.62,5.62,0,0,1,1001.11,331Zm10.63-1.45a2.2,2.2,0,0,1-1.55-.57,2,2,0,0,1-.6-1.48,1.92,1.92,0,0,1,.6-1.45,2.13,2.13,0,0,1,1.55-.6,2.07,2.07,0,0,1,1.52.6,1.88,1.88,0,0,1,.63,1.45,2,2,0,0,1-.63,1.48A2.12,2.12,0,0,1,1011.74,329.5Zm1.72,1.65V345H1010V331.15Zm11.13-.2a5.27,5.27,0,0,1,4,1.58,5.92,5.92,0,0,1,1.53,4.35V345h-3.5v-7.65a3.57,3.57,0,0,0-.83-2.53,2.89,2.89,0,0,0-2.25-.89,3,3,0,0,0-2.3.89,3.61,3.61,0,0,0-.82,2.53V345h-3.5V331.15h3.5v1.73a4.85,4.85,0,0,1,1.78-1.41A5.61,5.61,0,0,1,1024.59,331Zm14.28,0a5.67,5.67,0,0,1,2.73.62,4.86,4.86,0,0,1,1.85,1.58v-2H1047v14a7.34,7.34,0,0,1-.77,3.43,5.73,5.73,0,0,1-2.33,2.4,7.33,7.33,0,0,1-3.75.89,8.06,8.06,0,0,1-4.85-1.37,5.13,5.13,0,0,1-2.12-3.75h3.47a2.6,2.6,0,0,0,1.18,1.5,4.15,4.15,0,0,0,2.22.58,3.4,3.4,0,0,0,2.48-.93,3.64,3.64,0,0,0,1-2.75V343a5.26,5.26,0,0,1-1.88,1.62,5.4,5.4,0,0,1-2.7.65,5.89,5.89,0,0,1-3.2-.9,6.46,6.46,0,0,1-2.3-2.52,8.33,8.33,0,0,1-.82-3.77,8.13,8.13,0,0,1,.82-3.73,6.29,6.29,0,0,1,2.28-2.5A6.12,6.12,0,0,1,1038.87,330.93Zm4.58,7.14a4.43,4.43,0,0,0-.5-2.17,3.51,3.51,0,0,0-1.35-1.4,3.64,3.64,0,0,0-3.63,0,3.67,3.67,0,0,0-1.35,1.41,4.35,4.35,0,0,0-.5,2.15,4.65,4.65,0,0,0,.5,2.19,3.8,3.8,0,0,0,1.35,1.43,3.54,3.54,0,0,0,1.8.5,3.52,3.52,0,0,0,3.18-1.87A4.62,4.62,0,0,0,1043.45,338.07Z" transform="translate(-298 -244)"/><path class="cls-5" d="M672.34,325l-3.78-5.87L665.14,325h-3.95l5.5-8.8-5.58-8.65h4l3.77,5.85,3.4-5.85h4l-5.47,8.77,5.57,8.68Zm10.18-14.62v4.37h5.88v2.78h-5.88v4.62h6.63V325H679V307.53h10.13v2.85Zm15.84,14.8a8.38,8.38,0,0,1-3.31-.63,5.43,5.43,0,0,1-2.29-1.8,4.74,4.74,0,0,1-.88-2.78h3.75a2.47,2.47,0,0,0,.75,1.71,2.79,2.79,0,0,0,1.9.62,2.88,2.88,0,0,0,1.92-.58,1.92,1.92,0,0,0,.7-1.54,1.76,1.76,0,0,0-.47-1.28,3.22,3.22,0,0,0-1.2-.77,17.93,17.93,0,0,0-2-.66,22,22,0,0,1-2.77-1,5.05,5.05,0,0,1-1.83-1.47,4.34,4.34,0,0,1-.75-2.65,4.73,4.73,0,0,1,.77-2.7,4.9,4.9,0,0,1,2.18-1.76,7.87,7.87,0,0,1,3.2-.62,6.78,6.78,0,0,1,4.37,1.33,4.79,4.79,0,0,1,1.88,3.65h-3.85a1.93,1.93,0,0,0-.78-1.48,2.76,2.76,0,0,0-1.87-.6,2.55,2.55,0,0,0-1.65.52,1.92,1.92,0,0,0-.6,1.53,1.65,1.65,0,0,0,.45,1.18,4.57,4.57,0,0,0,1.15.75c.47.18,1.12.39,2,.64a21.5,21.5,0,0,1,2.77,1,5.15,5.15,0,0,1,1.86,1.5,4.23,4.23,0,0,1,.77,2.63,4.89,4.89,0,0,1-.73,2.6,5.15,5.15,0,0,1-2.12,1.92A7.29,7.29,0,0,1,698.36,325.18Z" transform="translate(-298 -244)"/><path class="cls-5" d="M386.61,310.38v4.37h5.87v2.78h-5.87v4.62h6.62V325H383.11V307.53h10.12v2.85ZM404.06,325l-2.85-4.3-2.52,4.3h-3.75l4.52-6.95-4.57-6.9h3.95l2.82,4.28,2.55-4.28H408l-4.55,6.9L408,325Zm4.95-6.93a7.75,7.75,0,0,1,.88-3.75,6.16,6.16,0,0,1,2.43-2.5,6.9,6.9,0,0,1,3.54-.89,6.74,6.74,0,0,1,4.25,1.29,6.17,6.17,0,0,1,2.28,3.6h-3.78a2.59,2.59,0,0,0-1-1.39,2.78,2.78,0,0,0-1.75-.53,2.9,2.9,0,0,0-2.38,1.1,4.78,4.78,0,0,0-.87,3.07,4.85,4.85,0,0,0,.87,3.08,2.91,2.91,0,0,0,2.38,1.07,2.64,2.64,0,0,0,2.77-1.9h3.78a6.34,6.34,0,0,1-2.28,3.58,6.7,6.7,0,0,1-4.25,1.32,7.09,7.09,0,0,1-3.54-.87,6.29,6.29,0,0,1-2.43-2.5A7.87,7.87,0,0,1,409,318.07Zm28.82-.29a8,8,0,0,1-.1,1.35H427.6a3.46,3.46,0,0,0,1,2.34,3.24,3.24,0,0,0,2.28.85,2.84,2.84,0,0,0,2.77-1.67h3.78a6.42,6.42,0,0,1-2.3,3.3,6.77,6.77,0,0,1-4.18,1.27,7.43,7.43,0,0,1-3.6-.87,6.4,6.4,0,0,1-2.47-2.53,8.47,8.47,0,0,1,0-7.52,6.09,6.09,0,0,1,2.45-2.5,7.37,7.37,0,0,1,3.62-.87,7.17,7.17,0,0,1,3.53.85A5.76,5.76,0,0,1,437,314.2,7.09,7.09,0,0,1,437.83,317.78Zm-3.63-1a2.72,2.72,0,0,0-1-2.15,3.38,3.38,0,0,0-2.33-.83,3.22,3.22,0,0,0-2.2.8,3.44,3.44,0,0,0-1.07,2.18Zm9.68-10.28V325h-3.5V306.5Z" transform="translate(-298 -244)"/></svg>