<svg id="Слой_1" data-name="Слой 1" xmlns="http://www.w3.org/2000/svg" xmlns:xlink="http://www.w3.org/1999/xlink" viewBox="0 0 100 100"><defs><style>.cls-1{fill:url(#Безымянный_градиент_9);}.cls-2{fill:url(#Безымянный_градиент_9-2);}.cls-3{fill:url(#Безымянный_градиент_9-3);}.cls-4{fill:url(#Безымянный_градиент_9-4);}.cls-5{fill:url(#Безымянный_градиент_9-5);}.cls-6{fill:url(#Безымянный_градиент_9-6);}.cls-7{fill:url(#Безымянный_градиент_9-7);}.cls-8{fill:url(#Безымянный_градиент_9-8);}.cls-9{fill:url(#Безымянный_градиент_9-9);}</style><linearGradient id="Безымянный_градиент_9" x1="657.55" y1="414.1" x2="750.55" y2="317.1" gradientTransform="matrix(1, 0, 0, -1, 0, 770)" gradientUnits="userSpaceOnUse"><stop offset="0" stop-color="#f7bb62"/><stop offset="0.5" stop-color="#f47920"/><stop offset="1" stop-color="#e56102"/></linearGradient><linearGradient id="Безымянный_градиент_9-2" x1="647.52" y1="345.68" x2="647.52" y2="342.45" xlink:href="#Безымянный_градиент_9"/><linearGradient id="Безымянный_градиент_9-3" x1="653.97" y1="345.68" x2="653.97" y2="342.45" xlink:href="#Безымянный_градиент_9"/><linearGradient id="Безымянный_градиент_9-4" x1="668.48" y1="387.61" x2="668.48" y2="384.39" xlink:href="#Безымянный_градиент_9"/><linearGradient id="Безымянный_градиент_9-5" x1="686.23" y1="387.61" x2="686.23" y2="384.39" xlink:href="#Безымянный_градиент_9"/><linearGradient id="Безымянный_градиент_9-6" x1="697.52" y1="368.26" x2="697.52" y2="365.03" xlink:href="#Безымянный_градиент_9"/><linearGradient id="Безымянный_градиент_9-7" x1="679.77" y1="368.26" x2="679.77" y2="365.03" xlink:href="#Безымянный_градиент_9"/><linearGradient id="Безымянный_градиент_9-8" x1="683" y1="374.71" x2="683" y2="371.48" xlink:href="#Безымянный_градиент_9"/><linearGradient id="Безымянный_градиент_9-9" x1="683" y1="381.16" x2="683" y2="377.94" xlink:href="#Безымянный_градиент_9"/></defs><title>solution-1</title><path class="cls-1" d="M721.71,356.58a11.29,11.29,0,1,0-11.16-12.9h-55.1a11.28,11.28,0,1,0-9.05,12.7l3.21,6.77a8,8,0,0,0-6.93,8v46.77h-4.84v8.07A8.07,8.07,0,0,0,645.9,434h74.2a8.07,8.07,0,0,0,8.06-8.06v-8.07h-4.84V371.1a8.05,8.05,0,0,0-7.45-8l3.09-6.86A11.32,11.32,0,0,0,721.71,356.58Zm-77.42-19.35c-4.45,0-8.29,3.27-8.06,8.06a8.06,8.06,0,0,1,16.12,0C652.61,340,648.74,337.23,644.29,337.23Zm1.61,33.87a4.84,4.84,0,0,1,4.84-4.84h.34l1.53,3.22h-.26a3.23,3.23,0,0,0-3.22,3.23v45.16H645.9Zm27.42-1.62h-7.39l7.39-7.39Zm-6.45,3.23v6.45h32.26V363H676.55v-3.22h25.8v48.38h-38.7V372.71Zm-5.51-3.23h-5.18l-1.53-3.22h9.94Zm-.94,3.23v5.73l-2.72-5.73Zm0,13.26v25.45h45.16V386l6-13.25h2.11v45.16H695.9v3.23h3.23v1.61a1.61,1.61,0,0,1-1.61,1.61h-29a1.61,1.61,0,0,1-1.61-1.61V421.1h25.81v-3.23H652.35V372.71h1.79ZM708,372.71l-2.42,5.39v-5.39Zm-2.42-3.23v-3.22h5.33l-1.45,3.22Zm19.36,51.62v4.84a4.85,4.85,0,0,1-4.84,4.83H645.9a4.85,4.85,0,0,1-4.84-4.83V421.1h22.59v1.61a4.84,4.84,0,0,0,4.83,4.84h29a4.84,4.84,0,0,0,4.83-4.84V421.1Zm-4.84-50v46.77h-3.23V372.71a3.23,3.23,0,0,0-3.22-3.23H713l1.45-3.22h.81A4.84,4.84,0,0,1,720.1,371.1ZM712.36,363h-6.78v-6.45H674.27L667.82,363h-14.7l-3.66-7.72a11.3,11.3,0,0,0,6-8.41h55.1A11.31,11.31,0,0,0,716,355Zm1.29-17.74a8.06,8.06,0,1,1,16.12,0c0-5.79-3.61-8.06-8.06-8.06S713,339.5,713.65,345.29Z" transform="translate(-633 -334)"/><path class="cls-2" d="M649.13,424.32H645.9v3.23h3.23Z" transform="translate(-633 -334)"/><path class="cls-3" d="M655.58,424.32h-3.22v3.23h3.22Z" transform="translate(-633 -334)"/><path class="cls-4" d="M670.1,382.39h-3.23v3.22h3.23Z" transform="translate(-633 -334)"/><path class="cls-5" d="M699.13,382.39H673.32v3.22h25.81Z" transform="translate(-633 -334)"/><path class="cls-6" d="M699.13,401.74H695.9V405h3.23Z" transform="translate(-633 -334)"/><path class="cls-7" d="M692.68,401.74H666.87V405h25.81Z" transform="translate(-633 -334)"/><path class="cls-8" d="M699.13,395.29H666.87v3.23h32.26Z" transform="translate(-633 -334)"/><path class="cls-9" d="M699.13,388.84H666.87v3.22h32.26Z" transform="translate(-633 -334)"/></svg>