<svg id="Слой_1" data-name="Слой 1" xmlns="http://www.w3.org/2000/svg" viewBox="0 0 721.06 633.8"><defs><style>.cls-1{fill:#fff;}.cls-2{fill:#426ab3;}</style></defs><title>solution-pyramid</title><path class="cls-1" d="M321.94,578.94,426.82,407.35l98,83.41,382.47-35.61L1043,647.75,469.94,701.11Z" transform="translate(-321.94 -67.31)"/><path class="cls-2" d="M426.56,408.81l209.13-37.15L907.39,456,524.48,491.65Z" transform="translate(-321.94 -67.31)"/><path class="cls-1" d="M444.09,379.05,507.68,275.3l59.37,50.41,231.8-21.58,82.23,116.42L533.77,452.88Z" transform="translate(-321.94 -67.31)"/><path class="cls-2" d="M507.51,275.18,634.06,252.7l164.41,51L566.76,325.29Z" transform="translate(-321.94 -67.31)"/><path class="cls-1" d="M524.92,244.17l36.36-59.48L633.62,67.31l94.18,134,47,66.76L576.22,286.51Z" transform="translate(-321.94 -67.31)"/></svg>