<svg id="Слой_1" data-name="Слой 1" xmlns="http://www.w3.org/2000/svg" xmlns:xlink="http://www.w3.org/1999/xlink" viewBox="0 0 104 104"><defs><style>.cls-1{fill:url(#Безымянный_градиент_2);}.cls-2{fill:#d56412;}.cls-3{fill:#d36312;}.cls-4{fill:#d66513;}</style><linearGradient id="Безымянный_градиент_2" x1="654.52" y1="425.48" x2="716.28" y2="321.68" gradientTransform="matrix(1, 0, 0, -1, 0, 770)" gradientUnits="userSpaceOnUse"><stop offset="0" stop-color="#f7bb62"/><stop offset="0.46" stop-color="#f47920"/><stop offset="0.47" stop-color="#f47920"/><stop offset="0.8" stop-color="#ec690a"/><stop offset="1" stop-color="#e26206"/></linearGradient></defs><title>solution-3</title><path class="cls-1" d="M726.61,358.84H709.84a10.07,10.07,0,1,0-20.13,0H667.87a16.78,16.78,0,1,0-26.77,0h-1.71a8.39,8.39,0,0,0-8.39,8.39v50.32a8.4,8.4,0,0,0,8.39,8.39h18.45v6.7h-6.71V436h63.74v-3.36h-6.71v-6.7h18.45a8.4,8.4,0,0,0,8.39-8.39V367.23A8.39,8.39,0,0,0,726.61,358.84Zm-26.84-6.71a6.72,6.72,0,0,1,6.71,6.71c1-5.84-3-6.71-6.71-6.71s-6.27.87-6.71,6.71A6.72,6.72,0,0,1,699.77,352.13Zm-9.47,10.06a10.06,10.06,0,0,0,2.08,3.46l-14,15.39A13.29,13.29,0,0,0,667,379.66l-5.67-15.61a16.68,16.68,0,0,0,3.18-1.89v0Zm-9,30.2c-.33-7.89-4.51-10.07-10.06-10.07S660,383.5,661.19,392.39c.31-5.39,4.52-10.07,10.07-10.07S679.93,386.5,681.32,392.39Zm-40.26-43.62a13.42,13.42,0,1,1,26.84,0c7.6-6.27-6-13.42-13.42-13.42S638.5,338.5,641.06,348.77Zm63.75,83.87H661.19v-6.7h43.62Zm26.83-15.09a5,5,0,0,1-5,5H639.39a5,5,0,0,1-5-5v-1.68h97.29Zm0-5H634.35V367.23a5,5,0,0,1,5-5h5v0a16.63,16.63,0,0,0,10.06,3.39,16.81,16.81,0,0,0,3.71-.43l5.81,16a13.43,13.43,0,1,0,17,2.06l14-15.46a10,10,0,0,0,10.71-.79l10,8.77a6.62,6.62,0,0,0-.89,3.28,6.76,6.76,0,1,0,3.22-5.71l-10-8.75a9.72,9.72,0,0,0,1.17-2.32h17.36a5,5,0,0,1,5,5ZM718.23,379a3.36,3.36,0,1,1,6.71,0c.56-2.47-1.51-3.36-3.36-3.36S716.5,376,718.23,379Z" transform="translate(-631 -332)"/><path class="cls-2" d="M728.29,405.81h-3.35v3.35h3.35Z" transform="translate(-631 -332)"/><path class="cls-3" d="M721.58,405.81H708.16v3.35h13.42Z" transform="translate(-631 -332)"/><path class="cls-4" d="M728.29,399.1H708.16v3.35h20.13Z" transform="translate(-631 -332)"/></svg>