<svg id="Слой_1" data-name="Слой 1" xmlns="http://www.w3.org/2000/svg" xmlns:xlink="http://www.w3.org/1999/xlink" viewBox="0 0 123.95 89.28"><defs><style>.cls-1{fill:url(#Безымянный_градиент_2);}</style><linearGradient id="Безымянный_градиент_2" x1="752.51" y1="381.4" x2="563.48" y2="395.9" gradientTransform="matrix(1, 0, 0, -1, 0, 770)" gradientUnits="userSpaceOnUse"><stop offset="0" stop-color="#4b79ce"/><stop offset="0.41" stop-color="#426ab3"/><stop offset="1" stop-color="#2b4a81"/></linearGradient></defs><title>solution-page-item-blue</title><path class="cls-1" d="M743,409.69a13.32,13.32,0,0,0-4.47-5.42,18.33,18.33,0,0,0-2.45-1.35c-1-.47-1.6-.62-2.37-.94a19,19,0,0,1-4-2.2,15,15,0,0,1-3.59-3.8c-1.8-2.71-2.16-5.24-2.53-7.94-.35-2.53-.56-4,.06-5.85a17.24,17.24,0,0,1,2.26-4.05c1.41-2.16,1.68-2.13,2.6-3.71a17.35,17.35,0,0,0,2-4.58,16.21,16.21,0,0,0,.41-5.12,20.29,20.29,0,0,0-1-5.35,17.45,17.45,0,0,0-3-5.61,18.2,18.2,0,0,0-4.06-3.7,21,21,0,0,0-6.16-2.85,19.8,19.8,0,0,0-5-.68,18.62,18.62,0,0,0-12.15,4.25c-2.37,1.8-2.11,2.27-4.49,4.22a27.76,27.76,0,0,1-6.55,3.9,17.65,17.65,0,0,1-6.92,1.81,18.45,18.45,0,0,1-5.41-.82,17.89,17.89,0,0,1-8.7-4.86,37.14,37.14,0,0,1-3.28-4.17c-2.82-3.83-2.74-3.95-3.6-4.85a20.32,20.32,0,0,0-5-3.8,22.66,22.66,0,0,0-7.62-2.89,21.74,21.74,0,0,0-6.82-.1,24.17,24.17,0,0,0-11.58,4.36,21.32,21.32,0,0,0-8.41,11.56,21.79,21.79,0,0,0-1,6.07,21.5,21.5,0,0,0,1,6.57,21.12,21.12,0,0,0,2.84,6.3,23.09,23.09,0,0,0,4.71,5,24.18,24.18,0,0,0,5.66,3.34,25.2,25.2,0,0,0,8.81,1.84,21.32,21.32,0,0,0,7.71-.92,22.34,22.34,0,0,0,7.24-4.05c1.31-1.12,1.14-1.24,4.84-5.1a53.16,53.16,0,0,1,4-3.93,18.63,18.63,0,0,1,8.44-3.58,19.75,19.75,0,0,1,5.35-.08,18.47,18.47,0,0,1,6.91,1.81c2.41,1.23,3.87,2.79,6.48,5.57,1.66,1.75,1.63,2,3.15,3.5a24.4,24.4,0,0,0,5,4c.69.39.71.34,6.86,2.71a22.52,22.52,0,0,1,5,2.25,15,15,0,0,1,3.2,2.73,15.64,15.64,0,0,1,3.11,5.63,16.69,16.69,0,0,1,.79,4.37,17.76,17.76,0,0,1-1,6.44c-1,2.95-1.74,2.78-2.46,5.31a12.88,12.88,0,0,0,3.15,13.13,14.32,14.32,0,0,0,5.85,3.49,13.42,13.42,0,0,0,7.32.38,13,13,0,0,0,6.19-3.69,13.77,13.77,0,0,0,3.31-5.34,12.81,12.81,0,0,0,.58-5.14A14.8,14.8,0,0,0,743,409.69Z" transform="translate(-620.22 -339.01)"/></svg>