<svg id="Слой_1" data-name="Слой 1" xmlns="http://www.w3.org/2000/svg" xmlns:xlink="http://www.w3.org/1999/xlink" viewBox="0 0 55 55"><defs><style>.cls-1{fill:none;}.cls-2{clip-path:url(#clip-path);}.cls-3{fill:url(#Безымянный_градиент_17);}.cls-4{fill:url(#Безымянный_градиент_17-2);}.cls-5{fill:url(#Безымянный_градиент_17-3);}.cls-6{fill:url(#Безымянный_градиент_17-4);}.cls-7{fill:url(#Безымянный_градиент_17-5);}.cls-8{fill:url(#Безымянный_градиент_17-6);}.cls-9{fill:url(#Безымянный_градиент_17-7);}.cls-10{fill:url(#Безымянный_градиент_17-8);}.cls-11{fill:url(#Безымянный_градиент_17-9);}.cls-12{fill:url(#Безымянный_градиент_17-10);}.cls-13{fill:url(#Безымянный_градиент_17-11);}.cls-14{fill:url(#Безымянный_градиент_17-12);}.cls-15{fill:url(#Безымянный_градиент_17-13);}.cls-16{fill:url(#Безымянный_градиент_17-14);}.cls-17{fill:url(#Безымянный_градиент_17-15);}.cls-18{fill:url(#Безымянный_градиент_17-16);}.cls-19{fill:url(#Безымянный_градиент_17-17);}</style><clipPath id="clip-path" transform="translate(-655 -356)"><rect class="cls-1" x="655" y="356" width="55" height="55"/></clipPath><linearGradient id="Безымянный_градиент_17" x1="686.08" y1="365.3" x2="720.86" y2="383.8" gradientTransform="matrix(1, 0, 0, -1, 0, 770)" gradientUnits="userSpaceOnUse"><stop offset="0" stop-color="#4b79ce"/><stop offset="0.41" stop-color="#426ab3"/><stop offset="1" stop-color="#2b4a81"/></linearGradient><linearGradient id="Безымянный_градиент_17-2" x1="691.01" y1="367.92" x2="710.88" y2="378.49" xlink:href="#Безымянный_градиент_17"/><linearGradient id="Безымянный_градиент_17-3" x1="694.29" y1="369.67" x2="704.23" y2="374.96" xlink:href="#Безымянный_градиент_17"/><linearGradient id="Безымянный_градиент_17-4" x1="672.21" y1="393.89" x2="705.21" y2="407.05" xlink:href="#Безымянный_градиент_17"/><linearGradient id="Безымянный_градиент_17-5" x1="654.84" y1="366.84" x2="682.15" y2="378.01" xlink:href="#Безымянный_градиент_17"/><linearGradient id="Безымянный_градиент_17-6" x1="663.31" y1="375.82" x2="665.02" y2="381.28" xlink:href="#Безымянный_градиент_17"/><linearGradient id="Безымянный_градиент_17-7" x1="658.61" y1="373.64" x2="661.1" y2="374.96" xlink:href="#Безымянный_градиент_17"/><linearGradient id="Безымянный_градиент_17-8" x1="664.88" y1="372.46" x2="667.19" y2="377.37" xlink:href="#Безымянный_градиент_17"/><linearGradient id="Безымянный_градиент_17-9" x1="663.31" y1="368.73" x2="665.02" y2="374.18" xlink:href="#Безымянный_градиент_17"/><linearGradient id="Безымянный_градиент_17-10" x1="663.31" y1="365.18" x2="665.02" y2="370.64" xlink:href="#Безымянный_градиент_17"/><linearGradient id="Безымянный_градиент_17-11" x1="667.48" y1="363" x2="669.97" y2="364.32" xlink:href="#Безымянный_градиент_17"/><linearGradient id="Безымянный_градиент_17-12" x1="661.33" y1="361.81" x2="663.64" y2="366.72" xlink:href="#Безымянный_градиент_17"/><linearGradient id="Безымянный_градиент_17-13" x1="673.94" y1="368.89" x2="686.79" y2="377.17" xlink:href="#Безымянный_градиент_17"/><linearGradient id="Безымянный_градиент_17-14" x1="662.3" y1="393.68" x2="679.46" y2="397.9" xlink:href="#Безымянный_градиент_17"/><linearGradient id="Безымянный_градиент_17-15" x1="691.66" y1="392.67" x2="708.58" y2="398.09" xlink:href="#Безымянный_градиент_17"/><linearGradient id="Безымянный_градиент_17-16" x1="660.58" y1="384.75" x2="670.52" y2="390.04" xlink:href="#Безымянный_градиент_17"/><linearGradient id="Безымянный_градиент_17-17" x1="695.07" y1="393.51" x2="705.01" y2="398.8" xlink:href="#Безымянный_градиент_17"/></defs><title>solution-cdpp-icon-rec-3</title><g class="cls-2"><path class="cls-3" d="M710,401.93v-6.7l-2.57-.66a1.12,1.12,0,0,0,0-.13l1.35-2.27L704,387.43l-2.27,1.35-.13,0-.66-2.57h-6.7l-.66,2.57-.13,0-2.27-1.35-4.74,4.74,1.35,2.28a.5.5,0,0,0,0,.13l-2.57.65v6.7l2.57.66s0,.08,0,.13L686.43,405l4.74,4.74,2.28-1.35.13.05.65,2.57h6.7l.66-2.57.13-.05,2.27,1.35,4.74-4.74-1.35-2.27a1.12,1.12,0,0,0,0-.13Zm-3.5,2.78-2.79,2.79-1.89-1.12-.43.2a8,8,0,0,1-.85.35l-.44.16-.55,2.14h-3.94l-.55-2.14-.44-.16a8.93,8.93,0,0,1-.85-.35l-.43-.2-1.89,1.12-2.79-2.79,1.12-1.89-.2-.43a8.76,8.76,0,0,1-.35-.84l-.16-.45-2.13-.55v-3.94l2.13-.55.16-.44a8.93,8.93,0,0,1,.35-.85l.2-.43-1.12-1.89,2.79-2.79,1.89,1.12.43-.2a8.93,8.93,0,0,1,.85-.35l.44-.16.55-2.13h3.94l.55,2.13.44.16a8,8,0,0,1,.85.35l.43.2,1.89-1.12,2.79,2.79-1.12,1.89.2.43a8.93,8.93,0,0,1,.35.85l.16.44,2.14.55v3.94l-2.14.55-.16.44a8,8,0,0,1-.35.85l-.2.43Z" transform="translate(-655 -356)"/><path class="cls-4" d="M697.58,391.48a7.1,7.1,0,1,0,7.1,7.1A7.11,7.11,0,0,0,697.58,391.48Zm0,12.42a5.32,5.32,0,1,1,5.32-5.32A5.32,5.32,0,0,1,697.58,403.9Z" transform="translate(-655 -356)"/><path class="cls-5" d="M697.58,395a3.55,3.55,0,1,0,3.55,3.55A3.55,3.55,0,0,0,697.58,395Z" transform="translate(-655 -356)"/><path class="cls-6" d="M677.47,371a5.24,5.24,0,0,0,1.48,2.24V374l-4.22,1.58a4.45,4.45,0,0,0-2.88,4.15v4.64h21.3v-4.64a4.45,4.45,0,0,0-2.88-4.15L686.05,374v-.75a5.24,5.24,0,0,0,1.48-2.24,3.54,3.54,0,0,0,3-3.49V364a8,8,0,0,0-16,0v3.55A3.54,3.54,0,0,0,677.47,371Zm6.8,3.36-1.77,3-1.77-3v-.06a5.21,5.21,0,0,0,3.54,0Zm-4.81,1.34,1.79,3-1.78.89-1.15-3.44Zm11.91,4v2.86H673.63v-2.86a2.67,2.67,0,0,1,1.73-2.49l1.3-.49,1.77,5.32,4.07-2,4.07,2,1.77-5.32,1.31.49A2.67,2.67,0,0,1,691.37,379.75Zm-4.69-3.6-1.15,3.44-1.78-.89,1.79-3Zm-4.18-3.3a3.55,3.55,0,0,1-3.55-3.54V365.7a6.85,6.85,0,0,0,3.55-1.42,6.85,6.85,0,0,0,3.55,1.42v3.61A3.55,3.55,0,0,1,682.5,372.85Zm5.32-3.79V366a1.75,1.75,0,0,1,0,3.05Zm-5.32-11.29a6.22,6.22,0,0,1,6.21,6.21v.5a3.47,3.47,0,0,0-1.77-.5h-.16a5.1,5.1,0,0,1-3.65-1.51l-.63-.63-.63.63a5.1,5.1,0,0,1-3.65,1.51h-.16a3.47,3.47,0,0,0-1.77.5V364A6.22,6.22,0,0,1,682.5,357.77ZM677.18,366v3.06a1.76,1.76,0,0,1,0-3.06Z" transform="translate(-655 -356)"/><path class="cls-7" d="M655,411h17.74V387.94H655Zm1.77-21.29H671v19.52h-14.2Z" transform="translate(-655 -356)"/><path class="cls-8" d="M658.55,391.48h10.64v1.78H658.55Z" transform="translate(-655 -356)"/><path class="cls-9" d="M658.55,395h1.77v1.78h-1.77Z" transform="translate(-655 -356)"/><path class="cls-10" d="M662.1,395h7.09v1.78H662.1Z" transform="translate(-655 -356)"/><path class="cls-11" d="M658.55,398.58h10.64v1.77H658.55Z" transform="translate(-655 -356)"/><path class="cls-12" d="M658.55,402.13h10.64v1.77H658.55Z" transform="translate(-655 -356)"/><path class="cls-13" d="M667.42,405.68h1.77v1.77h-1.77Z" transform="translate(-655 -356)"/><path class="cls-14" d="M658.55,405.68h7.1v1.77h-7.1Z" transform="translate(-655 -356)"/><path class="cls-15" d="M678.69,395.66l-1.25-1.26-4.18,4.18,4.18,4.18,1.25-1.26-2-2h6.73v-1.78h-6.73Z" transform="translate(-655 -356)"/><path class="cls-16" d="M664.76,370.19a.88.88,0,0,1,.89-.88h4.06l-2,2,1.25,1.25,4.18-4.17-4.18-4.18-1.25,1.26,2,2h-4.06a2.67,2.67,0,0,0-2.67,2.66v16h1.78Z" transform="translate(-655 -356)"/><path class="cls-17" d="M697.58,370.19v11.17l-2-2-1.26,1.26,4.18,4.17,4.17-4.17-1.25-1.26-2,2V370.19a2.67,2.67,0,0,0-2.66-2.66h-4.43v1.78h4.43A.88.88,0,0,1,697.58,370.19Z" transform="translate(-655 -356)"/><path class="cls-18" d="M663.87,380a3.55,3.55,0,1,0,3.55,3.55A3.55,3.55,0,0,0,663.87,380Z" transform="translate(-655 -356)"/><path class="cls-19" d="M698.36,371.19a3.55,3.55,0,1,0,3.55,3.55A3.55,3.55,0,0,0,698.36,371.19Z" transform="translate(-655 -356)"/></g></svg>