<svg id="Слой_1" data-name="Слой 1" xmlns="http://www.w3.org/2000/svg" xmlns:xlink="http://www.w3.org/1999/xlink" viewBox="0 0 53 53"><defs><style>.cls-1{fill:none;}.cls-2{clip-path:url(#clip-path);}.cls-3{fill:url(#Безымянный_градиент_2);}</style><clipPath id="clip-path" transform="translate(-656.11 -357)"><rect class="cls-1" x="656" y="357" width="53" height="53"/></clipPath><linearGradient id="Безымянный_градиент_2" x1="658.35" y1="372.9" x2="732.58" y2="412.37" gradientTransform="matrix(1, 0, 0, -1, 0, 770)" gradientUnits="userSpaceOnUse"><stop offset="0" stop-color="#4b79ce"/><stop offset="0.41" stop-color="#426ab3"/><stop offset="1" stop-color="#2b4a81"/></linearGradient></defs><title>solution-our-sp-1</title><g class="cls-2"><path class="cls-3" d="M708.85,399.66l-6.19-6.19a.88.88,0,0,0-1.24,0l-6.19,6.19a.9.9,0,0,0-.26.62v6.19h-8v-5.3a.88.88,0,0,0-.88-.89h-7.07a.89.89,0,0,0-.88.89v5.3H664.92a4.4,4.4,0,0,0-3.51-7.07,4.32,4.32,0,0,0-2.65.91v-9.74a2.64,2.64,0,0,1,2.65-2.65h8v.88a.87.87,0,0,0,.88.88h1a2.63,2.63,0,0,0,5,0h7.39a2.64,2.64,0,0,0,5,0h1.93a.87.87,0,0,0,.88-.88v-.88h12.37a4.42,4.42,0,0,0,4.41-4.42V367.6a4.42,4.42,0,0,0-4.41-4.42H678.19v-5.3a.88.88,0,0,0-.88-.88h-7.07a.88.88,0,0,0-.88.88v5.3h-1.77v-5.3a.88.88,0,0,0-.88-.88h-7.07a.88.88,0,0,0-.88.88v5.43a3.53,3.53,0,0,0,.88,6.94h17.67a3.53,3.53,0,0,0,3.53-3.53,3.42,3.42,0,0,0-.49-1.77h23.46a2.65,2.65,0,0,1,2.65,2.65V380a4.39,4.39,0,0,0-7.07,3.51,4.32,4.32,0,0,0,.91,2.65h-8.86v-1.77H695a.88.88,0,1,0,0-1.76h-3.53v-1.77h1.77a.89.89,0,0,0,0-1.77h-1.77v-.88a.87.87,0,0,0-.88-.88H677.31a.88.88,0,0,0-.89.88v.88h-3.53a.88.88,0,0,0-.71.36L669.53,383a.9.9,0,0,0-.12.24s0,.05,0,.08l0,.17v2.69h-8a4.42,4.42,0,0,0-4.42,4.41v13.26a4.42,4.42,0,0,0,4.42,4.41H695v.89a.89.89,0,0,0,.89.88h12.36a.89.89,0,0,0,.89-.88v-8.84A.9.9,0,0,0,708.85,399.66Zm-43.42-31.18h-2.75a3.39,3.39,0,0,0,0-3.53h2.75A3.44,3.44,0,0,0,665.43,368.48Zm6.09-3.53h2.75a3.39,3.39,0,0,0,0,3.53h-2.75A3.44,3.44,0,0,0,671.52,365Zm-.4-6.18h1.77V361h1.77v-2.2h1.76v4.41h-5.3Zm-8.83,0V361h1.77v-2.2h1.76v4.41h-5.3v-4.41Zm11.48,27.38a2.64,2.64,0,0,0-2.48,1.77h-.17v-3.54h5.3v3.54h-.16A2.64,2.64,0,0,0,673.77,386.15Zm0,3.53a.88.88,0,1,1,.89-.88A.88.88,0,0,1,673.77,389.68Zm12.37,0a.88.88,0,1,1,.88-.88A.87.87,0,0,1,686.14,389.68Zm-7.95-10.6h11.48v8.84h-1a2.64,2.64,0,0,0-5,0h-5.46Zm-1.77,1.77v1.77H672l1.32-1.77Zm3.54,21.2h1.76v2.21h1.77v-2.21h1.77v4.42H680Zm22.08-6.7,4.05,4H698Zm.88,12.88h-1.76v-2.65a.88.88,0,0,1,1.76,0Zm4.42,0h-2.65v-2.65a2.65,2.65,0,0,0-5.3,0v2.65h-2.65v-7.06h10.6Z" transform="translate(-656.11 -357)"/></g></svg>