<svg id="Слой_1" data-name="Слой 1" xmlns="http://www.w3.org/2000/svg" viewBox="0 0 123.95 89.28"><defs><style>.cls-1{fill:#f0f1f1;}</style></defs><title>solution-page-item-bg</title><path class="cls-1" d="M743.43,409.4A13.31,13.31,0,0,0,739,404a18.69,18.69,0,0,0-2.45-1.36c-1-.47-1.6-.62-2.37-.93a19.49,19.49,0,0,1-4-2.2,15.13,15.13,0,0,1-3.59-3.81c-1.81-2.71-2.16-5.24-2.53-7.94-.35-2.52-.56-4,.06-5.85a17.42,17.42,0,0,1,2.26-4c1.41-2.16,1.68-2.13,2.6-3.71a17.44,17.44,0,0,0,2-4.59,16.15,16.15,0,0,0,.41-5.11,20.53,20.53,0,0,0-1-5.35,17.68,17.68,0,0,0-3-5.62,18.45,18.45,0,0,0-4.06-3.7,21.07,21.07,0,0,0-6.16-2.85,19.21,19.21,0,0,0-5-.67A18.68,18.68,0,0,0,700,350.5c-2.37,1.81-2.11,2.27-4.5,4.22a27.37,27.37,0,0,1-6.54,3.91,17.48,17.48,0,0,1-6.92,1.8,18.49,18.49,0,0,1-5.41-.81,19.45,19.45,0,0,1-4.51-1.71,19,19,0,0,1-4.19-3.15,36.81,36.81,0,0,1-3.28-4.18c-2.82-3.83-2.74-3.94-3.6-4.85a20.32,20.32,0,0,0-5-3.8,22.87,22.87,0,0,0-7.62-2.89,22.37,22.37,0,0,0-6.82-.1A24.25,24.25,0,0,0,630,343.3a22.79,22.79,0,0,0-5.19,5.05,22.29,22.29,0,0,0-3.21,6.51,21.89,21.89,0,0,0-1,6.07,21.52,21.52,0,0,0,1,6.58,21.2,21.2,0,0,0,2.84,6.29,22.34,22.34,0,0,0,4.71,5,24.18,24.18,0,0,0,5.66,3.34,25.37,25.37,0,0,0,8.81,1.85,21.61,21.61,0,0,0,7.71-.93A22,22,0,0,0,658.6,379c1.31-1.11,1.14-1.24,4.84-5.09a52.05,52.05,0,0,1,3.95-3.94,18.87,18.87,0,0,1,8.44-3.58,19.25,19.25,0,0,1,5.35-.07,18.28,18.28,0,0,1,6.91,1.81c2.41,1.22,3.86,2.78,6.48,5.56,1.66,1.75,1.63,2,3.14,3.51a24.75,24.75,0,0,0,5,4c.69.39.71.35,6.86,2.71a23.76,23.76,0,0,1,5,2.25,15.61,15.61,0,0,1,3.2,2.73,15.8,15.8,0,0,1,3.11,5.63,16.76,16.76,0,0,1,.79,4.37,17.8,17.8,0,0,1-1,6.45c-1,2.94-1.74,2.78-2.47,5.3a13,13,0,0,0,3.15,13.14,14.49,14.49,0,0,0,5.86,3.48,13.32,13.32,0,0,0,7.32.38,13,13,0,0,0,6.19-3.69,13.76,13.76,0,0,0,3.31-5.33,12.85,12.85,0,0,0,.58-5.15A14.8,14.8,0,0,0,743.43,409.4Z" transform="translate(-620.62 -338.72)"/></svg>