<svg id="Слой_1" data-name="Слой 1" xmlns="http://www.w3.org/2000/svg" xmlns:xlink="http://www.w3.org/1999/xlink" viewBox="0 0 104 104"><defs><style>.cls-1{fill:url(#Безымянный_градиент_2);}.cls-2{fill:#f47920;}</style><linearGradient id="Безымянный_градиент_2" x1="640.73" y1="425.32" x2="743.57" y2="347.63" gradientTransform="matrix(1, 0, 0, -1, 0, 770)" gradientUnits="userSpaceOnUse"><stop offset="0" stop-color="#f7bb62"/><stop offset="0.49" stop-color="#f47920"/><stop offset="1" stop-color="#e76404"/></linearGradient></defs><title>solution-4</title><path class="cls-1" d="M735,368.9V332H710.82L698.1,344.72v7.41h-32a11.73,11.73,0,1,0-13.28,13.28v6.85H631v33.55h21.81v6.84a11.73,11.73,0,1,0,13.28,13.29h18.59V436H735V424.26a18.46,18.46,0,0,0-16-18.26,15.09,15.09,0,0,0,5.89-11.94v-3.35a15.1,15.1,0,0,0-30.2,0v3.35A15.08,15.08,0,0,0,700.62,406a18.46,18.46,0,0,0-15.86,16.58H666.09a11.75,11.75,0,0,0-9.93-9.93v-6.84H678V372.26H656.16v-6.85a11.74,11.74,0,0,0,9.93-9.93h32V368.9Zm-33.55-21.8h11.74V335.35h18.45v30.2H701.45Zm-3.35,47v-3.35a11.74,11.74,0,0,1,23.48,0v3.35a11.74,11.74,0,1,1-23.48,0Zm16.77,14.22v.88a5,5,0,1,1-10.06,0v-.88a14.82,14.82,0,0,0,10.06,0Zm-26.84,16a15.12,15.12,0,0,1,13.42-15,8.39,8.39,0,0,0,16.78,0,15.12,15.12,0,0,1,13.41,15v8.38h-6.7V422.58h-3.36v10.06H698.1V422.58h-3.36v10.06H688Zm-53.68-48.65h40.26l-40.26,26.84Zm28.52,48.65c1.57-5.45-3.76-8.39-8.39-8.39s-9.12,2.31-8.38,8.39a8.39,8.39,0,1,1,16.77,0Zm-28.52-21.81,40.26-26.84v26.84Zm20.13-57c-4.62,0-8.38,2.2-8.38,8.39a8.39,8.39,0,1,1,16.77,0C663.5,347.73,659.11,345.42,654.48,345.42Z" transform="translate(-631 -332)"/><path class="cls-2" d="M717.18,338.71h-3.36v3.35h3.36Z" transform="translate(-631 -332)"/><path class="cls-2" d="M725.57,338.71h-5v3.35h5Z" transform="translate(-631 -332)"/><path class="cls-2" d="M725.56,345.42H713.82v3.35h11.74Z" transform="translate(-631 -332)"/><path class="cls-2" d="M725.56,352.13H702.08v3.35h23.48Z" transform="translate(-631 -332)"/><path class="cls-2" d="M725.56,358.84h-3.35v3.35h3.35Z" transform="translate(-631 -332)"/><path class="cls-2" d="M666.44,392h-4v6.92h4Z" transform="translate(-631 -332)"/><path class="cls-2" d="M718.85,358.84H702.08v3.35h16.77Z" transform="translate(-631 -332)"/><path class="cls-2" d="M641.27,387.77v11.12h4.41V387.77Z" transform="translate(-631 -332)"/><path class="cls-2" d="M648.19,383.16v15.73h4.41V383.16Z" transform="translate(-631 -332)"/><path class="cls-2" d="M655.11,379.81v19.08h4.41V379.81Z" transform="translate(-631 -332)"/></svg>