<svg id="Слой_1" data-name="Слой 1" xmlns="http://www.w3.org/2000/svg" xmlns:xlink="http://www.w3.org/1999/xlink" viewBox="0 0 57.19 57.19"><defs><style>.cls-1{fill:url(#Безымянный_градиент_3);}.cls-2{fill:url(#Безымянный_градиент_3-2);}.cls-3{fill:url(#Безымянный_градиент_3-3);}</style><linearGradient id="Безымянный_градиент_3" x1="656.75" y1="370.02" x2="736.84" y2="412.61" gradientTransform="matrix(1, 0, 0, -1, 0, 770)" gradientUnits="userSpaceOnUse"><stop offset="0" stop-color="#4b79ce"/><stop offset="0.41" stop-color="#426ab3"/><stop offset="1" stop-color="#2b4a81"/></linearGradient><linearGradient id="Безымянный_градиент_3-2" x1="674.55" y1="392.71" x2="698.58" y2="405.49" xlink:href="#Безымянный_градиент_3"/><linearGradient id="Безымянный_градиент_3-3" x1="681.62" y1="369.78" x2="684.29" y2="371.2" xlink:href="#Безымянный_градиент_3"/></defs><title>solution-adv-1</title><path class="cls-1" d="M708.3,367.34H694.55l0,0,1.75-2.46a1.88,1.88,0,0,0-.2-2.46l-2.9-2.9a1.91,1.91,0,0,0-2.46-.2L688.25,361q-.64-.3-1.32-.54l-.5-3a1.84,1.84,0,0,0-.65-1.14,1.9,1.9,0,0,0-1.23-.45h-4.1a1.9,1.9,0,0,0-1.23.45,1.84,1.84,0,0,0-.65,1.14l-.51,3a10.25,10.25,0,0,0-1.32.56l-2.46-1.76a1.87,1.87,0,0,0-1.27-.35,1.91,1.91,0,0,0-1.19.55l-2.9,2.9a1.93,1.93,0,0,0-.56,1.19,2,2,0,0,0,.35,1.27l1.75,2.47v0H656.7a2.83,2.83,0,0,0-2.79,2.86v30.5a2.84,2.84,0,0,0,.8,2,2.81,2.81,0,0,0,2,.85h19l-.64,3.82h-1.1a.87.87,0,0,0-.42.1.84.84,0,0,0-.34.28l-2.86,3.81a1,1,0,0,0-.19.49,1,1,0,0,0,.1.51.92.92,0,0,0,.35.38,1,1,0,0,0,.5.14h22.88a1,1,0,0,0,.5-.14.92.92,0,0,0,.35-.38,1,1,0,0,0,.1-.51,1,1,0,0,0-.19-.49l-2.86-3.81a.84.84,0,0,0-.34-.28.87.87,0,0,0-.42-.1H690l-.64-3.82h19a2.82,2.82,0,0,0,2.79-2.86V370.2a2.8,2.8,0,0,0-.8-2A2.84,2.84,0,0,0,708.3,367.34Zm-38-3.61,2.9-2.9,2.46,1.76a2,2,0,0,0,1,.34,1.89,1.89,0,0,0,1-.19,11,11,0,0,1,1.12-.46,1.91,1.91,0,0,0,.83-.57,2,2,0,0,0,.43-.91l.5-3h4.1l.5,3a2,2,0,0,0,.43.91,1.91,1.91,0,0,0,.83.57,12.16,12.16,0,0,1,1.13.46,1.87,1.87,0,0,0,1,.19,2,2,0,0,0,.94-.34l2.46-1.76,2.91,2.9L693,366.19a1.93,1.93,0,0,0-.35.95,2,2,0,0,0,.19,1,11,11,0,0,1,.46,1.12,1.91,1.91,0,0,0,.57.83,1.86,1.86,0,0,0,.92.43l3,.5v4.1l-3,.5a2,2,0,0,0-.92.43,1.88,1.88,0,0,0-.57.84,12,12,0,0,1-.46,1.12,1.89,1.89,0,0,0-.19,1,1.93,1.93,0,0,0,.35.95l1.75,2.46-2.9,2.9-2.46-1.76a1.92,1.92,0,0,0-1-.34,2,2,0,0,0-1,.18,11,11,0,0,1-1.12.47,1.89,1.89,0,0,0-.83.56,2,2,0,0,0-.43.92l-.5,3h-4.1l-.5-3a2,2,0,0,0-.43-.92,1.89,1.89,0,0,0-.83-.56c-.38-.14-.76-.29-1.13-.47a2,2,0,0,0-.84-.19,1.86,1.86,0,0,0-1.09.35l-2.46,1.76-2.91-2.9,1.76-2.47a1.76,1.76,0,0,0,.34-.94,1.87,1.87,0,0,0-.18-1,12,12,0,0,1-.46-1.12,1.88,1.88,0,0,0-.57-.84,2,2,0,0,0-.92-.43l-3-.5V371l3-.5a1.86,1.86,0,0,0,.92-.43,1.91,1.91,0,0,0,.57-.83,11,11,0,0,1,.46-1.12,2,2,0,0,0,.19-1,1.89,1.89,0,0,0-.35-.95Zm-13.57,5.52h9.83a1.84,1.84,0,0,0-.86.7,1.9,1.9,0,0,0-.33,1.06v.15h-4.76a1,1,0,0,0-1,.95v10.66a2.86,2.86,0,0,0-1.86,3.18,2.86,2.86,0,0,0,4.66,1.7,2.87,2.87,0,0,0,1-1.7,2.88,2.88,0,0,0-1.87-3.18v-9.71h3.81v2.05a1.88,1.88,0,0,0,1.6,1.88l3,.52a12.67,12.67,0,0,0,.55,1.32l-1.76,2.46a1.88,1.88,0,0,0,.21,2.45l.77.78-2.16,2.17a.93.93,0,0,0-.28.67v1.13a2.82,2.82,0,0,0-1.51,1.25,2.86,2.86,0,0,0,4.31,3.63,2.85,2.85,0,0,0,1-1.7,2.82,2.82,0,0,0-.35-1.93,2.86,2.86,0,0,0-1.51-1.25v-.74l1.88-1.88.78.77a1.9,1.9,0,0,0,2.46.21l2.46-1.75a11.58,11.58,0,0,0,1.33.54l.5,3a1.87,1.87,0,0,0,.65,1.14,1.9,1.9,0,0,0,1.23.45h4.1a1.9,1.9,0,0,0,1.23-.45,1.87,1.87,0,0,0,.65-1.14l.51-3a10.2,10.2,0,0,0,1.32-.55l2.46,1.76a1.9,1.9,0,0,0,2.46-.21l.78-.77,1.88,1.88v.74a2.86,2.86,0,0,0-1.51,1.25,2.82,2.82,0,0,0-.35,1.93,2.85,2.85,0,0,0,1,1.7,2.88,2.88,0,0,0,3.69,0,2.83,2.83,0,0,0,.62-3.63,2.82,2.82,0,0,0-1.51-1.25v-1.13a.93.93,0,0,0-.28-.67l-2.16-2.17.77-.78a1.93,1.93,0,0,0,.56-1.19,1.89,1.89,0,0,0-.36-1.26l-1.74-2.47a10.89,10.89,0,0,0,.54-1.33l3-.5a1.88,1.88,0,0,0,1.6-1.88v-2.05h3.81v9.71A2.88,2.88,0,0,0,701.6,386a2.87,2.87,0,0,0,1,1.7,2.86,2.86,0,0,0,4.66-1.7,2.88,2.88,0,0,0-.35-1.93,2.84,2.84,0,0,0-1.52-1.25V372.11a.94.94,0,0,0-1-.95h-4.76V371a1.9,1.9,0,0,0-.33-1.06,1.84,1.84,0,0,0-.86-.7h9.83a.94.94,0,0,1,.64.3,1,1,0,0,1,.25.65v25.74H655.81V370.2a1,1,0,0,1,.25-.65A.94.94,0,0,1,656.7,369.25ZM692,411.19H673l1.43-1.91h16.2Zm-4-3.81H677l.64-3.82h9.82Zm20.25-5.72H656.7a.94.94,0,0,1-.89-1v-2.86h53.38v2.86a.94.94,0,0,1-.89,1Z" transform="translate(-653.91 -355.91)"/><path class="cls-2" d="M682.5,381.64a8.6,8.6,0,0,0,7.93-5.29,8.68,8.68,0,0,0,.48-5,8.57,8.57,0,1,0-8.41,10.25Z" transform="translate(-653.91 -355.91)"/><path class="cls-3" d="M681.55,398.8h1.9v1.9h-1.9Z" transform="translate(-653.91 -355.91)"/></svg>