<svg id="Слой_1" data-name="Слой 1" xmlns="http://www.w3.org/2000/svg" xmlns:xlink="http://www.w3.org/1999/xlink" viewBox="0 0 53 52.54"><defs><style>.cls-1{fill:none;}.cls-2{clip-path:url(#clip-path);}.cls-3{fill:url(#Безымянный_градиент_3);}.cls-4{fill:url(#Безымянный_градиент_3-2);}.cls-5{fill:url(#Безымянный_градиент_3-3);}</style><clipPath id="clip-path" transform="translate(-656 -357.25)"><rect class="cls-1" x="656" y="357" width="53" height="53"/></clipPath><linearGradient id="Безымянный_градиент_3" x1="669.69" y1="386.55" x2="706.81" y2="432.99" gradientTransform="matrix(1, 0, 0, -1, 0, 770)" gradientUnits="userSpaceOnUse"><stop offset="0" stop-color="#4b79ce"/><stop offset="0.41" stop-color="#426ab3"/><stop offset="1" stop-color="#2b4a81"/></linearGradient><linearGradient id="Безымянный_градиент_3-2" x1="664.79" y1="359.18" x2="710.72" y2="400.15" xlink:href="#Безымянный_градиент_3"/><linearGradient id="Безымянный_градиент_3-3" x1="666.1" y1="396.44" x2="680.94" y2="404.33" xlink:href="#Безымянный_градиент_3"/></defs><title>solution-our-sp-2</title><g class="cls-2"><path class="cls-3" d="M708.12,359.48h-8a.87.87,0,0,0-.88.88v.46l-7.48-3a7.74,7.74,0,0,0-5.22-.2l-.09,0-10.41,4.49H656.88a.88.88,0,0,0-.88.88V378.9a.88.88,0,0,0,.88.88h28.25a.88.88,0,0,0,.89-.88v-6.18h.79l6.06,1.73a1,1,0,0,0,.24,0,.78.78,0,0,0,.22,0l6.95-1.74h7.84a.89.89,0,0,0,.88-.88V360.36A.88.88,0,0,0,708.12,359.48Zm-27.28,6.62a3.52,3.52,0,0,0,1.68,6.62h1.73v1a5.29,5.29,0,0,0-4.33,4.34H662.1a5.31,5.31,0,0,0-4.33-4.34v-5.45a5.31,5.31,0,0,0,4.33-4.34h17.82A5.4,5.4,0,0,0,680.84,366.1Zm12.28,6.59-6-1.7a1,1,0,0,0-.24,0h-4.41a1.77,1.77,0,1,1,0-3.53h6.55a.88.88,0,0,0,0-1.76H686V363a.88.88,0,0,0-.89-.88h-4.58l6.61-2.85a6,6,0,0,1,4,.17l8.13,3.27v8.43ZM707.23,371h-6.18v-9.71h6.18Z" transform="translate(-656 -357.25)"/><path class="cls-4" d="M698.61,396.56h-3.77v-9.72A.88.88,0,0,0,694,386h-2.42c0-.06.05-.13.07-.2l0-.1a4.76,4.76,0,0,0-9.48,0l0,.1a1.17,1.17,0,0,0,.06.2h-2.41a.89.89,0,0,0-.89.88v8h-.76l-5-1.43a4.39,4.39,0,0,0-2.61.05l-1.54.52-4.27.63h-7.88a.88.88,0,0,0-.88.88v11.71a.88.88,0,0,0,.88.88h8a.87.87,0,0,0,.88-.88v-.69L672,409a11.53,11.53,0,0,0,7.73.3L699.6,403a3.29,3.29,0,0,0-1-6.43Zm-16.13-1.77H686v5.3h-.5a3.58,3.58,0,0,0,.5-1.77A3.54,3.54,0,0,0,682.48,394.79Zm5.3,0h5.3v5.3h-5.3Zm5.3-1.77h-5.3v-5.29h5.3Zm-8.38-5.29H686V393h-5.3v-5.29ZM664,406.27h-6.18v-9.95H664Zm35.12-5-19.92,6.27a9.67,9.67,0,0,1-6.54-.25l-6.9-2.78V396.2l3.66-.54h0l.15,0,1.62-.54a2.59,2.59,0,0,1,1.56,0l5.13,1.46a1,1,0,0,0,.24,0h4.41a1.77,1.77,0,1,1,0,3.53h-6.21a.88.88,0,1,0,0,1.76H694a.87.87,0,0,0,.88-.88v-2.65h3.77a1.52,1.52,0,0,1,1.51,1.3A1.54,1.54,0,0,1,699.07,401.31Z" transform="translate(-656 -357.25)"/><path class="cls-5" d="M671,376.25a5.3,5.3,0,1,0-5.3-5.3A5.29,5.29,0,0,0,671,376.25Z" transform="translate(-656 -357.25)"/></g></svg>