<svg id="Слой_1" data-name="Слой 1" xmlns="http://www.w3.org/2000/svg" xmlns:xlink="http://www.w3.org/1999/xlink" viewBox="0 0 113.59 111.67"><defs><style>.cls-1{fill:url(#Безымянный_градиент_2);}.cls-2{fill:url(#Безымянный_градиент_2-2);}.cls-3{fill:#fea260;}.cls-4{fill:#f47920;}</style><linearGradient id="Безымянный_градиент_2" x1="645.45" y1="411.44" x2="710.8" y2="341.89" gradientTransform="matrix(1, 0, 0, -1, 0, 770)" gradientUnits="userSpaceOnUse"><stop offset="0" stop-color="#f7bb62"/><stop offset="0.47" stop-color="#f47920"/><stop offset="1" stop-color="#da6c1c"/></linearGradient><linearGradient id="Безымянный_градиент_2-2" x1="656.09" y1="405.23" x2="711.59" y2="350.23" xlink:href="#Безымянный_градиент_2"/></defs><title>solution-2</title><path class="cls-1" d="M629.17,392l7.42,1.22a45.62,45.62,0,0,0,6.6,15.91l-4.39,6.13a3.47,3.47,0,0,0,0,4.16,49.53,49.53,0,0,0,3.52,3.87c1.25,1.26,2.54,2.41,3.87,3.53a3.47,3.47,0,0,0,4.16,0l6.12-4.39a45.62,45.62,0,0,0,15.91,6.6l1.21,7.42a3.43,3.43,0,0,0,3,2.89c1.06.12,2.12.19,3.21.25a2,2,0,0,0,1.42-.53,1.9,1.9,0,0,0,.61-1.39V422.32a1.94,1.94,0,0,0-1.87-1.93,36.61,36.61,0,0,1,0-73.12,1.94,1.94,0,0,0,1.87-1.93V329.93a2,2,0,0,0-.6-1.4,2,2,0,0,0-1.43-.53c-1.08.05-2.15.12-3.21.23a3.47,3.47,0,0,0-3,2.91l-1.21,7.42a45.64,45.64,0,0,0-15.91,6.61l-6.12-4.4a3.48,3.48,0,0,0-4.16,0,51.73,51.73,0,0,0-3.87,3.53,43.08,43.08,0,0,0-3.52,3.88,3.45,3.45,0,0,0,0,4.16l4.39,6.13a45.75,45.75,0,0,0-6.61,15.91l-7.41,1.21a3.44,3.44,0,0,0-2.89,3,48.77,48.77,0,0,0,0,10.39A3.49,3.49,0,0,0,629.17,392Z" transform="translate(-626 -328)"/><path class="cls-2" d="M680,355a28.88,28.88,0,0,0,0,57.65,1.78,1.78,0,0,0,1.84-1.78V356.8a1.78,1.78,0,0,0-.54-1.29A1.76,1.76,0,0,0,680,355Z" transform="translate(-626 -328)"/><path class="cls-3" d="M695.31,356.88h-9.63v3.85h9.63a5.79,5.79,0,0,0,5.77-5.77V343.05a5.77,5.77,0,1,0-3.85,0V355A1.92,1.92,0,0,1,695.31,356.88Z" transform="translate(-626 -328)"/><path class="cls-4" d="M685.68,368.43h19.25a1.93,1.93,0,1,0,0-3.85H685.68Z" transform="translate(-626 -328)"/><path class="cls-4" d="M685.68,410.79h9.63a1.92,1.92,0,0,1,1.92,1.93v11.9a5.78,5.78,0,1,0,3.85,0v-11.9a5.79,5.79,0,0,0-5.77-5.78h-9.63v3.85Z" transform="translate(-626 -328)"/><path class="cls-4" d="M714.56,391.54H685.68v3.85h28.88a1.93,1.93,0,0,1,1.93,1.92v10a5.77,5.77,0,1,0,3.85,0v-10A5.79,5.79,0,0,0,714.56,391.54Z" transform="translate(-626 -328)"/><path class="cls-4" d="M733.81,378.06a5.77,5.77,0,0,0-5.42,3.85H685.68v3.85h42.71a5.77,5.77,0,1,0,5.42-7.7Z" transform="translate(-626 -328)"/><path class="cls-4" d="M706.86,401.16a1.92,1.92,0,0,0-1.93-1.92H685.68v3.85h19.25A1.92,1.92,0,0,0,706.86,401.16Z" transform="translate(-626 -328)"/><path class="cls-4" d="M720.34,370.36v-10a5.78,5.78,0,1,0-3.85,0v10a1.93,1.93,0,0,1-1.93,1.92H685.68v3.86h28.88A5.8,5.8,0,0,0,720.34,370.36Z" transform="translate(-626 -328)"/></svg>