<svg id="Слой_1" data-name="Слой 1" xmlns="http://www.w3.org/2000/svg" viewBox="0 0 1243 537.26"><defs><style>.cls-1{fill:#f0f1f1;}.cls-2,.cls-4{fill:none;stroke:#ed6f00;}.cls-2{stroke-linecap:round;stroke-width:2px;stroke-dasharray:2 8;opacity:0.4;isolation:isolate;}.cls-3{fill:#ed6f00;}.cls-5{fill:#c4c4c4;}.cls-6{fill:#426ab3;}.cls-7{fill:#07306d;}.cls-8{fill:#fff;}</style></defs><title>solution-our</title><rect class="cls-1" y="102" width="1230" height="4"/><rect class="cls-1" x="415" y="384" width="631" height="2"/><path class="cls-1" d="M173,185l482,1,15.5-7,15.5,7,513,1v1l-513-1-15.5-7L655,187l-482-1Z" transform="translate(-61 -115)"/><rect class="cls-1" x="1132" y="72" width="1" height="15"/><line class="cls-2" x1="414.99" y1="384.01" x2="413.87" y2="245.01"/><line class="cls-2" x1="373.13" y1="241.01" x2="372.06" y2="108.01"/><line class="cls-2" x1="92.14" y1="96" x2="92.14" y2="22"/><line class="cls-2" x1="653" y1="515" x2="653" y2="101"/><rect class="cls-1" x="371" y="242" width="339" height="3"/><rect class="cls-1" x="653" y="514" width="339" height="3"/><circle class="cls-3" cx="414.5" cy="298.5" r="8.5"/><circle class="cls-3" cx="371.5" cy="156.5" r="8.5"/><circle class="cls-3" cx="92.5" cy="16.5" r="8.5"/><circle class="cls-4" cx="414.5" cy="298.5" r="16"/><circle class="cls-4" cx="371.5" cy="156.5" r="16"/><circle class="cls-4" cx="92.5" cy="16.5" r="16"/><circle class="cls-5" cx="91.5" cy="101.5" r="12.5"/><circle class="cls-5" cx="934.5" cy="101.5" r="12.5"/><circle class="cls-5" cx="653.5" cy="101.5" r="12.5"/><circle class="cls-5" cx="372.5" cy="101.5" r="12.5"/><circle class="cls-5" cx="1154.5" cy="103.5" r="12.5"/><circle class="cls-5" cx="653" cy="242" r="10"/><circle class="cls-5" cx="559" cy="242" r="10"/><circle class="cls-5" cx="606" cy="242" r="10"/><circle class="cls-5" cx="512" cy="242" r="10"/><circle class="cls-5" cx="465" cy="242" r="10"/><circle class="cls-5" cx="418" cy="242" r="10"/><path class="cls-1" d="M1120,500l-13,5V495Z" transform="translate(-61 -115)"/><path class="cls-1" d="M1066,630l-13,5V625Z" transform="translate(-61 -115)"/><path class="cls-1" d="M784,358l-13,5V353Z" transform="translate(-61 -115)"/><path class="cls-1" d="M1304,219l-13,5V214Z" transform="translate(-61 -115)"/><ellipse class="cls-6" cx="447.05" cy="385" rx="1.87" ry="2"/><ellipse class="cls-6" cx="472.36" cy="385" rx="1.87" ry="2"/><ellipse class="cls-6" cx="497.66" cy="385" rx="1.87" ry="2"/><ellipse class="cls-6" cx="522.97" cy="385" rx="1.87" ry="2"/><ellipse class="cls-6" cx="548.28" cy="385" rx="1.87" ry="2"/><ellipse class="cls-6" cx="573.58" cy="385" rx="1.87" ry="2"/><ellipse class="cls-6" cx="598.89" cy="385" rx="1.87" ry="2"/><ellipse class="cls-6" cx="624.2" cy="385" rx="1.87" ry="2"/><ellipse class="cls-6" cx="649.5" cy="385" rx="1.87" ry="2"/><ellipse class="cls-6" cx="674.81" cy="385" rx="1.87" ry="2"/><ellipse class="cls-6" cx="700.11" cy="385" rx="1.87" ry="2"/><ellipse class="cls-6" cx="725.42" cy="385" rx="1.87" ry="2"/><ellipse class="cls-6" cx="750.73" cy="385" rx="1.87" ry="2"/><ellipse class="cls-6" cx="776.03" cy="385" rx="1.87" ry="2"/><ellipse class="cls-6" cx="801.34" cy="385" rx="1.87" ry="2"/><ellipse class="cls-6" cx="826.65" cy="385" rx="1.87" ry="2"/><ellipse class="cls-6" cx="851.95" cy="385" rx="1.87" ry="2"/><ellipse class="cls-6" cx="877.26" cy="385" rx="1.87" ry="2"/><ellipse class="cls-6" cx="902.56" cy="385" rx="1.87" ry="2"/><ellipse class="cls-6" cx="927.87" cy="385" rx="1.87" ry="2"/><ellipse class="cls-6" cx="953.18" cy="385" rx="1.87" ry="2"/><ellipse class="cls-6" cx="978.48" cy="385" rx="1.87" ry="2"/><ellipse class="cls-6" cx="1003.79" cy="385" rx="1.87" ry="2"/><path class="cls-7" d="M188.06,124.1a4.51,4.51,0,0,0-3.62,1.54,6.27,6.27,0,0,0-1.32,4.22,6.7,6.7,0,0,0,1.22,4.22,4.46,4.46,0,0,0,3.7,1.54,9.21,9.21,0,0,0,1.78-.16c.56-.11,1.11-.24,1.64-.4v1.56a8.45,8.45,0,0,1-1.66.44,12.86,12.86,0,0,1-2,.14,6.82,6.82,0,0,1-3.64-.9,5.58,5.58,0,0,1-2.2-2.56,9.76,9.76,0,0,1-.72-3.9A8.74,8.74,0,0,1,182,126a5.86,5.86,0,0,1,2.34-2.58,7,7,0,0,1,3.74-.94,8.7,8.7,0,0,1,3.94.84l-.72,1.52a11,11,0,0,0-1.48-.54A6.09,6.09,0,0,0,188.06,124.1Zm13.68,3.66h-3.5V137H196.5v-9.24H193v-1.48h8.7Zm7.21-1.68a4,4,0,0,1,3.18,1.38,6.15,6.15,0,0,1,1.22,4.16,6.24,6.24,0,0,1-1.22,4.16,4,4,0,0,1-3.2,1.42,4.11,4.11,0,0,1-2.06-.46,4.29,4.29,0,0,1-1.26-1.1h-.12c0,.23,0,.51.08.86s0,.65,0,.9v4.4h-1.76V126.28h1.44l.24,1.46h.08a4.08,4.08,0,0,1,1.26-1.18A3.93,3.93,0,0,1,209,126.08Zm-.32,1.48a2.71,2.71,0,0,0-2.32.92,5,5,0,0,0-.7,2.8v.34a6,6,0,0,0,.64,3.06,2.61,2.61,0,0,0,2.42,1.06,2.37,2.37,0,0,0,1.6-.54,3.12,3.12,0,0,0,.94-1.46,6.73,6.73,0,0,0,.32-2.14,5.29,5.29,0,0,0-.72-2.94A2.41,2.41,0,0,0,208.63,127.56Zm11.58-1.46a4.19,4.19,0,0,1,2.9.86,3.54,3.54,0,0,1,.94,2.74V137h-1.28l-.34-1.52h-.08a4.78,4.78,0,0,1-1.48,1.3,4.4,4.4,0,0,1-2.12.42,3.77,3.77,0,0,1-2.42-.76,2.94,2.94,0,0,1-1-2.42,2.79,2.79,0,0,1,1.26-2.46,7.2,7.2,0,0,1,3.88-1l1.82-.06v-.64a2.42,2.42,0,0,0-.58-1.86,2.34,2.34,0,0,0-1.64-.52,5,5,0,0,0-1.6.26,11.34,11.34,0,0,0-1.42.56l-.54-1.32a7.77,7.77,0,0,1,1.66-.64A7,7,0,0,1,220.21,126.1Zm.52,5.72a5.4,5.4,0,0,0-2.78.64,1.86,1.86,0,0,0-.76,1.58,1.57,1.57,0,0,0,.54,1.32,2.32,2.32,0,0,0,1.42.42,3.45,3.45,0,0,0,2.26-.74,2.87,2.87,0,0,0,.9-2.32v-1Zm14-4.06h-3.5V137h-1.74v-9.24h-3.46v-1.48h8.7Zm6.06-1.68a4.43,4.43,0,0,1,2.36.6,3.87,3.87,0,0,1,1.52,1.7,5.62,5.62,0,0,1,.54,2.54V132H237.9a4.12,4.12,0,0,0,.92,2.78,3.28,3.28,0,0,0,2.5.94,8.06,8.06,0,0,0,1.8-.18,10.61,10.61,0,0,0,1.64-.56v1.54a8.22,8.22,0,0,1-1.62.52,8.76,8.76,0,0,1-1.9.18,5.78,5.78,0,0,1-2.7-.62,4.42,4.42,0,0,1-1.82-1.84,6.48,6.48,0,0,1-.64-3,7.14,7.14,0,0,1,.58-3,4.53,4.53,0,0,1,1.66-1.94A4.61,4.61,0,0,1,240.82,126.08Zm0,1.44a2.54,2.54,0,0,0-2,.82,3.78,3.78,0,0,0-.86,2.24h5.46a3.7,3.7,0,0,0-.64-2.2A2.26,2.26,0,0,0,240.8,127.52Zm13.71-1.24v1.48h-4.78V137H248V126.28Zm3.77,6.54c0,.16,0,.4,0,.72s0,.64-.06,1,0,.57,0,.76l5.74-9h2.16V137h-1.64v-7.16c0-.35,0-.69,0-1s0-.61,0-.78l-5.7,9h-2.18V126.28h1.66ZM271,130.18c0,1.23.69,1.84,2.06,1.84a5.22,5.22,0,0,0,1.82-.3,10.13,10.13,0,0,0,1.68-.84v-4.6h1.76V137h-1.76v-4.78a9.75,9.75,0,0,1-1.78.92,6,6,0,0,1-2.08.32,3.64,3.64,0,0,1-2.56-.86,3,3,0,0,1-.9-2.3v-4H271Zm14.87-4.1a4.43,4.43,0,0,1,2.36.6,3.87,3.87,0,0,1,1.52,1.7,5.62,5.62,0,0,1,.54,2.54V132H283a4.12,4.12,0,0,0,.92,2.78,3.28,3.28,0,0,0,2.5.94,8.06,8.06,0,0,0,1.8-.18,10.61,10.61,0,0,0,1.64-.56v1.54a8.22,8.22,0,0,1-1.62.52,8.76,8.76,0,0,1-1.9.18,5.78,5.78,0,0,1-2.7-.62,4.42,4.42,0,0,1-1.82-1.84,6.48,6.48,0,0,1-.64-3,7.14,7.14,0,0,1,.58-3,4.53,4.53,0,0,1,1.66-1.94A4.61,4.61,0,0,1,285.88,126.08Zm0,1.44a2.54,2.54,0,0,0-2,.82,3.78,3.78,0,0,0-.86,2.24h5.46a3.7,3.7,0,0,0-.64-2.2A2.26,2.26,0,0,0,285.86,127.52Zm11.47,9.68a5.4,5.4,0,0,1-2.54-.58,4.15,4.15,0,0,1-1.74-1.8,6.77,6.77,0,0,1-.62-3.12,6.85,6.85,0,0,1,.66-3.22,4.18,4.18,0,0,1,1.78-1.82,5.57,5.57,0,0,1,2.58-.58,6.9,6.9,0,0,1,1.58.18,5.31,5.31,0,0,1,1.24.4l-.54,1.46a11,11,0,0,0-1.12-.34,4.84,4.84,0,0,0-1.2-.16q-3.17,0-3.16,4.06a5,5,0,0,0,.76,3,2.71,2.71,0,0,0,2.3,1,5.87,5.87,0,0,0,1.54-.18,8.19,8.19,0,0,0,1.24-.44v1.56a4.48,4.48,0,0,1-1.2.42A6.4,6.4,0,0,1,297.33,137.2ZM309,126.28h1.92l-4.58,5.16,5,5.56h-2l-4.84-5.44V137h-1.76V126.28h1.76v5.2Zm13.17,5.34a5.8,5.8,0,0,1-1.36,4.12,4.69,4.69,0,0,1-3.64,1.46,5,5,0,0,1-2.54-.64,4.65,4.65,0,0,1-1.74-1.9,6.73,6.73,0,0,1-.64-3,5.82,5.82,0,0,1,1.34-4.1,4.75,4.75,0,0,1,3.64-1.44,4.85,4.85,0,0,1,2.56.66,4.29,4.29,0,0,1,1.74,1.88A6.34,6.34,0,0,1,322.15,131.62Zm-8.1,0a5.44,5.44,0,0,0,.74,3,2.73,2.73,0,0,0,2.4,1.1,2.69,2.69,0,0,0,2.38-1.1,5.28,5.28,0,0,0,.76-3,5.07,5.07,0,0,0-.76-3,3.18,3.18,0,0,0-4.78,0A5.23,5.23,0,0,0,314.05,131.62Zm15-5.54a4.43,4.43,0,0,1,2.36.6,3.81,3.81,0,0,1,1.52,1.7,5.62,5.62,0,0,1,.54,2.54V132h-7.34a4.17,4.17,0,0,0,.92,2.78,3.29,3.29,0,0,0,2.5.94,8.06,8.06,0,0,0,1.8-.18A10.27,10.27,0,0,0,333,135v1.54a7.82,7.82,0,0,1-1.62.52,8.69,8.69,0,0,1-1.9.18,5.78,5.78,0,0,1-2.7-.62,4.42,4.42,0,0,1-1.82-1.84,6.61,6.61,0,0,1-.64-3,7.29,7.29,0,0,1,.58-3,4.37,4.37,0,0,1,4.16-2.62Zm0,1.44a2.56,2.56,0,0,0-2,.82,3.84,3.84,0,0,0-.86,2.24h5.46a3.64,3.64,0,0,0-.64-2.2A2.25,2.25,0,0,0,329.06,127.52Zm20.46-1.24v9.24h1.56v5.2h-1.7V137h-7.46v3.72h-1.68v-5.2h.86a13.49,13.49,0,0,0,2.06-4.32,18.08,18.08,0,0,0,.72-4.92Zm-4.08,1.38a16,16,0,0,1-.42,2.82,17.77,17.77,0,0,1-.88,2.76,9.81,9.81,0,0,1-1.22,2.28h4.9v-7.86Zm17.06,4a5.8,5.8,0,0,1-1.36,4.12,4.69,4.69,0,0,1-3.64,1.46,5,5,0,0,1-2.54-.64,4.65,4.65,0,0,1-1.74-1.9,6.73,6.73,0,0,1-.64-3,5.82,5.82,0,0,1,1.34-4.1,4.75,4.75,0,0,1,3.64-1.44,4.85,4.85,0,0,1,2.56.66,4.29,4.29,0,0,1,1.74,1.88A6.34,6.34,0,0,1,362.5,131.62Zm-8.1,0a5.44,5.44,0,0,0,.74,3,2.73,2.73,0,0,0,2.4,1.1,2.69,2.69,0,0,0,2.38-1.1,5.28,5.28,0,0,0,.76-3,5.07,5.07,0,0,0-.76-3,3.18,3.18,0,0,0-4.78,0A5.23,5.23,0,0,0,354.4,131.62ZM373.45,137h-1.78v-9.26h-3.16a39.77,39.77,0,0,1-.72,5.46,7.33,7.33,0,0,1-1.22,3,2.34,2.34,0,0,1-1.92.94,3.12,3.12,0,0,1-.52,0,1.12,1.12,0,0,1-.4-.1v-1.32a1.1,1.1,0,0,0,.26.06l.28,0c.72,0,1.3-.77,1.72-2.3a37.42,37.42,0,0,0,1-7.18h6.46Zm9.95-10.72v1.48h-4.78V137h-1.76V126.28Zm11.23,5.34a5.8,5.8,0,0,1-1.36,4.12,4.69,4.69,0,0,1-3.64,1.46,5,5,0,0,1-2.54-.64,4.65,4.65,0,0,1-1.74-1.9,6.73,6.73,0,0,1-.64-3,5.82,5.82,0,0,1,1.34-4.1,4.75,4.75,0,0,1,3.64-1.44,4.85,4.85,0,0,1,2.56.66,4.29,4.29,0,0,1,1.74,1.88A6.34,6.34,0,0,1,394.63,131.62Zm-8.1,0a5.44,5.44,0,0,0,.74,3,2.73,2.73,0,0,0,2.4,1.1,2.69,2.69,0,0,0,2.38-1.1,5.28,5.28,0,0,0,.76-3,5.07,5.07,0,0,0-.76-3,3.18,3.18,0,0,0-4.78,0A5.23,5.23,0,0,0,386.53,131.62Zm15.19,5.58a5.43,5.43,0,0,1-2.54-.58,4.21,4.21,0,0,1-1.74-1.8,8.17,8.17,0,0,1,0-6.34,4.23,4.23,0,0,1,1.78-1.82,5.57,5.57,0,0,1,2.58-.58,6.77,6.77,0,0,1,1.58.18,5.31,5.31,0,0,1,1.24.4l-.54,1.46a11,11,0,0,0-1.12-.34,4.72,4.72,0,0,0-1.2-.16c-2.1,0-3.16,1.35-3.16,4.06a5,5,0,0,0,.76,3,2.72,2.72,0,0,0,2.3,1,5.87,5.87,0,0,0,1.54-.18,7.48,7.48,0,0,0,1.24-.44v1.56a4.48,4.48,0,0,1-1.2.42A6.29,6.29,0,0,1,401.72,137.2Zm10.41-11.12a4,4,0,0,1,3.18,1.38,6.1,6.1,0,0,1,1.22,4.16,6.19,6.19,0,0,1-1.22,4.16,4,4,0,0,1-3.2,1.42,4.16,4.16,0,0,1-2.06-.46,4.42,4.42,0,0,1-1.26-1.1h-.12c0,.23.06.51.08.86s0,.65,0,.9v4.4H407V126.28h1.44l.24,1.46h.08a4.08,4.08,0,0,1,1.26-1.18A4,4,0,0,1,412.13,126.08Zm-.32,1.48a2.72,2.72,0,0,0-2.32.92,5,5,0,0,0-.7,2.8v.34a6.12,6.12,0,0,0,.64,3.06,2.62,2.62,0,0,0,2.42,1.06,2.33,2.33,0,0,0,1.6-.54,3.12,3.12,0,0,0,.94-1.46,6.46,6.46,0,0,0,.32-2.14,5.29,5.29,0,0,0-.72-2.94A2.41,2.41,0,0,0,411.81,127.56Zm16.85,4.06a5.85,5.85,0,0,1-1.36,4.12,4.72,4.72,0,0,1-3.64,1.46,5,5,0,0,1-2.54-.64,4.52,4.52,0,0,1-1.74-1.9,6.6,6.6,0,0,1-.64-3,5.77,5.77,0,0,1,1.34-4.1,4.72,4.72,0,0,1,3.64-1.44,4.9,4.9,0,0,1,2.56.66,4.41,4.41,0,0,1,1.74,1.88A6.46,6.46,0,0,1,428.66,131.62Zm-8.1,0a5.36,5.36,0,0,0,.74,3,3.15,3.15,0,0,0,4.78,0,5.36,5.36,0,0,0,.76-3,5.15,5.15,0,0,0-.76-3,2.74,2.74,0,0,0-2.4-1.08,2.67,2.67,0,0,0-2.38,1.08A5.15,5.15,0,0,0,420.56,131.62Zm12.23-1.44c0,1.23.69,1.84,2.06,1.84a5.26,5.26,0,0,0,1.82-.3,10.13,10.13,0,0,0,1.68-.84v-4.6h1.76V137h-1.76v-4.78a9.75,9.75,0,0,1-1.78.92,6.06,6.06,0,0,1-2.08.32,3.62,3.62,0,0,1-2.56-.86,3,3,0,0,1-.9-2.3v-4h1.76Zm12.49-3.9v4.46h5.82v-4.46h1.76V137H451.1v-4.78h-5.82V137h-1.76V126.28Zm20.29,5.34a5.8,5.8,0,0,1-1.36,4.12,4.71,4.71,0,0,1-3.64,1.46,5,5,0,0,1-2.54-.64,4.65,4.65,0,0,1-1.74-1.9,6.6,6.6,0,0,1-.64-3,5.82,5.82,0,0,1,1.34-4.1,4.73,4.73,0,0,1,3.64-1.44,4.88,4.88,0,0,1,2.56.66,4.29,4.29,0,0,1,1.74,1.88A6.34,6.34,0,0,1,465.57,131.62Zm-8.1,0a5.44,5.44,0,0,0,.74,3,3.15,3.15,0,0,0,4.78,0,5.28,5.28,0,0,0,.76-3,5.07,5.07,0,0,0-.76-3,2.74,2.74,0,0,0-2.4-1.08,2.68,2.68,0,0,0-2.38,1.08A5.23,5.23,0,0,0,457.47,131.62Zm15-5.54a4.43,4.43,0,0,1,2.36.6,3.87,3.87,0,0,1,1.52,1.7,5.62,5.62,0,0,1,.54,2.54V132h-7.34a4.12,4.12,0,0,0,.92,2.78,3.28,3.28,0,0,0,2.5.94,8.06,8.06,0,0,0,1.8-.18,10.61,10.61,0,0,0,1.64-.56v1.54a8.22,8.22,0,0,1-1.62.52,8.76,8.76,0,0,1-1.9.18,5.78,5.78,0,0,1-2.7-.62,4.42,4.42,0,0,1-1.82-1.84,6.48,6.48,0,0,1-.64-3,7.14,7.14,0,0,1,.58-3,4.53,4.53,0,0,1,1.66-1.94A4.61,4.61,0,0,1,472.5,126.08Zm0,1.44a2.54,2.54,0,0,0-2,.82,3.78,3.78,0,0,0-.86,2.24h5.46a3.7,3.7,0,0,0-.64-2.2A2.26,2.26,0,0,0,472.48,127.52ZM494,126.28V137h-1.76v-9.22h-5.54V137H485V126.28ZM505.62,137h-1.78v-9.26h-3.16a39.77,39.77,0,0,1-.72,5.46,7.47,7.47,0,0,1-1.22,3,2.35,2.35,0,0,1-1.92.94,3.12,3.12,0,0,1-.52,0,1.12,1.12,0,0,1-.4-.1v-1.32a1.1,1.1,0,0,0,.26.06l.28,0c.72,0,1.29-.77,1.72-2.3a38.25,38.25,0,0,0,1-7.18h6.46Zm7.46-10.9a4.19,4.19,0,0,1,2.9.86,3.54,3.54,0,0,1,.94,2.74V137h-1.28l-.34-1.52h-.08a4.78,4.78,0,0,1-1.48,1.3,4.4,4.4,0,0,1-2.12.42,3.77,3.77,0,0,1-2.42-.76,2.94,2.94,0,0,1-1-2.42,2.79,2.79,0,0,1,1.26-2.46,7.2,7.2,0,0,1,3.88-1l1.82-.06v-.64a2.42,2.42,0,0,0-.58-1.86,2.34,2.34,0,0,0-1.64-.52,5,5,0,0,0-1.6.26,11.34,11.34,0,0,0-1.42.56l-.54-1.32a7.77,7.77,0,0,1,1.66-.64A7,7,0,0,1,513.08,126.1Zm.52,5.72a5.4,5.4,0,0,0-2.78.64,1.86,1.86,0,0,0-.76,1.58,1.57,1.57,0,0,0,.54,1.32,2.32,2.32,0,0,0,1.42.42,3.45,3.45,0,0,0,2.26-.74,2.87,2.87,0,0,0,.9-2.32v-1Zm8.39-5.54v4.46h5.83v-4.46h1.76V137h-1.76v-4.78H522V137h-1.76V126.28Zm12.64,6.54c0,.16,0,.4,0,.72s0,.64-.06,1,0,.57,0,.76l5.74-9h2.16V137h-1.64v-7.16c0-.35,0-.69,0-1s0-.61,0-.78l-5.7,9H533V126.28h1.66Zm16.29-6.74a4,4,0,0,1,3.18,1.38,6.15,6.15,0,0,1,1.22,4.16,6.24,6.24,0,0,1-1.22,4.16,4,4,0,0,1-3.2,1.42,4.13,4.13,0,0,1-2.06-.46,4.42,4.42,0,0,1-1.26-1.1h-.12c0,.23,0,.51.08.86s0,.65,0,.9v4.4h-1.76V126.28h1.44l.24,1.46h.08a4.08,4.08,0,0,1,1.26-1.18A3.93,3.93,0,0,1,550.92,126.08Zm-.32,1.48a2.71,2.71,0,0,0-2.32.92,5,5,0,0,0-.7,2.8v.34a6,6,0,0,0,.64,3.06,2.62,2.62,0,0,0,2.42,1.06,2.35,2.35,0,0,0,1.6-.54,3.12,3.12,0,0,0,.94-1.46,6.73,6.73,0,0,0,.32-2.14,5.29,5.29,0,0,0-.72-2.94A2.41,2.41,0,0,0,550.6,127.56Zm16.85,4.06a5.85,5.85,0,0,1-1.36,4.12,4.72,4.72,0,0,1-3.64,1.46,5,5,0,0,1-2.54-.64,4.52,4.52,0,0,1-1.74-1.9,6.6,6.6,0,0,1-.64-3,5.77,5.77,0,0,1,1.34-4.1,4.72,4.72,0,0,1,3.64-1.44,4.9,4.9,0,0,1,2.56.66,4.41,4.41,0,0,1,1.74,1.88A6.46,6.46,0,0,1,567.45,131.62Zm-8.1,0a5.36,5.36,0,0,0,.74,3,3.15,3.15,0,0,0,4.78,0,5.36,5.36,0,0,0,.76-3,5.15,5.15,0,0,0-.76-3,2.74,2.74,0,0,0-2.4-1.08,2.67,2.67,0,0,0-2.38,1.08A5.15,5.15,0,0,0,559.35,131.62Zm19.5-2.64a2,2,0,0,1-.59,1.56,3.24,3.24,0,0,1-1.54.76v.08a3.56,3.56,0,0,1,1.74.72,2.07,2.07,0,0,1,.74,1.76,2.89,2.89,0,0,1-1,2.26,5,5,0,0,1-3.32.88h-4.62V126.28h4.61a7.53,7.53,0,0,1,2,.26,2.8,2.8,0,0,1,1.44.84A2.3,2.3,0,0,1,578.85,129Zm-1.77.22a1.2,1.2,0,0,0-.56-1.1,3.36,3.36,0,0,0-1.79-.36H572v2.94h2.42C576.19,130.68,577.08,130.19,577.08,129.2Zm.3,4.66a1.41,1.41,0,0,0-.71-1.32,4.17,4.17,0,0,0-2.06-.4H572v3.44h2.67a4.32,4.32,0,0,0,2-.38A1.42,1.42,0,0,0,577.38,133.86Zm8.44-7.76a4.2,4.2,0,0,1,2.9.86,3.58,3.58,0,0,1,.94,2.74V137h-1.28l-.34-1.52H588a4.89,4.89,0,0,1-1.48,1.3,4.43,4.43,0,0,1-2.12.42,3.77,3.77,0,0,1-2.42-.76,2.94,2.94,0,0,1-1-2.42,2.79,2.79,0,0,1,1.26-2.46,7.17,7.17,0,0,1,3.88-1l1.82-.06v-.64a2.46,2.46,0,0,0-.58-1.86,2.37,2.37,0,0,0-1.64-.52,5,5,0,0,0-1.6.26,10.77,10.77,0,0,0-1.42.56l-.54-1.32a7.77,7.77,0,0,1,1.66-.64A7,7,0,0,1,585.82,126.1Zm.52,5.72a5.4,5.4,0,0,0-2.78.64,1.84,1.84,0,0,0-.76,1.58,1.57,1.57,0,0,0,.54,1.32,2.28,2.28,0,0,0,1.42.42A3.47,3.47,0,0,0,587,135a2.87,2.87,0,0,0,.9-2.32v-1Zm8.39-5.54v4.46h5.82v-4.46h1.76V137h-1.76v-4.78h-5.82V137H593V126.28Zm12.63,6.54c0,.16,0,.4,0,.72s0,.64-.06,1,0,.57,0,.76l5.74-9h2.16V137H613.5v-7.16c0-.35,0-.69,0-1s0-.61,0-.78l-5.7,9H605.7V126.28h1.66Zm15.34-6.74a4.41,4.41,0,0,1,2.35.6,3.89,3.89,0,0,1,1.53,1.7,5.76,5.76,0,0,1,.53,2.54V132h-7.33a4.07,4.07,0,0,0,.92,2.78,3.26,3.26,0,0,0,2.5.94,8,8,0,0,0,1.79-.18,10.37,10.37,0,0,0,1.65-.56v1.54A8.22,8.22,0,0,1,625,137a8.85,8.85,0,0,1-1.91.18,5.78,5.78,0,0,1-2.7-.62,4.42,4.42,0,0,1-1.82-1.84,6.61,6.61,0,0,1-.63-3,7.3,7.3,0,0,1,.57-3,4.4,4.4,0,0,1,4.17-2.62Zm0,1.44a2.57,2.57,0,0,0-2,.82,3.84,3.84,0,0,0-.85,2.24h5.46a3.77,3.77,0,0,0-.64-2.2A2.28,2.28,0,0,0,622.67,127.52Zm17,13.2a12.84,12.84,0,0,1-3-4.78,19,19,0,0,1,.06-12.68,12.74,12.74,0,0,1,3.24-4.94h1.9v.18a13.42,13.42,0,0,0-3.38,5.06,17,17,0,0,0-1.12,6.12,16.6,16.6,0,0,0,1.06,5.92,14.27,14.27,0,0,0,3.14,4.94v.18Zm13.88-9.1a5.8,5.8,0,0,1-1.36,4.12,4.71,4.71,0,0,1-3.64,1.46,5,5,0,0,1-2.54-.64,4.52,4.52,0,0,1-1.74-1.9,6.6,6.6,0,0,1-.64-3,5.77,5.77,0,0,1,1.34-4.1,4.72,4.72,0,0,1,3.64-1.44,4.88,4.88,0,0,1,2.56.66,4.29,4.29,0,0,1,1.74,1.88A6.46,6.46,0,0,1,653.58,131.62Zm-8.1,0a5.36,5.36,0,0,0,.74,3,3.15,3.15,0,0,0,4.78,0,5.28,5.28,0,0,0,.76-3,5.07,5.07,0,0,0-.76-3,2.74,2.74,0,0,0-2.4-1.08,2.68,2.68,0,0,0-2.38,1.08A5.15,5.15,0,0,0,645.48,131.62Zm18.09-3.86h-3.5V137h-1.74v-9.24h-3.46v-1.48h8.7Zm16.51-1.48V137h-1.76v-9.22h-5.54V137H671V126.28Zm12.74,5.34a5.85,5.85,0,0,1-1.36,4.12,4.72,4.72,0,0,1-3.64,1.46,5,5,0,0,1-2.54-.64,4.52,4.52,0,0,1-1.74-1.9,6.6,6.6,0,0,1-.64-3,5.77,5.77,0,0,1,1.34-4.1,4.72,4.72,0,0,1,3.64-1.44,4.9,4.9,0,0,1,2.56.66,4.41,4.41,0,0,1,1.74,1.88A6.46,6.46,0,0,1,692.82,131.62Zm-8.1,0a5.36,5.36,0,0,0,.74,3,3.15,3.15,0,0,0,4.78,0,5.36,5.36,0,0,0,.76-3,5.15,5.15,0,0,0-.76-3,2.74,2.74,0,0,0-2.4-1.08,2.67,2.67,0,0,0-2.38,1.08A5.15,5.15,0,0,0,684.72,131.62Zm19,5.38H702v-9.26h-3.16a43.17,43.17,0,0,1-.72,5.46,7.62,7.62,0,0,1-1.22,3,2.37,2.37,0,0,1-1.92.94,3,3,0,0,1-.52,0,1.06,1.06,0,0,1-.4-.1v-1.32a1,1,0,0,0,.26.06l.28,0c.72,0,1.29-.77,1.72-2.3a38.25,38.25,0,0,0,1-7.18h6.46Zm1.72-10.72h1.88l2.32,6.1c.2.53.38,1.05.54,1.54a10.08,10.08,0,0,1,.36,1.38h.08c.08-.33.21-.77.38-1.3s.35-1.09.54-1.64l2.18-6.08h1.9l-4.62,12.2a6.7,6.7,0,0,1-1.46,2.42,3.26,3.26,0,0,1-2.44.9,5.17,5.17,0,0,1-.84-.06,6.22,6.22,0,0,1-.62-.1v-1.4l.52.08a4.68,4.68,0,0,0,.66,0,2.09,2.09,0,0,0,1.48-.52,3.6,3.6,0,0,0,.9-1.38l.56-1.42Zm18.41,0v1.48h-4.78V137h-1.76V126.28Zm11.24,5.34a5.8,5.8,0,0,1-1.36,4.12,4.71,4.71,0,0,1-3.64,1.46,5,5,0,0,1-2.54-.64,4.65,4.65,0,0,1-1.74-1.9,6.6,6.6,0,0,1-.64-3,5.82,5.82,0,0,1,1.34-4.1,4.73,4.73,0,0,1,3.64-1.44,4.88,4.88,0,0,1,2.56.66,4.29,4.29,0,0,1,1.74,1.88A6.34,6.34,0,0,1,735.14,131.62Zm-8.1,0a5.44,5.44,0,0,0,.74,3,3.15,3.15,0,0,0,4.78,0,5.28,5.28,0,0,0,.76-3,5.07,5.07,0,0,0-.76-3,2.74,2.74,0,0,0-2.4-1.08,2.68,2.68,0,0,0-2.38,1.08A5.23,5.23,0,0,0,727,131.62Zm18.85-5.34v9.24h1.56v5.2h-1.7V137h-7.46v3.72h-1.68v-5.2h.86a13.49,13.49,0,0,0,2.06-4.32,18.08,18.08,0,0,0,.72-4.92Zm-4.08,1.38a16,16,0,0,1-.42,2.82,18.91,18.91,0,0,1-.88,2.76,10.2,10.2,0,0,1-1.22,2.28h4.9v-7.86Zm11.8-1.56a4.19,4.19,0,0,1,2.9.86,3.54,3.54,0,0,1,.94,2.74V137h-1.28l-.34-1.52h-.08a4.89,4.89,0,0,1-1.48,1.3,4.4,4.4,0,0,1-2.12.42,3.77,3.77,0,0,1-2.42-.76,2.94,2.94,0,0,1-1-2.42,2.79,2.79,0,0,1,1.26-2.46,7.17,7.17,0,0,1,3.88-1l1.82-.06v-.64a2.42,2.42,0,0,0-.58-1.86,2.34,2.34,0,0,0-1.64-.52,5,5,0,0,0-1.6.26,11.34,11.34,0,0,0-1.42.56L750,127a7.77,7.77,0,0,1,1.66-.64A7,7,0,0,1,753.61,126.1Zm.52,5.72a5.4,5.4,0,0,0-2.78.64,1.84,1.84,0,0,0-.76,1.58,1.57,1.57,0,0,0,.54,1.32,2.32,2.32,0,0,0,1.42.42,3.45,3.45,0,0,0,2.26-.74,2.87,2.87,0,0,0,.9-2.32v-1Zm13.63,1q0,.24,0,.72t-.06,1c0,.32,0,.57,0,.76l5.74-9h2.15V137H773.9v-7.16l0-1c0-.35,0-.61,0-.78l-5.69,9h-2.19V126.28h1.67Zm24.48-6.54v9.24h1.56v5.2h-1.7V137h-7.46v3.72H783v-5.2h.86a13.7,13.7,0,0,0,2.06-4.32,18.47,18.47,0,0,0,.72-4.92Zm-4.08,1.38a17,17,0,0,1-.42,2.82,18.91,18.91,0,0,1-.88,2.76,10.62,10.62,0,0,1-1.22,2.28h4.9v-7.86ZM800,126.1a4.2,4.2,0,0,1,2.9.86,3.54,3.54,0,0,1,.94,2.74V137h-1.28l-.34-1.52h-.08a4.89,4.89,0,0,1-1.48,1.3,4.43,4.43,0,0,1-2.12.42,3.77,3.77,0,0,1-2.42-.76,2.94,2.94,0,0,1-1-2.42,2.79,2.79,0,0,1,1.26-2.46,7.17,7.17,0,0,1,3.88-1l1.82-.06v-.64a2.42,2.42,0,0,0-.58-1.86,2.36,2.36,0,0,0-1.64-.52,5,5,0,0,0-1.6.26,10.77,10.77,0,0,0-1.42.56L796.3,127a7.77,7.77,0,0,1,1.66-.64A7,7,0,0,1,800,126.1Zm.52,5.72a5.4,5.4,0,0,0-2.78.64,1.84,1.84,0,0,0-.76,1.58,1.57,1.57,0,0,0,.54,1.32,2.3,2.3,0,0,0,1.42.42,3.45,3.45,0,0,0,2.26-.74,2.87,2.87,0,0,0,.9-2.32v-1ZM815.27,137h-1.78v-9.26h-3.16a39.77,39.77,0,0,1-.72,5.46,7.47,7.47,0,0,1-1.22,3,2.37,2.37,0,0,1-1.92.94,3,3,0,0,1-.52,0,1.12,1.12,0,0,1-.4-.1v-1.32a1.1,1.1,0,0,0,.26.06l.28,0c.72,0,1.29-.77,1.72-2.3a38.25,38.25,0,0,0,1-7.18h6.46Zm7.54-10.92a4.43,4.43,0,0,1,2.36.6,3.81,3.81,0,0,1,1.52,1.7,5.62,5.62,0,0,1,.54,2.54V132h-7.34a4.17,4.17,0,0,0,.92,2.78,3.29,3.29,0,0,0,2.5.94,8.06,8.06,0,0,0,1.8-.18,10.27,10.27,0,0,0,1.64-.56v1.54a7.82,7.82,0,0,1-1.62.52,8.69,8.69,0,0,1-1.9.18,5.78,5.78,0,0,1-2.7-.62,4.42,4.42,0,0,1-1.82-1.84,6.61,6.61,0,0,1-.64-3,7.29,7.29,0,0,1,.58-3,4.37,4.37,0,0,1,4.16-2.62Zm0,1.44a2.56,2.56,0,0,0-2,.82,3.84,3.84,0,0,0-.86,2.24h5.46a3.64,3.64,0,0,0-.64-2.2A2.25,2.25,0,0,0,822.79,127.52Zm11.31-1.44a4.43,4.43,0,0,1,2.36.6,3.81,3.81,0,0,1,1.52,1.7,5.62,5.62,0,0,1,.54,2.54V132h-7.34a4.17,4.17,0,0,0,.92,2.78,3.28,3.28,0,0,0,2.5.94,8.06,8.06,0,0,0,1.8-.18A10.61,10.61,0,0,0,838,135v1.54a8,8,0,0,1-1.62.52,8.69,8.69,0,0,1-1.9.18,5.78,5.78,0,0,1-2.7-.62,4.42,4.42,0,0,1-1.82-1.84,6.61,6.61,0,0,1-.64-3,7.14,7.14,0,0,1,.58-3,4.37,4.37,0,0,1,4.16-2.62Zm0,1.44a2.56,2.56,0,0,0-2,.82,3.84,3.84,0,0,0-.86,2.24h5.46a3.64,3.64,0,0,0-.64-2.2A2.26,2.26,0,0,0,834.08,127.52Zm6.43,13.2v-.18a14.22,14.22,0,0,0,3.12-4.94,16.4,16.4,0,0,0,1.08-5.92,16.78,16.78,0,0,0-1.14-6.12,13.37,13.37,0,0,0-3.36-5.06v-.18h1.9a12.6,12.6,0,0,1,3.22,4.94,18.66,18.66,0,0,1,.06,12.68,12.68,12.68,0,0,1-3,4.78Z" transform="translate(-61 -115)"/><path class="cls-7" d="M465.46,278h-1.8V265.3H459.2v-1.58h10.7v1.58h-4.44Zm8.81-10.9a4.19,4.19,0,0,1,2.9.86,3.54,3.54,0,0,1,.94,2.74V278h-1.28l-.34-1.52h-.08a4.78,4.78,0,0,1-1.48,1.3,4.43,4.43,0,0,1-2.12.42,3.77,3.77,0,0,1-2.42-.76,2.94,2.94,0,0,1-1-2.42,2.79,2.79,0,0,1,1.26-2.46,7.2,7.2,0,0,1,3.88-1l1.82-.06v-.64a2.42,2.42,0,0,0-.58-1.86,2.36,2.36,0,0,0-1.64-.52,5,5,0,0,0-1.6.26,11.34,11.34,0,0,0-1.42.56l-.54-1.32a7.77,7.77,0,0,1,1.66-.64A7,7,0,0,1,474.27,267.1Zm.52,5.72a5.4,5.4,0,0,0-2.78.64,1.86,1.86,0,0,0-.76,1.58,1.57,1.57,0,0,0,.54,1.32,2.32,2.32,0,0,0,1.42.42,3.45,3.45,0,0,0,2.26-.74,2.87,2.87,0,0,0,.9-2.32v-1Zm13-5.54h1.92l-4.58,5.16,5,5.56h-2l-4.84-5.44V278h-1.76V267.28h1.76v5.2Zm11.65,1.48h-3.5V278h-1.74v-9.24h-3.46v-1.48h8.7Zm3.77,5.06c0,.16,0,.4,0,.72s0,.64-.06,1,0,.57,0,.76l5.74-9H511V278h-1.64v-7.16c0-.35,0-.69,0-1s0-.61,0-.78l-5.7,9h-2.18V267.28h1.66Zm12.73-2.64c0,1.23.69,1.84,2.06,1.84a5.26,5.26,0,0,0,1.82-.3,10.13,10.13,0,0,0,1.68-.84v-4.6h1.76V278h-1.76v-4.78a9.75,9.75,0,0,1-1.78.92,6.06,6.06,0,0,1-2.08.32,3.64,3.64,0,0,1-2.56-.86,3,3,0,0,1-.9-2.3v-4h1.76Zm14.87-4.1a4.45,4.45,0,0,1,2.36.6,3.93,3.93,0,0,1,1.52,1.7,5.62,5.62,0,0,1,.54,2.54V273h-7.34a4.07,4.07,0,0,0,.92,2.78,3.28,3.28,0,0,0,2.5.94,8.06,8.06,0,0,0,1.8-.18,10.61,10.61,0,0,0,1.64-.56v1.54a8.22,8.22,0,0,1-1.62.52,8.82,8.82,0,0,1-1.9.18,5.72,5.72,0,0,1-2.7-.62,4.37,4.37,0,0,1-1.82-1.84,6.48,6.48,0,0,1-.64-3,7.14,7.14,0,0,1,.58-3,4.53,4.53,0,0,1,1.66-1.94A4.61,4.61,0,0,1,530.78,267.08Zm0,1.44a2.54,2.54,0,0,0-2,.82,3.78,3.78,0,0,0-.86,2.24h5.46a3.77,3.77,0,0,0-.64-2.2A2.27,2.27,0,0,0,530.76,268.52Zm11.47,9.68a5.37,5.37,0,0,1-2.54-.58,4.1,4.1,0,0,1-1.74-1.8,6.77,6.77,0,0,1-.62-3.12,6.85,6.85,0,0,1,.66-3.22,4.18,4.18,0,0,1,1.78-1.82,5.57,5.57,0,0,1,2.58-.58,6.9,6.9,0,0,1,1.58.18,5.48,5.48,0,0,1,1.24.4l-.54,1.46c-.32-.12-.7-.23-1.12-.34a4.84,4.84,0,0,0-1.2-.16q-3.16,0-3.16,4.06a5,5,0,0,0,.76,3,2.71,2.71,0,0,0,2.3,1,5.92,5.92,0,0,0,1.54-.18,8.19,8.19,0,0,0,1.24-.44v1.56a4.48,4.48,0,0,1-1.2.42A6.4,6.4,0,0,1,542.23,278.2Zm11.65-10.92h1.92l-4.58,5.16,5,5.56h-2l-4.84-5.44V278h-1.76V267.28h1.76v5.2Zm13.17,5.34a5.8,5.8,0,0,1-1.36,4.12,4.71,4.71,0,0,1-3.64,1.46,5,5,0,0,1-2.54-.64,4.65,4.65,0,0,1-1.74-1.9,6.73,6.73,0,0,1-.64-3,5.82,5.82,0,0,1,1.34-4.1,4.73,4.73,0,0,1,3.64-1.44,4.88,4.88,0,0,1,2.56.66,4.29,4.29,0,0,1,1.74,1.88A6.34,6.34,0,0,1,567.05,272.62Zm-8.1,0a5.44,5.44,0,0,0,.74,3,3.15,3.15,0,0,0,4.78,0,5.28,5.28,0,0,0,.76-3,5.07,5.07,0,0,0-.76-3,2.73,2.73,0,0,0-2.4-1.08,2.68,2.68,0,0,0-2.38,1.08A5.23,5.23,0,0,0,559,272.62Zm15-5.54a4.43,4.43,0,0,1,2.36.6,3.87,3.87,0,0,1,1.52,1.7,5.62,5.62,0,0,1,.54,2.54V273h-7.34a4.12,4.12,0,0,0,.92,2.78,3.28,3.28,0,0,0,2.5.94,8.06,8.06,0,0,0,1.8-.18,10.61,10.61,0,0,0,1.64-.56v1.54a8.22,8.22,0,0,1-1.62.52,8.76,8.76,0,0,1-1.9.18,5.78,5.78,0,0,1-2.7-.62,4.42,4.42,0,0,1-1.82-1.84,6.48,6.48,0,0,1-.64-3,7.14,7.14,0,0,1,.58-3,4.53,4.53,0,0,1,1.66-1.94A4.61,4.61,0,0,1,574,267.08Zm0,1.44a2.54,2.54,0,0,0-2,.82,3.78,3.78,0,0,0-.86,2.24h5.46a3.7,3.7,0,0,0-.64-2.2A2.26,2.26,0,0,0,574,268.52Zm21.56-1.24V278h-1.76v-9.22h-5.54V278h-1.76V267.28ZM607.1,278h-1.78v-9.26h-3.16a39.77,39.77,0,0,1-.72,5.46,7.33,7.33,0,0,1-1.22,3,2.34,2.34,0,0,1-1.92.94,3.12,3.12,0,0,1-.52,0,1.12,1.12,0,0,1-.4-.1v-1.32a1.1,1.1,0,0,0,.26.06l.28,0c.72,0,1.3-.77,1.72-2.3a37.42,37.42,0,0,0,1-7.18h6.46Zm7.47-10.9a4.22,4.22,0,0,1,2.9.86,3.58,3.58,0,0,1,.94,2.74V278h-1.28l-.35-1.52h-.07a4.92,4.92,0,0,1-1.49,1.3,4.4,4.4,0,0,1-2.12.42,3.78,3.78,0,0,1-2.42-.76,2.94,2.94,0,0,1-1-2.42,2.81,2.81,0,0,1,1.26-2.46,7.22,7.22,0,0,1,3.88-1l1.82-.06v-.64a2.42,2.42,0,0,0-.58-1.86,2.33,2.33,0,0,0-1.63-.52,5.08,5.08,0,0,0-1.61.26,11.19,11.19,0,0,0-1.41.56l-.54-1.32a7.38,7.38,0,0,1,1.66-.64A7,7,0,0,1,614.57,267.1Zm.52,5.72a5.44,5.44,0,0,0-2.79.64,1.86,1.86,0,0,0-.76,1.58,1.55,1.55,0,0,0,.55,1.32,2.28,2.28,0,0,0,1.42.42,3.49,3.49,0,0,0,2.26-.74,2.9,2.9,0,0,0,.89-2.32v-1Zm8.39-5.54v4.46h5.82v-4.46h1.76V278H629.3v-4.78h-5.82V278h-1.76V267.28Zm12.63,6.54c0,.16,0,.4,0,.72s0,.64-.06,1,0,.57,0,.76l5.74-9h2.16V278h-1.64v-7.16c0-.35,0-.69,0-1s0-.61,0-.78l-5.7,9h-2.18V267.28h1.66Zm16.29-6.74a4,4,0,0,1,3.18,1.38,6.1,6.1,0,0,1,1.22,4.16,6.19,6.19,0,0,1-1.22,4.16,4,4,0,0,1-3.2,1.42,4.13,4.13,0,0,1-2.06-.46,4.42,4.42,0,0,1-1.26-1.1h-.12c0,.23,0,.51.08.86s0,.65,0,.9v4.4H647.3V267.28h1.44l.24,1.46h.08a4.08,4.08,0,0,1,1.26-1.18A3.93,3.93,0,0,1,652.4,267.08Zm-.32,1.48a2.72,2.72,0,0,0-2.32.92,5,5,0,0,0-.7,2.8v.34a6.12,6.12,0,0,0,.64,3.06,2.62,2.62,0,0,0,2.42,1.06,2.33,2.33,0,0,0,1.6-.54,3.12,3.12,0,0,0,.94-1.46,6.46,6.46,0,0,0,.32-2.14,5.29,5.29,0,0,0-.72-2.94A2.41,2.41,0,0,0,652.08,268.56Zm16.85,4.06a5.85,5.85,0,0,1-1.36,4.12,4.72,4.72,0,0,1-3.64,1.46,5,5,0,0,1-2.54-.64,4.52,4.52,0,0,1-1.74-1.9,6.6,6.6,0,0,1-.64-3,5.77,5.77,0,0,1,1.34-4.1,4.72,4.72,0,0,1,3.64-1.44,4.9,4.9,0,0,1,2.56.66,4.41,4.41,0,0,1,1.74,1.88A6.46,6.46,0,0,1,668.93,272.62Zm-8.1,0a5.36,5.36,0,0,0,.74,3,3.15,3.15,0,0,0,4.78,0,5.36,5.36,0,0,0,.76-3,5.15,5.15,0,0,0-.76-3,2.74,2.74,0,0,0-2.4-1.08,2.67,2.67,0,0,0-2.38,1.08A5.15,5.15,0,0,0,660.83,272.62ZM680.34,270a2,2,0,0,1-.6,1.56,3.2,3.2,0,0,1-1.54.76v.08a3.56,3.56,0,0,1,1.74.72,2.07,2.07,0,0,1,.74,1.76,2.88,2.88,0,0,1-1,2.26,5,5,0,0,1-3.32.88h-4.62V267.28h4.6a7.48,7.48,0,0,1,2,.26,2.8,2.8,0,0,1,1.44.84A2.26,2.26,0,0,1,680.34,270Zm-1.78.22a1.2,1.2,0,0,0-.56-1.1,3.34,3.34,0,0,0-1.78-.36h-2.74v2.94h2.42C677.67,271.68,678.56,271.19,678.56,270.2Zm.3,4.66a1.42,1.42,0,0,0-.7-1.32,4.22,4.22,0,0,0-2.06-.4h-2.62v3.44h2.66a4.37,4.37,0,0,0,2-.38A1.43,1.43,0,0,0,678.86,274.86Zm8.44-7.76a4.2,4.2,0,0,1,2.9.86,3.54,3.54,0,0,1,.94,2.74V278h-1.28l-.34-1.52h-.08a4.89,4.89,0,0,1-1.48,1.3,4.43,4.43,0,0,1-2.12.42,3.77,3.77,0,0,1-2.42-.76,2.94,2.94,0,0,1-1-2.42,2.79,2.79,0,0,1,1.26-2.46,7.17,7.17,0,0,1,3.88-1l1.82-.06v-.64a2.42,2.42,0,0,0-.58-1.86,2.36,2.36,0,0,0-1.64-.52,5,5,0,0,0-1.6.26,10.77,10.77,0,0,0-1.42.56l-.54-1.32a7.77,7.77,0,0,1,1.66-.64A7,7,0,0,1,687.3,267.1Zm.52,5.72a5.4,5.4,0,0,0-2.78.64,1.84,1.84,0,0,0-.76,1.58,1.57,1.57,0,0,0,.54,1.32,2.3,2.3,0,0,0,1.42.42,3.45,3.45,0,0,0,2.26-.74,2.87,2.87,0,0,0,.9-2.32v-1Zm8.39-5.54v4.46H702v-4.46h1.76V278H702v-4.78h-5.82V278h-1.76V267.28Zm12.63,6.54c0,.16,0,.4,0,.72s0,.64-.06,1,0,.57,0,.76l5.74-9h2.16V278H715v-7.16c0-.35,0-.69,0-1s0-.61,0-.78l-5.7,9h-2.18V267.28h1.66Zm15.34-6.74a4.45,4.45,0,0,1,2.36.6,3.93,3.93,0,0,1,1.52,1.7,5.62,5.62,0,0,1,.54,2.54V273h-7.34a4.07,4.07,0,0,0,.92,2.78,3.28,3.28,0,0,0,2.5.94,8.06,8.06,0,0,0,1.8-.18,10.61,10.61,0,0,0,1.64-.56v1.54a8.22,8.22,0,0,1-1.62.52,8.82,8.82,0,0,1-1.9.18,5.72,5.72,0,0,1-2.7-.62,4.37,4.37,0,0,1-1.82-1.84,6.48,6.48,0,0,1-.64-3,7.14,7.14,0,0,1,.58-3,4.53,4.53,0,0,1,1.66-1.94A4.61,4.61,0,0,1,724.18,267.08Zm0,1.44a2.54,2.54,0,0,0-2,.82,3.78,3.78,0,0,0-.86,2.24h5.46a3.77,3.77,0,0,0-.64-2.2A2.27,2.27,0,0,0,724.16,268.52Zm17,13.2a12.84,12.84,0,0,1-3-4.78,19,19,0,0,1,.06-12.68,12.74,12.74,0,0,1,3.24-4.94h1.9v.18a13.42,13.42,0,0,0-3.38,5.06,17,17,0,0,0-1.12,6.12,16.6,16.6,0,0,0,1.06,5.92,14.27,14.27,0,0,0,3.14,4.94v.18Zm13.88-9.1a5.8,5.8,0,0,1-1.36,4.12,4.71,4.71,0,0,1-3.64,1.46,5,5,0,0,1-2.54-.64,4.65,4.65,0,0,1-1.74-1.9,6.6,6.6,0,0,1-.64-3,5.82,5.82,0,0,1,1.34-4.1,4.73,4.73,0,0,1,3.64-1.44,4.88,4.88,0,0,1,2.56.66,4.29,4.29,0,0,1,1.74,1.88A6.34,6.34,0,0,1,755.06,272.62Zm-8.1,0a5.44,5.44,0,0,0,.74,3,3.15,3.15,0,0,0,4.78,0,5.28,5.28,0,0,0,.76-3,5.07,5.07,0,0,0-.76-3,2.74,2.74,0,0,0-2.4-1.08,2.68,2.68,0,0,0-2.38,1.08A5.23,5.23,0,0,0,747,272.62Zm18.09-3.86h-3.5V278h-1.74v-9.24h-3.46v-1.48h8.7Zm6.51-3.56v-1.66h3.76V278h-1.84V265.2Zm20.64,2.08v9.24h1.56v5.2h-1.71V278h-7.46v3.72h-1.68v-5.2h.87a13.7,13.7,0,0,0,2.06-4.32,18.46,18.46,0,0,0,.71-4.92Zm-4.09,1.38a17,17,0,0,1-.41,2.82,20.2,20.2,0,0,1-.88,2.76,10.21,10.21,0,0,1-1.23,2.28h4.9v-7.86Zm9.51-1.38v4.46h5.82v-4.46h1.76V278h-1.76v-4.78h-5.82V278h-1.76V267.28ZM809.25,278h-2l3.06-4.5a4.78,4.78,0,0,1-1.2-.5,2.76,2.76,0,0,1-.94-1,3.18,3.18,0,0,1-.36-1.58,2.77,2.77,0,0,1,1-2.34,4.3,4.3,0,0,1,2.76-.82h4.8V278h-1.76v-4.26H812Zm.22-7.54a1.57,1.57,0,0,0,.68,1.38,3.67,3.67,0,0,0,1.94.44h2.52v-3.54h-2.86a2.63,2.63,0,0,0-1.76.48A1.59,1.59,0,0,0,809.47,270.46Zm17.29,3.36q0,.24,0,.72t-.06,1c0,.32,0,.57,0,.76l5.74-9h2.15V278H832.9v-7.16l0-1c0-.35,0-.61,0-.78l-5.69,9h-2.19V267.28h1.67Zm24.48-6.54v9.24h1.56v5.2h-1.7V278h-7.46v3.72H842v-5.2h.86a13.7,13.7,0,0,0,2.06-4.32,18.47,18.47,0,0,0,.72-4.92Zm-4.08,1.38a17,17,0,0,1-.42,2.82,18.91,18.91,0,0,1-.88,2.76,10.62,10.62,0,0,1-1.22,2.28h4.9v-7.86Zm17.06,4a5.8,5.8,0,0,1-1.36,4.12,4.71,4.71,0,0,1-3.64,1.46,5,5,0,0,1-2.54-.64,4.65,4.65,0,0,1-1.74-1.9,6.6,6.6,0,0,1-.64-3,5.82,5.82,0,0,1,1.34-4.1,4.73,4.73,0,0,1,3.64-1.44,4.88,4.88,0,0,1,2.56.66,4.29,4.29,0,0,1,1.74,1.88A6.34,6.34,0,0,1,864.22,272.62Zm-8.1,0a5.44,5.44,0,0,0,.74,3,3.15,3.15,0,0,0,4.78,0,5.28,5.28,0,0,0,.76-3,5.07,5.07,0,0,0-.76-3,2.74,2.74,0,0,0-2.4-1.08,2.68,2.68,0,0,0-2.38,1.08A5.23,5.23,0,0,0,856.12,272.62Zm27.72-5.34V278h-1.58v-6.84c0-.28,0-.57,0-.88s.05-.61.08-.9h-.06L878.8,278h-1.48l-3.4-8.62h-.06c0,.6.06,1.21.06,1.84V278h-1.58V267.28h2.34l3.38,8.62,3.44-8.62Zm7.56-.2a4.43,4.43,0,0,1,2.36.6,3.81,3.81,0,0,1,1.52,1.7,5.62,5.62,0,0,1,.54,2.54V273h-7.34a4.17,4.17,0,0,0,.92,2.78,3.29,3.29,0,0,0,2.5.94,8.06,8.06,0,0,0,1.8-.18,10.27,10.27,0,0,0,1.64-.56v1.54a7.82,7.82,0,0,1-1.62.52,8.69,8.69,0,0,1-1.9.18,5.78,5.78,0,0,1-2.7-.62,4.42,4.42,0,0,1-1.82-1.84,6.61,6.61,0,0,1-.64-3,7.29,7.29,0,0,1,.58-3,4.37,4.37,0,0,1,4.16-2.62Zm0,1.44a2.56,2.56,0,0,0-2,.82,3.84,3.84,0,0,0-.86,2.24H894a3.64,3.64,0,0,0-.64-2.2A2.25,2.25,0,0,0,891.38,268.52Zm11.47,9.68a5.43,5.43,0,0,1-2.54-.58,4.21,4.21,0,0,1-1.74-1.8,8.17,8.17,0,0,1,0-6.34,4.23,4.23,0,0,1,1.78-1.82,5.57,5.57,0,0,1,2.58-.58,6.83,6.83,0,0,1,1.58.18,5.31,5.31,0,0,1,1.24.4l-.54,1.46a11,11,0,0,0-1.12-.34,4.78,4.78,0,0,0-1.2-.16c-2.1,0-3.16,1.35-3.16,4.06a5,5,0,0,0,.76,3,2.72,2.72,0,0,0,2.3,1,5.87,5.87,0,0,0,1.54-.18,7.48,7.48,0,0,0,1.24-.44v1.56a4.48,4.48,0,0,1-1.2.42A6.34,6.34,0,0,1,902.85,278.2Zm6-.2h-2l3.06-4.5a4.78,4.78,0,0,1-1.2-.5,2.76,2.76,0,0,1-.94-1,3.18,3.18,0,0,1-.36-1.58,2.77,2.77,0,0,1,1-2.34,4.3,4.3,0,0,1,2.76-.82h4.8V278h-1.76v-4.26h-2.6Zm.22-7.54a1.57,1.57,0,0,0,.68,1.38,3.67,3.67,0,0,0,1.94.44h2.52v-3.54h-2.86a2.63,2.63,0,0,0-1.76.48A1.59,1.59,0,0,0,909,270.46Zm20.87,11.26h-1.72V278h-8.86V267.28h1.76v9.24h5.54v-9.24h1.76v9.26h1.52ZM936,267.1a4.2,4.2,0,0,1,2.9.86,3.54,3.54,0,0,1,.94,2.74V278h-1.28l-.34-1.52h-.08a4.89,4.89,0,0,1-1.48,1.3,4.43,4.43,0,0,1-2.12.42,3.77,3.77,0,0,1-2.42-.76,2.94,2.94,0,0,1-1-2.42,2.79,2.79,0,0,1,1.26-2.46,7.17,7.17,0,0,1,3.88-1l1.82-.06v-.64a2.42,2.42,0,0,0-.58-1.86,2.36,2.36,0,0,0-1.64-.52,5,5,0,0,0-1.6.26,10.77,10.77,0,0,0-1.42.56l-.54-1.32a7.77,7.77,0,0,1,1.66-.64A7,7,0,0,1,936,267.1Zm.52,5.72a5.4,5.4,0,0,0-2.78.64A1.84,1.84,0,0,0,933,275a1.57,1.57,0,0,0,.54,1.32,2.3,2.3,0,0,0,1.42.42,3.45,3.45,0,0,0,2.26-.74,2.87,2.87,0,0,0,.9-2.32v-1Zm5.89,8.9v-.18a14.22,14.22,0,0,0,3.12-4.94,16.4,16.4,0,0,0,1.08-5.92,16.78,16.78,0,0,0-1.14-6.12,13.37,13.37,0,0,0-3.36-5.06v-.18H944a12.6,12.6,0,0,1,3.22,4.94,18.66,18.66,0,0,1,.06,12.68,12.68,12.68,0,0,1-3,4.78Z" transform="translate(-61 -115)"/><path class="cls-7" d="M516.4,412.84a9.2,9.2,0,0,1-.76,3.88,5.74,5.74,0,0,1-2.2,2.56,6.69,6.69,0,0,1-3.62.92,6.93,6.93,0,0,1-3.7-.92,5.59,5.59,0,0,1-2.18-2.58,9.7,9.7,0,0,1-.72-3.88,9.46,9.46,0,0,1,.72-3.84,5.64,5.64,0,0,1,2.18-2.56,7,7,0,0,1,3.72-.92,6.64,6.64,0,0,1,3.6.92,5.58,5.58,0,0,1,2.2,2.56A9,9,0,0,1,516.4,412.84Zm-11.28,0a7.08,7.08,0,0,0,1.14,4.26,4.88,4.88,0,0,0,7.12,0,7.16,7.16,0,0,0,1.12-4.26,7,7,0,0,0-1.12-4.22,4.08,4.08,0,0,0-3.54-1.54,4.18,4.18,0,0,0-3.58,1.54A6.89,6.89,0,0,0,505.12,412.84Zm23.27-3.56V420h-1.76v-9.22h-5.55V420h-1.75V409.28Zm7.56-.2a4.41,4.41,0,0,1,2.35.6,3.89,3.89,0,0,1,1.53,1.7,5.76,5.76,0,0,1,.53,2.54V415H533a4.12,4.12,0,0,0,.93,2.78,3.28,3.28,0,0,0,2.5.94,7.9,7.9,0,0,0,1.79-.18,10.37,10.37,0,0,0,1.65-.56v1.54a8.22,8.22,0,0,1-1.62.52,8.85,8.85,0,0,1-1.91.18,5.71,5.71,0,0,1-2.69-.62,4.37,4.37,0,0,1-1.82-1.84,6.48,6.48,0,0,1-.65-3,7.13,7.13,0,0,1,.59-3,4.47,4.47,0,0,1,1.66-1.94A4.61,4.61,0,0,1,536,409.08Zm0,1.44a2.56,2.56,0,0,0-2,.82,3.84,3.84,0,0,0-.85,2.24h5.45a3.7,3.7,0,0,0-.63-2.2A2.28,2.28,0,0,0,535.92,410.52Zm12.28-1.44a4,4,0,0,1,3.18,1.38,6.15,6.15,0,0,1,1.22,4.16,6.24,6.24,0,0,1-1.22,4.16,4,4,0,0,1-3.21,1.42,4.16,4.16,0,0,1-2.06-.46,4.24,4.24,0,0,1-1.25-1.1h-.13c0,.23.06.51.09.86s0,.65,0,.9v4.4H543.1V409.28h1.44l.23,1.46h.09a4,4,0,0,1,1.25-1.18A4,4,0,0,1,548.2,409.08Zm-.32,1.48a2.73,2.73,0,0,0-2.33.92,5,5,0,0,0-.69,2.8v.34a6.13,6.13,0,0,0,.63,3.06,2.63,2.63,0,0,0,2.43,1.06,2.37,2.37,0,0,0,1.6-.54,3.1,3.1,0,0,0,.93-1.46,6.46,6.46,0,0,0,.32-2.14,5.2,5.2,0,0,0-.72-2.94A2.39,2.39,0,0,0,547.88,410.56Zm11.58-1.46a4.2,4.2,0,0,1,2.9.86,3.54,3.54,0,0,1,.94,2.74V420H562l-.34-1.52h-.08a4.89,4.89,0,0,1-1.48,1.3,4.43,4.43,0,0,1-2.12.42,3.77,3.77,0,0,1-2.42-.76,2.94,2.94,0,0,1-1-2.42,2.79,2.79,0,0,1,1.26-2.46,7.17,7.17,0,0,1,3.88-1l1.82-.06v-.64A2.42,2.42,0,0,0,561,411a2.36,2.36,0,0,0-1.64-.52,5,5,0,0,0-1.6.26,10.77,10.77,0,0,0-1.42.56L555.8,410a7.77,7.77,0,0,1,1.66-.64A7,7,0,0,1,559.46,409.1Zm.52,5.72a5.4,5.4,0,0,0-2.78.64,1.84,1.84,0,0,0-.76,1.58,1.57,1.57,0,0,0,.54,1.32,2.3,2.3,0,0,0,1.42.42,3.45,3.45,0,0,0,2.26-.74,2.87,2.87,0,0,0,.9-2.32v-1Zm14-4.06h-3.5V420h-1.74v-9.24h-3.46v-1.48H574Zm3.77,5.06c0,.16,0,.4,0,.72s0,.64-.06,1,0,.57,0,.76l5.74-9h2.16V420h-1.64v-7.16c0-.35,0-.69,0-1s0-.61,0-.78l-5.7,9h-2.18V409.28h1.66ZM597.59,412a2,2,0,0,1-.6,1.56,3.15,3.15,0,0,1-1.54.76v.08a3.48,3.48,0,0,1,1.74.72,2,2,0,0,1,.74,1.76,2.88,2.88,0,0,1-1,2.26,5,5,0,0,1-3.32.88H589V409.28h4.6a7.48,7.48,0,0,1,2,.26,2.72,2.72,0,0,1,1.44.84A2.26,2.26,0,0,1,597.59,412Zm-1.78.22a1.18,1.18,0,0,0-.56-1.1,3.32,3.32,0,0,0-1.78-.36h-2.74v2.94h2.42C594.93,413.68,595.81,413.19,595.81,412.2Zm.3,4.66a1.4,1.4,0,0,0-.7-1.32,4.17,4.17,0,0,0-2.06-.4h-2.62v3.44h2.66a4.34,4.34,0,0,0,2-.38A1.41,1.41,0,0,0,596.11,416.86Zm6.15-7.58v4.46h5.82v-4.46h1.76V420h-1.76v-4.78h-5.82V420H600.5V409.28Zm20.29,5.34a5.8,5.8,0,0,1-1.36,4.12,4.69,4.69,0,0,1-3.64,1.46,5,5,0,0,1-2.54-.64,4.65,4.65,0,0,1-1.74-1.9,6.6,6.6,0,0,1-.64-3,5.82,5.82,0,0,1,1.34-4.1,4.73,4.73,0,0,1,3.64-1.44,4.85,4.85,0,0,1,2.56.66,4.29,4.29,0,0,1,1.74,1.88A6.34,6.34,0,0,1,622.55,414.62Zm-8.1,0a5.44,5.44,0,0,0,.74,3,2.73,2.73,0,0,0,2.4,1.1,2.69,2.69,0,0,0,2.38-1.1,5.28,5.28,0,0,0,.76-3,5.07,5.07,0,0,0-.76-3,2.73,2.73,0,0,0-2.4-1.08,2.68,2.68,0,0,0-2.38,1.08A5.23,5.23,0,0,0,614.45,414.62Zm15-5.54a4.43,4.43,0,0,1,2.36.6,3.87,3.87,0,0,1,1.52,1.7,5.62,5.62,0,0,1,.54,2.54V415h-7.34a4.12,4.12,0,0,0,.92,2.78,3.28,3.28,0,0,0,2.5.94,8.06,8.06,0,0,0,1.8-.18,10.61,10.61,0,0,0,1.64-.56v1.54a8.22,8.22,0,0,1-1.62.52,8.76,8.76,0,0,1-1.9.18,5.78,5.78,0,0,1-2.7-.62,4.42,4.42,0,0,1-1.82-1.84,6.48,6.48,0,0,1-.64-3,7.14,7.14,0,0,1,.58-3,4.53,4.53,0,0,1,1.66-1.94A4.61,4.61,0,0,1,629.48,409.08Zm0,1.44a2.54,2.54,0,0,0-2,.82,3.78,3.78,0,0,0-.86,2.24h5.46a3.7,3.7,0,0,0-.64-2.2A2.26,2.26,0,0,0,629.46,410.52ZM651,409.28V420h-1.76v-9.22h-5.54V420H642V409.28Zm7.56-.2a4.43,4.43,0,0,1,2.36.6,3.81,3.81,0,0,1,1.52,1.7,5.62,5.62,0,0,1,.54,2.54V415h-7.34a4.17,4.17,0,0,0,.92,2.78,3.29,3.29,0,0,0,2.5.94,8.06,8.06,0,0,0,1.8-.18,10.27,10.27,0,0,0,1.64-.56v1.54a7.82,7.82,0,0,1-1.62.52,8.69,8.69,0,0,1-1.9.18,5.78,5.78,0,0,1-2.7-.62,4.42,4.42,0,0,1-1.82-1.84,6.61,6.61,0,0,1-.64-3,7.29,7.29,0,0,1,.58-3,4.37,4.37,0,0,1,4.16-2.62Zm0,1.44a2.56,2.56,0,0,0-2,.82,3.84,3.84,0,0,0-.86,2.24h5.46a3.64,3.64,0,0,0-.64-2.2A2.25,2.25,0,0,0,658.56,410.52Zm12.27-1.44a4,4,0,0,1,3.18,1.38,6.1,6.1,0,0,1,1.22,4.16,6.19,6.19,0,0,1-1.22,4.16,4,4,0,0,1-3.2,1.42,4.13,4.13,0,0,1-2.06-.46,4.42,4.42,0,0,1-1.26-1.1h-.12c0,.23,0,.51.08.86s0,.65,0,.9v4.4h-1.76V409.28h1.44l.24,1.46h.08a4.08,4.08,0,0,1,1.26-1.18A4,4,0,0,1,670.83,409.08Zm-.32,1.48a2.72,2.72,0,0,0-2.32.92,5,5,0,0,0-.7,2.8v.34a6.12,6.12,0,0,0,.64,3.06,2.62,2.62,0,0,0,2.42,1.06,2.33,2.33,0,0,0,1.6-.54,3.12,3.12,0,0,0,.94-1.46,6.73,6.73,0,0,0,.32-2.14,5.29,5.29,0,0,0-.72-2.94A2.41,2.41,0,0,0,670.51,410.56Zm11.67-1.48a4.45,4.45,0,0,1,2.36.6,3.93,3.93,0,0,1,1.52,1.7,5.62,5.62,0,0,1,.54,2.54V415h-7.34a4.07,4.07,0,0,0,.92,2.78,3.28,3.28,0,0,0,2.5.94,8.06,8.06,0,0,0,1.8-.18,10.61,10.61,0,0,0,1.64-.56v1.54a8.22,8.22,0,0,1-1.62.52,8.82,8.82,0,0,1-1.9.18,5.72,5.72,0,0,1-2.7-.62,4.37,4.37,0,0,1-1.82-1.84,6.48,6.48,0,0,1-.64-3,7.14,7.14,0,0,1,.58-3,4.53,4.53,0,0,1,1.66-1.94A4.61,4.61,0,0,1,682.18,409.08Zm0,1.44a2.54,2.54,0,0,0-2,.82,3.78,3.78,0,0,0-.86,2.24h5.46a3.77,3.77,0,0,0-.64-2.2A2.27,2.27,0,0,0,682.16,410.52Zm16.23-1.24V420h-1.76v-9.22h-5.54V420h-1.76V409.28ZM710,420h-1.79v-9.26H705a41.16,41.16,0,0,1-.73,5.46,7.48,7.48,0,0,1-1.21,3,2.37,2.37,0,0,1-1.93.94,2.92,2.92,0,0,1-.51,0,1.12,1.12,0,0,1-.41-.1v-1.32a1.18,1.18,0,0,0,.27.06l.27,0c.73,0,1.3-.77,1.73-2.3a38.25,38.25,0,0,0,1-7.18H710Zm7.46-10.9a4.22,4.22,0,0,1,2.9.86,3.54,3.54,0,0,1,.94,2.74V420H720l-.34-1.52h-.08a4.89,4.89,0,0,1-1.48,1.3,4.43,4.43,0,0,1-2.12.42,3.75,3.75,0,0,1-2.42-.76,2.94,2.94,0,0,1-1-2.42,2.79,2.79,0,0,1,1.26-2.46,7.17,7.17,0,0,1,3.88-1l1.82-.06v-.64A2.46,2.46,0,0,0,719,411a2.37,2.37,0,0,0-1.64-.52,5,5,0,0,0-1.6.26,10.77,10.77,0,0,0-1.42.56l-.54-1.32a7.57,7.57,0,0,1,1.66-.64A7,7,0,0,1,717.43,409.1Zm.52,5.72a5.37,5.37,0,0,0-2.78.64,1.84,1.84,0,0,0-.76,1.58,1.57,1.57,0,0,0,.54,1.32,2.28,2.28,0,0,0,1.42.42,3.45,3.45,0,0,0,2.26-.74,2.87,2.87,0,0,0,.9-2.32v-1Zm8.39-5.54v4.46h5.82v-4.46h1.76V420h-1.76v-4.78h-5.82V420h-1.76V409.28ZM739,415.82c0,.16,0,.4,0,.72s0,.64-.06,1,0,.57,0,.76l5.74-9h2.16V420h-1.64v-7.16c0-.35,0-.69,0-1s0-.61,0-.78l-5.7,9h-2.18V409.28H739Zm16.3-6.74a4,4,0,0,1,3.18,1.38,6.15,6.15,0,0,1,1.21,4.16,6.24,6.24,0,0,1-1.21,4.16,4,4,0,0,1-3.21,1.42,4.16,4.16,0,0,1-2.06-.46,4.42,4.42,0,0,1-1.26-1.1h-.12c0,.23.06.51.09.86s0,.65,0,.9v4.4h-1.76V409.28h1.44l.24,1.46h.08a4.08,4.08,0,0,1,1.26-1.18A4,4,0,0,1,755.27,409.08Zm-.32,1.48a2.7,2.7,0,0,0-2.32.92,5,5,0,0,0-.71,2.8v.34a6,6,0,0,0,.65,3.06,2.6,2.6,0,0,0,2.41,1.06,2.37,2.37,0,0,0,1.61-.54,3.19,3.19,0,0,0,.94-1.46,6.74,6.74,0,0,0,.31-2.14,5.37,5.37,0,0,0-.71-2.94A2.42,2.42,0,0,0,755,410.56Zm16.84,4.06a5.8,5.8,0,0,1-1.36,4.12,4.71,4.71,0,0,1-3.64,1.46,5,5,0,0,1-2.54-.64,4.65,4.65,0,0,1-1.74-1.9,6.6,6.6,0,0,1-.64-3,5.82,5.82,0,0,1,1.34-4.1,4.73,4.73,0,0,1,3.64-1.44,4.88,4.88,0,0,1,2.56.66,4.29,4.29,0,0,1,1.74,1.88A6.34,6.34,0,0,1,771.79,414.62Zm-8.1,0a5.44,5.44,0,0,0,.74,3,3.15,3.15,0,0,0,4.78,0,5.28,5.28,0,0,0,.76-3,5.07,5.07,0,0,0-.76-3,2.74,2.74,0,0,0-2.4-1.08,2.68,2.68,0,0,0-2.38,1.08A5.23,5.23,0,0,0,763.69,414.62ZM783.2,412a2,2,0,0,1-.6,1.56,3.15,3.15,0,0,1-1.54.76v.08a3.48,3.48,0,0,1,1.74.72,2.07,2.07,0,0,1,.74,1.76,2.88,2.88,0,0,1-1,2.26,5,5,0,0,1-3.32.88h-4.62V409.28h4.6a7.48,7.48,0,0,1,2,.26,2.8,2.8,0,0,1,1.44.84A2.26,2.26,0,0,1,783.2,412Zm-1.78.22a1.2,1.2,0,0,0-.56-1.1,3.32,3.32,0,0,0-1.78-.36h-2.74v2.94h2.42C780.53,413.68,781.42,413.19,781.42,412.2Zm.3,4.66a1.4,1.4,0,0,0-.7-1.32,4.2,4.2,0,0,0-2.06-.4h-2.62v3.44H779a4.37,4.37,0,0,0,2-.38A1.41,1.41,0,0,0,781.72,416.86Zm8.44-7.76a4.19,4.19,0,0,1,2.9.86,3.54,3.54,0,0,1,.94,2.74V420h-1.28l-.34-1.52h-.08a4.78,4.78,0,0,1-1.48,1.3,4.4,4.4,0,0,1-2.12.42,3.77,3.77,0,0,1-2.42-.76,2.94,2.94,0,0,1-1-2.42,2.79,2.79,0,0,1,1.26-2.46,7.2,7.2,0,0,1,3.88-1l1.82-.06v-.64a2.42,2.42,0,0,0-.58-1.86,2.34,2.34,0,0,0-1.64-.52,5,5,0,0,0-1.6.26,11.34,11.34,0,0,0-1.42.56L786.5,410a7.77,7.77,0,0,1,1.66-.64A7,7,0,0,1,790.16,409.1Zm.52,5.72a5.4,5.4,0,0,0-2.78.64,1.86,1.86,0,0,0-.76,1.58,1.57,1.57,0,0,0,.54,1.32,2.32,2.32,0,0,0,1.42.42,3.45,3.45,0,0,0,2.26-.74,2.87,2.87,0,0,0,.9-2.32v-1Zm8.39-5.54v4.46h5.82v-4.46h1.76V420h-1.76v-4.78h-5.82V420h-1.76V409.28Zm12.64,6.54c0,.16,0,.4,0,.72l-.06,1c0,.32,0,.57,0,.76l5.74-9h2.16V420h-1.64v-7.16c0-.35,0-.69,0-1s0-.61,0-.78l-5.7,9h-2.18V409.28h1.66ZM827,409.08a4.43,4.43,0,0,1,2.36.6,3.87,3.87,0,0,1,1.52,1.7,5.62,5.62,0,0,1,.54,2.54V415h-7.34a4.12,4.12,0,0,0,.92,2.78,3.28,3.28,0,0,0,2.5.94,8.06,8.06,0,0,0,1.8-.18A10.61,10.61,0,0,0,831,418v1.54a8.22,8.22,0,0,1-1.62.52,8.76,8.76,0,0,1-1.9.18,5.78,5.78,0,0,1-2.7-.62,4.42,4.42,0,0,1-1.82-1.84,6.48,6.48,0,0,1-.64-3,7.14,7.14,0,0,1,.58-3,4.53,4.53,0,0,1,1.66-1.94A4.61,4.61,0,0,1,827,409.08Zm0,1.44a2.54,2.54,0,0,0-2,.82,3.78,3.78,0,0,0-.86,2.24h5.46a3.7,3.7,0,0,0-.64-2.2A2.26,2.26,0,0,0,827,410.52ZM848.14,412a2,2,0,0,1-.6,1.56,3.15,3.15,0,0,1-1.54.76v.08a3.48,3.48,0,0,1,1.74.72,2.07,2.07,0,0,1,.74,1.76,2.88,2.88,0,0,1-1,2.26,5,5,0,0,1-3.32.88h-4.62V409.28h4.6a7.48,7.48,0,0,1,2,.26,2.8,2.8,0,0,1,1.44.84A2.26,2.26,0,0,1,848.14,412Zm-1.78.22a1.2,1.2,0,0,0-.56-1.1,3.32,3.32,0,0,0-1.78-.36h-2.74v2.94h2.42C845.47,413.68,846.36,413.19,846.36,412.2Zm.3,4.66a1.4,1.4,0,0,0-.7-1.32,4.2,4.2,0,0,0-2.06-.4h-2.62v3.44h2.66a4.37,4.37,0,0,0,2-.38A1.41,1.41,0,0,0,846.66,416.86Zm14.82-7.78a4,4,0,0,1,3.18,1.38,6.15,6.15,0,0,1,1.22,4.16,6.24,6.24,0,0,1-1.22,4.16,4,4,0,0,1-3.2,1.42,4.11,4.11,0,0,1-2.06-.46,4.16,4.16,0,0,1-1.26-1.1H858c0,.23.05.51.08.86s0,.65,0,.9v4.4h-1.76V409.28h1.44l.24,1.46h.08a4.08,4.08,0,0,1,1.26-1.18A3.93,3.93,0,0,1,861.48,409.08Zm-.32,1.48a2.7,2.7,0,0,0-2.32.92,5,5,0,0,0-.7,2.8v.34a6,6,0,0,0,.64,3.06,2.61,2.61,0,0,0,2.42,1.06,2.37,2.37,0,0,0,1.6-.54,3.19,3.19,0,0,0,.94-1.46,6.73,6.73,0,0,0,.32-2.14,5.29,5.29,0,0,0-.72-2.94A2.42,2.42,0,0,0,861.16,410.56Zm11.66-1.48a4.43,4.43,0,0,1,2.36.6,3.87,3.87,0,0,1,1.52,1.7,5.62,5.62,0,0,1,.54,2.54V415H869.9a4.12,4.12,0,0,0,.92,2.78,3.28,3.28,0,0,0,2.5.94,8.06,8.06,0,0,0,1.8-.18,10.61,10.61,0,0,0,1.64-.56v1.54a8.22,8.22,0,0,1-1.62.52,8.76,8.76,0,0,1-1.9.18,5.78,5.78,0,0,1-2.7-.62,4.42,4.42,0,0,1-1.82-1.84,6.48,6.48,0,0,1-.64-3,7.14,7.14,0,0,1,.58-3,4.53,4.53,0,0,1,1.66-1.94A4.61,4.61,0,0,1,872.82,409.08Zm0,1.44a2.54,2.54,0,0,0-2,.82,3.78,3.78,0,0,0-.86,2.24h5.46a3.7,3.7,0,0,0-.64-2.2A2.26,2.26,0,0,0,872.8,410.52ZM884,409.1a4.2,4.2,0,0,1,2.9.86,3.54,3.54,0,0,1,.94,2.74V420h-1.28l-.34-1.52h-.08a4.89,4.89,0,0,1-1.48,1.3,4.43,4.43,0,0,1-2.12.42,3.77,3.77,0,0,1-2.42-.76,2.94,2.94,0,0,1-1-2.42,2.79,2.79,0,0,1,1.26-2.46,7.17,7.17,0,0,1,3.88-1l1.82-.06v-.64a2.42,2.42,0,0,0-.58-1.86,2.36,2.36,0,0,0-1.64-.52,5,5,0,0,0-1.6.26,10.77,10.77,0,0,0-1.42.56l-.54-1.32a7.77,7.77,0,0,1,1.66-.64A7,7,0,0,1,884,409.1Zm.52,5.72a5.4,5.4,0,0,0-2.78.64A1.84,1.84,0,0,0,881,417a1.57,1.57,0,0,0,.54,1.32,2.3,2.3,0,0,0,1.42.42,3.45,3.45,0,0,0,2.26-.74,2.87,2.87,0,0,0,.9-2.32v-1ZM899.34,420h-1.78v-9.26H894.4a39.77,39.77,0,0,1-.72,5.46,7.47,7.47,0,0,1-1.22,3,2.37,2.37,0,0,1-1.92.94,3,3,0,0,1-.52,0,1.12,1.12,0,0,1-.4-.1v-1.32a1.1,1.1,0,0,0,.26.06l.28,0c.72,0,1.29-.77,1.72-2.3a38.25,38.25,0,0,0,1-7.18h6.46Zm8.34-6.32q4.19,0,4.18,3a3,3,0,0,1-1,2.4,4.88,4.88,0,0,1-3.24.88h-4.86V409.28h1.76v4.4Zm2.42,3.14a1.32,1.32,0,0,0-.7-1.32,4.15,4.15,0,0,0-1.92-.36h-3v3.44h3a3.72,3.72,0,0,0,1.84-.4A1.41,1.41,0,0,0,910.1,416.82Zm6.28-7.54v4.46h5.82v-4.46H924V420H922.2v-4.78h-5.82V420h-1.76V409.28Zm20.29,5.34a5.8,5.8,0,0,1-1.36,4.12,4.69,4.69,0,0,1-3.64,1.46,5,5,0,0,1-2.54-.64,4.65,4.65,0,0,1-1.74-1.9,6.73,6.73,0,0,1-.64-3,5.82,5.82,0,0,1,1.34-4.1,4.75,4.75,0,0,1,3.64-1.44,4.85,4.85,0,0,1,2.56.66,4.29,4.29,0,0,1,1.74,1.88A6.34,6.34,0,0,1,936.67,414.62Zm-8.1,0a5.44,5.44,0,0,0,.74,3,2.73,2.73,0,0,0,2.4,1.1,2.69,2.69,0,0,0,2.38-1.1,5.28,5.28,0,0,0,.76-3,5.07,5.07,0,0,0-.76-3,3.18,3.18,0,0,0-4.78,0A5.23,5.23,0,0,0,928.57,414.62ZM951,409.28V420h-1.58v-6.84c0-.28,0-.57,0-.88s.06-.61.08-.9h-.06l-3.5,8.62h-1.48l-3.4-8.62H941c0,.6.06,1.21.06,1.84V420h-1.58V409.28h2.34l3.38,8.62,3.44-8.62Zm17.38,2.7a2,2,0,0,1-.6,1.56,3.2,3.2,0,0,1-1.54.76v.08a3.56,3.56,0,0,1,1.74.72,2.07,2.07,0,0,1,.74,1.76,2.88,2.88,0,0,1-1,2.26,5,5,0,0,1-3.32.88h-4.62V409.28h4.6a7.48,7.48,0,0,1,2,.26,2.8,2.8,0,0,1,1.44.84A2.26,2.26,0,0,1,968.34,412Zm-1.78.22a1.2,1.2,0,0,0-.56-1.1,3.34,3.34,0,0,0-1.78-.36h-2.74v2.94h2.42C965.67,413.68,966.56,413.19,966.56,412.2Zm.3,4.66a1.42,1.42,0,0,0-.7-1.32,4.22,4.22,0,0,0-2.06-.4h-2.62v3.44h2.66a4.37,4.37,0,0,0,2-.38A1.43,1.43,0,0,0,966.86,416.86Zm9.48-7.78a4,4,0,0,1,3.18,1.38,6.15,6.15,0,0,1,1.22,4.16,6.24,6.24,0,0,1-1.22,4.16,4,4,0,0,1-3.2,1.42,4.13,4.13,0,0,1-2.06-.46,4.42,4.42,0,0,1-1.26-1.1h-.12c0,.23,0,.51.08.86s0,.65,0,.9v4.4h-1.76V409.28h1.44l.24,1.46H973a4.08,4.08,0,0,1,1.26-1.18A3.93,3.93,0,0,1,976.34,409.08Zm-.32,1.48a2.71,2.71,0,0,0-2.32.92,5,5,0,0,0-.7,2.8v.34a6,6,0,0,0,.64,3.06,2.62,2.62,0,0,0,2.42,1.06,2.35,2.35,0,0,0,1.6-.54,3.12,3.12,0,0,0,.94-1.46,6.73,6.73,0,0,0,.32-2.14,5.29,5.29,0,0,0-.72-2.94A2.41,2.41,0,0,0,976,410.56Zm11.66-1.48a4.43,4.43,0,0,1,2.36.6,3.81,3.81,0,0,1,1.52,1.7,5.62,5.62,0,0,1,.54,2.54V415h-7.34a4.17,4.17,0,0,0,.92,2.78,3.29,3.29,0,0,0,2.5.94,8.06,8.06,0,0,0,1.8-.18,10.27,10.27,0,0,0,1.64-.56v1.54A7.82,7.82,0,0,1,990,420a8.69,8.69,0,0,1-1.9.18,5.78,5.78,0,0,1-2.7-.62,4.42,4.42,0,0,1-1.82-1.84,6.61,6.61,0,0,1-.64-3,7.29,7.29,0,0,1,.58-3,4.37,4.37,0,0,1,4.16-2.62Zm0,1.44a2.56,2.56,0,0,0-2,.82,3.84,3.84,0,0,0-.86,2.24h5.46a3.64,3.64,0,0,0-.64-2.2A2.25,2.25,0,0,0,987.66,410.52Zm18.67-1.24V420h-1.58v-6.84c0-.28,0-.57,0-.88s.06-.61.08-.9h-.06l-3.5,8.62h-1.48l-3.4-8.62h-.06c0,.6.06,1.21.06,1.84V420h-1.58V409.28h2.34l3.38,8.62,3.44-8.62Zm7.57-.2a4.45,4.45,0,0,1,2.36.6,3.93,3.93,0,0,1,1.52,1.7,5.62,5.62,0,0,1,.54,2.54V415H1011a4.12,4.12,0,0,0,.93,2.78,3.26,3.26,0,0,0,2.5.94,8.12,8.12,0,0,0,1.8-.18,10.61,10.61,0,0,0,1.64-.56v1.54a8.22,8.22,0,0,1-1.62.52,8.82,8.82,0,0,1-1.9.18,5.79,5.79,0,0,1-2.71-.62,4.42,4.42,0,0,1-1.82-1.84,6.61,6.61,0,0,1-.63-3,7.3,7.3,0,0,1,.57-3,4.4,4.4,0,0,1,4.17-2.62Zm0,1.44a2.53,2.53,0,0,0-2,.82,3.78,3.78,0,0,0-.86,2.24h5.45a3.7,3.7,0,0,0-.63-2.2A2.27,2.27,0,0,0,1013.88,410.52Zm8.92-1.24v4.46h5.82v-4.46h1.76V420h-1.76v-4.78h-5.82V420H1021V409.28Zm12.64,6.54c0,.16,0,.4,0,.72s0,.64-.06,1,0,.57,0,.76l5.74-9h2.16V420h-1.64v-7.16c0-.35,0-.69,0-1s0-.61,0-.78l-5.7,9h-2.18V409.28h1.66Z" transform="translate(-61 -115)"/><rect class="cls-1" x="112" y="70" width="1" height="15"/><circle class="cls-5" cx="936" cy="514" r="10"/><circle class="cls-5" cx="842" cy="514" r="10"/><circle class="cls-5" cx="889" cy="514" r="10"/><circle class="cls-5" cx="795" cy="514" r="10"/><circle class="cls-5" cx="748" cy="514" r="10"/><circle class="cls-5" cx="701" cy="514" r="10"/><ellipse class="cls-8" cx="99.19" cy="103.48" rx="22.81" ry="22.39"/><path class="cls-3" d="M156,199.44l.89,4.3,10.5-9.81-13.17-5.44.73,4.22a26.21,26.21,0,0,0-17.85,12.57c-2.33,4.16-2.91,9.85-3.07,12.26a24.62,24.62,0,0,0,3.39,13.38,27.92,27.92,0,0,0,11.15,10.47,29,29,0,0,0,9.45,2.35c1.55-.06,1.78-1.76,1.7-2.6a1.82,1.82,0,0,0-1.46-1.38,21.37,21.37,0,0,1-15.51-10.22A20,20,0,0,1,156,199.44Z" transform="translate(-61 -115)"/><ellipse class="cls-3" cx="102.36" cy="126.75" rx="1.56" ry="1.65"/><circle class="cls-3" cx="106.79" cy="125.88" r="1.65"/><ellipse class="cls-3" cx="110.62" cy="123.88" rx="1.48" ry="1.39"/><circle class="cls-3" cx="114.18" cy="121.45" r="1.22"/><ellipse class="cls-3" cx="117.05" cy="118.32" rx="1.13" ry="1.04"/><ellipse class="cls-3" cx="119.48" cy="114.5" rx="0.96" ry="0.87"/><circle class="cls-3" cx="121.13" cy="110.67" r="0.87"/><path class="cls-3" d="M156.22,219c1.28-1.07,2.3-1.95,3.06-2.66a12.57,12.57,0,0,0,1.9-2.24,4.19,4.19,0,0,0,.76-2.28,2.44,2.44,0,0,0-.48-1.6,2.13,2.13,0,0,0-3,.1,2.86,2.86,0,0,0-.56,1.82h-2.72a4.57,4.57,0,0,1,4.86-4.88,4.76,4.76,0,0,1,3.5,1.22,4.27,4.27,0,0,1,1.22,3.18,5.75,5.75,0,0,1-.84,3,11.77,11.77,0,0,1-1.92,2.48c-.72.7-1.66,1.53-2.82,2.52h5.9V222h-9.88v-2.08Z" transform="translate(-61 -115)"/><path class="cls-3" d="M152.69,225.72v1h-2.4v4.72h-1.21v-5.72Zm5.9,2.85a3.78,3.78,0,0,1-.29,1.56,2.26,2.26,0,0,1-.89,1,3.37,3.37,0,0,1-3.07,0,2.31,2.31,0,0,1-.9-1,4.29,4.29,0,0,1,0-3.1,2.29,2.29,0,0,1,.9-1,3,3,0,0,1,1.54-.36,2.94,2.94,0,0,1,1.53.36,2.23,2.23,0,0,1,.89,1A3.68,3.68,0,0,1,158.59,228.57Zm-4.16,0a2.55,2.55,0,0,0,.34,1.42,1.24,1.24,0,0,0,1.1.51A1.25,1.25,0,0,0,157,230a2.64,2.64,0,0,0,.33-1.42,2.58,2.58,0,0,0-.33-1.41,1.44,1.44,0,0,0-2.22,0A2.49,2.49,0,0,0,154.43,228.57Zm9.66-2.85v4.71h.76v2.67h-1.17v-1.66h-3.57v1.66h-1.17v-2.67h.44c.2-.4.39-.83.57-1.28a12.63,12.63,0,0,0,.47-1.53,13,13,0,0,0,.34-1.9Zm-2.37,1a8.66,8.66,0,0,1-.23,1.2q-.15.65-.36,1.29c-.15.43-.31.83-.48,1.21h2.24v-3.7Zm7.51,4.71-.42-1.36h-2.08l-.41,1.36H165l2-5.74h1.48l2,5.74Zm-1.12-3.71c0-.09-.07-.2-.11-.34l-.12-.43c0-.14-.08-.26-.11-.37,0,.11-.06.24-.11.4s-.09.3-.13.45-.07.24-.09.29l-.4,1.33h1.48Z" transform="translate(-61 -115)"/><ellipse class="cls-8" cx="373.19" cy="242.99" rx="22.81" ry="22.39"/><path class="cls-3" d="M430,339l.89,4.3,10.5-9.81L428.2,328l.72,4.22a26.21,26.21,0,0,0-17.85,12.57c-2.33,4.16-2.91,9.85-3.07,12.26a24.62,24.62,0,0,0,3.39,13.38,27.92,27.92,0,0,0,11.15,10.47,28.71,28.71,0,0,0,9.45,2.35c1.55-.06,1.78-1.76,1.7-2.6a1.79,1.79,0,0,0-1.46-1.37,21.4,21.4,0,0,1-15.51-10.23A20,20,0,0,1,430,339Z" transform="translate(-61 -115)"/><ellipse class="cls-3" cx="376.36" cy="266.26" rx="1.56" ry="1.65"/><circle class="cls-3" cx="380.8" cy="265.39" r="1.65"/><ellipse class="cls-3" cx="384.62" cy="263.39" rx="1.48" ry="1.39"/><circle class="cls-3" cx="388.18" cy="260.96" r="1.22"/><ellipse class="cls-3" cx="391.05" cy="257.83" rx="1.13" ry="1.04"/><ellipse class="cls-3" cx="393.48" cy="254.01" rx="0.96" ry="0.87"/><circle class="cls-3" cx="395.13" cy="250.18" r="0.87"/><path class="cls-3" d="M430.72,349.67v-2.58h4.82v14.58h-2.88v-12Z" transform="translate(-61 -115)"/><path class="cls-3" d="M423.74,370l-1.2-3.92h0c0,.09,0,.23,0,.42s0,.39,0,.6,0,.4,0,.58V370h-.95v-5h1.44l1.19,3.82h0l1.25-3.82H427v5h-1v-2.37c0-.15,0-.34,0-.54s0-.4,0-.58,0-.33,0-.42h0L424.72,370Zm7.37,0h-2.88v-5h2.88v.87h-1.82V367H431v.87h-1.69v1.29h1.82Zm3.16-4.19a1.08,1.08,0,0,0-.93.46,2.15,2.15,0,0,0-.32,1.24,2.25,2.25,0,0,0,.29,1.24,1.09,1.09,0,0,0,1,.44,3.08,3.08,0,0,0,.61-.07,5.47,5.47,0,0,0,.67-.2v.89a4.15,4.15,0,0,1-.66.2,3.88,3.88,0,0,1-.72.06,2.46,2.46,0,0,1-1.27-.31,1.91,1.91,0,0,1-.73-.9,3.54,3.54,0,0,1-.24-1.35,3.14,3.14,0,0,1,.27-1.34,2.06,2.06,0,0,1,.79-.91,2.37,2.37,0,0,1,1.28-.33,2.64,2.64,0,0,1,.74.1,3.81,3.81,0,0,1,.72.25l-.34.86c-.19-.09-.37-.16-.56-.23A1.89,1.89,0,0,0,434.27,365.81Zm4,2.27L437.12,370h-1.18l1.42-2.2a1.7,1.7,0,0,1-.4-.24,1.27,1.27,0,0,1-.34-.44,1.6,1.6,0,0,1-.13-.69,1.23,1.23,0,0,1,.5-1.06,2.32,2.32,0,0,1,1.39-.37H440v5H439v-1.92Zm.13-2.21a1.19,1.19,0,0,0-.64.15.54.54,0,0,0-.22.49.65.65,0,0,0,.22.52,1,1,0,0,0,.67.19h.5v-1.35Zm7.54,3.29v2.3h-1V370h-3.68v-5h1.06v4.12h1.84V365h1.06v4.16Z" transform="translate(-61 -115)"/><ellipse class="cls-8" cx="656.19" cy="511.99" rx="22.81" ry="22.39"/><path class="cls-3" d="M713,608l.89,4.3,10.5-9.81L711.2,597l.72,4.22a26.19,26.19,0,0,0-17.85,12.58c-2.33,4.15-2.91,9.84-3.07,12.25a24.62,24.62,0,0,0,3.39,13.38,27.92,27.92,0,0,0,11.15,10.47,29,29,0,0,0,9.45,2.35c1.55-.06,1.78-1.76,1.7-2.59a1.79,1.79,0,0,0-1.46-1.38,21.4,21.4,0,0,1-15.51-10.23A20,20,0,0,1,713,608Z" transform="translate(-61 -115)"/><ellipse class="cls-3" cx="659.36" cy="535.26" rx="1.56" ry="1.65"/><circle class="cls-3" cx="663.79" cy="534.39" r="1.65"/><ellipse class="cls-3" cx="667.62" cy="532.39" rx="1.48" ry="1.39"/><circle class="cls-3" cx="671.18" cy="529.96" r="1.22"/><ellipse class="cls-3" cx="674.05" cy="526.83" rx="1.13" ry="1.04"/><ellipse class="cls-3" cx="676.48" cy="523.01" rx="0.96" ry="0.87"/><circle class="cls-3" cx="678.13" cy="519.18" r="0.87"/><path class="cls-3" d="M713.72,618.67v-2.58h4.82v14.58h-2.88v-12Z" transform="translate(-61 -115)"/><path class="cls-3" d="M706.74,639l-1.2-3.92h0c0,.09,0,.23,0,.42l0,.6c0,.21,0,.4,0,.58V639h-1v-5h1.44l1.19,3.82h0l1.25-3.82H710v5h-1v-2.37c0-.16,0-.34,0-.54s0-.4,0-.58,0-.33,0-.42h0L707.72,639Zm7.37,0h-2.88v-5h2.88v.87h-1.82V636H714v.87h-1.69v1.29h1.82Zm3.16-4.19a1.08,1.08,0,0,0-.93.46,2.16,2.16,0,0,0-.32,1.25,2.24,2.24,0,0,0,.29,1.23,1.09,1.09,0,0,0,1,.44,3.08,3.08,0,0,0,.61-.07,5.47,5.47,0,0,0,.67-.2v.89a3.44,3.44,0,0,1-.65.2,4.07,4.07,0,0,1-.73.06,2.37,2.37,0,0,1-1.27-.31,2,2,0,0,1-.74-.9,3.74,3.74,0,0,1-.23-1.35,3.14,3.14,0,0,1,.27-1.34,2.13,2.13,0,0,1,.79-.91,2.37,2.37,0,0,1,1.28-.33,3.07,3.07,0,0,1,.74.1,3.22,3.22,0,0,1,.72.25l-.34.86a5.48,5.48,0,0,0-.56-.23A1.89,1.89,0,0,0,717.27,634.81Zm4,2.27L720.12,639h-1.18l1.42-2.2a1.7,1.7,0,0,1-.4-.24,1.27,1.27,0,0,1-.34-.44,1.6,1.6,0,0,1-.13-.69,1.23,1.23,0,0,1,.5-1.06,2.32,2.32,0,0,1,1.39-.37H723v5h-1v-1.92Zm.13-2.21a1.19,1.19,0,0,0-.64.15.53.53,0,0,0-.22.49.65.65,0,0,0,.22.52,1,1,0,0,0,.67.19h.5v-1.35Zm7.54,3.29v2.3h-1V639h-3.68v-5h1.06v4.12h1.84V634h1.06v4.16Z" transform="translate(-61 -115)"/><ellipse class="cls-8" cx="412.19" cy="384.99" rx="22.81" ry="22.39"/><path class="cls-3" d="M469,481l.89,4.3,10.5-9.81L467.2,470l.72,4.22a26.19,26.19,0,0,0-17.85,12.58c-2.33,4.15-2.91,9.84-3.07,12.25a24.62,24.62,0,0,0,3.39,13.38,27.92,27.92,0,0,0,11.15,10.47,28.71,28.71,0,0,0,9.45,2.35c1.55-.06,1.78-1.76,1.7-2.6a1.79,1.79,0,0,0-1.46-1.37,21.4,21.4,0,0,1-15.51-10.23A20,20,0,0,1,469,481Z" transform="translate(-61 -115)"/><ellipse class="cls-3" cx="415.36" cy="408.26" rx="1.56" ry="1.65"/><circle class="cls-3" cx="419.8" cy="407.39" r="1.65"/><ellipse class="cls-3" cx="423.62" cy="405.39" rx="1.48" ry="1.39"/><circle class="cls-3" cx="427.18" cy="402.96" r="1.22"/><ellipse class="cls-3" cx="430.05" cy="399.83" rx="1.13" ry="1.04"/><ellipse class="cls-3" cx="432.48" cy="396.01" rx="0.96" ry="0.87"/><circle class="cls-3" cx="434.13" cy="392.18" r="0.87"/><path class="cls-3" d="M469.72,492v-2.58h4.82V504h-2.88V492Z" transform="translate(-61 -115)"/><path class="cls-3" d="M466.19,507.29V512H467v2.67h-1.17V513h-3.57v1.66H461V512h.44c.2-.4.39-.82.57-1.28a14.67,14.67,0,0,0,.81-3.42Zm-2.37,1a9.25,9.25,0,0,1-.23,1.2,13.08,13.08,0,0,1-.37,1.28,12.2,12.2,0,0,1-.47,1.21H465V508.3Zm7.3,4.7h-3.29v-5.71h3.29v1H469v1.26H471v1H469V512h2.08Zm5.87,0h-1.21v-2.46h-2.27V513h-1.2v-5.71h1.2v2.24h2.27v-2.24H477Zm1.43,0v-5.71h1.21v2.19h.48a3.3,3.3,0,0,1,1.32.22,1.57,1.57,0,0,1,1,1.52,1.63,1.63,0,0,1-.57,1.32,2.78,2.78,0,0,1-1.79.46Zm1.62-1a1.69,1.69,0,0,0,.86-.18.63.63,0,0,0,.32-.61.57.57,0,0,0-.34-.6,2.4,2.4,0,0,0-.94-.15h-.31V512Z" transform="translate(-61 -115)"/></svg>