<svg id="Слой_1" data-name="Слой 1" xmlns="http://www.w3.org/2000/svg" xmlns:xlink="http://www.w3.org/1999/xlink" viewBox="0 0 60 60"><defs><style>.cls-1{fill:url(#Безымянный_градиент_2);}</style><linearGradient id="Безымянный_градиент_2" x1="654.44" y1="372.66" x2="738.47" y2="417.35" gradientTransform="matrix(1, 0, 0, -1, 0, 770)" gradientUnits="userSpaceOnUse"><stop offset="0" stop-color="#4b79ce"/><stop offset="0.41" stop-color="#426ab3"/><stop offset="1" stop-color="#2b4a81"/></linearGradient></defs><title>solution-adv-4</title><path class="cls-1" d="M664.46,388.8A7.89,7.89,0,0,0,661,388a8,8,0,1,0,6.65,12.44l7.55,3.79A8.57,8.57,0,0,0,675,406a8,8,0,1,0,14.63-4.48l10.61-11.1a8,8,0,1,0-.14-12.73L689.31,366.9A7.92,7.92,0,0,0,691,362a8,8,0,1,0-15.8,1.77l-7.09,2.58a8,8,0,1,0-3.91,11l3.68,6.19ZM661,402a6,6,0,1,1,6-6A6,6,0,0,1,661,402Zm7.54-3.35a8,8,0,0,0-2.39-8.77l2.87-4.44L677.69,400a8,8,0,0,0-1.79,2.3ZM683,370a7.92,7.92,0,0,0,4.9-1.69l10.79,10.79a8,8,0,0,0-1.41,2.84l-6.28-.86V381a8,8,0,0,0-14.65-4.44l-1.19-.6,4.38-6.76A7.89,7.89,0,0,0,683,370Zm1,28.07v-9.14a8,8,0,0,0,6.72-5.87l6.28.86V384a8,8,0,0,0,1.79,5l-10.5,11A8,8,0,0,0,684,398.07ZM683,375a6,6,0,1,1-6,6A6,6,0,0,1,683,375Zm-7.54,3.35A8,8,0,0,0,682,388.93v9.14a8,8,0,0,0-2.66.82l-9.11-15.32,3.84-5.92ZM683,356a6,6,0,1,1-6,6A6,6,0,0,1,683,356Zm-7.11,9.65a8.15,8.15,0,0,0,2,2.47l-4.49,6.94-4.82-2.41A8,8,0,0,0,669,370a7.94,7.94,0,0,0-.2-1.77Zm-10,10.65a8.09,8.09,0,0,0,1.74-1.86l4.61,2.31-3.17,4.9Z" transform="translate(-653 -354)"/></svg>