<svg id="Слой_1" data-name="Слой 1" xmlns="http://www.w3.org/2000/svg" viewBox="0 0 100.01 100"><defs><style>.cls-1{fill:#426ab3;}</style></defs><title>solution-1-white</title><path class="cls-1" d="M88.71,22.58A11.29,11.29,0,1,0,77.55,9.68H22.45a11.28,11.28,0,1,0-9.54,12.78l.49-.08,3.21,6.77a8,8,0,0,0-6.93,8V83.92H4.84V92a8.07,8.07,0,0,0,8.06,8H87.1a8.07,8.07,0,0,0,8.06-8.06V83.87H90.32V37.1a8,8,0,0,0-7.45-8L86,22.24A11.08,11.08,0,0,0,88.71,22.58ZM11.29,3.23C6.84,3.23,3,6.5,3.23,11.29a8.06,8.06,0,0,1,16.12,0c.26-5.29-3.61-8.06-8.06-8.06ZM12.9,37.1a4.84,4.84,0,0,1,4.84-4.84h.34l1.53,3.22h-.26a3.23,3.23,0,0,0-3.22,3.23V83.87H12.9Zm27.42-1.62H32.93l7.39-7.39Zm-6.45,3.23v6.45H66.13V29H43.55V25.78h25.8V74.16H30.65V38.71Zm-5.51-3.23H23.18l-1.53-3.22h9.94Zm-.94,3.23v5.73L24.7,38.71Zm0,13.26V77.42H72.58V52l6-13.25h2.11V83.91H62.9v3.23h3.23v1.61a1.61,1.61,0,0,1-1.61,1.61h-29a1.61,1.61,0,0,1-1.61-1.61V87.1H59.72V83.87H19.35V38.71h1.79ZM75,38.71,72.58,44.1V38.71Zm-2.42-3.23V32.26h5.33l-1.45,3.22ZM91.94,87.1v4.84a4.85,4.85,0,0,1-4.84,4.83H12.9a4.85,4.85,0,0,1-4.84-4.83V87.1H30.65v1.61a4.84,4.84,0,0,0,4.83,4.84h29a4.84,4.84,0,0,0,4.83-4.84V87.1Zm-4.84-50V83.87H83.87V38.71a3.23,3.23,0,0,0-3.22-3.23H80l1.45-3.22h.81A4.84,4.84,0,0,1,87.1,37.1ZM79.36,29H72.58V22.55H41.27L34.82,29H20.12l-3.66-7.72a11.3,11.3,0,0,0,6-8.41h55.1A11.34,11.34,0,0,0,83,21Zm1.29-17.74a8.06,8.06,0,1,1,16.12,0h0c0-5.79-3.61-8.06-8.06-8.06S80,5.5,80.65,11.29Z" transform="translate(-0.01 0)"/><path class="cls-1" d="M16.13,90.32H12.9v3.23h3.23Z" transform="translate(-0.01 0)"/><path class="cls-1" d="M22.58,90.32H19.36v3.23h3.22Z" transform="translate(-0.01 0)"/><path class="cls-1" d="M37.1,48.39H33.87v3.22H37.1Z" transform="translate(-0.01 0)"/><path class="cls-1" d="M66.13,48.39H40.32v3.22H66.13Z" transform="translate(-0.01 0)"/><path class="cls-1" d="M66.13,67.74H62.9V71h3.23Z" transform="translate(-0.01 0)"/><path class="cls-1" d="M59.68,67.74H33.87V71H59.68Z" transform="translate(-0.01 0)"/><path class="cls-1" d="M66.13,61.29H33.87v3.23H66.13Z" transform="translate(-0.01 0)"/><path class="cls-1" d="M66.13,54.84H33.87v3.22H66.13Z" transform="translate(-0.01 0)"/></svg>