<svg id="Слой_1" data-name="Слой 1" xmlns="http://www.w3.org/2000/svg" xmlns:xlink="http://www.w3.org/1999/xlink" viewBox="0 0 54 54"><defs><style>.cls-1{fill:#426ab3;}.cls-2{fill:url(#Безымянный_градиент_8);}.cls-3{fill:url(#Безымянный_градиент_8-2);}.cls-4{fill:url(#Безымянный_градиент_8-3);}.cls-5{fill:url(#Безымянный_градиент_8-4);}.cls-6{fill:url(#Безымянный_градиент_8-5);}.cls-7{fill:url(#Безымянный_градиент_8-6);}.cls-8{fill:url(#Безымянный_градиент_8-7);}.cls-9{fill:url(#Безымянный_градиент_8-8);}</style><linearGradient id="Безымянный_градиент_8" x1="663.03" y1="362.93" x2="665.47" y2="364.22" gradientTransform="matrix(1, 0, 0, -1, 0, 770)" gradientUnits="userSpaceOnUse"><stop offset="0" stop-color="#4b79ce"/><stop offset="0.41" stop-color="#426ab3"/><stop offset="1" stop-color="#2b4a81"/></linearGradient><linearGradient id="Безымянный_градиент_8-2" x1="666.52" y1="362.93" x2="668.96" y2="364.22" xlink:href="#Безымянный_градиент_8"/><linearGradient id="Безымянный_градиент_8-3" x1="674.35" y1="385.57" x2="676.79" y2="386.87" xlink:href="#Безымянный_градиент_8"/><linearGradient id="Безымянный_градиент_8-4" x1="684.31" y1="384.16" x2="685.62" y2="389.73" xlink:href="#Безымянный_градиент_8"/><linearGradient id="Безымянный_градиент_8-5" x1="690.03" y1="375.12" x2="692.47" y2="376.42" xlink:href="#Безымянный_градиент_8"/><linearGradient id="Безымянный_градиент_8-6" x1="680.82" y1="373.7" x2="682.14" y2="379.28" xlink:href="#Безымянный_градиент_8"/><linearGradient id="Безымянный_градиент_8-7" x1="682.65" y1="377.15" x2="683.72" y2="382.84" xlink:href="#Безымянный_градиент_8"/><linearGradient id="Безымянный_градиент_8-8" x1="682.65" y1="380.64" x2="683.72" y2="386.32" xlink:href="#Безымянный_градиент_8"/></defs><title>solution-adv-6</title><path class="cls-1" d="M703.9,369.19a6.1,6.1,0,1,0-6-7H668.12a6.09,6.09,0,1,0-4.88,6.85l1.73,3.66a4.34,4.34,0,0,0-3.74,4.29v25.26h-2.62v4.36A4.36,4.36,0,0,0,663,411H703a4.36,4.36,0,0,0,4.36-4.35v-4.36h-2.62V377a4.34,4.34,0,0,0-4-4.32l1.67-3.71A6,6,0,0,0,703.9,369.19Zm-41.8-10.45a4.18,4.18,0,0,0-4.36,4.36,4.36,4.36,0,1,1,8.71,0C666.59,360.24,664.5,358.74,662.1,358.74ZM663,377a2.61,2.61,0,0,1,2.61-2.61h.18l.83,1.74h-.14a1.74,1.74,0,0,0-1.74,1.74v24.39H663Zm14.8-.87h-4l4-4Zm-3.48,1.74v3.49h17.42v-8.71H679.52v-1.74h13.93v26.12h-20.9V377.9Zm-3-1.74h-2.81l-.82-1.74h5.37Zm-.51,1.74V381l-1.47-3.1Zm0,7.17v13.74h24.38V385.06l3.22-7.16h1.14v24.39H690V404h1.74v.87a.87.87,0,0,1-.87.87H675.16a.87.87,0,0,1-.87-.87V404h13.94v-1.74H666.45V377.9h1Zm25.69-7.17-1.31,2.91V377.9Zm-1.31-1.74v-1.74h2.88l-.78,1.74ZM705.65,404v2.62a2.62,2.62,0,0,1-2.62,2.61H663a2.62,2.62,0,0,1-2.62-2.61V404h12.2v.87a2.62,2.62,0,0,0,2.61,2.62h15.68a2.62,2.62,0,0,0,2.61-2.62V404ZM703,377v25.26h-1.74V377.9a1.74,1.74,0,0,0-1.74-1.74h-.35l.78-1.74h.44A2.61,2.61,0,0,1,703,377Zm-4.18-4.35h-3.66v-3.49H678.28l-3.48,3.49h-7.94l-2-4.17a6.09,6.09,0,0,0,3.23-4.54h29.76a6.06,6.06,0,0,0,2.93,4.37Zm.7-9.58a4.36,4.36,0,1,1,8.71,0c0-3.13-2-4.36-4.36-4.36S699.2,360,699.55,363.1Z" transform="translate(-656 -357)"/><path class="cls-2" d="M664.71,405.77H663v1.75h1.74Z" transform="translate(-656 -357)"/><path class="cls-3" d="M668.19,405.77h-1.74v1.75h1.74Z" transform="translate(-656 -357)"/><path class="cls-4" d="M676,383.13h-1.74v1.74H676Z" transform="translate(-656 -357)"/><path class="cls-5" d="M691.71,383.13H677.77v1.74h13.94Z" transform="translate(-656 -357)"/><path class="cls-6" d="M691.71,393.58H690v1.74h1.74Z" transform="translate(-656 -357)"/><path class="cls-7" d="M688.23,393.58H674.29v1.74h13.94Z" transform="translate(-656 -357)"/><path class="cls-8" d="M691.71,390.1H674.29v1.74h17.42Z" transform="translate(-656 -357)"/><path class="cls-9" d="M691.71,386.61H674.29v1.74h17.42Z" transform="translate(-656 -357)"/></svg>