<svg id="Слой_1" data-name="Слой 1" xmlns="http://www.w3.org/2000/svg" xmlns:xlink="http://www.w3.org/1999/xlink" viewBox="0 0 699 714.02"><defs><style>.cls-1,.cls-2,.cls-3{fill:none;}.cls-2{stroke:#ed6f00;stroke-linecap:round;stroke-width:2px;stroke-dasharray:2 8;opacity:0.4;}.cls-12,.cls-13,.cls-2,.cls-3,.cls-4,.cls-5{isolation:isolate;}.cls-3{stroke:#426ab3;}.cls-10,.cls-13,.cls-3{opacity:0.3;}.cls-12,.cls-4,.cls-5{opacity:0.8;}.cls-4{fill:url(#Безымянный_градиент_2);}.cls-5{fill:url(#Безымянный_градиент_3);}.cls-6{fill:#ed6f00;}.cls-7{opacity:0.05;}.cls-13,.cls-8{fill:#426ab3;}.cls-9{clip-path:url(#clip-path);}.cls-11{clip-path:url(#clip-path-2);}.cls-12{fill:url(#Безымянный_градиент_3-2);}.cls-14{clip-path:url(#clip-path-3);}.cls-15{fill:#07306d;}.cls-16{fill:#fff;}</style><linearGradient id="Безымянный_градиент_2" x1="657.95" y1="366.32" x2="1111.96" y2="244.74" gradientTransform="matrix(1, 0, 0, -1, 0, 770)" gradientUnits="userSpaceOnUse"><stop offset="0" stop-color="#f47920"/><stop offset="0.57" stop-color="#f7bb62"/><stop offset="0.98" stop-color="#f7bb62"/></linearGradient><linearGradient id="Безымянный_градиент_3" x1="254.05" y1="271.22" x2="392.95" y2="455.89" gradientTransform="matrix(1, 0, 0, -1, 0, 770)" gradientUnits="userSpaceOnUse"><stop offset="0" stop-color="#4b79ce"/><stop offset="0.41" stop-color="#426ab3"/><stop offset="1" stop-color="#2b4a81"/></linearGradient><clipPath id="clip-path" transform="translate(-193 -31)"><rect class="cls-1" x="426.95" y="531.14" width="84.17" height="84.17"/></clipPath><clipPath id="clip-path-2" transform="translate(-193 -31)"><rect class="cls-1" x="221.53" y="394.2" width="84.88" height="84.88"/></clipPath><linearGradient id="Безымянный_градиент_3-2" x1="500.87" y1="395.28" x2="624.6" y2="614.62" xlink:href="#Безымянный_градиент_3"/><clipPath id="clip-path-3" transform="translate(-193 -31)"><rect class="cls-1" x="427.66" y="31.86" width="84.17" height="84.17"/></clipPath></defs><title>solution-cdpp</title><line class="cls-2" x1="348.79" y1="116.34" x2="348.79" y2="96.17"/><line class="cls-2" x1="348.79" y1="225.8" x2="348.79" y2="211.38"/><line class="cls-2" x1="348.79" y1="341.02" x2="348.79" y2="326.6"/><line class="cls-2" x1="348.79" y1="499.44" x2="348.79" y2="485.02"/><line class="cls-2" x1="348.79" y1="616.09" x2="348.79" y2="600.24"/><line class="cls-2" x1="222.54" y1="420.95" x2="241.8" y2="420.95"/><line class="cls-2" x1="457.2" y1="420.95" x2="476.46" y2="420.95"/><path class="cls-3" d="M441.93,31.5H641.64a42.44,42.44,0,0,1,42.44,42.44h0a42.44,42.44,0,0,1-42.44,42.44H441.93a42.44,42.44,0,0,1-42.44-42.44h0A42.44,42.44,0,0,1,441.93,31.5Z" transform="translate(-193 -31)"/><path class="cls-3" d="M441.93,145.62H641.64a42.44,42.44,0,0,1,42.44,42.44h0a42.44,42.44,0,0,1-42.44,42.44H441.93a42.44,42.44,0,0,1-42.44-42.44h0A42.44,42.44,0,0,1,441.93,145.62Z" transform="translate(-193 -31)"/><path class="cls-3" d="M441.93,260.46H641.64a42.44,42.44,0,0,1,42.44,42.44h0a42.44,42.44,0,0,1-42.44,42.44H441.93a42.44,42.44,0,0,1-42.44-42.44h0A42.44,42.44,0,0,1,441.93,260.46Z" transform="translate(-193 -31)"/><path class="cls-3" d="M499.7,373.87h85.6a63.83,63.83,0,0,1,63.83,63.83h0a63.84,63.84,0,0,1-63.83,63.84H499.7a63.84,63.84,0,0,1-63.83-63.84h0A63.83,63.83,0,0,1,499.7,373.87Z" transform="translate(-193 -31)"/><path class="cls-3" d="M441.22,530.79H640.93a42.44,42.44,0,0,1,42.44,42.44h0a42.44,42.44,0,0,1-42.44,42.43H441.22a42.44,42.44,0,0,1-42.44-42.43h0A42.44,42.44,0,0,1,441.22,530.79Z" transform="translate(-193 -31)"/><path class="cls-3" d="M441.22,644.91H640.93a42.44,42.44,0,0,1,42.44,42.44h0a42.44,42.44,0,0,1-42.44,42.44H441.22a42.44,42.44,0,0,1-42.44-42.44h0A42.44,42.44,0,0,1,441.22,644.91Z" transform="translate(-193 -31)"/><path class="cls-4" d="M720.82,394.91H849.2A42.8,42.8,0,0,1,892,437.7h0a42.8,42.8,0,0,1-42.8,42.8H720.82A42.8,42.8,0,0,1,678,437.7h0A42.8,42.8,0,0,1,720.82,394.91Z" transform="translate(-193 -31)"/><path class="cls-5" d="M235.8,394.91H364.18A42.8,42.8,0,0,1,407,437.7h0a42.8,42.8,0,0,1-42.8,42.8H235.8A42.8,42.8,0,0,1,193,437.7h0A42.8,42.8,0,0,1,235.8,394.91Z" transform="translate(-193 -31)"/><path class="cls-6" d="M541.43,373.51l-4.64-11.41h9.28Z" transform="translate(-193 -31)"/><path class="cls-6" d="M541.43,259.39,536.79,248h9.28Z" transform="translate(-193 -31)"/><path class="cls-6" d="M541.43,145.27l-4.64-11.42h9.28Z" transform="translate(-193 -31)"/><path class="cls-6" d="M541.43,530.43,536.79,519h9.28Z" transform="translate(-193 -31)"/><path class="cls-6" d="M541.43,644.55l-4.64-11.41h9.28Z" transform="translate(-193 -31)"/><path class="cls-6" d="M407,438.06l11.41-4.64v9.28Z" transform="translate(-193 -31)"/><path class="cls-6" d="M678,438.06l-11.41,4.64v-9.28Z" transform="translate(-193 -31)"/><g class="cls-7"><path class="cls-8" d="M488.2,745H435.6a8.82,8.82,0,0,1-8.77-8.85V704.3a8.82,8.82,0,0,1,8.77-8.85h52.6A8.82,8.82,0,0,1,497,704.3v31.87A8.82,8.82,0,0,1,488.2,745Zm-52.6-46a5.3,5.3,0,0,0-5.26,5.31v31.87a5.29,5.29,0,0,0,5.26,5.31h52.6a5.29,5.29,0,0,0,5.26-5.31V704.3A5.3,5.3,0,0,0,488.2,699Z" transform="translate(-193 -31)"/></g><g class="cls-7"><path class="cls-8" d="M449.63,723.78h-7a5.3,5.3,0,0,1-5.26-5.31v-7.08a5.3,5.3,0,0,1,5.26-5.32h7a5.3,5.3,0,0,1,5.26,5.32v7.08A5.3,5.3,0,0,1,449.63,723.78Zm-7-14.16a1.76,1.76,0,0,0-1.75,1.77v7.08a1.77,1.77,0,0,0,1.75,1.77h7a1.77,1.77,0,0,0,1.75-1.77v-7.08a1.76,1.76,0,0,0-1.75-1.77Z" transform="translate(-193 -31)"/></g><g class="cls-7"><path class="cls-8" d="M484.7,734.4H439.11a1.77,1.77,0,0,1,0-3.54H484.7a1.77,1.77,0,0,1,0,3.54Z" transform="translate(-193 -31)"/></g><g class="cls-7"><path class="cls-8" d="M461.9,674.21a7.08,7.08,0,1,1,7-7.08A7.05,7.05,0,0,1,461.9,674.21Zm0-10.62a3.54,3.54,0,1,0,3.51,3.54A3.53,3.53,0,0,0,461.9,663.59Z" transform="translate(-193 -31)"/></g><g class="cls-7"><path class="cls-8" d="M461.9,688.37a1.62,1.62,0,0,1-1.75-1.46V675.19a1.78,1.78,0,0,1,3.5,0v11.72A1.62,1.62,0,0,1,461.9,688.37Z" transform="translate(-193 -31)"/></g><g class="cls-7"><path class="cls-8" d="M440.86,688.37a2,2,0,0,1-1.24-.42L436.11,685a1.39,1.39,0,0,1-.51-1v-8.79a1.78,1.78,0,0,1,3.51,0v8.18l3,2.5a1.32,1.32,0,0,1,0,2.08A2,2,0,0,1,440.86,688.37Z" transform="translate(-193 -31)"/></g><g class="cls-7"><path class="cls-8" d="M437.35,674.21a7.08,7.08,0,1,1,7-7.08A7.05,7.05,0,0,1,437.35,674.21Zm0-10.62a3.54,3.54,0,1,0,3.51,3.54A3.53,3.53,0,0,0,437.35,663.59Z" transform="translate(-193 -31)"/></g><g class="cls-7"><path class="cls-8" d="M482.94,688.37a2,2,0,0,1-1.24-.42,1.32,1.32,0,0,1,0-2.08l3-2.5v-8.18a1.78,1.78,0,0,1,3.5,0V684a1.36,1.36,0,0,1-.51,1L484.18,688A2,2,0,0,1,482.94,688.37Z" transform="translate(-193 -31)"/></g><g class="cls-7"><path class="cls-8" d="M486.45,674.21a7.08,7.08,0,1,1,7-7.08A7.05,7.05,0,0,1,486.45,674.21Zm0-10.62a3.54,3.54,0,1,0,3.51,3.54A3.53,3.53,0,0,0,486.45,663.59Z" transform="translate(-193 -31)"/></g><g class="cls-9"><g class="cls-7"><path class="cls-8" d="M470.79,601.28H436.07a8.86,8.86,0,0,1-9.12-8.77V553.94a8.77,8.77,0,0,1,8.77-8.77h34.72a9.3,9.3,0,0,1,3.2.48,1.76,1.76,0,0,1-1.15,3.32,4.94,4.94,0,0,0-1.7-.29H436.07a5.35,5.35,0,0,0-5.61,5.26v38.57a5.27,5.27,0,0,0,5.26,5.26h34.72a5.9,5.9,0,0,0,2.05-.28,1.75,1.75,0,0,1,1.15,3.31A8.61,8.61,0,0,1,470.79,601.28Z" transform="translate(-193 -31)"/><path class="cls-8" d="M470.43,548.68a1.76,1.76,0,0,1-1.74-1.58l-1.09-10.87a1.74,1.74,0,0,0-1.72-1.58H440.63a1.75,1.75,0,0,0-1.73,1.57l-1.09,10.88a1.77,1.77,0,0,1-1.92,1.57,1.74,1.74,0,0,1-1.56-1.92l1.09-10.87a5.21,5.21,0,0,1,5.21-4.74h25.25a5.24,5.24,0,0,1,5.22,4.74l1.08,10.87a1.75,1.75,0,0,1-1.56,1.92Z" transform="translate(-193 -31)"/><path class="cls-8" d="M465.88,615.31H440.63a5.23,5.23,0,0,1-5.22-4.74l-1.09-10.87a1.75,1.75,0,1,1,3.49-.35l1.09,10.88a1.75,1.75,0,0,0,1.73,1.57h25.25a1.74,1.74,0,0,0,1.72-1.57l1.1-10.88a1.77,1.77,0,0,1,1.92-1.57,1.74,1.74,0,0,1,1.56,1.92l-1.09,10.87A5.22,5.22,0,0,1,465.88,615.31Z" transform="translate(-193 -31)"/><path class="cls-8" d="M502.35,580.24a7,7,0,1,1,7-7A7,7,0,0,1,502.35,580.24Zm0-10.52a3.51,3.51,0,1,0,3.51,3.51A3.51,3.51,0,0,0,502.35,569.72Z" transform="translate(-193 -31)"/><path class="cls-8" d="M497.09,575H462a1.76,1.76,0,0,1,0-3.51h35.07a1.76,1.76,0,0,1,0,3.51Z" transform="translate(-193 -31)"/><path class="cls-8" d="M474.29,562.7H462a1.75,1.75,0,0,1,0-3.5h11.55l11.76-11.76a1.75,1.75,0,0,1,1.24-.52h10.52a1.76,1.76,0,0,1,0,3.51h-9.8l-11.76,11.76A1.72,1.72,0,0,1,474.29,562.7Z" transform="translate(-193 -31)"/><path class="cls-8" d="M502.35,555.69a7,7,0,1,1,7-7A7,7,0,0,1,502.35,555.69Zm0-10.52a3.51,3.51,0,1,0,3.51,3.51A3.51,3.51,0,0,0,502.35,545.17Z" transform="translate(-193 -31)"/><path class="cls-8" d="M497.09,599.53H486.57a1.75,1.75,0,0,1-1.24-.52l-11.76-11.76H462a1.75,1.75,0,0,1,0-3.5h12.27a1.76,1.76,0,0,1,1.25.51L487.3,596h9.79a1.76,1.76,0,0,1,0,3.51Z" transform="translate(-193 -31)"/><path class="cls-8" d="M502.35,604.79a7,7,0,1,1,7-7A7,7,0,0,1,502.35,604.79Zm0-10.52a3.51,3.51,0,1,0,3.51,3.5A3.51,3.51,0,0,0,502.35,594.27Z" transform="translate(-193 -31)"/></g></g><g class="cls-10"><path class="cls-6" d="M754.7,466.21a1.8,1.8,0,0,1-1.79-1.81,28,28,0,0,1,7-18.63,28.53,28.53,0,1,0-42.54,0,28,28,0,0,1,7,18.63,1.78,1.78,0,1,1-3.56,0,24.46,24.46,0,0,0-6.1-16.23,32.09,32.09,0,1,1,47.86,0,24.41,24.41,0,0,0-6.1,16.23A1.8,1.8,0,0,1,754.7,466.21Z" transform="translate(-193 -31)"/><path class="cls-6" d="M747.56,480.61H729.73a9,9,0,0,1-8.91-9v-7.2a1.79,1.79,0,0,1,1.78-1.8h32.1a1.79,1.79,0,0,1,1.78,1.8v7.2A9,9,0,0,1,747.56,480.61Zm-23.18-14.4v5.4a5.39,5.39,0,0,0,5.35,5.4h17.83a5.39,5.39,0,0,0,5.35-5.4v-5.4Z" transform="translate(-193 -31)"/><path class="cls-6" d="M738.65,463.65a1.8,1.8,0,0,1-1.79-1.8V417.6a1.79,1.79,0,1,1,3.57,0v44.25A1.79,1.79,0,0,1,738.65,463.65Z" transform="translate(-193 -31)"/><path class="cls-6" d="M738.65,419.4a7.2,7.2,0,1,1,7.13-7.2A7.17,7.17,0,0,1,738.65,419.4Zm0-10.8a3.6,3.6,0,1,0,3.56,3.6A3.59,3.59,0,0,0,738.65,408.6Z" transform="translate(-193 -31)"/><path class="cls-6" d="M724.38,437.4a7.2,7.2,0,1,1,7.14-7.2A7.17,7.17,0,0,1,724.38,437.4Zm0-10.8a3.6,3.6,0,1,0,3.57,3.6A3.58,3.58,0,0,0,724.38,426.6Z" transform="translate(-193 -31)"/><path class="cls-6" d="M752.91,437.4a7.2,7.2,0,1,1,7.14-7.2A7.17,7.17,0,0,1,752.91,437.4Zm0-10.8a3.6,3.6,0,1,0,3.57,3.6A3.58,3.58,0,0,0,752.91,426.6Z" transform="translate(-193 -31)"/><path class="cls-6" d="M738.65,455.4a1.77,1.77,0,0,1-1.52-.85l-11.48-18.83a1.81,1.81,0,0,1,.58-2.48,1.77,1.77,0,0,1,2.45.59l10,16.34,10-16.34a1.78,1.78,0,0,1,2.46-.59,1.81,1.81,0,0,1,.58,2.47l-11.48,18.83A1.77,1.77,0,0,1,738.65,455.4Z" transform="translate(-193 -31)"/></g><g class="cls-11"><g class="cls-10"><path class="cls-8" d="M251.58,477.71a5.32,5.32,0,0,1-5.29-5.31V435.53L222,407.74a1.76,1.76,0,0,1,1.33-2.93h81.34a1.77,1.77,0,0,1,1.61,1,1.75,1.75,0,0,1-.28,1.89l-1.91,2.2a1.77,1.77,0,0,1-2.49.17,1.75,1.75,0,0,1-.55-1.76H227.2l22.18,25.36a1.74,1.74,0,0,1,.44,1.17V472.4a1.77,1.77,0,0,0,2.33,1.67l16.46-5.49a1.77,1.77,0,0,1,1.12,3.36l-16.46,5.49A5.25,5.25,0,0,1,251.58,477.71Z" transform="translate(-193 -31)"/><path class="cls-8" d="M304.64,408.34a1.77,1.77,0,0,1-1.77-1.77V399.5a1.77,1.77,0,0,0-1.77-1.77H226.84a1.77,1.77,0,0,0-1.77,1.77v7.07a1.77,1.77,0,1,1-3.54,0V399.5a5.31,5.31,0,0,1,5.31-5.3H301.1a5.31,5.31,0,0,1,5.31,5.3v7.07A1.77,1.77,0,0,1,304.64,408.34Z" transform="translate(-193 -31)"/><path class="cls-8" d="M299.34,454.32a7.08,7.08,0,1,1,7.07-7.08A7.08,7.08,0,0,1,299.34,454.32Zm0-10.61a3.54,3.54,0,1,0,3.53,3.53A3.53,3.53,0,0,0,299.34,443.71Z" transform="translate(-193 -31)"/><path class="cls-8" d="M294,449H258.67a1.77,1.77,0,1,1,0-3.53H294a1.77,1.77,0,1,1,0,3.53Z" transform="translate(-193 -31)"/><path class="cls-8" d="M271,436.63H258.67a1.77,1.77,0,1,1,0-3.53h11.64l11.86-11.86a1.77,1.77,0,0,1,1.25-.52H294a1.77,1.77,0,1,1,0,3.54h-9.88l-11.86,11.86A1.76,1.76,0,0,1,271,436.63Z" transform="translate(-193 -31)"/><path class="cls-8" d="M299.34,429.56a7.07,7.07,0,1,1,7.07-7.07A7.08,7.08,0,0,1,299.34,429.56Zm0-10.61a3.54,3.54,0,1,0,3.53,3.54A3.54,3.54,0,0,0,299.34,419Z" transform="translate(-193 -31)"/><path class="cls-8" d="M294,473.77H283.42a1.77,1.77,0,0,1-1.25-.52l-11.86-11.86H258.67a1.77,1.77,0,0,1,0-3.54H271a1.81,1.81,0,0,1,1.26.52l11.86,11.86H294a1.77,1.77,0,1,1,0,3.54Z" transform="translate(-193 -31)"/><path class="cls-8" d="M299.34,479.07a7.07,7.07,0,1,1,7.07-7.07A7.08,7.08,0,0,1,299.34,479.07Zm0-10.61a3.54,3.54,0,1,0,3.53,3.54A3.54,3.54,0,0,0,299.34,468.46Z" transform="translate(-193 -31)"/><path class="cls-8" d="M255.13,419H232.6a1.77,1.77,0,1,1,0-3.53h22.53a1.77,1.77,0,1,1,0,3.53Z" transform="translate(-193 -31)"/></g></g><path class="cls-12" d="M441.93,259.39H641.64a42.8,42.8,0,0,1,42.8,42.79h0a42.8,42.8,0,0,1-42.8,42.8H441.93a42.8,42.8,0,0,1-42.8-42.8h0A42.8,42.8,0,0,1,441.93,259.39Z" transform="translate(-193 -31)"/><path class="cls-13" d="M544.09,300.32a32.38,32.38,0,0,0,.44-5.19,35.21,35.21,0,0,0-35-35.35,34.75,34.75,0,0,0-30.32,17.76c-11.51-5.81-25.25,1.27-27.64,13.89a27.5,27.5,0,0,0,3.54,54.76h81.62a23.51,23.51,0,0,0,7.34-45.87Zm-7.34,38H455.13a19.64,19.64,0,1,1,0-39.28,3.91,3.91,0,0,0,3.89-3.92,11.6,11.6,0,0,1,19.22-8.88,3.86,3.86,0,0,0,3.45.84,3.91,3.91,0,0,0,2.69-2.33,27.09,27.09,0,0,1,25.17-17.13,27.19,27.19,0,0,1,26.17,34.61,4,4,0,0,0,.51,3.18,3.91,3.91,0,0,0,2.7,1.73,15.66,15.66,0,0,1-2.18,31.18Z" transform="translate(-193 -31)"/><g class="cls-7"><path class="cls-8" d="M458.14,157.57a42.54,42.54,0,0,0-23.4,15.56c-.76,1.23-2.28,2.69-2.44,4.09V166a2.32,2.32,0,0,0-4.64,0v18.08H448a2.35,2.35,0,1,0,0-4.69H435.87c6.36-11,20.44-18.92,34.23-19.08,15.56.16,30.18,9.12,35.62,22.09a2.5,2.5,0,0,0,2.87,1.53,2.24,2.24,0,0,0,1.62-3C502.48,162.18,479.77,151.8,458.14,157.57Z" transform="translate(-193 -31)"/><path class="cls-8" d="M493,210.35a2.59,2.59,0,0,0-.06,5.17l10.71.23a37.53,37.53,0,0,1-68.37-4.09,2.75,2.75,0,0,0-3.26-1.73,2.47,2.47,0,0,0-1.72,3.23,42.9,42.9,0,0,0,76.3,8,7.74,7.74,0,0,0,.91-3.59v12.14a2.71,2.71,0,0,0,5.41,0V210.35Z" transform="translate(-193 -31)"/></g><g class="cls-14"><g class="cls-7"><path class="cls-8" d="M457.47,84.46h-21a8.78,8.78,0,0,1-8.77-8.77V40.62a8.78,8.78,0,0,1,8.77-8.76h21a8.77,8.77,0,0,1,8.77,8.76V75.69A8.77,8.77,0,0,1,457.47,84.46Zm-21-49.1a5.27,5.27,0,0,0-5.26,5.26V75.69A5.27,5.27,0,0,0,436.43,81h21a5.27,5.27,0,0,0,5.26-5.26V40.62a5.27,5.27,0,0,0-5.26-5.26Z" transform="translate(-193 -31)"/><path class="cls-8" d="M454,45.88h-14a1.75,1.75,0,1,1,0-3.5h14a1.75,1.75,0,0,1,0,3.5Z" transform="translate(-193 -31)"/><path class="cls-8" d="M454,59.91h-14a1.76,1.76,0,1,1,0-3.51h14a1.76,1.76,0,0,1,0,3.51Z" transform="translate(-193 -31)"/><path class="cls-8" d="M454,73.94h-14a1.76,1.76,0,1,1,0-3.51h14a1.76,1.76,0,0,1,0,3.51Z" transform="translate(-193 -31)"/><path class="cls-8" d="M503.06,84.46H482a8.78,8.78,0,0,1-8.77-8.77V40.62A8.78,8.78,0,0,1,482,31.86h21a8.77,8.77,0,0,1,8.77,8.76V75.69A8.77,8.77,0,0,1,503.06,84.46Zm-21-49.1a5.27,5.27,0,0,0-5.26,5.26V75.69A5.27,5.27,0,0,0,482,81h21a5.27,5.27,0,0,0,5.26-5.26V40.62a5.27,5.27,0,0,0-5.26-5.26Z" transform="translate(-193 -31)"/><path class="cls-8" d="M499.56,45.88h-14a1.75,1.75,0,1,1,0-3.5h14a1.75,1.75,0,1,1,0,3.5Z" transform="translate(-193 -31)"/><path class="cls-8" d="M499.56,59.91h-14a1.76,1.76,0,1,1,0-3.51h14a1.76,1.76,0,0,1,0,3.51Z" transform="translate(-193 -31)"/><path class="cls-8" d="M499.56,73.94h-14a1.76,1.76,0,1,1,0-3.51h14a1.76,1.76,0,0,1,0,3.51Z" transform="translate(-193 -31)"/><path class="cls-8" d="M461,107.25h-7a8.77,8.77,0,0,1-8.77-8.76V82.71h3.51V98.49a5.27,5.27,0,0,0,5.26,5.26h7Z" transform="translate(-193 -31)"/><path class="cls-8" d="M485.53,107.25h-7v-3.5h7a5.27,5.27,0,0,0,5.26-5.26V82.71h3.51V98.49A8.78,8.78,0,0,1,485.53,107.25Z" transform="translate(-193 -31)"/><path class="cls-8" d="M475,116H464.49a5.27,5.27,0,0,1-5.26-5.26V100.24A5.27,5.27,0,0,1,464.49,95H475a5.27,5.27,0,0,1,5.26,5.26v10.52A5.27,5.27,0,0,1,475,116ZM464.49,98.49a1.75,1.75,0,0,0-1.76,1.75v10.52a1.75,1.75,0,0,0,1.76,1.75H475a1.75,1.75,0,0,0,1.75-1.75V100.24A1.75,1.75,0,0,0,475,98.49Z" transform="translate(-193 -31)"/></g></g><path class="cls-15" d="M449.53,682.87a4,4,0,0,1,2.86.85,3,3,0,0,1,.92,2.33,4,4,0,0,1-.37,1.67,2.83,2.83,0,0,1-1.25,1.24,4.91,4.91,0,0,1-2.33.47h-.93v3.62h-2.16V682.87Zm-.12,1.77h-1v3h.71a2.51,2.51,0,0,0,1.44-.36,1.32,1.32,0,0,0,.54-1.18C451.12,685.13,450.55,684.64,449.41,684.64Zm12.73,4.5a4.13,4.13,0,0,1-1,3,3.68,3.68,0,0,1-2.77,1.06,4,4,0,0,1-1.94-.47,3.35,3.35,0,0,1-1.32-1.37,4.61,4.61,0,0,1-.49-2.22,4.14,4.14,0,0,1,1-3,3.72,3.72,0,0,1,2.78-1,3.92,3.92,0,0,1,1.94.47,3.32,3.32,0,0,1,1.33,1.37A4.53,4.53,0,0,1,462.14,689.14Zm-5.38,0a3.34,3.34,0,0,0,.37,1.76,1.38,1.38,0,0,0,1.24.58,1.31,1.31,0,0,0,1.21-.58,3.23,3.23,0,0,0,.39-1.76,3.06,3.06,0,0,0-.39-1.72,1.32,1.32,0,0,0-1.22-.59,1.36,1.36,0,0,0-1.23.59A3.16,3.16,0,0,0,456.76,689.14Zm6.66-.75a7.14,7.14,0,0,1,1-4,4.75,4.75,0,0,1,3.24-1.83q.75-.12,1.53-.21l1.61-.2L471,684l-1.07.12-1.14.15c-.37,0-.7.08-1,.12a4.12,4.12,0,0,0-1.18.36,1.54,1.54,0,0,0-.73.74,4.31,4.31,0,0,0-.3,1.49h.1a2.55,2.55,0,0,1,.47-.55,2.74,2.74,0,0,1,.77-.45,2.64,2.64,0,0,1,1-.19,2.91,2.91,0,0,1,2.21.86,3.5,3.5,0,0,1,.83,2.55,4.58,4.58,0,0,1-.48,2.21,3.23,3.23,0,0,1-1.35,1.34,4.19,4.19,0,0,1-2,.45,3.4,3.4,0,0,1-2.75-1.24A5.45,5.45,0,0,1,463.42,688.39Zm3.91,3.08a1.36,1.36,0,0,0,1.08-.46,2.33,2.33,0,0,0,.43-1.62,2.92,2.92,0,0,0-.31-1.47,1.1,1.1,0,0,0-1.06-.56,1.69,1.69,0,0,0-.85.23,2.61,2.61,0,0,0-.66.5,2.12,2.12,0,0,0-.37.47,5.83,5.83,0,0,0,.16,1.4,2.56,2.56,0,0,0,.52,1.1A1.4,1.4,0,0,0,467.33,691.47Zm12.51-2.33a4.13,4.13,0,0,1-1,3,3.68,3.68,0,0,1-2.77,1.06,4,4,0,0,1-1.94-.47,3.38,3.38,0,0,1-1.33-1.37,4.73,4.73,0,0,1-.48-2.22,4.09,4.09,0,0,1,1-3,3.7,3.7,0,0,1,2.78-1,4,4,0,0,1,1.94.47,3.44,3.44,0,0,1,1.33,1.37A4.53,4.53,0,0,1,479.84,689.14Zm-5.38,0a3.33,3.33,0,0,0,.38,1.76,1.36,1.36,0,0,0,1.24.58,1.32,1.32,0,0,0,1.21-.58,3.24,3.24,0,0,0,.38-1.76,3.07,3.07,0,0,0-.38-1.72,1.57,1.57,0,0,0-2.45,0A3.15,3.15,0,0,0,474.46,689.14Zm13.45-2.28h-2.56v6.19h-2.12v-6.19h-2.56v-1.6h7.24Zm1.43,6.19v-7.79h2.13v3h1a4.83,4.83,0,0,1,2.64.58,1.92,1.92,0,0,1,.85,1.72,2.24,2.24,0,0,1-.8,1.81,4,4,0,0,1-2.62.67Zm7.78,0v-7.79h2.12v7.79Zm-4.67-1.47a2,2,0,0,0,1-.22.83.83,0,0,0,.4-.76c0-.57-.48-.86-1.44-.86h-1v1.84Zm17.42,1.47-2.2-3.88h-.94v3.88h-2V683.1h3.73a4.25,4.25,0,0,1,2,.41,2.71,2.71,0,0,1,1.21,1.1,2.87,2.87,0,0,1,.42,1.54,3,3,0,0,1-.57,1.78,2.93,2.93,0,0,1-1.7,1.09l2.38,4Zm-3.14-5.37h1.67a1.66,1.66,0,0,0,1.21-.39,1.47,1.47,0,0,0,.4-1.1,1.34,1.34,0,0,0-.4-1.05,1.66,1.66,0,0,0-1.21-.39h-1.67Zm14.4-1.5a3,3,0,0,1-.38,1.5,2.73,2.73,0,0,1-1.18,1.12,4.24,4.24,0,0,1-2,.43h-1.67v3.82h-2V683.1h3.67a4.38,4.38,0,0,1,2,.4,2.69,2.69,0,0,1,1.21,1.09A3,3,0,0,1,521.13,686.18Zm-3.68,1.44a1.72,1.72,0,0,0,1.23-.37,1.42,1.42,0,0,0,.4-1.07c0-1-.54-1.46-1.63-1.46h-1.58v2.9Zm11.21,3.54h-4l-.65,1.89h-2.1l3.58-10h2.33l3.58,10h-2.12Zm-.54-1.6-1.44-4.17-1.45,4.17ZM535,691l-1.67,4H532l.93-4Zm12-5.7v7.79h-2.13v-6.19H542v6.19h-2.13v-7.79Zm9.31,3.88a4.13,4.13,0,0,1-1,3,3.68,3.68,0,0,1-2.77,1.06,4,4,0,0,1-1.94-.47,3.44,3.44,0,0,1-1.33-1.37,4.73,4.73,0,0,1-.48-2.22,4.14,4.14,0,0,1,1-3,3.72,3.72,0,0,1,2.78-1,3.92,3.92,0,0,1,1.94.47,3.38,3.38,0,0,1,1.33,1.37A4.53,4.53,0,0,1,556.3,689.14Zm-5.38,0a3.34,3.34,0,0,0,.37,1.76,1.36,1.36,0,0,0,1.24.58,1.32,1.32,0,0,0,1.21-.58,3.23,3.23,0,0,0,.39-1.76,3.06,3.06,0,0,0-.39-1.72,1.57,1.57,0,0,0-2.45,0A3.16,3.16,0,0,0,550.92,689.14Zm8.86-1c0,.67.32,1,.94,1a4.57,4.57,0,0,0,1.14-.13,7,7,0,0,0,1.06-.37v-3.37h2.13v7.79h-2.13V690a7.63,7.63,0,0,1-1.14.5,4.68,4.68,0,0,1-1.46.21,2.87,2.87,0,0,1-1.94-.63,2.36,2.36,0,0,1-.72-1.88v-2.9h2.12Zm13.94-1.26h-2.55v6.19H569v-6.19h-2.55v-1.6h7.23Zm4.64-1.75a3.7,3.7,0,0,1,2.39.68,2.5,2.5,0,0,1,.84,2.07v5.19h-1.48l-.41-1h-.06a3.27,3.27,0,0,1-1.06.91,3.37,3.37,0,0,1-1.52.29,2.53,2.53,0,0,1-1.73-.6,2.37,2.37,0,0,1-.68-1.87,2,2,0,0,1,.87-1.83,4.84,4.84,0,0,1,2.61-.65l1.35,0v-.34a1.13,1.13,0,0,0-.33-.9,1.26,1.26,0,0,0-.88-.28,3.48,3.48,0,0,0-1.11.17,8,8,0,0,0-1.09.4l-.7-1.44a6.36,6.36,0,0,1,1.39-.52A6.94,6.94,0,0,1,578.36,685.11Zm.29,4.36a2.38,2.38,0,0,0-1.42.37,1.12,1.12,0,0,0-.4.9.81.81,0,0,0,.28.7,1.3,1.3,0,0,0,.75.2,1.7,1.7,0,0,0,1.15-.4,1.42,1.42,0,0,0,.47-1.15v-.65Zm10.57-1.12q0,.24,0,.6c0,.23,0,.48,0,.72s0,.47,0,.66,0,.32-.05.4l3.6-5.47h2.55v7.79h-2.05v-3.11q0-.37,0-.84c0-.31,0-.6,0-.87s0-.48.06-.63l-3.58,5.45h-2.55v-7.79h2.05Zm15.19,4.7h-2.12v-6.19h-2a26.93,26.93,0,0,1-.5,3.68,4.72,4.72,0,0,1-.84,2,1.83,1.83,0,0,1-1.46.63,2.84,2.84,0,0,1-1.21-.23v-1.7a1.64,1.64,0,0,0,.69.14.6.6,0,0,0,.47-.25,2.77,2.77,0,0,0,.4-.93,12.64,12.64,0,0,0,.35-1.87c.11-.81.2-1.84.29-3.1h5.89Zm4.27-4.7c0,.16,0,.36,0,.6s0,.48,0,.72,0,.47,0,.66,0,.32,0,.4l3.59-5.47h2.56v7.79h-2.06v-3.11q0-.37,0-.84t.06-.87c0-.27,0-.48,0-.63l-3.58,5.45h-2.55v-7.79h2Zm11.79-5.48h1.94v4.92c0,.24,0,.5,0,.8l0,.87c0,.27,0,.52,0,.73s0,.33,0,.41h0l4.71-7.73h2.58v10.18h-1.93v-4.89c0-.26,0-.54,0-.84l0-.9c0-.29,0-.53,0-.74s0-.36,0-.43h-.05l-4.73,7.8h-2.59Zm16.06,1.65a2.17,2.17,0,0,0-1.89.93A4.3,4.3,0,0,0,634,688a4.49,4.49,0,0,0,.6,2.52,2.21,2.21,0,0,0,1.95.89,5.75,5.75,0,0,0,1.24-.14,14.11,14.11,0,0,0,1.36-.4v1.81a7.73,7.73,0,0,1-1.33.4,8.12,8.12,0,0,1-1.47.13,4.78,4.78,0,0,1-2.59-.65,3.8,3.8,0,0,1-1.5-1.82,7.3,7.3,0,0,1-.49-2.75,6.37,6.37,0,0,1,.56-2.73,4.28,4.28,0,0,1,1.61-1.85,4.83,4.83,0,0,1,2.61-.67,5.67,5.67,0,0,1,1.52.2,7.21,7.21,0,0,1,1.46.51l-.69,1.75c-.39-.18-.77-.33-1.16-.47A3.5,3.5,0,0,0,636.53,684.52Z" transform="translate(-193 -31)"/><path class="cls-15" d="M466.66,571.11a2.18,2.18,0,0,0-1.9.93,4.33,4.33,0,0,0-.65,2.54,4.64,4.64,0,0,0,.59,2.53,2.21,2.21,0,0,0,2,.88,5.75,5.75,0,0,0,1.24-.14,14.11,14.11,0,0,0,1.36-.4v1.81a7.73,7.73,0,0,1-1.33.4,8.2,8.2,0,0,1-1.47.13,4.91,4.91,0,0,1-2.6-.64,3.91,3.91,0,0,1-1.49-1.83,7.1,7.1,0,0,1-.49-2.75,6.37,6.37,0,0,1,.56-2.73,4.21,4.21,0,0,1,1.61-1.85,4.78,4.78,0,0,1,2.61-.67,5.6,5.6,0,0,1,1.51.2,7.52,7.52,0,0,1,1.47.51l-.7,1.75c-.38-.18-.76-.33-1.15-.47A3.5,3.5,0,0,0,466.66,571.11Zm8.93.6a2.59,2.59,0,0,1,2.12,1,5.9,5.9,0,0,1,0,6,2.68,2.68,0,0,1-2.15,1,2.58,2.58,0,0,1-1.34-.3,3.18,3.18,0,0,1-.82-.7h-.11a5.78,5.78,0,0,1,.11,1.14v3.14h-2.12V571.86H473l.3,1h.1a2.64,2.64,0,0,1,.85-.81A2.44,2.44,0,0,1,475.59,571.71Zm-.69,1.7a1.31,1.31,0,0,0-1.17.51,3.16,3.16,0,0,0-.36,1.57v.23a3.74,3.74,0,0,0,.33,1.74,1.3,1.3,0,0,0,1.23.6,1.15,1.15,0,0,0,1.07-.6,3.49,3.49,0,0,0,.36-1.75C476.36,574.18,475.87,573.41,474.9,573.41Zm8.59-1.7a3.24,3.24,0,0,1,3.49,3.54v1h-5a2,2,0,0,0,.53,1.41,1.91,1.91,0,0,0,1.41.51,5.83,5.83,0,0,0,1.37-.14,6.6,6.6,0,0,0,1.27-.47v1.64a4.67,4.67,0,0,1-1.21.41,6.7,6.7,0,0,1-1.53.15,4.84,4.84,0,0,1-2.07-.43,3.29,3.29,0,0,1-1.41-1.33,4.39,4.39,0,0,1-.52-2.22,5,5,0,0,1,.46-2.27,3.2,3.2,0,0,1,1.3-1.37A3.85,3.85,0,0,1,483.49,571.71Zm0,1.52a1.45,1.45,0,0,0-1,.39,2,2,0,0,0-.47,1.25h3a1.88,1.88,0,0,0-.37-1.17A1.29,1.29,0,0,0,483.5,573.23Zm12.21-1.37v6.23h1.14v4.35h-1.91v-2.8H489.7v2.8h-1.91v-4.35h.66a8.67,8.67,0,0,0,.87-1.78,14.22,14.22,0,0,0,.57-2.16c.14-.76.24-1.52.31-2.29ZM492,573.45a22.06,22.06,0,0,1-.48,2.47,10,10,0,0,1-.84,2.17h2.91v-4.64Zm9.35,6.34a3.61,3.61,0,0,1-2.69-1,4.23,4.23,0,0,1-.94-3,4.9,4.9,0,0,1,.48-2.32,3.07,3.07,0,0,1,1.34-1.33,4.56,4.56,0,0,1,2-.43,5.13,5.13,0,0,1,1.38.16,5.44,5.44,0,0,1,1,.37l-.62,1.64c-.34-.13-.65-.24-.94-.33a3.26,3.26,0,0,0-.86-.13c-1.1,0-1.66.79-1.66,2.36a2.84,2.84,0,0,0,.43,1.72,1.47,1.47,0,0,0,1.23.56,3.81,3.81,0,0,0,1.18-.17,4.45,4.45,0,0,0,1-.5v1.81a3,3,0,0,1-1,.44A5,5,0,0,1,501.34,579.79ZM512,573.45H509.4v6.19h-2.13v-6.19h-2.55v-1.59H512Zm8.34.45a1.55,1.55,0,0,1-.4,1.07,1.91,1.91,0,0,1-1.15.57v.05a2.25,2.25,0,0,1,1.3.56,1.51,1.51,0,0,1,.5,1.17,2.07,2.07,0,0,1-.36,1.2,2.17,2.17,0,0,1-1.1.82,5.43,5.43,0,0,1-2,.3h-3.71v-7.78h3.71a5.7,5.7,0,0,1,1.62.2,2.32,2.32,0,0,1,1.15.62A1.71,1.71,0,0,1,520.29,573.9Zm-2.15.17c0-.48-.38-.72-1.13-.72h-1.49v1.54h1.25a2.22,2.22,0,0,0,1-.18A.68.68,0,0,0,518.14,574.07Zm.2,3.14a.69.69,0,0,0-.36-.66,2.11,2.11,0,0,0-1.07-.22h-1.39v1.85H517a2,2,0,0,0,1-.22A.79.79,0,0,0,518.34,577.21Zm7.22-5.51a3.7,3.7,0,0,1,2.39.68,2.5,2.5,0,0,1,.84,2.07v5.19h-1.48l-.41-1h-.06a3.17,3.17,0,0,1-1.06.91,3.34,3.34,0,0,1-1.52.29,2.53,2.53,0,0,1-1.73-.6,2.4,2.4,0,0,1-.68-1.87,2,2,0,0,1,.87-1.83,4.84,4.84,0,0,1,2.61-.65l1.35-.05v-.34a1.16,1.16,0,0,0-.32-.9,1.28,1.28,0,0,0-.89-.28,3.48,3.48,0,0,0-1.11.17,8.5,8.5,0,0,0-1.09.4l-.7-1.44a6.36,6.36,0,0,1,1.39-.52A7,7,0,0,1,525.56,571.7Zm.3,4.36a2.41,2.41,0,0,0-1.43.37,1.12,1.12,0,0,0-.4.9.79.79,0,0,0,.29.7,1.2,1.2,0,0,0,.74.2,1.7,1.7,0,0,0,1.15-.4,1.42,1.42,0,0,0,.47-1.15V576Zm10.56-1.12c0,.16,0,.36,0,.6s0,.48,0,.72,0,.47,0,.66,0,.32,0,.4l3.59-5.46h2.56v7.78h-2.06v-3.11q0-.37,0-.84t.06-.87c0-.27,0-.48,0-.62l-3.58,5.44h-2.55v-7.78h2Zm10.34-3.08v3h3v-3h2.13v7.78h-2.13v-3.21h-3v3.21h-2.12v-7.78Zm13.77,1.59H558v6.19h-2.13v-6.19H553.3v-1.59h7.23Zm4.51-1.74a3.24,3.24,0,0,1,3.49,3.54v1h-5a2,2,0,0,0,.53,1.41,1.91,1.91,0,0,0,1.41.51,5.83,5.83,0,0,0,1.37-.14,6.6,6.6,0,0,0,1.27-.47v1.64a4.55,4.55,0,0,1-1.21.41,6.7,6.7,0,0,1-1.53.15,4.84,4.84,0,0,1-2.07-.43,3.29,3.29,0,0,1-1.41-1.33,4.39,4.39,0,0,1-.51-2.22,5,5,0,0,1,.45-2.27,3.2,3.2,0,0,1,1.3-1.37A3.85,3.85,0,0,1,565,571.71Zm0,1.52a1.45,1.45,0,0,0-1,.39,2,2,0,0,0-.47,1.25h3a1.82,1.82,0,0,0-.37-1.17A1.27,1.27,0,0,0,565.05,573.23Zm10.58-1.37v1.59h-3.25v6.19h-2.12v-7.78Zm5.77-.15a2.6,2.6,0,0,1,2.13,1,5.9,5.9,0,0,1,0,6,2.68,2.68,0,0,1-2.15,1,2.58,2.58,0,0,1-1.34-.3,3.18,3.18,0,0,1-.82-.7h-.11a5.78,5.78,0,0,1,.11,1.14v3.14h-2.12V571.86h1.72l.3,1h.1a2.71,2.71,0,0,1,.84-.81A2.49,2.49,0,0,1,581.4,571.71Zm-.68,1.7a1.31,1.31,0,0,0-1.17.51,3.16,3.16,0,0,0-.36,1.57v.23a3.74,3.74,0,0,0,.33,1.74,1.3,1.3,0,0,0,1.23.6,1.15,1.15,0,0,0,1.07-.6,3.5,3.5,0,0,0,.35-1.75C582.17,574.18,581.69,573.41,580.72,573.41Zm8.57-1.71a3.71,3.71,0,0,1,2.4.68,2.5,2.5,0,0,1,.84,2.07v5.19h-1.48l-.42-1h-.06a3.24,3.24,0,0,1-1.05.91,3.39,3.39,0,0,1-1.53.29,2.5,2.5,0,0,1-1.72-.6,2.37,2.37,0,0,1-.69-1.87,2,2,0,0,1,.87-1.83,4.84,4.84,0,0,1,2.61-.65l1.36-.05v-.34a1.13,1.13,0,0,0-.33-.9,1.26,1.26,0,0,0-.88-.28,3.5,3.5,0,0,0-1.12.17,7.87,7.87,0,0,0-1.08.4l-.7-1.44a6.47,6.47,0,0,1,1.38-.52A7.07,7.07,0,0,1,589.29,571.7Zm.3,4.36a2.44,2.44,0,0,0-1.43.37,1.15,1.15,0,0,0-.4.9.81.81,0,0,0,.29.7,1.22,1.22,0,0,0,.74.2,1.72,1.72,0,0,0,1.16-.4,1.46,1.46,0,0,0,.47-1.15V576Zm13.62,6.38H601.3v-2.8h-6.6v-7.78h2.13v6.19h3.11v-6.19h2.13v6.23h1.14Zm3.37-7.5q0,.24,0,.6c0,.23,0,.48,0,.72s0,.47,0,.66,0,.32-.05.4l3.6-5.46h2.55v7.78h-2.05v-3.11q0-.37,0-.84c0-.31,0-.6.05-.87s0-.48.06-.62l-3.58,5.44h-2.55v-7.78h2.05Zm10.27,0q0,.24,0,.6c0,.23,0,.48,0,.72s0,.47,0,.66,0,.32,0,.4l3.6-5.46h2.55v7.78h-2.06v-3.11q0-.37,0-.84t.06-.87c0-.27,0-.48.06-.62l-3.58,5.44h-2.56v-7.78h2.06Z" transform="translate(-193 -31)"/><path class="cls-16" d="M748,440.44a6.62,6.62,0,0,1-.53,2.77,4,4,0,0,1-1.58,1.83,5.24,5.24,0,0,1-2.74.65,5.32,5.32,0,0,1-2.74-.65,4.11,4.11,0,0,1-1.6-1.84,7,7,0,0,1-.51-2.77,6.82,6.82,0,0,1,.51-2.75,4.06,4.06,0,0,1,1.6-1.82,5.34,5.34,0,0,1,2.76-.65,5.19,5.19,0,0,1,2.72.65,3.88,3.88,0,0,1,1.58,1.83A6.52,6.52,0,0,1,748,440.44Zm-7.43,0a4.53,4.53,0,0,0,.61,2.53,2.6,2.6,0,0,0,4,0,4.62,4.62,0,0,0,.6-2.53,4.56,4.56,0,0,0-.6-2.52,2.16,2.16,0,0,0-2-.91,2.22,2.22,0,0,0-2,.91A4.47,4.47,0,0,0,740.56,440.44ZM757,437.76v7.79h-2.13v-6.19h-2.82v6.19h-2.13v-7.79Zm8.67,1.6h-2.55v6.19H761v-6.19h-2.56v-1.6h7.23Zm3.5,1.48q0,.24,0,.6c0,.24,0,.48,0,.73s0,.47,0,.66,0,.32,0,.4l3.59-5.47h2.56v7.79h-2.06v-3.11q0-.39,0-.84c0-.31,0-.61.06-.87s0-.49,0-.63l-3.58,5.45h-2.55v-7.79h2.06Zm18-3.08v7.79h-2v-3.82c0-.38,0-.75,0-1.12s0-.69.08-1h0l-2.15,5.93h-1.6l-2.18-5.95h-.06c0,.32.06.65.07,1s0,.75,0,1.17v3.77h-2v-7.79h3l1.94,5.28,2-5.28Zm5.42-.16a3.65,3.65,0,0,1,2.4.69,2.5,2.5,0,0,1,.84,2.07v5.19h-1.49l-.41-1.06h-.06a3.28,3.28,0,0,1-1,.92,3.4,3.4,0,0,1-1.53.28,2.5,2.5,0,0,1-1.72-.6,2.35,2.35,0,0,1-.69-1.86,2,2,0,0,1,.87-1.83,4.93,4.93,0,0,1,2.61-.66l1.36,0v-.34a1.13,1.13,0,0,0-.33-.9,1.29,1.29,0,0,0-.89-.29,3.49,3.49,0,0,0-1.11.18,7.8,7.8,0,0,0-1.08.39l-.7-1.44a6,6,0,0,1,1.38-.51A7.08,7.08,0,0,1,792.62,437.6Zm.3,4.37a2.34,2.34,0,0,0-1.43.37,1.15,1.15,0,0,0-.4.9.82.82,0,0,0,.29.7,1.29,1.29,0,0,0,.74.2,1.78,1.78,0,0,0,1.16-.4,1.48,1.48,0,0,0,.47-1.16v-.64Zm12.57-7.56a3,3,0,0,1-.41,1.31,2.25,2.25,0,0,1-1.07.87,5,5,0,0,1-2,.32,5.19,5.19,0,0,1-2-.3,2,2,0,0,1-1-.87,3.34,3.34,0,0,1-.36-1.33h1.9a1.47,1.47,0,0,0,.4,1,1.77,1.77,0,0,0,1.07.26,1.71,1.71,0,0,0,1-.27,1.39,1.39,0,0,0,.47-1Zm-5.4,6.43q0,.24,0,.6c0,.24,0,.48,0,.73s0,.47,0,.66,0,.32,0,.4l3.6-5.47h2.55v7.79H804v-3.11c0-.26,0-.54,0-.84s0-.61.06-.87,0-.49.06-.63l-3.58,5.45H798v-7.79h2.06Zm11-3.22a5.32,5.32,0,0,1,1.57.23,2.53,2.53,0,0,1,1.18.67,1.55,1.55,0,0,1,.46,1.17,1.47,1.47,0,0,1-.43,1.11,2.31,2.31,0,0,1-1.13.6v.07a3.66,3.66,0,0,1,.9.33,1.49,1.49,0,0,1,.63.56,1.55,1.55,0,0,1,.24.92,1.94,1.94,0,0,1-.41,1.2,2.82,2.82,0,0,1-1.26.89,6.23,6.23,0,0,1-2.16.32,7.44,7.44,0,0,1-3-.48v-1.76a6.93,6.93,0,0,0,1.18.42,6.21,6.21,0,0,0,1.52.18,4.5,4.5,0,0,0,1.47-.2c.4-.13.6-.36.6-.7,0-.61-.74-.92-2.22-.92h-.82v-1.47h.78a6.18,6.18,0,0,0,1.63-.17c.39-.12.58-.33.58-.65a.58.58,0,0,0-.37-.55,2.62,2.62,0,0,0-1.21-.2,6.87,6.87,0,0,0-2.45.5l-.63-1.49a9.17,9.17,0,0,1,1.47-.41A9.35,9.35,0,0,1,811.14,437.62Zm8.28,0a3.24,3.24,0,0,1,3.5,3.54v1h-5a2,2,0,0,0,.53,1.42,1.91,1.91,0,0,0,1.41.51,6.41,6.41,0,0,0,1.37-.14,7.34,7.34,0,0,0,1.27-.47v1.64a5,5,0,0,1-1.22.41,6.61,6.61,0,0,1-1.52.14,4.84,4.84,0,0,1-2.07-.42,3.29,3.29,0,0,1-1.41-1.33,4.31,4.31,0,0,1-.52-2.23,5.06,5.06,0,0,1,.46-2.27,3.17,3.17,0,0,1,1.3-1.36A3.84,3.84,0,0,1,819.42,437.62Zm0,1.51a1.42,1.42,0,0,0-1,.4,1.94,1.94,0,0,0-.47,1.24h3a1.92,1.92,0,0,0-.37-1.17A1.32,1.32,0,0,0,819.44,439.13Zm9.54-1.51a2.56,2.56,0,0,1,2.12,1,4.64,4.64,0,0,1,.82,3,4.75,4.75,0,0,1-.84,3,2.69,2.69,0,0,1-2.16,1,2.58,2.58,0,0,1-1.34-.3,3.3,3.3,0,0,1-.81-.7h-.12a5.84,5.84,0,0,1,.12,1.15V449h-2.13V437.76h1.73l.3,1h.1a3,3,0,0,1,.84-.81A2.46,2.46,0,0,1,829,437.62Zm-.69,1.7a1.31,1.31,0,0,0-1.17.51,3.25,3.25,0,0,0-.35,1.57v.23a3.74,3.74,0,0,0,.33,1.74,1.27,1.27,0,0,0,1.22.6,1.14,1.14,0,0,0,1.07-.6,3.53,3.53,0,0,0,.36-1.76C829.75,440.08,829.26,439.32,828.29,439.32Z" transform="translate(-193 -31)"/><path class="cls-15" d="M498.28,463.41a2.18,2.18,0,0,0-1.9.93,4.3,4.3,0,0,0-.66,2.54,4.51,4.51,0,0,0,.6,2.52,2.22,2.22,0,0,0,2,.89,5.26,5.26,0,0,0,1.24-.15,9.94,9.94,0,0,0,1.35-.4v1.82a7.9,7.9,0,0,1-1.32.4,8.25,8.25,0,0,1-1.47.12,4.79,4.79,0,0,1-2.6-.64,3.85,3.85,0,0,1-1.5-1.82,7.32,7.32,0,0,1-.48-2.76,6.35,6.35,0,0,1,.55-2.72,4.36,4.36,0,0,1,1.61-1.86,4.93,4.93,0,0,1,2.62-.67,6.09,6.09,0,0,1,1.51.2,8.27,8.27,0,0,1,1.47.52l-.7,1.75a10.43,10.43,0,0,0-1.16-.47A3.44,3.44,0,0,0,498.28,463.41Zm7.79.6a3.24,3.24,0,0,1,3.5,3.54v1h-5a2,2,0,0,0,.53,1.42,1.91,1.91,0,0,0,1.41.51,6.41,6.41,0,0,0,1.37-.14,7.34,7.34,0,0,0,1.27-.47v1.64a4.62,4.62,0,0,1-1.22.41,6.61,6.61,0,0,1-1.52.14,4.84,4.84,0,0,1-2.07-.42,3.29,3.29,0,0,1-1.41-1.33,4.31,4.31,0,0,1-.52-2.23,5,5,0,0,1,.46-2.26,3.14,3.14,0,0,1,1.3-1.37A3.84,3.84,0,0,1,506.07,464Zm0,1.51a1.46,1.46,0,0,0-1,.4,2,2,0,0,0-.47,1.24h3a1.92,1.92,0,0,0-.37-1.17A1.32,1.32,0,0,0,506.09,465.52Zm9.54-1.51a2.6,2.6,0,0,1,2.13,1,4.7,4.7,0,0,1,.81,3,4.75,4.75,0,0,1-.84,3,2.67,2.67,0,0,1-2.16,1,2.58,2.58,0,0,1-1.34-.3,3.27,3.27,0,0,1-.81-.69h-.12a5.74,5.74,0,0,1,.12,1.14v3.13h-2.13V464.15H513l.3,1h.1a2.86,2.86,0,0,1,.84-.82A2.46,2.46,0,0,1,515.63,464Zm-.68,1.7a1.29,1.29,0,0,0-1.17.51,3.13,3.13,0,0,0-.36,1.57V468a3.74,3.74,0,0,0,.33,1.74,1.28,1.28,0,0,0,1.22.6,1.13,1.13,0,0,0,1.07-.6,3.5,3.5,0,0,0,.36-1.76C516.4,466.47,515.92,465.71,515,465.71Zm12.27.48a1.55,1.55,0,0,1-.39,1.07,1.86,1.86,0,0,1-1.16.57v.06a2.25,2.25,0,0,1,1.3.56,1.51,1.51,0,0,1,.5,1.17,2.06,2.06,0,0,1-.36,1.19,2.18,2.18,0,0,1-1.1.83,5.43,5.43,0,0,1-2,.3h-3.71v-7.79H524a6.22,6.22,0,0,1,1.63.2,2.43,2.43,0,0,1,1.14.63A1.68,1.68,0,0,1,527.22,466.19Zm-2.15.17c0-.47-.38-.71-1.13-.71h-1.49v1.54h1.25a2.19,2.19,0,0,0,1-.18A.69.69,0,0,0,525.07,466.36Zm.2,3.14a.68.68,0,0,0-.36-.65,2,2,0,0,0-1.07-.22h-1.39v1.84h1.44a2,2,0,0,0,1-.21A.8.8,0,0,0,525.27,469.5ZM532.5,464a3.25,3.25,0,0,1,3.5,3.54v1h-5a2,2,0,0,0,.52,1.42,2,2,0,0,0,1.42.51,6.25,6.25,0,0,0,1.36-.14,7,7,0,0,0,1.27-.47v1.64a4.55,4.55,0,0,1-1.21.41,6.72,6.72,0,0,1-1.52.14,4.84,4.84,0,0,1-2.07-.42,3.37,3.37,0,0,1-1.42-1.33,4.41,4.41,0,0,1-.51-2.23,4.86,4.86,0,0,1,.46-2.26,3.08,3.08,0,0,1,1.3-1.37A3.84,3.84,0,0,1,532.5,464Zm0,1.51a1.44,1.44,0,0,0-1,.4,1.94,1.94,0,0,0-.47,1.24h3a1.92,1.92,0,0,0-.37-1.17A1.32,1.32,0,0,0,532.52,465.52Zm9.54-1.51a2.56,2.56,0,0,1,2.12,1,4.7,4.7,0,0,1,.81,3,4.75,4.75,0,0,1-.84,3,2.67,2.67,0,0,1-2.15,1,2.58,2.58,0,0,1-1.34-.3,3.1,3.1,0,0,1-.81-.69h-.12a5.74,5.74,0,0,1,.12,1.14v3.13h-2.13V464.15h1.73l.3,1h.1a2.74,2.74,0,0,1,.84-.82A2.46,2.46,0,0,1,542.06,464Zm-.69,1.7a1.31,1.31,0,0,0-1.17.51,3,3,0,0,0-.35,1.57V468a3.88,3.88,0,0,0,.32,1.74,1.3,1.3,0,0,0,1.23.6,1.14,1.14,0,0,0,1.07-.6,3.5,3.5,0,0,0,.36-1.76C542.83,466.47,542.34,465.71,541.37,465.71Zm18.52,4.52v4.68h-2.08v-3h-7.49V461.76h2.15v8.38h3.75v-8.38h2.16v8.47Zm9.55-8.47v8.38h1.35v4.77h-2.08v-3h-6.38v3h-2.08v-4.77H561a24.05,24.05,0,0,0,1-2.28,24.44,24.44,0,0,0,.84-2.72,25.72,25.72,0,0,0,.61-3.38Zm-4.23,1.79a18.1,18.1,0,0,1-.41,2.14c-.18.76-.4,1.53-.66,2.3a20,20,0,0,1-.84,2.15h4v-6.59Zm7.15,8.39V461.76h8.06v10.18h-2.16v-8.39h-3.75v8.39Zm10.63,0V461.76h8.06v10.18h-2.16v-8.39h-3.75v8.39Z" transform="translate(-193 -31)"/><path class="cls-6" d="M471,432.59a1.33,1.33,0,0,0-1.14.55,2.62,2.62,0,0,0-.39,1.53,2.7,2.7,0,0,0,.36,1.51,1.34,1.34,0,0,0,1.17.53,3.82,3.82,0,0,0,.75-.08q.38-.09.81-.24v1.08a4.06,4.06,0,0,1-.8.24,4.63,4.63,0,0,1-.88.08,2.94,2.94,0,0,1-1.55-.38,2.32,2.32,0,0,1-.9-1.1,4.19,4.19,0,0,1-.29-1.65,3.87,3.87,0,0,1,.33-1.64,2.55,2.55,0,0,1,1-1.11,2.85,2.85,0,0,1,1.56-.4,3.5,3.5,0,0,1,.91.12,3.83,3.83,0,0,1,.88.31l-.42,1.05a6.65,6.65,0,0,0-.69-.28A2,2,0,0,0,471,432.59Zm4,2.29c0,.1,0,.22,0,.36s0,.29,0,.44,0,.28,0,.39,0,.19,0,.24l2.15-3.28h1.53v4.67h-1.23v-1.86c0-.16,0-.32,0-.51s0-.36,0-.52,0-.29,0-.38l-2.15,3.27h-1.53V433H475ZM485.81,433v4.67h-1.19v-3c0-.21,0-.41.05-.6h0l-1.29,3.56h-1l-1.31-3.56h0c0,.18,0,.39,0,.6s0,.45,0,.7v2.26h-1.19V433h1.8l1.17,3.17,1.18-3.17Zm.66,0h1.4l.88,2.63a2.48,2.48,0,0,1,.1.39c0,.13,0,.27,0,.42h0a2.63,2.63,0,0,1,.07-.42c0-.13.07-.27.11-.39L490,433h1.37l-2,5.27a2.1,2.1,0,0,1-.78,1.09,1.88,1.88,0,0,1-1.17.37,2,2,0,0,1-.37,0l-.28,0v-1l.22,0a1.42,1.42,0,0,0,.29,0,.79.79,0,0,0,.63-.25,1.37,1.37,0,0,0,.35-.58l.08-.23ZM496,437.7h-1.28V434h-1.17a15.38,15.38,0,0,1-.3,2.21,2.87,2.87,0,0,1-.5,1.21,1.11,1.11,0,0,1-.88.38,1.68,1.68,0,0,1-.72-.14v-1a1,1,0,0,0,.41.09.38.38,0,0,0,.28-.15,1.49,1.49,0,0,0,.24-.56,7.3,7.3,0,0,0,.21-1.12c.07-.49.12-1.11.18-1.86H496Zm2,0h-1.38l1.26-1.84a1.8,1.8,0,0,1-.64-.47,1.43,1.43,0,0,1-.27-.91,1.2,1.2,0,0,1,.53-1.07,2.28,2.28,0,0,1,1.36-.38h2.17v4.67h-1.27V436h-.71Zm.22-3.21a.54.54,0,0,0,.23.46,1,1,0,0,0,.6.16h.71v-1.18H499a.67.67,0,0,0-.5.17A.53.53,0,0,0,498.29,434.49Zm9.25,4.89h-1.15V437.7h-3.95V433h1.27v3.72h1.87V433h1.27v3.74h.69Zm2-4.5c0,.1,0,.22,0,.36s0,.29,0,.44,0,.28,0,.39,0,.19,0,.24l2.15-3.28h1.53v4.67h-1.23v-1.86c0-.16,0-.32,0-.51s0-.36,0-.52,0-.29,0-.38l-2.15,3.27h-1.53V433h1.23Zm5.64,2.82h-1.38l1.26-1.84a1.72,1.72,0,0,1-.64-.47,1.38,1.38,0,0,1-.28-.91,1.22,1.22,0,0,1,.53-1.07,2.32,2.32,0,0,1,1.36-.38h2.18v4.67H517V436h-.7Zm.21-3.21a.56.56,0,0,0,.23.46,1,1,0,0,0,.6.16H517v-1.18h-.87a.7.7,0,0,0-.51.17A.57.57,0,0,0,515.41,434.49Zm7.42.39c0,.1,0,.22,0,.36l0,.44c0,.14,0,.28,0,.39s0,.19,0,.24L524.9,433h1.53v4.67H525.2v-1.86c0-.16,0-.32,0-.51s0-.36,0-.52,0-.29,0-.38l-2.15,3.27H521.6V433h1.23Zm6.69,0a4.23,4.23,0,0,1,.58-2.41,2.78,2.78,0,0,1,1.94-1.09c.31-.06.61-.1.92-.13l1-.12.14,1.11-.64.08-.68.08c-.23,0-.43.05-.6.08a2.3,2.3,0,0,0-.71.21.92.92,0,0,0-.44.45,2.34,2.34,0,0,0-.18.89h.06a1.64,1.64,0,0,1,.28-.33,1.6,1.6,0,0,1,.46-.27,1.95,1.95,0,0,1,2,.4,2.12,2.12,0,0,1,.49,1.53,2.67,2.67,0,0,1-.29,1.33,1.93,1.93,0,0,1-.8.8,2.54,2.54,0,0,1-1.19.27,2.08,2.08,0,0,1-1.66-.74A3.29,3.29,0,0,1,529.52,434.91Zm2.34,1.84a.83.83,0,0,0,.65-.27,1.39,1.39,0,0,0,.26-1,1.72,1.72,0,0,0-.19-.88.66.66,0,0,0-.63-.33,1,1,0,0,0-.51.14,1.35,1.35,0,0,0-.4.3,1,1,0,0,0-.22.28,3.86,3.86,0,0,0,.09.84,1.57,1.57,0,0,0,.32.66A.84.84,0,0,0,531.86,436.75Zm4.5-1.87c0,.1,0,.22,0,.36s0,.29,0,.44,0,.28,0,.39,0,.19,0,.24l2.16-3.28H540v4.67h-1.23v-1.86c0-.16,0-.32,0-.51s0-.36,0-.52,0-.29,0-.38l-2.15,3.27h-1.53V433h1.23ZM543,433a3.14,3.14,0,0,1,.94.13,1.63,1.63,0,0,1,.71.4,1,1,0,0,1,.27.71.86.86,0,0,1-.25.66,1.39,1.39,0,0,1-.68.36v.05a2.15,2.15,0,0,1,.54.19.9.9,0,0,1,.38.34,1,1,0,0,1,.14.55,1.15,1.15,0,0,1-.25.72,1.61,1.61,0,0,1-.75.53,3.66,3.66,0,0,1-1.3.2,4.53,4.53,0,0,1-1.8-.29v-1.05a4.19,4.19,0,0,0,.71.24,3.39,3.39,0,0,0,.91.12,2.79,2.79,0,0,0,.88-.12q.36-.12.36-.42c0-.37-.44-.56-1.32-.56H542v-.88h.47a4,4,0,0,0,1-.1c.23-.07.35-.2.35-.39a.35.35,0,0,0-.23-.33,1.58,1.58,0,0,0-.72-.12,3.83,3.83,0,0,0-.73.07,4.66,4.66,0,0,0-.75.23l-.37-.89a4.52,4.52,0,0,1,.88-.25A5.33,5.33,0,0,1,543,433Zm4.32.08v1.8h1.78V433h1.27v4.67h-1.27v-1.92h-1.78v1.92H546V433Zm6.32-.08a2.1,2.1,0,0,1,1.53.55,2.12,2.12,0,0,1,.56,1.57v.61h-3a1.21,1.21,0,0,0,.32.85,1.1,1.1,0,0,0,.84.31,3.52,3.52,0,0,0,.83-.09,3.73,3.73,0,0,0,.76-.28v1a3,3,0,0,1-.73.24,4,4,0,0,1-.92.09,2.89,2.89,0,0,1-1.24-.26,1.89,1.89,0,0,1-.84-.79,2.61,2.61,0,0,1-.31-1.34,3,3,0,0,1,.27-1.36,1.93,1.93,0,0,1,.78-.82A2.39,2.39,0,0,1,553.63,433Zm0,.9a.84.84,0,0,0-.61.24,1.12,1.12,0,0,0-.28.75h1.78a1,1,0,0,0-.22-.7A.78.78,0,0,0,553.63,433.85Zm5,3.94a2.19,2.19,0,0,1-1.62-.57,2.54,2.54,0,0,1-.57-1.83,2.84,2.84,0,0,1,.3-1.39,1.82,1.82,0,0,1,.8-.8,2.71,2.71,0,0,1,1.2-.25,3.34,3.34,0,0,1,.83.09,3.41,3.41,0,0,1,.62.22l-.37,1a5.61,5.61,0,0,0-.57-.2,1.81,1.81,0,0,0-.51-.08c-.66,0-1,.47-1,1.42a1.7,1.7,0,0,0,.25,1,.91.91,0,0,0,.74.33,2.21,2.21,0,0,0,.71-.1,2.8,2.8,0,0,0,.6-.3v1.09a2.1,2.1,0,0,1-.62.26A3,3,0,0,1,558.66,437.79Zm6.06-3.65v1h-3.63v-1Zm3.34-1.2a2.17,2.17,0,0,1,1.44.41,1.48,1.48,0,0,1,.5,1.24v3.11h-.89l-.24-.63h0a1.68,1.68,0,0,1-1.55.72,1.5,1.5,0,0,1-1-.36,1.4,1.4,0,0,1-.41-1.12,1.23,1.23,0,0,1,.52-1.1,2.92,2.92,0,0,1,1.56-.39l.82,0v-.2a.67.67,0,0,0-.2-.54.77.77,0,0,0-.53-.17,2.18,2.18,0,0,0-.67.1,4.7,4.7,0,0,0-.65.24l-.42-.86a3.56,3.56,0,0,1,.83-.31A3.82,3.82,0,0,1,568.06,432.94Zm.18,2.62a1.34,1.34,0,0,0-.85.22.68.68,0,0,0-.24.54.49.49,0,0,0,.17.42.74.74,0,0,0,.44.12,1,1,0,0,0,.69-.24.89.89,0,0,0,.29-.7v-.38Zm4.34-2.53v1.8h1.79V433h1.27v4.67h-1.27v-1.92h-1.79v1.92h-1.27V433Zm6.31-.09a2.17,2.17,0,0,1,1.44.41,1.48,1.48,0,0,1,.51,1.24v3.11H580l-.25-.63h0a1.68,1.68,0,0,1-1.55.72,1.5,1.5,0,0,1-1-.36,1.44,1.44,0,0,1-.41-1.12,1.23,1.23,0,0,1,.52-1.1,2.93,2.93,0,0,1,1.57-.39l.81,0v-.2a.67.67,0,0,0-.2-.54.77.77,0,0,0-.53-.17,2.18,2.18,0,0,0-.67.1,4.7,4.7,0,0,0-.65.24l-.42-.86a3.64,3.64,0,0,1,.84-.31A3.69,3.69,0,0,1,578.89,432.94Zm.18,2.62a1.36,1.36,0,0,0-.85.22.68.68,0,0,0-.24.54.49.49,0,0,0,.17.42.74.74,0,0,0,.44.12,1,1,0,0,0,.7-.24.88.88,0,0,0,.28-.7v-.38Zm7.26,2.14h-1.28V434h-1.17a15.38,15.38,0,0,1-.3,2.21,2.87,2.87,0,0,1-.5,1.21,1.11,1.11,0,0,1-.88.38,1.73,1.73,0,0,1-.73-.14v-1a1,1,0,0,0,.42.09.38.38,0,0,0,.28-.15,1.91,1.91,0,0,0,.24-.56,7.3,7.3,0,0,0,.21-1.12c.06-.49.12-1.11.17-1.86h3.54Zm2.56-2.82a2.43,2.43,0,0,1,0,.36c0,.14,0,.29,0,.44s0,.28,0,.39,0,.19,0,.24L591,433h1.54v4.67h-1.24v-1.86c0-.16,0-.32,0-.51s0-.36,0-.52,0-.29,0-.38l-2.15,3.27h-1.53V433h1.23Zm8.8-.89h-1.53v3.71h-1.28V434h-1.53v-1h4.34Zm2.09.89c0,.1,0,.22,0,.36l0,.44c0,.14,0,.28,0,.39s0,.19,0,.24l2.16-3.28h1.53v4.67h-1.24v-1.86c0-.16,0-.32,0-.51s0-.36,0-.52,0-.29,0-.38l-2.15,3.27h-1.53V433h1.23Zm8-1.85h1.41l-1.85,2.24,2,2.43h-1.45l-1.9-2.37v2.37h-1.28V433H606v2.27Zm4.16-.09a2.21,2.21,0,0,1,1.44.41,1.51,1.51,0,0,1,.5,1.24v3.11H613l-.25-.63h0a2,2,0,0,1-.64.55,2,2,0,0,1-.91.17,1.53,1.53,0,0,1-1-.36,1.44,1.44,0,0,1-.41-1.12,1.25,1.25,0,0,1,.52-1.1,2.93,2.93,0,0,1,1.57-.39l.81,0v-.2a.67.67,0,0,0-.19-.54.8.8,0,0,0-.53-.17,2.13,2.13,0,0,0-.67.1,3.91,3.91,0,0,0-.65.24l-.42-.86a3.56,3.56,0,0,1,.83-.31A3.82,3.82,0,0,1,611.93,432.94Zm.18,2.62a1.39,1.39,0,0,0-.86.22.68.68,0,0,0-.24.54.51.51,0,0,0,.17.42.77.77,0,0,0,.45.12,1,1,0,0,0,.69-.24.88.88,0,0,0,.28-.7v-.38Z" transform="translate(-193 -31)"/><path class="cls-15" d="M495.39,409.24a4.9,4.9,0,0,0-4.27,2.08,9.73,9.73,0,0,0-1.48,5.72,10.17,10.17,0,0,0,1.35,5.68,5,5,0,0,0,4.4,2,12.5,12.5,0,0,0,2.79-.32,30.33,30.33,0,0,0,3.05-.9v4.08a16,16,0,0,1-6.29,1.18,10.85,10.85,0,0,1-5.84-1.44,8.76,8.76,0,0,1-3.37-4.11,16.21,16.21,0,0,1-1.1-6.19,14.13,14.13,0,0,1,1.26-6.13,9.72,9.72,0,0,1,3.62-4.18,10.94,10.94,0,0,1,5.88-1.51,13.3,13.3,0,0,1,3.4.45,17.43,17.43,0,0,1,3.3,1.16l-1.57,3.95a23.24,23.24,0,0,0-2.6-1.06A7.59,7.59,0,0,0,495.39,409.24Zm10.71-3.73h4.36v11.08q0,.8,0,1.8t-.06,1.95c0,.62-.05,1.17-.07,1.64s0,.76-.06.93h.1l10.59-17.4h5.81v22.92H522.4v-11c0-.57,0-1.21,0-1.89s0-1.38.06-2,.07-1.2.1-1.67.07-.82.09-1h-.13l-10.62,17.55H506.1Zm36.11,22.92-5.52-18h-.12l.09,1.92c0,.86.09,1.78.13,2.76s.06,1.84.06,2.64v10.65h-4.33V405.51h6.61L544.56,423h.09l5.75-17.53H557v22.92h-4.52V417.58c0-.72,0-1.56,0-2.5s.07-1.83.09-2.66l.1-1.93h-.13l-5.9,17.94Zm20.59,0V405.51h14.48v4h-9.63v4.78h1.92a13.33,13.33,0,0,1,5.3.9,6.84,6.84,0,0,1,1.8,11.36q-2.25,1.86-7.19,1.86Zm6.48-4a7.11,7.11,0,0,0,3.47-.7,2.58,2.58,0,0,0,1.28-2.48,2.32,2.32,0,0,0-1.38-2.4,9.83,9.83,0,0,0-3.75-.58h-1.25v6.16Zm27.7,4L595.31,423H587l-1.67,5.45h-5.23l8.08-23h5.94l8.12,23Zm-4.49-14.86-.42-1.38c-.17-.56-.34-1.12-.51-1.7s-.31-1.08-.42-1.51c-.11.43-.26,1-.45,1.61s-.34,1.22-.51,1.79-.27,1-.36,1.19l-1.63,5.33h6Z" transform="translate(-193 -31)"/><path class="cls-16" d="M245.69,437a2.17,2.17,0,0,0-1.89.93,4.3,4.3,0,0,0-.66,2.54,4.51,4.51,0,0,0,.6,2.52,2.21,2.21,0,0,0,1.95.89,5.13,5.13,0,0,0,1.24-.15,11.74,11.74,0,0,0,1.36-.4v1.82a6.89,6.89,0,0,1-1.33.39,7.24,7.24,0,0,1-1.47.13,4.78,4.78,0,0,1-2.59-.64,3.89,3.89,0,0,1-1.5-1.82,7.31,7.31,0,0,1-.49-2.76,6.32,6.32,0,0,1,.56-2.72,4.36,4.36,0,0,1,1.61-1.86,4.92,4.92,0,0,1,2.61-.67,6.1,6.1,0,0,1,1.52.2,7.9,7.9,0,0,1,1.46.52l-.69,1.75a11.28,11.28,0,0,0-1.16-.47A3.5,3.5,0,0,0,245.69,437Zm8.93.6a2.56,2.56,0,0,1,2.12,1,4.64,4.64,0,0,1,.82,3,4.75,4.75,0,0,1-.84,3,2.69,2.69,0,0,1-2.16,1,2.58,2.58,0,0,1-1.34-.3,3.3,3.3,0,0,1-.81-.7h-.12a5.84,5.84,0,0,1,.12,1.15V449h-2.13V437.76H252l.3,1h.1a3,3,0,0,1,.84-.81A2.46,2.46,0,0,1,254.62,437.62Zm-.69,1.7a1.31,1.31,0,0,0-1.17.51,3.25,3.25,0,0,0-.35,1.57v.23a3.74,3.74,0,0,0,.33,1.74,1.27,1.27,0,0,0,1.22.6,1.14,1.14,0,0,0,1.07-.6,3.53,3.53,0,0,0,.36-1.76C255.39,440.08,254.9,439.32,253.93,439.32Zm8.59-1.7a3.48,3.48,0,0,1,2.55.93,3.43,3.43,0,0,1,.94,2.61v1h-5a2.09,2.09,0,0,0,.53,1.42,1.91,1.91,0,0,0,1.41.51,6.34,6.34,0,0,0,1.37-.14,7.34,7.34,0,0,0,1.27-.47v1.64a4.93,4.93,0,0,1-1.21.41,6.76,6.76,0,0,1-1.53.14,4.84,4.84,0,0,1-2.07-.42,3.35,3.35,0,0,1-1.41-1.33,4.41,4.41,0,0,1-.51-2.23,4.93,4.93,0,0,1,.46-2.27,3.15,3.15,0,0,1,1.29-1.36A3.91,3.91,0,0,1,262.52,437.62Zm0,1.51a1.38,1.38,0,0,0-1,.4,1.88,1.88,0,0,0-.47,1.24h3a2,2,0,0,0-.37-1.17A1.33,1.33,0,0,0,262.53,439.13Zm12.21-1.37V444h1.14v4.35H274v-2.8h-5.23v2.8h-1.91V444h.65a8.76,8.76,0,0,0,.87-1.79,13.79,13.79,0,0,0,.57-2.15c.14-.76.25-1.53.32-2.3Zm-3.72,1.6a22.54,22.54,0,0,1-.47,2.47,10,10,0,0,1-.84,2.17h2.91v-4.64Zm9.39-1.76a3.64,3.64,0,0,1,2.39.69,2.5,2.5,0,0,1,.84,2.07v5.19h-1.48l-.41-1.06h-.06a3.21,3.21,0,0,1-1.06.92,3.35,3.35,0,0,1-1.52.28,2.53,2.53,0,0,1-1.73-.6,2.38,2.38,0,0,1-.68-1.86,2,2,0,0,1,.87-1.83,4.93,4.93,0,0,1,2.61-.66l1.35,0v-.34a1.16,1.16,0,0,0-.32-.9,1.29,1.29,0,0,0-.89-.29,3.49,3.49,0,0,0-1.11.18,8.42,8.42,0,0,0-1.09.39l-.7-1.44a5.87,5.87,0,0,1,1.39-.51A7,7,0,0,1,280.41,437.6Zm.3,4.37a2.34,2.34,0,0,0-1.43.37,1.12,1.12,0,0,0-.4.9.8.8,0,0,0,.29.7,1.27,1.27,0,0,0,.74.2,1.75,1.75,0,0,0,1.15-.4,1.45,1.45,0,0,0,.47-1.16v-.64Zm15.59-.33a4.17,4.17,0,0,1-1,3,3.68,3.68,0,0,1-2.77,1.05,3.9,3.9,0,0,1-1.94-.47,3.38,3.38,0,0,1-1.33-1.37,4.69,4.69,0,0,1-.48-2.21,4.12,4.12,0,0,1,1-3,3.72,3.72,0,0,1,2.78-1,3.92,3.92,0,0,1,1.94.47,3.32,3.32,0,0,1,1.33,1.37A4.53,4.53,0,0,1,296.3,441.64Zm-5.38,0a3.37,3.37,0,0,0,.37,1.76,1.36,1.36,0,0,0,1.24.58,1.32,1.32,0,0,0,1.21-.58,3.26,3.26,0,0,0,.39-1.76,3.06,3.06,0,0,0-.39-1.72,1.57,1.57,0,0,0-2.45,0A3.16,3.16,0,0,0,290.92,441.64Zm6.66-.75a7,7,0,0,1,1-4,4.75,4.75,0,0,1,3.24-1.83c.5-.08,1-.16,1.53-.21l1.61-.2.24,1.85-1.07.13-1.14.14c-.37,0-.7.08-1,.13a4,4,0,0,0-1.18.36,1.54,1.54,0,0,0-.73.74,4.25,4.25,0,0,0-.3,1.48h.1a2.52,2.52,0,0,1,.47-.54,3,3,0,0,1,.77-.46,2.8,2.8,0,0,1,1-.18,2.87,2.87,0,0,1,2.21.86,3.54,3.54,0,0,1,.83,2.55,4.6,4.6,0,0,1-.48,2.21,3.29,3.29,0,0,1-1.35,1.34,4.19,4.19,0,0,1-2,.44,3.37,3.37,0,0,1-2.75-1.24A5.42,5.42,0,0,1,297.58,440.89Zm3.91,3.08a1.36,1.36,0,0,0,1.08-.46,2.36,2.36,0,0,0,.43-1.63,3,3,0,0,0-.31-1.47,1.09,1.09,0,0,0-1.06-.55,1.6,1.6,0,0,0-.85.23,2.61,2.61,0,0,0-.66.5,1.92,1.92,0,0,0-.37.47,5.75,5.75,0,0,0,.16,1.39,2.51,2.51,0,0,0,.52,1.1A1.37,1.37,0,0,0,301.49,444Zm4.32-6.21h2.33l1.47,4.38a4.55,4.55,0,0,1,.17.66c0,.22.06.45.08.7h.05a6.85,6.85,0,0,1,.11-.7c.06-.23.12-.45.19-.66l1.44-4.38h2.28l-3.3,8.79a3.61,3.61,0,0,1-1.29,1.81,3.24,3.24,0,0,1-2,.61,3.92,3.92,0,0,1-.63,0l-.45-.07v-1.68l.37.05a3.59,3.59,0,0,0,.47,0,1.4,1.4,0,0,0,1.06-.41,2.44,2.44,0,0,0,.58-1l.13-.39Zm11.11,2.85c0,.68.31,1,.94,1a5.1,5.1,0,0,0,1.14-.13,8.77,8.77,0,0,0,1.05-.37v-3.37h2.13v7.79h-2.13v-3.1a6.73,6.73,0,0,1-1.14.5,4.33,4.33,0,0,1-1.45.22,2.85,2.85,0,0,1-1.94-.63,2.34,2.34,0,0,1-.73-1.88v-2.9h2.13Zm10.7-3a3.48,3.48,0,0,1,2.55.93,3.43,3.43,0,0,1,.94,2.61v1h-5a2.09,2.09,0,0,0,.53,1.42,1.91,1.91,0,0,0,1.41.51,6.34,6.34,0,0,0,1.37-.14,7.34,7.34,0,0,0,1.27-.47v1.64a4.93,4.93,0,0,1-1.21.41,6.76,6.76,0,0,1-1.53.14,4.84,4.84,0,0,1-2.07-.42,3.35,3.35,0,0,1-1.41-1.33,4.41,4.41,0,0,1-.51-2.23,5.07,5.07,0,0,1,.45-2.27,3.23,3.23,0,0,1,1.3-1.36A3.88,3.88,0,0,1,327.62,437.62Zm0,1.51a1.38,1.38,0,0,0-1,.4,1.88,1.88,0,0,0-.47,1.24h3a2,2,0,0,0-.37-1.17A1.33,1.33,0,0,0,327.63,439.13Zm7.33-1.37v3h3v-3h2.13v7.79h-2.13v-3.21h-3v3.21h-2.12v-7.79Zm9.38,3.08q0,.24,0,.6c0,.24,0,.48,0,.73s0,.47,0,.66,0,.32,0,.4l3.59-5.47h2.56v7.79h-2.06v-3.11q0-.39,0-.84c0-.31,0-.61.06-.87s.05-.49.06-.63l-3.58,5.45h-2.56v-7.79h2.06Zm9.39,4.71h-2.29l2.09-3.08a2.76,2.76,0,0,1-1.07-.79,2.32,2.32,0,0,1-.45-1.51,2,2,0,0,1,.88-1.78,3.83,3.83,0,0,1,2.27-.63h3.62v7.79h-2.12v-2.9h-1.17Zm.36-5.36a.91.91,0,0,0,.39.77,1.68,1.68,0,0,0,1,.27h1.19v-2H355.2a1.11,1.11,0,0,0-.84.28A.91.91,0,0,0,354.09,440.19Z" transform="translate(-193 -31)"/><path class="cls-16" d="M473.12,309.32h-2.46l-2.37-3.85-2.37,3.85h-2.31l3.38-5.25-3.17-4.94h2.39l2.19,3.67,2.16-3.67h2.32l-3.19,5.05Zm5.45-7.93a2.59,2.59,0,0,1,2.13,1,5.9,5.9,0,0,1,0,6,2.9,2.9,0,0,1-3.5.73,3.3,3.3,0,0,1-.81-.7h-.11a6.65,6.65,0,0,1,.11,1.14v3.14h-2.12V301.53H476l.3,1h.1a3,3,0,0,1,.84-.81A2.49,2.49,0,0,1,478.57,301.39Zm-.68,1.69a1.29,1.29,0,0,0-1.17.52,3.1,3.1,0,0,0-.36,1.57v.22a3.71,3.71,0,0,0,.33,1.74,1.3,1.3,0,0,0,1.23.6,1.15,1.15,0,0,0,1.07-.6,3.58,3.58,0,0,0,.35-1.75C479.34,303.85,478.86,303.08,477.89,303.08Zm8.57-1.71a3.67,3.67,0,0,1,2.4.69,2.46,2.46,0,0,1,.84,2.06v5.2h-1.49l-.41-1.06h-.06a3.24,3.24,0,0,1-1.05.91,3.39,3.39,0,0,1-1.53.29,2.5,2.5,0,0,1-1.72-.6,2.37,2.37,0,0,1-.69-1.87,2,2,0,0,1,.87-1.82,4.93,4.93,0,0,1,2.61-.66l1.36,0v-.35a1.12,1.12,0,0,0-.33-.89,1.29,1.29,0,0,0-.89-.29,3.78,3.78,0,0,0-1.11.17,9.44,9.44,0,0,0-1.08.4l-.7-1.44a6,6,0,0,1,1.38-.51A6.55,6.55,0,0,1,486.46,301.37Zm.3,4.37a2.34,2.34,0,0,0-1.43.37,1.14,1.14,0,0,0-.4.9.8.8,0,0,0,.29.69,1.22,1.22,0,0,0,.74.2,1.77,1.77,0,0,0,1.16-.39,1.49,1.49,0,0,0,.47-1.16v-.64Zm7.24-4.21v3h3v-3h2.12v7.79H497v-3.21h-3v3.21h-2.13v-7.79Zm9.37,3.08q0,.24,0,.6c0,.24,0,.48,0,.73s0,.46,0,.65,0,.33,0,.4l3.59-5.46h2.55v7.79h-2.05v-3.11q0-.39,0-.84t.06-.87c0-.28,0-.49.05-.63l-3.58,5.45h-2.55v-7.79h2.05Zm15.19,4.71h-2.12v-6.19h-2a27.16,27.16,0,0,1-.5,3.68,4.73,4.73,0,0,1-.84,2,1.82,1.82,0,0,1-1.45.63,2.85,2.85,0,0,1-1.22-.23v-1.7a1.65,1.65,0,0,0,.69.15.62.62,0,0,0,.47-.26,2.77,2.77,0,0,0,.4-.93,12.39,12.39,0,0,0,.35-1.87c.11-.8.2-1.84.29-3.09h5.89Zm4.27-4.71c0,.16,0,.36,0,.6s0,.48,0,.73,0,.46,0,.65,0,.33,0,.4l3.59-5.46h2.56v7.79h-2.06v-3.11q0-.39,0-.84t.06-.87c0-.28,0-.49,0-.63l-3.58,5.45h-2.55v-7.79h2.05Zm19.81-3.08v6.23h1.15v4.35h-1.92v-2.79H531.05v-7.79h2.12v6.19h2.61v-6.19h2.13v6.19h2.61v-6.19Zm5.67-.14a3.22,3.22,0,0,1,3.5,3.53v1h-5a2,2,0,0,0,.52,1.41,2,2,0,0,0,1.42.52,5.81,5.81,0,0,0,1.37-.15,6.85,6.85,0,0,0,1.27-.47v1.64a5,5,0,0,1-1.22.42,7.29,7.29,0,0,1-1.52.14,4.7,4.7,0,0,1-2.07-.43,3.23,3.23,0,0,1-1.41-1.33,4.29,4.29,0,0,1-.52-2.22,4.93,4.93,0,0,1,.46-2.27,3.19,3.19,0,0,1,1.3-1.37A4,4,0,0,1,548.31,301.39Zm0,1.51a1.42,1.42,0,0,0-1,.4,1.91,1.91,0,0,0-.47,1.24h3a1.88,1.88,0,0,0-.37-1.17A1.29,1.29,0,0,0,548.33,302.9Zm11.77,6.56a3.65,3.65,0,0,1-2.7-1,4.2,4.2,0,0,1-.94-3,4.8,4.8,0,0,1,.49-2.33,3.07,3.07,0,0,1,1.34-1.33,4.51,4.51,0,0,1,2-.42,5.63,5.63,0,0,1,1.39.15,6.56,6.56,0,0,1,1,.37l-.63,1.64a9.53,9.53,0,0,0-.94-.32,2.85,2.85,0,0,0-.86-.13c-1.1,0-1.65.78-1.65,2.35a2.81,2.81,0,0,0,.43,1.73,1.46,1.46,0,0,0,1.22.55,3.64,3.64,0,0,0,1.19-.17,4.92,4.92,0,0,0,1-.5v1.81a3.47,3.47,0,0,1-1,.45A5.5,5.5,0,0,1,560.1,309.46Zm11.23-4a4.12,4.12,0,0,1-1,3,3.65,3.65,0,0,1-2.77,1.06,4,4,0,0,1-1.94-.47,3.44,3.44,0,0,1-1.33-1.37,4.71,4.71,0,0,1-.48-2.21,4.1,4.1,0,0,1,1-3,3.68,3.68,0,0,1,2.78-1,3.85,3.85,0,0,1,1.94.47,3.32,3.32,0,0,1,1.33,1.37A4.51,4.51,0,0,1,571.33,305.41Zm-5.37,0a3.33,3.33,0,0,0,.37,1.75,1.37,1.37,0,0,0,1.24.59,1.33,1.33,0,0,0,1.21-.59,3.22,3.22,0,0,0,.39-1.75,3.1,3.1,0,0,0-.39-1.73,1.58,1.58,0,0,0-2.45,0A3.2,3.2,0,0,0,566,305.41Zm6.66-.76a7.05,7.05,0,0,1,1-4,4.71,4.71,0,0,1,3.24-1.82c.5-.09,1-.16,1.52-.22l1.62-.2.24,1.86-1.07.13-1.14.14c-.37,0-.71.08-1,.13a3.75,3.75,0,0,0-1.18.35,1.57,1.57,0,0,0-.73.75,4.19,4.19,0,0,0-.3,1.48h.1a2.52,2.52,0,0,1,.47-.54,2.62,2.62,0,0,1,.77-.46,2.8,2.8,0,0,1,1-.18,2.9,2.9,0,0,1,2.21.85,3.55,3.55,0,0,1,.83,2.56,4.49,4.49,0,0,1-.49,2.21,3.26,3.26,0,0,1-1.34,1.34,4.31,4.31,0,0,1-2,.44,3.37,3.37,0,0,1-2.75-1.24A5.45,5.45,0,0,1,572.62,304.65Zm3.91,3.08a1.38,1.38,0,0,0,1.08-.45,2.38,2.38,0,0,0,.43-1.63,2.92,2.92,0,0,0-.31-1.47,1.1,1.1,0,0,0-1.06-.56,1.69,1.69,0,0,0-.85.23,2.86,2.86,0,0,0-.66.5,1.86,1.86,0,0,0-.37.47,6.39,6.39,0,0,0,.15,1.4,2.69,2.69,0,0,0,.53,1.1A1.36,1.36,0,0,0,576.53,307.73Zm5.43,1.59v-7.79h2.13v3h1a4.84,4.84,0,0,1,2.64.57,1.92,1.92,0,0,1,.85,1.72,2.26,2.26,0,0,1-.8,1.82,4.1,4.1,0,0,1-2.62.67Zm7.78,0v-7.79h2.13v7.79Zm-4.67-1.47a2,2,0,0,0,1-.23.82.82,0,0,0,.4-.76c0-.57-.48-.85-1.44-.85h-1v1.84Zm15.46-4.72H598v6.19h-2.13v-6.19H593.3v-1.6h7.23Zm3.49,1.48q0,.24,0,.6c0,.24,0,.48,0,.73s0,.46,0,.65,0,.33,0,.4l3.59-5.46H610v7.79h-2v-3.11q0-.39,0-.84t.06-.87c0-.28,0-.49.05-.63l-3.58,5.45H602v-7.79h2Zm15.68-6.43a3.11,3.11,0,0,1-.42,1.31,2.2,2.2,0,0,1-1.07.87,5,5,0,0,1-2,.31,5.22,5.22,0,0,1-2-.3,2.06,2.06,0,0,1-1-.87,3.13,3.13,0,0,1-.35-1.32h1.89a1.47,1.47,0,0,0,.4,1,1.78,1.78,0,0,0,1.07.25,1.71,1.71,0,0,0,1-.27,1.34,1.34,0,0,0,.47-1Zm-5.41,6.43q0,.24,0,.6c0,.24,0,.48,0,.73s0,.46,0,.65,0,.33,0,.4l3.6-5.46h2.55v7.79h-2v-3.11q0-.39,0-.84c0-.32,0-.61,0-.87s.05-.49.06-.63l-3.58,5.45h-2.55v-7.79h2Z" transform="translate(-193 -31)"/><path class="cls-15" d="M454.94,177.39a2.17,2.17,0,0,0-1.89.93,4.3,4.3,0,0,0-.66,2.54,4.51,4.51,0,0,0,.6,2.52,2.21,2.21,0,0,0,1.95.89,5.19,5.19,0,0,0,1.24-.15,11.57,11.57,0,0,0,1.36-.39v1.81a7.73,7.73,0,0,1-1.33.4,8.17,8.17,0,0,1-1.47.12,4.78,4.78,0,0,1-2.59-.64,3.8,3.8,0,0,1-1.5-1.82,7.31,7.31,0,0,1-.49-2.76,6.36,6.36,0,0,1,.56-2.72,4.36,4.36,0,0,1,1.61-1.86,4.92,4.92,0,0,1,2.61-.67,6.1,6.1,0,0,1,1.52.2,7.9,7.9,0,0,1,1.46.52l-.69,1.75a11.28,11.28,0,0,0-1.16-.47A3.5,3.5,0,0,0,454.94,177.39Zm8.93.6a2.56,2.56,0,0,1,2.12,1,4.64,4.64,0,0,1,.82,3,4.75,4.75,0,0,1-.84,3,2.94,2.94,0,0,1-3.5.73,3.53,3.53,0,0,1-.81-.7h-.12a5.82,5.82,0,0,1,.12,1.14v3.14h-2.13V178.13h1.73l.3,1h.1a2.86,2.86,0,0,1,.84-.82A2.46,2.46,0,0,1,463.87,178Zm-.69,1.7a1.31,1.31,0,0,0-1.17.51,3.25,3.25,0,0,0-.35,1.57V182a3.74,3.74,0,0,0,.33,1.74,1.27,1.27,0,0,0,1.22.6,1.14,1.14,0,0,0,1.07-.6,3.5,3.5,0,0,0,.36-1.76C464.64,180.45,464.15,179.69,463.18,179.69Zm8.59-1.7a3.24,3.24,0,0,1,3.49,3.54v1h-5a2.06,2.06,0,0,0,.53,1.41,1.91,1.91,0,0,0,1.41.51,6.34,6.34,0,0,0,1.37-.14,7.34,7.34,0,0,0,1.27-.47v1.64a4.55,4.55,0,0,1-1.21.41,6.76,6.76,0,0,1-1.53.14,4.84,4.84,0,0,1-2.07-.42,3.35,3.35,0,0,1-1.41-1.33,4.41,4.41,0,0,1-.51-2.23,4.89,4.89,0,0,1,.46-2.26,3.12,3.12,0,0,1,1.29-1.37A3.91,3.91,0,0,1,471.77,178Zm0,1.51a1.42,1.42,0,0,0-1,.4,1.88,1.88,0,0,0-.47,1.24h3a2,2,0,0,0-.37-1.17A1.33,1.33,0,0,0,471.78,179.5ZM484,178.13v6.24h1.14v4.35h-1.91v-2.8H478v2.8h-1.91v-4.35h.65a8.76,8.76,0,0,0,.87-1.79,13.79,13.79,0,0,0,.57-2.15c.14-.76.25-1.53.32-2.3Zm-3.72,1.6a22.09,22.09,0,0,1-.47,2.47,10,10,0,0,1-.84,2.17h2.91v-4.64Zm9.36,6.33a3.65,3.65,0,0,1-2.7-.95,4.23,4.23,0,0,1-.94-3,4.76,4.76,0,0,1,.49-2.32,3,3,0,0,1,1.34-1.33,4.38,4.38,0,0,1,2-.43,5.16,5.16,0,0,1,1.39.16,5.7,5.7,0,0,1,1,.37l-.63,1.64c-.33-.13-.65-.24-.94-.33a3.2,3.2,0,0,0-.86-.13c-1.1,0-1.65.79-1.65,2.36a2.77,2.77,0,0,0,.43,1.72,1.47,1.47,0,0,0,1.22.56,3.93,3.93,0,0,0,1.19-.17,5.49,5.49,0,0,0,1-.5v1.81a3.21,3.21,0,0,1-1,.44A5,5,0,0,1,489.63,186.06Zm10.61-6.33h-2.56v6.19h-2.12v-6.19H493v-1.6h7.24Zm4.63-1.75a3.67,3.67,0,0,1,2.4.68,2.5,2.5,0,0,1,.84,2.07v5.19h-1.49l-.41-1h-.06a2.8,2.8,0,0,1-2.58,1.19,2.59,2.59,0,0,1-1.73-.59,2.42,2.42,0,0,1-.68-1.87,2,2,0,0,1,.87-1.83,4.93,4.93,0,0,1,2.61-.66l1.36,0v-.34a1.13,1.13,0,0,0-.33-.9,1.28,1.28,0,0,0-.89-.28,3.48,3.48,0,0,0-1.11.17,6.75,6.75,0,0,0-1.08.4l-.7-1.44a6.47,6.47,0,0,1,1.38-.52A7,7,0,0,1,504.87,178Zm.3,4.36a2.34,2.34,0,0,0-1.43.37,1.15,1.15,0,0,0-.4.9.82.82,0,0,0,.29.7,1.29,1.29,0,0,0,.74.2,1.72,1.72,0,0,0,1.16-.4A1.48,1.48,0,0,0,506,183v-.64Zm15.52-4.21v6.24h1.14v4.35h-1.91v-2.8h-5.24v2.8h-1.91v-4.35h.66a8.76,8.76,0,0,0,.87-1.79,16.44,16.44,0,0,0,.57-2.15c.14-.76.24-1.53.31-2.3Zm-3.73,1.6a20,20,0,0,1-.47,2.47,10,10,0,0,1-.84,2.17h2.91v-4.64Zm13.17,6.19H528v-6.19h-2a26.93,26.93,0,0,1-.5,3.68,4.78,4.78,0,0,1-.84,2,1.82,1.82,0,0,1-1.46.62,2.85,2.85,0,0,1-1.21-.22v-1.7a1.81,1.81,0,0,0,.69.14.6.6,0,0,0,.47-.26,2.8,2.8,0,0,0,.4-.92,12.64,12.64,0,0,0,.35-1.87c.11-.81.2-1.84.29-3.1h5.89Zm3.4,0h-2.29l2.09-3.08a2.84,2.84,0,0,1-1.07-.78,2.35,2.35,0,0,1-.45-1.52,2,2,0,0,1,.88-1.78,3.83,3.83,0,0,1,2.27-.63h3.62v7.79h-2.12V183h-1.17Zm.36-5.36a.91.91,0,0,0,.39.77,1.68,1.68,0,0,0,1,.27h1.19v-2H535a1.11,1.11,0,0,0-.84.29A.87.87,0,0,0,533.89,180.56ZM548.54,178a2.58,2.58,0,0,1,2.13,1,4.7,4.7,0,0,1,.81,3,4.75,4.75,0,0,1-.84,3,2.67,2.67,0,0,1-2.16,1,2.72,2.72,0,0,1-1.34-.29,3.53,3.53,0,0,1-.81-.7h-.11a6.65,6.65,0,0,1,.11,1.14v3.14H544.2V178.13h1.73l.3,1h.1a2.86,2.86,0,0,1,.84-.82A2.46,2.46,0,0,1,548.54,178Zm-.68,1.7a1.31,1.31,0,0,0-1.17.51,3.13,3.13,0,0,0-.36,1.57V182a3.74,3.74,0,0,0,.33,1.74,1.3,1.3,0,0,0,1.23.6,1.15,1.15,0,0,0,1.07-.6,3.63,3.63,0,0,0,.35-1.76C549.31,180.45,548.83,179.69,547.86,179.69Zm8.58-1.7a3.25,3.25,0,0,1,3.5,3.54v1h-5a2,2,0,0,0,.52,1.41,2,2,0,0,0,1.42.51,6.25,6.25,0,0,0,1.36-.14,7,7,0,0,0,1.27-.47v1.64a4.55,4.55,0,0,1-1.21.41,6.72,6.72,0,0,1-1.52.14,4.84,4.84,0,0,1-2.07-.42,3.37,3.37,0,0,1-1.42-1.33,4.41,4.41,0,0,1-.51-2.23,4.89,4.89,0,0,1,.46-2.26,3.08,3.08,0,0,1,1.3-1.37A3.84,3.84,0,0,1,556.44,178Zm0,1.51a1.44,1.44,0,0,0-1,.4,1.94,1.94,0,0,0-.47,1.24h3a1.92,1.92,0,0,0-.37-1.17A1.32,1.32,0,0,0,556.46,179.5ZM567,178.13v1.6h-3.25v6.19h-2.13v-7.79Zm.32,0h2.33l1.46,4.38a3.57,3.57,0,0,1,.18.66c0,.22.06.45.08.7h0a6.78,6.78,0,0,1,.12-.7q.09-.34.18-.66l1.44-4.38h2.29l-3.3,8.79a3.62,3.62,0,0,1-1.3,1.81,3.22,3.22,0,0,1-2,.62,3.83,3.83,0,0,1-.63,0l-.45-.07v-1.68l.37.06.47,0a1.34,1.34,0,0,0,1-.41,2.46,2.46,0,0,0,.59-1l.13-.39Zm15.93,7.79h-2.12v-6.19h-2a26.93,26.93,0,0,1-.5,3.68,4.78,4.78,0,0,1-.84,2,1.81,1.81,0,0,1-1.45.62,2.86,2.86,0,0,1-1.22-.22v-1.7a1.81,1.81,0,0,0,.69.14.59.59,0,0,0,.47-.26,2.8,2.8,0,0,0,.4-.92,12.64,12.64,0,0,0,.35-1.87c.11-.81.2-1.84.29-3.1h5.89Zm3.4,0H584.4l2.09-3.08a2.84,2.84,0,0,1-1.07-.78,2.35,2.35,0,0,1-.45-1.52,2,2,0,0,1,.88-1.78,3.83,3.83,0,0,1,2.27-.63h3.62v7.79h-2.12V183h-1.17Zm.36-5.36a.91.91,0,0,0,.39.77,1.68,1.68,0,0,0,1,.27h1.19v-2h-1.46a1.11,1.11,0,0,0-.84.29A.87.87,0,0,0,587.05,180.56ZM598.3,178a2.57,2.57,0,0,1,2.13,1,4.7,4.7,0,0,1,.81,3,4.75,4.75,0,0,1-.84,3,2.92,2.92,0,0,1-3.49.73,3.39,3.39,0,0,1-.82-.7H596a6.65,6.65,0,0,1,.11,1.14v3.14H594V178.13h1.72l.3,1h.1a2.86,2.86,0,0,1,.84-.82A2.49,2.49,0,0,1,598.3,178Zm-.68,1.7a1.31,1.31,0,0,0-1.17.51,3.13,3.13,0,0,0-.36,1.57V182a3.74,3.74,0,0,0,.33,1.74,1.3,1.3,0,0,0,1.23.6,1.15,1.15,0,0,0,1.07-.6,3.63,3.63,0,0,0,.35-1.76C599.07,180.45,598.59,179.69,597.62,179.69Zm7.5-1.56v3h3v-3h2.12v7.79h-2.12v-3.21h-3v3.21H603v-7.79ZM619.51,182a4.15,4.15,0,0,1-1,3,3.68,3.68,0,0,1-2.77,1.05,3.9,3.9,0,0,1-1.94-.47,3.38,3.38,0,0,1-1.33-1.37A4.66,4.66,0,0,1,612,182a4.14,4.14,0,0,1,1-3,3.72,3.72,0,0,1,2.78-1,4,4,0,0,1,1.94.47,3.38,3.38,0,0,1,1.33,1.37A4.53,4.53,0,0,1,619.51,182Zm-5.37,0a3.37,3.37,0,0,0,.37,1.76,1.36,1.36,0,0,0,1.24.58,1.32,1.32,0,0,0,1.21-.58,3.26,3.26,0,0,0,.39-1.76,3.06,3.06,0,0,0-.39-1.72,1.57,1.57,0,0,0-2.45,0A3.16,3.16,0,0,0,614.14,182Zm12.51-3.88v1.6H623.4v6.19h-2.13v-7.79ZM635,182a4.11,4.11,0,0,1-1,3,3.66,3.66,0,0,1-2.77,1.05,3.92,3.92,0,0,1-1.94-.47,3.29,3.29,0,0,1-1.32-1.37,4.54,4.54,0,0,1-.49-2.21,4.1,4.1,0,0,1,1-3,3.7,3.7,0,0,1,2.78-1,4,4,0,0,1,1.94.47,3.35,3.35,0,0,1,1.32,1.37A4.42,4.42,0,0,1,635,182Zm-5.38,0a3.47,3.47,0,0,0,.37,1.76,1.38,1.38,0,0,0,1.24.58,1.34,1.34,0,0,0,1.22-.58,3.36,3.36,0,0,0,.38-1.76,3.15,3.15,0,0,0-.38-1.72,1.35,1.35,0,0,0-1.23-.59,1.38,1.38,0,0,0-1.23.59A3.26,3.26,0,0,0,629.64,182ZM505.32,202a4.13,4.13,0,0,1-1,3,3.68,3.68,0,0,1-2.77,1.06,4,4,0,0,1-1.94-.47,3.51,3.51,0,0,1-1.33-1.37,4.73,4.73,0,0,1-.48-2.22,4.14,4.14,0,0,1,1-3,3.72,3.72,0,0,1,2.78-1,3.92,3.92,0,0,1,1.94.47,3.38,3.38,0,0,1,1.33,1.37A4.53,4.53,0,0,1,505.32,202Zm-5.38,0a3.34,3.34,0,0,0,.37,1.76,1.36,1.36,0,0,0,1.24.58,1.32,1.32,0,0,0,1.21-.58,3.23,3.23,0,0,0,.39-1.76,3.06,3.06,0,0,0-.39-1.72,1.34,1.34,0,0,0-1.22-.59,1.35,1.35,0,0,0-1.23.59A3.16,3.16,0,0,0,499.94,202Zm6.66-.75a7.05,7.05,0,0,1,1-4,4.75,4.75,0,0,1,3.24-1.83q.75-.12,1.53-.21L514,195l.24,1.85-1.07.13-1.14.15c-.37,0-.7.08-1,.12a4.12,4.12,0,0,0-1.18.36,1.54,1.54,0,0,0-.73.74,4.31,4.31,0,0,0-.3,1.49h.1a2.55,2.55,0,0,1,.47-.55,2.74,2.74,0,0,1,.77-.45,2.61,2.61,0,0,1,1-.19,2.91,2.91,0,0,1,2.21.86,3.54,3.54,0,0,1,.83,2.55,4.58,4.58,0,0,1-.48,2.21,3.23,3.23,0,0,1-1.35,1.34,4.19,4.19,0,0,1-2,.45,3.38,3.38,0,0,1-2.75-1.25A5.4,5.4,0,0,1,506.6,201.23Zm3.91,3.08a1.36,1.36,0,0,0,1.08-.46,2.33,2.33,0,0,0,.43-1.62,2.92,2.92,0,0,0-.31-1.47,1.1,1.1,0,0,0-1.06-.56,1.69,1.69,0,0,0-.85.23,2.61,2.61,0,0,0-.66.5,2.12,2.12,0,0,0-.37.47,5.89,5.89,0,0,0,.16,1.4,2.56,2.56,0,0,0,.52,1.1A1.4,1.4,0,0,0,510.51,204.31Zm7.56-6.21v3h3v-3h2.12v7.79H521v-3.21h-3v3.21H516V198.1Zm14.4,3.88a4.13,4.13,0,0,1-1,3,3.68,3.68,0,0,1-2.77,1.06,4,4,0,0,1-1.94-.47,3.42,3.42,0,0,1-1.32-1.37,4.61,4.61,0,0,1-.49-2.22,4.14,4.14,0,0,1,1-3,3.73,3.73,0,0,1,2.78-1,3.92,3.92,0,0,1,1.94.47A3.32,3.32,0,0,1,532,199.8,4.53,4.53,0,0,1,532.47,202Zm-5.38,0a3.34,3.34,0,0,0,.37,1.76,1.38,1.38,0,0,0,1.24.58,1.31,1.31,0,0,0,1.21-.58,3.23,3.23,0,0,0,.39-1.76,3.06,3.06,0,0,0-.39-1.72,1.32,1.32,0,0,0-1.22-.59,1.36,1.36,0,0,0-1.23.59A3.16,3.16,0,0,0,527.09,202Zm14-1.84a1.56,1.56,0,0,1-.4,1.07,1.83,1.83,0,0,1-1.16.57v.06a2.22,2.22,0,0,1,1.3.56,1.51,1.51,0,0,1,.5,1.17,2.09,2.09,0,0,1-.36,1.2,2.19,2.19,0,0,1-1.09.82,5.52,5.52,0,0,1-2,.3h-3.71V198.1h3.71a6.22,6.22,0,0,1,1.63.2,2.43,2.43,0,0,1,1.14.63A1.66,1.66,0,0,1,541.13,200.14Zm-2.16.18c0-.48-.37-.72-1.12-.72h-1.5v1.54h1.25a2.27,2.27,0,0,0,1-.18A.7.7,0,0,0,539,200.32Zm.2,3.13a.69.69,0,0,0-.35-.65,2.16,2.16,0,0,0-1.07-.22h-1.4v1.84h1.44a2,2,0,0,0,1-.21A.79.79,0,0,0,539.17,203.45Zm11,2.44H548V199.7h-1.95a26.93,26.93,0,0,1-.5,3.68,4.78,4.78,0,0,1-.84,2,1.83,1.83,0,0,1-1.46.63,2.84,2.84,0,0,1-1.21-.23v-1.7a1.64,1.64,0,0,0,.69.14.62.62,0,0,0,.47-.25,2.88,2.88,0,0,0,.4-.93,12.64,12.64,0,0,0,.35-1.87c.11-.81.2-1.84.29-3.1h5.89ZM555.6,198a3.24,3.24,0,0,1,3.49,3.54v1h-5a2,2,0,0,0,.53,1.41,1.91,1.91,0,0,0,1.41.51,6.34,6.34,0,0,0,1.37-.14,6.6,6.6,0,0,0,1.27-.47v1.64a4.55,4.55,0,0,1-1.21.41,6.7,6.7,0,0,1-1.53.15,4.84,4.84,0,0,1-2.07-.43,3.35,3.35,0,0,1-1.41-1.33,4.39,4.39,0,0,1-.51-2.22,4.9,4.9,0,0,1,.46-2.27,3.12,3.12,0,0,1,1.29-1.37A3.88,3.88,0,0,1,555.6,198Zm0,1.51a1.42,1.42,0,0,0-1,.4,1.88,1.88,0,0,0-.47,1.24h3a2,2,0,0,0-.37-1.17A1.33,1.33,0,0,0,555.61,199.47Zm7.33-1.37v3h3v-3H568v7.79h-2.13v-3.21h-3v3.21h-2.12V198.1Zm9.38,3.09c0,.16,0,.36,0,.59s0,.48,0,.73,0,.47,0,.66,0,.32,0,.4l3.59-5.47h2.56v7.79h-2.06v-3.11q0-.37,0-.84t.06-.87q0-.4.06-.63l-3.58,5.45h-2.56V198.1h2.06Zm9.39,4.7h-2.29l2.09-3.08a2.84,2.84,0,0,1-1.07-.78,2.34,2.34,0,0,1-.45-1.51,2,2,0,0,1,.88-1.79,3.83,3.83,0,0,1,2.27-.63h3.62v7.79h-2.12V203h-1.17Zm.36-5.36a.91.91,0,0,0,.39.77,1.66,1.66,0,0,0,1,.27h1.19v-2h-1.46a1.11,1.11,0,0,0-.84.29A.87.87,0,0,0,582.07,200.53Z" transform="translate(-193 -31)"/><path class="cls-15" d="M471.57,70.89h1.94v4.92c0,.24,0,.5,0,.8l0,.87c0,.27,0,.52,0,.72s0,.34,0,.42h0l4.7-7.73h2.59V81.07h-1.93V76.18c0-.26,0-.54,0-.84s0-.62,0-.9,0-.53.05-.74a4.18,4.18,0,0,1,0-.43h-.06l-4.72,7.8h-2.6Zm14.74,10.32a3.61,3.61,0,0,1-2.69-.95,4.23,4.23,0,0,1-.95-3,4.87,4.87,0,0,1,.49-2.32,3,3,0,0,1,1.34-1.33,4.42,4.42,0,0,1,2-.43,5.13,5.13,0,0,1,1.38.16,5.44,5.44,0,0,1,1,.37l-.62,1.64c-.34-.13-.65-.24-.95-.33a3.13,3.13,0,0,0-.85-.13c-1.11,0-1.66.79-1.66,2.36a2.84,2.84,0,0,0,.43,1.72,1.49,1.49,0,0,0,1.23.56,3.86,3.86,0,0,0,1.18-.17,5.19,5.19,0,0,0,1-.5v1.81a3.12,3.12,0,0,1-1,.44A5,5,0,0,1,486.31,81.21Zm10.61-6.33h-2.55v6.19h-2.13V74.88h-2.55v-1.6h7.23Zm8.37,2.28a4.13,4.13,0,0,1-1,3,3.68,3.68,0,0,1-2.77,1,3.9,3.9,0,0,1-1.94-.47,3.38,3.38,0,0,1-1.33-1.37,4.66,4.66,0,0,1-.48-2.21,4.14,4.14,0,0,1,1-3,3.72,3.72,0,0,1,2.78-1,4,4,0,0,1,1.94.47A3.38,3.38,0,0,1,504.81,75,4.53,4.53,0,0,1,505.29,77.16Zm-5.37,0a3.37,3.37,0,0,0,.37,1.76,1.36,1.36,0,0,0,1.24.58,1.32,1.32,0,0,0,1.21-.58,3.26,3.26,0,0,0,.39-1.76,3.06,3.06,0,0,0-.39-1.72,1.57,1.57,0,0,0-2.45,0A3.16,3.16,0,0,0,499.92,77.16Zm8.86-1c0,.67.31,1,.94,1a4.57,4.57,0,0,0,1.14-.13,7.43,7.43,0,0,0,1.06-.37V73.28H514v7.79h-2.12V78a8.82,8.82,0,0,1-1.14.5,4.72,4.72,0,0,1-1.46.21,2.87,2.87,0,0,1-1.94-.63,2.36,2.36,0,0,1-.73-1.88v-2.9h2.13Zm9.62-2.86v3h3v-3h2.12v7.79h-2.12V77.86h-3v3.21h-2.13V73.28Zm9.37,3.08q0,.26,0,.6c0,.24,0,.48,0,.73s0,.47,0,.66,0,.32,0,.4l3.59-5.47h2.55v7.79h-2V78c0-.25,0-.54,0-.84s0-.6.06-.87,0-.48.05-.63l-3.58,5.45h-2.55V73.28h2Zm13.32-3.08h2.34L540.35,77l3.35,4h-2.41l-3.18-3.95v3.95H536V73.28h2.12v3.78Zm5.78,3.08q0,.26,0,.6c0,.24,0,.48,0,.73s0,.47,0,.66,0,.32,0,.4l3.6-5.47h2.55v7.79h-2.05V78c0-.25,0-.54,0-.84s0-.6,0-.87.05-.48.06-.63l-3.58,5.45h-2.55V73.28h2Zm18.62-3.08v6.24h1.14v4.35h-1.91v-2.8h-5.24v2.8h-1.91V79.52h.66a8.76,8.76,0,0,0,.87-1.79,13.79,13.79,0,0,0,.57-2.15,22.28,22.28,0,0,0,.31-2.3Zm-3.72,1.6a22.06,22.06,0,0,1-.48,2.47,10,10,0,0,1-.84,2.17h2.91V74.88Zm9.38-1.75a3.65,3.65,0,0,1,2.4.68,2.5,2.5,0,0,1,.84,2.07v5.19h-1.48l-.42-1h0a3.51,3.51,0,0,1-1.06.91,3.4,3.4,0,0,1-1.53.28,2.55,2.55,0,0,1-1.72-.59,2.39,2.39,0,0,1-.69-1.87,2,2,0,0,1,.87-1.83,4.93,4.93,0,0,1,2.61-.66l1.36,0v-.34A1.13,1.13,0,0,0,572,75a1.26,1.26,0,0,0-.88-.28,3.58,3.58,0,0,0-1.12.17,6.75,6.75,0,0,0-1.08.4l-.7-1.44a6.47,6.47,0,0,1,1.38-.52A7.07,7.07,0,0,1,571.15,73.13Zm.3,4.36a2.31,2.31,0,0,0-1.42.37,1.12,1.12,0,0,0-.4.9.82.82,0,0,0,.28.7,1.29,1.29,0,0,0,.74.2,1.72,1.72,0,0,0,1.16-.4,1.48,1.48,0,0,0,.47-1.16v-.64Zm7.24-4.21v3h3v-3h2.12v7.79h-2.12V77.86h-3v3.21h-2.12V73.28Zm9.45,0v3h3v-3h2.13v7.79H591.1V77.86h-3v3.21H586V73.28Zm7.32,7.79V73.28h2.12v3h1a4.84,4.84,0,0,1,2.64.57,1.94,1.94,0,0,1,.85,1.73,2.27,2.27,0,0,1-.79,1.81,4.09,4.09,0,0,1-2.63.67Zm7.77,0V73.28h2.13v7.79Zm-4.66-1.47a1.91,1.91,0,0,0,1-.23.79.79,0,0,0,.4-.75c0-.57-.48-.86-1.44-.86h-1V79.6Zm10.6-2.51-2.51-3.81h2.41l1.52,2.49,1.52-2.49h2.41L612,77.09l2.66,4h-2.41l-1.64-2.67L609,81.07h-2.41Z" transform="translate(-193 -31)"/></svg>