<svg id="Слой_1" data-name="Слой 1" xmlns="http://www.w3.org/2000/svg" xmlns:xlink="http://www.w3.org/1999/xlink" viewBox="0 0 52.67 63"><defs><style>.cls-1{fill:none;}.cls-2{clip-path:url(#clip-path);}.cls-3{fill:#426ab3;}</style><clipPath id="clip-path" transform="translate(-656.31 -352)"><rect class="cls-1" x="651" y="352" width="63" height="63"/></clipPath></defs><title>solution-our-sp-5</title><g class="cls-2"><path class="cls-3" d="M694.62,406.28v0a12.57,12.57,0,0,0-4-13.58v-9.76h1.15a1.14,1.14,0,0,0,.69-2.06L683.32,374a1.16,1.16,0,0,0-1.37,0l-9.17,6.88a1.15,1.15,0,0,0,.69,2.06h1.15v9.76a12.6,12.6,0,1,0,20,13.61Zm-10.84-8.48a1.14,1.14,0,0,1,1.15-1.14h6.27a10.24,10.24,0,0,1,1.15,2.29h-7.42A1.15,1.15,0,0,1,683.78,397.8Zm-.57,3.44h9.67a9.89,9.89,0,0,1-.2,3.43h-9.47a1.72,1.72,0,1,1,0-3.43Zm-.57-24.92,5.72,4.3H676.91Zm-5.73,6.59h11.45v8.26a13.28,13.28,0,0,0-2.29-.9v-3.92a1.14,1.14,0,0,0-1.14-1.15h-4.58a1.14,1.14,0,0,0-1.15,1.15v3.92a13.28,13.28,0,0,0-2.29.9Zm-4.58,19.47a10.88,10.88,0,0,1,.06-1.14h1.08a1.15,1.15,0,1,1,0,2.29h-1.08A10.93,10.93,0,0,1,672.33,402.38Zm5.61,9.17h2.12a1.41,1.41,0,0,1,1.36,1.06A10.12,10.12,0,0,1,677.94,411.55Zm5.81,1.08a3.7,3.7,0,0,0-3.69-3.37H675a10.26,10.26,0,0,1-2-3.44h.54a3.44,3.44,0,1,0,0-6.87h-.54a10.28,10.28,0,0,1,16.17-4.59h-4.17a3.44,3.44,0,0,0-3.44,3.44,3.49,3.49,0,0,0,.31,1.42,4,4,0,0,0,1.41,7.75h8.65a10.33,10.33,0,0,1-8.11,5.66Z" transform="translate(-656.31 -352)"/><path class="cls-3" d="M681.42,371.52h2.16c.29,0,.53-.52.53-1.15v-9.2h1.08c.21,0,.4-.25.49-.66a2.18,2.18,0,0,0-.08-1.22l-2.69-6.9c-.1-.25-.25-.39-.41-.39s-.31.14-.41.39l-2.69,6.9a2.18,2.18,0,0,0-.08,1.22c.09.41.28.66.49.66h1.08v9.2C680.89,371,681.13,371.52,681.42,371.52Z" transform="translate(-656.31 -352)"/><path class="cls-3" d="M709,372.87c0-.14-.17-.26-.44-.35l-7-2.2a2.77,2.77,0,0,0-1.22-.05c-.4.08-.65.24-.65.42l.05.9-4.59,0a2.33,2.33,0,0,0-.79.13L688.65,374c-.22.09-.34.2-.34.32s.12.24.34.32l3.44,1.36a2.67,2.67,0,0,0,1.63,0L698,374.3h1.89l0,.91c0,.18.27.33.68.41a2.6,2.6,0,0,0,1.22-.08l6.77-2.31C708.84,373.13,709,373,709,372.87Z" transform="translate(-656.31 -352)"/><path class="cls-3" d="M672.38,376a2.14,2.14,0,0,0,.81-.14l3.45-1.39c.21-.08.34-.2.34-.33s-.13-.24-.34-.32l-5.7-2.28a2.53,2.53,0,0,0-.78-.14l-4.59,0,0-.92c0-.18-.25-.34-.64-.42a2.67,2.67,0,0,0-1.23.05l-7,2.25c-.27.09-.43.22-.44.36s.14.26.39.36l6.77,2.37a2.73,2.73,0,0,0,1.22.07c.41-.07.67-.23.68-.41l0-.93h1.89l4.26,1.71A2.18,2.18,0,0,0,672.38,376Z" transform="translate(-656.31 -352)"/><circle class="cls-3" cx="26.05" cy="17.15" r="3.8"/><circle class="cls-3" cx="35.23" cy="21.74" r="3.8"/><circle class="cls-3" cx="17.29" cy="21.74" r="3.8"/></g></svg>