<svg id="Слой_1" data-name="Слой 1" xmlns="http://www.w3.org/2000/svg" xmlns:xlink="http://www.w3.org/1999/xlink" viewBox="0 0 59 45.23"><defs><style>.cls-1{fill:none;}.cls-2{clip-path:url(#clip-path);}.cls-3{fill:#426ab3;}</style><clipPath id="clip-path" transform="translate(-653 -358.43)"><rect class="cls-1" x="653" y="354" width="59" height="59"/></clipPath></defs><title>solution-our-sp-4</title><g class="cls-2"><path class="cls-3" d="M711,385h-2.95v-5.9h2a1,1,0,0,0,1-.82l1-5.9a1,1,0,0,0-.22-.79,1,1,0,0,0-.75-.35h-2.95v-3.93a1,1,0,0,0-1-1h-2v-2a1,1,0,1,0-2,0v2h-2a1,1,0,0,0-1,1v3.93h-3a1,1,0,0,0-.75.35,1,1,0,0,0-.22.79l1,5.9a1,1,0,0,0,1,.82h2v12.56l-.61,1.21h-1.36V382a1,1,0,0,0-1-1H669.72a1,1,0,0,0-1,1v10.55l-1.92-1.5a1,1,0,0,0-.6-.2H664.8V372.19h15.73v4.43a2.46,2.46,0,0,0,4.92,0v-1.48a1,1,0,0,0-2,0v1.48a.49.49,0,1,1-1,0v-4.43h1a1,1,0,0,0,1-1v-3.93a1,1,0,0,0-1-1l-23.6-1a1,1,0,0,0-.72.27,1,1,0,0,0-.3.71v24.59H654a1,1,0,0,0-.84.48,1,1,0,0,0,0,1l5.9,10.82a1,1,0,0,0,.86.51h49.17a1,1,0,0,0,1-.81L712,392V392a.24.24,0,0,0,0-.09V386A1,1,0,0,0,711,385Zm-1,2v3.94h-2v-3.94Zm-7.86,2h3.93v2h-3.93Zm0-20.65h3.93v2.95h-3.93Zm-3.76,4.92h11.45l-.66,3.93H699.07Zm7.69,5.89v7.87h-3.93v-7.87Zm-35.4,9.84h11.77l0,3.93H670.7Zm13.76,3.93,0-3.93h11.84v3.93Zm11.81-5.9H684.42l0-3.93h11.87ZM682.43,383l0,3.93H670.7V383Zm-16.56,9.83,2.26,1.76a.93.93,0,0,0,.6.21H700.2a1,1,0,0,0,.88-.55l.71-1.42h8.05l-.72,4h-51.2l-.12,0-2.16-4Zm-5.4,8.85-1.61-2.95h49.91l-.54,2.95Z" transform="translate(-653 -358.43)"/><circle class="cls-3" cx="51.07" cy="3.26" r="3.26"/></g></svg>