<svg id="Слой_1" data-name="Слой 1" xmlns="http://www.w3.org/2000/svg" xmlns:xlink="http://www.w3.org/1999/xlink" viewBox="0 0 52.31 52.31"><defs><style>.cls-1{fill:url(#Новый_образец_градиентной_залив);}.cls-2{fill:url(#Новый_образец_градиентной_залив-2);}.cls-3{fill:url(#Новый_образец_градиентной_залив-3);}</style><linearGradient id="Новый_образец_градиентной_залив" x1="697.34" y1="402.88" x2="702.41" y2="402.88" gradientTransform="matrix(1, 0, 0, -1, 0, 770)" gradientUnits="userSpaceOnUse"><stop offset="0" stop-color="#f7bb62"/><stop offset="0.5" stop-color="#f47920"/><stop offset="1" stop-color="#e56102"/></linearGradient><linearGradient id="Новый_образец_градиентной_залив-2" x1="669.5" y1="399.5" x2="674.56" y2="399.5" xlink:href="#Новый_образец_градиентной_залив"/><linearGradient id="Новый_образец_градиентной_залив-3" x1="656.84" y1="386" x2="709.16" y2="386" xlink:href="#Новый_образец_градиентной_залив"/></defs><title>solution-4-new</title><path class="cls-1" d="M700.72,373v-1.81a2.4,2.4,0,0,0,.35-4.44l-1.64-.82a.71.71,0,0,1-.4-.65.73.73,0,0,1,.72-.72H700a.73.73,0,0,1,.72.72v1h1.69v-1a2.41,2.41,0,0,0-1.69-2.28v-1.81H699V363a2.4,2.4,0,0,0-.35,4.44l1.64.82a.71.71,0,0,1,.4.65.73.73,0,0,1-.72.72h-.25a.73.73,0,0,1-.72-.72v-1h-1.69v1a2.41,2.41,0,0,0,1.69,2.28V373Z" transform="translate(-656.84 -357.84)"/><path class="cls-2" d="M672.88,366.4v-1.81h-1.69v1.81a2.4,2.4,0,0,0-.36,4.44l1.65.83a.72.72,0,0,1-.33,1.36h-.24a.72.72,0,0,1-.72-.72v-1H669.5v1a2.4,2.4,0,0,0,1.69,2.29v1.81h1.69V374.6a2.4,2.4,0,0,0,.35-4.44l-1.64-.83a.71.71,0,0,1-.4-.64.72.72,0,0,1,.72-.72h.24a.73.73,0,0,1,.73.72v1h1.68v-1A2.4,2.4,0,0,0,672.88,366.4Z" transform="translate(-656.84 -357.84)"/><path class="cls-3" d="M705.16,374.74a9.29,9.29,0,1,0-12.61-1.93L689,376.1a3.32,3.32,0,0,0-4.25.52l-4.26-2.37a9.4,9.4,0,0,0,.79-3.75,9.28,9.28,0,1,0-15.76,6.63L663,380.28a4.08,4.08,0,0,0-1.94-.5,4.22,4.22,0,1,0,4.22,4.22,4.17,4.17,0,0,0-1-2.66l2.55-3.14a9.27,9.27,0,0,0,12.84-2.48l4.26,2.37a3.42,3.42,0,0,0-.12.85,3.38,3.38,0,0,0,6.75,0,3.32,3.32,0,0,0-.42-1.6l3.53-3.3a8.56,8.56,0,0,0,.89.7,2.53,2.53,0,0,0-2.31,2.51v1.69a2.55,2.55,0,0,0,.66,1.69,2.45,2.45,0,0,0-.66,1.68V384a2.55,2.55,0,0,0,.66,1.69,2.48,2.48,0,0,0-.66,1.69v1.68a2.55,2.55,0,0,0,.66,1.69,2.5,2.5,0,0,0-.66,1.69v1.69a2.48,2.48,0,0,1,0,3.37v.84h-4.22a2.6,2.6,0,0,0-1.11.27,2.43,2.43,0,0,0,.27-1.11v-1.69a2.48,2.48,0,0,1,0-3.37v-1.69a2.53,2.53,0,0,0-2.53-2.53H674.56a2.53,2.53,0,0,0-2.53,2.53v1.69a.67.67,0,1,1-.84.84H661.06a2.54,2.54,0,0,0-2.53,2.53v1.69a2.49,2.49,0,0,1,0,3.38v1.68a2.49,2.49,0,0,1,0,3.38v1.69a2.54,2.54,0,0,0,2.53,2.53h10.13a2.55,2.55,0,0,0,1.69-.66,2.5,2.5,0,0,0,1.68.66h10.13a2.55,2.55,0,0,0,1.69-.66,2.5,2.5,0,0,0,1.68.66h10.13a2.54,2.54,0,0,0,2.53-2.53v-.85h4.22a2.53,2.53,0,0,0,2.53-2.53v-1.69a2.48,2.48,0,0,1,0-3.37V397.5a2.55,2.55,0,0,0-.66-1.69,2.47,2.47,0,0,0,.66-1.68v-1.69a2.55,2.55,0,0,0-.66-1.69,2.5,2.5,0,0,0,.66-1.69v-1.68a2.53,2.53,0,0,0-.66-1.69,2.5,2.5,0,0,0,.66-1.69v-1.69a2.48,2.48,0,0,1,0-3.37v-1.69A2.53,2.53,0,0,0,705.16,374.74ZM672,378.09a7.59,7.59,0,1,1,7.6-7.59A7.59,7.59,0,0,1,672,378.09Zm20.25-11a7.6,7.6,0,1,1,7.6,7.59A7.61,7.61,0,0,1,692.28,367.13ZM694,377.25a.85.85,0,0,1,.84-.84h.85v1.68h1.68v-1.68H699v1.68h1.69v-1.68h1.69v1.68h1.68v-1.68h.85a.85.85,0,0,1,.84.84v1.69a.85.85,0,0,1-.84.84H694.81a.85.85,0,0,1-.84-.84Zm11.81,5.06V384a.85.85,0,0,1-.84.84H694.81A.85.85,0,0,1,694,384v-1.69a.85.85,0,0,1,.84-.84h.85v1.69h1.68v-1.69H699v1.69h1.69v-1.69h1.69v1.69h1.68v-1.69h.85A.85.85,0,0,1,705.78,382.31Zm0,5.07v1.68a.85.85,0,0,1-.84.85H694.81a.85.85,0,0,1-.84-.85v-1.68a.85.85,0,0,1,.84-.85h.85v1.69h1.68v-1.69H699v1.69h1.69v-1.69h1.69v1.69h1.68v-1.69h.85A.85.85,0,0,1,705.78,387.38Zm0,5.06v1.69a.85.85,0,0,1-.84.84H694.81a.85.85,0,0,1-.84-.84v-1.69a.85.85,0,0,1,.84-.85h.85v1.69h1.68v-1.69H699v1.69h1.69v-1.69h1.69v1.69h1.68v-1.69h.85A.85.85,0,0,1,705.78,392.44Zm0,5.06v1.69a.85.85,0,0,1-.84.84h-4.38a2.52,2.52,0,0,0-2.37-1.69h-.85v-1.68H699v1.68h1.69v-1.68h1.69v1.68h1.68v-1.68h.85A.85.85,0,0,1,705.78,397.5Zm-11.81,0a.85.85,0,0,1,.84-.84h.85v1.68H694ZM688.06,400h.85v1.69h1.68V400h1.69v1.69H694V400h1.69v1.69h1.68V400h.85a.85.85,0,0,1,.84.85v1.68a.85.85,0,0,1-.84.85H688.06a.85.85,0,0,1-.84-.85v-1.68A.85.85,0,0,1,688.06,400Zm-13.5,3.38a.85.85,0,0,1-.84-.85v-1.68a.85.85,0,0,1,.84-.85h.85v1.69h1.68V400h1.69v1.69h1.69V400h1.69v1.69h1.68V400h.85a.85.85,0,0,1,.84.85v1.68a.85.85,0,0,1-.84.85Zm-13.5,0a.85.85,0,0,1-.84-.85v-1.68a.85.85,0,0,1,.84-.85h.85v1.69h1.68V400h1.69v1.69H667V400h1.69v1.69h1.68V400h.85a.85.85,0,0,1,.84.85v1.68a.85.85,0,0,1-.84.85Zm16-6.75V395h1.69v1.69h1.69V395h1.69v1.69h1.68V395h.85a.85.85,0,0,1,.84.84v1.69a.85.85,0,0,1-.84.84H674.56a.85.85,0,0,1-.84-.84v-1.69a.85.85,0,0,1,.84-.84h.85v1.69Zm-3.37-5.91a.85.85,0,0,1,.84-.84h.85v1.68h1.68v-1.68h1.69v1.68h1.69v-1.68h1.69v1.68h1.68v-1.68h.85a.85.85,0,0,1,.84.84v1.69a.85.85,0,0,1-.84.84H674.56a.85.85,0,0,1-.84-.84Zm-13.5,5.06a.85.85,0,0,1,.84-.84h.85v1.69h1.68V395h1.69v1.69H667V395h1.69v1.69h1.68V395h.85a.85.85,0,0,1,.84.84v1.69a.85.85,0,0,1-.84.84H661.06a.85.85,0,0,1-.84-.84Zm11,12.66H661.06a.85.85,0,0,1-.84-.84v-1.69a.85.85,0,0,1,.84-.85h.85v1.69h1.68v-1.69h1.69v1.69H667v-1.69h1.69v1.69h1.68v-1.69h.85a.85.85,0,0,1,.84.85v1.69A.85.85,0,0,1,671.19,408.47Zm13.5,0H674.56a.85.85,0,0,1-.84-.84v-1.69a.85.85,0,0,1,.84-.85h.85v1.69h1.68v-1.69h1.69v1.69h1.69v-1.69h1.69v1.69h1.68v-1.69h.85a.85.85,0,0,1,.84.85v1.69A.85.85,0,0,1,684.69,408.47Zm14.34-.84a.85.85,0,0,1-.84.84H688.06a.85.85,0,0,1-.84-.84v-1.69a.85.85,0,0,1,.84-.85h.85v1.69h1.68v-1.69h1.69v1.69H694v-1.69h1.69v1.69h1.68v-1.69h.85a.85.85,0,0,1,.84.85Zm6.75-3.38a.85.85,0,0,1-.84.84h-4.38a2.47,2.47,0,0,0-.5-.84,2.5,2.5,0,0,0,.66-1.69v-.84h1.69v1.69h1.68v-1.69h.85a.85.85,0,0,1,.84.84Z" transform="translate(-656.84 -357.84)"/></svg>