<svg id="Слой_1" data-name="Слой 1" xmlns="http://www.w3.org/2000/svg" xmlns:xlink="http://www.w3.org/1999/xlink" viewBox="0 0 57.19 61"><defs><style>.cls-1{fill:url(#Безымянный_градиент_3);}.cls-2{fill:url(#Безымянный_градиент_3-2);}.cls-3{fill:url(#Безымянный_градиент_3-3);}</style><linearGradient id="Безымянный_градиент_3" x1="654.81" y1="373.89" x2="737.1" y2="414.91" gradientTransform="matrix(1, 0, 0, -1, 0, 770)" gradientUnits="userSpaceOnUse"><stop offset="0" stop-color="#4b79ce"/><stop offset="0.41" stop-color="#426ab3"/><stop offset="1" stop-color="#2b4a81"/></linearGradient><linearGradient id="Безымянный_градиент_3-2" x1="665.41" y1="388.89" x2="668.08" y2="390.31" xlink:href="#Безымянный_градиент_3"/><linearGradient id="Безымянный_градиент_3-3" x1="669.23" y1="388.89" x2="671.9" y2="390.31" xlink:href="#Безымянный_градиент_3"/></defs><title>solution-adv-2</title><path class="cls-1" d="M711.09,367.3a4.77,4.77,0,0,0-3.81-4.67v-5.82a1,1,0,0,0-.95-.95H692V354a1,1,0,0,0-.95-.95H673.92a1,1,0,0,0-.95.95v1.91H666.3a1,1,0,0,0-1,.95v9.53h-6.67a1,1,0,0,0-.95,1V376a4.77,4.77,0,0,0,0,9.34V394a1,1,0,0,0,.95,1H673v1.9a1,1,0,0,0,.95,1h7.63v2.93a6.67,6.67,0,1,0,7.55,7.55h10.56a1,1,0,0,0,1-.95V381.59h5.72a.94.94,0,0,0,.95-.95V372A4.78,4.78,0,0,0,711.09,367.3Zm-36.21-12.39h15.25v3.81H674.88Zm-7.63,2.86H673v1.9a1,1,0,0,0,.95,1h7.63v2.85h-7.63a1,1,0,0,0-.95,1v1.9h-5.72ZM682.5,386l-5.39-5.39,5.39-5.39,5.39,5.39Zm-7.62-16.83v-3.81h15.25v3.81ZM673,391.13V393H659.63v-7.72a4.77,4.77,0,0,0,0-9.34v-7.72H673v1.91a1,1,0,0,0,.95.95h7.63v2.4l-6.18,6.18H673v1.9h2.4l6.18,6.18v2.4h-7.63A1,1,0,0,0,673,391.13Zm1.91.95h15.25v3.81H674.88Zm23.82,14.3h-9.6a6.68,6.68,0,0,0-5.65-5.65V397.8h7.63a1,1,0,0,0,.95-1v-5.71a1,1,0,0,0-.95-1h-7.63v-2.4l6.18-6.18h9.07Zm-9.07-26.69-6.18-6.18v-2.4h7.63a1,1,0,0,0,.95-.95v-5.72a1,1,0,0,0-.95-1h-7.63v-2.85h7.63a1,1,0,0,0,.95-1v-1.9h13.35v4.86a4.76,4.76,0,0,0,0,9.34v7.72Z" transform="translate(-653.91 -353)"/><path class="cls-2" d="M665.34,379.69h1.91v1.9h-1.91Z" transform="translate(-653.91 -353)"/><path class="cls-3" d="M669.16,379.69h1.9v1.9h-1.9Z" transform="translate(-653.91 -353)"/></svg>