<svg id="Слой_1" data-name="Слой 1" xmlns="http://www.w3.org/2000/svg" xmlns:xlink="http://www.w3.org/1999/xlink" viewBox="0 0 58 58"><defs><style>.cls-1{fill:url(#Новый_образец_градиентной_зал_3);}.cls-2{fill:url(#Новый_образец_градиентной_зал_3-2);}</style><linearGradient id="Новый_образец_градиентной_зал_3" x1="675.36" y1="383.3" x2="688.64" y2="383.3" gradientUnits="userSpaceOnUse"><stop offset="0" stop-color="#f7bb62"/><stop offset="0.5" stop-color="#f47920"/><stop offset="1" stop-color="#e56102"/></linearGradient><linearGradient id="Новый_образец_градиентной_зал_3-2" x1="653" y1="384" x2="711" y2="384" xlink:href="#Новый_образец_градиентной_зал_3"/></defs><title>solution-page-1</title><path class="cls-1" d="M684.2,384.16a4.7,4.7,0,0,0,2.4-5.3,4.7,4.7,0,0,0-1.67-2.59,4.79,4.79,0,0,0-5.86,0,4.7,4.7,0,0,0-1.67,2.59,4.7,4.7,0,0,0,2.4,5.3,6.62,6.62,0,0,0-3.21,2.42,6.53,6.53,0,0,0-1.23,3.81,1,1,0,0,0,.95.95h11.38a1,1,0,0,0,.95-.95,6.53,6.53,0,0,0-1.23-3.81A6.62,6.62,0,0,0,684.2,384.16Zm-2.2-7a2.88,2.88,0,0,1,1.58.48,2.81,2.81,0,0,1,1.21,2.9A2.79,2.79,0,0,1,684,382a2.82,2.82,0,0,1-1.46.78,2.88,2.88,0,0,1-1.64-.16,3,3,0,0,1-1.28-1,2.88,2.88,0,0,1-.48-1.58,2.8,2.8,0,0,1,.84-2A2.85,2.85,0,0,1,682,377.18Zm-4.65,12.27a4.67,4.67,0,0,1,1.65-2.71,4.74,4.74,0,0,1,6,0,4.67,4.67,0,0,1,1.65,2.71Z" transform="translate(-653 -355)"/><path class="cls-2" d="M701.65,394.31a9.27,9.27,0,0,0-5.91,2.11l-4.5-4.5a12.16,12.16,0,0,0,2.91-7.41l9.54-.36a3.71,3.71,0,0,0,7.26-1.26,3.71,3.71,0,0,0-7.34-.61l-9.52.36a12.2,12.2,0,0,0-1.74-5,12.07,12.07,0,0,0-3.68-3.78l1.79-3.25a5.61,5.61,0,1,0-1.64-.9L687,373a12,12,0,0,0-12.91,1.84l-4.5-4.51a9.38,9.38,0,1,0-1.33,1.33l4.5,4.5a12,12,0,0,0-2.71,10.14l-8.22,2.22a4.63,4.63,0,0,0-8.22,0,4.59,4.59,0,0,0-.4,3.27,4.64,4.64,0,0,0,1.87,2.71,4.58,4.58,0,0,0,3.21.78,4.63,4.63,0,0,0,4.06-4.63,2.4,2.4,0,0,0,0-.28l8.22-2.22a12.13,12.13,0,0,0,5.2,6.36l-2,3.95a6.57,6.57,0,0,0-8.24,8.5A6.57,6.57,0,0,0,677.34,408a6.56,6.56,0,0,0-1.88-8.74l2-4a12.07,12.07,0,0,0,12.48-2l4.5,4.5a9.37,9.37,0,1,0,7.24-3.43ZM654.9,364.38a7.45,7.45,0,0,1,3.24-6.18,7.48,7.48,0,0,1,9.87,1.24,7.56,7.56,0,0,1,1.65,3.19,7.52,7.52,0,0,1-1.74,6.76,1,1,0,0,0,.07-.33,5.64,5.64,0,0,0-.42-2.15,5.76,5.76,0,0,0-1.22-1.82,6.13,6.13,0,0,0-1.26-.95,3.74,3.74,0,0,0-.65-5.7,3.75,3.75,0,0,0-2.06-.62,3.8,3.8,0,0,0-2.06.62,3.68,3.68,0,0,0-1.37,1.65,3.74,3.74,0,0,0-.25,2.14,3.7,3.7,0,0,0,1,1.91,5.6,5.6,0,0,0-2.91,4.92,1,1,0,0,0,.06.33A7.48,7.48,0,0,1,654.9,364.38Zm7.48-.93a1.85,1.85,0,0,1-1-.32,1.78,1.78,0,0,1-.69-.84,1.81,1.81,0,0,1-.1-1.08,1.9,1.9,0,0,1,1.46-1.47,1.89,1.89,0,0,1,1.08.11,1.78,1.78,0,0,1,.84.69,1.85,1.85,0,0,1,.32,1,1.88,1.88,0,0,1-1.87,1.87Zm0,1.87a3.73,3.73,0,0,1,3.62,2.8h-7.24a3.73,3.73,0,0,1,3.62-2.8Zm-5,4.61a.87.87,0,0,0,.32.06h9.35a1,1,0,0,0,.34-.06,7.45,7.45,0,0,1-10,0ZM671.73,384a10.31,10.31,0,1,1,3,7.27A10.28,10.28,0,0,1,671.73,384Zm24.92,25.18a.88.88,0,0,0,.33.07h9.35a1,1,0,0,0,.33-.07,7.43,7.43,0,0,1-10,0Zm5-6.48a1.92,1.92,0,0,1-1-.31,1.88,1.88,0,0,1-.69-.84,1.82,1.82,0,0,1-.1-1.08,1.87,1.87,0,0,1,.51-1,1.84,1.84,0,0,1,1-.51,1.91,1.91,0,0,1,1.08.1,2,2,0,0,1,.84.69,1.89,1.89,0,0,1-.24,2.37A1.85,1.85,0,0,1,701.65,402.72Zm0,1.87a3.75,3.75,0,0,1,3.62,2.81H698a3.8,3.8,0,0,1,1.33-2A3.74,3.74,0,0,1,701.65,404.59Zm5.54,4.07a.88.88,0,0,0,.07-.33,5.63,5.63,0,0,0-.42-2.14,5.5,5.5,0,0,0-1.22-1.82,5.28,5.28,0,0,0-1.26-.95,3.71,3.71,0,0,0,.73-4.05,3.62,3.62,0,0,0-1.37-1.65,3.72,3.72,0,0,0-2.06-.62,3.75,3.75,0,0,0-3.69,4.4,3.8,3.8,0,0,0,1,1.92,5.55,5.55,0,0,0-2.13,2.06,5.6,5.6,0,0,0-.78,2.85.72.72,0,0,0,.07.33,7.44,7.44,0,0,1-1.3-8.05,7.48,7.48,0,1,1,12.38,8.05Z" transform="translate(-653 -355)"/></svg>