<svg id="Слой_1" data-name="Слой 1" xmlns="http://www.w3.org/2000/svg" xmlns:xlink="http://www.w3.org/1999/xlink" viewBox="0 0 61 61"><defs><style>.cls-1{fill:url(#Безымянный_градиент_2);}</style><linearGradient id="Безымянный_градиент_2" x1="655.43" y1="369.24" x2="740.86" y2="414.68" gradientTransform="matrix(1, 0, 0, -1, 0, 770)" gradientUnits="userSpaceOnUse"><stop offset="0" stop-color="#4b79ce"/><stop offset="0.41" stop-color="#426ab3"/><stop offset="1" stop-color="#2b4a81"/></linearGradient></defs><title>solution-adv-3</title><path class="cls-1" d="M706.11,368.74a6.81,6.81,0,0,0-3.6,1L689,362.06a6.76,6.76,0,0,0,.36-2.17,6.89,6.89,0,0,0-13.75-.63l-12.34,6.17a6.89,6.89,0,1,0-4.41,12.17,6.77,6.77,0,0,0,3-.71l10.79,7.88a9.82,9.82,0,0,0,4.54,7.77l-4.64,1.69a8.89,8.89,0,0,0-5.83,8.32V414h31.48V402.55a8.89,8.89,0,0,0-5.83-8.32l-4.64-1.69a9.81,9.81,0,0,0,4.57-8.29v-1.73a9.84,9.84,0,0,0-19.67-.2l-9.06-6.61a6.86,6.86,0,0,0,1-8.75l11.13-5.57a6.88,6.88,0,0,0,12.36,2.43l12.78,7.3a6.88,6.88,0,1,0,5.19-2.38ZM680.39,412a4.07,4.07,0,0,0,.14-1,3.64,3.64,0,0,0-.14-1h4.22a3.64,3.64,0,0,0-.14,1,4.07,4.07,0,0,0,.14,1Zm-1.22-3.93a3.86,3.86,0,0,0-2.57-1h-2v-5.9a1,1,0,0,1,1-1h13.78a1,1,0,0,1,1,1v5.9h-2a3.86,3.86,0,0,0-2.57,1Zm12.57-12a6.91,6.91,0,0,1,4.53,6.47V412H686.7a1.94,1.94,0,0,1-.26-1,2,2,0,0,1,2-2h5.91v-2h-2v-5.9a3,3,0,0,0-3-2.95H675.61a3,3,0,0,0-3,2.95v5.9h-2v2h5.91a2,2,0,0,1,2,2,1.94,1.94,0,0,1-.26,1h-9.57v-9.48a6.91,6.91,0,0,1,4.53-6.47l4.51-1.64a4.91,4.91,0,0,0,9.46,0Zm-12.14-2.43a9.78,9.78,0,0,0,5.8,0,2.95,2.95,0,0,1-5.8,0Zm-5-11.13a7.87,7.87,0,0,1,15.74,0v1.73a7.87,7.87,0,0,1-15.74,0Z" transform="translate(-652 -353)"/></svg>