<svg id="Слой_1" data-name="Слой 1" xmlns="http://www.w3.org/2000/svg" xmlns:xlink="http://www.w3.org/1999/xlink" viewBox="0 0 55 31.62"><defs><style>.cls-1{fill:none;}.cls-2{clip-path:url(#clip-path);}.cls-3{fill:url(#Безымянный_градиент_11);}.cls-4{fill:url(#Безымянный_градиент_11-2);}.cls-5{fill:url(#Безымянный_градиент_11-3);}.cls-6{fill:url(#Безымянный_градиент_11-4);}.cls-7{fill:url(#Безымянный_градиент_11-5);}.cls-8{fill:url(#Безымянный_градиент_11-6);}.cls-9{fill:url(#Безымянный_градиент_11-7);}.cls-10{fill:url(#Безымянный_градиент_11-8);}.cls-11{fill:url(#Безымянный_градиент_11-9);}.cls-12{fill:url(#Безымянный_градиент_11-10);}.cls-13{fill:url(#Безымянный_градиент_11-11);}</style><clipPath id="clip-path" transform="translate(-655 -367.93)"><rect class="cls-1" x="655" y="356" width="55" height="55.53"/></clipPath><linearGradient id="Безымянный_градиент_11" x1="677.81" y1="393.38" x2="691.93" y2="398.33" gradientTransform="matrix(1, 0, 0, -1, 0, 770)" gradientUnits="userSpaceOnUse"><stop offset="0" stop-color="#4b79ce"/><stop offset="0.41" stop-color="#426ab3"/><stop offset="1" stop-color="#2b4a81"/></linearGradient><linearGradient id="Безымянный_градиент_11-2" x1="655.08" y1="392.96" x2="669.88" y2="398.5" xlink:href="#Безымянный_градиент_11"/><linearGradient id="Безымянный_градиент_11-3" x1="700.57" y1="378.79" x2="714.31" y2="386.03" xlink:href="#Безымянный_градиент_11"/><linearGradient id="Безымянный_градиент_11-4" x1="677.83" y1="378.79" x2="691.57" y2="386.03" xlink:href="#Безымянный_градиент_11"/><linearGradient id="Безымянный_градиент_11-5" x1="666.82" y1="380.3" x2="671.09" y2="382.55" xlink:href="#Безымянный_градиент_11"/><linearGradient id="Безымянный_градиент_11-6" x1="672.67" y1="380.3" x2="676.95" y2="382.55" xlink:href="#Безымянный_градиент_11"/><linearGradient id="Безымянный_градиент_11-7" x1="689.23" y1="380.3" x2="693.51" y2="382.55" xlink:href="#Безымянный_градиент_11"/><linearGradient id="Безымянный_градиент_11-8" x1="695.09" y1="380.3" x2="699.36" y2="382.55" xlink:href="#Безымянный_градиент_11"/><linearGradient id="Безымянный_градиент_11-9" x1="681" y1="369.27" x2="685.61" y2="377.75" xlink:href="#Безымянный_градиент_11"/><linearGradient id="Безымянный_градиент_11-10" x1="655.88" y1="379" x2="669.74" y2="388.12" xlink:href="#Безымянный_градиент_11"/><linearGradient id="Безымянный_градиент_11-11" x1="700.47" y1="394.02" x2="714.42" y2="398.84" xlink:href="#Безымянный_градиент_11"/></defs><title>solution-cdpp-icon-rec-1</title><g class="cls-2"><path class="cls-3" d="M681.57,374.66a15.47,15.47,0,0,0-3.49,4.37,1.64,1.64,0,0,0,.12,1.55,1.62,1.62,0,0,0,1.35.74h5.6a1.63,1.63,0,0,0,0-3.25h-2.41c.35-.37.72-.73,1.07-1.07,1.59-1.55,3-2.89,3-4.57a4.45,4.45,0,0,0-8.56-1.75,1.64,1.64,0,0,0,.86,2.13,1.6,1.6,0,0,0,2.11-.87,1.23,1.23,0,0,1,2.37.46A10.15,10.15,0,0,1,681.57,374.66Z" transform="translate(-655 -367.93)"/><path class="cls-4" d="M657.82,374.22l.68-.69v4.53h-1.12a1.63,1.63,0,0,0,0,3.25h5.47a1.63,1.63,0,0,0,0-3.25h-1.12V369.6a1.62,1.62,0,0,0-2.76-1.15l-3.43,3.47a1.64,1.64,0,0,0,0,2.3A1.59,1.59,0,0,0,657.82,374.22Z" transform="translate(-655 -367.93)"/><path class="cls-5" d="M705.11,383.88a4.79,4.79,0,0,0-3.45,1.45,4.94,4.94,0,0,0,3.45,8.42,4.84,4.84,0,0,0,3.46-1.45,4.94,4.94,0,0,0-3.46-8.42Z" transform="translate(-655 -367.93)"/><path class="cls-6" d="M682.38,393.75a4.84,4.84,0,0,0,3.45-1.45,4.94,4.94,0,0,0-3.45-8.42h0a4.8,4.8,0,0,0-3.46,1.45,4.94,4.94,0,0,0,3.46,8.42Z" transform="translate(-655 -367.93)"/><path class="cls-7" d="M669.75,389a1.52,1.52,0,1,0-1.52,1.53A1.53,1.53,0,0,0,669.75,389Z" transform="translate(-655 -367.93)"/><path class="cls-8" d="M675.61,389a1.52,1.52,0,1,0-1.52,1.53A1.53,1.53,0,0,0,675.61,389Z" transform="translate(-655 -367.93)"/><path class="cls-9" d="M692.17,389a1.52,1.52,0,1,0-1.52,1.53A1.53,1.53,0,0,0,692.17,389Z" transform="translate(-655 -367.93)"/><path class="cls-10" d="M698,389a1.52,1.52,0,1,0-1.52,1.53A1.53,1.53,0,0,0,698,389Z" transform="translate(-655 -367.93)"/><path class="cls-11" d="M686.53,396.3h-8a1.63,1.63,0,0,0,0,3.25h8a1.63,1.63,0,0,0,0-3.25Z" transform="translate(-655 -367.93)"/><path class="cls-12" d="M663.3,384.09l-4.46,4.52-1.09-1.09a1.59,1.59,0,0,0-2.28,0,1.64,1.64,0,0,0,0,2.3l2.23,2.24a1.58,1.58,0,0,0,1.14.48h0a1.6,1.6,0,0,0,1.14-.48l5.6-5.67a1.64,1.64,0,0,0,0-2.3A1.59,1.59,0,0,0,663.3,384.09Z" transform="translate(-655 -367.93)"/><path class="cls-13" d="M705.07,381.36a4.49,4.49,0,0,0,4.45-4.45,4.94,4.94,0,0,0-1.27-3.51,3.94,3.94,0,0,0-.77-.63l1.61-2.19a1.63,1.63,0,0,0,.15-1.7,1.61,1.61,0,0,0-1.44-.9H703a1.63,1.63,0,0,0,0,3.25h1.63l-1.09,1.49a1.65,1.65,0,0,0-.15,1.7,1.61,1.61,0,0,0,1.44.89,1.57,1.57,0,0,1,1.14.35,1.73,1.73,0,0,1,.36,1.15,1.28,1.28,0,0,1-1.23,1.3,1.24,1.24,0,0,1-1.14-.76,1.6,1.6,0,0,0-2.11-.87,1.64,1.64,0,0,0-.86,2.13A4.45,4.45,0,0,0,705.07,381.36Z" transform="translate(-655 -367.93)"/></g></svg>