<svg id="Слой_1" data-name="Слой 1" xmlns="http://www.w3.org/2000/svg" xmlns:xlink="http://www.w3.org/1999/xlink" viewBox="0 0 54.25 54.25"><defs><style>.cls-1{fill:url(#Новый_образец_градиентной_залив);}.cls-2{fill:url(#Новый_образец_градиентной_залив-2);}.cls-3{fill:url(#Новый_образец_градиентной_залив-3);}.cls-4{fill:url(#Новый_образец_градиентной_залив-4);}.cls-5{fill:url(#Новый_образец_градиентной_залив-5);}</style><linearGradient id="Новый_образец_градиентной_залив" x1="692.95" y1="369.84" x2="705.2" y2="376.36" gradientTransform="matrix(1, 0, 0, -1, 0, 770)" gradientUnits="userSpaceOnUse"><stop offset="0" stop-color="#f7bb62"/><stop offset="0.5" stop-color="#f47920"/><stop offset="1" stop-color="#e56102"/></linearGradient><linearGradient id="Новый_образец_градиентной_залив-2" x1="664.19" y1="360.21" x2="726.6" y2="406.98" xlink:href="#Новый_образец_градиентной_залив"/><linearGradient id="Новый_образец_градиентной_залив-3" x1="698.13" y1="404.4" x2="707.94" y2="409.61" xlink:href="#Новый_образец_градиентной_залив"/><linearGradient id="Новый_образец_градиентной_залив-4" x1="671.01" y1="401.78" x2="680.81" y2="406.99" xlink:href="#Новый_образец_градиентной_залив"/><linearGradient id="Новый_образец_градиентной_залив-5" x1="665.69" y1="383.42" x2="714.44" y2="430.56" xlink:href="#Новый_образец_градиентной_залив"/></defs><title>solution-6</title><path class="cls-1" d="M697,402.38a4.38,4.38,0,1,0-4.37-4.38A4.39,4.39,0,0,0,697,402.38Z" transform="translate(-655.88 -356.88)"/><path class="cls-2" d="M710.13,401.3v-6.61l-2.46-.62c-.1-.28-.22-.56-.35-.84l1.3-2.17-3.74-3.75V372.63h-7v12.25H693.7l-.63,2.45c-.28.1-.56.22-.84.35l-.48-.29v-5.14h-7v7.88a7.91,7.91,0,0,0-6.33,3.19,3,3,0,0,1-.67.65V375.25h-7V394.5H665.5v-7h-7v7.12a3.5,3.5,0,0,0,.88,6.88h16.85a2.73,2.73,0,0,1,2.19,1.18,7.92,7.92,0,0,0,6.33,3.2,7.52,7.52,0,0,0,1.42-.15l3.89,3.89,2.17-1.3c.28.13.56.25.84.35l.63,2.46h6.61l.62-2.46c.28-.1.56-.22.84-.35l2.17,1.3,4.68-4.68-1.3-2.17c.13-.28.25-.56.35-.84Zm-10.5-26.92h3.5v12.49l-1.36.81c-.28-.13-.56-.25-.84-.35l-.63-2.45h-.67ZM690,384v2.44l-3.5,3.5V384Zm-17.5-7H676v17.5h-3.5Zm-8.75,12.25v5.25h-3.5v-5.25Zm16.08,12.39a4.48,4.48,0,0,0-3.6-1.89H659.38a1.75,1.75,0,0,1,0-3.5h16.85a4.48,4.48,0,0,0,3.6-1.89,6.06,6.06,0,0,1,4.92-2.48,6.23,6.23,0,0,1,5.09,2.62h-3.26a2.71,2.71,0,0,0-2.7,2.71v1.58a2.71,2.71,0,0,0,2.71,2.71h3.25a6.24,6.24,0,0,1-5.09,2.63A6.07,6.07,0,0,1,679.83,401.64Zm9.5-1.89h-2.75a1,1,0,0,1-1-1v-1.58a1,1,0,0,1,1-1h2.74a7.76,7.76,0,0,0,0,3.5Zm1.82.06a6.2,6.2,0,0,1,0-3.62.85.85,0,0,0,.6-.81v-.52a6.13,6.13,0,1,1,0,6.28v-.51A.85.85,0,0,0,691.15,399.81Zm15.27,4.86-2.75,2.75-1.84-1.09-.43.22a10.24,10.24,0,0,1-1.47.62l-.46.15-.52,2.06h-3.89l-.53-2.06-.46-.15a10.24,10.24,0,0,1-1.47-.62l-.43-.22-1.84,1.09-2.27-2.27a7.93,7.93,0,0,0,2.85-2.19,7.87,7.87,0,1,0,0-9.92,8,8,0,0,0-2.85-2.19l2.27-2.27,1.84,1.09.43-.22a10.24,10.24,0,0,1,1.47-.62l.46-.15.52-2.05h3.89l.53,2.05.46.15a10.24,10.24,0,0,1,1.47.62l.43.22,1.84-1.09,2.75,2.75-1.09,1.83.22.44a10.24,10.24,0,0,1,.62,1.47l.14.46,2.07.52v3.89l-2.06.53-.15.46a10.24,10.24,0,0,1-.62,1.47l-.22.44Z" transform="translate(-655.88 -356.88)"/><path class="cls-3" d="M701.38,367.38a3.5,3.5,0,1,0-3.5-3.5A3.5,3.5,0,0,0,701.38,367.38Zm0-5.25a1.75,1.75,0,1,1-1.75,1.75A1.75,1.75,0,0,1,701.38,362.13Z" transform="translate(-655.88 -356.88)"/><path class="cls-4" d="M674.25,370a3.5,3.5,0,1,0-3.5-3.5A3.5,3.5,0,0,0,674.25,370Zm0-5.25a1.75,1.75,0,1,1-1.75,1.75A1.75,1.75,0,0,1,674.25,364.75Z" transform="translate(-655.88 -356.88)"/><path class="cls-5" d="M662,385.75a6.12,6.12,0,0,0,4.77-10l3.39-3.62a7,7,0,0,0,9.7-1.51l2.68,1.51a6.2,6.2,0,0,0-.41,2.21,6.13,6.13,0,0,0,12.25,0,6,6,0,0,0-.86-3.1l3-2.39a7,7,0,1,0-1.09-1.37l-3,2.39a6.11,6.11,0,0,0-9,.73l-2.67-1.5A7,7,0,1,0,668.87,371l-3.38,3.62A6.12,6.12,0,1,0,662,385.75Zm39.38-27.12a5.25,5.25,0,1,1-5.25,5.25A5.26,5.26,0,0,1,701.38,358.63Zm-27.13,2.62A5.25,5.25,0,1,1,669,366.5,5.25,5.25,0,0,1,674.25,361.25Z" transform="translate(-655.88 -356.88)"/></svg>