<svg id="Слой_1" data-name="Слой 1" xmlns="http://www.w3.org/2000/svg" xmlns:xlink="http://www.w3.org/1999/xlink" viewBox="0 0 54.25 54.25"><defs><style>.cls-1{fill:url(#Безымянный_градиент_10);}.cls-2{fill:url(#Безымянный_градиент_10-2);}.cls-3{fill:url(#Безымянный_градиент_10-3);}.cls-4{fill:url(#Безымянный_градиент_10-4);}.cls-5{fill:url(#Безымянный_градиент_10-5);}.cls-6{fill:url(#Безымянный_градиент_10-6);}.cls-7{fill:url(#Безымянный_градиент_10-7);}.cls-8{fill:url(#Безымянный_градиент_10-8);}.cls-9{fill:url(#Безымянный_градиент_10-9);}.cls-10{fill:url(#Безымянный_градиент_10-10);}.cls-11{fill:#426ab3;}</style><linearGradient id="Безымянный_градиент_10" x1="657.98" y1="372.43" x2="733.96" y2="412.83" gradientTransform="matrix(1, 0, 0, -1, 0, 770)" gradientUnits="userSpaceOnUse"><stop offset="0" stop-color="#4b79ce"/><stop offset="0.41" stop-color="#426ab3"/><stop offset="1" stop-color="#2b4a81"/></linearGradient><linearGradient id="Безымянный_градиент_10-2" x1="691.26" y1="370.29" x2="705.97" y2="378.11" xlink:href="#Безымянный_градиент_10"/><linearGradient id="Безымянный_градиент_10-3" x1="659.44" y1="402.19" x2="661.89" y2="403.5" xlink:href="#Безымянный_градиент_10"/><linearGradient id="Безымянный_градиент_10-4" x1="668.51" y1="400.8" x2="669.99" y2="406.32" xlink:href="#Безымянный_градиент_10"/><linearGradient id="Безымянный_градиент_10-5" x1="659.44" y1="398.69" x2="661.89" y2="400" xlink:href="#Безымянный_градиент_10"/><linearGradient id="Безымянный_градиент_10-6" x1="668.51" y1="397.3" x2="669.99" y2="402.82" xlink:href="#Безымянный_градиент_10"/><linearGradient id="Безымянный_градиент_10-7" x1="659.44" y1="395.19" x2="661.89" y2="396.5" xlink:href="#Безымянный_градиент_10"/><linearGradient id="Безымянный_градиент_10-8" x1="668.51" y1="393.8" x2="669.99" y2="399.32" xlink:href="#Безымянный_градиент_10"/><linearGradient id="Безымянный_градиент_10-9" x1="659.44" y1="391.69" x2="661.89" y2="393" xlink:href="#Безымянный_градиент_10"/><linearGradient id="Безымянный_градиент_10-10" x1="668.51" y1="390.3" x2="669.99" y2="395.82" xlink:href="#Безымянный_градиент_10"/></defs><title>solution-adv-5</title><path class="cls-1" d="M704.88,386.21V369.06a6.12,6.12,0,1,0-7-6.06h-42v35h26.29a14,14,0,1,0,22.71-11.79Zm-47.25-21.46h40.5a6,6,0,0,0,1,1.91L693.75,372a2.56,2.56,0,0,0-2.25,0l-1.76-1.76a2.63,2.63,0,1,0-4.73,0l-4.38,4.39a2.57,2.57,0,0,0-1.13-.26,2.63,2.63,0,1,0,2.63,2.62,2.5,2.5,0,0,0-.27-1.12l4.39-4.39a2.56,2.56,0,0,0,2.25,0l1.76,1.76a2.63,2.63,0,1,0,4.73,0l5.35-5.35a6.09,6.09,0,0,0,2.79,1.16v16a13.93,13.93,0,0,0-17.5,2.88V384h-5.25v10.5h2a14.42,14.42,0,0,0-.21,1.75H657.63Zm38.5,39.38a7,7,0,1,1,7-7A7,7,0,0,1,696.13,404.13Zm-.88-19.21v3.5a8.75,8.75,0,0,0-7.1,12.3l-3,1.75a12.22,12.22,0,0,1,10.13-17.55Zm.88,24.46A12.23,12.23,0,0,1,686,404l3-1.76a8.72,8.72,0,0,0,14.19,0l3,1.76A12.22,12.22,0,0,1,696.13,409.38Zm11-6.91-3-1.75a8.73,8.73,0,0,0-7.1-12.3v-3.5a12.2,12.2,0,0,1,10.13,17.55Z" transform="translate(-655.88 -356.88)"/><path class="cls-2" d="M696.13,391.88a5.25,5.25,0,1,0,5.25,5.25A5.25,5.25,0,0,0,696.13,391.88Z" transform="translate(-655.88 -356.88)"/><path class="cls-3" d="M659.38,366.5h1.75v1.75h-1.75Z" transform="translate(-655.88 -356.88)"/><path class="cls-4" d="M662.88,366.5h12.25v1.75H662.88Z" transform="translate(-655.88 -356.88)"/><path class="cls-5" d="M659.38,370h1.75v1.75h-1.75Z" transform="translate(-655.88 -356.88)"/><path class="cls-6" d="M662.88,370h12.25v1.75H662.88Z" transform="translate(-655.88 -356.88)"/><path class="cls-7" d="M659.38,373.5h1.75v1.75h-1.75Z" transform="translate(-655.88 -356.88)"/><path class="cls-8" d="M662.88,373.5h12.25v1.75H662.88Z" transform="translate(-655.88 -356.88)"/><path class="cls-9" d="M659.38,377h1.75v1.75h-1.75Z" transform="translate(-655.88 -356.88)"/><path class="cls-10" d="M662.88,377h12.25v1.75H662.88Z" transform="translate(-655.88 -356.88)"/><path class="cls-11" d="M659.38,394.5h5.25v-8.75h-5.25Z" transform="translate(-655.88 -356.88)"/><path class="cls-11" d="M666.38,394.5h5.25v-7h-5.25Z" transform="translate(-655.88 -356.88)"/><path class="cls-11" d="M673.38,394.5h5.25v-14h-5.25Z" transform="translate(-655.88 -356.88)"/></svg>