<svg id="Слой_1" data-name="Слой 1" xmlns="http://www.w3.org/2000/svg" viewBox="0 0 512 512"><defs><style>.cls-1{fill:#186a81;}.cls-2{fill:#00465f;}.cls-3{fill:#eaf4f4;}.cls-4{fill:#cae8ea;}.cls-5{fill:#ffe26f;}.cls-6{fill:#ffc271;}.cls-7{fill:#00dc7b;}.cls-8{fill:#00aa8e;}.cls-9{fill:#fff;}</style></defs><title>success-sending</title><path class="cls-1" d="M939,333.52v38.71L683,563l-.11.08L427,372.23V333.52l70.85-54.33h370.3Z" transform="translate(-427 -128)"/><path class="cls-2" d="M939,333.52v38.71L683,563V279.18H868.15Z" transform="translate(-427 -128)"/><path class="cls-3" d="M874,128V426.82L683.12,552.73l-.12-.08L492,426.78V128Z" transform="translate(-427 -128)"/><path class="cls-4" d="M874,128V426.82L683.12,552.73l-.12-.08V128Z" transform="translate(-427 -128)"/><path class="cls-5" d="M939,402.14V640H427V372.23L682.89,533.14l.23.15Z" transform="translate(-427 -128)"/><path class="cls-6" d="M939,372.23V640H682.89V533.14l.23.15Z" transform="translate(-427 -128)"/><circle class="cls-7" cx="256" cy="195.16" r="126.58"/><path class="cls-8" d="M809.58,323.16A126.72,126.72,0,0,1,683,449.74V196.58A126.72,126.72,0,0,1,809.58,323.16Z" transform="translate(-427 -128)"/><path class="cls-9" d="M739.7,300.9,670,370.63,626.3,327l21.21-21.21L670,328.21l13-13,35.49-35.49Z" transform="translate(-427 -128)"/><path class="cls-3" d="M739.7,300.9,683,357.6V315.18l35.49-35.49Z" transform="translate(-427 -128)"/></svg>