<svg id="Слой_1" data-name="Слой 1" xmlns="http://www.w3.org/2000/svg" xmlns:xlink="http://www.w3.org/1999/xlink" viewBox="0 0 471.87 371"><defs><style>.cls-1,.cls-2,.cls-3,.cls-4{opacity:0.1;}.cls-2,.cls-6{fill:#42e8e0;}.cls-10,.cls-11,.cls-14,.cls-15,.cls-16,.cls-18,.cls-19,.cls-2,.cls-20,.cls-22,.cls-23,.cls-3,.cls-4,.cls-5{isolation:isolate;}.cls-3{fill:#2fd3c7;}.cls-4,.cls-9{fill:#fff;}.cls-5{fill:#03002d;opacity:0.4;}.cls-7{fill:#e9e4db;}.cls-8{fill:#ccc7bf;}.cls-10,.cls-11,.cls-15,.cls-19,.cls-20,.cls-23{opacity:0.48;}.cls-10{fill:url(#Безымянный_градиент_4);}.cls-11{fill:url(#Безымянный_градиент_2);}.cls-12{fill:url(#Безымянный_градиент_3);}.cls-13,.cls-14,.cls-19{fill:#f0f1f1;}.cls-14,.cls-16,.cls-22{opacity:0.5;}.cls-15{fill:url(#Безымянный_градиент_9);}.cls-16,.cls-17,.cls-18{fill:#426ab3;}.cls-18{opacity:0.7;}.cls-20{fill:url(#Безымянный_градиент_9-2);}.cls-21{fill:url(#Безымянный_градиент_6);}.cls-22{fill:url(#Безымянный_градиент_9-3);}.cls-23{fill:url(#Безымянный_градиент_9-4);}.cls-24{fill:url(#Безымянный_градиент_9-5);}</style><radialGradient id="Безымянный_градиент_4" cx="3.05" cy="768.05" r="1" gradientTransform="matrix(217.08, 0, 0, -107.14, 5.84, 82749.1)" gradientUnits="userSpaceOnUse"><stop offset="0" stop-color="#42e8e0"/><stop offset="0.09" stop-color="#3bc9cc"/><stop offset="0.27" stop-color="#2e8ea5"/><stop offset="0.45" stop-color="#235d85"/><stop offset="0.61" stop-color="#1a376c"/><stop offset="0.76" stop-color="#141b5b"/><stop offset="0.9" stop-color="#100b50"/><stop offset="1" stop-color="#0f054c"/></radialGradient><radialGradient id="Безымянный_градиент_2" cx="3.47" cy="767.71" r="1" gradientTransform="matrix(180.28, 0, 0, -78.81, 45.16, 60807.84)" gradientUnits="userSpaceOnUse"><stop offset="0" stop-color="#fff"/><stop offset="0.01" stop-color="#fff"/><stop offset="0.1" stop-color="#ccc7bf"/><stop offset="0.3" stop-color="#36b2bd"/><stop offset="0.39" stop-color="#093d89"/><stop offset="0.59" stop-color="#ccc7bf"/><stop offset="0.91" stop-color="#5887cc"/></radialGradient><linearGradient id="Безымянный_градиент_3" x1="566.31" y1="248.28" x2="750.81" y2="353.33" gradientTransform="matrix(1, 0, 0, -1, 0, 770)" gradientUnits="userSpaceOnUse"><stop offset="0" stop-color="#fff"/><stop offset="0.31" stop-color="#e9e4db"/><stop offset="0.59" stop-color="#ccc7bf"/><stop offset="0.84" stop-color="#e9e4db"/><stop offset="1" stop-color="#a29d96"/><stop offset="1" stop-color="#b5b5b5"/></linearGradient><linearGradient id="Безымянный_градиент_9" x1="598.29" y1="259.04" x2="778.58" y2="422.78" gradientTransform="matrix(1, 0, 0, -1, 0, 770)" gradientUnits="userSpaceOnUse"><stop offset="0" stop-color="#4b79ce"/><stop offset="0.41" stop-color="#426ab3"/><stop offset="1" stop-color="#2b4a81"/></linearGradient><linearGradient id="Безымянный_градиент_9-2" x1="544.53" y1="320.52" x2="868.27" y2="506.44" xlink:href="#Безымянный_градиент_9"/><linearGradient id="Безымянный_градиент_6" x1="566.3" y1="419.12" x2="750.8" y2="524.17" gradientTransform="matrix(1, 0, 0, -1, 0, 770)" gradientUnits="userSpaceOnUse"><stop offset="0" stop-color="#e9e4db"/><stop offset="0.31" stop-color="#e9e4db"/><stop offset="0.59" stop-color="#ccc7bf"/><stop offset="0.84" stop-color="#ccc7bf"/><stop offset="1" stop-color="#a29d96"/></linearGradient><linearGradient id="Безымянный_градиент_9-3" x1="598.44" y1="436.38" x2="778.73" y2="600.12" xlink:href="#Безымянный_градиент_9"/><linearGradient id="Безымянный_градиент_9-4" x1="598.29" y1="429.88" x2="778.58" y2="593.62" xlink:href="#Безымянный_градиент_9"/><linearGradient id="Безымянный_градиент_9-5" x1="581.71" y1="426.98" x2="817.62" y2="641.24" xlink:href="#Безымянный_градиент_9"/></defs><title>tech-1</title><g class="cls-1"><path class="cls-2" d="M474.29,327.9l-27.74-15.79V343.7l27.74,15.79L502,343.7V312.11Z" transform="translate(-446.55 -202)"/><path class="cls-2" d="M474.29,359.49,446.55,343.7V312.11l27.74,15.79Z" transform="translate(-446.55 -202)"/><path class="cls-3" d="M502,343.7l-27.74,15.79V327.9L502,312.11Z" transform="translate(-446.55 -202)"/><path class="cls-2" d="M474.29,327.9l-27.74-15.79,27.74-15.79L502,312.11Z" transform="translate(-446.55 -202)"/><path class="cls-4" d="M474.29,327.9l-27.74-15.79v1.38l27.74,15.79L502,313.49v-1.38Z" transform="translate(-446.55 -202)"/></g><path class="cls-5" d="M474.29,308.77,446.55,293l27.74-15.8L502,293Z" transform="translate(-446.55 -202)"/><path class="cls-6" d="M474.29,253.26l-27.74-15.8v31.59l27.74,15.79L502,269.05V237.46Z" transform="translate(-446.55 -202)"/><path class="cls-7" d="M474.29,284.84l-27.74-15.79V237.46l27.74,15.8Z" transform="translate(-446.55 -202)"/><path class="cls-8" d="M502,269.05l-27.74,15.79V253.26L502,237.46Z" transform="translate(-446.55 -202)"/><path class="cls-9" d="M474.29,253.26l-27.74-15.8,27.74-15.79L502,237.46Z" transform="translate(-446.55 -202)"/><path class="cls-9" d="M474.29,253.26l-27.74-15.8v1.38l27.74,15.78L502,238.84v-1.38Z" transform="translate(-446.55 -202)"/><path class="cls-10" d="M667.92,573c121.33,0,219.69-50.64,219.69-113.1S789.25,346.81,667.92,346.81,448.23,397.44,448.23,459.9,546.59,573,667.92,573Z" transform="translate(-446.55 -202)"/><path class="cls-11" d="M670.45,385.46c100.76,0,182.44-37.25,182.44-83.2s-81.68-83.2-182.44-83.2S488,256.31,488,302.26,569.69,385.46,670.45,385.46Z" transform="translate(-446.55 -202)"/><path class="cls-12" d="M568.23,464.41c0,.76,0,1.51,0,2.27l30.54,25.92,49.47,18.67,34.83-7.92,33.32-9.65,34-26.51.86-.71a31.12,31.12,0,0,0-.31-6.39l18-24.23a54.17,54.17,0,0,1,6.61,10.83l4-3.23,0,20.74v1.53l0,0c-.48,17.55-12.09,35.05-35,48.49-46.74,27.48-122.61,27.63-169.44.32-23.23-13.56-35-31.31-35.16-49.13v-.74l0-22,4.25,3.61a53.63,53.63,0,0,1,3.57-6.41C553.21,449.15,558.53,460.5,568.23,464.41Z" transform="translate(-446.55 -202)"/><path class="cls-13" d="M742.48,414c.65.35,1.29.69,1.91,1.06,10.63,6.2,18.76,13.28,24.56,20.84l-18,24.23c-1.77-12.17-10.59-24-26.51-33.32C688.65,405.89,630.66,406,595,427c-17.62,10.36-26.49,23.86-26.71,37.4-9.71-3.91-15-15.26-20.42-24.5a72.81,72.81,0,0,1,18.37-18.82l-4.12.86s28.16-24.8,29.19-25,57.41-15.39,57.41-15.39l63.45,5.66Z" transform="translate(-446.55 -202)"/><path class="cls-14" d="M722.75,412.28c35.78,20.87,35.86,54.82.13,75.82s-93.69,21.12-129.5.24-35.86-54.82-.13-75.82S687,391.4,722.75,412.28Z" transform="translate(-446.55 -202)"/><path class="cls-15" d="M722.6,418.77c35.79,20.88,35.86,54.82.13,75.83s-93.69,21.11-129.49.24S557.37,440,593.11,419,686.79,397.9,722.6,418.77Z" transform="translate(-446.55 -202)"/><path class="cls-13" d="M744.36,393.21c-46.84-27.31-122.7-27.16-169.44.32s-46.67,71.9.18,99.22,122.7,27.17,169.44-.32S791.21,420.53,744.36,393.21ZM724.4,405c35.79,20.87,35.86,54.82.13,75.82S630.84,501.9,595,481s-35.86-54.82-.13-75.82S688.61,384.08,724.4,405Z" transform="translate(-446.55 -202)"/><path class="cls-13" d="M744.36,393.21c-46.84-27.31-122.7-27.16-169.44.32s-46.67,71.9.18,99.22,122.7,27.17,169.44-.32S791.21,420.53,744.36,393.21ZM724.4,405c35.79,20.87,35.86,54.82.13,75.82S630.84,501.9,595,481s-35.86-54.82-.13-75.82S688.61,384.08,724.4,405Z" transform="translate(-446.55 -202)"/><path class="cls-9" d="M574.49,490.9c46.84,27.32,122.7,27.17,169.44-.32,28.78-16.91,39.77-40.25,33.09-62.06,7.91,22.33-2.88,46.53-32.46,63.93-46.74,27.48-122.61,27.63-169.44.32-18-10.5-29.07-23.53-33.27-37.16C546.44,468.55,557.3,480.88,574.49,490.9Z" transform="translate(-446.55 -202)"/><path class="cls-9" d="M594.3,403.33c35.72-21,93.69-21.11,129.5-.24,13.86,8.08,22.34,18.13,25.47,28.64-3.55-9.82-11.82-19.15-24.87-26.77-35.79-20.88-93.78-20.76-129.49.24-21.89,12.87-30.3,30.58-25.35,47.18C563.37,435.26,571.6,416.68,594.3,403.33Z" transform="translate(-446.55 -202)"/><path class="cls-16" d="M660.17,454.15c66.34-.14,120.07-31.76,120-70.6S726.29,313.34,660,313.49s-120.07,31.76-120,70.6S593.83,454.3,660.17,454.15Z" transform="translate(-446.55 -202)"/><path class="cls-17" d="M658.85,362.76l-24.32-14.25V377l24.32,14.22L683.15,377V348.51Z" transform="translate(-446.55 -202)"/><path class="cls-17" d="M658.85,391.21,634.53,377V348.51l24.32,14.25Z" transform="translate(-446.55 -202)"/><path class="cls-13" d="M683.15,377l-24.3,14.22V362.76l24.3-14.25Z" transform="translate(-446.55 -202)"/><path class="cls-17" d="M658.85,362.76l-24.32-14.25,24.32-14.22,24.3,14.22Z" transform="translate(-446.55 -202)"/><path class="cls-9" d="M658.85,362.76,635.6,349.13l-1.07.62L658.85,364l24.3-14.24-1-.62Z" transform="translate(-446.55 -202)"/><path class="cls-17" d="M690.42,381,666.1,366.79v28.46l24.32,14.24,24.3-14.24V366.79Z" transform="translate(-446.55 -202)"/><path class="cls-17" d="M690.42,409.49,666.1,395.25V366.79L690.42,381Z" transform="translate(-446.55 -202)"/><path class="cls-13" d="M714.72,395.25l-24.3,14.24V381l24.3-14.23Z" transform="translate(-446.55 -202)"/><path class="cls-17" d="M690.42,381,666.1,366.79l24.32-14.24,24.3,14.24Z" transform="translate(-446.55 -202)"/><path class="cls-9" d="M690.42,381l-23.25-13.61-1.07.62,24.32,14.22L714.72,368l-1.05-.62Z" transform="translate(-446.55 -202)"/><path class="cls-17" d="M722,399.3l-24.3-14.25v28.48L722,427.76l24.3-14.23V385.05Z" transform="translate(-446.55 -202)"/><path class="cls-17" d="M722,427.76l-24.3-14.23V385.05L722,399.3Z" transform="translate(-446.55 -202)"/><path class="cls-13" d="M746.29,413.53,722,427.76V399.3l24.3-14.25Z" transform="translate(-446.55 -202)"/><path class="cls-17" d="M722,399.3l-24.3-14.25L722,370.83l24.3,14.22Z" transform="translate(-446.55 -202)"/><path class="cls-9" d="M722,399.3l-23.25-13.63-1,.62L722,400.53l24.3-14.24v-1.24Z" transform="translate(-446.55 -202)"/><path class="cls-17" d="M627.27,382.25,603,368v28.45l24.31,14.25,24.3-14.25V368Z" transform="translate(-446.55 -202)"/><path class="cls-17" d="M627.27,410.73,603,396.48V368l24.31,14.22Z" transform="translate(-446.55 -202)"/><path class="cls-13" d="M651.57,396.48l-24.3,14.25V382.25L651.57,368Z" transform="translate(-446.55 -202)"/><path class="cls-17" d="M627.27,382.25,603,368l24.31-14.23L651.57,368Z" transform="translate(-446.55 -202)"/><path class="cls-9" d="M627.27,382.25,604,368.64l-1.06.62,24.31,14.23,24.3-14.23-1.05-.62Z" transform="translate(-446.55 -202)"/><path class="cls-17" d="M658.85,400.53l-24.32-14.24v28.47L658.85,429l24.3-14.23V386.29Z" transform="translate(-446.55 -202)"/><path class="cls-17" d="M658.85,429l-24.32-14.23V386.29l24.32,14.24Z" transform="translate(-446.55 -202)"/><path class="cls-13" d="M683.15,414.76,658.85,429V400.53l24.3-14.24Z" transform="translate(-446.55 -202)"/><path class="cls-17" d="M658.85,400.53l-24.32-14.24,24.32-14.23,24.3,14.24Z" transform="translate(-446.55 -202)"/><path class="cls-9" d="M658.85,400.53,635.6,386.92l-1.07.62,24.32,14.23,24.3-14.23-1-.62Z" transform="translate(-446.55 -202)"/><path class="cls-17" d="M690.42,418.79,666.1,404.57V433l24.32,14.23L714.72,433V404.57Z" transform="translate(-446.55 -202)"/><path class="cls-17" d="M690.42,447.27,666.1,433V404.57l24.32,14.22Z" transform="translate(-446.55 -202)"/><path class="cls-13" d="M714.72,433l-24.3,14.23V418.79l24.3-14.22Z" transform="translate(-446.55 -202)"/><path class="cls-17" d="M690.42,418.79,666.1,404.57l24.32-14.23,24.3,14.23Z" transform="translate(-446.55 -202)"/><path class="cls-9" d="M690.42,418.79l-23.25-13.61-1.07.62L690.42,420l24.3-14.22v-1.23Z" transform="translate(-446.55 -202)"/><path class="cls-17" d="M595.7,401.77l-24.32-14.23V416l24.32,14.23L620,416V387.54Z" transform="translate(-446.55 -202)"/><path class="cls-17" d="M595.7,430.22,571.38,416V387.54l24.32,14.23Z" transform="translate(-446.55 -202)"/><path class="cls-13" d="M620,416l-24.3,14.23V401.77L620,387.54Z" transform="translate(-446.55 -202)"/><path class="cls-17" d="M595.7,401.77l-24.32-14.23,24.32-14.25L620,387.54Z" transform="translate(-446.55 -202)"/><path class="cls-9" d="M595.7,401.77l-24.32-14.23v1.23L595.7,403,620,388.77l-1-.62Z" transform="translate(-446.55 -202)"/><path class="cls-17" d="M627.27,420,603,405.8v28.47l24.31,14.23,24.3-14.23V405.8Z" transform="translate(-446.55 -202)"/><path class="cls-17" d="M627.27,448.5,603,434.27V405.8L627.27,420Z" transform="translate(-446.55 -202)"/><path class="cls-13" d="M651.57,434.27l-24.3,14.23V420l24.3-14.24Z" transform="translate(-446.55 -202)"/><path class="cls-17" d="M627.27,420,603,405.8l24.31-14.23,24.3,14.23Z" transform="translate(-446.55 -202)"/><path class="cls-9" d="M627.27,420,603,405.8V407l24.31,14.25L651.57,407l-1.05-.62Z" transform="translate(-446.55 -202)"/><path class="cls-17" d="M658.85,438.3l-24.32-14.22v28.45l24.32,14.25,24.3-14.25V424.08Z" transform="translate(-446.55 -202)"/><path class="cls-17" d="M658.85,466.78l-24.32-14.25V424.08l24.32,14.22Z" transform="translate(-446.55 -202)"/><path class="cls-13" d="M683.15,452.53l-24.3,14.25V438.3l24.3-14.22Z" transform="translate(-446.55 -202)"/><path class="cls-17" d="M658.85,438.3l-24.32-14.22,24.32-14.25,24.3,14.25Z" transform="translate(-446.55 -202)"/><path class="cls-9" d="M658.85,438.3l-24.32-14.22v1.23l24.32,14.23,24.3-14.23v-1.23Z" transform="translate(-446.55 -202)"/><path class="cls-17" d="M658.85,325l-24.32-14.23v28.48l24.32,14.22,24.3-14.22V310.74Z" transform="translate(-446.55 -202)"/><path class="cls-17" d="M658.85,353.44l-24.32-14.22V310.74L658.85,325Z" transform="translate(-446.55 -202)"/><path class="cls-13" d="M683.15,339.22l-24.3,14.22V325l24.3-14.23Z" transform="translate(-446.55 -202)"/><path class="cls-17" d="M658.85,325l-24.32-14.23,24.32-14.22,24.3,14.22Z" transform="translate(-446.55 -202)"/><path class="cls-9" d="M658.85,325,635.6,311.36l-1.07.62,24.32,14.22L683.15,312l-1-.62Z" transform="translate(-446.55 -202)"/><path class="cls-18" d="M658.85,433.67,642.26,424l16.59-9.7,16.56,9.7Z" transform="translate(-446.55 -202)"/><path class="cls-18" d="M627.27,415.39l-16.58-9.7L627.27,396l16.57,9.71Z" transform="translate(-446.55 -202)"/><path class="cls-18" d="M690.42,414.16l-16.59-9.71,16.59-9.71L707,404.45Z" transform="translate(-446.55 -202)"/><path class="cls-18" d="M722.05,394.88l-16.59-9.71,16.59-9.71,16.58,9.71Z" transform="translate(-446.55 -202)"/><path class="cls-18" d="M595.7,397.13l-16.58-9.71,16.58-9.7,16.57,9.7Z" transform="translate(-446.55 -202)"/><path class="cls-17" d="M690.42,343.25,666.1,329v28.46l24.32,14.22,24.3-14.22V329Z" transform="translate(-446.55 -202)"/><path class="cls-17" d="M690.42,371.7,666.1,357.48V329l24.32,14.23Z" transform="translate(-446.55 -202)"/><path class="cls-13" d="M714.72,357.48l-24.3,14.22V343.25L714.72,329Z" transform="translate(-446.55 -202)"/><path class="cls-17" d="M690.42,343.25,666.1,329l24.32-14.24L714.72,329Z" transform="translate(-446.55 -202)"/><path class="cls-9" d="M690.42,343.25l-23.25-13.61-1.07.62,24.32,14.22,24.3-14.22-1.05-.62Z" transform="translate(-446.55 -202)"/><path class="cls-17" d="M722,361.51l-24.3-14.23v28.48L722,390l24.3-14.22V347.28Z" transform="translate(-446.55 -202)"/><path class="cls-17" d="M722,390l-24.3-14.22V347.28L722,361.51Z" transform="translate(-446.55 -202)"/><path class="cls-13" d="M746.29,375.76,722,390V361.51l24.3-14.23Z" transform="translate(-446.55 -202)"/><path class="cls-17" d="M722,361.51l-24.3-14.23L722,333.05l24.3,14.23Z" transform="translate(-446.55 -202)"/><path class="cls-9" d="M722,361.51,698.74,347.9l-1,.61L722,362.76l24.3-14.25v-1.23Z" transform="translate(-446.55 -202)"/><path class="cls-17" d="M627.27,344.48,603,330.26v28.45L627.27,373l24.3-14.24V330.26Z" transform="translate(-446.55 -202)"/><path class="cls-17" d="M627.27,373,603,358.71V330.26l24.31,14.22Z" transform="translate(-446.55 -202)"/><path class="cls-13" d="M651.57,358.71,627.27,373V344.48l24.3-14.22Z" transform="translate(-446.55 -202)"/><path class="cls-17" d="M627.27,344.48,603,330.25,627.27,316l24.3,14.24Z" transform="translate(-446.55 -202)"/><path class="cls-9" d="M627.27,344.48,604,330.87l-1.06.62,24.31,14.22,24.3-14.22-1.05-.62Z" transform="translate(-446.55 -202)"/><path class="cls-17" d="M658.85,362.76l-24.32-14.25V377l24.32,14.22L683.15,377V348.51Z" transform="translate(-446.55 -202)"/><path class="cls-17" d="M658.85,391.21,634.53,377V348.51l24.32,14.25Z" transform="translate(-446.55 -202)"/><path class="cls-13" d="M683.15,377l-24.3,14.22V362.76l24.3-14.25Z" transform="translate(-446.55 -202)"/><path class="cls-17" d="M658.85,362.76l-24.32-14.25,24.32-14.22,24.3,14.22Z" transform="translate(-446.55 -202)"/><path class="cls-9" d="M658.85,362.76,635.6,349.13l-1.07.62L658.85,364l24.3-14.24-1-.62Z" transform="translate(-446.55 -202)"/><path class="cls-17" d="M690.42,381,666.1,366.79v28.46l24.32,14.24,24.3-14.24V366.79Z" transform="translate(-446.55 -202)"/><path class="cls-17" d="M690.42,409.49,666.1,395.25V366.79L690.42,381Z" transform="translate(-446.55 -202)"/><path class="cls-13" d="M714.72,395.25l-24.3,14.24V381l24.3-14.23Z" transform="translate(-446.55 -202)"/><path class="cls-17" d="M690.42,381,666.1,366.79l24.32-14.24,24.3,14.24Z" transform="translate(-446.55 -202)"/><path class="cls-9" d="M690.42,381l-23.25-13.61-1.07.62,24.32,14.22L714.72,368v-1.24Z" transform="translate(-446.55 -202)"/><path class="cls-17" d="M595.7,364l-24.32-14.24v28.47l24.32,14.23L620,378.22V349.75Z" transform="translate(-446.55 -202)"/><path class="cls-17" d="M595.7,392.45l-24.32-14.23V349.75L595.7,364Z" transform="translate(-446.55 -202)"/><path class="cls-13" d="M620,378.22l-24.3,14.23V364L620,349.75Z" transform="translate(-446.55 -202)"/><path class="cls-17" d="M595.7,364l-24.32-14.24,24.32-14.23L620,349.75Z" transform="translate(-446.55 -202)"/><path class="cls-9" d="M595.7,364l-23.25-13.63-1.07.62,24.32,14.25L620,351l-1-.62Z" transform="translate(-446.55 -202)"/><path class="cls-17" d="M627.27,382.25,603,368v28.45l24.31,14.25,24.3-14.25V368Z" transform="translate(-446.55 -202)"/><path class="cls-17" d="M627.27,410.73,603,396.5V368l24.31,14.22Z" transform="translate(-446.55 -202)"/><path class="cls-13" d="M651.57,396.5l-24.3,14.23V382.25L651.57,368Z" transform="translate(-446.55 -202)"/><path class="cls-17" d="M627.27,382.25,603,368l24.31-14.23L651.57,368Z" transform="translate(-446.55 -202)"/><path class="cls-9" d="M627.27,382.25,603,368v1.23l24.31,14.23,24.3-14.23-1.05-.62Z" transform="translate(-446.55 -202)"/><path class="cls-17" d="M658.85,400.53l-24.32-14.24v28.47L658.85,429l24.3-14.23V386.29Z" transform="translate(-446.55 -202)"/><path class="cls-17" d="M658.85,429l-24.32-14.23V386.29l24.32,14.24Z" transform="translate(-446.55 -202)"/><path class="cls-13" d="M683.15,414.76,658.85,429V400.53l24.3-14.24Z" transform="translate(-446.55 -202)"/><path class="cls-17" d="M658.85,400.53l-24.32-14.24,24.32-14.23,24.3,14.24Z" transform="translate(-446.55 -202)"/><path class="cls-9" d="M658.85,400.53l-24.32-14.24v1.25l24.32,14.23,24.3-14.23v-1.25Z" transform="translate(-446.55 -202)"/><path class="cls-18" d="M722.05,357.27l-16.59-9.71,16.59-9.71,16.58,9.71Z" transform="translate(-446.55 -202)"/><path class="cls-18" d="M595.7,359.51l-16.58-9.71,16.58-9.71,16.57,9.71Z" transform="translate(-446.55 -202)"/><path class="cls-17" d="M658.85,287.2,634.53,273v28.46l24.32,14.24,24.3-14.24V273Z" transform="translate(-446.55 -202)"/><path class="cls-17" d="M658.85,315.67l-24.32-14.24V273l24.32,14.23Z" transform="translate(-446.55 -202)"/><path class="cls-13" d="M683.15,301.43l-24.3,14.24V287.2L683.15,273Z" transform="translate(-446.55 -202)"/><path class="cls-17" d="M658.85,287.2,634.53,273l24.32-14.24L683.15,273Z" transform="translate(-446.55 -202)"/><path class="cls-9" d="M658.85,287.2,634.53,273v1.23l24.32,14.23,24.3-14.23V273Z" transform="translate(-446.55 -202)"/><path class="cls-17" d="M690.42,305.48,666.1,291.23v28.48l24.32,14.22,24.3-14.22V291.23Z" transform="translate(-446.55 -202)"/><path class="cls-17" d="M690.42,333.93,666.1,319.71V291.23l24.32,14.25Z" transform="translate(-446.55 -202)"/><path class="cls-13" d="M714.72,319.71l-24.3,14.22V305.48l24.3-14.25Z" transform="translate(-446.55 -202)"/><path class="cls-17" d="M690.42,305.48,666.1,291.23,690.42,277l24.3,14.22Z" transform="translate(-446.55 -202)"/><path class="cls-9" d="M690.42,305.48,666.1,291.23v1.23l24.32,14.25,24.3-14.25v-1.23Z" transform="translate(-446.55 -202)"/><path class="cls-17" d="M722,323.74l-24.3-14.23V338L722,352.21,746.29,338V309.51Z" transform="translate(-446.55 -202)"/><path class="cls-17" d="M722,352.21,697.69,338V309.51L722,323.74Z" transform="translate(-446.55 -202)"/><path class="cls-13" d="M746.29,338,722,352.21V323.74l24.3-14.23Z" transform="translate(-446.55 -202)"/><path class="cls-17" d="M722,323.74l-24.3-14.23L722,295.28l24.3,14.23Z" transform="translate(-446.55 -202)"/><path class="cls-9" d="M722,323.74l-24.3-14.23v1.23L722,325l24.3-14.23v-1.23Z" transform="translate(-446.55 -202)"/><path class="cls-17" d="M627.27,306.71,603,292.46v28.48l24.31,14.22,24.3-14.22V292.46Z" transform="translate(-446.55 -202)"/><path class="cls-17" d="M627.27,335.16,603,320.94V292.46l24.31,14.25Z" transform="translate(-446.55 -202)"/><path class="cls-13" d="M651.57,320.94l-24.3,14.22V306.71l24.3-14.25Z" transform="translate(-446.55 -202)"/><path class="cls-17" d="M627.27,306.71,603,292.46l24.31-14.22,24.3,14.22Z" transform="translate(-446.55 -202)"/><path class="cls-9" d="M627.27,306.71,603,292.46v1.24l24.31,14.24,24.3-14.23v-1.25Z" transform="translate(-446.55 -202)"/><path class="cls-17" d="M595.7,326.2,571.38,312v28.47l24.32,14.23L620,340.45V312Z" transform="translate(-446.55 -202)"/><path class="cls-17" d="M595.7,354.68l-24.32-14.23V312L595.7,326.2Z" transform="translate(-446.55 -202)"/><path class="cls-13" d="M620,340.45l-24.3,14.23V326.2L620,312Z" transform="translate(-446.55 -202)"/><path class="cls-17" d="M595.7,326.2,571.38,312l24.32-14.23L620,312Z" transform="translate(-446.55 -202)"/><path class="cls-9" d="M595.7,326.2,571.38,312v1.23l24.32,14.24L620,313.21V312Z" transform="translate(-446.55 -202)"/><path class="cls-19" d="M779.56,294.11l-59,30.86-73.89,27.22L575.1,321.91l-35.18-30.7V442.67h0c-.2,18.13,11.52,36.28,35.16,50.06,46.83,27.32,122.7,27.17,169.44-.32,23.4-13.76,35.05-31.76,35-49.74h0Z" transform="translate(-446.55 -202)"/><path class="cls-20" d="M539.92,294.11l59,30.86,73.9,27.22,71.58-30.28,35.18-30.7V442.67h0c.2,18.13-11.53,36.28-35.16,50.06-46.84,27.32-122.7,27.17-169.45-.32-23.39-13.76-35-31.76-35-49.74h0Z" transform="translate(-446.55 -202)"/><path class="cls-16" d="M744.38,433.8c-46.84,27.32-122.7,27.17-169.45-.31-23.39-13.76-35-31.76-35-49.74h0v58.94h0c-.06,18,11.6,36,35,49.74,46.75,27.49,122.61,27.64,169.45.32C768,479,779.74,460.82,779.54,442.69h0V383.75h0C779.74,401.88,768,420,744.38,433.8Z" transform="translate(-446.55 -202)"/><path class="cls-21" d="M568.23,293.57c0,.76,0,1.51,0,2.27l30.54,25.92,49.47,18.67,34.83-7.92,33.32-9.65,34-26.51.86-.71a31.12,31.12,0,0,0-.31-6.39l18-24.23a54.17,54.17,0,0,1,6.61,10.83l4-3.23,0,20.74v1.53l0,0c-.48,17.55-12.09,35-35,48.49-46.74,27.48-122.61,27.63-169.44.32-23.23-13.56-35-31.32-35.16-49.13v-.74l0-22,4.25,3.61a53.63,53.63,0,0,1,3.57-6.41C553.21,278.31,558.53,289.66,568.23,293.57Z" transform="translate(-446.55 -202)"/><path class="cls-13" d="M742.48,243.13c.65.36,1.29.7,1.91,1.07C755,250.4,763.15,257.48,769,265l-18,24.23c-1.77-12.17-10.59-24-26.51-33.33-35.79-20.87-93.78-20.76-129.49.25-17.62,10.36-26.49,23.86-26.71,37.4-9.71-3.91-15-15.26-20.42-24.5a72.81,72.81,0,0,1,18.37-18.82l-4.12.86s28.16-24.8,29.19-25,57.41-15.39,57.41-15.39l63.45,5.66Z" transform="translate(-446.55 -202)"/><path class="cls-22" d="M722.75,241.44c35.78,20.87,35.86,54.82.13,75.82s-93.69,21.12-129.5.24-35.86-54.82-.13-75.82S687,220.56,722.75,241.44Z" transform="translate(-446.55 -202)"/><path class="cls-23" d="M722.6,247.93c35.79,20.88,35.86,54.82.13,75.83S629,344.87,593.24,324s-35.87-54.82-.13-75.82S686.79,227.06,722.6,247.93Z" transform="translate(-446.55 -202)"/><path class="cls-24" d="M744.36,222.39c-46.84-27.31-122.7-27.16-169.45.32s-46.66,71.9.19,99.22,122.7,27.16,169.44-.32S791.21,249.69,744.36,222.39Zm-20,11.73c35.79,20.87,35.86,54.81.13,75.82s-93.69,21.12-129.49.24-35.86-54.81-.13-75.82S688.61,213.24,724.4,234.12Z" transform="translate(-446.55 -202)"/><path class="cls-9" d="M744.36,222.39c-46.84-27.31-122.7-27.16-169.45.32s-46.66,71.9.19,99.22,122.7,27.16,169.44-.32S791.21,249.69,744.36,222.39Zm-20,11.73c35.79,20.87,35.86,54.81.13,75.82s-93.69,21.12-129.49.24-35.86-54.81-.13-75.82S688.61,213.24,724.4,234.12Z" transform="translate(-446.55 -202)"/><path class="cls-9" d="M574.49,320.06c46.84,27.32,122.7,27.17,169.44-.32,28.78-16.91,39.77-40.25,33.09-62.06,7.91,22.33-2.88,46.53-32.46,63.93-46.74,27.48-122.61,27.63-169.44.32-18-10.5-29.07-23.53-33.27-37.16C546.44,297.71,557.3,310,574.49,320.06Z" transform="translate(-446.55 -202)"/><path class="cls-9" d="M594.3,232.51c35.72-21,93.69-21.12,129.5-.24,13.86,8.08,22.34,18.13,25.47,28.64-3.55-9.82-11.81-19.16-24.87-26.77-35.78-20.88-93.77-20.77-129.49.24C573,247.24,564.61,265,569.56,281.56,563.38,264.44,571.6,245.86,594.3,232.51Z" transform="translate(-446.55 -202)"/><path class="cls-14" d="M745.11,430.5c-46.85,27.56-122.92,27.71-169.88.32-22.87-13.33-34.59-30.74-35.22-48.27-.64,18.5,11.07,37.12,35.22,51.2,47,27.37,123,27.24,169.88-.32,24-14.13,35.7-32.75,35-51.2C779.54,399.71,767.89,417.11,745.11,430.5Z" transform="translate(-446.55 -202)"/><g class="cls-1"><path class="cls-2" d="M885.76,387.28l24,21.94,6.37-32.44-24-21.93-30.36,10.52L855.4,397.8Z" transform="translate(-446.55 -202)"/><path class="cls-2" d="M892.13,354.84l24,21.94-6.37,32.44-24-21.94Z" transform="translate(-446.55 -202)"/><path class="cls-3" d="M861.77,365.37l30.36-10.52-6.37,32.43L855.4,397.8Z" transform="translate(-446.55 -202)"/><path class="cls-2" d="M885.76,387.28l24,21.94-30.38,10.52-24-21.94Z" transform="translate(-446.55 -202)"/><path class="cls-4" d="M885.76,387.28l24,21.94.28-1.41-24-21.92-30.36,10.5-.28,1.41Z" transform="translate(-446.55 -202)"/></g><path class="cls-5" d="M890.68,374.69l-27.75-16.55,27.75-16.56,27.74,16.56Z" transform="translate(-446.55 -202)"/><path class="cls-6" d="M887.49,329l-3.18-32.93-26,19.31,3.18,32.93L890.66,362l26-19.31Z" transform="translate(-446.55 -202)"/><path class="cls-7" d="M861.48,348.32l-3.18-32.93,26-19.31L887.49,329Z" transform="translate(-446.55 -202)"/><path class="cls-8" d="M890.66,362l-29.18-13.64,26-19.31,29.18,13.64Z" transform="translate(-446.55 -202)"/><path class="cls-9" d="M887.49,329l-3.18-32.93,29.2,13.62,3.16,32.95Z" transform="translate(-446.55 -202)"/><path class="cls-9" d="M887.49,329l-3.18-32.93-1.12.83,3.16,32.94,29.2,13.64,1.12-.84Z" transform="translate(-446.55 -202)"/><path class="cls-5" d="M874.29,354.31H901L890.66,362Z" transform="translate(-446.55 -202)"/></svg>