<svg id="Слой_1" data-name="Слой 1" xmlns="http://www.w3.org/2000/svg" xmlns:xlink="http://www.w3.org/1999/xlink" viewBox="0 0 268 367.25"><defs><style>.cls-1{fill:url(#Безымянный_градиент_2);}.cls-2{fill:url(#Безымянный_градиент_10);}.cls-3{fill:url(#Безымянный_градиент_10-2);}.cls-4{fill:url(#Безымянный_градиент_10-3);}.cls-5{fill:url(#Безымянный_градиент_10-4);}.cls-10,.cls-11,.cls-12,.cls-13,.cls-28,.cls-6,.cls-9{fill:#eaf1f8;}.cls-27,.cls-28,.cls-7{opacity:0.5;}.cls-10,.cls-11,.cls-12,.cls-13,.cls-15,.cls-17,.cls-19,.cls-21,.cls-23,.cls-25,.cls-26,.cls-28,.cls-30,.cls-31,.cls-32,.cls-35,.cls-36,.cls-7,.cls-9{isolation:isolate;}.cls-7{fill:url(#Безымянный_градиент_4);}.cls-8{fill:none;}.cls-9{opacity:0.8;}.cls-10{opacity:0.6;}.cls-11,.cls-32{opacity:0.4;}.cls-12,.cls-26{opacity:0.2;}.cls-13,.cls-29,.cls-30,.cls-31,.cls-35,.cls-36{opacity:0.1;}.cls-14{fill:#1d3f84;}.cls-15{fill:#07306d;}.cls-15,.cls-17,.cls-19,.cls-21,.cls-23,.cls-25{opacity:0.66;}.cls-16{mask:url(#mask);}.cls-17{fill:url(#Безымянный_градиент_3);}.cls-18{mask:url(#mask-2);}.cls-19{fill:url(#Безымянный_градиент_11);}.cls-20{mask:url(#mask-3);}.cls-21{fill:url(#Безымянный_градиент_11-2);}.cls-22{mask:url(#mask-4);}.cls-23{fill:url(#Безымянный_градиент_11-3);}.cls-24{mask:url(#mask-5);}.cls-25{fill:url(#Безымянный_градиент_11-4);}.cls-26{fill:url(#Безымянный_градиент_12);}.cls-30,.cls-33{fill:#fff;}.cls-31,.cls-34{fill:#ccc7bf;}.cls-32{fill:#03002d;}.cls-35,.cls-37{fill:#42e8e0;}.cls-36{fill:#2fd3c7;}.cls-38{fill:#e9e4db;}</style><radialGradient id="Безымянный_градиент_2" cx="-10.55" cy="773.19" r="1" gradientTransform="matrix(-47.45, 0, 0, 47.45, 196.45, -36178.78)" gradientUnits="userSpaceOnUse"><stop offset="0" stop-color="#e6e6e6"/><stop offset="0.1" stop-color="#dfdfdf"/><stop offset="0.23" stop-color="#cdcdcd"/><stop offset="0.39" stop-color="#afafaf"/><stop offset="0.57" stop-color="#858585"/><stop offset="0.76" stop-color="#505050"/><stop offset="0.95" stop-color="#101010"/><stop offset="1"/></radialGradient><linearGradient id="Безымянный_градиент_10" x1="725.85" y1="256.65" x2="653.24" y2="382.4" gradientTransform="matrix(1, 0, 0, -1, 0, 770)" gradientUnits="userSpaceOnUse"><stop offset="0"/><stop offset="0.06" stop-color="#292929"/><stop offset="0.15" stop-color="#626262"/><stop offset="0.23" stop-color="#919191"/><stop offset="0.31" stop-color="#b6b6b6"/><stop offset="0.39" stop-color="#d0d0d0"/><stop offset="0.45" stop-color="#e0e0e0"/><stop offset="0.51" stop-color="#e6e6e6"/><stop offset="0.55" stop-color="#dedede"/><stop offset="0.62" stop-color="#c9c9c9"/><stop offset="0.71" stop-color="#a7a7a7"/><stop offset="0.8" stop-color="#777"/><stop offset="0.91" stop-color="#3b3b3b"/><stop offset="1"/></linearGradient><linearGradient id="Безымянный_градиент_10-2" x1="705.68" y1="245.02" x2="643.98" y2="351.89" xlink:href="#Безымянный_градиент_10"/><linearGradient id="Безымянный_градиент_10-3" x1="673" y1="277.9" x2="647.24" y2="322.51" xlink:href="#Безымянный_градиент_10"/><linearGradient id="Безымянный_градиент_10-4" x1="651.78" y1="282.91" x2="639.3" y2="304.53" xlink:href="#Безымянный_градиент_10"/><linearGradient id="Безымянный_градиент_4" x1="765.32" y1="230.99" x2="580.28" y2="257.58" gradientTransform="matrix(1, 0, 0, -1, 0, 770)" gradientUnits="userSpaceOnUse"><stop offset="0" stop-color="#07306d"/><stop offset="1" stop-color="#07306d" stop-opacity="0"/></linearGradient><mask id="mask" x="89.89" y="246.35" width="116.22" height="67.09" maskUnits="userSpaceOnUse"><g transform="translate(-549 -200)"><g id="mask0"><path class="cls-1" d="M700.87,512.61l52.8-30.48c2.14-1.23,1.87-3.38-.6-4.81l-51.6-29.79c-2.46-1.42-6.2-1.58-8.34-.35l-52.8,30.48c-2.13,1.23-1.86,3.38.6,4.81l51.6,29.79C695,513.68,698.74,513.84,700.87,512.61Z"/></g></g></mask><radialGradient id="Безымянный_градиент_3" cx="-10.55" cy="773.19" r="1" gradientTransform="matrix(-47.45, 0, 0, 47.45, 196.45, -36178.78)" gradientUnits="userSpaceOnUse"><stop offset="0" stop-color="#fff"/><stop offset="0.14" stop-color="#fff"/><stop offset="0.33" stop-color="#fff"/><stop offset="0.55" stop-color="#dadbe8"/><stop offset="0.8" stop-color="#829fd5"/><stop offset="1" stop-color="#4571bb"/></radialGradient><mask id="mask-2" x="136.62" y="166.05" width="7.85" height="168.86" maskUnits="userSpaceOnUse"><g transform="translate(-549 -200)"><g id="mask1"><path class="cls-2" d="M689.27,366.8l.55-.31c2-1.17,3.65.06,3.65,2.76V527.18c0,2.69-1.63,5.8-3.65,7l-.55.31c-2,1.17-3.65-.06-3.65-2.76V373.77C685.62,371.09,687.25,368,689.27,366.8Z"/></g></g></mask><linearGradient id="Безымянный_градиент_11" x1="694.54" y1="319.55" x2="676.68" y2="319.46" gradientTransform="matrix(1, 0, 0, -1, 0, 770)" gradientUnits="userSpaceOnUse"><stop offset="0" stop-color="#fff"/><stop offset="0.9" stop-color="#ccc7bf"/></linearGradient><mask id="mask-3" x="121.9" y="199.71" width="7.86" height="143.69" maskUnits="userSpaceOnUse"><g transform="translate(-549 -200)"><g id="mask2"><path class="cls-3" d="M674.56,400.46l.54-.31c2-1.17,3.66.06,3.66,2.76V535.67c0,2.69-1.63,5.8-3.66,7l-.54.31c-2,1.17-3.66-.06-3.66-2.76V407.43C670.9,404.75,672.54,401.63,674.56,400.46Z"/></g></g></mask><linearGradient id="Безымянный_градиент_11-2" x1="679.83" y1="298.48" x2="661.97" y2="298.38" xlink:href="#Безымянный_градиент_11"/><mask id="mask-4" x="107.19" y="239.45" width="7.85" height="60.68" maskUnits="userSpaceOnUse"><g transform="translate(-549 -200)"><g id="mask3"><path class="cls-4" d="M659.85,440.21l.54-.32c2-1.16,3.66.07,3.66,2.76v49.76c0,2.69-1.63,5.8-3.66,7l-.54.32c-2,1.16-3.66-.07-3.66-2.77V447.18C656.19,444.5,657.83,441.38,659.85,440.21Z"/></g></g></mask><linearGradient id="Безымянный_градиент_11-3" x1="665.12" y1="300.27" x2="647.26" y2="300.03" xlink:href="#Безымянный_градиент_11"/><mask id="mask-5" x="92.61" y="261.27" width="7.85" height="30.01" maskUnits="userSpaceOnUse"><g transform="translate(-549 -200)"><g id="mask4"><path class="cls-5" d="M645.27,462l.54-.32c2-1.16,3.66.07,3.66,2.77v19.08c0,2.69-1.63,5.8-3.66,7l-.54.32c-2,1.16-3.66-.07-3.66-2.77V469C641.61,466.32,643.25,463.2,645.27,462Z"/></g></g></mask><linearGradient id="Безымянный_градиент_11-4" x1="650.54" y1="293.86" x2="632.69" y2="293.36" xlink:href="#Безымянный_градиент_11"/><linearGradient id="Безымянный_градиент_12" x1="697" y1="256.57" x2="697" y2="570" gradientTransform="matrix(1, 0, 0, -1, 0, 770)" gradientUnits="userSpaceOnUse"><stop offset="0" stop-color="#c9cfdb"/><stop offset="0.79" stop-color="#567dc6" stop-opacity="0.7"/><stop offset="1" stop-color="#5980c9" stop-opacity="0"/></linearGradient></defs><title>tech-2</title><path class="cls-6" d="M728.86,349.4l11.63-6.72V319.07l-11.63,6.71Z" transform="translate(-549 -200)"/><path class="cls-7" d="M703.71,562.1a25,25,0,0,0,12.43-3.31l37-21.36a10.37,10.37,0,0,0-.19-18.06L717.6,500.2a3.85,3.85,0,1,0-3.68,6.77l35.33,19.17a2.56,2.56,0,0,1,1.35,2.28,2.59,2.59,0,0,1-1.32,2.32l-37,21.36a17.22,17.22,0,0,1-17.15,0l-92.88-53.63a24.94,24.94,0,0,0-24.85,0,3.85,3.85,0,1,0,3.84,6.68,17.22,17.22,0,0,1,17.15,0l92.89,53.63A24.87,24.87,0,0,0,703.71,562.1Z" transform="translate(-549 -200)"/><path class="cls-6" d="M672.19,401.62a4.63,4.63,0,0,0,2.31-.71,11.06,11.06,0,0,0,5-8.65,3.23,3.23,0,0,0-5.27-3.05,11.1,11.1,0,0,0-5,8.66,3.66,3.66,0,0,0,1.56,3.38A2.91,2.91,0,0,0,672.19,401.62Zm4.35-12.57a2.26,2.26,0,0,1,1.13.29,3.14,3.14,0,0,1,1.29,2.9,10.44,10.44,0,0,1-4.72,8.19,2.69,2.69,0,0,1-4.44-2.57,10.44,10.44,0,0,1,4.71-8.18A4.21,4.21,0,0,1,676.54,389.05Z" transform="translate(-549 -200)"/><rect class="cls-8" x="117.12" y="188.44" width="27.16" height="31.24"/><path class="cls-6" d="M671.41,396.77c0,1.89,1.33,2.65,3,1.71a6.54,6.54,0,0,0,3-5.13c0-1.89-1.32-2.64-3-1.7A6.52,6.52,0,0,0,671.41,396.77Z" transform="translate(-549 -200)"/><path class="cls-6" d="M672.91,377.68l2.93-1.7v-5.76l-2.93,1.7Z" transform="translate(-549 -200)"/><path class="cls-9" d="M677.85,375.19l2.79-.57,1.55-6.37-2.8.57Z" transform="translate(-549 -200)"/><path class="cls-10" d="M682.46,374.65l2.38.62,2.93-6.36-2.37-.62Z" transform="translate(-549 -200)"/><path class="cls-11" d="M686.29,376.09l1.72,1.75,4-5.72-1.74-1.74Z" transform="translate(-549 -200)"/><path class="cls-12" d="M688.93,379.41l.91,2.69,4.74-4.51-.9-2.71Z" transform="translate(-549 -200)"/><path class="cls-13" d="M690.16,384.25v3.39l5-2.89v-3.38Z" transform="translate(-549 -200)"/><path class="cls-12" d="M673.86,387.32l1-.59v-8.6l-1,.6Z" transform="translate(-549 -200)"/><path class="cls-11" d="M676,386.28l1-.19,2.3-9.51-1,.19Z" transform="translate(-549 -200)"/><path class="cls-10" d="M678.05,386.1l.82.21,4.38-9.48-.84-.21Z" transform="translate(-549 -200)"/><path class="cls-9" d="M679.7,386.79l.6.61,6-8.53-.6-.61Z" transform="translate(-549 -200)"/><path class="cls-6" d="M680.83,388.28l.32,1,7.07-6.74-.32-.95Z" transform="translate(-549 -200)"/><path class="cls-6" d="M681.33,390.45v1.18l7.44-4.29v-1.2Z" transform="translate(-549 -200)"/><path class="cls-6" d="M681.15,393.06l-.32,1.32L687.9,393l.32-1.32Z" transform="translate(-549 -200)"/><path class="cls-6" d="M680.3,395.88l-.6,1.31,6,1.57.6-1.31Z" transform="translate(-549 -200)"/><path class="cls-6" d="M678.87,398.6l-.82,1.18,4.36,4.44.84-1.19Z" transform="translate(-549 -200)"/><path class="cls-6" d="M677,401l-1,.93,2.3,6.85,1-.93Z" transform="translate(-549 -200)"/><path class="cls-6" d="M674.89,402.79l-1,.59V412l1-.59Z" transform="translate(-549 -200)"/><path class="cls-10" d="M671.83,365.67C659.76,374,650,390.13,647.94,404.92l-5.1,4.31c1.65-18.33,13.82-39.07,29-49.22Z" transform="translate(-549 -200)"/><path class="cls-12" d="M652.66,425.81c4.88,4.93,12.78,5.39,21.71.24a42.42,42.42,0,0,0,6.11-4.34l2.2,3.91a51,51,0,0,1-8.3,6.07c-11.28,6.52-21.19,5.42-26.81-1.58Z" transform="translate(-549 -200)"/><path class="cls-6" d="M693.39,413.4l-2.19-3.93c6.1-9.2,10-20.16,10-29.91,0-16.13-10.67-23.22-24.31-16.82v-5.66c16.33-7.93,29.19.41,29.19,19.66C706.1,388.74,701.11,402.26,693.39,413.4Z" transform="translate(-549 -200)"/><path class="cls-6" d="M663.86,418l2.63-1.51V377.69l-2.63,1.51Z" transform="translate(-549 -200)"/><path class="cls-9" d="M660.15,420.12l2.62-1.5V401.75l-2.62,1.52Z" transform="translate(-549 -200)"/><path class="cls-10" d="M656.18,422.42l2.61-1.52V394.08l-2.61,1.5Z" transform="translate(-549 -200)"/><path class="cls-12" d="M652.26,424.67l2.62-1.5V402.28l-2.62,1.51Z" transform="translate(-549 -200)"/><path class="cls-14" d="M701.71,539.49,801.22,482a2.13,2.13,0,0,0,0-3.69L701.71,420.9a9.38,9.38,0,0,0-9.42,0l-99.5,57.45a2.12,2.12,0,0,0,0,3.69l99.5,57.45A9.38,9.38,0,0,0,701.71,539.49Z" transform="translate(-549 -200)"/><path class="cls-15" d="M700.87,512.61l52.8-30.48c2.14-1.23,1.87-3.38-.6-4.81l-51.6-29.79c-2.46-1.42-6.2-1.58-8.34-.35l-52.8,30.48c-2.13,1.23-1.86,3.38.6,4.81l51.6,29.79C695,513.68,698.74,513.84,700.87,512.61Z" transform="translate(-549 -200)"/><g class="cls-16"><path class="cls-17" d="M700.87,512.61l52.8-30.48c2.14-1.23,1.87-3.38-.6-4.81l-51.6-29.79c-2.46-1.42-6.2-1.58-8.34-.35l-52.8,30.48c-2.13,1.23-1.86,3.38.6,4.81l51.6,29.79C695,513.68,698.74,513.84,700.87,512.61Z" transform="translate(-549 -200)"/><path class="cls-6" d="M753.67,482.12,749,484.8l-47.56-27.45c-2.46-1.43-6.2-1.59-8.34-.36L645,484.8l-4-2.33c-2.46-1.43-2.73-3.58-.6-4.81l52.8-30.48c2.14-1.23,5.88-1.07,8.34.35l51.6,29.79C755.54,478.74,755.81,480.89,753.67,482.12Z" transform="translate(-549 -200)"/></g><g class="cls-18"><path class="cls-19" d="M689.27,366.8l.55-.31c2-1.17,3.65.06,3.65,2.76V527.18c0,2.69-1.63,5.8-3.65,7l-.55.31c-2,1.17-3.65-.06-3.65-2.76V373.77C685.62,371.09,687.25,368,689.27,366.8Z" transform="translate(-549 -200)"/></g><g class="cls-20"><path class="cls-21" d="M674.56,400.46l.54-.31c2-1.17,3.66.06,3.66,2.76V535.67c0,2.69-1.63,5.8-3.66,7l-.54.31c-2,1.17-3.66-.06-3.66-2.76V407.43C670.9,404.75,672.54,401.63,674.56,400.46Z" transform="translate(-549 -200)"/></g><g class="cls-22"><path class="cls-23" d="M659.85,440.21l.54-.32c2-1.16,3.66.07,3.66,2.76v49.76c0,2.69-1.63,5.8-3.66,7l-.54.32c-2,1.16-3.66-.07-3.66-2.77V447.18C656.19,444.5,657.83,441.38,659.85,440.21Z" transform="translate(-549 -200)"/></g><g class="cls-24"><path class="cls-25" d="M645.27,462l.54-.32c2-1.16,3.66.07,3.66,2.77v19.08c0,2.69-1.63,5.8-3.66,7l-.54.32c-2,1.16-3.66-.07-3.66-2.77V469C641.61,466.32,643.25,463.2,645.27,462Z" transform="translate(-549 -200)"/></g><rect class="cls-8" x="89.69" y="158.83" width="1.9" height="4.62"/><rect class="cls-8" x="89.69" y="162.09" width="1.9" height="117.89"/><rect class="cls-8" x="89.69" y="278.62" width="1.9" height="4.62"/><rect class="cls-8" x="204.31" y="158.83" width="1.9" height="4.62"/><rect class="cls-8" x="204.31" y="162.09" width="1.9" height="117.89"/><rect class="cls-8" x="204.31" y="278.62" width="1.9" height="4.62"/><path class="cls-26" d="M638.9,200H755.11V479.89h0a2.42,2.42,0,0,1-1.43,2.23l-52.8,30.48c-2.14,1.23-5.87,1.07-8.34-.35l-51.6-29.79a3.52,3.52,0,0,1-2-2.58h0V200Z" transform="translate(-549 -200)"/><path class="cls-6" d="M709.53,271.64l3.9-2.25V264l-3.9,2.25Z" transform="translate(-549 -200)"/><path class="cls-6" d="M709.53,283.63l3.9-2.25V276l-3.9,2.25Z" transform="translate(-549 -200)"/><g class="cls-27"><g class="cls-27"><path class="cls-28" d="M728.86,248.5l11.63-6.71V228.37l-11.63,6.7Z" transform="translate(-549 -200)"/><path class="cls-28" d="M728.86,260.48l11.63-6.71v-5.36l-11.63,6.71Z" transform="translate(-549 -200)"/><path class="cls-28" d="M728.86,272.47l11.63-6.71v-5.37l-11.63,6.71Z" transform="translate(-549 -200)"/><path class="cls-28" d="M728.86,441.52l11.63-6.7v-5.36l-11.63,6.7Z" transform="translate(-549 -200)"/><path class="cls-28" d="M728.86,453.52l11.63-6.71v-5.37l-11.63,6.7Z" transform="translate(-549 -200)"/><path class="cls-28" d="M728.86,465.51l11.63-6.72v-5.36l-11.63,6.7Z" transform="translate(-549 -200)"/><path class="cls-28" d="M728.86,477.49l11.63-6.71v-5.36l-11.63,6.69Z" transform="translate(-549 -200)"/><path class="cls-28" d="M728.86,489.48l11.63-6.71V477.4l-11.63,6.71Z" transform="translate(-549 -200)"/><path class="cls-28" d="M728.86,319.17l11.63-6.72V272.38l-11.63,6.71Z" transform="translate(-549 -200)"/><path class="cls-28" d="M728.86,349.4l11.63-6.72V319.07l-11.63,6.71Z" transform="translate(-549 -200)"/><path class="cls-9" d="M745.8,355.59l5.86-3.39a5.3,5.3,0,0,0,2.66-4.6v-17a2.07,2.07,0,0,0-3.11-1.79l-5.85,3.39a5.3,5.3,0,0,0-2.66,4.6v17A2.07,2.07,0,0,0,745.8,355.59Z" transform="translate(-549 -200)"/><path class="cls-10" d="M759.65,363.61l5.85-3.38a5.32,5.32,0,0,0,2.66-4.61V338.67a2.06,2.06,0,0,0-3.1-1.79l-5.85,3.38a5.3,5.3,0,0,0-2.67,4.61v17A2.08,2.08,0,0,0,759.65,363.61Z" transform="translate(-549 -200)"/><path class="cls-11" d="M773.49,371.68l5.85-3.38a5.32,5.32,0,0,0,2.66-4.61V346.74a2.06,2.06,0,0,0-3.1-1.79l-5.85,3.38a5.3,5.3,0,0,0-2.66,4.61v17A2.07,2.07,0,0,0,773.49,371.68Z" transform="translate(-549 -200)"/><path class="cls-12" d="M787.33,380.37l5.85-3.38a5.32,5.32,0,0,0,2.66-4.61v-17a2.06,2.06,0,0,0-3.1-1.79L786.89,357a5.32,5.32,0,0,0-2.66,4.61v16.95A2.07,2.07,0,0,0,787.33,380.37Z" transform="translate(-549 -200)"/><path class="cls-28" d="M728.86,369.43l11.63-6.7V349.3L728.86,356Z" transform="translate(-549 -200)"/><path class="cls-28" d="M728.86,389.47l11.63-6.71V369.34l-11.63,6.71Z" transform="translate(-549 -200)"/><path class="cls-28" d="M728.86,409.5l11.63-6.71V389.38l-11.63,6.71Z" transform="translate(-549 -200)"/><path class="cls-28" d="M728.86,429.54l11.63-6.7V409.41l-11.63,6.72Z" transform="translate(-549 -200)"/></g><g class="cls-27"><path class="cls-28" d="M709.53,259.66l3.89-2.26V244l-3.89,2.25Z" transform="translate(-549 -200)"/><path class="cls-28" d="M709.53,271.64l3.89-2.25V264l-3.89,2.25Z" transform="translate(-549 -200)"/><path class="cls-28" d="M709.53,283.63l3.89-2.25V276l-3.89,2.25Z" transform="translate(-549 -200)"/><path class="cls-28" d="M709.53,452.69l3.89-2.25v-5.36l-3.89,2.24Z" transform="translate(-549 -200)"/><path class="cls-28" d="M709.53,464.68l3.89-2.25v-5.37l-3.89,2.24Z" transform="translate(-549 -200)"/><path class="cls-28" d="M709.53,476.67l3.89-2.26v-5.36l-3.89,2.25Z" transform="translate(-549 -200)"/><path class="cls-28" d="M709.53,488.65l3.89-2.25V481l-3.89,2.26Z" transform="translate(-549 -200)"/><path class="cls-28" d="M709.53,500.64l3.89-2.26V493l-3.89,2.25Z" transform="translate(-549 -200)"/><path class="cls-28" d="M709.53,330.32l3.89-2.25V288l-3.89,2.25Z" transform="translate(-549 -200)"/><path class="cls-28" d="M709.53,360.55l3.89-2.25V334.69L709.53,337Z" transform="translate(-549 -200)"/><path class="cls-28" d="M709.53,380.59l3.89-2.24V364.92l-3.89,2.26Z" transform="translate(-549 -200)"/><path class="cls-28" d="M709.53,400.63l3.89-2.25V385l-3.89,2.24Z" transform="translate(-549 -200)"/><path class="cls-28" d="M709.53,420.66l3.89-2.24V405l-3.89,2.25Z" transform="translate(-549 -200)"/><path class="cls-28" d="M709.53,440.71l3.89-2.25V425l-3.89,2.26Z" transform="translate(-549 -200)"/></g><g class="cls-27"><path class="cls-28" d="M723.35,479.25l-4.4,2.53V495.2l4.4-2.54Z" transform="translate(-549 -200)"/><path class="cls-28" d="M723.35,467.26,719,469.8v5.36l4.4-2.54Z" transform="translate(-549 -200)"/><path class="cls-28" d="M723.35,455.27l-4.4,2.54v5.36l4.4-2.53Z" transform="translate(-549 -200)"/><path class="cls-28" d="M723.35,286.21l-4.4,2.54v5.37l4.4-2.55Z" transform="translate(-549 -200)"/><path class="cls-28" d="M723.35,274.22l-4.4,2.55v5.36l4.4-2.54Z" transform="translate(-549 -200)"/><path class="cls-28" d="M723.35,262.24l-4.4,2.54v5.37l4.4-2.55Z" transform="translate(-549 -200)"/><path class="cls-28" d="M723.35,250.25l-4.4,2.54v5.37l4.4-2.54Z" transform="translate(-549 -200)"/><path class="cls-28" d="M723.35,238.27,719,240.8v5.38l4.4-2.55Z" transform="translate(-549 -200)"/><path class="cls-28" d="M723.35,408.58l-4.4,2.54v40.07l4.4-2.54Z" transform="translate(-549 -200)"/><path class="cls-28" d="M723.35,378.35l-4.4,2.53V404.5l4.4-2.54Z" transform="translate(-549 -200)"/><path class="cls-28" d="M723.35,358.3l-4.4,2.55v13.41l4.4-2.53Z" transform="translate(-549 -200)"/><path class="cls-28" d="M723.35,338.27l-4.4,2.54v13.42l4.4-2.55Z" transform="translate(-549 -200)"/><path class="cls-28" d="M723.35,318.23l-4.4,2.54V334.2l4.4-2.55Z" transform="translate(-549 -200)"/><path class="cls-28" d="M723.35,298.19l-4.4,2.55v13.41l4.4-2.53Z" transform="translate(-549 -200)"/></g></g><path class="cls-6" d="M728.86,441.52l11.63-6.7v-5.36l-11.63,6.7Z" transform="translate(-549 -200)"/><path class="cls-6" d="M728.86,409.51l11.63-6.72V389.38l-11.63,6.71Z" transform="translate(-549 -200)"/><path class="cls-6" d="M723.35,479.24l-4.4,2.54V495.2l4.4-2.54Z" transform="translate(-549 -200)"/><path class="cls-6" d="M787.78,368.31c0,1.45,1,2,2.27,1.31a5,5,0,0,0,2.26-3.93c0-1.45-1-2-2.26-1.31A5,5,0,0,0,787.78,368.31Z" transform="translate(-549 -200)"/><path class="cls-6" d="M773.93,359.62c0,1.44,1,2,2.26,1.31a5,5,0,0,0,2.27-3.93c0-1.45-1-2-2.27-1.31A5,5,0,0,0,773.93,359.62Z" transform="translate(-549 -200)"/><path class="cls-6" d="M760.09,351.55c0,1.44,1,2,2.26,1.31a5,5,0,0,0,2.27-3.93c0-1.45-1-2-2.27-1.31A5,5,0,0,0,760.09,351.55Z" transform="translate(-549 -200)"/><path class="cls-6" d="M746.25,343.52c0,1.45,1,2,2.26,1.31a5,5,0,0,0,2.26-3.92c0-1.45-1-2-2.26-1.32A5,5,0,0,0,746.25,343.52Z" transform="translate(-549 -200)"/><g class="cls-29"><path class="cls-30" d="M583.78,478l17.05-9.85v19.7l-17.05,9.84-17-9.84v-19.7Z" transform="translate(-549 -200)"/><path class="cls-30" d="M583.78,497.68l17.05-9.84v-19.7L583.78,478Z" transform="translate(-549 -200)"/><path class="cls-31" d="M566.73,487.84l17.06,9.84V478l-17.06-9.85Z" transform="translate(-549 -200)"/><path class="cls-30" d="M583.78,478l17.05-9.85-17.05-9.84-17,9.84Z" transform="translate(-549 -200)"/><path class="cls-30" d="M583.78,478l17.05-9.85V469l-17.05,9.84-17-9.84v-.86Z" transform="translate(-549 -200)"/></g><path class="cls-32" d="M583.78,466.05l17.05-9.85-17.05-9.83-17,9.83Z" transform="translate(-549 -200)"/><path class="cls-33" d="M583.78,431.45l17.05-9.85v19.7l-17.05,9.84-17-9.84V421.6Z" transform="translate(-549 -200)"/><path class="cls-33" d="M583.78,451.14l17.05-9.84V421.6l-17.05,9.85Z" transform="translate(-549 -200)"/><path class="cls-34" d="M566.73,441.3l17.06,9.84V431.45l-17.06-9.85Z" transform="translate(-549 -200)"/><path class="cls-33" d="M583.78,431.45l17.05-9.85-17.05-9.84-17,9.84Z" transform="translate(-549 -200)"/><path class="cls-34" d="M583.78,429l12.86-7.43-12.86-7.42-12.86,7.42Z" transform="translate(-549 -200)"/><path class="cls-33" d="M583.78,431.45l17.05-9.85v.85l-17.05,9.85-17-9.85v-.85Z" transform="translate(-549 -200)"/><path class="cls-33" d="M583.78,401.91l17.05-9.85v19.7l-17.05,9.84-17-9.84v-19.7Z" transform="translate(-549 -200)"/><path class="cls-33" d="M583.78,421.6l17.05-9.84v-19.7l-17.05,9.85Z" transform="translate(-549 -200)"/><path class="cls-34" d="M566.73,411.76l17.06,9.84V401.91l-17.06-9.85Z" transform="translate(-549 -200)"/><path class="cls-33" d="M583.78,401.91l17.05-9.85-17.05-9.84-17,9.84Z" transform="translate(-549 -200)"/><path class="cls-33" d="M583.78,401.91l17.05-9.85v.86l-17.05,9.84-17-9.84v-.86Z" transform="translate(-549 -200)"/><g class="cls-29"><path class="cls-35" d="M799.57,468.19,817,458.27v19.84L799.57,488l-17.42-9.92V458.27Z" transform="translate(-549 -200)"/><path class="cls-35" d="M799.57,488,817,478.11V458.27l-17.43,9.92Z" transform="translate(-549 -200)"/><path class="cls-36" d="M782.15,478.11,799.57,488V468.19l-17.42-9.92Z" transform="translate(-549 -200)"/><path class="cls-35" d="M799.57,468.19,817,458.27l-17.43-9.92-17.42,9.92Z" transform="translate(-549 -200)"/><path class="cls-30" d="M799.57,468.19,817,458.27v.86l-17.43,9.92-17.42-9.92v-.86Z" transform="translate(-549 -200)"/></g><path class="cls-32" d="M799.57,456.17,817,446.25l-17.43-9.92-17.42,9.92Z" transform="translate(-549 -200)"/><path class="cls-37" d="M799.57,421.3,817,411.38v19.84l-17.43,9.92-17.42-9.92V411.38Z" transform="translate(-549 -200)"/><path class="cls-38" d="M799.57,441.14,817,431.22V411.38l-17.43,9.92Z" transform="translate(-549 -200)"/><path class="cls-34" d="M782.15,431.22l17.42,9.92V421.3l-17.42-9.92Z" transform="translate(-549 -200)"/><path class="cls-33" d="M799.57,421.3,817,411.38l-17.43-9.92-17.42,9.92Z" transform="translate(-549 -200)"/><path class="cls-33" d="M799.57,421.3,817,411.38v.86l-17.43,9.91-17.42-9.91v-.86Z" transform="translate(-549 -200)"/><g class="cls-29"><path class="cls-35" d="M566.43,547.41l17.42-9.92v19.84l-17.42,9.92L549,557.33V537.49Z" transform="translate(-549 -200)"/><path class="cls-35" d="M566.43,567.25l17.42-9.92V537.49l-17.42,9.92Z" transform="translate(-549 -200)"/><path class="cls-36" d="M549,557.33l17.43,9.92V547.41L549,537.49Z" transform="translate(-549 -200)"/><path class="cls-35" d="M566.43,547.41l17.42-9.92-17.42-9.92L549,537.49Z" transform="translate(-549 -200)"/><path class="cls-30" d="M566.43,547.41l17.42-9.92v.87l-17.42,9.92L549,538.36v-.87Z" transform="translate(-549 -200)"/></g><path class="cls-32" d="M566.43,535.39l17.42-9.92-17.42-9.92L549,525.47Z" transform="translate(-549 -200)"/><path class="cls-37" d="M566.43,500.52l17.42-9.92v19.84l-17.42,9.92L549,510.44V490.6Z" transform="translate(-549 -200)"/><path class="cls-38" d="M566.43,520.36l17.42-9.92V490.6l-17.42,9.92Z" transform="translate(-549 -200)"/><path class="cls-34" d="M549,510.44l17.43,9.92V500.52L549,490.6Z" transform="translate(-549 -200)"/><path class="cls-33" d="M566.43,500.52l17.42-9.92-17.42-9.92L549,490.6Z" transform="translate(-549 -200)"/><path class="cls-33" d="M566.43,500.52l17.42-9.92v.87l-17.42,9.91L549,491.47v-.87Z" transform="translate(-549 -200)"/></svg>