<svg id="Слой_1" data-name="Слой 1" xmlns="http://www.w3.org/2000/svg" xmlns:xlink="http://www.w3.org/1999/xlink" viewBox="0 0 322.14 266.98"><defs><style>.cls-1,.cls-16,.cls-18,.cls-23,.cls-3,.cls-7{fill:#fff;}.cls-2,.cls-21,.cls-3,.cls-4{opacity:0.1;}.cls-13,.cls-14,.cls-15,.cls-16,.cls-17,.cls-18,.cls-19,.cls-21,.cls-23,.cls-24,.cls-25,.cls-3,.cls-4,.cls-5,.cls-7,.cls-8,.cls-9{isolation:isolate;}.cls-20,.cls-4{fill:#ccc7bf;}.cls-5{fill:#b5b0a8;opacity:0.7;}.cls-24,.cls-6,.cls-7,.cls-8,.cls-9{opacity:0.2;}.cls-8{fill:url(#Безымянный_градиент_3);}.cls-11,.cls-14,.cls-9{fill:#f0f1f1;}.cls-10{fill:url(#Безымянный_градиент_2);}.cls-12{fill:#0f054c;}.cls-13,.cls-14,.cls-15,.cls-16,.cls-17{opacity:0.5;}.cls-13{fill:url(#Безымянный_градиент_4);}.cls-15{fill:#07306d;}.cls-17{fill:url(#Безымянный_градиент_4-2);}.cls-18{opacity:0.8;}.cls-19{fill:#03002d;}.cls-19,.cls-23,.cls-25{opacity:0.4;}.cls-21,.cls-22{fill:#e4dfd6;}.cls-24{fill:url(#Безымянный_градиент_5);}.cls-25,.cls-26{fill:#42e8e0;}</style><linearGradient id="Безымянный_градиент_3" x1="548.1" y1="349.66" x2="755.09" y2="349.66" gradientTransform="matrix(1, 0, 0, -1, 0, 770)" gradientUnits="userSpaceOnUse"><stop offset="0" stop-color="#5761d7"/><stop offset="0.16" stop-color="#5e67da"/><stop offset="0.41" stop-color="#727ae2"/><stop offset="0.69" stop-color="#9297ee"/><stop offset="1" stop-color="#bcbeff"/></linearGradient><linearGradient id="Безымянный_градиент_2" x1="548.1" y1="369.38" x2="755.09" y2="369.38" gradientTransform="matrix(1, 0, 0, -1, 0, 770)" gradientUnits="userSpaceOnUse"><stop offset="0" stop-color="#aea9a2"/><stop offset="0.16" stop-color="#ccc7bf"/><stop offset="0.41" stop-color="#ccc7bf"/><stop offset="0.69" stop-color="#d2cec5"/><stop offset="1" stop-color="#e7e2d9"/></linearGradient><linearGradient id="Безымянный_градиент_4" x1="628.86" y1="360.57" x2="749.61" y2="471.8" gradientTransform="matrix(1, 0, 0, -1, 0, 770)" gradientUnits="userSpaceOnUse"><stop offset="0" stop-color="#4b79ce"/><stop offset="0.41" stop-color="#426ab3"/><stop offset="1" stop-color="#2b4a81"/></linearGradient><linearGradient id="Безымянный_градиент_4-2" x1="613.79" y1="366.33" x2="686.21" y2="419.6" xlink:href="#Безымянный_градиент_4"/><linearGradient id="Безымянный_градиент_5" x1="669.52" y1="418.65" x2="668.02" y2="510.15" gradientTransform="matrix(1, 0, 0, -1, 0, 770)" gradientUnits="userSpaceOnUse"><stop offset="0" stop-color="#87b0d6"/><stop offset="1" stop-color="#f0f1f1" stop-opacity="0"/></linearGradient></defs><title>tech-5</title><path class="cls-1" d="M704.8,335.88l-.16-.27,34.84-20.27.08,0,36,19.76-.16.28L739.49,315.7Z" transform="translate(-521 -250.92)"/><g class="cls-2"><g class="cls-2"><path class="cls-3" d="M668.8,432.24l-15.07-8.7v17.4l15.07,8.7,15.07-8.7v-17.4Z" transform="translate(-521 -250.92)"/><path class="cls-3" d="M668.8,449.64l-15.07-8.7v-17.4l15.07,8.7Z" transform="translate(-521 -250.92)"/><path class="cls-4" d="M683.87,440.94l-15.07,8.7v-17.4l15.07-8.7Z" transform="translate(-521 -250.92)"/><path class="cls-3" d="M668.8,432.24l-15.07-8.7,15.07-8.7,15.07,8.7Z" transform="translate(-521 -250.92)"/><path class="cls-3" d="M668.8,432.24l-14.41-8.32-.66.38L668.8,433l15.07-8.7-.65-.38Z" transform="translate(-521 -250.92)"/></g><g class="cls-2"><path class="cls-3" d="M688.37,443.41l-15.06-8.7v17.4l15.06,8.7,15.07-8.7v-17.4Z" transform="translate(-521 -250.92)"/><path class="cls-3" d="M688.37,460.81l-15.06-8.7v-17.4l15.06,8.7Z" transform="translate(-521 -250.92)"/><path class="cls-4" d="M703.44,452.11l-15.07,8.7v-17.4l15.07-8.7Z" transform="translate(-521 -250.92)"/><path class="cls-3" d="M688.37,443.41l-15.06-8.7,15.06-8.7,15.07,8.7Z" transform="translate(-521 -250.92)"/><path class="cls-3" d="M688.37,443.41,674,435.09l-.65.37,15.06,8.7,15.07-8.7-.65-.37Z" transform="translate(-521 -250.92)"/></g><g class="cls-2"><path class="cls-3" d="M708,454.58l-15.07-8.7v17.4L708,472,723,463.28v-17.4Z" transform="translate(-521 -250.92)"/><path class="cls-3" d="M708,472l-15.07-8.69v-17.4l15.07,8.7Z" transform="translate(-521 -250.92)"/><path class="cls-4" d="M723,463.28,708,472V454.58l15.06-8.7Z" transform="translate(-521 -250.92)"/><path class="cls-3" d="M708,454.58l-15.07-8.7,15.06-8.7,15.07,8.7Z" transform="translate(-521 -250.92)"/><path class="cls-3" d="M708,454.58l-14.42-8.33-.65.38,15.07,8.7,15.06-8.7v-.75Z" transform="translate(-521 -250.92)"/></g><g class="cls-2"><path class="cls-3" d="M649.23,444.16l-15.07-8.7v17.4l15.07,8.7,15.07-8.7v-17.4Z" transform="translate(-521 -250.92)"/><path class="cls-3" d="M649.23,461.56l-15.07-8.7v-17.4l15.07,8.7Z" transform="translate(-521 -250.92)"/><path class="cls-4" d="M664.3,452.86l-15.07,8.7v-17.4l15.07-8.7Z" transform="translate(-521 -250.92)"/><path class="cls-3" d="M649.23,444.16l-15.07-8.7,15.07-8.69,15.07,8.7Z" transform="translate(-521 -250.92)"/><path class="cls-3" d="M649.23,444.16l-14.41-8.32-.66.38,15.07,8.7,15.07-8.7-.66-.38Z" transform="translate(-521 -250.92)"/></g><g class="cls-2"><path class="cls-3" d="M668.8,455.33l-15.07-8.7V464l15.07,8.7,15.07-8.7v-17.4Z" transform="translate(-521 -250.92)"/><path class="cls-3" d="M668.8,472.73,653.73,464v-17.4l15.07,8.7Z" transform="translate(-521 -250.92)"/><path class="cls-4" d="M683.87,464l-15.07,8.7v-17.4l15.07-8.7Z" transform="translate(-521 -250.92)"/><path class="cls-3" d="M668.8,455.33l-15.07-8.7,15.07-8.7,15.07,8.7Z" transform="translate(-521 -250.92)"/><path class="cls-3" d="M668.8,455.33,654.39,447l-.66.38,15.07,8.7,15.07-8.7-.65-.38Z" transform="translate(-521 -250.92)"/></g><g class="cls-2"><path class="cls-3" d="M688.37,466.5l-15.06-8.7v17.4l15.06,8.7,15.07-8.7V457.8Z" transform="translate(-521 -250.92)"/><path class="cls-3" d="M688.37,483.9l-15.06-8.7V457.8l15.06,8.7Z" transform="translate(-521 -250.92)"/><path class="cls-4" d="M703.44,475.2l-15.07,8.7V466.5l15.07-8.7Z" transform="translate(-521 -250.92)"/><path class="cls-3" d="M688.37,466.5l-15.06-8.7,15.06-8.7,15.07,8.7Z" transform="translate(-521 -250.92)"/><path class="cls-3" d="M688.37,466.5,674,458.18l-.65.37,15.06,8.7,15.07-8.7v-.75Z" transform="translate(-521 -250.92)"/></g><g class="cls-2"><path class="cls-3" d="M629.66,456.09l-15.07-8.7v17.39l15.07,8.7,15.07-8.7V447.39Z" transform="translate(-521 -250.92)"/><path class="cls-3" d="M629.66,473.48l-15.07-8.7V447.39l15.07,8.7Z" transform="translate(-521 -250.92)"/><path class="cls-4" d="M644.73,464.78l-15.07,8.7V456.09l15.07-8.7Z" transform="translate(-521 -250.92)"/><path class="cls-3" d="M629.66,456.09l-15.07-8.7,15.07-8.7,15.06,8.7Z" transform="translate(-521 -250.92)"/><path class="cls-3" d="M629.66,456.09l-15.07-8.7v.75l15.07,8.7,15.06-8.7-.65-.38Z" transform="translate(-521 -250.92)"/></g><g class="cls-2"><path class="cls-3" d="M649.23,467.25l-15.07-8.7V476l15.07,8.7L664.3,476v-17.4Z" transform="translate(-521 -250.92)"/><path class="cls-3" d="M649.23,484.65,634.16,476v-17.4l15.07,8.7Z" transform="translate(-521 -250.92)"/><path class="cls-4" d="M664.3,476l-15.07,8.7v-17.4l15.07-8.7Z" transform="translate(-521 -250.92)"/><path class="cls-3" d="M649.23,467.25l-15.07-8.7,15.07-8.7,15.07,8.7Z" transform="translate(-521 -250.92)"/><path class="cls-3" d="M649.23,467.25l-15.07-8.7v.76l15.07,8.7,15.07-8.7-.66-.38Z" transform="translate(-521 -250.92)"/></g><g class="cls-2"><path class="cls-3" d="M668.8,478.42l-15.07-8.7v17.4l15.07,8.7,15.07-8.7v-17.4Z" transform="translate(-521 -250.92)"/><path class="cls-3" d="M668.8,495.82l-15.07-8.7v-17.4l15.07,8.7Z" transform="translate(-521 -250.92)"/><path class="cls-4" d="M683.87,487.12l-15.07,8.7v-17.4l15.07-8.7Z" transform="translate(-521 -250.92)"/><path class="cls-3" d="M668.8,478.42l-15.07-8.7L668.8,461l15.07,8.7Z" transform="translate(-521 -250.92)"/><path class="cls-3" d="M668.8,478.42l-15.07-8.7v.76l15.07,8.7,15.07-8.7v-.76Z" transform="translate(-521 -250.92)"/></g><g class="cls-2"><path class="cls-3" d="M668.8,409.15l-15.07-8.7v17.4l15.07,8.7,15.07-8.7v-17.4Z" transform="translate(-521 -250.92)"/><path class="cls-3" d="M668.8,426.55l-15.07-8.7v-17.4l15.07,8.7Z" transform="translate(-521 -250.92)"/><path class="cls-4" d="M683.87,417.85l-15.07,8.7v-17.4l15.07-8.7Z" transform="translate(-521 -250.92)"/><path class="cls-3" d="M668.8,409.15l-15.07-8.7,15.07-8.7,15.07,8.7Z" transform="translate(-521 -250.92)"/><path class="cls-3" d="M668.8,409.15l-14.41-8.32-.66.38,15.07,8.7,15.07-8.7-.65-.38Z" transform="translate(-521 -250.92)"/></g><g class="cls-2"><path class="cls-5" d="M668.8,475.59l-10.28-5.94,10.28-5.93,10.28,5.93Z" transform="translate(-521 -250.92)"/><path class="cls-5" d="M649.23,464.42,639,458.49l10.28-5.94,10.28,5.94Z" transform="translate(-521 -250.92)"/><path class="cls-5" d="M688.37,463.66l-10.28-5.93,10.28-5.93,10.28,5.93Z" transform="translate(-521 -250.92)"/><path class="cls-5" d="M708,451.88,697.7,446,708,440,718.26,446Z" transform="translate(-521 -250.92)"/><path class="cls-5" d="M629.66,453.25l-10.28-5.93,10.28-5.94,10.28,5.94Z" transform="translate(-521 -250.92)"/></g><g class="cls-2"><path class="cls-3" d="M688.37,420.32l-15.06-8.7V429l15.06,8.7,15.07-8.7v-17.4Z" transform="translate(-521 -250.92)"/><path class="cls-3" d="M688.37,437.72,673.31,429v-17.4l15.06,8.7Z" transform="translate(-521 -250.92)"/><path class="cls-4" d="M703.44,429l-15.07,8.7v-17.4l15.07-8.7Z" transform="translate(-521 -250.92)"/><path class="cls-3" d="M688.37,420.32l-15.06-8.7,15.06-8.7,15.07,8.7Z" transform="translate(-521 -250.92)"/><path class="cls-3" d="M688.37,420.32,674,412l-.65.38,15.06,8.69,15.07-8.69-.65-.38Z" transform="translate(-521 -250.92)"/></g><g class="cls-2"><path class="cls-3" d="M708,431.49l-15.07-8.7v17.4l15.07,8.7,15.06-8.7v-17.4Z" transform="translate(-521 -250.92)"/><path class="cls-3" d="M708,448.89l-15.07-8.7v-17.4l15.07,8.7Z" transform="translate(-521 -250.92)"/><path class="cls-4" d="M723,440.19,708,448.89v-17.4l15.06-8.7Z" transform="translate(-521 -250.92)"/><path class="cls-3" d="M708,431.49l-15.07-8.7,15.06-8.7,15.07,8.7Z" transform="translate(-521 -250.92)"/><path class="cls-3" d="M708,431.49l-14.42-8.32-.65.37,15.07,8.7,15.06-8.7v-.75Z" transform="translate(-521 -250.92)"/></g><g class="cls-2"><path class="cls-3" d="M649.23,421.08l-15.07-8.7v17.39l15.07,8.7,15.07-8.7V412.38Z" transform="translate(-521 -250.92)"/><path class="cls-3" d="M649.23,438.47l-15.07-8.7V412.38l15.07,8.7Z" transform="translate(-521 -250.92)"/><path class="cls-4" d="M664.3,429.77l-15.07,8.7V421.08l15.07-8.7Z" transform="translate(-521 -250.92)"/><path class="cls-3" d="M649.23,421.08l-15.07-8.7,15.07-8.7,15.07,8.7Z" transform="translate(-521 -250.92)"/><path class="cls-3" d="M649.23,421.08l-14.41-8.33-.66.38,15.07,8.7,15.07-8.7-.66-.38Z" transform="translate(-521 -250.92)"/></g><g class="cls-2"><path class="cls-3" d="M668.8,432.24l-15.07-8.7v17.4l15.07,8.7,15.07-8.7v-17.4Z" transform="translate(-521 -250.92)"/><path class="cls-3" d="M668.8,449.64l-15.07-8.7v-17.4l15.07,8.7Z" transform="translate(-521 -250.92)"/><path class="cls-4" d="M683.87,440.94l-15.07,8.7v-17.4l15.07-8.7Z" transform="translate(-521 -250.92)"/><path class="cls-3" d="M668.8,432.24l-15.07-8.7,15.07-8.7,15.07,8.7Z" transform="translate(-521 -250.92)"/><path class="cls-3" d="M668.8,432.24l-14.41-8.32-.66.38L668.8,433l15.07-8.7-.65-.38Z" transform="translate(-521 -250.92)"/></g><g class="cls-2"><path class="cls-3" d="M688.37,443.41l-15.06-8.7v17.4l15.06,8.7,15.07-8.7v-17.4Z" transform="translate(-521 -250.92)"/><path class="cls-3" d="M688.37,460.81l-15.06-8.7v-17.4l15.06,8.7Z" transform="translate(-521 -250.92)"/><path class="cls-4" d="M703.44,452.11l-15.07,8.7v-17.4l15.07-8.7Z" transform="translate(-521 -250.92)"/><path class="cls-3" d="M688.37,443.41l-15.06-8.7,15.06-8.7,15.07,8.7Z" transform="translate(-521 -250.92)"/><path class="cls-3" d="M688.37,443.41,674,435.09l-.65.37,15.06,8.7,15.07-8.69v-.76Z" transform="translate(-521 -250.92)"/></g><g class="cls-2"><path class="cls-3" d="M629.66,433l-15.07-8.7v17.4l15.07,8.7,15.07-8.7V424.3Z" transform="translate(-521 -250.92)"/><path class="cls-3" d="M629.66,450.4l-15.07-8.7V424.3l15.07,8.7Z" transform="translate(-521 -250.92)"/><path class="cls-4" d="M644.73,441.7l-15.07,8.7V433l15.07-8.7Z" transform="translate(-521 -250.92)"/><path class="cls-3" d="M629.66,433l-15.07-8.7,15.07-8.7,15.06,8.7Z" transform="translate(-521 -250.92)"/><path class="cls-3" d="M629.66,433l-14.42-8.33-.65.38,15.07,8.7,15.06-8.7-.65-.37Z" transform="translate(-521 -250.92)"/></g><g class="cls-2"><path class="cls-3" d="M649.23,444.16l-15.07-8.7v17.4l15.07,8.7,15.07-8.7v-17.4Z" transform="translate(-521 -250.92)"/><path class="cls-3" d="M649.23,461.56l-15.07-8.7v-17.4l15.07,8.7Z" transform="translate(-521 -250.92)"/><path class="cls-4" d="M664.3,452.86l-15.07,8.7v-17.4l15.07-8.7Z" transform="translate(-521 -250.92)"/><path class="cls-3" d="M649.23,444.16l-15.07-8.7,15.07-8.69,15.07,8.7Z" transform="translate(-521 -250.92)"/><path class="cls-3" d="M649.23,444.16l-15.07-8.7v.76l15.07,8.7,15.07-8.7-.66-.38Z" transform="translate(-521 -250.92)"/></g><g class="cls-2"><path class="cls-3" d="M668.8,455.33l-15.07-8.7V464l15.07,8.7,15.07-8.7v-17.4Z" transform="translate(-521 -250.92)"/><path class="cls-3" d="M668.8,472.73,653.73,464v-17.4l15.07,8.7Z" transform="translate(-521 -250.92)"/><path class="cls-4" d="M683.87,464l-15.07,8.7v-17.4l15.07-8.7Z" transform="translate(-521 -250.92)"/><path class="cls-3" d="M668.8,455.33l-15.07-8.7,15.07-8.7,15.07,8.7Z" transform="translate(-521 -250.92)"/><path class="cls-3" d="M668.8,455.33l-15.07-8.7v.76l15.07,8.7,15.07-8.7v-.76Z" transform="translate(-521 -250.92)"/></g><g class="cls-2"><path class="cls-5" d="M708,428.89,697.7,423,708,417,718.26,423Z" transform="translate(-521 -250.92)"/><path class="cls-5" d="M629.66,430.27l-10.28-5.94,10.28-5.93,10.28,5.93Z" transform="translate(-521 -250.92)"/></g><g class="cls-2"><path class="cls-3" d="M668.8,386.06l-15.07-8.7v17.4l15.07,8.7,15.07-8.7v-17.4Z" transform="translate(-521 -250.92)"/><path class="cls-3" d="M668.8,403.46l-15.07-8.7v-17.4l15.07,8.7Z" transform="translate(-521 -250.92)"/><path class="cls-4" d="M683.87,394.76l-15.07,8.7v-17.4l15.07-8.7Z" transform="translate(-521 -250.92)"/><path class="cls-3" d="M668.8,386.06l-15.07-8.7,15.07-8.69,15.07,8.7Z" transform="translate(-521 -250.92)"/><path class="cls-3" d="M668.8,386.06l-15.07-8.7v.76l15.07,8.7,15.07-8.7v-.76Z" transform="translate(-521 -250.92)"/></g><g class="cls-2"><path class="cls-3" d="M688.37,397.23l-15.06-8.7v17.4l15.06,8.7,15.07-8.7v-17.4Z" transform="translate(-521 -250.92)"/><path class="cls-3" d="M688.37,414.63l-15.06-8.7v-17.4l15.06,8.7Z" transform="translate(-521 -250.92)"/><path class="cls-4" d="M703.44,405.93l-15.07,8.7v-17.4l15.07-8.7Z" transform="translate(-521 -250.92)"/><path class="cls-3" d="M688.37,397.23l-15.06-8.7,15.06-8.7,15.07,8.7Z" transform="translate(-521 -250.92)"/><path class="cls-3" d="M688.37,397.23l-15.06-8.7v.76l15.06,8.7,15.07-8.7v-.76Z" transform="translate(-521 -250.92)"/></g><g class="cls-2"><path class="cls-3" d="M708,408.4l-15.07-8.7v17.4L708,425.8,723,417.1V399.7Z" transform="translate(-521 -250.92)"/><path class="cls-3" d="M708,425.8l-15.07-8.7V399.7L708,408.4Z" transform="translate(-521 -250.92)"/><path class="cls-4" d="M723,417.1,708,425.8V408.4L723,399.7Z" transform="translate(-521 -250.92)"/><path class="cls-3" d="M708,408.4l-15.07-8.7,15.06-8.7L723,399.7Z" transform="translate(-521 -250.92)"/><path class="cls-3" d="M708,408.4l-15.07-8.7v.75l15.07,8.7,15.06-8.7v-.75Z" transform="translate(-521 -250.92)"/></g><g class="cls-2"><path class="cls-3" d="M649.23,398l-15.07-8.7v17.39l15.07,8.7,15.07-8.7V389.29Z" transform="translate(-521 -250.92)"/><path class="cls-3" d="M649.23,415.38l-15.07-8.7V389.29l15.07,8.7Z" transform="translate(-521 -250.92)"/><path class="cls-4" d="M664.3,406.68l-15.07,8.7V398l15.07-8.7Z" transform="translate(-521 -250.92)"/><path class="cls-3" d="M649.23,398l-15.07-8.7,15.07-8.7,15.07,8.7Z" transform="translate(-521 -250.92)"/><path class="cls-3" d="M649.23,398l-15.07-8.7V390l15.07,8.7L664.3,390v-.75Z" transform="translate(-521 -250.92)"/></g><g class="cls-2"><path class="cls-3" d="M629.66,409.91l-15.07-8.7v17.4l15.07,8.7,15.07-8.7v-17.4Z" transform="translate(-521 -250.92)"/><path class="cls-3" d="M629.66,427.31l-15.07-8.7v-17.4l15.07,8.7Z" transform="translate(-521 -250.92)"/><path class="cls-4" d="M644.73,418.61l-15.07,8.7v-17.4l15.07-8.7Z" transform="translate(-521 -250.92)"/><path class="cls-3" d="M629.66,409.91l-15.07-8.7,15.07-8.7,15.06,8.7Z" transform="translate(-521 -250.92)"/><path class="cls-3" d="M629.66,409.91l-15.07-8.7V402l15.07,8.7,15.06-8.7v-.75Z" transform="translate(-521 -250.92)"/></g></g><g class="cls-6"><g class="cls-6"><path class="cls-7" d="M689,454.3l-10.51-6.07a7.24,7.24,0,0,1-3.27-5.67V440a6.9,6.9,0,0,0-3.11-5.39l-2.2-1.27.16-.27,2.2,1.27a7.26,7.26,0,0,1,3.27,5.67v2.53a6.9,6.9,0,0,0,3.11,5.39L689.16,454Z" transform="translate(-521 -250.92)"/><path class="cls-7" d="M693.09,451.94l-10.51-6.07a7.24,7.24,0,0,1-3.27-5.67v-2.54a6.9,6.9,0,0,0-3.11-5.39L674,431l.16-.27,2.2,1.27a7.24,7.24,0,0,1,3.27,5.67v2.54a6.9,6.9,0,0,0,3.11,5.39l10.51,6.07Z" transform="translate(-521 -250.92)"/><path class="cls-7" d="M697.18,449.58l-10.51-6.07a7.24,7.24,0,0,1-3.27-5.67V435.3a6.9,6.9,0,0,0-3.11-5.39l-2.2-1.27.16-.27,2.2,1.27a7.24,7.24,0,0,1,3.27,5.67v2.54a6.9,6.9,0,0,0,3.11,5.39l10.51,6.07Z" transform="translate(-521 -250.92)"/><path class="cls-7" d="M701.27,447.23l-10.51-6.07a7.24,7.24,0,0,1-3.27-5.67V433a6.9,6.9,0,0,0-3.11-5.39l-2.2-1.27.16-.27,2.2,1.27a7.26,7.26,0,0,1,3.27,5.67v2.53a6.9,6.9,0,0,0,3.11,5.39L701.43,447Z" transform="translate(-521 -250.92)"/><path class="cls-7" d="M705.35,444.87l-10.51-6.07a7.24,7.24,0,0,1-3.27-5.67v-2.54a6.9,6.9,0,0,0-3.11-5.39l-2.2-1.27.16-.27,2.2,1.27a7.24,7.24,0,0,1,3.27,5.67v2.54a6.9,6.9,0,0,0,3.11,5.39l10.51,6.07Z" transform="translate(-521 -250.92)"/><path class="cls-7" d="M709.44,442.52l-10.51-6.07a7.24,7.24,0,0,1-3.27-5.67v-2.54a6.9,6.9,0,0,0-3.11-5.39l-2.2-1.27.16-.27,2.2,1.27a7.24,7.24,0,0,1,3.27,5.67v2.54a6.9,6.9,0,0,0,3.11,5.39l10.51,6.07Z" transform="translate(-521 -250.92)"/><path class="cls-7" d="M713.53,440.16,703,434.09a7.24,7.24,0,0,1-3.27-5.67v-2.53a6.9,6.9,0,0,0-3.11-5.39l-2.2-1.27.16-.27,2.2,1.27a7.26,7.26,0,0,1,3.27,5.67v2.53a6.9,6.9,0,0,0,3.11,5.39l10.51,6.07Z" transform="translate(-521 -250.92)"/><path class="cls-7" d="M717.62,437.8l-10.51-6.07a7.24,7.24,0,0,1-3.27-5.67v-2.54a6.9,6.9,0,0,0-3.11-5.39l-2.2-1.27.16-.27,2.2,1.27a7.24,7.24,0,0,1,3.27,5.67v2.54a6.9,6.9,0,0,0,3.11,5.39l10.51,6.07Z" transform="translate(-521 -250.92)"/><path class="cls-7" d="M721.71,435.45l-10.51-6.07a7.24,7.24,0,0,1-3.27-5.67v-2.54a6.9,6.9,0,0,0-3.11-5.39l-2.2-1.27.16-.27,2.2,1.27a7.24,7.24,0,0,1,3.27,5.67v2.54a6.9,6.9,0,0,0,3.11,5.39l10.51,6.07Z" transform="translate(-521 -250.92)"/><path class="cls-7" d="M725.79,433.09,715.28,427a7.24,7.24,0,0,1-3.27-5.67v-2.53a6.9,6.9,0,0,0-3.11-5.39l-2.2-1.27.16-.27,2.2,1.27a7.24,7.24,0,0,1,3.27,5.67v2.53a6.9,6.9,0,0,0,3.11,5.39L726,432.82Z" transform="translate(-521 -250.92)"/><path class="cls-7" d="M729.88,430.74l-10.51-6.07A7.24,7.24,0,0,1,716.1,419v-2.54a6.9,6.9,0,0,0-3.11-5.39l-2.2-1.27.16-.27,2.2,1.27a7.24,7.24,0,0,1,3.27,5.67V419a6.9,6.9,0,0,0,3.11,5.39L730,430.47Z" transform="translate(-521 -250.92)"/><path class="cls-7" d="M734,428.38l-10.51-6.07a7.24,7.24,0,0,1-3.27-5.67v-2.53a6.9,6.9,0,0,0-3.11-5.39l-2.2-1.27.16-.27,2.2,1.27a7.24,7.24,0,0,1,3.27,5.67v2.53a6.9,6.9,0,0,0,3.11,5.39l10.51,6.07Z" transform="translate(-521 -250.92)"/><path class="cls-7" d="M738.06,426,727.55,420a7.24,7.24,0,0,1-3.27-5.67v-2.53a6.9,6.9,0,0,0-3.11-5.39L719,405.1l.16-.27,2.2,1.27a7.24,7.24,0,0,1,3.27,5.67v2.53a6.9,6.9,0,0,0,3.11,5.39l10.51,6.07Z" transform="translate(-521 -250.92)"/><path class="cls-7" d="M742.15,423.67l-10.51-6.07a7.24,7.24,0,0,1-3.27-5.67v-2.54a6.9,6.9,0,0,0-3.11-5.39l-2.2-1.27.16-.27,2.2,1.27a7.24,7.24,0,0,1,3.27,5.67v2.54a6.9,6.9,0,0,0,3.11,5.39l10.51,6.07Z" transform="translate(-521 -250.92)"/><path class="cls-7" d="M746.23,421.31l-10.51-6.07a7.24,7.24,0,0,1-3.27-5.67V407a6.9,6.9,0,0,0-3.11-5.39l-2.2-1.27.16-.27,2.2,1.27a7.24,7.24,0,0,1,3.27,5.67v2.53a6.9,6.9,0,0,0,3.11,5.39L746.39,421Z" transform="translate(-521 -250.92)"/><path class="cls-7" d="M750.32,419l-10.51-6.07a7.24,7.24,0,0,1-3.27-5.67v-2.54a6.9,6.9,0,0,0-3.11-5.39l-2.2-1.27.16-.27,2.2,1.27a7.24,7.24,0,0,1,3.27,5.67v2.54a6.9,6.9,0,0,0,3.11,5.39l10.51,6.07Z" transform="translate(-521 -250.92)"/><path class="cls-7" d="M754.41,416.6l-10.51-6.07a7.24,7.24,0,0,1-3.27-5.67v-2.54a6.9,6.9,0,0,0-3.11-5.39l-2.2-1.27.16-.27,2.2,1.27a7.24,7.24,0,0,1,3.27,5.67v2.54a6.9,6.9,0,0,0,3.11,5.39l10.51,6.07Z" transform="translate(-521 -250.92)"/><path class="cls-7" d="M758.5,414.25,748,408.18a7.24,7.24,0,0,1-3.27-5.67V400a6.9,6.9,0,0,0-3.11-5.39l-2.2-1.27.16-.27,2.2,1.27A7.24,7.24,0,0,1,745,400v2.53a6.9,6.9,0,0,0,3.11,5.39L758.66,414Z" transform="translate(-521 -250.92)"/><path class="cls-7" d="M762.59,411.89l-10.51-6.07a7.24,7.24,0,0,1-3.27-5.67v-2.54a6.9,6.9,0,0,0-3.11-5.39L743.5,391l.16-.27,2.2,1.27a7.24,7.24,0,0,1,3.27,5.67v2.54a6.9,6.9,0,0,0,3.11,5.39l10.51,6.07Z" transform="translate(-521 -250.92)"/><path class="cls-7" d="M766.68,409.54l-10.51-6.07a7.24,7.24,0,0,1-3.27-5.67v-2.54a6.9,6.9,0,0,0-3.11-5.39l-2.2-1.27.16-.27,2.2,1.27a7.24,7.24,0,0,1,3.27,5.67v2.54a6.9,6.9,0,0,0,3.11,5.39l10.51,6.07Z" transform="translate(-521 -250.92)"/></g><g class="cls-6"><path class="cls-7" d="M648.31,454.3l-.16-.27L658.66,448a6.88,6.88,0,0,0,3.11-5.39V440a7.26,7.26,0,0,1,3.27-5.67l2.2-1.27.16.27-2.2,1.27a6.88,6.88,0,0,0-3.11,5.39v2.53a7.26,7.26,0,0,1-3.27,5.67Z" transform="translate(-521 -250.92)"/><path class="cls-7" d="M644.23,451.94l-.16-.27,10.51-6.07a6.88,6.88,0,0,0,3.11-5.39v-2.54A7.27,7.27,0,0,1,661,432l2.2-1.27.16.27-2.2,1.27a6.88,6.88,0,0,0-3.11,5.39v2.54a7.26,7.26,0,0,1-3.27,5.67Z" transform="translate(-521 -250.92)"/><path class="cls-7" d="M640.14,449.58l-.16-.27,10.51-6.07a6.88,6.88,0,0,0,3.11-5.39v-2.54a7.26,7.26,0,0,1,3.27-5.67l2.2-1.27.16.27-2.2,1.27a6.88,6.88,0,0,0-3.11,5.39v2.54a7.27,7.27,0,0,1-3.27,5.67Z" transform="translate(-521 -250.92)"/><path class="cls-7" d="M636.05,447.23l-.16-.27,10.51-6.07a6.88,6.88,0,0,0,3.11-5.39V433a7.26,7.26,0,0,1,3.27-5.67L655,426l.16.27-2.2,1.27a6.88,6.88,0,0,0-3.11,5.39v2.53a7.26,7.26,0,0,1-3.27,5.67Z" transform="translate(-521 -250.92)"/><path class="cls-7" d="M632,444.87l-.16-.27,10.51-6.07a6.88,6.88,0,0,0,3.11-5.39V430.6a7.27,7.27,0,0,1,3.27-5.67l2.2-1.27.16.27-2.2,1.27a6.88,6.88,0,0,0-3.11,5.39v2.54a7.26,7.26,0,0,1-3.27,5.67Z" transform="translate(-521 -250.92)"/><path class="cls-7" d="M627.87,442.52l-.16-.27,10.51-6.07a6.88,6.88,0,0,0,3.11-5.39v-2.54a7.26,7.26,0,0,1,3.27-5.67l2.2-1.27.16.27-2.2,1.27a6.88,6.88,0,0,0-3.11,5.39v2.54a7.27,7.27,0,0,1-3.27,5.67Z" transform="translate(-521 -250.92)"/><path class="cls-7" d="M623.79,440.16l-.16-.27,10.51-6.07a6.88,6.88,0,0,0,3.11-5.39V425.9a7.26,7.26,0,0,1,3.27-5.67l2.2-1.27.16.27-2.2,1.27a6.88,6.88,0,0,0-3.11,5.39v2.53a7.26,7.26,0,0,1-3.27,5.67Z" transform="translate(-521 -250.92)"/><path class="cls-7" d="M619.7,437.8l-.16-.27,10.51-6.07a6.88,6.88,0,0,0,3.11-5.39v-2.54a7.27,7.27,0,0,1,3.27-5.67l2.2-1.27.16.27-2.2,1.27a6.88,6.88,0,0,0-3.11,5.39v2.54a7.26,7.26,0,0,1-3.27,5.67Z" transform="translate(-521 -250.92)"/><path class="cls-7" d="M615.61,435.45l-.16-.27L626,429.11a6.88,6.88,0,0,0,3.11-5.39v-2.54a7.26,7.26,0,0,1,3.27-5.67l2.2-1.27.16.27-2.2,1.27a6.88,6.88,0,0,0-3.11,5.39v2.54a7.27,7.27,0,0,1-3.27,5.67Z" transform="translate(-521 -250.92)"/><path class="cls-7" d="M611.52,433.09l-.16-.27,10.51-6.07a6.88,6.88,0,0,0,3.11-5.39v-2.53a7.26,7.26,0,0,1,3.27-5.67l2.2-1.27.16.27-2.2,1.27a6.88,6.88,0,0,0-3.11,5.39v2.53A7.26,7.26,0,0,1,622,427Z" transform="translate(-521 -250.92)"/><path class="cls-7" d="M607.43,430.74l-.16-.27,10.51-6.07a6.88,6.88,0,0,0,3.11-5.39v-2.54a7.27,7.27,0,0,1,3.27-5.67l2.2-1.27.16.27-2.2,1.27a6.88,6.88,0,0,0-3.11,5.39V419a7.27,7.27,0,0,1-3.27,5.67Z" transform="translate(-521 -250.92)"/><path class="cls-7" d="M603.34,428.38l-.16-.27L613.69,422a6.88,6.88,0,0,0,3.11-5.39v-2.53a7.26,7.26,0,0,1,3.27-5.67l2.2-1.27.16.27-2.2,1.27a6.88,6.88,0,0,0-3.11,5.39v2.53a7.26,7.26,0,0,1-3.27,5.67Z" transform="translate(-521 -250.92)"/><path class="cls-7" d="M599.26,426l-.16-.27,10.51-6.07a6.88,6.88,0,0,0,3.11-5.39v-2.53A7.26,7.26,0,0,1,616,406.1l2.2-1.27.16.27-2.2,1.27a6.88,6.88,0,0,0-3.11,5.39v2.53a7.26,7.26,0,0,1-3.27,5.67Z" transform="translate(-521 -250.92)"/><path class="cls-7" d="M595.17,423.67l-.16-.27,10.51-6.07a6.88,6.88,0,0,0,3.11-5.39V409.4a7.27,7.27,0,0,1,3.27-5.67l2.2-1.27.16.27-2.2,1.27a6.88,6.88,0,0,0-3.11,5.39v2.54a7.27,7.27,0,0,1-3.27,5.67Z" transform="translate(-521 -250.92)"/><path class="cls-7" d="M591.08,421.31l-.16-.27L601.43,415a6.88,6.88,0,0,0,3.11-5.39v-2.53a7.26,7.26,0,0,1,3.27-5.67l2.2-1.27.16.27-2.2,1.27a6.88,6.88,0,0,0-3.11,5.39v2.53a7.26,7.26,0,0,1-3.27,5.67Z" transform="translate(-521 -250.92)"/><path class="cls-7" d="M587,419l-.16-.27,10.51-6.07a6.88,6.88,0,0,0,3.11-5.39v-2.54a7.27,7.27,0,0,1,3.27-5.67l2.2-1.27.16.27-2.2,1.27a6.88,6.88,0,0,0-3.11,5.39v2.54a7.26,7.26,0,0,1-3.27,5.67Z" transform="translate(-521 -250.92)"/><path class="cls-7" d="M582.9,416.6l-.16-.27,10.52-6.07a6.88,6.88,0,0,0,3.11-5.39v-2.54a7.27,7.27,0,0,1,3.27-5.67l2.2-1.27.16.27-2.2,1.27a6.88,6.88,0,0,0-3.11,5.39v2.54a7.27,7.27,0,0,1-3.27,5.67Z" transform="translate(-521 -250.92)"/><path class="cls-7" d="M578.82,414.25l-.16-.27,10.51-6.07a6.88,6.88,0,0,0,3.11-5.39V400a7.26,7.26,0,0,1,3.27-5.67l2.2-1.27.16.27-2.2,1.27A6.88,6.88,0,0,0,592.6,400v2.53a7.26,7.26,0,0,1-3.27,5.67Z" transform="translate(-521 -250.92)"/><path class="cls-7" d="M574.73,411.89l-.16-.27,10.51-6.07a6.88,6.88,0,0,0,3.11-5.39v-2.54a7.27,7.27,0,0,1,3.27-5.67l2.2-1.27.16.27-2.2,1.27a6.88,6.88,0,0,0-3.11,5.39v2.54a7.26,7.26,0,0,1-3.27,5.67Z" transform="translate(-521 -250.92)"/><path class="cls-7" d="M570.64,409.54l-.16-.28L581,403.19a6.88,6.88,0,0,0,3.11-5.39v-2.54a7.26,7.26,0,0,1,3.27-5.67l2.2-1.27.16.27-2.2,1.27a6.88,6.88,0,0,0-3.11,5.39v2.54a7.27,7.27,0,0,1-3.27,5.67Z" transform="translate(-521 -250.92)"/></g><g class="cls-6"><g class="cls-6"><path class="cls-8" d="M749.57,392.35v9.34L668.8,448.32,588,401.68v-9.33Z" transform="translate(-521 -250.92)"/><path class="cls-9" d="M668.8,439,588,392.35l80.77-46.63,80.77,46.63Z" transform="translate(-521 -250.92)"/><path class="cls-7" d="M668.8,437.89,589,391.81l-1,.54L668.8,439l80.77-46.63-1-.54Z" transform="translate(-521 -250.92)"/></g></g></g><path class="cls-1" d="M660.39,332.4a3,3,0,0,1-1.51-.46l-10.51-6.07.16-.27L659,331.67a1.8,1.8,0,0,0,3-1.71v-2.53a2.1,2.1,0,0,1,3.43-2l2.2,1.27-.16.27-2.2-1.27a1.8,1.8,0,0,0-3,1.71V330a2.42,2.42,0,0,1-1,2.21A1.77,1.77,0,0,1,660.39,332.4Z" transform="translate(-521 -250.92)"/><path class="cls-1" d="M656.3,334.75a3,3,0,0,1-1.51-.46l-10.51-6.07.16-.27L655,334a1.8,1.8,0,0,0,3-1.71v-2.53a2.1,2.1,0,0,1,3.43-2l2.2,1.27-.16.27-2.2-1.27a1.8,1.8,0,0,0-3,1.71v2.53a2.42,2.42,0,0,1-1,2.21A1.86,1.86,0,0,1,656.3,334.75Z" transform="translate(-521 -250.92)"/><path class="cls-1" d="M652.21,337.1a3,3,0,0,1-1.51-.46l-10.51-6.07.16-.27,10.51,6.07a1.8,1.8,0,0,0,3-1.71v-2.54a2.1,2.1,0,0,1,3.43-2l2.2,1.27-.16.27-2.2-1.27a1.8,1.8,0,0,0-3,1.71v2.54a2.39,2.39,0,0,1-1,2.2A1.74,1.74,0,0,1,652.21,337.1Z" transform="translate(-521 -250.92)"/><path class="cls-1" d="M648.13,339.45a3,3,0,0,1-1.51-.46l-10.51-6.07.16-.27,10.51,6.07a1.8,1.8,0,0,0,3-1.71v-2.54a2.1,2.1,0,0,1,3.43-2l2.2,1.27-.16.27-2.2-1.27a1.8,1.8,0,0,0-3,1.71V337a2.39,2.39,0,0,1-1,2.2A1.77,1.77,0,0,1,648.13,339.45Z" transform="translate(-521 -250.92)"/><path class="cls-1" d="M644,341.8a3,3,0,0,1-1.51-.46L632,335.27l.16-.27,10.51,6.07a1.8,1.8,0,0,0,3-1.71v-2.54a2.1,2.1,0,0,1,3.43-2l2.2,1.27-.16.27-2.2-1.27a1.8,1.8,0,0,0-3,1.71v2.54a2.39,2.39,0,0,1-1,2.2A1.68,1.68,0,0,1,644,341.8Z" transform="translate(-521 -250.92)"/><path class="cls-1" d="M640,344.16a3,3,0,0,1-1.5-.46l-10.51-6.07.16-.27,10.51,6.07a1.8,1.8,0,0,0,3-1.71v-2.54a2.1,2.1,0,0,1,3.43-2l2.2,1.27-.16.27-2.2-1.27a1.8,1.8,0,0,0-3,1.71v2.54a2.39,2.39,0,0,1-1,2.2A1.83,1.83,0,0,1,640,344.16Z" transform="translate(-521 -250.92)"/><path class="cls-1" d="M635.86,346.51a3,3,0,0,1-1.51-.46L623.84,340l.16-.27,10.51,6.07a1.8,1.8,0,0,0,3-1.71v-2.54a2.1,2.1,0,0,1,3.43-2l2.2,1.27-.16.27-2.2-1.27a1.8,1.8,0,0,0-3,1.71v2.54a2.39,2.39,0,0,1-1,2.2A1.77,1.77,0,0,1,635.86,346.51Z" transform="translate(-521 -250.92)"/><path class="cls-1" d="M631.77,348.86a3,3,0,0,1-1.5-.46l-10.51-6.07.16-.27,10.51,6.07a1.8,1.8,0,0,0,3-1.71v-2.53a2.1,2.1,0,0,1,3.43-2l2.2,1.27-.16.27-2.2-1.27a1.8,1.8,0,0,0-3,1.71v2.53a2.39,2.39,0,0,1-1,2.2A1.8,1.8,0,0,1,631.77,348.86Z" transform="translate(-521 -250.92)"/><path class="cls-1" d="M627.69,351.21a3,3,0,0,1-1.51-.46l-10.51-6.07.16-.27,10.51,6.07a1.8,1.8,0,0,0,3-1.71v-2.53a2.1,2.1,0,0,1,3.43-2l2.2,1.27-.16.27-2.2-1.27a1.8,1.8,0,0,0-3,1.71v2.53a2.42,2.42,0,0,1-1,2.21A1.79,1.79,0,0,1,627.69,351.21Z" transform="translate(-521 -250.92)"/><path class="cls-1" d="M623.6,353.56a3,3,0,0,1-1.51-.46L611.58,347l.16-.27,10.51,6.07a1.8,1.8,0,0,0,3-1.71v-2.53a2.1,2.1,0,0,1,3.43-2l2.2,1.27-.16.27-2.2-1.27a1.8,1.8,0,0,0-3,1.71v2.53a2.42,2.42,0,0,1-1,2.21A1.86,1.86,0,0,1,623.6,353.56Z" transform="translate(-521 -250.92)"/><path class="cls-1" d="M619.51,355.91a3,3,0,0,1-1.51-.46l-10.51-6.07.16-.27,10.51,6.07a1.8,1.8,0,0,0,3-1.71v-2.54a2.1,2.1,0,0,1,3.43-2l2.2,1.27-.16.27-2.2-1.27a1.8,1.8,0,0,0-3,1.71v2.54a2.39,2.39,0,0,1-1,2.2A1.68,1.68,0,0,1,619.51,355.91Z" transform="translate(-521 -250.92)"/><path class="cls-1" d="M615.42,358.26a3,3,0,0,1-1.51-.46l-10.51-6.07.16-.27,10.51,6.07a1.8,1.8,0,0,0,3-1.71v-2.54a2.1,2.1,0,0,1,3.43-2l2.2,1.27-.16.27-2.2-1.27a1.8,1.8,0,0,0-3,1.71v2.54a2.39,2.39,0,0,1-1,2.2A1.68,1.68,0,0,1,615.42,358.26Z" transform="translate(-521 -250.92)"/><path class="cls-1" d="M611.33,360.62a3,3,0,0,1-1.51-.46l-10.51-6.07.16-.27L610,359.89a1.8,1.8,0,0,0,3-1.71v-2.54a2.1,2.1,0,0,1,3.43-2l2.2,1.27-.16.27-2.2-1.27a1.8,1.8,0,0,0-3,1.71v2.54a2.39,2.39,0,0,1-1,2.2A1.77,1.77,0,0,1,611.33,360.62Z" transform="translate(-521 -250.92)"/><path class="cls-1" d="M607.25,363a3,3,0,0,1-1.51-.46l-10.51-6.07.16-.27,10.51,6.07a1.8,1.8,0,0,0,3-1.71V358a2.1,2.1,0,0,1,3.43-2l2.2,1.27-.16.27-2.2-1.27a1.8,1.8,0,0,0-3,1.71v2.54a2.39,2.39,0,0,1-1,2.2A1.79,1.79,0,0,1,607.25,363Z" transform="translate(-521 -250.92)"/><path class="cls-1" d="M603.16,365.32a3,3,0,0,1-1.51-.46l-10.51-6.07.16-.27,10.51,6.07a1.8,1.8,0,0,0,3-1.71v-2.54a2.1,2.1,0,0,1,3.43-2l2.2,1.27-.16.27-2.2-1.27a1.8,1.8,0,0,0-3,1.71v2.54a2.39,2.39,0,0,1-1,2.2A1.77,1.77,0,0,1,603.16,365.32Z" transform="translate(-521 -250.92)"/><path class="cls-1" d="M599.07,367.67a3,3,0,0,1-1.51-.46l-10.51-6.07.16-.27,10.51,6.07a1.8,1.8,0,0,0,3-1.71V362.7a2.1,2.1,0,0,1,3.43-2l2.2,1.27-.16.27L604,361a1.8,1.8,0,0,0-3,1.71v2.53a2.42,2.42,0,0,1-1,2.21A1.77,1.77,0,0,1,599.07,367.67Z" transform="translate(-521 -250.92)"/><path class="cls-1" d="M595,370a3,3,0,0,1-1.51-.46L583,363.5l.16-.27,10.51,6.07a1.8,1.8,0,0,0,3-1.71v-2.53a2.1,2.1,0,0,1,3.43-2l2.2,1.27-.16.27-2.2-1.27a1.8,1.8,0,0,0-3,1.71v2.53a2.42,2.42,0,0,1-1,2.21A1.76,1.76,0,0,1,595,370Z" transform="translate(-521 -250.92)"/><path class="cls-1" d="M590.89,372.38a3,3,0,0,1-1.51-.46l-10.51-6.07.16-.27,10.51,6.07a1.8,1.8,0,0,0,3-1.71V367.4a2.1,2.1,0,0,1,3.43-2l2.2,1.27L598,367l-2.2-1.27a1.8,1.8,0,0,0-3,1.71v2.54a2.39,2.39,0,0,1-1,2.2A1.77,1.77,0,0,1,590.89,372.38Z" transform="translate(-521 -250.92)"/><path class="cls-1" d="M586.8,374.73a3,3,0,0,1-1.51-.46l-10.51-6.07.16-.27L585.45,374a1.8,1.8,0,0,0,3-1.71v-2.54a2.1,2.1,0,0,1,3.43-2L594,369l-.16.27-2.2-1.27a1.8,1.8,0,0,0-3,1.71v2.54a2.39,2.39,0,0,1-1,2.2A1.74,1.74,0,0,1,586.8,374.73Z" transform="translate(-521 -250.92)"/><path class="cls-1" d="M582.72,377.08a3,3,0,0,1-1.51-.46l-10.51-6.07.16-.27,10.51,6.07a1.8,1.8,0,0,0,3-1.71V372.1a2.1,2.1,0,0,1,3.43-2l2.2,1.27-.16.27-2.2-1.27a1.8,1.8,0,0,0-3,1.71v2.54a2.39,2.39,0,0,1-1,2.2A1.77,1.77,0,0,1,582.72,377.08Z" transform="translate(-521 -250.92)"/><path class="cls-1" d="M677.14,332.59a1.77,1.77,0,0,1-.91-.24,2.4,2.4,0,0,1-1-2.2v-2.54a2.08,2.08,0,0,0-.86-1.93,2.1,2.1,0,0,0-2.1.22l-2.2,1.27-.16-.27,2.2-1.27a2.1,2.1,0,0,1,3.43,2v2.54a2.08,2.08,0,0,0,.86,1.93,2.1,2.1,0,0,0,2.1-.22L689,325.79l.16.27-10.51,6.07A3.12,3.12,0,0,1,677.14,332.59Z" transform="translate(-521 -250.92)"/><path class="cls-1" d="M681.23,334.94a1.77,1.77,0,0,1-.91-.24,2.4,2.4,0,0,1-1-2.2V330a2.08,2.08,0,0,0-.86-1.93,2.1,2.1,0,0,0-2.1.22l-2.2,1.27-.16-.27,2.2-1.27a2.1,2.1,0,0,1,3.43,2v2.54a2.08,2.08,0,0,0,.86,1.93,2.1,2.1,0,0,0,2.1-.22l10.51-6.07.16.27-10.51,6.07A3,3,0,0,1,681.23,334.94Z" transform="translate(-521 -250.92)"/><path class="cls-1" d="M685.32,337.29a1.77,1.77,0,0,1-.91-.24,2.4,2.4,0,0,1-1-2.2v-2.53a2.08,2.08,0,0,0-.86-1.93,2.1,2.1,0,0,0-2.1.22l-2.2,1.27-.16-.27,2.2-1.27a2.1,2.1,0,0,1,3.43,2v2.53a2.08,2.08,0,0,0,.86,1.93,2.1,2.1,0,0,0,2.1-.22l10.51-6.07.16.27-10.51,6.07A3.13,3.13,0,0,1,685.32,337.29Z" transform="translate(-521 -250.92)"/><path class="cls-1" d="M689.41,339.64a1.86,1.86,0,0,1-.91-.23,2.4,2.4,0,0,1-1-2.21v-2.53a2.08,2.08,0,0,0-.86-1.93,2.1,2.1,0,0,0-2.1.22l-2.2,1.27-.16-.27,2.2-1.27a2.1,2.1,0,0,1,3.43,2v2.53a2.08,2.08,0,0,0,.86,1.93,2.1,2.1,0,0,0,2.1-.22l10.51-6.07.16.27-10.51,6.07A3.16,3.16,0,0,1,689.41,339.64Z" transform="translate(-521 -250.92)"/><path class="cls-1" d="M693.5,342a1.86,1.86,0,0,1-.91-.23,2.4,2.4,0,0,1-1-2.21V337a2.08,2.08,0,0,0-.86-1.93,2.1,2.1,0,0,0-2.1.22l-2.2,1.27-.16-.27,2.2-1.27a2.1,2.1,0,0,1,3.43,2v2.53a2.08,2.08,0,0,0,.86,1.93,2.1,2.1,0,0,0,2.1-.22l10.51-6.07.16.27L695,341.54A3.18,3.18,0,0,1,693.5,342Z" transform="translate(-521 -250.92)"/><path class="cls-1" d="M697.58,344.35a1.86,1.86,0,0,1-.91-.23,2.4,2.4,0,0,1-1-2.2v-2.54a2.08,2.08,0,0,0-.86-1.93,2.1,2.1,0,0,0-2.1.22l-2.2,1.27-.16-.27,2.2-1.27a2.1,2.1,0,0,1,3.43,2v2.54a2.08,2.08,0,0,0,.86,1.93,2.1,2.1,0,0,0,2.1-.22l10.51-6.07.16.27-10.51,6.07A3.21,3.21,0,0,1,697.58,344.35Z" transform="translate(-521 -250.92)"/><path class="cls-1" d="M701.67,346.7a1.86,1.86,0,0,1-.91-.23,2.4,2.4,0,0,1-1-2.2v-2.54a2.08,2.08,0,0,0-.86-1.93,2.1,2.1,0,0,0-2.1.22l-2.2,1.27-.16-.27,2.2-1.27a2.1,2.1,0,0,1,3.43,2v2.53a2.08,2.08,0,0,0,.86,1.93A2.1,2.1,0,0,0,703,346l10.51-6.07.16.27-10.51,6.07A3,3,0,0,1,701.67,346.7Z" transform="translate(-521 -250.92)"/><path class="cls-1" d="M705.76,349.05a1.77,1.77,0,0,1-.91-.24,2.4,2.4,0,0,1-1-2.2v-2.54a2.08,2.08,0,0,0-.86-1.93,2.1,2.1,0,0,0-2.1.22l-2.2,1.27-.16-.27,2.2-1.27a2.1,2.1,0,0,1,3.43,2v2.54a2.08,2.08,0,0,0,.86,1.93,2.1,2.1,0,0,0,2.1-.22l10.51-6.07.16.27-10.51,6.07A3,3,0,0,1,705.76,349.05Z" transform="translate(-521 -250.92)"/><path class="cls-1" d="M709.85,351.4a1.77,1.77,0,0,1-.91-.24,2.4,2.4,0,0,1-1-2.2v-2.54a2.08,2.08,0,0,0-.86-1.93,2.1,2.1,0,0,0-2.1.22l-2.2,1.27-.16-.27,2.2-1.27a2.1,2.1,0,0,1,3.43,2V349a2.08,2.08,0,0,0,.86,1.93,2.1,2.1,0,0,0,2.1-.22l10.51-6.07.16.27-10.51,6.07A3,3,0,0,1,709.85,351.4Z" transform="translate(-521 -250.92)"/><path class="cls-1" d="M713.94,353.75a1.77,1.77,0,0,1-.91-.24,2.4,2.4,0,0,1-1-2.2v-2.54a2.08,2.08,0,0,0-.86-1.93,2.1,2.1,0,0,0-2.1.22l-2.2,1.27-.16-.27,2.2-1.27a2.1,2.1,0,0,1,3.43,2v2.54a2.08,2.08,0,0,0,.86,1.93,2.1,2.1,0,0,0,2.1-.22L725.8,347l.16.27-10.51,6.07A3.07,3.07,0,0,1,713.94,353.75Z" transform="translate(-521 -250.92)"/><path class="cls-1" d="M718,356.11a1.77,1.77,0,0,1-.91-.24,2.4,2.4,0,0,1-1-2.2v-2.53a2.08,2.08,0,0,0-.86-1.93,2.1,2.1,0,0,0-2.1.22l-2.2,1.27-.16-.27,2.2-1.27a2.1,2.1,0,0,1,3.43,2v2.53a2.08,2.08,0,0,0,.86,1.93,2.1,2.1,0,0,0,2.1-.22l10.51-6.07.16.27-10.51,6.07A3.21,3.21,0,0,1,718,356.11Z" transform="translate(-521 -250.92)"/><path class="cls-1" d="M722.11,358.46a1.86,1.86,0,0,1-.91-.23,2.4,2.4,0,0,1-1-2.21v-2.53a2.08,2.08,0,0,0-.86-1.93,2.1,2.1,0,0,0-2.1.22l-2.2,1.27-.16-.27,2.2-1.27a2.1,2.1,0,0,1,3.43,2V356a2.08,2.08,0,0,0,.86,1.93,2.1,2.1,0,0,0,2.1-.22L734,351.67l.16.27L723.62,358A3.21,3.21,0,0,1,722.11,358.46Z" transform="translate(-521 -250.92)"/><path class="cls-1" d="M726.2,360.81a1.86,1.86,0,0,1-.91-.23,2.4,2.4,0,0,1-1-2.21v-2.53a2.08,2.08,0,0,0-.86-1.93,2.1,2.1,0,0,0-2.1.22l-2.2,1.27-.16-.27,2.2-1.27a2.1,2.1,0,0,1,3.43,2v2.53a2.08,2.08,0,0,0,.86,1.93,2.1,2.1,0,0,0,2.1-.22L738.06,354l.16.27-10.51,6.07A3,3,0,0,1,726.2,360.81Z" transform="translate(-521 -250.92)"/><path class="cls-1" d="M730.29,363.16a1.86,1.86,0,0,1-.91-.23,2.4,2.4,0,0,1-1-2.2v-2.54a2.08,2.08,0,0,0-.86-1.93,2.1,2.1,0,0,0-2.1.22l-2.2,1.27-.16-.27,2.2-1.27a2.1,2.1,0,0,1,3.43,2v2.54a2.08,2.08,0,0,0,.86,1.93,2.1,2.1,0,0,0,2.1-.22l10.51-6.07.16.27-10.51,6.07A3.13,3.13,0,0,1,730.29,363.16Z" transform="translate(-521 -250.92)"/><path class="cls-1" d="M734.38,365.51a1.86,1.86,0,0,1-.91-.23,2.4,2.4,0,0,1-1-2.2v-2.54a2.08,2.08,0,0,0-.86-1.93,2.1,2.1,0,0,0-2.1.22l-2.2,1.27-.16-.27,2.2-1.27a2.1,2.1,0,0,1,3.43,2v2.54a2.08,2.08,0,0,0,.86,1.93,2.1,2.1,0,0,0,2.1-.22l10.51-6.07.16.27-10.51,6.07A3.16,3.16,0,0,1,734.38,365.51Z" transform="translate(-521 -250.92)"/><path class="cls-1" d="M738.46,367.86a1.77,1.77,0,0,1-.91-.24,2.4,2.4,0,0,1-1-2.2v-2.54a2.08,2.08,0,0,0-.86-1.93,2.1,2.1,0,0,0-2.1.22l-2.2,1.27-.16-.27,2.2-1.27a2.1,2.1,0,0,1,3.43,2v2.54a2.08,2.08,0,0,0,.86,1.93,2.1,2.1,0,0,0,2.1-.22l10.51-6.07.16.27L740,367.4A3,3,0,0,1,738.46,367.86Z" transform="translate(-521 -250.92)"/><path class="cls-1" d="M742.55,370.22a1.77,1.77,0,0,1-.91-.24,2.4,2.4,0,0,1-1-2.2v-2.54a2.08,2.08,0,0,0-.86-1.93,2.1,2.1,0,0,0-2.1.22l-2.2,1.27-.16-.27,2.2-1.27a2.1,2.1,0,0,1,3.43,2v2.54a2.08,2.08,0,0,0,.86,1.93,2.1,2.1,0,0,0,2.1-.22l10.51-6.07.16.27-10.51,6.07A3.12,3.12,0,0,1,742.55,370.22Z" transform="translate(-521 -250.92)"/><path class="cls-1" d="M746.64,372.57a1.77,1.77,0,0,1-.91-.24,2.4,2.4,0,0,1-1-2.2V367.6a2.08,2.08,0,0,0-.86-1.93,2.1,2.1,0,0,0-2.1.22l-2.2,1.27-.16-.27,2.2-1.27a2.1,2.1,0,0,1,3.43,2v2.53a2.08,2.08,0,0,0,.86,1.93,2.1,2.1,0,0,0,2.1-.22l10.51-6.07.16.27-10.51,6.07A3.12,3.12,0,0,1,746.64,372.57Z" transform="translate(-521 -250.92)"/><path class="cls-1" d="M750.73,374.92a1.86,1.86,0,0,1-.91-.23,2.4,2.4,0,0,1-1-2.21V370A2.08,2.08,0,0,0,748,368a2.1,2.1,0,0,0-2.1.22l-2.2,1.27-.16-.27,2.2-1.27a2.1,2.1,0,0,1,3.43,2v2.53a2.08,2.08,0,0,0,.86,1.93,2.1,2.1,0,0,0,2.1-.22l10.51-6.07.16.27-10.51,6.07A3.13,3.13,0,0,1,750.73,374.92Z" transform="translate(-521 -250.92)"/><path class="cls-1" d="M754.82,377.27a1.86,1.86,0,0,1-.91-.23,2.4,2.4,0,0,1-1-2.21V372.3a2.08,2.08,0,0,0-.86-1.93,2.1,2.1,0,0,0-2.1.22l-2.2,1.27-.16-.27,2.2-1.27a2.1,2.1,0,0,1,3.43,2v2.53a2.08,2.08,0,0,0,.86,1.93,2.1,2.1,0,0,0,2.1-.22l10.51-6.07.16.27-10.51,6.07A3.07,3.07,0,0,1,754.82,377.27Z" transform="translate(-521 -250.92)"/><path class="cls-10" d="M749.57,372.63V382L668.8,428.6,588,382v-9.33Z" transform="translate(-521 -250.92)"/><path class="cls-11" d="M668.8,419.26,588,372.63,668.8,326l80.77,46.63Z" transform="translate(-521 -250.92)"/><path class="cls-1" d="M668.8,418.17,589,372.08l-1,.55,80.77,46.63,80.77-46.63-1-.54Z" transform="translate(-521 -250.92)"/><path class="cls-12" d="M668.8,408.51l-62.12-35.87,62.12-35.86,62.12,35.86Z" transform="translate(-521 -250.92)"/><path class="cls-13" d="M668.8,408.51l-62.12-35.87,62.12-35.86,62.12,35.86Z" transform="translate(-521 -250.92)"/><path class="cls-14" d="M668.8,327.73l62.12,35.87v9L668.8,336.77Z" transform="translate(-521 -250.92)"/><path class="cls-14" d="M668.8,336.77l-62.12,35.87v-9l62.12-35.87Z" transform="translate(-521 -250.92)"/><path class="cls-15" d="M668.8,399.46,606.68,363.6l62.12-35.87,62.12,35.87Z" transform="translate(-521 -250.92)"/><path class="cls-16" d="M668.8,377.93,644,363.6l24.82-14.33,24.82,14.33Z" transform="translate(-521 -250.92)"/><path class="cls-16" d="M668.8,350.58l23.68,13.68,1.14-.66L668.8,349.27,644,363.6l1.14.66Z" transform="translate(-521 -250.92)"/><path class="cls-15" d="M668.8,399.46v9.05l62.12-35.87v-9Z" transform="translate(-521 -250.92)"/><path class="cls-17" d="M606.68,363.6v9l62.12,35.87v-9.05Z" transform="translate(-521 -250.92)"/><path class="cls-18" d="M668.8,398.48,607.53,363.1l-.85.5,62.12,35.86,62.12-35.86-.85-.5Z" transform="translate(-521 -250.92)"/><path class="cls-1" d="M689,439.56l-10.51-6.07a7.24,7.24,0,0,1-3.27-5.67v-2.54a6.9,6.9,0,0,0-3.11-5.39l-2.2-1.27.16-.27,2.2,1.27a7.24,7.24,0,0,1,3.27,5.67v2.54a6.9,6.9,0,0,0,3.11,5.39l10.51,6.07Z" transform="translate(-521 -250.92)"/><path class="cls-1" d="M693.09,437.2l-10.51-6.07a7.24,7.24,0,0,1-3.27-5.67v-2.54a6.9,6.9,0,0,0-3.11-5.39l-2.2-1.27.16-.27,2.2,1.27a7.24,7.24,0,0,1,3.27,5.67v2.54a6.9,6.9,0,0,0,3.11,5.39l10.51,6.07Z" transform="translate(-521 -250.92)"/><path class="cls-1" d="M697.18,434.85l-10.51-6.07a7.24,7.24,0,0,1-3.27-5.67v-2.53a6.9,6.9,0,0,0-3.11-5.39l-2.2-1.27.16-.27,2.2,1.27a7.26,7.26,0,0,1,3.27,5.67v2.53a6.9,6.9,0,0,0,3.11,5.39l10.51,6.07Z" transform="translate(-521 -250.92)"/><path class="cls-1" d="M701.27,432.49l-10.51-6.07a7.24,7.24,0,0,1-3.27-5.67v-2.54a6.9,6.9,0,0,0-3.11-5.39l-2.2-1.27.16-.27,2.2,1.27a7.24,7.24,0,0,1,3.27,5.67v2.54a6.9,6.9,0,0,0,3.11,5.39l10.51,6.07Z" transform="translate(-521 -250.92)"/><path class="cls-1" d="M705.35,430.14l-10.51-6.07a7.24,7.24,0,0,1-3.27-5.67v-2.54a6.9,6.9,0,0,0-3.11-5.39l-2.2-1.27.16-.27,2.2,1.27a7.24,7.24,0,0,1,3.27,5.67v2.54A6.9,6.9,0,0,0,695,423.8l10.51,6.07Z" transform="translate(-521 -250.92)"/><path class="cls-1" d="M709.44,427.78l-10.51-6.07a7.24,7.24,0,0,1-3.27-5.67v-2.53a6.9,6.9,0,0,0-3.11-5.39l-2.2-1.27.16-.27,2.2,1.27a7.24,7.24,0,0,1,3.27,5.67v2.53a6.9,6.9,0,0,0,3.11,5.39l10.51,6.07Z" transform="translate(-521 -250.92)"/><path class="cls-1" d="M713.53,425.42,703,419.35a7.24,7.24,0,0,1-3.27-5.67v-2.54a6.9,6.9,0,0,0-3.11-5.39l-2.2-1.27.16-.27,2.2,1.27a7.24,7.24,0,0,1,3.27,5.67v2.54a6.9,6.9,0,0,0,3.11,5.39l10.51,6.07Z" transform="translate(-521 -250.92)"/><path class="cls-1" d="M717.62,423.07,707.11,417a7.24,7.24,0,0,1-3.27-5.67v-2.54a6.9,6.9,0,0,0-3.11-5.39l-2.2-1.27.16-.27,2.2,1.27a7.24,7.24,0,0,1,3.27,5.67v2.54a6.9,6.9,0,0,0,3.11,5.39l10.51,6.07Z" transform="translate(-521 -250.92)"/><path class="cls-1" d="M721.71,420.71l-10.51-6.07a7.24,7.24,0,0,1-3.27-5.67v-2.53a6.9,6.9,0,0,0-3.11-5.39l-2.2-1.27.16-.27,2.2,1.27a7.24,7.24,0,0,1,3.27,5.67V409a6.9,6.9,0,0,0,3.11,5.39l10.51,6.07Z" transform="translate(-521 -250.92)"/><path class="cls-1" d="M725.79,418.36l-10.51-6.07a7.24,7.24,0,0,1-3.27-5.67v-2.54a6.9,6.9,0,0,0-3.11-5.39l-2.2-1.27.16-.27,2.2,1.27a7.24,7.24,0,0,1,3.27,5.67v2.54a6.9,6.9,0,0,0,3.11,5.39L726,418.09Z" transform="translate(-521 -250.92)"/><path class="cls-1" d="M729.88,416l-10.51-6.07a7.24,7.24,0,0,1-3.27-5.67v-2.54a6.9,6.9,0,0,0-3.11-5.39l-2.2-1.27.16-.27,2.2,1.27a7.24,7.24,0,0,1,3.27,5.67v2.54a6.9,6.9,0,0,0,3.11,5.39L730,415.73Z" transform="translate(-521 -250.92)"/><path class="cls-1" d="M734,413.65l-10.51-6.07a7.24,7.24,0,0,1-3.27-5.67v-2.53a6.9,6.9,0,0,0-3.11-5.39l-2.2-1.27.16-.27,2.2,1.27a7.24,7.24,0,0,1,3.27,5.67v2.53a6.9,6.9,0,0,0,3.11,5.39l10.51,6.07Z" transform="translate(-521 -250.92)"/><path class="cls-1" d="M738.06,411.29l-10.51-6.07a7.24,7.24,0,0,1-3.27-5.67V397a6.9,6.9,0,0,0-3.11-5.39l-2.2-1.27.16-.27,2.2,1.27A7.24,7.24,0,0,1,724.6,397v2.54a6.9,6.9,0,0,0,3.11,5.39L738.22,411Z" transform="translate(-521 -250.92)"/><path class="cls-1" d="M742.15,408.93l-10.51-6.07a7.24,7.24,0,0,1-3.27-5.67v-2.54a6.9,6.9,0,0,0-3.11-5.39l-2.2-1.27.16-.27,2.2,1.27a7.24,7.24,0,0,1,3.27,5.67v2.54a6.9,6.9,0,0,0,3.11,5.39l10.51,6.07Z" transform="translate(-521 -250.92)"/><path class="cls-1" d="M746.23,406.58l-10.51-6.07a7.24,7.24,0,0,1-3.27-5.67v-2.53a6.9,6.9,0,0,0-3.11-5.39l-2.2-1.27.16-.27,2.2,1.27a7.26,7.26,0,0,1,3.27,5.67v2.53a6.9,6.9,0,0,0,3.11,5.39l10.51,6.07Z" transform="translate(-521 -250.92)"/><path class="cls-1" d="M750.32,404.22l-10.51-6.07a7.24,7.24,0,0,1-3.27-5.67v-2.54a6.9,6.9,0,0,0-3.11-5.39l-2.2-1.27.16-.27,2.2,1.27a7.24,7.24,0,0,1,3.27,5.67v2.54a6.9,6.9,0,0,0,3.11,5.39L750.48,404Z" transform="translate(-521 -250.92)"/><path class="cls-1" d="M754.41,401.87,743.9,395.8a7.24,7.24,0,0,1-3.27-5.67v-2.54a6.9,6.9,0,0,0-3.11-5.39l-2.2-1.27.16-.27,2.2,1.27A7.24,7.24,0,0,1,741,387.6v2.54a6.9,6.9,0,0,0,3.11,5.39l10.51,6.07Z" transform="translate(-521 -250.92)"/><path class="cls-1" d="M758.5,399.51,748,393.44a7.24,7.24,0,0,1-3.27-5.67v-2.53a6.9,6.9,0,0,0-3.11-5.39l-2.2-1.27.16-.27,2.2,1.27a7.26,7.26,0,0,1,3.27,5.67v2.53a6.9,6.9,0,0,0,3.11,5.39l10.51,6.07Z" transform="translate(-521 -250.92)"/><path class="cls-1" d="M762.59,397.16l-10.51-6.07a7.24,7.24,0,0,1-3.27-5.67v-2.54a6.9,6.9,0,0,0-3.11-5.39l-2.2-1.27.16-.27,2.2,1.27a7.24,7.24,0,0,1,3.27,5.67v2.54a6.9,6.9,0,0,0,3.11,5.39l10.51,6.07Z" transform="translate(-521 -250.92)"/><path class="cls-1" d="M766.68,394.8l-10.51-6.07a7.24,7.24,0,0,1-3.27-5.67v-2.54a6.9,6.9,0,0,0-3.11-5.39l-2.2-1.27.16-.27,2.2,1.27a7.24,7.24,0,0,1,3.27,5.67v2.54a6.9,6.9,0,0,0,3.11,5.39l10.51,6.07Z" transform="translate(-521 -250.92)"/><path class="cls-1" d="M648.31,439.56l-.16-.27,10.51-6.07a6.88,6.88,0,0,0,3.11-5.39v-2.54a7.27,7.27,0,0,1,3.27-5.67l2.2-1.27.16.27-2.2,1.27a6.88,6.88,0,0,0-3.11,5.39v2.54a7.26,7.26,0,0,1-3.27,5.67Z" transform="translate(-521 -250.92)"/><path class="cls-1" d="M644.23,437.2l-.16-.27,10.51-6.07a6.88,6.88,0,0,0,3.11-5.39v-2.54a7.26,7.26,0,0,1,3.27-5.67l2.2-1.27.16.27-2.2,1.27a6.88,6.88,0,0,0-3.11,5.39v2.54a7.27,7.27,0,0,1-3.27,5.67Z" transform="translate(-521 -250.92)"/><path class="cls-1" d="M640.14,434.85l-.16-.27,10.51-6.07a6.88,6.88,0,0,0,3.11-5.39v-2.53a7.26,7.26,0,0,1,3.27-5.67l2.2-1.27.16.27-2.2,1.27a6.88,6.88,0,0,0-3.11,5.39v2.53a7.26,7.26,0,0,1-3.27,5.67Z" transform="translate(-521 -250.92)"/><path class="cls-1" d="M636.05,432.49l-.16-.27,10.51-6.07a6.88,6.88,0,0,0,3.11-5.39v-2.54a7.27,7.27,0,0,1,3.27-5.67l2.2-1.27.16.27-2.2,1.27a6.88,6.88,0,0,0-3.11,5.39v2.54a7.26,7.26,0,0,1-3.27,5.67Z" transform="translate(-521 -250.92)"/><path class="cls-1" d="M632,430.14l-.16-.27,10.51-6.07a6.88,6.88,0,0,0,3.11-5.39v-2.54a7.26,7.26,0,0,1,3.27-5.67l2.2-1.27.16.27-2.2,1.27a6.88,6.88,0,0,0-3.11,5.39v2.54a7.27,7.27,0,0,1-3.27,5.67Z" transform="translate(-521 -250.92)"/><path class="cls-1" d="M627.87,427.78l-.16-.27,10.51-6.07a6.88,6.88,0,0,0,3.11-5.39v-2.53a7.26,7.26,0,0,1,3.27-5.67l2.2-1.27.16.27-2.2,1.27a6.88,6.88,0,0,0-3.11,5.39V416a7.26,7.26,0,0,1-3.27,5.67Z" transform="translate(-521 -250.92)"/><path class="cls-1" d="M623.79,425.42l-.16-.27,10.51-6.07a6.88,6.88,0,0,0,3.11-5.39v-2.54a7.27,7.27,0,0,1,3.27-5.67l2.2-1.27.16.27-2.2,1.27a6.88,6.88,0,0,0-3.11,5.39v2.54a7.26,7.26,0,0,1-3.27,5.67Z" transform="translate(-521 -250.92)"/><path class="cls-1" d="M619.7,423.07l-.16-.27,10.51-6.07a6.88,6.88,0,0,0,3.11-5.39V408.8a7.26,7.26,0,0,1,3.27-5.67l2.2-1.27.16.27-2.2,1.27a6.88,6.88,0,0,0-3.11,5.39v2.54a7.27,7.27,0,0,1-3.27,5.67Z" transform="translate(-521 -250.92)"/><path class="cls-1" d="M598.65,430.27l-.08,0-44.7-25.67.16-.28,44.63,25.62,16.8-9.47L626,414.36a6.88,6.88,0,0,0,3.11-5.39v-2.53a7.26,7.26,0,0,1,3.27-5.67l2.2-1.27.16.27-2.2,1.27a6.88,6.88,0,0,0-3.11,5.39V409a7.26,7.26,0,0,1-3.27,5.67l-10.51,6.07Z" transform="translate(-521 -250.92)"/><path class="cls-1" d="M611.52,418.36l-.16-.27L621.87,412a6.88,6.88,0,0,0,3.11-5.39v-2.54a7.27,7.27,0,0,1,3.27-5.67l2.2-1.27.16.27-2.2,1.27a6.88,6.88,0,0,0-3.11,5.39v2.54a7.26,7.26,0,0,1-3.27,5.67Z" transform="translate(-521 -250.92)"/><path class="cls-1" d="M607.43,416l-.16-.27,10.51-6.07a6.88,6.88,0,0,0,3.11-5.39v-2.54a7.26,7.26,0,0,1,3.27-5.67l2.2-1.27.16.27-2.2,1.27a6.88,6.88,0,0,0-3.11,5.39v2.54a7.27,7.27,0,0,1-3.27,5.67Z" transform="translate(-521 -250.92)"/><path class="cls-1" d="M603.34,413.65l-.16-.27,10.51-6.07a6.88,6.88,0,0,0,3.11-5.39v-2.53a7.26,7.26,0,0,1,3.27-5.67l2.2-1.27.16.27-2.2,1.27a6.88,6.88,0,0,0-3.11,5.39v2.53a7.26,7.26,0,0,1-3.27,5.67Z" transform="translate(-521 -250.92)"/><path class="cls-1" d="M599.26,411.29l-.16-.27L609.61,405a6.88,6.88,0,0,0,3.11-5.39V397a7.27,7.27,0,0,1,3.27-5.67l2.2-1.27.16.27-2.2,1.27A6.88,6.88,0,0,0,613,397v2.54a7.26,7.26,0,0,1-3.27,5.67Z" transform="translate(-521 -250.92)"/><path class="cls-1" d="M595.17,408.93l-.16-.27,10.51-6.07a6.88,6.88,0,0,0,3.11-5.39v-2.54A7.26,7.26,0,0,1,611.9,389l2.2-1.27.16.27-2.2,1.27a6.88,6.88,0,0,0-3.11,5.39v2.54a7.27,7.27,0,0,1-3.27,5.67Z" transform="translate(-521 -250.92)"/><path class="cls-1" d="M591.08,406.58l-.16-.27,10.51-6.07a6.88,6.88,0,0,0,3.11-5.39v-2.53a7.26,7.26,0,0,1,3.27-5.67l2.2-1.27.16.27-2.2,1.27a6.88,6.88,0,0,0-3.11,5.39v2.53a7.26,7.26,0,0,1-3.27,5.67Z" transform="translate(-521 -250.92)"/><path class="cls-1" d="M587,404.22l-.16-.27,10.51-6.07a6.88,6.88,0,0,0,3.11-5.39V390a7.27,7.27,0,0,1,3.27-5.67l2.2-1.27.16.27-2.2,1.27a6.88,6.88,0,0,0-3.11,5.39v2.54a7.26,7.26,0,0,1-3.27,5.67Z" transform="translate(-521 -250.92)"/><path class="cls-1" d="M582.9,401.87l-.16-.27,10.51-6.07a6.88,6.88,0,0,0,3.11-5.39V387.6a7.26,7.26,0,0,1,3.27-5.67l2.2-1.27.16.27-2.2,1.27a6.88,6.88,0,0,0-3.11,5.39v2.54a7.27,7.27,0,0,1-3.27,5.67Z" transform="translate(-521 -250.92)"/><path class="cls-1" d="M578.82,399.51l-.16-.27,10.51-6.07a6.88,6.88,0,0,0,3.11-5.39v-2.53a7.26,7.26,0,0,1,3.27-5.67l2.2-1.27.16.27-2.2,1.27a6.88,6.88,0,0,0-3.11,5.39v2.53a7.26,7.26,0,0,1-3.27,5.67Z" transform="translate(-521 -250.92)"/><path class="cls-1" d="M574.73,397.16l-.16-.27,10.51-6.07a6.88,6.88,0,0,0,3.11-5.39v-2.54a7.27,7.27,0,0,1,3.27-5.67l2.2-1.27.16.27-2.2,1.27a6.88,6.88,0,0,0-3.11,5.39v2.54a7.27,7.27,0,0,1-3.27,5.67Z" transform="translate(-521 -250.92)"/><path class="cls-1" d="M570.64,394.8l-.16-.27L581,388.46a6.88,6.88,0,0,0,3.11-5.39v-2.54a7.26,7.26,0,0,1,3.27-5.67l2.2-1.27.16.27-2.2,1.27a6.88,6.88,0,0,0-3.11,5.39v2.54a7.27,7.27,0,0,1-3.27,5.67Z" transform="translate(-521 -250.92)"/><g class="cls-2"><path class="cls-3" d="M588,350.6,573,341.9v17.4L588,368l15.07-8.7V341.9Z" transform="translate(-521 -250.92)"/><path class="cls-3" d="M588,368,573,359.3V341.9L588,350.6Z" transform="translate(-521 -250.92)"/><path class="cls-4" d="M603.1,359.3,588,368V350.6l15.07-8.7Z" transform="translate(-521 -250.92)"/><path class="cls-3" d="M588,350.6,573,341.9,588,333.2l15.07,8.7Z" transform="translate(-521 -250.92)"/><path class="cls-3" d="M588,350.6,573,341.9v.76L588,351.35l15.07-8.69v-.76Z" transform="translate(-521 -250.92)"/></g><path class="cls-19" d="M588,340.05,573,331.35,588,322.66l15.07,8.69Z" transform="translate(-521 -250.92)"/><path class="cls-1" d="M588,309.48,573,300.78v17.4l15.06,8.7,15.07-8.7v-17.4Z" transform="translate(-521 -250.92)"/><path class="cls-1" d="M588,326.88,573,318.18v-17.4l15.06,8.7Z" transform="translate(-521 -250.92)"/><path class="cls-20" d="M603.1,318.18,588,326.88v-17.4l15.07-8.7Z" transform="translate(-521 -250.92)"/><path class="cls-1" d="M588,309.48,573,300.78l15.06-8.7,15.07,8.7Z" transform="translate(-521 -250.92)"/><path class="cls-20" d="M588,307.34l-11.36-6.56L588,294.22l11.37,6.56Z" transform="translate(-521 -250.92)"/><path class="cls-1" d="M588,309.48,573,300.78v.75l15.06,8.7,15.07-8.7v-.75Z" transform="translate(-521 -250.92)"/><path class="cls-1" d="M588,283.38,573,274.68v17.4l15.06,8.7,15.07-8.7v-17.4Z" transform="translate(-521 -250.92)"/><path class="cls-1" d="M588,300.78,573,292.08v-17.4l15.06,8.7Z" transform="translate(-521 -250.92)"/><path class="cls-20" d="M603.1,292.08,588,300.78v-17.4l15.07-8.7Z" transform="translate(-521 -250.92)"/><path class="cls-1" d="M588,283.38,573,274.68,588,266l15.07,8.7Z" transform="translate(-521 -250.92)"/><path class="cls-1" d="M588,283.38,573,274.68v.76L588,284.13l15.07-8.69v-.76Z" transform="translate(-521 -250.92)"/><g class="cls-2"><path class="cls-3" d="M786.36,360.61l-15.07-8.69v17.39l15.07,8.7,15.07-8.7V351.92Z" transform="translate(-521 -250.92)"/><path class="cls-3" d="M786.36,378l-15.07-8.7V351.92l15.07,8.69Z" transform="translate(-521 -250.92)"/><path class="cls-4" d="M801.43,369.31,786.36,378v-17.4l15.07-8.69Z" transform="translate(-521 -250.92)"/><path class="cls-3" d="M786.36,360.61l-15.07-8.69,15.07-8.7,15.07,8.7Z" transform="translate(-521 -250.92)"/><path class="cls-3" d="M786.36,360.61l-15.07-8.69v.75l15.07,8.7,15.07-8.7v-.75Z" transform="translate(-521 -250.92)"/></g><path class="cls-1" d="M786.76,354.15l-.08,0-22.06-12.73.24-.14,21.9-12.64.08.05,22.06,12.73-.24.14Zm-21.51-12.78,21.5,12.42,21.5-12.42L786.75,329Z" transform="translate(-521 -250.92)"/><path class="cls-19" d="M786.36,350.07l-15.07-8.7,15.07-8.7,15.07,8.7Z" transform="translate(-521 -250.92)"/><path class="cls-1" d="M786.36,319.49l-15.07-8.7v17.4l15.07,8.7,15.07-8.7v-17.4Z" transform="translate(-521 -250.92)"/><path class="cls-1" d="M786.36,336.89l-15.07-8.7v-17.4l15.07,8.7Z" transform="translate(-521 -250.92)"/><path class="cls-20" d="M801.43,328.19l-15.07,8.7v-17.4l15.07-8.7Z" transform="translate(-521 -250.92)"/><path class="cls-1" d="M786.36,319.49l-15.07-8.7,15.07-8.7,15.07,8.7Z" transform="translate(-521 -250.92)"/><path class="cls-1" d="M786.36,319.49l-15.07-8.7v.76l15.07,8.7,15.07-8.7v-.76Z" transform="translate(-521 -250.92)"/><path class="cls-1" d="M543.14,410.84l-.08,0L521,398.06l.24-.14,21.9-12.64.08.05,22.06,12.74-.24.14Zm-21.51-12.78,21.5,12.42,21.5-12.42-21.5-12.42Z" transform="translate(-521 -250.92)"/><g class="cls-2"><path class="cls-3" d="M543.14,417.58l-15.07-8.7v17.4l15.07,8.7,15.06-8.7v-17.4Z" transform="translate(-521 -250.92)"/><path class="cls-3" d="M543.14,435l-15.07-8.7v-17.4l15.07,8.7Z" transform="translate(-521 -250.92)"/><path class="cls-21" d="M558.2,426.28,543.14,435v-17.4l15.06-8.7Z" transform="translate(-521 -250.92)"/><path class="cls-3" d="M543.14,417.58l-15.07-8.7,15.07-8.7,15.06,8.7Z" transform="translate(-521 -250.92)"/><path class="cls-3" d="M543.14,417.58l-15.07-8.7v.76l15.07,8.69,15.06-8.69v-.76Z" transform="translate(-521 -250.92)"/></g><path class="cls-19" d="M543.14,407l-15.07-8.7,15.07-8.69,15.06,8.69Z" transform="translate(-521 -250.92)"/><path class="cls-1" d="M543.14,376.46l-15.07-8.7v17.4l15.07,8.7,15.06-8.7v-17.4Z" transform="translate(-521 -250.92)"/><path class="cls-1" d="M543.14,393.86l-15.07-8.7v-17.4l15.07,8.7Z" transform="translate(-521 -250.92)"/><path class="cls-22" d="M558.2,385.16l-15.06,8.7v-17.4l15.06-8.7Z" transform="translate(-521 -250.92)"/><path class="cls-1" d="M543.14,376.46l-15.07-8.7,15.07-8.7,15.06,8.7Z" transform="translate(-521 -250.92)"/><path class="cls-1" d="M543.14,376.46l-15.07-8.7v.75l15.07,8.7,15.06-8.7v-.75Z" transform="translate(-521 -250.92)"/><g class="cls-2"><path class="cls-3" d="M667.33,500.5l-15.07-8.7v17.4l15.07,8.7,15.06-8.7V491.8Z" transform="translate(-521 -250.92)"/><path class="cls-3" d="M667.33,517.9l-15.07-8.7V491.8l15.07,8.7Z" transform="translate(-521 -250.92)"/><path class="cls-4" d="M682.39,509.2l-15.06,8.7V500.5l15.06-8.7Z" transform="translate(-521 -250.92)"/><path class="cls-3" d="M667.33,500.5l-15.07-8.7,15.07-8.7,15.06,8.7Z" transform="translate(-521 -250.92)"/><path class="cls-3" d="M667.33,500.5l-15.07-8.7v.76l15.07,8.7,15.06-8.7v-.76Z" transform="translate(-521 -250.92)"/></g><path class="cls-19" d="M667.33,490l-15.07-8.7,15.07-8.69,15.06,8.7Z" transform="translate(-521 -250.92)"/><path class="cls-1" d="M667.33,459.38l-15.07-8.7v17.4l15.07,8.7,15.06-8.7v-17.4Z" transform="translate(-521 -250.92)"/><path class="cls-1" d="M667.33,476.78l-15.07-8.7v-17.4l15.07,8.7Z" transform="translate(-521 -250.92)"/><path class="cls-20" d="M682.39,468.08l-15.06,8.7v-17.4l15.06-8.7Z" transform="translate(-521 -250.92)"/><path class="cls-1" d="M667.33,459.38l-15.07-8.7,15.07-8.7,15.06,8.7Z" transform="translate(-521 -250.92)"/><path class="cls-1" d="M667.33,459.38l-15.07-8.7v.75l15.07,8.7,15.06-8.7v-.75Z" transform="translate(-521 -250.92)"/><g class="cls-2"><path class="cls-3" d="M791.22,459.76l13,11.52,3.46-17-13-11.52-16.5,5.53-3.46,17.05Z" transform="translate(-521 -250.92)"/><path class="cls-3" d="M794.69,442.71l13,11.52-3.46,17-13-11.52Z" transform="translate(-521 -250.92)"/><path class="cls-4" d="M778.19,448.24l16.5-5.53-3.47,17.05-16.49,5.53Z" transform="translate(-521 -250.92)"/><path class="cls-3" d="M791.22,459.76l13,11.52-16.5,5.53-13-11.52Z" transform="translate(-521 -250.92)"/><path class="cls-3" d="M791.22,459.76l13,11.52.15-.74-13-11.52-16.5,5.53-.15.74Z" transform="translate(-521 -250.92)"/></g><path class="cls-19" d="M793.89,453.13l-15.06-8.7,15.06-8.7,15.07,8.7Z" transform="translate(-521 -250.92)"/><path class="cls-23" d="M793.89,468.24c-9.93,0-19.86-2.18-27.42-6.55-7.35-4.25-11.41-9.9-11.41-15.92s4.05-11.68,11.41-15.92c15.12-8.73,39.72-8.73,54.85,0,7.36,4.25,11.41,9.9,11.41,15.92s-4.05,11.68-11.4,15.92C813.76,466.06,803.83,468.24,793.89,468.24Zm0-44.63c-9.87,0-19.75,2.17-27.26,6.51-7.25,4.19-11.25,9.75-11.25,15.65s4,11.46,11.25,15.65c15,8.68,39.5,8.68,54.53,0,7.25-4.19,11.25-9.75,11.25-15.65s-4-11.46-11.25-15.65C813.64,425.78,803.77,423.61,793.89,423.61Z" transform="translate(-521 -250.92)"/><path class="cls-7" d="M793.89,474.26c-12.6,0-25.2-2.77-34.8-8.31-9.32-5.38-14.46-12.55-14.46-20.18s5.14-14.8,14.46-20.18c19.19-11.08,50.41-11.08,69.59,0,9.33,5.38,14.46,12.55,14.46,20.18S838,460.57,828.68,466l-.08-.14.08.14C819.1,471.49,806.5,474.26,793.89,474.26Zm0-56.67c-12.54,0-25.09,2.76-34.64,8.27C750,431.19,745,438.25,745,445.77s5.08,14.58,14.3,19.91c19.1,11,50.18,11,69.28,0,9.22-5.33,14.3-12.39,14.3-19.91s-5.08-14.58-14.3-19.91C819,420.35,806.44,417.59,793.89,417.59Z" transform="translate(-521 -250.92)"/><path class="cls-1" d="M793.9,463.5c-7.83,0-15.65-1.72-21.61-5.16-5.8-3.35-9-7.81-9-12.57s3.2-9.22,9-12.57c11.92-6.88,31.31-6.88,43.23,0,5.8,3.35,9,7.82,9,12.57s-3.2,9.22-9,12.57C809.55,461.78,801.72,463.5,793.9,463.5Zm0-35.15c-7.77,0-15.54,1.71-21.45,5.12-5.7,3.29-8.84,7.66-8.84,12.3s3.14,9,8.84,12.3c11.83,6.83,31.08,6.83,42.91,0l.08.14-.08-.14c5.7-3.29,8.84-7.66,8.84-12.29s-3.14-9-8.84-12.3C809.43,430.06,801.66,428.35,793.89,428.35Z" transform="translate(-521 -250.92)"/><path class="cls-1" d="M792.16,429.13l-1.73-17.32L776.3,422,778,439.28l15.85,7.16L808,436.29Z" transform="translate(-521 -250.92)"/><path class="cls-1" d="M778,439.28,776.3,422l14.13-10.16,1.73,17.32Z" transform="translate(-521 -250.92)"/><path class="cls-20" d="M793.88,446.44,778,439.28l14.13-10.15L808,436.29Z" transform="translate(-521 -250.92)"/><path class="cls-1" d="M792.16,429.13l-1.73-17.32L806.29,419,808,436.29Z" transform="translate(-521 -250.92)"/><path class="cls-1" d="M792.16,429.13l-1.73-17.32-.61.44,1.73,17.32,15.85,7.16.61-.44Z" transform="translate(-521 -250.92)"/><path class="cls-19" d="M785,442.42h14.48l-5.59,4Z" transform="translate(-521 -250.92)"/><path class="cls-1" d="M668.8,332.05l-15.07-8.7v17.4l15.07,8.7,15.07-8.7v-17.4Z" transform="translate(-521 -250.92)"/><path class="cls-1" d="M668.8,349.45l-15.07-8.7v-17.4l15.07,8.7Z" transform="translate(-521 -250.92)"/><path class="cls-20" d="M683.87,340.75l-15.07,8.7v-17.4l15.07-8.7Z" transform="translate(-521 -250.92)"/><path class="cls-1" d="M668.8,332.05l-15.07-8.7,15.07-8.69,15.07,8.69Z" transform="translate(-521 -250.92)"/><path class="cls-1" d="M668.8,332.05l-14.41-8.32-.66.38,15.07,8.7,15.07-8.7-.65-.38Z" transform="translate(-521 -250.92)"/><path class="cls-1" d="M688.37,343.22l-15.06-8.7v17.4l15.06,8.7,15.07-8.7v-17.4Z" transform="translate(-521 -250.92)"/><path class="cls-1" d="M688.37,360.62l-15.06-8.7v-17.4l15.06,8.7Z" transform="translate(-521 -250.92)"/><path class="cls-20" d="M703.44,351.92l-15.07,8.7v-17.4l15.07-8.7Z" transform="translate(-521 -250.92)"/><path class="cls-1" d="M688.37,343.22l-15.06-8.7,15.06-8.7,15.07,8.7Z" transform="translate(-521 -250.92)"/><path class="cls-1" d="M688.37,343.22,674,334.9l-.65.38,15.06,8.7,15.07-8.7-.65-.38Z" transform="translate(-521 -250.92)"/><path class="cls-1" d="M708,354.39l-15.07-8.7v17.4l15.07,8.7,15.06-8.7v-17.4Z" transform="translate(-521 -250.92)"/><path class="cls-1" d="M708,371.79l-15.07-8.7v-17.4l15.07,8.7Z" transform="translate(-521 -250.92)"/><path class="cls-20" d="M723,363.09,708,371.79v-17.4l15.06-8.7Z" transform="translate(-521 -250.92)"/><path class="cls-1" d="M708,354.39l-15.07-8.7,15.06-8.7,15.07,8.7Z" transform="translate(-521 -250.92)"/><path class="cls-1" d="M708,354.39l-14.42-8.32-.65.37,15.07,8.7,15.06-8.7v-.75Z" transform="translate(-521 -250.92)"/><path class="cls-1" d="M649.23,344l-15.07-8.7v17.39l15.07,8.7,15.07-8.7V335.28Z" transform="translate(-521 -250.92)"/><path class="cls-1" d="M649.23,361.37l-15.07-8.7V335.28l15.07,8.7Z" transform="translate(-521 -250.92)"/><path class="cls-20" d="M664.3,352.67l-15.07,8.7V344l15.07-8.7Z" transform="translate(-521 -250.92)"/><path class="cls-1" d="M649.23,344l-15.07-8.7,15.07-8.7,15.07,8.7Z" transform="translate(-521 -250.92)"/><path class="cls-1" d="M649.23,344l-14.41-8.33-.66.38,15.07,8.7L664.3,336l-.66-.38Z" transform="translate(-521 -250.92)"/><path class="cls-1" d="M668.8,355.14l-15.07-8.7v17.4l15.07,8.7,15.07-8.7v-17.4Z" transform="translate(-521 -250.92)"/><path class="cls-1" d="M668.8,372.54l-15.07-8.7v-17.4l15.07,8.7Z" transform="translate(-521 -250.92)"/><path class="cls-20" d="M683.87,363.84l-15.07,8.7v-17.4l15.07-8.7Z" transform="translate(-521 -250.92)"/><path class="cls-1" d="M668.8,355.14l-15.07-8.7,15.07-8.7,15.07,8.7Z" transform="translate(-521 -250.92)"/><path class="cls-1" d="M668.8,355.14l-14.41-8.32-.66.38,15.07,8.7,15.07-8.7-.65-.38Z" transform="translate(-521 -250.92)"/><path class="cls-1" d="M688.37,366.31l-15.06-8.7V375l15.06,8.7,15.07-8.7v-17.4Z" transform="translate(-521 -250.92)"/><path class="cls-1" d="M688.37,383.71,673.31,375v-17.4l15.06,8.7Z" transform="translate(-521 -250.92)"/><path class="cls-20" d="M703.44,375l-15.07,8.7v-17.4l15.07-8.7Z" transform="translate(-521 -250.92)"/><path class="cls-1" d="M688.37,366.31l-15.06-8.7,15.06-8.7,15.07,8.7Z" transform="translate(-521 -250.92)"/><path class="cls-1" d="M688.37,366.31,674,358l-.65.38,15.06,8.69,15.07-8.69v-.76Z" transform="translate(-521 -250.92)"/><path class="cls-1" d="M629.66,355.9l-15.07-8.7v17.4l15.07,8.7,15.07-8.7V347.2Z" transform="translate(-521 -250.92)"/><path class="cls-1" d="M629.66,373.3l-15.07-8.7V347.2l15.07,8.7Z" transform="translate(-521 -250.92)"/><path class="cls-20" d="M644.73,364.6l-15.07,8.7V355.9l15.07-8.7Z" transform="translate(-521 -250.92)"/><path class="cls-1" d="M629.66,355.9l-15.07-8.7,15.07-8.7,15.06,8.7Z" transform="translate(-521 -250.92)"/><path class="cls-1" d="M629.66,355.9l-15.07-8.7V348l15.07,8.7,15.06-8.7-.65-.37Z" transform="translate(-521 -250.92)"/><path class="cls-1" d="M649.23,367.06l-15.07-8.69v17.39l15.07,8.7,15.07-8.7V358.37Z" transform="translate(-521 -250.92)"/><path class="cls-1" d="M649.23,384.46l-15.07-8.7V358.37l15.07,8.69Z" transform="translate(-521 -250.92)"/><path class="cls-20" d="M664.3,375.76l-15.07,8.7v-17.4l15.07-8.69Z" transform="translate(-521 -250.92)"/><path class="cls-1" d="M649.23,367.06l-15.07-8.69,15.07-8.7,15.07,8.7Z" transform="translate(-521 -250.92)"/><path class="cls-1" d="M649.23,367.06l-15.07-8.69v.75l15.07,8.7,15.07-8.7-.66-.38Z" transform="translate(-521 -250.92)"/><path class="cls-1" d="M668.8,378.23l-15.07-8.7v17.4l15.07,8.7,15.07-8.7v-17.4Z" transform="translate(-521 -250.92)"/><path class="cls-1" d="M668.8,395.63l-15.07-8.7v-17.4l15.07,8.7Z" transform="translate(-521 -250.92)"/><path class="cls-20" d="M683.87,386.93l-15.07,8.7v-17.4l15.07-8.7Z" transform="translate(-521 -250.92)"/><path class="cls-1" d="M668.8,378.23l-15.07-8.7,15.07-8.7,15.07,8.7Z" transform="translate(-521 -250.92)"/><path class="cls-1" d="M668.8,378.23l-15.07-8.7v.76L668.8,379l15.07-8.7v-.76Z" transform="translate(-521 -250.92)"/><path class="cls-1" d="M668.8,309l-15.07-8.69v17.39l15.07,8.7,15.07-8.7V300.27Z" transform="translate(-521 -250.92)"/><path class="cls-1" d="M668.8,326.36l-15.07-8.7V300.27L668.8,309Z" transform="translate(-521 -250.92)"/><path class="cls-20" d="M683.87,317.66l-15.07,8.7V309l15.07-8.69Z" transform="translate(-521 -250.92)"/><path class="cls-1" d="M668.8,309l-15.07-8.69,15.07-8.7,15.07,8.7Z" transform="translate(-521 -250.92)"/><path class="cls-1" d="M668.8,309l-14.41-8.32-.66.38,15.07,8.7,15.07-8.7-.65-.38Z" transform="translate(-521 -250.92)"/><path class="cls-5" d="M668.8,375.4l-10.28-5.94,10.28-5.93,10.28,5.93Z" transform="translate(-521 -250.92)"/><path class="cls-5" d="M649.23,364.23,639,358.3l10.28-5.94,10.28,5.94Z" transform="translate(-521 -250.92)"/><path class="cls-5" d="M688.37,363.48l-10.28-5.94,10.28-5.93,10.28,5.93Z" transform="translate(-521 -250.92)"/><path class="cls-5" d="M708,351.69l-10.28-5.93L708,339.82l10.28,5.94Z" transform="translate(-521 -250.92)"/><path class="cls-5" d="M629.66,353.06l-10.28-5.93,10.28-5.93,10.28,5.93Z" transform="translate(-521 -250.92)"/><path class="cls-1" d="M688.37,320.13l-15.06-8.7v17.4l15.06,8.7,15.07-8.7v-17.4Z" transform="translate(-521 -250.92)"/><path class="cls-1" d="M688.37,337.53l-15.06-8.7v-17.4l15.06,8.7Z" transform="translate(-521 -250.92)"/><path class="cls-20" d="M703.44,328.83l-15.07,8.7v-17.4l15.07-8.7Z" transform="translate(-521 -250.92)"/><path class="cls-1" d="M688.37,320.13l-15.06-8.7,15.06-8.7,15.07,8.7Z" transform="translate(-521 -250.92)"/><path class="cls-1" d="M688.37,320.13,674,311.81l-.65.38,15.06,8.7,15.07-8.7-.65-.38Z" transform="translate(-521 -250.92)"/><path class="cls-1" d="M708,331.3l-15.07-8.7V340L708,348.7,723,340V322.6Z" transform="translate(-521 -250.92)"/><path class="cls-1" d="M708,348.7,692.88,340V322.6L708,331.3Z" transform="translate(-521 -250.92)"/><path class="cls-20" d="M723,340,708,348.7V331.3L723,322.6Z" transform="translate(-521 -250.92)"/><path class="cls-1" d="M708,331.3l-15.07-8.7,15.06-8.7L723,322.6Z" transform="translate(-521 -250.92)"/><path class="cls-1" d="M708,331.3,693.53,323l-.65.37,15.07,8.7,15.06-8.7v-.75Z" transform="translate(-521 -250.92)"/><path class="cls-1" d="M649.23,320.89l-15.07-8.7v17.4l15.07,8.69,15.07-8.69v-17.4Z" transform="translate(-521 -250.92)"/><path class="cls-1" d="M649.23,338.28l-15.07-8.69v-17.4l15.07,8.7Z" transform="translate(-521 -250.92)"/><path class="cls-20" d="M664.3,329.59l-15.07,8.69V320.89l15.07-8.7Z" transform="translate(-521 -250.92)"/><path class="cls-1" d="M649.23,320.89l-15.07-8.7,15.07-8.7,15.07,8.7Z" transform="translate(-521 -250.92)"/><path class="cls-1" d="M649.23,320.89l-14.41-8.33-.66.38,15.07,8.7,15.07-8.7-.66-.38Z" transform="translate(-521 -250.92)"/><path class="cls-1" d="M668.8,332.05l-15.07-8.7v17.4l15.07,8.7,15.07-8.7v-17.4Z" transform="translate(-521 -250.92)"/><path class="cls-1" d="M668.8,349.45l-15.07-8.7v-17.4l15.07,8.7Z" transform="translate(-521 -250.92)"/><path class="cls-20" d="M683.87,340.75l-15.07,8.7v-17.4l15.07-8.7Z" transform="translate(-521 -250.92)"/><path class="cls-1" d="M668.8,332.05l-15.07-8.7,15.07-8.69,15.07,8.69Z" transform="translate(-521 -250.92)"/><path class="cls-1" d="M668.8,332.05l-14.41-8.32-.66.38,15.07,8.7,15.07-8.7-.65-.38Z" transform="translate(-521 -250.92)"/><path class="cls-1" d="M688.37,343.22l-15.06-8.7v17.4l15.06,8.7,15.07-8.7v-17.4Z" transform="translate(-521 -250.92)"/><path class="cls-1" d="M688.37,360.62l-15.06-8.7v-17.4l15.06,8.7Z" transform="translate(-521 -250.92)"/><path class="cls-20" d="M703.44,351.92l-15.07,8.7v-17.4l15.07-8.7Z" transform="translate(-521 -250.92)"/><path class="cls-1" d="M688.37,343.22l-15.06-8.7,15.06-8.7,15.07,8.7Z" transform="translate(-521 -250.92)"/><path class="cls-1" d="M688.37,343.22,674,334.9l-.65.38,15.06,8.7,15.07-8.7v-.76Z" transform="translate(-521 -250.92)"/><path class="cls-1" d="M629.66,332.81l-15.07-8.7v17.4l15.07,8.7,15.07-8.7v-17.4Z" transform="translate(-521 -250.92)"/><path class="cls-1" d="M629.66,350.21l-15.07-8.7v-17.4l15.07,8.7Z" transform="translate(-521 -250.92)"/><path class="cls-20" d="M644.73,341.51l-15.07,8.7v-17.4l15.07-8.7Z" transform="translate(-521 -250.92)"/><path class="cls-1" d="M629.66,332.81l-15.07-8.7,15.07-8.7,15.06,8.7Z" transform="translate(-521 -250.92)"/><path class="cls-1" d="M629.66,332.81l-14.42-8.32-.65.37,15.07,8.7,15.06-8.7-.65-.37Z" transform="translate(-521 -250.92)"/><path class="cls-1" d="M649.23,344l-15.07-8.7v17.39l15.07,8.7,15.07-8.7V335.28Z" transform="translate(-521 -250.92)"/><path class="cls-1" d="M649.23,361.37l-15.07-8.7V335.28l15.07,8.7Z" transform="translate(-521 -250.92)"/><path class="cls-20" d="M664.3,352.67l-15.07,8.7V344l15.07-8.7Z" transform="translate(-521 -250.92)"/><path class="cls-1" d="M649.23,344l-15.07-8.7,15.07-8.7,15.07,8.7Z" transform="translate(-521 -250.92)"/><path class="cls-1" d="M649.23,344l-15.07-8.7V336l15.07,8.7L664.3,336l-.66-.38Z" transform="translate(-521 -250.92)"/><path class="cls-1" d="M668.8,355.14l-15.07-8.7v17.4l15.07,8.7,15.07-8.7v-17.4Z" transform="translate(-521 -250.92)"/><path class="cls-1" d="M668.8,372.54l-15.07-8.7v-17.4l15.07,8.7Z" transform="translate(-521 -250.92)"/><path class="cls-20" d="M683.87,363.84l-15.07,8.7v-17.4l15.07-8.7Z" transform="translate(-521 -250.92)"/><path class="cls-1" d="M668.8,355.14l-15.07-8.7,15.07-8.7,15.07,8.7Z" transform="translate(-521 -250.92)"/><path class="cls-1" d="M668.8,355.14l-15.07-8.7v.76l15.07,8.7,15.07-8.7v-.76Z" transform="translate(-521 -250.92)"/><path class="cls-5" d="M708,328.7l-10.28-5.93L708,316.84l10.28,5.93Z" transform="translate(-521 -250.92)"/><path class="cls-5" d="M629.66,330.08l-10.28-5.94,10.28-5.93,10.28,5.93Z" transform="translate(-521 -250.92)"/><path class="cls-1" d="M668.8,285.88l-15.07-8.7v17.39l15.07,8.7,15.07-8.7V277.18Z" transform="translate(-521 -250.92)"/><path class="cls-1" d="M668.8,303.27l-15.07-8.7V277.18l15.07,8.7Z" transform="translate(-521 -250.92)"/><path class="cls-20" d="M683.87,294.57l-15.07,8.7V285.88l15.07-8.7Z" transform="translate(-521 -250.92)"/><path class="cls-1" d="M668.8,285.88l-15.07-8.7,15.07-8.7,15.07,8.7Z" transform="translate(-521 -250.92)"/><path class="cls-1" d="M668.8,285.88l-15.07-8.7v.75l15.07,8.7,15.07-8.7v-.75Z" transform="translate(-521 -250.92)"/><path class="cls-1" d="M688.37,297l-15.06-8.7v17.4l15.06,8.7,15.07-8.7v-17.4Z" transform="translate(-521 -250.92)"/><path class="cls-1" d="M688.37,314.44l-15.06-8.7v-17.4l15.06,8.7Z" transform="translate(-521 -250.92)"/><path class="cls-20" d="M703.44,305.74l-15.07,8.7V297l15.07-8.7Z" transform="translate(-521 -250.92)"/><path class="cls-1" d="M688.37,297l-15.06-8.7,15.06-8.7,15.07,8.7Z" transform="translate(-521 -250.92)"/><path class="cls-1" d="M688.37,297l-15.06-8.7v.76l15.06,8.7,15.07-8.7v-.76Z" transform="translate(-521 -250.92)"/><path class="cls-1" d="M708,308.21l-15.07-8.7v17.4l15.07,8.7,15.06-8.7v-17.4Z" transform="translate(-521 -250.92)"/><path class="cls-1" d="M708,325.61l-15.07-8.7v-17.4l15.07,8.7Z" transform="translate(-521 -250.92)"/><path class="cls-20" d="M723,316.91,708,325.61v-17.4l15.06-8.7Z" transform="translate(-521 -250.92)"/><path class="cls-1" d="M708,308.21l-15.07-8.7,15.06-8.7,15.07,8.7Z" transform="translate(-521 -250.92)"/><path class="cls-1" d="M708,308.21l-15.07-8.7v.76L708,309,723,300.27v-.76Z" transform="translate(-521 -250.92)"/><path class="cls-1" d="M649.23,297.8l-15.07-8.7v17.4l15.07,8.7,15.07-8.7V289.1Z" transform="translate(-521 -250.92)"/><path class="cls-1" d="M649.23,315.2l-15.07-8.7V289.1l15.07,8.7Z" transform="translate(-521 -250.92)"/><path class="cls-20" d="M664.3,306.5l-15.07,8.7V297.8l15.07-8.7Z" transform="translate(-521 -250.92)"/><path class="cls-1" d="M649.23,297.8l-15.07-8.7,15.07-8.7,15.07,8.7Z" transform="translate(-521 -250.92)"/><path class="cls-1" d="M649.23,297.8l-15.07-8.7v.75l15.07,8.7,15.07-8.7v-.75Z" transform="translate(-521 -250.92)"/><path class="cls-1" d="M629.66,309.72,614.59,301v17.4l15.07,8.7,15.07-8.7V301Z" transform="translate(-521 -250.92)"/><path class="cls-1" d="M629.66,327.12l-15.07-8.7V301l15.07,8.7Z" transform="translate(-521 -250.92)"/><path class="cls-20" d="M644.73,318.42l-15.07,8.7v-17.4l15.07-8.7Z" transform="translate(-521 -250.92)"/><path class="cls-1" d="M629.66,309.72,614.59,301l15.07-8.7,15.06,8.7Z" transform="translate(-521 -250.92)"/><path class="cls-1" d="M629.66,309.72,614.59,301v.75l15.07,8.7,15.06-8.7V301Z" transform="translate(-521 -250.92)"/><path class="cls-24" d="M730.92,363.6V250.92H606.59l.09,112.68,62.12,35.86Z" transform="translate(-521 -250.92)"/><path class="cls-23" d="M579.15,420a2,2,0,1,0,2-2A2,2,0,0,0,579.15,420Z" transform="translate(-521 -250.92)"/><path class="cls-1" d="M581.18,420.84a.88.88,0,1,0-.88-.88A.87.87,0,0,0,581.18,420.84Z" transform="translate(-521 -250.92)"/><path class="cls-23" d="M759,327.25a2,2,0,1,0,2-2A2,2,0,0,0,759,327.25Z" transform="translate(-521 -250.92)"/><path class="cls-1" d="M760.17,327.25a.88.88,0,1,0,.88-.88A.87.87,0,0,0,760.17,327.25Z" transform="translate(-521 -250.92)"/><path class="cls-23" d="M818.25,454.58a2,2,0,1,0,2-2A2,2,0,0,0,818.25,454.58Z" transform="translate(-521 -250.92)"/><path class="cls-1" d="M820.28,455.46a.88.88,0,1,0-.88-.88A.87.87,0,0,0,820.28,455.46Z" transform="translate(-521 -250.92)"/><path class="cls-23" d="M781.53,465a3.17,3.17,0,1,0-3.17-3.17A3.17,3.17,0,0,0,781.53,465Z" transform="translate(-521 -250.92)"/><path class="cls-1" d="M780.16,461.79a1.38,1.38,0,1,0,1.38-1.38A1.38,1.38,0,0,0,780.16,461.79Z" transform="translate(-521 -250.92)"/><path class="cls-23" d="M768.82,434.11A2.15,2.15,0,1,0,771,432,2.15,2.15,0,0,0,768.82,434.11Z" transform="translate(-521 -250.92)"/><path class="cls-1" d="M770,434.11a.93.93,0,1,0,.93-.93A.93.93,0,0,0,770,434.11Z" transform="translate(-521 -250.92)"/><path class="cls-23" d="M737.36,315.52a2,2,0,1,0,2-2A2,2,0,0,0,737.36,315.52Z" transform="translate(-521 -250.92)"/><path class="cls-1" d="M738.51,315.52a.88.88,0,1,0,.88-.88A.88.88,0,0,0,738.51,315.52Z" transform="translate(-521 -250.92)"/><path class="cls-25" d="M556.17,407a2,2,0,1,0,2-2A2,2,0,0,0,556.17,407Z" transform="translate(-521 -250.92)"/><path class="cls-26" d="M557.32,407a.88.88,0,1,0,.88-.88A.88.88,0,0,0,557.32,407Z" transform="translate(-521 -250.92)"/></svg>