<svg id="Слой_1" data-name="Слой 1" xmlns="http://www.w3.org/2000/svg" xmlns:xlink="http://www.w3.org/1999/xlink" viewBox="0 0 458 307.15"><defs><style>.cls-1,.cls-2{opacity:0.2;}.cls-2,.cls-3,.cls-4,.cls-9{fill:#fff;}.cls-2,.cls-3,.cls-4,.cls-5,.cls-7,.cls-8{isolation:isolate;}.cls-3,.cls-6,.cls-7{opacity:0.1;}.cls-4,.cls-8{opacity:0.4;}.cls-12,.cls-5{fill:#07306d;}.cls-5{opacity:0.6;}.cls-10,.cls-7{fill:#ccc7bf;}.cls-8{fill:#03002d;}.cls-11{fill:#fcd1c5;}.cls-13{fill:#e2b1a6;}.cls-14{fill:url(#Безымянный_градиент_5);}.cls-15{fill:url(#Безымянный_градиент_5-2);}.cls-16{fill:url(#Безымянный_градиент_5-3);}.cls-17{fill:#aa8383;}.cls-18{fill:#936d6d;}.cls-19{fill:#f0f6ff;}.cls-20{fill:#c4ccd6;}.cls-21{fill:url(#Безымянный_градиент_5-4);}.cls-22{fill:url(#Безымянный_градиент_5-5);}</style><linearGradient id="Безымянный_градиент_5" x1="642.41" y1="419.99" x2="612.92" y2="460.95" gradientTransform="matrix(1, 0, 0, -1, 0, 770)" gradientUnits="userSpaceOnUse"><stop offset="0" stop-color="#4b79ce"/><stop offset="0.41" stop-color="#426ab3"/><stop offset="1" stop-color="#2b4a81"/></linearGradient><linearGradient id="Безымянный_градиент_5-2" x1="635.12" y1="396.67" x2="562.2" y2="413.97" xlink:href="#Безымянный_градиент_5"/><linearGradient id="Безымянный_градиент_5-3" x1="639.27" y1="383.29" x2="589.03" y2="395.34" xlink:href="#Безымянный_градиент_5"/><linearGradient id="Безымянный_градиент_5-4" x1="764.62" y1="460.09" x2="682.62" y2="483.36" xlink:href="#Безымянный_градиент_5"/><linearGradient id="Безымянный_градиент_5-5" x1="760.91" y1="446.14" x2="675.8" y2="489.94" xlink:href="#Безымянный_градиент_5"/></defs><title>tech-3</title><g class="cls-1"><path class="cls-2" d="M682.49,417.37l6.58-3.8-6.58-3.8-6.57,3.81Z" transform="translate(-454 -232)"/><path class="cls-3" d="M669.34,425l6.58-3.79-6.58-3.8-6.58,3.8Z" transform="translate(-454 -232)"/><path class="cls-4" d="M656.19,432.57l6.57-3.81-6.57-3.8-6.58,3.8Z" transform="translate(-454 -232)"/><path class="cls-2" d="M643,440.16l6.59-3.8L643,432.57l-6.58,3.79Z" transform="translate(-454 -232)"/><path class="cls-4" d="M629.87,447.76l6.57-3.81-6.57-3.79L623.29,444Z" transform="translate(-454 -232)"/><path class="cls-2" d="M616.71,455.35l6.58-3.8-6.58-3.79-6.57,3.79Z" transform="translate(-454 -232)"/><path class="cls-2" d="M603.55,463l6.59-3.8-6.58-3.8-6.59,3.8Z" transform="translate(-454 -232)"/><path class="cls-2" d="M590.4,470.54l6.57-3.79L590.4,463l-6.58,3.8Z" transform="translate(-454 -232)"/><path class="cls-3" d="M577.24,478.15l6.58-3.81-6.58-3.8-6.57,3.8Z" transform="translate(-454 -232)"/></g><g class="cls-1"><path class="cls-2" d="M695.71,425l6.58-3.81-6.58-3.79-6.58,3.79Z" transform="translate(-454 -232)"/><path class="cls-2" d="M682.56,432.59l6.57-3.79-6.57-3.8L676,428.8Z" transform="translate(-454 -232)"/><path class="cls-2" d="M669.39,440.19l6.58-3.8-6.58-3.8-6.58,3.8Z" transform="translate(-454 -232)"/><path class="cls-2" d="M656.24,447.78l6.57-3.79-6.57-3.8-6.58,3.8Z" transform="translate(-454 -232)"/><path class="cls-2" d="M643.08,455.39l6.58-3.81-6.58-3.8-6.57,3.8Z" transform="translate(-454 -232)"/><path class="cls-2" d="M629.92,463l6.59-3.8-6.59-3.79-6.58,3.79Z" transform="translate(-454 -232)"/><path class="cls-2" d="M616.76,470.58l6.58-3.81L616.76,463l-6.58,3.79Z" transform="translate(-454 -232)"/><path class="cls-2" d="M603.61,478.17l6.58-3.79-6.58-3.8-6.58,3.8Z" transform="translate(-454 -232)"/><path class="cls-2" d="M590.46,485.77,597,482l-6.57-3.8-6.59,3.8Z" transform="translate(-454 -232)"/></g><g class="cls-1"><path class="cls-2" d="M708.92,432.63l6.58-3.81-6.58-3.8-6.59,3.8Z" transform="translate(-454 -232)"/><path class="cls-2" d="M695.76,440.22l6.57-3.8-6.57-3.79-6.58,3.79Z" transform="translate(-454 -232)"/><path class="cls-2" d="M682.6,447.82l6.58-3.81-6.58-3.79L676,444Z" transform="translate(-454 -232)"/><path class="cls-3" d="M669.45,455.41l6.58-3.79-6.58-3.8-6.58,3.8Z" transform="translate(-454 -232)"/><path class="cls-4" d="M656.29,463l6.57-3.8-6.57-3.8-6.58,3.8Z" transform="translate(-454 -232)"/><path class="cls-4" d="M643.13,470.6l6.58-3.79-6.58-3.8-6.58,3.8Z" transform="translate(-454 -232)"/><path class="cls-2" d="M630,478.21l6.57-3.81L630,470.6l-6.58,3.8Z" transform="translate(-454 -232)"/><path class="cls-2" d="M616.81,485.8l6.59-3.8-6.59-3.79L610.24,482Z" transform="translate(-454 -232)"/><path class="cls-2" d="M603.66,493.39l6.57-3.8-6.57-3.79-6.58,3.79Z" transform="translate(-454 -232)"/></g><g class="cls-1"><path class="cls-4" d="M722.13,440.26l6.57-3.81-6.57-3.8-6.58,3.8Z" transform="translate(-454 -232)"/><path class="cls-4" d="M709,447.85l6.58-3.8L709,440.26l-6.57,3.79Z" transform="translate(-454 -232)"/><path class="cls-3" d="M695.82,455.45l6.58-3.81-6.58-3.79-6.59,3.79Z" transform="translate(-454 -232)"/><path class="cls-2" d="M682.65,463l6.58-3.8-6.58-3.79-6.57,3.79Z" transform="translate(-454 -232)"/><path class="cls-2" d="M669.5,470.64l6.58-3.8L669.5,463l-6.58,3.8Z" transform="translate(-454 -232)"/><path class="cls-2" d="M656.35,478.23l6.57-3.79-6.57-3.8-6.59,3.8Z" transform="translate(-454 -232)"/><path class="cls-4" d="M643.18,485.82l6.58-3.79-6.58-3.8L636.6,482Z" transform="translate(-454 -232)"/><path class="cls-2" d="M630,493.43l6.57-3.8L630,485.84l-6.58,3.79Z" transform="translate(-454 -232)"/><path class="cls-2" d="M616.87,501l6.58-3.8-6.58-3.79-6.57,3.79Z" transform="translate(-454 -232)"/></g><g class="cls-1"><path class="cls-2" d="M735.34,447.88l6.58-3.8-6.58-3.8-6.57,3.8Z" transform="translate(-454 -232)"/><path class="cls-2" d="M722.18,455.47l6.59-3.79-6.59-3.8-6.58,3.8Z" transform="translate(-454 -232)"/><path class="cls-2" d="M709,463.08l6.58-3.81-6.58-3.8-6.57,3.8Z" transform="translate(-454 -232)"/><path class="cls-2" d="M695.87,470.67l6.58-3.8-6.58-3.79-6.58,3.79Z" transform="translate(-454 -232)"/><path class="cls-2" d="M682.71,478.27l6.58-3.81-6.58-3.79-6.58,3.79Z" transform="translate(-454 -232)"/><path class="cls-2" d="M669.55,485.86l6.58-3.79-6.58-3.8-6.58,3.8Z" transform="translate(-454 -232)"/><path class="cls-2" d="M656.4,493.45l6.57-3.79-6.57-3.8-6.58,3.8Z" transform="translate(-454 -232)"/><path class="cls-2" d="M643.24,501.05l6.58-3.79-6.58-3.81-6.57,3.81Z" transform="translate(-454 -232)"/><path class="cls-2" d="M630.08,508.64l6.57-3.79-6.57-3.8-6.58,3.8Z" transform="translate(-454 -232)"/></g><g class="cls-1"><path class="cls-2" d="M748.55,455.51l6.59-3.81-6.59-3.79L742,451.7Z" transform="translate(-454 -232)"/><path class="cls-2" d="M735.39,463.1l6.58-3.79-6.58-3.8-6.57,3.8Z" transform="translate(-454 -232)"/><path class="cls-4" d="M722.24,470.7l6.58-3.8-6.58-3.8-6.58,3.8Z" transform="translate(-454 -232)"/><path class="cls-2" d="M709.07,478.29l6.59-3.79-6.59-3.8-6.57,3.8Z" transform="translate(-454 -232)"/><path class="cls-3" d="M695.92,485.88l6.58-3.79-6.58-3.8-6.58,3.8Z" transform="translate(-454 -232)"/><path class="cls-2" d="M682.77,493.49l6.57-3.8-6.57-3.81-6.58,3.81Z" transform="translate(-454 -232)"/><path class="cls-2" d="M669.61,501.08l6.58-3.8-6.58-3.79L663,497.28Z" transform="translate(-454 -232)"/><path class="cls-2" d="M656.45,508.68l6.57-3.79-6.57-3.81-6.58,3.81Z" transform="translate(-454 -232)"/><path class="cls-2" d="M643.29,516.27l6.58-3.79-6.58-3.8-6.57,3.8Z" transform="translate(-454 -232)"/></g><g class="cls-1"><path class="cls-2" d="M761.76,463.14l6.58-3.81-6.58-3.79-6.58,3.79Z" transform="translate(-454 -232)"/><path class="cls-2" d="M748.61,470.73l6.57-3.8-6.57-3.79L742,466.93Z" transform="translate(-454 -232)"/><path class="cls-4" d="M735.44,478.32l6.59-3.8-6.59-3.79-6.58,3.79Z" transform="translate(-454 -232)"/><path class="cls-2" d="M722.29,485.92l6.57-3.79-6.57-3.81-6.58,3.81Z" transform="translate(-454 -232)"/><path class="cls-2" d="M709.13,493.51l6.58-3.79-6.58-3.8-6.57,3.8Z" transform="translate(-454 -232)"/><path class="cls-3" d="M696,501.12l6.59-3.8L696,493.51l-6.58,3.81Z" transform="translate(-454 -232)"/><path class="cls-4" d="M682.81,508.71l6.58-3.8-6.58-3.8-6.57,3.8Z" transform="translate(-454 -232)"/><path class="cls-2" d="M669.66,516.31l6.58-3.8-6.58-3.8-6.57,3.8Z" transform="translate(-454 -232)"/><path class="cls-3" d="M656.51,523.9l6.58-3.8-6.58-3.79-6.59,3.79Z" transform="translate(-454 -232)"/></g><g class="cls-1"><path class="cls-2" d="M775,470.75l6.57-3.79-6.57-3.8-6.59,3.8Z" transform="translate(-454 -232)"/><path class="cls-4" d="M761.81,478.36l6.58-3.8-6.58-3.81-6.58,3.81Z" transform="translate(-454 -232)"/><path class="cls-2" d="M748.66,486l6.57-3.8-6.57-3.79-6.58,3.79Z" transform="translate(-454 -232)"/><path class="cls-2" d="M735.51,493.55l6.57-3.79L735.51,486l-6.58,3.81Z" transform="translate(-454 -232)"/><path class="cls-2" d="M722.34,501.14l6.59-3.79-6.59-3.8-6.58,3.8Z" transform="translate(-454 -232)"/><path class="cls-2" d="M709.18,508.74l6.58-3.79-6.58-3.81L702.61,505Z" transform="translate(-454 -232)"/><path class="cls-2" d="M696,516.33l6.58-3.79-6.58-3.8-6.58,3.8Z" transform="translate(-454 -232)"/><path class="cls-4" d="M682.87,523.94l6.59-3.8-6.59-3.81-6.58,3.81Z" transform="translate(-454 -232)"/><path class="cls-2" d="M669.71,531.53l6.58-3.8-6.58-3.79-6.58,3.79Z" transform="translate(-454 -232)"/></g><g class="cls-1"><path class="cls-2" d="M788.18,478.38l6.58-3.79-6.58-3.8-6.58,3.8Z" transform="translate(-454 -232)"/><path class="cls-3" d="M775,486l6.57-3.79L775,478.38l-6.58,3.81Z" transform="translate(-454 -232)"/><path class="cls-2" d="M761.87,493.57l6.58-3.79-6.58-3.8-6.59,3.8Z" transform="translate(-454 -232)"/><path class="cls-2" d="M748.71,501.18l6.57-3.8-6.57-3.81-6.58,3.81Z" transform="translate(-454 -232)"/><path class="cls-2" d="M735.55,508.77l6.58-3.8-6.58-3.79L729,505Z" transform="translate(-454 -232)"/><path class="cls-2" d="M722.4,516.37l6.58-3.79-6.58-3.81-6.58,3.81Z" transform="translate(-454 -232)"/><path class="cls-4" d="M709.23,524l6.59-3.79-6.59-3.8-6.57,3.8Z" transform="translate(-454 -232)"/><path class="cls-2" d="M696.08,531.56l6.58-3.79L696.08,524l-6.58,3.81Z" transform="translate(-454 -232)"/><path class="cls-2" d="M682.93,539.15l6.57-3.79-6.57-3.8-6.58,3.8Z" transform="translate(-454 -232)"/></g><g class="cls-1"><g class="cls-1"><path class="cls-2" d="M799.74,349l6.57-3.8-6.57-3.79-6.58,3.79Z" transform="translate(-454 -232)"/><path class="cls-3" d="M786.57,356.6l6.59-3.8-6.59-3.8L780,352.8Z" transform="translate(-454 -232)"/><path class="cls-4" d="M773.42,364.19,780,360.4l-6.57-3.8-6.58,3.8Z" transform="translate(-454 -232)"/><path class="cls-2" d="M760.27,371.79l6.57-3.79-6.57-3.81L753.69,368Z" transform="translate(-454 -232)"/><path class="cls-4" d="M747.1,379.38l6.59-3.79-6.58-3.8-6.59,3.8Z" transform="translate(-454 -232)"/><path class="cls-2" d="M734,387l6.57-3.8L734,379.38l-6.58,3.81Z" transform="translate(-454 -232)"/><path class="cls-2" d="M720.79,394.58l6.58-3.8L720.79,387l-6.58,3.79Z" transform="translate(-454 -232)"/><path class="cls-2" d="M707.64,402.18l6.57-3.8-6.57-3.8-6.59,3.8Z" transform="translate(-454 -232)"/><path class="cls-3" d="M694.47,409.77l6.58-3.79-6.58-3.8-6.58,3.8Z" transform="translate(-454 -232)"/></g><g class="cls-1"><path class="cls-2" d="M812.94,356.62l6.58-3.79-6.58-3.8-6.58,3.8Z" transform="translate(-454 -232)"/><path class="cls-2" d="M799.79,364.23l6.57-3.8-6.57-3.8-6.58,3.8Z" transform="translate(-454 -232)"/><path class="cls-2" d="M786.63,371.82l6.58-3.8-6.58-3.79L780.06,368Z" transform="translate(-454 -232)"/><path class="cls-2" d="M773.47,379.42l6.59-3.79-6.59-3.81-6.58,3.81Z" transform="translate(-454 -232)"/><path class="cls-2" d="M760.31,387l6.58-3.79-6.58-3.8-6.57,3.8Z" transform="translate(-454 -232)"/><path class="cls-2" d="M747.16,394.61l6.58-3.79L747.16,387l-6.58,3.81Z" transform="translate(-454 -232)"/><path class="cls-2" d="M734,402.2l6.58-3.79-6.58-3.8-6.58,3.8Z" transform="translate(-454 -232)"/><path class="cls-2" d="M720.84,409.81l6.58-3.8-6.58-3.81L714.26,406Z" transform="translate(-454 -232)"/><path class="cls-2" d="M707.69,417.4l6.58-3.8-6.58-3.79-6.58,3.79Z" transform="translate(-454 -232)"/></g><g class="cls-1"><path class="cls-2" d="M826.16,364.25l6.57-3.79-6.57-3.8-6.58,3.8Z" transform="translate(-454 -232)"/><path class="cls-2" d="M813,371.85l6.58-3.79L813,364.25l-6.59,3.81Z" transform="translate(-454 -232)"/><path class="cls-2" d="M799.84,379.45l6.57-3.8-6.57-3.8-6.58,3.8Z" transform="translate(-454 -232)"/><path class="cls-3" d="M786.68,387.05l6.58-3.8-6.58-3.8-6.57,3.8Z" transform="translate(-454 -232)"/><path class="cls-4" d="M773.53,394.64l6.58-3.8-6.58-3.79L767,390.84Z" transform="translate(-454 -232)"/><path class="cls-4" d="M760.36,402.24l6.59-3.79-6.59-3.81-6.57,3.81Z" transform="translate(-454 -232)"/><path class="cls-2" d="M747.21,409.83l6.58-3.79-6.58-3.8-6.58,3.8Z" transform="translate(-454 -232)"/><path class="cls-2" d="M734.06,417.43l6.57-3.8-6.57-3.8-6.58,3.8Z" transform="translate(-454 -232)"/><path class="cls-2" d="M720.89,425l6.59-3.79-6.58-3.8-6.58,3.8Z" transform="translate(-454 -232)"/></g><g class="cls-1"><path class="cls-4" d="M839.37,371.88l6.58-3.8-6.58-3.79-6.59,3.79Z" transform="translate(-454 -232)"/><path class="cls-4" d="M826.2,379.48l6.58-3.79-6.58-3.81-6.57,3.81Z" transform="translate(-454 -232)"/><path class="cls-3" d="M813.05,387.07l6.58-3.79-6.58-3.8-6.57,3.8Z" transform="translate(-454 -232)"/><path class="cls-2" d="M799.9,394.68l6.58-3.8-6.58-3.81-6.59,3.81Z" transform="translate(-454 -232)"/><path class="cls-2" d="M786.73,402.27l6.58-3.8-6.58-3.79-6.57,3.79Z" transform="translate(-454 -232)"/><path class="cls-2" d="M773.58,409.87l6.58-3.81-6.58-3.79L767,406.06Z" transform="translate(-454 -232)"/><path class="cls-4" d="M760.42,417.46l6.58-3.8-6.58-3.79-6.57,3.79Z" transform="translate(-454 -232)"/><path class="cls-2" d="M747.26,425.06l6.59-3.81-6.59-3.79-6.58,3.79Z" transform="translate(-454 -232)"/><path class="cls-2" d="M734.11,432.65l6.57-3.79-6.57-3.8-6.58,3.8Z" transform="translate(-454 -232)"/></g><g class="cls-1"><path class="cls-2" d="M852.58,379.51l6.57-3.8-6.57-3.79L846,375.71Z" transform="translate(-454 -232)"/><path class="cls-2" d="M839.42,387.11l6.58-3.79-6.58-3.81-6.57,3.81Z" transform="translate(-454 -232)"/><path class="cls-2" d="M826.27,394.7l6.57-3.79-6.57-3.8-6.59,3.8Z" transform="translate(-454 -232)"/><path class="cls-2" d="M813.1,402.3l6.58-3.8-6.58-3.8-6.58,3.81Z" transform="translate(-454 -232)"/><path class="cls-2" d="M800,409.89l6.57-3.79L800,402.3l-6.58,3.8Z" transform="translate(-454 -232)"/><path class="cls-2" d="M786.79,417.5l6.58-3.81-6.58-3.8-6.59,3.8Z" transform="translate(-454 -232)"/><path class="cls-2" d="M773.63,425.09l6.57-3.8-6.57-3.79-6.58,3.79Z" transform="translate(-454 -232)"/><path class="cls-2" d="M760.48,432.69l6.57-3.81-6.57-3.79-6.58,3.79Z" transform="translate(-454 -232)"/><path class="cls-2" d="M747.32,440.28l6.58-3.79-6.58-3.8-6.58,3.8Z" transform="translate(-454 -232)"/></g><g class="cls-1"><path class="cls-2" d="M865.79,387.13l6.58-3.79-6.58-3.8-6.58,3.8Z" transform="translate(-454 -232)"/><path class="cls-2" d="M852.63,394.74l6.58-3.8-6.58-3.81-6.58,3.81Z" transform="translate(-454 -232)"/><path class="cls-4" d="M839.47,402.33l6.58-3.8-6.58-3.79-6.58,3.79Z" transform="translate(-454 -232)"/><path class="cls-2" d="M826.32,409.93l6.57-3.81-6.57-3.79-6.58,3.79Z" transform="translate(-454 -232)"/><path class="cls-3" d="M813.16,417.52l6.58-3.79-6.58-3.8-6.59,3.8Z" transform="translate(-454 -232)"/><path class="cls-2" d="M800,425.13l6.58-3.81-6.58-3.8-6.58,3.8Z" transform="translate(-454 -232)"/><path class="cls-2" d="M786.84,432.71l6.58-3.79-6.58-3.79-6.57,3.79Z" transform="translate(-454 -232)"/><path class="cls-2" d="M773.69,440.32l6.58-3.81-6.58-3.8-6.59,3.8Z" transform="translate(-454 -232)"/><path class="cls-2" d="M760.52,447.91l6.58-3.8-6.58-3.79L754,444.11Z" transform="translate(-454 -232)"/></g><g class="cls-1"><path class="cls-2" d="M879,394.76l6.59-3.79-6.59-3.8-6.57,3.8Z" transform="translate(-454 -232)"/><path class="cls-2" d="M865.84,402.37l6.58-3.81-6.58-3.8-6.58,3.8Z" transform="translate(-454 -232)"/><path class="cls-4" d="M852.68,410l6.58-3.8-6.58-3.79-6.57,3.79Z" transform="translate(-454 -232)"/><path class="cls-2" d="M839.52,417.56l6.59-3.81L839.52,410l-6.58,3.79Z" transform="translate(-454 -232)"/><path class="cls-2" d="M826.37,425.15l6.57-3.8-6.57-3.79-6.58,3.79Z" transform="translate(-454 -232)"/><path class="cls-3" d="M813.21,432.75l6.58-3.8-6.58-3.8-6.57,3.8Z" transform="translate(-454 -232)"/><path class="cls-4" d="M800.06,440.34l6.58-3.79-6.58-3.8-6.59,3.8Z" transform="translate(-454 -232)"/><path class="cls-2" d="M786.89,448l6.58-3.81-6.58-3.8-6.57,3.8Z" transform="translate(-454 -232)"/><path class="cls-3" d="M773.74,455.54l6.58-3.8L773.74,448l-6.58,3.79Z" transform="translate(-454 -232)"/></g><g class="cls-1"><path class="cls-2" d="M892.21,402.39l6.57-3.79-6.57-3.8-6.58,3.8Z" transform="translate(-454 -232)"/><path class="cls-4" d="M879.05,410l6.58-3.81-6.58-3.79-6.57,3.79Z" transform="translate(-454 -232)"/><path class="cls-2" d="M865.89,417.58l6.59-3.79-6.59-3.8-6.58,3.8Z" transform="translate(-454 -232)"/><path class="cls-2" d="M852.73,425.19l6.58-3.81-6.58-3.8-6.57,3.8Z" transform="translate(-454 -232)"/><path class="cls-2" d="M839.58,432.78l6.58-3.8-6.58-3.79L833,429Z" transform="translate(-454 -232)"/><path class="cls-2" d="M826.42,440.38l6.58-3.81-6.58-3.79-6.58,3.79Z" transform="translate(-454 -232)"/><path class="cls-2" d="M813.26,448l6.58-3.79-6.58-3.8-6.58,3.8Z" transform="translate(-454 -232)"/><path class="cls-4" d="M800.11,455.57l6.57-3.81L800.11,448l-6.58,3.79Z" transform="translate(-454 -232)"/><path class="cls-2" d="M787,463.16l6.58-3.79-6.58-3.8-6.59,3.8Z" transform="translate(-454 -232)"/></g><g class="cls-1"><path class="cls-2" d="M905.42,410l6.58-3.8-6.58-3.79-6.59,3.79Z" transform="translate(-454 -232)"/><path class="cls-3" d="M892.26,417.62l6.57-3.81L892.26,410l-6.58,3.79Z" transform="translate(-454 -232)"/><path class="cls-2" d="M879.1,425.21l6.58-3.8-6.58-3.79-6.57,3.79Z" transform="translate(-454 -232)"/><path class="cls-2" d="M866,432.81l6.58-3.8-6.58-3.8-6.58,3.8Z" transform="translate(-454 -232)"/><path class="cls-2" d="M852.78,440.4l6.59-3.79-6.59-3.8-6.57,3.8Z" transform="translate(-454 -232)"/><path class="cls-2" d="M839.63,448l6.58-3.81-6.58-3.8-6.58,3.8Z" transform="translate(-454 -232)"/><path class="cls-4" d="M826.48,455.6l6.57-3.8L826.48,448l-6.58,3.79Z" transform="translate(-454 -232)"/><path class="cls-2" d="M813.31,463.2l6.59-3.81-6.59-3.79-6.58,3.79Z" transform="translate(-454 -232)"/><path class="cls-2" d="M800.16,470.79l6.57-3.79-6.57-3.8-6.58,3.8Z" transform="translate(-454 -232)"/></g></g><g class="cls-1"><g class="cls-1"><path class="cls-2" d="M565.83,349l6.59-3.8-6.59-3.79-6.58,3.79Z" transform="translate(-454 -232)"/><path class="cls-3" d="M552.68,356.6l6.57-3.8-6.57-3.8-6.58,3.8Z" transform="translate(-454 -232)"/><path class="cls-4" d="M539.52,364.19l6.58-3.79-6.58-3.8L533,360.4Z" transform="translate(-454 -232)"/><path class="cls-2" d="M526.36,371.79,533,368l-6.58-3.81L519.78,368Z" transform="translate(-454 -232)"/><path class="cls-4" d="M513.2,379.38l6.58-3.79-6.58-3.8-6.57,3.8Z" transform="translate(-454 -232)"/><path class="cls-2" d="M500.05,387l6.58-3.8-6.58-3.81-6.58,3.81Z" transform="translate(-454 -232)"/><path class="cls-2" d="M486.9,394.58l6.57-3.8L486.9,387l-6.59,3.79Z" transform="translate(-454 -232)"/><path class="cls-2" d="M473.73,402.18l6.58-3.8-6.58-3.8-6.58,3.8Z" transform="translate(-454 -232)"/><path class="cls-3" d="M460.58,409.77l6.57-3.79-6.57-3.8L454,406Z" transform="translate(-454 -232)"/></g><g class="cls-1"><path class="cls-2" d="M579.05,356.62l6.57-3.79-6.57-3.8-6.58,3.8Z" transform="translate(-454 -232)"/><path class="cls-2" d="M565.89,364.23l6.58-3.8-6.58-3.8-6.57,3.8Z" transform="translate(-454 -232)"/><path class="cls-2" d="M552.73,371.82l6.59-3.8-6.59-3.79L546.15,368Z" transform="translate(-454 -232)"/><path class="cls-2" d="M539.57,379.42l6.58-3.79-6.58-3.81L533,375.63Z" transform="translate(-454 -232)"/><path class="cls-2" d="M526.42,387l6.58-3.79-6.58-3.8-6.58,3.8Z" transform="translate(-454 -232)"/><path class="cls-2" d="M513.25,394.61l6.59-3.79L513.27,387l-6.59,3.81Z" transform="translate(-454 -232)"/><path class="cls-2" d="M500.1,402.2l6.58-3.79-6.58-3.8-6.58,3.8Z" transform="translate(-454 -232)"/><path class="cls-2" d="M487,409.81l6.57-3.8L487,402.2,480.37,406Z" transform="translate(-454 -232)"/><path class="cls-2" d="M473.79,417.4l6.58-3.8-6.58-3.79-6.59,3.79Z" transform="translate(-454 -232)"/></g><g class="cls-1"><path class="cls-2" d="M592.26,364.25l6.58-3.79-6.58-3.8-6.59,3.8Z" transform="translate(-454 -232)"/><path class="cls-2" d="M579.09,371.85l6.58-3.79-6.58-3.81-6.57,3.81Z" transform="translate(-454 -232)"/><path class="cls-2" d="M565.94,379.45l6.58-3.8-6.58-3.8-6.58,3.8Z" transform="translate(-454 -232)"/><path class="cls-3" d="M552.79,387.05l6.57-3.8-6.57-3.8-6.58,3.8Z" transform="translate(-454 -232)"/><path class="cls-4" d="M539.62,394.64l6.59-3.8-6.59-3.79L533,390.84Z" transform="translate(-454 -232)"/><path class="cls-4" d="M526.47,402.24l6.57-3.79-6.57-3.81-6.58,3.81Z" transform="translate(-454 -232)"/><path class="cls-2" d="M513.31,409.83l6.58-3.79-6.58-3.8-6.57,3.8Z" transform="translate(-454 -232)"/><path class="cls-2" d="M500.15,417.43l6.59-3.8-6.58-3.8-6.59,3.8Z" transform="translate(-454 -232)"/><path class="cls-2" d="M487,425l6.58-3.79-6.58-3.8-6.57,3.8Z" transform="translate(-454 -232)"/></g><g class="cls-1"><path class="cls-4" d="M605.46,371.88l6.58-3.8-6.58-3.79-6.57,3.79Z" transform="translate(-454 -232)"/><path class="cls-4" d="M592.31,379.48l6.58-3.79-6.58-3.81-6.58,3.81Z" transform="translate(-454 -232)"/><path class="cls-3" d="M579.16,387.07l6.57-3.79-6.57-3.8-6.58,3.8Z" transform="translate(-454 -232)"/><path class="cls-2" d="M566,394.68l6.58-3.8L566,387.07l-6.57,3.81Z" transform="translate(-454 -232)"/><path class="cls-2" d="M552.84,402.27l6.57-3.8-6.57-3.79-6.58,3.79Z" transform="translate(-454 -232)"/><path class="cls-2" d="M539.68,409.87l6.58-3.81-6.58-3.79-6.57,3.79Z" transform="translate(-454 -232)"/><path class="cls-4" d="M526.52,417.46l6.59-3.8-6.59-3.79-6.58,3.79Z" transform="translate(-454 -232)"/><path class="cls-2" d="M513.36,425.06l6.58-3.81-6.58-3.79-6.57,3.79Z" transform="translate(-454 -232)"/><path class="cls-2" d="M500.21,432.65l6.58-3.79-6.58-3.8-6.58,3.8Z" transform="translate(-454 -232)"/></g><g class="cls-1"><path class="cls-2" d="M618.68,379.51l6.58-3.8-6.58-3.79-6.58,3.79Z" transform="translate(-454 -232)"/><path class="cls-2" d="M605.53,387.11l6.57-3.79-6.57-3.81-6.59,3.81Z" transform="translate(-454 -232)"/><path class="cls-2" d="M592.36,394.7l6.58-3.79-6.58-3.8-6.58,3.8Z" transform="translate(-454 -232)"/><path class="cls-2" d="M579.21,402.3l6.57-3.8-6.57-3.8-6.58,3.81Z" transform="translate(-454 -232)"/><path class="cls-2" d="M566.05,409.89l6.58-3.79-6.58-3.8-6.58,3.8Z" transform="translate(-454 -232)"/><path class="cls-2" d="M552.89,417.5l6.57-3.81-6.57-3.8-6.58,3.8Z" transform="translate(-454 -232)"/><path class="cls-2" d="M539.73,425.09l6.58-3.8-6.58-3.79-6.57,3.79Z" transform="translate(-454 -232)"/><path class="cls-2" d="M526.58,432.69l6.58-3.81-6.58-3.79L520,428.88Z" transform="translate(-454 -232)"/><path class="cls-2" d="M513.41,440.28l6.59-3.79-6.59-3.8-6.57,3.8Z" transform="translate(-454 -232)"/></g><g class="cls-1"><path class="cls-2" d="M631.88,387.13l6.59-3.79-6.59-3.8-6.57,3.8Z" transform="translate(-454 -232)"/><path class="cls-2" d="M618.73,394.74l6.58-3.8-6.58-3.81-6.58,3.81Z" transform="translate(-454 -232)"/><path class="cls-4" d="M605.58,402.33l6.57-3.8-6.57-3.79L599,398.53Z" transform="translate(-454 -232)"/><path class="cls-2" d="M592.42,409.93l6.58-3.81-6.58-3.79-6.59,3.79Z" transform="translate(-454 -232)"/><path class="cls-3" d="M579.26,417.52l6.57-3.79-6.57-3.8-6.58,3.8Z" transform="translate(-454 -232)"/><path class="cls-2" d="M566.1,425.13l6.58-3.81-6.58-3.8-6.57,3.8Z" transform="translate(-454 -232)"/><path class="cls-2" d="M553,432.71l6.58-3.79L553,425.13l-6.58,3.79Z" transform="translate(-454 -232)"/><path class="cls-2" d="M539.78,440.32l6.58-3.81-6.58-3.8-6.57,3.8Z" transform="translate(-454 -232)"/><path class="cls-2" d="M526.63,447.91l6.58-3.8-6.58-3.79-6.58,3.79Z" transform="translate(-454 -232)"/></g><g class="cls-1"><path class="cls-2" d="M645.1,394.76l6.57-3.79-6.57-3.8-6.58,3.8Z" transform="translate(-454 -232)"/><path class="cls-2" d="M631.94,402.37l6.58-3.81-6.58-3.8-6.57,3.8Z" transform="translate(-454 -232)"/><path class="cls-4" d="M618.78,410l6.59-3.8-6.59-3.79-6.58,3.79Z" transform="translate(-454 -232)"/><path class="cls-2" d="M605.62,417.56l6.58-3.81L605.62,410l-6.57,3.79Z" transform="translate(-454 -232)"/><path class="cls-2" d="M592.47,425.15l6.58-3.8-6.58-3.79-6.58,3.79Z" transform="translate(-454 -232)"/><path class="cls-3" d="M579.32,432.75l6.57-3.8-6.57-3.8-6.59,3.8Z" transform="translate(-454 -232)"/><path class="cls-4" d="M566.15,440.34l6.58-3.79-6.58-3.8-6.58,3.8Z" transform="translate(-454 -232)"/><path class="cls-2" d="M553,448l6.57-3.81-6.57-3.8-6.58,3.8Z" transform="translate(-454 -232)"/><path class="cls-3" d="M539.84,455.54l6.58-3.8L539.84,448l-6.57,3.79Z" transform="translate(-454 -232)"/></g><g class="cls-1"><path class="cls-2" d="M658.31,402.39l6.58-3.79-6.58-3.8-6.57,3.8Z" transform="translate(-454 -232)"/><path class="cls-4" d="M645.15,410l6.59-3.81-6.59-3.79-6.58,3.79Z" transform="translate(-454 -232)"/><path class="cls-2" d="M632,417.58l6.58-3.79L632,410l-6.57,3.8Z" transform="translate(-454 -232)"/><path class="cls-2" d="M618.84,425.19l6.58-3.81-6.58-3.8-6.58,3.8Z" transform="translate(-454 -232)"/><path class="cls-2" d="M605.68,432.78l6.58-3.8-6.58-3.79L599.1,429Z" transform="translate(-454 -232)"/><path class="cls-2" d="M592.52,440.38l6.58-3.81-6.58-3.79L586,436.57Z" transform="translate(-454 -232)"/><path class="cls-2" d="M579.37,448l6.57-3.79-6.57-3.8-6.58,3.8Z" transform="translate(-454 -232)"/><path class="cls-4" d="M566.21,455.57l6.58-3.81L566.21,448l-6.58,3.79Z" transform="translate(-454 -232)"/><path class="cls-2" d="M553.05,463.16l6.58-3.79-6.58-3.8-6.58,3.8Z" transform="translate(-454 -232)"/></g><g class="cls-1"><path class="cls-2" d="M671.52,410l6.57-3.8-6.57-3.79-6.58,3.79Z" transform="translate(-454 -232)"/><path class="cls-3" d="M658.36,417.62l6.58-3.81L658.36,410l-6.57,3.79Z" transform="translate(-454 -232)"/><path class="cls-2" d="M645.21,425.21l6.58-3.8-6.58-3.79-6.58,3.79Z" transform="translate(-454 -232)"/><path class="cls-2" d="M632,432.81l6.59-3.8-6.59-3.8-6.57,3.8Z" transform="translate(-454 -232)"/><path class="cls-2" d="M618.89,440.4l6.58-3.79-6.58-3.8-6.58,3.8Z" transform="translate(-454 -232)"/><path class="cls-2" d="M605.74,448l6.57-3.81-6.57-3.8-6.58,3.8Z" transform="translate(-454 -232)"/><path class="cls-4" d="M592.57,455.6l6.59-3.8L592.58,448,586,451.8Z" transform="translate(-454 -232)"/><path class="cls-2" d="M579.42,463.2l6.57-3.81-6.57-3.79-6.58,3.79Z" transform="translate(-454 -232)"/><path class="cls-2" d="M566.26,470.79l6.58-3.79-6.58-3.8-6.57,3.8Z" transform="translate(-454 -232)"/></g></g><g class="cls-1"><g class="cls-1"><path class="cls-2" d="M682.49,280.39l6.58-3.8-6.58-3.79-6.57,3.79Z" transform="translate(-454 -232)"/><path class="cls-3" d="M669.34,288l6.58-3.8-6.58-3.8-6.58,3.8Z" transform="translate(-454 -232)"/><path class="cls-4" d="M656.19,295.58l6.57-3.8L656.19,288l-6.58,3.79Z" transform="translate(-454 -232)"/><path class="cls-2" d="M643,303.18l6.59-3.8-6.59-3.8-6.58,3.8Z" transform="translate(-454 -232)"/><path class="cls-4" d="M629.87,310.77l6.57-3.79-6.57-3.8-6.58,3.8Z" transform="translate(-454 -232)"/><path class="cls-2" d="M616.71,318.38l6.58-3.81-6.58-3.8-6.57,3.8Z" transform="translate(-454 -232)"/><path class="cls-2" d="M603.55,326l6.59-3.8-6.58-3.79L597,322.17Z" transform="translate(-454 -232)"/><path class="cls-2" d="M590.4,333.57l6.57-3.81L590.4,326l-6.58,3.79Z" transform="translate(-454 -232)"/><path class="cls-3" d="M577.24,341.16l6.58-3.8-6.58-3.79-6.57,3.79Z" transform="translate(-454 -232)"/></g><g class="cls-1"><path class="cls-2" d="M695.71,288l6.58-3.79-6.58-3.8-6.58,3.8Z" transform="translate(-454 -232)"/><path class="cls-2" d="M682.56,295.62l6.57-3.81-6.57-3.8-6.59,3.8Z" transform="translate(-454 -232)"/><path class="cls-2" d="M669.39,303.21l6.58-3.8-6.58-3.79-6.58,3.79Z" transform="translate(-454 -232)"/><path class="cls-2" d="M656.24,310.81l6.57-3.81-6.57-3.79L649.66,307Z" transform="translate(-454 -232)"/><path class="cls-2" d="M643.08,318.4l6.58-3.79-6.58-3.8-6.57,3.8Z" transform="translate(-454 -232)"/><path class="cls-2" d="M629.92,326l6.59-3.8-6.59-3.8-6.58,3.8Z" transform="translate(-454 -232)"/><path class="cls-2" d="M616.76,333.59l6.58-3.79-6.58-3.8-6.58,3.8Z" transform="translate(-454 -232)"/><path class="cls-2" d="M603.61,341.2l6.58-3.81-6.58-3.8-6.58,3.8Z" transform="translate(-454 -232)"/><path class="cls-2" d="M590.46,348.79,597,345l-6.57-3.79L583.87,345Z" transform="translate(-454 -232)"/></g><g class="cls-1"><path class="cls-2" d="M708.92,295.64l6.58-3.79-6.58-3.8-6.59,3.8Z" transform="translate(-454 -232)"/><path class="cls-2" d="M695.76,303.24l6.57-3.8-6.57-3.8-6.58,3.8Z" transform="translate(-454 -232)"/><path class="cls-2" d="M682.6,310.83l6.58-3.79-6.58-3.8L676,307Z" transform="translate(-454 -232)"/><path class="cls-3" d="M669.45,318.44l6.58-3.81-6.58-3.8-6.58,3.8Z" transform="translate(-454 -232)"/><path class="cls-4" d="M656.29,326l6.57-3.8-6.57-3.79-6.58,3.79Z" transform="translate(-454 -232)"/><path class="cls-4" d="M643.13,333.63l6.58-3.81L643.13,326l-6.58,3.79Z" transform="translate(-454 -232)"/><path class="cls-2" d="M630,341.22l6.57-3.79-6.57-3.8-6.58,3.8Z" transform="translate(-454 -232)"/><path class="cls-2" d="M616.81,348.82l6.59-3.8-6.59-3.8-6.57,3.8Z" transform="translate(-454 -232)"/><path class="cls-2" d="M603.66,356.42l6.57-3.8-6.57-3.8-6.58,3.8Z" transform="translate(-454 -232)"/></g><g class="cls-1"><path class="cls-4" d="M722.13,303.27l6.57-3.8-6.57-3.79-6.58,3.79Z" transform="translate(-454 -232)"/><path class="cls-4" d="M709,310.87l6.58-3.81L709,303.27l-6.57,3.79Z" transform="translate(-454 -232)"/><path class="cls-3" d="M695.82,318.46l6.58-3.79-6.58-3.8-6.59,3.8Z" transform="translate(-454 -232)"/><path class="cls-2" d="M682.65,326.07l6.58-3.81-6.58-3.8-6.57,3.8Z" transform="translate(-454 -232)"/><path class="cls-2" d="M669.5,333.66l6.58-3.8-6.58-3.79-6.58,3.79Z" transform="translate(-454 -232)"/><path class="cls-2" d="M656.35,341.26l6.57-3.81-6.57-3.79-6.59,3.79Z" transform="translate(-454 -232)"/><path class="cls-4" d="M643.18,348.85l6.58-3.8-6.58-3.79-6.58,3.79Z" transform="translate(-454 -232)"/><path class="cls-2" d="M630,356.45l6.57-3.81L630,348.85l-6.58,3.79Z" transform="translate(-454 -232)"/><path class="cls-2" d="M616.87,364l6.58-3.79-6.58-3.8-6.57,3.8Z" transform="translate(-454 -232)"/></g><g class="cls-1"><path class="cls-2" d="M735.34,310.9l6.58-3.8-6.58-3.79-6.57,3.79Z" transform="translate(-454 -232)"/><path class="cls-2" d="M722.18,318.5l6.59-3.81-6.59-3.79-6.58,3.79Z" transform="translate(-454 -232)"/><path class="cls-2" d="M709,326.09l6.58-3.8L709,318.5l-6.57,3.79Z" transform="translate(-454 -232)"/><path class="cls-2" d="M695.87,333.69l6.58-3.8-6.58-3.8-6.58,3.8Z" transform="translate(-454 -232)"/><path class="cls-2" d="M682.71,341.28l6.58-3.79-6.58-3.8-6.58,3.8Z" transform="translate(-454 -232)"/><path class="cls-2" d="M669.55,348.89l6.58-3.81-6.58-3.8-6.58,3.8Z" transform="translate(-454 -232)"/><path class="cls-2" d="M656.4,356.48l6.57-3.8-6.57-3.79-6.58,3.79Z" transform="translate(-454 -232)"/><path class="cls-2" d="M643.24,364.07l6.58-3.8-6.58-3.79-6.57,3.79Z" transform="translate(-454 -232)"/><path class="cls-2" d="M630.08,371.67l6.57-3.79-6.57-3.81-6.58,3.81Z" transform="translate(-454 -232)"/></g><g class="cls-1"><path class="cls-2" d="M748.55,318.52l6.59-3.79-6.59-3.8-6.58,3.8Z" transform="translate(-454 -232)"/><path class="cls-2" d="M735.39,326.13l6.58-3.81-6.58-3.8-6.57,3.8Z" transform="translate(-454 -232)"/><path class="cls-4" d="M722.24,333.72l6.58-3.8-6.58-3.79-6.58,3.79Z" transform="translate(-454 -232)"/><path class="cls-2" d="M709.07,341.32l6.59-3.81-6.59-3.79-6.57,3.79Z" transform="translate(-454 -232)"/><path class="cls-3" d="M695.92,348.91l6.58-3.79-6.58-3.8-6.58,3.8Z" transform="translate(-454 -232)"/><path class="cls-2" d="M682.77,356.5l6.57-3.79-6.57-3.8-6.58,3.8Z" transform="translate(-454 -232)"/><path class="cls-2" d="M669.61,364.1l6.58-3.79-6.58-3.81L663,360.31Z" transform="translate(-454 -232)"/><path class="cls-2" d="M656.45,371.69,663,367.9l-6.57-3.8-6.58,3.8Z" transform="translate(-454 -232)"/><path class="cls-2" d="M643.29,379.3l6.58-3.8-6.58-3.8-6.57,3.8Z" transform="translate(-454 -232)"/></g><g class="cls-1"><path class="cls-2" d="M761.76,326.15l6.58-3.79-6.58-3.8-6.58,3.8Z" transform="translate(-454 -232)"/><path class="cls-2" d="M748.61,333.75l6.57-3.8-6.57-3.8L742,330Z" transform="translate(-454 -232)"/><path class="cls-4" d="M735.44,341.35l6.59-3.8-6.59-3.8-6.58,3.8Z" transform="translate(-454 -232)"/><path class="cls-2" d="M722.29,348.94l6.57-3.8-6.57-3.79-6.58,3.79Z" transform="translate(-454 -232)"/><path class="cls-2" d="M709.13,356.54l6.58-3.8-6.58-3.81-6.57,3.81Z" transform="translate(-454 -232)"/><path class="cls-3" d="M696,364.13l6.59-3.8L696,356.54l-6.58,3.79Z" transform="translate(-454 -232)"/><path class="cls-4" d="M682.81,371.73l6.58-3.79-6.58-3.81-6.57,3.81Z" transform="translate(-454 -232)"/><path class="cls-2" d="M669.66,379.32l6.58-3.79-6.58-3.8-6.57,3.8Z" transform="translate(-454 -232)"/><path class="cls-3" d="M656.51,386.93l6.58-3.8-6.58-3.81-6.59,3.81Z" transform="translate(-454 -232)"/></g><g class="cls-1"><path class="cls-2" d="M775,333.78l6.57-3.8L775,326.19,768.39,330Z" transform="translate(-454 -232)"/><path class="cls-4" d="M761.81,341.37l6.58-3.8-6.58-3.79-6.58,3.79Z" transform="translate(-454 -232)"/><path class="cls-2" d="M748.66,349l6.57-3.79-6.57-3.81-6.58,3.81Z" transform="translate(-454 -232)"/><path class="cls-2" d="M735.51,356.56l6.57-3.79-6.57-3.8-6.58,3.8Z" transform="translate(-454 -232)"/><path class="cls-2" d="M722.34,364.17l6.59-3.8-6.59-3.81-6.58,3.81Z" transform="translate(-454 -232)"/><path class="cls-2" d="M709.18,371.76l6.58-3.8-6.58-3.79L702.61,368Z" transform="translate(-454 -232)"/><path class="cls-2" d="M696,379.36l6.58-3.8-6.58-3.8-6.58,3.8Z" transform="translate(-454 -232)"/><path class="cls-4" d="M682.87,387l6.59-3.8-6.59-3.79-6.58,3.79Z" transform="translate(-454 -232)"/><path class="cls-2" d="M669.71,394.55l6.58-3.79L669.71,387l-6.58,3.81Z" transform="translate(-454 -232)"/></g><g class="cls-1"><path class="cls-2" d="M788.18,341.41l6.58-3.8-6.58-3.79-6.58,3.79Z" transform="translate(-454 -232)"/><path class="cls-3" d="M775,349l6.57-3.8L775,341.41l-6.58,3.79Z" transform="translate(-454 -232)"/><path class="cls-2" d="M761.87,356.6l6.58-3.8-6.58-3.8-6.59,3.8Z" transform="translate(-454 -232)"/><path class="cls-2" d="M748.71,364.19l6.57-3.79-6.57-3.8-6.58,3.8Z" transform="translate(-454 -232)"/><path class="cls-2" d="M735.55,371.79l6.58-3.79-6.58-3.81L729,368Z" transform="translate(-454 -232)"/><path class="cls-2" d="M722.4,379.38l6.58-3.79-6.58-3.8-6.58,3.8Z" transform="translate(-454 -232)"/><path class="cls-4" d="M709.23,387l6.59-3.8-6.59-3.81-6.57,3.81Z" transform="translate(-454 -232)"/><path class="cls-2" d="M696.08,394.58l6.58-3.8L696.08,387l-6.58,3.79Z" transform="translate(-454 -232)"/><path class="cls-2" d="M682.93,402.18l6.57-3.8-6.57-3.8-6.58,3.8Z" transform="translate(-454 -232)"/></g></g><path class="cls-5" d="M722.6,421.58c-18.29,0-33.12-8.56-33.12-19.12s14.83-19.13,33.12-19.13,33.12,8.56,33.12,19.13S740.89,421.58,722.6,421.58Z" transform="translate(-454 -232)"/><path class="cls-5" d="M616.75,485.57c-18.29,0-33.12-8.57-33.12-19.13s14.83-19.12,33.12-19.12,33.12,8.56,33.12,19.12S635,485.57,616.75,485.57Z" transform="translate(-454 -232)"/><g class="cls-6"><path class="cls-3" d="M746.27,387.3l18.62-10.76v21.51l-18.62,10.76-18.63-10.76V376.54Z" transform="translate(-454 -232)"/><path class="cls-3" d="M746.27,408.81l18.62-10.76V376.54L746.27,387.3Z" transform="translate(-454 -232)"/><path class="cls-7" d="M727.64,398.05l18.63,10.76V387.3l-18.63-10.76Z" transform="translate(-454 -232)"/><path class="cls-3" d="M746.27,387.3l18.62-10.76-18.62-10.75-18.63,10.75Z" transform="translate(-454 -232)"/><path class="cls-3" d="M746.27,387.3l18.62-10.76v.94l-18.62,10.74-18.63-10.74v-.94Z" transform="translate(-454 -232)"/></g><path class="cls-8" d="M746.27,374.25l18.62-10.75-18.62-10.75L727.64,363.5Z" transform="translate(-454 -232)"/><path class="cls-9" d="M746.27,336.46l18.62-10.75v21.51L746.27,358l-18.63-10.75V325.71Z" transform="translate(-454 -232)"/><path class="cls-9" d="M746.27,358l18.62-10.75V325.71l-18.62,10.75Z" transform="translate(-454 -232)"/><path class="cls-10" d="M727.64,347.22,746.27,358V336.46l-18.63-10.75Z" transform="translate(-454 -232)"/><path class="cls-9" d="M746.27,336.46l18.62-10.75L746.27,315l-18.63,10.76Z" transform="translate(-454 -232)"/><path class="cls-10" d="M746.27,333.82l14-8.11-14-8.11-14.06,8.11Z" transform="translate(-454 -232)"/><path class="cls-9" d="M746.27,336.46l18.62-10.75v.92l-18.62,10.76-18.63-10.76v-.92Z" transform="translate(-454 -232)"/><path class="cls-9" d="M746.27,304.2l18.62-10.76V315l-18.62,10.76L727.64,315V293.44Z" transform="translate(-454 -232)"/><path class="cls-9" d="M746.27,325.71,764.89,315V293.44L746.27,304.2Z" transform="translate(-454 -232)"/><path class="cls-10" d="M727.64,315l18.63,10.76V304.2l-18.63-10.76Z" transform="translate(-454 -232)"/><path class="cls-9" d="M746.27,304.2l18.62-10.76-18.62-10.75-18.63,10.75Z" transform="translate(-454 -232)"/><path class="cls-9" d="M746.27,304.2l18.62-10.76v.94l-18.62,10.74-18.63-10.74v-.94Z" transform="translate(-454 -232)"/><g class="cls-6"><path class="cls-3" d="M784.58,439.09l18.63-10.75v21.51L784.58,460.6,766,449.85V428.34Z" transform="translate(-454 -232)"/><path class="cls-3" d="M784.58,460.6l18.63-10.75V428.34l-18.63,10.75Z" transform="translate(-454 -232)"/><path class="cls-7" d="M766,449.85l18.62,10.75V439.09L766,428.34Z" transform="translate(-454 -232)"/><path class="cls-3" d="M784.58,439.09l18.63-10.75-18.63-10.76L766,428.34Z" transform="translate(-454 -232)"/><path class="cls-3" d="M784.58,439.09l18.63-10.75v.94L784.58,440,766,429.28v-.94Z" transform="translate(-454 -232)"/></g><path class="cls-8" d="M784.58,426.05l18.63-10.75-18.63-10.75L766,415.31Z" transform="translate(-454 -232)"/><path class="cls-9" d="M784.58,388.26l18.63-10.75V399l-18.63,10.76L766,399v-21.5Z" transform="translate(-454 -232)"/><path class="cls-9" d="M784.58,409.77,803.21,399v-21.5l-18.63,10.75Z" transform="translate(-454 -232)"/><path class="cls-10" d="M766,399l18.62,10.76V388.26L766,377.51Z" transform="translate(-454 -232)"/><path class="cls-9" d="M784.58,388.26l18.63-10.75-18.63-10.76L766,377.51Z" transform="translate(-454 -232)"/><path class="cls-9" d="M784.58,388.26l18.63-10.75v.92l-18.63,10.76L766,378.43v-.92Z" transform="translate(-454 -232)"/><g class="cls-6"><path class="cls-3" d="M576.25,416.14l-16.12,14.24-4.28-21.08L572,395.06l20.4,6.84L596.64,423Z" transform="translate(-454 -232)"/><path class="cls-3" d="M572,395.06,555.85,409.3l4.28,21.08,16.12-14.24Z" transform="translate(-454 -232)"/><path class="cls-7" d="M592.36,401.9,572,395.06l4.29,21.08L596.64,423Z" transform="translate(-454 -232)"/><path class="cls-3" d="M576.25,416.14l-16.12,14.24,20.4,6.83L596.64,423Z" transform="translate(-454 -232)"/><path class="cls-3" d="M576.25,416.14l-16.12,14.24-.19-.92,16.11-14.24,20.4,6.84.19.91Z" transform="translate(-454 -232)"/></g><path class="cls-8" d="M573,407.94l18.62-10.76L573,386.43l-18.63,10.75Z" transform="translate(-454 -232)"/><path class="cls-4" d="M573,426.62c12.28,0,24.55-2.69,33.9-8.1,9.08-5.25,14.1-12.24,14.1-19.68s-5-14.44-14.1-19.68c-18.69-10.79-49.11-10.79-67.81,0-9.1,5.25-14.11,12.24-14.11,19.68s5,14.44,14.1,19.68C548.39,423.93,560.66,426.62,573,426.62Zm0-55.17c12.2,0,24.42,2.68,33.7,8,9,5.19,13.91,12.06,13.91,19.35s-4.93,14.17-13.91,19.35c-18.58,10.73-48.83,10.73-67.41,0-9-5.18-13.91-12.05-13.91-19.35s4.93-14.16,13.91-19.35C548.53,374.13,560.74,371.45,573,371.45Z" transform="translate(-454 -232)"/><path class="cls-2" d="M573,434.06c15.58,0,31.15-3.42,43-10.27,11.52-6.65,17.88-15.52,17.88-25S627.49,380.55,616,373.9c-23.72-13.7-62.32-13.7-86,0-11.53,6.65-17.87,15.51-17.87,24.94s6.34,18.3,17.87,25l.1-.17-.1.17C541.78,430.64,557.36,434.06,573,434.06ZM573,364c15.5,0,31,3.41,42.82,10.22,11.4,6.59,17.68,15.32,17.68,24.61s-6.28,18-17.68,24.62c-23.61,13.63-62,13.63-85.64,0-11.4-6.59-17.68-15.32-17.68-24.62s6.28-18,17.68-24.61C541.93,367.42,557.43,364,573,364Z" transform="translate(-454 -232)"/><path class="cls-9" d="M572.94,420.76c9.68,0,19.34-2.13,26.71-6.38,7.17-4.14,11.13-9.65,11.13-15.54s-4-11.4-11.13-15.54c-14.73-8.5-38.7-8.5-53.44,0-7.17,4.14-11.13,9.67-11.13,15.54s4,11.4,11.13,15.54C553.59,418.63,563.27,420.76,572.94,420.76Zm0-43.45c9.6,0,19.21,2.11,26.52,6.33,7,4.06,10.93,9.47,10.93,15.2s-3.89,11.13-10.93,15.21c-14.63,8.44-38.43,8.44-53.05,0l-.1.17.1-.17c-7-4.07-10.93-9.47-10.93-15.2s3.88-11.13,10.93-15.2C553.74,379.42,563.34,377.31,573,377.31Z" transform="translate(-454 -232)"/><path class="cls-9" d="M575.09,378.27l2.14-21.41,17.47,12.56-2.14,21.4L573,399.67l-17.47-12.55Z" transform="translate(-454 -232)"/><path class="cls-9" d="M592.56,390.82l2.14-21.4-17.47-12.56-2.14,21.41Z" transform="translate(-454 -232)"/><path class="cls-10" d="M573,399.67l19.6-8.85-17.47-12.55-19.6,8.85Z" transform="translate(-454 -232)"/><path class="cls-9" d="M575.09,378.27l2.14-21.41-19.61,8.86-2.12,21.4Z" transform="translate(-454 -232)"/><path class="cls-9" d="M575.09,378.27l2.14-21.41.75.54-2.14,21.42-19.59,8.85-.76-.55Z" transform="translate(-454 -232)"/><path class="cls-8" d="M584,394.7h-17.9l6.91,5Z" transform="translate(-454 -232)"/><path class="cls-11" d="M637.09,409.17a17.62,17.62,0,0,1,.85,3.48,15.34,15.34,0,0,1-2.15,3.42,16.7,16.7,0,0,1-3.61,3.17,9.9,9.9,0,0,0-2.15,1.52.86.86,0,0,1-.45-.14,4.37,4.37,0,0,1,.53-2.86c.81-.93-.39-2.31-.39-2.31l2.07-5.43Z" transform="translate(-454 -232)"/><path class="cls-12" d="M617.12,469.26a39.78,39.78,0,0,0,6.4.87c3.16.11,11.74,1.73,11.58,4.8s-4.57,7.52-10.14,8.19-12.77-.86-16.42-.76a5,5,0,0,1-4.84-6.89C605,472.05,617.12,469.26,617.12,469.26Z" transform="translate(-454 -232)"/><path class="cls-12" d="M598.11,461.06s-1.15,1.87-.55,3,2.24,4,7.29,1.2,14.79-6.73,14.79-6.73,5.6-2.93,5.23-6.36-5.56-2.89-5.56-2.89Z" transform="translate(-454 -232)"/><path class="cls-11" d="M654.23,337.61A15.77,15.77,0,0,0,659,337c1.47-.67,5.72-2.07,6-2.21s2.61-.29,3.69-1a.89.89,0,0,1,.24,1.55,5.82,5.82,0,0,1-2.74,1.29l-1.68,1s3.41,1.75,3.72,1.88,3.16,2.31,3.46,2.44,1.57,1.13,1.08,2c0,0,0,.2-.7.33,0,0,1.83.83,1.38,1.73s-1.61.51-1.61.51-.45,1.62-2.65.36c0,0-.26,2-5.15-.09a13.12,13.12,0,0,0-3.43-.42,15.76,15.76,0,0,1-7.5-2.41C651,342.51,654.23,337.61,654.23,337.61Z" transform="translate(-454 -232)"/><path class="cls-13" d="M660.64,346.4a15.8,15.8,0,0,1-7.51-2.41c-1.42-1-.42-3.55.37-5.1,1-.49,1.88-.88,1.88-.88s-.15,4.85,0,5.57,4.48,1.6,7.3,2a58.42,58.42,0,0,1,6.5,1.49c-.22.45-1.16,1.41-5.09-.27A13.78,13.78,0,0,0,660.64,346.4Z" transform="translate(-454 -232)"/><path class="cls-14" d="M615.71,328.18s6.92,1.21,9.28,2,22.13,4.66,29.4,6.43a1.27,1.27,0,0,1,.93,1,2.61,2.61,0,0,1,0,1.21c-.2.82-.9,9-4.93,7.69a55,55,0,0,0-7.62-1.52c-2.84-.37-15-1.31-15-1.31l-20.52-11.74Z" transform="translate(-454 -232)"/><path class="cls-12" d="M630.56,411.77s-1.83,22.65-6.34,31.2-5.58,24.35-6.49,27.34-3.89,7.32-8.63,8.23-5.6-2.2-5.42-4.08,1.46-4.92,1.42-6.95a19.51,19.51,0,0,0-.63-3.92s-5.44,1.58-6.36-2.53a10.29,10.29,0,0,0,.47-1.8c.06-.61-.83-15.54-1-17.35a75.1,75.1,0,0,1,2-16.5c1.41-4.83.68-15.13.68-15.13L616,408Z" transform="translate(-454 -232)"/><path class="cls-12" d="M605,411.86a17.21,17.21,0,0,0,1.7,6.51s.22,12,1.61,18c0,0-1.78,12.12-3,15.92s-.86,11.25-.86,11.25a5.27,5.27,0,0,1-1.51.26c-.89,0-1.29-14.7,0-17.32s2.11-14.19,1.5-17.72-.63-13.63-1.36-15.41a2.23,2.23,0,0,1,.81-2.74Z" transform="translate(-454 -232)"/><path class="cls-12" d="M616.75,328.38s4.74,3.29,4.6,9.07l-3.49-.69S618.79,330.33,616.75,328.38Z" transform="translate(-454 -232)"/><path class="cls-12" d="M616.6,416.71c-10.45.39-16.18-4.08-16.18-4.08,0-1.44-.13-2.37-.13-2.37L616,408l14.52,3.8s-.36,4.49-1.16,10.21c-2.58.3-5.2-5.83-5.2-5.83l-7.18.51S627.07,416.3,616.6,416.71Z" transform="translate(-454 -232)"/><path class="cls-15" d="M628.54,412.13s-22.58,9.26-34-7.85a3.06,3.06,0,0,1-.48-1.69l0-4a4.21,4.21,0,0,0-.26-1.49,6.33,6.33,0,0,1-.29-3.23c.74-4.53,2.78-16.88,3.23-20.33.57-4.2-2.07-21-6.05-28.3s5.36-23.74,5.36-23.74a6.3,6.3,0,0,1,7-2.65s-4.39,3.18-1.88,6.42,9.89,5.76,9.89,5.76,13.66,6.76,18.45,15.16a35.36,35.36,0,0,1,1.89,9.91c.22,5.59-.19,19,.07,20.82s1.18,14.5,1.11,15.08S628.54,412.13,628.54,412.13Z" transform="translate(-454 -232)"/><path class="cls-12" d="M621.66,414.05s-14.15-35.48-13.77-48.53c.37-12.81,20.2,25.5,20.2,25.5l.44,21.11A40.57,40.57,0,0,1,621.66,414.05Z" transform="translate(-454 -232)"/><path class="cls-16" d="M628.22,371.79a56,56,0,0,1-1-8.83c-.15-5.15-1.76-13.69-11.18-12.07-13.29,2.29-7.21,20.61-5.69,23.79s7.6,17.58,7.92,18.39,9.75,18.58,13.08,22.83a.81.81,0,0,0,1.19.14c1.31-1.11,4.24-3.76,4.61-5.41.47-2.14-1.56-9.88-1.56-9.88s-5.46-19.42-5.92-20.33C629.37,379.76,629.1,376.54,628.22,371.79Z" transform="translate(-454 -232)"/><path class="cls-11" d="M616.54,328.8a4.75,4.75,0,0,1,3.47-2.72c2.46-.28,3.85-1,4.08-1.9a17.66,17.66,0,0,1,.81-3.38,25.78,25.78,0,0,0,1-4.77c0-.08,1.85-.68,1.94-1.5s-.94-3.74-.84-4a7.39,7.39,0,0,0,.93-3.45,17.38,17.38,0,0,0-1.15-5.14c-.78-1.71-6.21-12.09-19.77-6.43s-2.94,17-4.14,24.5c0,0-1.19,1.59,1.1,4.21S612.77,327.35,616.54,328.8Z" transform="translate(-454 -232)"/><path class="cls-13" d="M604,324.25c-2.29-2.62-1.1-4.2-1.1-4.2a10.69,10.69,0,0,0-.1-3.32l5.39.93s7.8-7.18,7.32-3.4,1.44,4.43,1.44,4.43l-1.59,2.09c-.41.53-.15,1.15.19,1.73,2.34,3.83,7.82,2.58,7.83,2.58a7.76,7.76,0,0,1-3.34,1,4.66,4.66,0,0,0-3.47,2.72C612.77,327.35,606.27,326.88,604,324.25Z" transform="translate(-454 -232)"/><path class="cls-17" d="M627.29,298s1,2.78-.52,4-2.91,2.35-2.91,2.35l.06,3.55a2.59,2.59,0,0,1-.4,1.45l-1.89,3a3.53,3.53,0,0,0-.54,2v1.44a.84.84,0,0,1-.72.84l-.5.07a.84.84,0,0,1-.92-.73l-.25-2s-1.05-1.59-3.25.37l-2,.86a2.14,2.14,0,0,0-1.18,1.28c-.53,1.55-1.67,4.61-2.56,5.13-1.2.71-6-1.63-6.59-2.69s-2.39-8.17-3.44-11.57-.67-11.81,9.45-14.16S625.85,295,627.29,298Z" transform="translate(-454 -232)"/><path class="cls-18" d="M603.14,318.84c-.64-1.07-2.39-8.18-3.44-11.58a24.8,24.8,0,0,0,9.08,3.22c5.1.68,15.1-5.23,15.1-5.23l0,2.6a2.63,2.63,0,0,1-.39,1.44l-1.89,3a3.45,3.45,0,0,0-.55,1.95v1.45a.83.83,0,0,1-.71.84l-.51.06a.82.82,0,0,1-.91-.73l-.25-2s-1.05-1.6-3.25.37l-2.88,1.24s-1.66,5.32-2.86,6S603.79,319.9,603.14,318.84Z" transform="translate(-454 -232)"/><path class="cls-19" d="M603,319.18s-3.87,2.47-1.84,5.86,16.38,9.26,17.1,10.15c0,0,.47-5.12-1.45-6.81,0,0-10.94-1.93-12.68-4.67S603,319.18,603,319.18Z" transform="translate(-454 -232)"/><path class="cls-20" d="M603,319.18s-.61,1.79,1.12,4.53c1.32,2.07,7.89,3.68,11,4.34,0,0-1.15.66-3,4-4.42-2.19-9.78-5-11-7C599.07,321.65,603,319.18,603,319.18Z" transform="translate(-454 -232)"/><path class="cls-12" d="M610.3,353.88c-3.46,11.17,6.09,28.23,7.51,33.2s15.79,28.06,15.8,28.06c-.38.35-.74.67-1,.9a.81.81,0,0,1-1.19-.14c-3.33-4.25-12.78-22.06-13.08-22.83s-6.39-15.19-7.92-18.39C609.17,372.13,605,359.79,610.3,353.88Z" transform="translate(-454 -232)"/><path class="cls-12" d="M600.53,330.15s6.4,3.5,9.52,5.08,6.54,3.69,6.54,3.69l1.16-1.18,1.48,3.08a42.48,42.48,0,0,1,7.24,5.19,24.3,24.3,0,0,1,4.35,6.23s-6.2-7.79-11-10.05l-1.3-.62-.76-2.44-1.15,1.25S602.51,332.26,600.53,330.15Z" transform="translate(-454 -232)"/><path class="cls-11" d="M703.2,330.9s-2.38.41-3.26,0a8.32,8.32,0,0,0-5.8.2c-2.65.94-2.42.81-3.47.9a11.53,11.53,0,0,0-3.29.56c-.56.35-1.6,1-.63,2.4s4.6.09,5.19,0,1.24.94.94,1.88-5.78,6.94-6.63,7.53-4.56,3.07-4.72,4.05.05,1.11.05,1.11-1.08,1-.69,1.88,2.06-.49,2.37-.27c0,0-.27,1,.14,1.18s2.8-.74,3.1-1c0,0,.28.78,1.64,0s6.63-3.79,7.24-4.35a35.53,35.53,0,0,1,3.53-3,28.08,28.08,0,0,0,3.05-2.93,18.37,18.37,0,0,1,5.25-2.58C708.47,338.11,703.2,330.9,703.2,330.9Z" transform="translate(-454 -232)"/><path class="cls-13" d="M699,341.72c1.21-2.2,5.25-3.91,5.25-3.91-.27-1.79-2.85-6.75-2.85-6.75a12.32,12.32,0,0,0,1.78-.17s5.27,7.22,4,7.45a18.63,18.63,0,0,0-5.25,2.58,28.08,28.08,0,0,1-3.05,2.93,34.23,34.23,0,0,0-3.53,3c-.62.56-5.88,3.55-7.24,4.35s-1.64,0-1.64,0c-.29.29-2.7,1.23-3.1,1s-.14-1.19-.14-1.19a25.19,25.19,0,0,1,3.42-1.57C688.43,348.89,697.81,343.93,699,341.72Z" transform="translate(-454 -232)"/><path class="cls-11" d="M707.13,323a21.21,21.21,0,0,0-.33,4.89c.18,2.2,4.59-.68,4.42-1s-2.09-3.69-2.09-3.69Z" transform="translate(-454 -232)"/><path class="cls-12" d="M726.34,256.74s-2.45-.11-5.41,4.77c-2.87,4.7-7.9,21.52-10.54,28a8.24,8.24,0,0,0-.5,1.78c-.85,5-4.89,28.7-5.07,31.56a22.71,22.71,0,0,0,5,2.55l4.33-1.44L718.44,281l6.91-22.66Z" transform="translate(-454 -232)"/><path class="cls-12" d="M740.18,398s.82,4,.37,4.73-5.62,6.6-6.16,7.39-3.2,5.57-8.1,6.73-8.23.86-8.89-1.44,2.22-6.1,3.55-7.33,6.93-7.87,7.94-8.84a4.82,4.82,0,0,1,2.5-1.11l6.38,1.11Z" transform="translate(-454 -232)"/><path class="cls-12" d="M720.4,386.09s-4.89,1.89-7.43,2.53-8.64,5.19-8.57,7.48,3.07,3.87,6.11,3.65a17.2,17.2,0,0,0,7.24-2.68,17.55,17.55,0,0,1,5.17-2.44c2.48-.78,6.5-1.16,7.17-2.49a13.37,13.37,0,0,0,.75-4.06Z" transform="translate(-454 -232)"/><path class="cls-12" d="M731.41,385.26c0-.24-.21-.63-.23-.79a53.59,53.59,0,0,1,0-6.12l1.07,1.47s-.75,4.92-2.22,12.6c-.38,1.95-1.4,3.95-1.55,5.07-.45,3.28,1.51,3.93,1.51,3.93,4,3,7.35,1.18,8.58.22s1.63-2.5,3.32-8,3.14-17.12,2.77-19.87a115.9,115.9,0,0,1-1.16-13.92c0-4.65,3.62-19.51,3.62-19.51l-14.78-2.87-10.1-5.23-7.71,1.16s-1-3.25-2,6.88,5.19,28.45,5.19,28.45c1.64,9,2.06,19.36,3,20.76s4.61,4.72,8,2.14a9.22,9.22,0,0,0,1.72-1.47Z" transform="translate(-454 -232)"/><path class="cls-12" d="M732.24,379.82a180.78,180.78,0,0,1-7.17-26.07c-2.26-12.61-6.19-14.38-7.83-16.64a22.64,22.64,0,0,1-3.75,1.35l-.42,0c-1.09,0,5.44,8.09,6.61,10.16s7.91,20,8.38,22.43,1,19.7.41,20.69,1.86-.74,1.86-.74S731.83,387.21,732.24,379.82Z" transform="translate(-454 -232)"/><path class="cls-12" d="M719.62,332.58l2.59-.39,10.1,5.23,14.79,2.86s-3.57,14.86-3.62,19.51a115.71,115.71,0,0,0,1.16,13.92c.36,2.73-1.1,14.39-2.77,19.88-.73,2.4-1.23,4.06-1.64,5.23a4.4,4.4,0,0,1-3,3.63s5.79-18,5.29-28.45-2-19-1.72-21c0,0-16.84-5.18-20-16C720.27,335.28,719.9,333.82,719.62,332.58Z" transform="translate(-454 -232)"/><path class="cls-21" d="M748.79,259.05a4.94,4.94,0,0,1,1.46,2c.26,1,1.74,4.67,1.74,4.67s7,9.35,8.31,12.21a26,26,0,0,1,1.68,5l-18.64,23s6.53,22.51,4.71,30.72-4.24,11.4-7.17,12.3-18.62-5.55-19.71-13.77-.63-9.16-.63-9.16-7.31,2-7.78.09.92-15.28,1.29-17.2,1.51-23.08,1.51-23.08,4.46-19.53,4.72-20.48,3-8.3,6.59-8.72,8,5.25,8,5.25Z" transform="translate(-454 -232)"/><path class="cls-19" d="M748,258.35a2.24,2.24,0,0,1,.89,1.31,4.34,4.34,0,0,1-.55,4.1c-1.34,1.68-12.07,10.45-16.42,17.82S722,297.33,721.58,299c0,0-2-11.79-.18-17.2s7.46-16.36,8.68-17.18,8.59-1.5,8.59-1.5Z" transform="translate(-454 -232)"/><path class="cls-20" d="M736.86,270.19a7.59,7.59,0,0,1,.76,1.71s3.11-1.6,4.42-2.18l-4.78,3.33a9,9,0,0,0-.52-2s-2.73,2.09-3.12,3-5.44,13.62-5.44,13.62L725.53,292l-.68-1,4.34-11.82s2.44-3.72,2.47-3.8l1.69-4.08Z" transform="translate(-454 -232)"/><path class="cls-12" d="M736.86,270.19s-1.59-3-4.66-2.86c0,0-.87,3.66-1.13,5.16,0,0,2,.85,2.78.16S736.86,270.19,736.86,270.19Z" transform="translate(-454 -232)"/><path class="cls-12" d="M731.54,271.7s-7.9,9.74-10.67,21.51l.58,6.07,4.15-7.42s6.81-17,8.39-20.14S731.54,271.7,731.54,271.7Z" transform="translate(-454 -232)"/><path class="cls-12" d="M744.64,310.79c.53,2.07,1.15,4.67,1.73,7.44,0,0-11.71,15.28-23.13,21.5a9.56,9.56,0,0,1-2.09-4.55,65.67,65.67,0,0,1-.72-7.83l13.28-10.07Z" transform="translate(-454 -232)"/><path class="cls-12" d="M745.43,288.36s-3.39,4.61-4.28,5-8.22,13.24-9.69,15.67-5.43,5.82-5.43,5.82l3.72.36,14.58-19.56Z" transform="translate(-454 -232)"/><path class="cls-22" d="M743.35,292.43a23.51,23.51,0,0,1,6.73-9.41c3.36-2.82,7.77-5.56,10.11-3.09,4.11,4.34,2.36,12.51-3.35,20.16s-14.87,18.76-17,20.61-19.71,15.05-29.82,20a1.6,1.6,0,0,1-2.08-.66c-1.39-2.3-4.28-7.11-5.31-9.07a.88.88,0,0,1,.28-1.15c3.7-2.38,22.16-14.24,27.62-17.94a6,6,0,0,0,2-2.26c1.6-3.12,5.71-10.79,9.32-14.71a7.91,7.91,0,0,0,1.5-2.43A.19.19,0,0,0,743.35,292.43Z" transform="translate(-454 -232)"/><path class="cls-12" d="M729.78,260.79l-6.45,6.53,1.66.58-2.12,1.24a61.68,61.68,0,0,0-4,26s-2.56-10.86,3-26.28l1.72-.87-1.17-.37Z" transform="translate(-454 -232)"/><path class="cls-11" d="M748.09,257.23a1.64,1.64,0,0,0-.16.81,13.72,13.72,0,0,1,.06,2c-.08.6-4.13,7.43-12.4,7.49,0,0-1-1.49-1.19-1.77,0,0-3.35-.16-4.75-1.37s-.53-3.35-.53-3.35l-.19-2.56a1.25,1.25,0,0,0-.39-.81,2.83,2.83,0,0,1-.75-1,2.29,2.29,0,0,1,.28-1.2,1.5,1.5,0,0,0,.13-.78,10.08,10.08,0,0,1,.32-3.74,3,3,0,0,0,0-1.5A24.65,24.65,0,0,1,728,247c0-.67,1.09-2.45,1.14-3.15a18.5,18.5,0,0,1,1-3.08s6.16-11.43,16.09-6.48S751,250,749.79,253c0,0-1.2,2.46-1.41,3S748.33,256.7,748.09,257.23Z" transform="translate(-454 -232)"/><path class="cls-17" d="M729.29,242a2.49,2.49,0,0,0,.82,2.14,13.06,13.06,0,0,0,6.77,3.23c2.22.3,3.45.41,4.1.44a.9.9,0,0,1,.83.85c.05.82.12,2.08.24,2.94a3.53,3.53,0,0,0,.3,1l.71,1.5a1,1,0,0,0,1,.57h.16a1,1,0,0,0,.87-.83v-.06A3.45,3.45,0,0,1,747,251a2.08,2.08,0,0,1,1.73-.11,1.75,1.75,0,0,1,1,2.36,17.74,17.74,0,0,0,3-5.81c.93-3.3.72-9.29-3.61-12.41s-9.93-4.38-14.72-1A11.09,11.09,0,0,0,729.29,242Z" transform="translate(-454 -232)"/><path class="cls-13" d="M745.65,256c.23-.26-.06,2,2.29,2.09a13.72,13.72,0,0,1,.06,2c-.07.6-4.13,7.43-12.4,7.49l-1.18-1.77s7.59-3.68,8.93-5.36A23.07,23.07,0,0,0,745.65,256Z" transform="translate(-454 -232)"/><path class="cls-20" d="M732.2,267.33a12.48,12.48,0,0,0-3.3.82,4,4,0,0,1,.3-2.44s-.67.55-.67,3.23l3.56-1.15Z" transform="translate(-454 -232)"/><path class="cls-12" d="M707,338.24s19.17-11,25.66-15.4,24.6-22.87,28.31-30a33.12,33.12,0,0,1-4.16,7.25c-5.77,7.74-14.87,18.76-17,20.61s-19.7,15.05-29.82,20a1.58,1.58,0,0,1-2.07-.66l-1-1.58Z" transform="translate(-454 -232)"/><path class="cls-12" d="M751.09,266.33l-8.75,12.45-2.25-.8-.12,2.37s-10.48,7.8-18.31,24c0,0,10.37-16.69,18.61-22.25l.76-2.39,1.75.41Z" transform="translate(-454 -232)"/><path class="cls-18" d="M751.88,249l.28-.09a18.11,18.11,0,0,1-2.49,4.29,1.75,1.75,0,0,0-1-2.36,2.09,2.09,0,0,0-1.73.11,3.46,3.46,0,0,0-1.89,2.71v.06a1,1,0,0,1-.87.83H744a1,1,0,0,1-1-.57l-.71-1.5a3.31,3.31,0,0,1-.3-1c-.12-.86-.19-2.12-.24-2.94C741.81,248.61,747.64,250.5,751.88,249Z" transform="translate(-454 -232)"/></svg>