<svg id="Слой_1" data-name="Слой 1" xmlns="http://www.w3.org/2000/svg" xmlns:xlink="http://www.w3.org/1999/xlink" viewBox="0 0 498 334.84"><defs><style>.cls-1,.cls-12,.cls-13,.cls-17,.cls-23{fill:#fff;}.cls-1,.cls-36{opacity:0.5;}.cls-1,.cls-12,.cls-15,.cls-16,.cls-17,.cls-18,.cls-23,.cls-3,.cls-30,.cls-31,.cls-35,.cls-36,.cls-5{isolation:isolate;}.cls-2,.cls-3{opacity:0.9;}.cls-3,.cls-5,.cls-7{fill:#07306d;}.cls-4{fill:url(#Безымянный_градиент_19);}.cls-5{opacity:0.3;}.cls-30,.cls-31,.cls-35,.cls-6{fill:#f0f1f1;}.cls-8{fill:url(#Безымянный_градиент_19-3);}.cls-9{fill:url(#Безымянный_градиент_19-4);}.cls-10{fill:#426ab3;}.cls-11,.cls-12,.cls-18,.cls-30{opacity:0.4;}.cls-14,.cls-15,.cls-16,.cls-17{opacity:0.1;}.cls-15,.cls-19{fill:#42e8e0;}.cls-16{fill:#2fd3c7;}.cls-18{fill:#03002d;}.cls-20{fill:#e9e4db;}.cls-21{fill:#ccc7bf;}.cls-22{fill:url(#Безымянный_градиент_19-5);}.cls-23,.cls-31{opacity:0.8;}.cls-24{fill:url(#Безымянный_градиент_19-7);}.cls-25{fill:url(#Безымянный_градиент_19-9);}.cls-26{fill:#f6f4f1;}.cls-27{fill:url(#Безымянный_градиент_19-11);}.cls-28{fill:url(#Безымянный_градиент_19-13);}.cls-29{fill:url(#Безымянный_градиент_19-15);}.cls-32{fill:url(#Безымянный_градиент_19-17);}.cls-33{fill:url(#Безымянный_градиент_19-19);}.cls-34{fill:#839bc6;}.cls-35{opacity:0.6;}.cls-36{fill:url(#Безымянный_градиент_20);}</style><linearGradient id="Безымянный_градиент_19" x1="637.17" y1="305.39" x2="533.68" y2="457.18" gradientTransform="matrix(1, 0, 0, -1, 0, 770)" gradientUnits="userSpaceOnUse"><stop offset="0" stop-color="#4b79ce"/><stop offset="0.41" stop-color="#426ab3"/><stop offset="1" stop-color="#2b4a81"/></linearGradient><linearGradient id="Безымянный_градиент_19-3" x1="622.47" y1="349.43" x2="530.71" y2="433.96" xlink:href="#Безымянный_градиент_19"/><linearGradient id="Безымянный_градиент_19-4" x1="602.1" y1="361.08" x2="555.92" y2="436.58" xlink:href="#Безымянный_градиент_19"/><linearGradient id="Безымянный_градиент_19-5" x1="610.37" y1="374.23" x2="564.38" y2="426.54" xlink:href="#Безымянный_градиент_19"/><linearGradient id="Безымянный_градиент_19-7" x1="610.37" y1="386.36" x2="564.38" y2="438.67" xlink:href="#Безымянный_градиент_19"/><linearGradient id="Безымянный_градиент_19-9" x1="610.37" y1="398.5" x2="564.38" y2="450.81" xlink:href="#Безымянный_градиент_19"/><linearGradient id="Безымянный_градиент_19-11" x1="610.37" y1="410.63" x2="564.38" y2="462.94" xlink:href="#Безымянный_градиент_19"/><linearGradient id="Безымянный_градиент_19-13" x1="610.37" y1="422.76" x2="564.38" y2="475.07" xlink:href="#Безымянный_градиент_19"/><linearGradient id="Безымянный_градиент_19-15" x1="610.37" y1="434.9" x2="564.38" y2="487.21" xlink:href="#Безымянный_градиент_19"/><linearGradient id="Безымянный_градиент_19-17" x1="637.17" y1="390.65" x2="533.68" y2="542.45" xlink:href="#Безымянный_градиент_19"/><linearGradient id="Безымянный_градиент_19-19" x1="602.1" y1="446.35" x2="555.92" y2="521.84" xlink:href="#Безымянный_градиент_19"/><linearGradient id="Безымянный_градиент_20" x1="592.13" y1="435.4" x2="592.13" y2="553.93" gradientTransform="matrix(1, 0, 0, -1, 0, 770)" gradientUnits="userSpaceOnUse"><stop offset="0" stop-color="#fff"/><stop offset="0.18" stop-color="#fff"/><stop offset="0.58" stop-color="#4e6fac"/><stop offset="0.87" stop-color="#757ba9" stop-opacity="0"/><stop offset="1" stop-color="#485094" stop-opacity="0"/></linearGradient></defs><title>tech-4</title><path class="cls-1" d="M433,295.82l13.8,8v25.65l122.6,70.72,9.32-5.37L515.5,358.3v-6.52l-11.21-6.47v-15l-21.74-12.54a3.7,3.7,0,0,1-3-.14,1,1,0,0,1,0-1.9,3.66,3.66,0,0,1,3.29,0c.82.48.9,1.21.24,1.74L504.81,330v15l10.69,6.16v-24l.13-.07,6.18-3.57-37.08-21.38v-24L458.4,262.91a3.67,3.67,0,0,1-3-.13c-.92-.53-.92-1.38,0-1.9a3.69,3.69,0,0,1,3.3,0c.82.47.89,1.21.23,1.74l26.34,15.19v24.05l37.07,21.37,60.27-34.76v-26.9a3.12,3.12,0,0,1-1.39-.38c-.92-.52-.92-1.37,0-1.9a3.69,3.69,0,0,1,3.3,0,1,1,0,0,1,0,1.9,3.2,3.2,0,0,1-1.39.38v27.2l-.13.07-36.25,20.92h26.42l21.36-12.33c-.66-.52-.59-1.26.23-1.74a3.69,3.69,0,0,1,3.3,0,1,1,0,0,1,0,1.9,3.7,3.7,0,0,1-3,.14L573.3,310.28H545.84L516,327.48V358l63.24,36.48,8.48-4.89L543,363.79a3.71,3.71,0,0,1-3-.14,1,1,0,0,1,0-1.9,3.69,3.69,0,0,1,3.3,0c.82.47.89,1.21.23,1.74l44.76,25.81,8.19-4.71-53.53-30.88H528.35a1.25,1.25,0,0,1-.64.68,3.69,3.69,0,0,1-3.3,0,1,1,0,0,1,0-1.9,3.69,3.69,0,0,1,3.3,0,1.38,1.38,0,0,1,.64.69h14.7l.06,0L597,384.29l3.31-1.91.13.08,2.41,1.39,12.83-7.4V366.16L605.05,360v0H588.42l-18.31-10.56a3.71,3.71,0,0,1-3-.14,1,1,0,0,1,0-1.9,3.69,3.69,0,0,1,3.3,0c.82.47.89,1.21.23,1.74l17.93,10.34h15.63l-31.15-18a3.71,3.71,0,0,1-3.08-.1,1,1,0,0,1,0-1.9,3.69,3.69,0,0,1,3.3,0c.8.46.89,1.17.29,1.7l38.86,22.41v-4.95L589.28,345.4V336l-18.82-10.85a3.64,3.64,0,0,1-3-.14,1,1,0,0,1,0-1.9,3.66,3.66,0,0,1,3.29,0c.82.48.9,1.21.24,1.74l18.82,10.87v9.42l23.12,13.33V364l3.24,1.87v10.9l-12.83,7.4,8.43,4.86,26.4-15.23v-17.3l-17.93-10.34a3.66,3.66,0,0,1-3.07-.11,1,1,0,0,1,0-1.9,3.69,3.69,0,0,1,3.3,0c.8.47.89,1.18.29,1.71l17.41,10v-14L624.41,334V307.7a3.41,3.41,0,0,1-1.39-.38,1,1,0,0,1,0-1.9,3.69,3.69,0,0,1,3.3,0,1,1,0,0,1,0,1.9,3.45,3.45,0,0,1-1.39.38v26l13.23,7.63V295h.52v79.17l-26.39,15.22,9.46,5.45,34.5-19.89V327.52L672.84,318V300.13l14.64-8.44c-.66-.52-.59-1.26.23-1.74a3.69,3.69,0,0,1,3.3,0,1,1,0,0,1,0,1.9,3.75,3.75,0,0,1-3,.14l-14.64,8.44v17.82l-16.59,9.57V375.2l-34.5,19.9,7,4,46.55-26.85V331.87l.14-.07L717.18,308c-.66-.53-.58-1.27.23-1.74a3.62,3.62,0,0,1,3.3,0,1,1,0,0,1,0,1.89,3.67,3.67,0,0,1-3,.14l-41.33,23.85V372.6l-.13.07-46.43,26.78L641.18,406l77.46-44.67V341.21l.13-.07,64.84-37.4c-.66-.53-.59-1.27.23-1.74a3.62,3.62,0,0,1,3.3,0,1,1,0,0,1,0,1.89,3.67,3.67,0,0,1-3,.14l-65,37.48v20.12l-.13.08-43.44,25.05H710l39.88-23c-.66-.53-.59-1.27.23-1.74a3.62,3.62,0,0,1,3.3,0,1,1,0,0,1,0,1.89,3.67,3.67,0,0,1-3,.14l-40.27,23.24H674.68l-33,19,13.21,7.62,28.35-16.35h45.53l51.78-29.87h28.72L821,361c-.66-.53-.58-1.27.24-1.75a3.69,3.69,0,0,1,3.3,0,1,1,0,0,1,0,1.9,3.67,3.67,0,0,1-3,.14l-12.1,7H780.7l-39.13,22.57H775.4l16.28-9.39c-.66-.52-.59-1.26.23-1.74a3.69,3.69,0,0,1,3.3,0,1,1,0,0,1,0,1.9,3.71,3.71,0,0,1-3,.14l-16.66,9.61H740.7L729,398.08H683.42l-7.94,4.58h19.35l.06,0,9.71,5.6h40.45l11.41-6.58h22.88A1.34,1.34,0,0,1,780,401a3.66,3.66,0,0,1,3.29,0,1,1,0,0,1,0,1.9,3.66,3.66,0,0,1-3.29,0,1.37,1.37,0,0,1-.65-.69H756.59l-11.41,6.58H705.49l10.93,6.3a3.71,3.71,0,0,1,3,.14,1,1,0,0,1,0,1.9,3.69,3.69,0,0,1-3.3,0c-.82-.47-.9-1.21-.23-1.73l-21.23-12.24H674.55l-19.14,11,7.07,4.07-.39.23-4.15,2.4h13.22l17.29-10c-.66-.52-.59-1.26.23-1.74a3.69,3.69,0,0,1,3.3,0,1,1,0,0,1,0,1.9,3.71,3.71,0,0,1-3,.14L671.3,421.45H657L647.35,427l5.95,3.43h10.55l.07,0,9.22,5.31h6.93l15.64-9c-.7-.53-.65-1.28.19-1.77a3.69,3.69,0,0,1,3.3,0,1,1,0,0,1,0,1.9,3.66,3.66,0,0,1-3,.16l-16,9.24H673l-.06,0L663.71,431H654.2l19,11h10.31L705,429.6h64.56l40-23.1c-.68-.53-.63-1.27.21-1.76a3.69,3.69,0,0,1,3.3,0,1,1,0,0,1,0,1.9,3.69,3.69,0,0,1-3,.16l-40.44,23.33H705.1l-21.41,12.35H673.13l0,0-26.2-15.12-6.88,4,29.61,17.08h20.88l17.23-9.94h44.21a1.33,1.33,0,0,1,.65-.69,3.66,3.66,0,0,1,3.29,0,1,1,0,0,1,0,1.9,3.66,3.66,0,0,1-3.29,0,1.34,1.34,0,0,1-.64-.69H707.86l-16.32,9.42h62.3l.06,0,59.37,34.24a3.67,3.67,0,0,1,3,.15,1,1,0,0,1,0,1.89,3.69,3.69,0,0,1-3.3,0c-.82-.47-.89-1.21-.23-1.73l-59-34.05H669.47l-.05,0L639.49,431.6l-7.81,4.5L673,459.91h72.69l.06,0,63.65,36.71h74.17l43.25-25c-.66-.52-.58-1.27.24-1.73a3.69,3.69,0,0,1,3.3,0,1,1,0,0,1,0,1.9,3.75,3.75,0,0,1-3,.14l-43.64,25.16H809.22l-.07,0L745.5,460.43H692.56l77.74,44.84v11.8l31,17.89a3.71,3.71,0,0,1,3,.14,1,1,0,0,1,0,1.9,3.69,3.69,0,0,1-3.3,0c-.82-.48-.89-1.21-.23-1.74l-31-17.89v-11.8l-78.27-45.15H673.33L712.47,483v5l18.72,10.81a3.67,3.67,0,0,1,3,.14,1,1,0,0,1,0,1.89,3.62,3.62,0,0,1-3.3,0c-.82-.47-.89-1.2-.23-1.73l-10.2-5.89v13.64l58.92,34a3.67,3.67,0,0,1,3,.14,1,1,0,0,1,0,1.9,3.69,3.69,0,0,1-3.3,0c-.82-.48-.9-1.21-.23-1.74l-58.92-34V492.85l-8-4.62v-5l-39.47-22.76.13-.23-41.47-23.92-7.54,4.35,42.61,24.58V505.7l78.36,45.19h-1l-64.88-37.41v36.57l1.48.85h-1l-1-.55V513.18L665.68,506V465.58L623.07,441l-6.63,3.82,32.85,18.95v22.16l-.13.07-37.35,21.55v7.52l21.12,12.18a3.7,3.7,0,0,1,3,.14,1,1,0,0,1,0,1.9,3.69,3.69,0,0,1-3.3,0c-.82-.47-.89-1.21-.23-1.74l-21.12-12.18v-8.12l.13-.07,37.35-21.55V464.08L624,449.76V459l11.38,6.56a3.67,3.67,0,0,1,3,.14,1,1,0,0,1,0,1.9,3.69,3.69,0,0,1-3.3,0c-.82-.48-.9-1.21-.24-1.74l-11.37-6.57v-9.83l-7.51-4.33L607,450.25v16.08L623.78,476v11.12l-.13.08L588.4,507.52c.66.53.59,1.27-.23,1.74a3.62,3.62,0,0,1-3.3,0,1,1,0,0,1,0-1.9,3.7,3.7,0,0,1,3-.13l35.38-20.41V476.3L607,466.94V478l-21.7,12.52c.67.52.59,1.26-.23,1.73a3.69,3.69,0,0,1-3.3,0,1,1,0,0,1,0-1.9,3.71,3.71,0,0,1,3-.14l21.7-12.52V450.55l-6.23,3.6-.13-.08L590,448.22l-9.31,5.37v13L556,480.9v12.29a3.5,3.5,0,0,1,1.39.38,1,1,0,0,1,0,1.9,3.69,3.69,0,0,1-3.3,0,1,1,0,0,1,0-1.9,3.41,3.41,0,0,1,1.39-.38V480.6l24.73-14.27V453.89l-40,23.09v24.47L561.86,514h19.93l.05,0L616,533.74a3.7,3.7,0,0,1,3,.14,1,1,0,0,1,0,1.9,3.69,3.69,0,0,1-3.3,0c-.82-.48-.89-1.21-.23-1.73l-33.87-19.54H562.75l62.81,36.23a3.67,3.67,0,0,1,3,.15h-3.78L539.6,501.77V476.69l.13-.08,49.73-28.68-10-5.77-84.92,49v29.23l-29,16.73c.66.52.59,1.27-.23,1.73a3.69,3.69,0,0,1-3.3,0,1,1,0,0,1,0-1.9,3.75,3.75,0,0,1,3-.14l29-16.73V490.83l.13-.08,84.78-48.9-9.53-5.5-84,48.44H435.35L433,486.14v-.6l2.21-1.27h50.07l70.89-40.89H541.92l-24.2,13.95H499.09l-.06,0-25.85-14.91a3.67,3.67,0,0,1-3-.14,1,1,0,0,1,0-1.89,3.62,3.62,0,0,1,3.3,0c.82.47.9,1.2.23,1.74l25.53,14.72h18.35l24.2-13.95h15.3l11.8-6.81-25.43-14.66-7.23,4.17v10.95l-18.37,10.6c.66.52.58,1.27-.24,1.73a3.69,3.69,0,0,1-3.3,0,1,1,0,0,1,0-1.9,3.75,3.75,0,0,1,3-.14l18.38-10.6V425.85l-19.6,11.3h-9.28l-.06,0-11.07-6.39a3.67,3.67,0,0,1-3-.14,1,1,0,0,1,0-1.9,3.69,3.69,0,0,1,3.3,0c.82.48.89,1.21.23,1.74l10.74,6.2h9l27-15.55-4.9-2.83.39-.22,15.24-8.8L546.33,405H535.27l-7.92,4.56c.63.53.55,1.25-.26,1.72a3.69,3.69,0,0,1-3.3,0,1,1,0,0,1,0-1.9,3.68,3.68,0,0,1,3.05-.12l8.3-4.79h10.3l-18.67-10.76-43.93,25.33H451.23l-.06,0-17.8-10.26c-.11,0-.24.06-.37.1v-2.4a2.68,2.68,0,0,1,.65.26c.82.47.9,1.21.24,1.73l17.47,10.08h31.33L516.57,399h-14.5l-14.17,8.17c.66.53.59,1.26-.23,1.74a3.69,3.69,0,0,1-3.3,0,1,1,0,0,1,0-1.9,3.71,3.71,0,0,1,3-.14l14.56-8.4h15.55l8.77-5.05L504,380.54H433V380h70l-8.85-5.1H441.44l-.06,0L433,370.06v-.61l8.56,4.95h52.76l.07,0,59.79,34.48,6.63-3.82L498,368.83H452l-.07,0L433,357.89v-.6l19.13,11h46l.06,0,63.18,36.45,7.54-4.34L446.29,329.74V304.09L433,296.43ZM539.09,418.25l61.2,35.29,61.19-35.29L600.28,383Z" transform="translate(-433 -216.07)"/><g class="cls-2"><path class="cls-3" d="M587.24,508.73a10,10,0,0,0,10,0L736,428.79a10,10,0,0,0,0-17.33L597.22,331.52a10,10,0,0,0-10,0l-138.8,79.94a10,10,0,0,0,0,17.33Z" transform="translate(-433 -216.07)"/></g><path class="cls-4" d="M501.35,402v-9.43l4.37-2.43c1.24,7.47,10,12.38,17.37,13.41l50,29.25L595,440.72l69.68-36-1.61-.93c6-2.79,9.17-9.15,12.39-14.95l4.69,2.8,2.79.78v9.84c0,3.1-2,6.2-6.13,8.56l-69.82,40.31c-8.17,4.71-21.47,4.71-29.65,0l-69.81-40.31c-4-2.33-6.06-5.36-6.13-8.41C501.35,402.31,501.36,402.18,501.35,402Z" transform="translate(-433 -216.07)"/><path class="cls-4" d="M501.35,402v-9.43l4.37-2.43c1.24,7.47,10,12.38,17.37,13.41l50,29.25L595,440.72l69.68-36-1.61-.93c6-2.79,9.17-9.15,12.39-14.95l4.69,2.8,2.79.78v9.84c0,3.1-2,6.2-6.13,8.56l-69.82,40.31c-8.17,4.71-21.47,4.71-29.65,0l-69.81-40.31c-4-2.33-6.06-5.36-6.13-8.41C501.35,402.31,501.36,402.18,501.35,402Z" transform="translate(-433 -216.07)"/><path class="cls-5" d="M523.09,403.59l50,29.25,19,6.87v15a30.37,30.37,0,0,1-14.83-3.54l-69.81-40.31c-4-2.33-6.06-5.36-6.13-8.41,0-.14,0-.27,0-.41v-9.43l4-2.22h.42C507.13,397.74,515.82,402.57,523.09,403.59Z" transform="translate(-433 -216.07)"/><path class="cls-6" d="M607,441.48l69.81-40.32c8.18-4.71,8.18-12.39,0-17.11L607,343.74c-8.17-4.72-21.47-4.72-29.65,0l-69.81,40.31c-8.17,4.71-8.17,12.39,0,17.11l69.81,40.32C585.47,446.2,598.77,446.2,607,441.48Z" transform="translate(-433 -216.07)"/><path class="cls-7" d="M599.83,418l36.31-21c4.26-2.45,4.26-6.45,0-8.9l-36.31-21a17,17,0,0,0-15.42,0l-36.31,21c-4.25,2.45-4.25,6.44,0,8.9l36.31,21A17,17,0,0,0,599.83,418Z" transform="translate(-433 -216.07)"/><path class="cls-8" d="M599.83,418l36.31-21c4.26-2.45,4.26-6.45,0-8.9l-36.31-21a17,17,0,0,0-15.42,0l-36.31,21c-4.25,2.45-4.25,6.44,0,8.9l36.31,21A17,17,0,0,0,599.83,418Z" transform="translate(-433 -216.07)"/><path class="cls-9" d="M637.54,396.07a8.67,8.67,0,0,0-1.4-1l-36.31-21a17.09,17.09,0,0,0-15.42,0l-36.31,21a8.56,8.56,0,0,0-1.39,1c-2.79-2.44-2.32-5.77,1.39-7.91l36.31-21a17,17,0,0,1,15.42,0l36.31,21C639.86,390.31,640.32,393.63,637.54,396.07Z" transform="translate(-433 -216.07)"/><path class="cls-10" d="M592.12,442.74a29,29,0,0,0,14.23-3.4l66.53-38.41c3.83-2.21,5.94-5.16,5.94-8.32s-2.11-6.11-5.94-8.32l-66.52-38.41c-7.85-4.54-20.61-4.53-28.45,0l-66.54,38.41c-3.83,2.21-5.94,5.16-5.94,8.32s2.11,6.11,5.94,8.32l66.53,38.41A28.87,28.87,0,0,0,592.12,442.74Zm14-3.73c-7.74,4.47-20.32,4.47-28,0L511.56,400.6c-3.71-2.14-5.74-5-5.74-8s2-5.85,5.74-8l66.54-38.41c7.74-4.47,20.32-4.47,28,0l66.53,38.41c3.71,2.14,5.74,5,5.74,8s-2,5.85-5.75,8Z" transform="translate(-433 -216.07)"/><path class="cls-10" d="M592.12,431.32a22.53,22.53,0,0,0,11-2.62l51.32-29.63c3-1.7,4.6-4,4.6-6.46s-1.64-4.74-4.6-6.46l-51.32-29.63c-6.06-3.5-15.92-3.5-22,0l-51.31,29.63c-3,1.72-4.61,4-4.61,6.46s1.64,4.74,4.61,6.46l51.31,29.63A22.53,22.53,0,0,0,592.12,431.32Zm0-77a22.09,22.09,0,0,1,10.8,2.58l51.32,29.63c2.84,1.64,4.41,3.82,4.41,6.12s-1.57,4.48-4.41,6.12l-51.32,29.63c-5.95,3.43-15.64,3.43-21.6,0L530,398.73c-2.85-1.64-4.42-3.81-4.42-6.12s1.57-4.48,4.42-6.12l51.31-29.63A22.09,22.09,0,0,1,592.12,354.28Z" transform="translate(-433 -216.07)"/><g class="cls-11"><path class="cls-12" d="M599.83,418l36.31-21c4.26-2.45,4.26-6.45,0-8.9l-36.31-21a17,17,0,0,0-15.42,0l-36.31,21c-4.25,2.45-4.25,6.44,0,8.9l36.31,21A17,17,0,0,0,599.83,418Z" transform="translate(-433 -216.07)"/></g><path class="cls-13" d="M507.48,401.18l69.82,40.31c8.17,4.71,21.47,4.71,29.64,0l69.82-40.31c3.64-2.12,5.67-4.82,6.06-7.58.48,3.42-1.54,6.94-6.06,9.55l-69.82,40.31c-8.17,4.71-21.47,4.71-29.64,0l-69.82-40.31c-4.52-2.62-6.53-6.13-6.05-9.55C501.81,396.36,503.83,399.06,507.48,401.18Z" transform="translate(-433 -216.07)"/><path class="cls-12" d="M507.48,356.79l69.82-40.31c8.17-4.71,21.47-4.72,29.64,0l69.82,40.31c8.17,4.72,8.17,12.4,0,17.12l-69.82,40.31c-8.17,4.72-21.47,4.72-29.64,0l-69.82-40.31C499.31,369.2,499.31,361.52,507.48,356.79Z" transform="translate(-433 -216.07)"/><g class="cls-14"><path class="cls-15" d="M461.12,412.82l-17.52-10v20l17.52,10,17.52-10v-20Z" transform="translate(-433 -216.07)"/><path class="cls-15" d="M461.12,432.76l-17.52-10v-20l17.52,10Z" transform="translate(-433 -216.07)"/><path class="cls-16" d="M478.64,422.79l-17.52,10V412.82l17.52-10Z" transform="translate(-433 -216.07)"/><path class="cls-15" d="M461.12,412.82l-17.52-10,17.52-10,17.52,10Z" transform="translate(-433 -216.07)"/><path class="cls-17" d="M461.12,412.82l-17.52-10v.87l17.52,10,17.52-10v-.87Z" transform="translate(-433 -216.07)"/></g><path class="cls-18" d="M461.12,400.73l-17.52-10,17.52-10,17.52,10Z" transform="translate(-433 -216.07)"/><path class="cls-19" d="M461.12,365.68l-17.52-10v19.94l17.52,10,17.52-10V355.71Z" transform="translate(-433 -216.07)"/><path class="cls-20" d="M461.12,385.63l-17.52-10V355.71l17.52,10Z" transform="translate(-433 -216.07)"/><path class="cls-21" d="M478.64,375.65l-17.52,10V365.68l17.52-10Z" transform="translate(-433 -216.07)"/><path class="cls-13" d="M461.12,365.68l-17.52-10,17.52-10,17.52,10Z" transform="translate(-433 -216.07)"/><path class="cls-13" d="M461.12,365.68l-17.52-10v.87l17.52,10,17.52-10v-.87Z" transform="translate(-433 -216.07)"/><g class="cls-14"><path class="cls-15" d="M678.68,374.59l-31.16-17.74v35.48l31.16,17.74,31.16-17.74V356.85Z" transform="translate(-433 -216.07)"/><path class="cls-15" d="M678.68,410.07l-31.16-17.74V356.85l31.16,17.74Z" transform="translate(-433 -216.07)"/><path class="cls-16" d="M709.84,392.33l-31.16,17.74V374.59l31.16-17.74Z" transform="translate(-433 -216.07)"/><path class="cls-15" d="M678.68,374.59l-31.16-17.74,31.16-17.74,31.16,17.74Z" transform="translate(-433 -216.07)"/><path class="cls-17" d="M678.68,374.59l-31.16-17.74v1.55l31.16,17.74,31.16-17.74v-1.55Z" transform="translate(-433 -216.07)"/></g><path class="cls-18" d="M678.68,353.1l-31.16-17.74,31.16-17.74,31.16,17.74Z" transform="translate(-433 -216.07)"/><path class="cls-19" d="M678.68,290.74,647.52,273v35.48l31.16,17.74,31.16-17.74V273Z" transform="translate(-433 -216.07)"/><path class="cls-20" d="M678.68,326.22l-31.16-17.74V273l31.16,17.74Z" transform="translate(-433 -216.07)"/><path class="cls-21" d="M709.84,308.48l-31.16,17.74V290.74L709.84,273Z" transform="translate(-433 -216.07)"/><path class="cls-13" d="M678.68,290.74,647.52,273l31.16-17.74L709.84,273Z" transform="translate(-433 -216.07)"/><path class="cls-13" d="M678.68,290.74,647.52,273v1.55l31.16,17.72,31.16-17.72V273Z" transform="translate(-433 -216.07)"/><g class="cls-14"><path class="cls-15" d="M524.88,398.72,493.71,381v35.48l31.17,17.74L556,416.46V381Z" transform="translate(-433 -216.07)"/><path class="cls-15" d="M524.88,434.2l-31.17-17.74V381l31.17,17.74Z" transform="translate(-433 -216.07)"/><path class="cls-16" d="M556,416.46,524.88,434.2V398.72L556,381Z" transform="translate(-433 -216.07)"/><path class="cls-15" d="M524.88,398.72,493.71,381l31.17-17.74L556,381Z" transform="translate(-433 -216.07)"/><path class="cls-17" d="M524.88,398.72,493.71,381v1.55l31.17,17.74L556,382.53V381Z" transform="translate(-433 -216.07)"/></g><path class="cls-18" d="M524.88,377.23l-31.17-17.74,31.17-17.74L556,359.49Z" transform="translate(-433 -216.07)"/><path class="cls-19" d="M524.88,314.87l-31.17-17.74v35.48l31.17,17.74L556,332.61V297.13Z" transform="translate(-433 -216.07)"/><path class="cls-20" d="M524.88,350.35l-31.17-17.74V297.13l31.17,17.74Z" transform="translate(-433 -216.07)"/><path class="cls-21" d="M556,332.61l-31.16,17.74V314.87L556,297.13Z" transform="translate(-433 -216.07)"/><path class="cls-13" d="M524.88,314.87l-31.17-17.74,31.17-17.74L556,297.13Z" transform="translate(-433 -216.07)"/><path class="cls-13" d="M524.88,314.87l-31.17-17.74v1.55l31.17,17.72L556,298.68v-1.55Z" transform="translate(-433 -216.07)"/><path class="cls-13" d="M592.68,410a21.15,21.15,0,0,0,10.39-2.48l12-7c2.81-1.62,4.36-3.79,4.36-6.11s-1.55-4.49-4.36-6.11L602,380.57c-5.73-3.31-15.05-3.31-20.78,0l-12,7c-2.8,1.62-4.35,3.79-4.35,6.12s1.55,4.49,4.35,6.11l13.12,7.72A21.21,21.21,0,0,0,592.68,410Zm10.19-2.82c-5.62,3.24-14.78,3.24-20.4,0l-13.12-7.72c-2.68-1.55-4.16-3.6-4.16-5.78s1.48-4.23,4.16-5.78l12-7c5.62-3.25,14.77-3.25,20.39,0l13.11,7.72c2.69,1.55,4.16,3.6,4.16,5.78s-1.47,4.23-4.16,5.78Z" transform="translate(-433 -216.07)"/><path class="cls-12" d="M562.77,383.22v-6.51l3.51,1.59c-1.32-8,10.34,10.25,13.91,10.74l-2.73-1.13L595,389.1l11.91,1.58-1.29-.74c4.78-2.23,7.34-7.33,9.92-12l3.77,2.25,2.23-2.6v6.52c0,2.48-1.64,5-4.92,6.85l-12,7c-6.55,3.78-17.2,3.78-23.76,0l-13.12-7.72c-3.21-1.86-4.85-4.29-4.9-6.74C562.77,383.43,562.77,383.33,562.77,383.22Z" transform="translate(-433 -216.07)"/><path class="cls-22" d="M562.77,377.27v-7.56l3.51-1.95c1,6,8,9.92,13.91,10.74l-2.73-1.14L595,383.67l11.91-3.54-1.29-.74c4.78-2.23,7.34-7.33,9.92-12l3.77,2.24,2.23.62v7.88c0,2.49-1.64,5-4.92,6.86l-12,7c-6.55,3.78-17.2,3.78-23.76,0l-13.12-7.72c-3.21-1.86-4.85-4.3-4.9-6.74A2.91,2.91,0,0,1,562.77,377.27Z" transform="translate(-433 -216.07)"/><path class="cls-22" d="M562.77,377.27v-7.56l3.51-1.95c1,6,8,9.92,13.91,10.74l-2.73-1.14L595,383.67l11.91-3.54-1.29-.74c4.78-2.23,7.34-7.33,9.92-12l3.77,2.24,2.23.62v7.88c0,2.49-1.64,5-4.92,6.86l-12,7c-6.55,3.78-17.2,3.78-23.76,0l-13.12-7.72c-3.21-1.86-4.85-4.3-4.9-6.74A2.91,2.91,0,0,1,562.77,377.27Z" transform="translate(-433 -216.07)"/><path class="cls-5" d="M580.19,378.51l-2.73-1.14,15.22,5.5v12a24.33,24.33,0,0,1-11.89-2.83l-13.11-7.72c-3.22-1.86-4.86-4.3-4.91-6.74,0-.11,0-.22,0-.33v-7.56l3.21-1.78h.33C567.4,373.81,574.36,377.69,580.19,378.51Z" transform="translate(-433 -216.07)"/><path class="cls-13" d="M604.55,384.29l12-7c6.54-3.78,6.54-9.93,0-13.71l-13.12-7.72c-6.54-3.78-17.2-3.78-23.75,0l-12,7c-6.55,3.78-6.55,9.94,0,13.72l13.11,7.72C587.35,388.07,598,388.07,604.55,384.29Z" transform="translate(-433 -216.07)"/><path class="cls-10" d="M592.6,385.22a21.49,21.49,0,0,0,10.53-2.51l10.57-6.17c2.83-1.64,4.39-3.83,4.39-6.17s-1.56-4.52-4.39-6.16l-11.54-6.78c-5.8-3.35-15.23-3.35-21,0l-10.57,6.17c-2.84,1.64-4.39,3.83-4.39,6.16s1.55,4.52,4.39,6.16l11.53,6.79A21.48,21.48,0,0,0,592.6,385.22ZM603,382.44c-5.72,3.29-15,3.29-20.73,0l-11.53-6.79c-2.73-1.58-4.24-3.67-4.24-5.89s1.51-4.31,4.24-5.89l10.57-6.17c5.71-3.3,15-3.3,20.72,0l11.53,6.78c2.74,1.58,4.25,3.67,4.25,5.89s-1.51,4.32-4.25,5.89Z" transform="translate(-433 -216.07)"/><path class="cls-13" d="M567.68,376.57l13.12,7.72c6.55,3.78,17.2,3.78,23.76,0l12-7c2.92-1.69,4.54-3.85,4.86-6.07.38,2.74-1.23,5.56-4.86,7.65l-12,7c-6.55,3.77-17.2,3.77-23.76,0l-13.12-7.73c-3.61-2.09-5.23-4.9-4.85-7.65C563.14,372.72,564.75,374.88,567.68,376.57Z" transform="translate(-433 -216.07)"/><path class="cls-12" d="M606.85,384l-1.11-.14.46-.24Z" transform="translate(-433 -216.07)"/><path class="cls-12" d="M579.4,382.1h.06l.73.3A2.46,2.46,0,0,1,579.4,382.1Z" transform="translate(-433 -216.07)"/><path class="cls-12" d="M566.19,371.62a3.29,3.29,0,0,1,0-.63,6.58,6.58,0,0,0,.09.67Z" transform="translate(-433 -216.07)"/><path class="cls-23" d="M562.77,376.58v.32c.05,2.44,1.69,4.87,4.91,6.73l13.11,7.72c6.55,3.78,17.2,3.78,23.76,0l12-7c3.28-1.89,4.92-4.38,4.92-6.86v.7c0,2.48-1.64,5-4.92,6.85l-12,7c-6.55,3.78-17.2,3.78-23.76,0l-13.11-7.72c-3.22-1.86-4.86-4.29-4.91-6.74,0-.11,0-.22,0-.33h0Z" transform="translate(-433 -216.07)"/><path class="cls-12" d="M562.77,371.09v-6.52l3.51,1.6c-1.32-8,10.34,10.24,13.91,10.74l-2.73-1.14L595,377l11.91,1.58-1.29-.75c4.78-2.23,7.34-7.33,9.92-12l3.77,2.24,2.23-2.59V372c0,2.48-1.64,5-4.92,6.86l-12,7c-6.55,3.78-17.2,3.78-23.76,0l-13.12-7.72c-3.21-1.86-4.85-4.29-4.9-6.73C562.77,371.3,562.77,371.2,562.77,371.09Z" transform="translate(-433 -216.07)"/><path class="cls-24" d="M562.77,365.14v-7.56l3.51-1.95c1,6,8,9.92,13.91,10.73l-2.73-1.13L595,371.54,606.86,368l-1.29-.74c4.78-2.23,7.34-7.33,9.92-12l3.77,2.25,2.23.62V366c0,2.48-1.64,5-4.92,6.86l-12,7c-6.55,3.78-17.2,3.78-23.76,0l-13.12-7.72c-3.21-1.86-4.85-4.29-4.9-6.73A2.91,2.91,0,0,1,562.77,365.14Z" transform="translate(-433 -216.07)"/><path class="cls-24" d="M562.77,365.14v-7.56l3.51-1.95c1,6,8,9.92,13.91,10.73l-2.73-1.13L595,371.54,606.86,368l-1.29-.74c4.78-2.23,7.34-7.33,9.92-12l3.77,2.25,2.23.62V366c0,2.48-1.64,5-4.92,6.86l-12,7c-6.55,3.78-17.2,3.78-23.76,0l-13.12-7.72c-3.21-1.86-4.85-4.29-4.9-6.73A2.91,2.91,0,0,1,562.77,365.14Z" transform="translate(-433 -216.07)"/><path class="cls-5" d="M580.19,366.37l-2.73-1.13,15.22,5.5v12a24.34,24.34,0,0,1-11.89-2.84l-13.11-7.72c-3.22-1.86-4.86-4.29-4.91-6.73,0-.11,0-.22,0-.33v-7.56L566,355.8h.33C567.4,361.68,574.36,365.56,580.19,366.37Z" transform="translate(-433 -216.07)"/><path class="cls-6" d="M604.55,372.15l12-7c6.54-3.78,6.54-9.93,0-13.71l-13.12-7.73c-6.54-3.77-17.2-3.77-23.75,0l-12,7c-6.55,3.78-6.55,9.93,0,13.71l13.11,7.72C587.35,375.93,598,375.93,604.55,372.15Z" transform="translate(-433 -216.07)"/><path class="cls-10" d="M592.6,373.09a21.49,21.49,0,0,0,10.53-2.52l10.57-6.17c2.83-1.64,4.39-3.83,4.39-6.16s-1.56-4.52-4.39-6.16l-11.54-6.79c-5.8-3.34-15.23-3.34-21,0l-10.57,6.17c-2.84,1.64-4.39,3.83-4.39,6.17s1.55,4.52,4.39,6.16l11.53,6.78A21.48,21.48,0,0,0,592.6,373.09ZM603,370.3c-5.72,3.3-15,3.3-20.73,0l-11.53-6.78c-2.73-1.58-4.24-3.67-4.24-5.89s1.51-4.32,4.24-5.89l10.57-6.18c5.71-3.29,15-3.29,20.72,0l11.53,6.79c2.74,1.58,4.25,3.67,4.25,5.89s-1.51,4.31-4.25,5.89Z" transform="translate(-433 -216.07)"/><path class="cls-13" d="M567.68,364.43l13.12,7.72c6.55,3.78,17.2,3.78,23.76,0l12-7c2.92-1.69,4.54-3.85,4.86-6.07.38,2.74-1.23,5.55-4.86,7.64l-12,7c-6.55,3.78-17.2,3.78-23.76,0L567.68,366c-3.61-2.09-5.23-4.91-4.85-7.65C563.14,360.58,564.75,362.74,567.68,364.43Z" transform="translate(-433 -216.07)"/><path class="cls-12" d="M606.85,371.91l-1.11-.15.46-.23Z" transform="translate(-433 -216.07)"/><path class="cls-12" d="M579.4,370h.06l.73.3A2.46,2.46,0,0,1,579.4,370Z" transform="translate(-433 -216.07)"/><path class="cls-12" d="M566.19,359.49a3.4,3.4,0,0,1,0-.64,6.75,6.75,0,0,0,.09.68Z" transform="translate(-433 -216.07)"/><path class="cls-23" d="M562.77,364.44v.32c.05,2.45,1.69,4.88,4.91,6.74l13.11,7.72c6.55,3.78,17.2,3.78,23.76,0l12-7c3.28-1.89,4.92-4.37,4.92-6.85V366c0,2.48-1.64,5-4.92,6.86l-12,7c-6.55,3.78-17.2,3.78-23.76,0l-13.11-7.72c-3.22-1.86-4.86-4.29-4.91-6.73,0-.11,0-.22,0-.33h0Z" transform="translate(-433 -216.07)"/><path class="cls-12" d="M562.77,359v-6.52l3.51,1.6c-1.32-8,10.34,10.24,13.91,10.73l-2.73-1.13,17.49,1.2,11.91,1.57-1.29-.74c4.78-2.23,7.34-7.33,9.92-12l3.77,2.24,2.23-2.59v6.51c0,2.48-1.64,5-4.92,6.86l-12,7c-6.55,3.78-17.2,3.78-23.76,0L567.68,366c-3.21-1.86-4.85-4.29-4.9-6.73C562.77,359.17,562.77,359.05,562.77,359Z" transform="translate(-433 -216.07)"/><path class="cls-25" d="M562.77,353v-7.56l3.51-1.95c1,6,8,9.93,13.91,10.74l-2.73-1.14L595,359.41l11.91-3.54-1.29-.75c4.78-2.23,7.34-7.32,9.92-12l3.77,2.24,2.23.63v7.88c0,2.48-1.64,5-4.92,6.85l-12,7c-6.55,3.78-17.2,3.78-23.76,0L567.68,360c-3.21-1.86-4.85-4.29-4.9-6.74A2.91,2.91,0,0,1,562.77,353Z" transform="translate(-433 -216.07)"/><path class="cls-25" d="M562.77,353v-7.56l3.51-1.95c1,6,8,9.93,13.91,10.74l-2.73-1.14L595,359.41l11.91-3.54-1.29-.75c4.78-2.23,7.34-7.32,9.92-12l3.77,2.24,2.23.63v7.88c0,2.48-1.64,5-4.92,6.85l-12,7c-6.55,3.78-17.2,3.78-23.76,0L567.68,360c-3.21-1.86-4.85-4.29-4.9-6.74A2.91,2.91,0,0,1,562.77,353Z" transform="translate(-433 -216.07)"/><path class="cls-5" d="M580.19,354.23l-2.73-1.14,15.22,5.5v12a24.34,24.34,0,0,1-11.89-2.84l-13.11-7.72c-3.22-1.86-4.86-4.29-4.91-6.74,0-.11,0-.22,0-.33v-7.56l3.21-1.78h.33C567.4,349.54,574.36,353.43,580.19,354.23Z" transform="translate(-433 -216.07)"/><path class="cls-26" d="M604.55,360l12-7c6.54-3.78,6.54-9.93,0-13.71l-13.12-7.72c-6.54-3.78-17.2-3.78-23.75,0l-12,7c-6.55,3.78-6.55,9.93,0,13.71L580.79,360C587.35,363.8,598,363.8,604.55,360Z" transform="translate(-433 -216.07)"/><path class="cls-10" d="M592.6,361a21.49,21.49,0,0,0,10.53-2.52l10.57-6.17c2.83-1.64,4.39-3.83,4.39-6.16s-1.56-4.53-4.39-6.16l-11.54-6.79c-5.8-3.35-15.23-3.35-21,0l-10.57,6.17c-2.84,1.64-4.39,3.83-4.39,6.16s1.55,4.53,4.39,6.17l11.53,6.78A21.48,21.48,0,0,0,592.6,361ZM603,358.17c-5.71,3.3-15,3.3-20.73,0l-11.53-6.79c-2.73-1.57-4.24-3.66-4.24-5.89s1.51-4.31,4.24-5.89l10.57-6.17c5.71-3.3,15-3.3,20.72,0l11.53,6.79c2.74,1.57,4.25,3.67,4.25,5.89s-1.51,4.31-4.25,5.89Z" transform="translate(-433 -216.07)"/><path class="cls-13" d="M567.68,352.3,580.8,360c6.55,3.78,17.2,3.78,23.76,0l12-7c2.92-1.69,4.54-3.85,4.86-6.07.38,2.74-1.23,5.56-4.86,7.65l-12,7c-6.55,3.78-17.2,3.78-23.76,0l-13.12-7.72c-3.61-2.09-5.23-4.91-4.85-7.65C563.14,348.45,564.75,350.61,567.68,352.3Z" transform="translate(-433 -216.07)"/><path class="cls-12" d="M606.85,359.78l-1.11-.15.46-.23Z" transform="translate(-433 -216.07)"/><path class="cls-12" d="M579.4,357.83h.06l.73.3A2.46,2.46,0,0,1,579.4,357.83Z" transform="translate(-433 -216.07)"/><path class="cls-12" d="M566.19,347.35a3.29,3.29,0,0,1,0-.63,6.58,6.58,0,0,0,.09.67Z" transform="translate(-433 -216.07)"/><path class="cls-23" d="M562.77,352.31v.32c.05,2.44,1.69,4.88,4.91,6.74l13.11,7.72c6.55,3.78,17.2,3.78,23.76,0l12-7c3.28-1.89,4.92-4.37,4.92-6.86v.7c0,2.48-1.64,5-4.92,6.85l-12,7c-6.55,3.78-17.2,3.78-23.76,0l-13.11-7.72c-3.22-1.86-4.86-4.29-4.91-6.74,0-.11,0-.22,0-.33h0Z" transform="translate(-433 -216.07)"/><path class="cls-12" d="M562.77,346.82v-6.51l3.51,1.6c-1.32-8,10.34,10.24,13.91,10.73l-2.73-1.13L595,352.7l11.91,1.58-1.29-.74c4.78-2.24,7.34-7.33,9.92-12l3.77,2.24,2.23-2.59v6.52c0,2.48-1.64,5-4.92,6.85l-12,7c-6.55,3.78-17.2,3.78-23.76,0l-13.12-7.72c-3.21-1.86-4.85-4.29-4.9-6.74C562.77,347,562.77,346.92,562.77,346.82Z" transform="translate(-433 -216.07)"/><path class="cls-27" d="M562.77,340.87v-7.56l3.51-1.95c1,6,8,9.92,13.91,10.74L577.46,341,595,347.27l11.91-3.53-1.29-.75c4.78-2.23,7.34-7.33,9.92-12l3.77,2.24,2.23.62v7.89c0,2.48-1.64,5-4.92,6.85l-12,7c-6.55,3.78-17.2,3.78-23.76,0l-13.12-7.72c-3.21-1.86-4.85-4.3-4.9-6.74A2.91,2.91,0,0,1,562.77,340.87Z" transform="translate(-433 -216.07)"/><path class="cls-27" d="M562.77,340.87v-7.56l3.51-1.95c1,6,8,9.92,13.91,10.74L577.46,341,595,347.27l11.91-3.53-1.29-.75c4.78-2.23,7.34-7.33,9.92-12l3.77,2.24,2.23.62v7.89c0,2.48-1.64,5-4.92,6.85l-12,7c-6.55,3.78-17.2,3.78-23.76,0l-13.12-7.72c-3.21-1.86-4.85-4.3-4.9-6.74A2.91,2.91,0,0,1,562.77,340.87Z" transform="translate(-433 -216.07)"/><path class="cls-5" d="M580.19,342.1,577.46,341l15.22,5.5v12a24.33,24.33,0,0,1-11.89-2.83l-13.11-7.72c-3.22-1.86-4.86-4.3-4.91-6.74,0-.11,0-.22,0-.33V333.3l3.21-1.78h.33C567.4,337.41,574.36,341.29,580.19,342.1Z" transform="translate(-433 -216.07)"/><path class="cls-6" d="M604.55,347.89l12-7c6.54-3.78,6.54-9.93,0-13.71l-13.12-7.72c-6.54-3.78-17.2-3.78-23.75,0l-12,7c-6.55,3.78-6.55,9.93,0,13.71l13.11,7.72C587.35,351.67,598,351.67,604.55,347.89Z" transform="translate(-433 -216.07)"/><path class="cls-10" d="M592.6,348.82a21.49,21.49,0,0,0,10.53-2.51l10.57-6.17c2.83-1.64,4.39-3.83,4.39-6.17s-1.56-4.52-4.39-6.16L602.16,321c-5.8-3.35-15.23-3.35-21,0l-10.57,6.17c-2.84,1.64-4.39,3.83-4.39,6.16s1.55,4.52,4.39,6.16l11.53,6.79A21.48,21.48,0,0,0,592.6,348.82ZM603,346c-5.72,3.29-15,3.29-20.73,0l-11.53-6.79c-2.73-1.58-4.24-3.67-4.24-5.89s1.51-4.31,4.24-5.89l10.57-6.17c5.71-3.3,15-3.3,20.72,0l11.53,6.78c2.74,1.58,4.25,3.67,4.25,5.89s-1.51,4.32-4.25,5.9Z" transform="translate(-433 -216.07)"/><path class="cls-13" d="M567.68,340.17l13.12,7.72c6.55,3.78,17.2,3.78,23.76,0l12-7c2.92-1.69,4.54-3.85,4.86-6.07.38,2.73-1.23,5.56-4.86,7.65l-12,7c-6.55,3.78-17.2,3.78-23.76,0l-13.12-7.72c-3.61-2.09-5.23-4.9-4.85-7.65C563.14,336.32,564.75,338.48,567.68,340.17Z" transform="translate(-433 -216.07)"/><path class="cls-12" d="M606.85,347.65l-1.11-.16a4.93,4.93,0,0,0,.46-.23Z" transform="translate(-433 -216.07)"/><path class="cls-12" d="M579.4,345.7h.06l.73.3A2.46,2.46,0,0,1,579.4,345.7Z" transform="translate(-433 -216.07)"/><path class="cls-12" d="M566.19,335.22a3.29,3.29,0,0,1,0-.63,6.58,6.58,0,0,0,.09.67Z" transform="translate(-433 -216.07)"/><path class="cls-23" d="M562.77,340.18v.32c.05,2.44,1.69,4.87,4.91,6.73L580.79,355c6.55,3.78,17.2,3.78,23.76,0l12-7c3.28-1.89,4.92-4.37,4.92-6.86v.69c0,2.49-1.64,5-4.92,6.86l-12,7c-6.55,3.78-17.2,3.78-23.76,0l-13.11-7.72c-3.22-1.86-4.86-4.3-4.91-6.74,0-.11,0-.22,0-.33h0Z" transform="translate(-433 -216.07)"/><path class="cls-12" d="M562.77,334.69v-6.52l3.51,1.6c-1.32-8,10.34,10.25,13.91,10.74l-2.73-1.14,17.49,1.2,11.91,1.58-1.29-.75c4.78-2.23,7.34-7.33,9.92-12l3.77,2.24,2.23-2.59v6.51c0,2.49-1.64,5-4.92,6.86l-12,7c-6.55,3.78-17.2,3.78-23.76,0l-13.12-7.72c-3.21-1.86-4.85-4.3-4.9-6.74C562.77,334.9,562.77,334.79,562.77,334.69Z" transform="translate(-433 -216.07)"/><path class="cls-28" d="M562.77,328.74v-7.56l3.51-1.95c1,6,8,9.92,13.91,10.73l-2.73-1.13L595,335.14l11.91-3.54-1.29-.74c4.78-2.23,7.34-7.33,9.92-12l3.77,2.24,2.23.62v7.88c0,2.48-1.64,5-4.92,6.86l-12,7c-6.55,3.78-17.2,3.78-23.76,0l-13.12-7.72c-3.21-1.86-4.85-4.29-4.9-6.73A2.91,2.91,0,0,1,562.77,328.74Z" transform="translate(-433 -216.07)"/><path class="cls-28" d="M562.77,328.74v-7.56l3.51-1.95c1,6,8,9.92,13.91,10.73l-2.73-1.13L595,335.14l11.91-3.54-1.29-.74c4.78-2.23,7.34-7.33,9.92-12l3.77,2.24,2.23.62v7.88c0,2.48-1.64,5-4.92,6.86l-12,7c-6.55,3.78-17.2,3.78-23.76,0l-13.12-7.72c-3.21-1.86-4.85-4.29-4.9-6.73A2.91,2.91,0,0,1,562.77,328.74Z" transform="translate(-433 -216.07)"/><path class="cls-5" d="M580.19,330l-2.73-1.13,15.22,5.5v12a24.34,24.34,0,0,1-11.89-2.84l-13.11-7.72c-3.22-1.86-4.86-4.29-4.91-6.73,0-.11,0-.22,0-.33v-7.56l3.21-1.78h.33C567.4,325.28,574.36,329.16,580.19,330Z" transform="translate(-433 -216.07)"/><path class="cls-6" d="M604.55,335.75l12-7c6.54-3.78,6.54-9.94,0-13.71l-13.12-7.73c-6.54-3.78-17.2-3.78-23.75,0l-12,7c-6.55,3.78-6.55,9.93,0,13.71l13.11,7.72C587.35,339.53,598,339.53,604.55,335.75Z" transform="translate(-433 -216.07)"/><path class="cls-10" d="M592.6,336.69a21.6,21.6,0,0,0,10.53-2.51L613.7,328c2.83-1.64,4.39-3.83,4.39-6.16s-1.56-4.52-4.39-6.16l-11.54-6.79c-5.8-3.35-15.23-3.35-21,0l-10.57,6.18c-2.84,1.63-4.39,3.82-4.39,6.16s1.55,4.52,4.39,6.16l11.53,6.79A21.59,21.59,0,0,0,592.6,336.69ZM603,333.9c-5.72,3.3-15,3.3-20.73,0l-11.53-6.78c-2.73-1.58-4.24-3.67-4.24-5.89s1.51-4.32,4.24-5.89l10.57-6.18c5.71-3.29,15-3.29,20.72,0L613.53,316c2.74,1.58,4.25,3.67,4.25,5.89s-1.51,4.31-4.25,5.89Z" transform="translate(-433 -216.07)"/><path class="cls-13" d="M567.68,328l13.12,7.72c6.55,3.78,17.2,3.78,23.76,0l12-7c2.92-1.69,4.54-3.85,4.86-6.07.38,2.74-1.23,5.55-4.86,7.65l-12,7c-6.55,3.78-17.2,3.78-23.76,0l-13.12-7.72c-3.61-2.09-5.23-4.9-4.85-7.65C563.14,324.18,564.75,326.34,567.68,328Z" transform="translate(-433 -216.07)"/><path class="cls-12" d="M606.85,335.51l-1.11-.15.46-.23Z" transform="translate(-433 -216.07)"/><path class="cls-12" d="M579.4,333.56h.06l.73.3A2.46,2.46,0,0,1,579.4,333.56Z" transform="translate(-433 -216.07)"/><path class="cls-12" d="M566.19,323.09a3.4,3.4,0,0,1,0-.64,6.75,6.75,0,0,0,.09.68Z" transform="translate(-433 -216.07)"/><path class="cls-23" d="M562.77,328v.32c.05,2.45,1.69,4.88,4.91,6.74l13.11,7.72c6.55,3.78,17.2,3.78,23.76,0l12-7c3.28-1.89,4.92-4.37,4.92-6.85v.69c0,2.48-1.64,5-4.92,6.86l-12,7c-6.55,3.78-17.2,3.78-23.76,0l-13.11-7.72c-3.22-1.86-4.86-4.29-4.91-6.73,0-.11,0-.22,0-.33h0Z" transform="translate(-433 -216.07)"/><path class="cls-12" d="M562.77,322.55V316l3.51,1.6c-1.32-8,10.34,10.24,13.91,10.74l-2.73-1.14L595,328.43,606.86,330l-1.29-.74c4.78-2.23,7.34-7.33,9.92-12l3.77,2.24,2.23-2.6v6.52c0,2.48-1.64,5-4.92,6.86l-12,7c-6.55,3.78-17.2,3.78-23.76,0l-13.12-7.72c-3.21-1.86-4.85-4.29-4.9-6.73C562.77,322.77,562.77,322.65,562.77,322.55Z" transform="translate(-433 -216.07)"/><path class="cls-29" d="M562.77,316.6V309l3.51-2c1,6,8,9.92,13.91,10.74l-2.73-1.14L595,323l11.91-3.54-1.29-.75c4.78-2.23,7.34-7.32,9.92-12l3.77,2.24,2.23.63v7.88c0,2.48-1.64,5-4.92,6.85l-12,7c-6.55,3.78-17.2,3.78-23.76,0l-13.12-7.72c-3.21-1.86-4.85-4.29-4.9-6.74A2.91,2.91,0,0,1,562.77,316.6Z" transform="translate(-433 -216.07)"/><path class="cls-29" d="M562.77,316.6V309l3.51-2c1,6,8,9.92,13.91,10.74l-2.73-1.14L595,323l11.91-3.54-1.29-.75c4.78-2.23,7.34-7.32,9.92-12l3.77,2.24,2.23.63v7.88c0,2.48-1.64,5-4.92,6.85l-12,7c-6.55,3.78-17.2,3.78-23.76,0l-13.12-7.72c-3.21-1.86-4.85-4.29-4.9-6.74A2.91,2.91,0,0,1,562.77,316.6Z" transform="translate(-433 -216.07)"/><path class="cls-5" d="M580.19,317.83l-2.73-1.14,15.22,5.5v12a24.33,24.33,0,0,1-11.89-2.83l-13.11-7.72c-3.22-1.86-4.86-4.29-4.91-6.73,0-.12,0-.23,0-.34V309l3.21-1.78h.33C567.4,313.14,574.36,317,580.19,317.83Z" transform="translate(-433 -216.07)"/><path class="cls-6" d="M604.55,323.62l12-7c6.54-3.78,6.54-9.93,0-13.71l-13.12-7.72c-6.54-3.78-17.2-3.78-23.75,0l-12,7c-6.55,3.78-6.55,9.93,0,13.71l13.11,7.72C587.35,327.4,598,327.4,604.55,323.62Z" transform="translate(-433 -216.07)"/><path class="cls-10" d="M592.6,324.56A21.49,21.49,0,0,0,603.13,322l10.57-6.17c2.83-1.64,4.39-3.83,4.39-6.16s-1.56-4.53-4.39-6.17l-11.54-6.78c-5.8-3.35-15.23-3.35-21,0l-10.57,6.17c-2.84,1.64-4.39,3.83-4.39,6.16s1.55,4.53,4.39,6.17L582.08,322A21.48,21.48,0,0,0,592.6,324.56ZM603,321.77c-5.72,3.3-15,3.3-20.73,0L570.71,315c-2.73-1.58-4.24-3.67-4.24-5.9s1.51-4.31,4.24-5.89L581.28,297c5.71-3.3,15-3.3,20.72,0l11.53,6.79c2.74,1.57,4.25,3.67,4.25,5.89s-1.51,4.31-4.25,5.89Z" transform="translate(-433 -216.07)"/><path class="cls-13" d="M567.68,315.9l13.12,7.72c6.55,3.78,17.2,3.78,23.76,0l12-7c2.92-1.69,4.54-3.85,4.86-6.07.38,2.74-1.23,5.56-4.86,7.65l-12,7c-6.55,3.78-17.2,3.78-23.76,0l-13.12-7.72c-3.61-2.09-5.23-4.91-4.85-7.65C563.14,312.05,564.75,314.21,567.68,315.9Z" transform="translate(-433 -216.07)"/><path class="cls-12" d="M606.85,323.38l-1.11-.15.46-.23Z" transform="translate(-433 -216.07)"/><path class="cls-12" d="M579.4,321.43h.06l.73.3A2.46,2.46,0,0,1,579.4,321.43Z" transform="translate(-433 -216.07)"/><path class="cls-12" d="M566.19,311a3.29,3.29,0,0,1,0-.63,6.58,6.58,0,0,0,.09.67Z" transform="translate(-433 -216.07)"/><path class="cls-23" d="M562.77,315.91v.32c.05,2.44,1.69,4.88,4.91,6.74l13.11,7.72c6.55,3.78,17.2,3.78,23.76,0l12-7c3.28-1.89,4.92-4.37,4.92-6.86v.7c0,2.48-1.64,5-4.92,6.85l-12,7c-6.55,3.78-17.2,3.78-23.76,0l-13.11-7.72c-3.22-1.86-4.86-4.29-4.91-6.73,0-.12,0-.23,0-.34h0Z" transform="translate(-433 -216.07)"/><path class="cls-12" d="M501.35,394.33V316.07l4.37,2c-1.65-10,12.91,12.79,17.37,13.41l50,29.25,21.83,1.5,69.68-29.57-1.61-.94c6-2.78,9.17-9.15,12.39-15l4.69,2.8,2.79-3.25v78.26c0,3.1-2,6.2-6.13,8.55l-69.82,40.32c-8.17,4.71-21.47,4.71-29.64,0l-69.82-40.32c-4-2.32-6.06-5.35-6.13-8.4a2,2,0,0,1,0-.25Z" transform="translate(-433 -216.07)"/><path class="cls-30" d="M501.35,365v.4c.06,3,2.11,6.08,6.13,8.4l69.82,40.31c8.17,4.72,21.47,4.72,29.64,0l69.82-40.31c4.09-2.36,6.13-5.46,6.13-8.55v29.33c0,3.1-2,6.2-6.13,8.56l-69.82,40.31c-8.17,4.71-21.47,4.71-29.64,0l-69.82-40.31c-4-2.33-6.06-5.36-6.13-8.41,0-.14,0-.27,0-.41h0Z" transform="translate(-433 -216.07)"/><path class="cls-31" d="M501.35,364.9v.41c.06,3,2.11,6.08,6.13,8.4L577.3,414c8.17,4.72,21.47,4.72,29.64,0l69.82-40.31c4.09-2.36,6.13-5.46,6.13-8.55v1.69c0,3.1-2,6.21-6.13,8.56l-69.82,40.31c-8.17,4.71-21.47,4.71-29.64,0l-69.82-40.31c-4-2.32-6.06-5.36-6.13-8.4,0-.14,0-.27,0-.42h0Z" transform="translate(-433 -216.07)"/><path class="cls-32" d="M501.35,316.77v-9.42l4.37-2.44c1.24,7.47,10,12.39,17.37,13.41l50,29.25L595,355.46l69.68-36-1.61-.94c6-2.78,9.17-9.14,12.39-14.94l4.69,2.79,2.79.78V317c0,3.09-2,6.2-6.13,8.55L606.94,365.9c-8.17,4.72-21.47,4.72-29.64,0l-69.82-40.31c-4-2.32-6.06-5.36-6.13-8.4C501.35,317,501.36,316.9,501.35,316.77Z" transform="translate(-433 -216.07)"/><path class="cls-32" d="M501.35,316.77v-9.42l4.37-2.44c1.24,7.47,10,12.39,17.37,13.41l50,29.25L595,355.46l69.68-36-1.61-.94c6-2.78,9.17-9.14,12.39-14.94l4.69,2.79,2.79.78V317c0,3.09-2,6.2-6.13,8.55L606.94,365.9c-8.17,4.72-21.47,4.72-29.64,0l-69.82-40.31c-4-2.32-6.06-5.36-6.13-8.4C501.35,317,501.36,316.9,501.35,316.77Z" transform="translate(-433 -216.07)"/><path class="cls-5" d="M523.09,318.32l50,29.25,19,6.87v15a30.34,30.34,0,0,1-14.83-3.54l-69.82-40.31c-4-2.32-6.06-5.36-6.13-8.4,0-.15,0-.27,0-.42v-9.42l4-2.23h.42C507.13,312.47,515.83,317.31,523.09,318.32Z" transform="translate(-433 -216.07)"/><path class="cls-33" d="M637.54,310.8a9,9,0,0,0-1.39-1l-36.31-21a17.12,17.12,0,0,0-15.43,0l-36.3,21a8.22,8.22,0,0,0-1.4,1c-2.79-2.44-2.32-5.77,1.4-7.91l36.3-21a17.12,17.12,0,0,1,15.43,0l36.31,21C639.86,305,640.33,308.36,637.54,310.8Z" transform="translate(-433 -216.07)"/><path class="cls-6" d="M507.48,298.79l69.82-40.31c8.17-4.72,21.47-4.73,29.64,0l69.82,40.31c8.17,4.71,8.17,12.39,0,17.12l-69.82,40.31c-8.17,4.71-21.47,4.71-29.64,0l-69.82-40.31C499.31,311.18,499.31,303.5,507.48,298.79Zm40.62,13,36.31,21a17.09,17.09,0,0,0,15.42,0l36.31-21c4.26-2.45,4.26-6.46,0-8.91l-36.31-21a17.09,17.09,0,0,0-15.42,0l-36.31,21C543.85,305.34,543.85,309.35,548.1,311.8Z" transform="translate(-433 -216.07)"/><path class="cls-34" d="M515.29,299.57,578.66,263c7.42-4.28,19.5-4.28,26.91,0L669,299.57c7.41,4.29,7.41,11.26,0,15.54l-63.38,36.6c-7.41,4.28-19.49,4.28-26.91,0l-63.37-36.6C507.87,310.83,507.87,303.86,515.29,299.57Zm22.88,13.23,44.49,25.7c5.21,3,13.7,3,18.9,0l44.51-25.7c5.2-3,5.2-7.9,0-10.9l-44.5-25.7c-5.2-3-13.69-3-18.89,0l-44.51,25.7C533,304.89,533,309.79,538.17,312.8Z" transform="translate(-433 -216.07)"/><path class="cls-13" d="M507.48,315.9l69.82,40.31c8.17,4.72,21.47,4.72,29.64,0l69.82-40.31c3.64-2.11,5.67-4.82,6.06-7.57.48,3.42-1.54,6.94-6.06,9.54l-69.82,40.31c-8.17,4.72-21.47,4.72-29.64,0l-69.82-40.31c-4.52-2.61-6.53-6.12-6.05-9.54C501.81,311.09,503.83,313.8,507.48,315.9Z" transform="translate(-433 -216.07)"/><g class="cls-11"><path class="cls-12" d="M599.84,332.76l36.31-21c4.25-2.45,4.25-6.46,0-8.91l-36.31-21a17.12,17.12,0,0,0-15.43,0l-36.3,21c-4.26,2.45-4.26,6.44,0,8.91l36.3,21A17.12,17.12,0,0,0,599.84,332.76Z" transform="translate(-433 -216.07)"/></g><path class="cls-35" d="M562.78,361.69c0,.11,0,.22,0,.33.05,2.44,1.69,4.88,4.91,6.74l13.11,7.72c6.55,3.78,17.2,3.78,23.76,0l12-7c3.28-1.89,4.92-4.37,4.92-6.86v21.53c0,2.48-1.64,5-4.92,6.85l-12,7c-6.55,3.78-17.2,3.78-23.76,0l-13.11-7.72c-3.22-1.86-4.86-4.29-4.91-6.74,0-.11,0-.22,0-.33h0v-13h0v-8.54Z" transform="translate(-433 -216.07)"/><path class="cls-36" d="M544.92,216.07h94.42v91.28c0,1.6-1.07,3.22-3.19,4.45l-36.31,21a17.09,17.09,0,0,1-15.42,0l-36.31-21c-2.12-1.23-3.18-2.84-3.18-4.45V216.07Z" transform="translate(-433 -216.07)"/></svg>