<svg id="Слой_1" data-name="Слой 1" xmlns="http://www.w3.org/2000/svg" viewBox="0 0 31.73 48.25"><defs><style>.cls-1{fill:#f59738;}</style></defs><title>tie</title><path class="cls-1" d="M686,379.36H679a.66.66,0,0,1-.36-.11.7.7,0,0,1-.24-.3l-1.64-4.05a.7.7,0,0,1,0-.53.67.67,0,0,1,.37-.37.68.68,0,0,1,.9.38l1.42,3.61h6.14l1.45-3.63a.72.72,0,0,1,.37-.38.69.69,0,0,1,.91.9L686.67,379a.7.7,0,0,1-.64.41Z" transform="translate(-666.63 -359.37)"/><path class="cls-1" d="M682.5,407.62a.72.72,0,0,1-.29-.06.75.75,0,0,1-.24-.19l-6.7-8a.6.6,0,0,1-.13-.25.58.58,0,0,1,0-.29l3.17-20.23a.72.72,0,0,1,.24-.42A.71.71,0,0,1,679,378h7a.75.75,0,0,1,.45.16.72.72,0,0,1,.24.42l3.17,20.23a.72.72,0,0,1,0,.29.75.75,0,0,1-.13.25l-6.71,8a.65.65,0,0,1-.24.19A.72.72,0,0,1,682.5,407.62Zm-6-8.9,6,7.14,6-7.14-3-19.36h-5.88Z" transform="translate(-666.63 -359.37)"/><path class="cls-1" d="M675.8,399.61a.64.64,0,0,1-.38-.12.71.71,0,0,1-.26-.31.78.78,0,0,1,0-.4.8.8,0,0,1,.19-.35.7.7,0,0,1,.36-.19.65.65,0,0,1,.39,0,.64.64,0,0,1,.31.25.69.69,0,0,1,.12.39.75.75,0,0,1,0,.26.91.91,0,0,1-.15.23,1.14,1.14,0,0,1-.23.15.81.81,0,0,1-.27.05Z" transform="translate(-666.63 -359.37)"/><path class="cls-1" d="M675.8,399.61a.64.64,0,0,1-.38-.12.71.71,0,0,1-.26-.31.78.78,0,0,1,0-.4.8.8,0,0,1,.19-.35.7.7,0,0,1,.36-.19.65.65,0,0,1,.39,0,.64.64,0,0,1,.31.25.69.69,0,0,1,.12.39.75.75,0,0,1,0,.26.91.91,0,0,1-.15.23,1.14,1.14,0,0,1-.23.15.81.81,0,0,1-.27.05Z" transform="translate(-666.63 -359.37)"/><path class="cls-1" d="M689.68,377.61a.71.71,0,0,1-.29-.05.66.66,0,0,1-.23-.17L682,369.25a.72.72,0,0,1-.14-.24.67.67,0,0,1,0-.28.62.62,0,0,1,.09-.26.53.53,0,0,1,.18-.21l11.21-8.74a.68.68,0,0,1,.24-.12.67.67,0,0,1,.53.07.57.57,0,0,1,.2.18l4,5.33a.68.68,0,0,1,0,.8l-8,11.52a.93.93,0,0,1-.23.21.6.6,0,0,1-.29.08Zm-6.21-8.72,6.12,6.93,7.21-10.41-3.22-4.36Z" transform="translate(-666.63 -359.37)"/><path class="cls-1" d="M675.33,377.61h-.05a.6.6,0,0,1-.29-.08.93.93,0,0,1-.23-.21l-8-11.53a.73.73,0,0,1-.13-.4.68.68,0,0,1,.13-.4l4-5.34a.86.86,0,0,1,.2-.18.62.62,0,0,1,.26-.09.82.82,0,0,1,.27,0,.7.7,0,0,1,.24.13l11.21,8.74a.46.46,0,0,1,.18.21.62.62,0,0,1,.09.26.67.67,0,0,1,0,.28.72.72,0,0,1-.14.24l-7.18,8.14a.66.66,0,0,1-.23.17A.69.69,0,0,1,675.33,377.61Zm-7.16-12.2,7.22,10.41,6.11-6.9-10.08-7.87Z" transform="translate(-666.63 -359.37)"/></svg>