<svg id="Слой_1" fill="#ffffff" data-name="Слой 1" xmlns="http://www.w3.org/2000/svg" viewBox="0 0 439.09 512"><title>to-top</title><path d="M717.94,609.23a37.44,37.44,0,0,0,.47-6.34V241.68l3.66,7.88a73.24,73.24,0,0,0,14.65,20.7L838,371.55a37.92,37.92,0,0,0,48.54,5.31,36.63,36.63,0,0,0,7.92-51.2,37.65,37.65,0,0,0-3.15-3.75L708.15,138.74a36.65,36.65,0,0,0-51.81,0l0,0L473.15,321.91a36.63,36.63,0,0,0,.07,51.81,35.43,35.43,0,0,0,52.13-2.17L626.82,270.44a73.09,73.09,0,0,0,13.37-18.32l4.95-11V600.87a37.91,37.91,0,0,0,30.77,38.65A36.63,36.63,0,0,0,717.94,609.23Z" transform="translate(-462.45 -128)"/></svg>